<svg width="300" height="300" viewBox="0 0 300 300" fill="none" xmlns="http://www.w3.org/2000/svg">
<path fill-rule="evenodd" clip-rule="evenodd" d="M166.784 225.515C150.239 213.005 130.29 224.998 120.883 235.099C92.4638 265.617 73.1003 240.958 73.1003 240.958C73.1003 240.958 83.0371 272.678 121.946 273.204C133.65 273.362 143.958 271.346 157.724 259.599C168.368 250.517 176.178 232.618 166.784 225.515ZM73.1641 236.134C73.8859 233.972 75.879 231.928 80.8002 231.815C88.7495 231.633 97.6906 239.09 105.362 243.734C102.116 245.516 98.6075 246.786 94.905 247.143C94.0738 247.223 93.2382 247.256 92.4032 247.238C90.877 247.207 89.3551 247.007 87.872 246.646C86.117 246.218 84.402 245.569 82.8058 244.722C80.554 243.526 78.5027 242.023 76.6803 240.241C76.3409 239.899 76.0115 239.55 75.6928 239.188C74.8415 238.176 73.9997 237.158 73.1641 236.134ZM225.333 108.327C202.414 120.308 205.297 149.185 211.669 165.172C230.919 213.471 192.804 222.152 192.804 222.152C192.804 222.152 233.853 227.859 255.185 184.285C261.601 171.177 264.824 158.485 258.921 136.706C254.358 119.868 238.346 101.525 225.333 108.327ZM213.865 186.777C214.215 191.816 213.744 196.909 211.931 201.65C211.553 202.639 211.118 203.607 210.627 204.546C209.657 206.403 208.468 208.143 207.095 209.726C205.341 211.747 203.293 213.506 201.062 214.983C198.398 216.747 195.468 218.144 192.396 219.03C190.971 219.405 189.544 219.766 188.114 220.118C185.673 218.261 183.827 214.834 186.603 208.599C190.742 199.303 204.512 193.118 213.865 186.777ZM9.1011 120.819C43.0982 96.9763 82.1527 122.397 100.25 143.28C154.924 206.373 195.43 158.422 195.43 158.422C195.43 158.422 173.279 221.175 95.395 219.442C71.9684 218.92 51.4899 214.149 24.7872 189.662C4.14117 170.729 -10.203 134.358 9.1011 120.819ZM127.497 163.385C143.826 154.957 163.698 138.582 180.679 139.579C193.553 140.335 196.159 147.352 196.216 152.754L192.974 156.486L192.661 156.831L192.431 157.077C188.826 160.84 184.583 164.029 180.034 166.564C176.133 168.739 171.953 170.423 167.609 171.473C164.473 172.232 161.258 172.657 158.032 172.731C155.974 172.778 153.912 172.683 151.866 172.453C150.462 172.295 149.064 172.073 147.68 171.792C140.466 170.328 133.712 167.295 127.497 163.385ZM112.879 129.908C146.876 153.751 185.931 128.33 204.028 107.447C258.703 44.3544 299.208 92.3045 299.208 92.3045C299.208 92.3045 277.057 29.5527 199.173 31.2852C175.747 31.8065 155.268 36.5777 128.565 61.0655C107.92 79.9984 93.5751 116.37 112.879 129.908ZM231.28 87.3439C238.168 83.0152 245.733 79.7484 253.805 78.5178C255.598 78.2446 257.407 78.074 259.219 78.0115C262.532 77.8971 265.855 78.1503 269.112 78.7646C273.409 79.574 277.576 81.0102 281.494 82.9452C286.521 85.4277 291.143 88.7114 295.176 92.602C295.605 93.027 296.028 93.4557 296.439 93.8969C297.638 95.2219 298.821 96.5613 299.996 97.9081C299.958 103.319 297.384 110.389 284.457 111.149C267.478 112.145 247.607 95.7738 231.28 87.3439Z" fill="white"/>
</svg>
