<svg width="450" height="450" viewBox="0 0 450 450" fill="none" xmlns="http://www.w3.org/2000/svg">
<path fill-rule="evenodd" clip-rule="evenodd" d="M245.269 24.375H271.744V75.9375L318.534 75.8812L345.759 103.125H329.447L317.259 124.172L327.731 124.219L327.797 139.603L344.981 139.706L344.906 162.75L362.475 162.694L362.297 195.272C366.195 196.111 369.806 197.957 372.769 200.625C373.518 201.272 374.208 201.984 374.831 202.753C375.779 203.946 376.573 205.252 377.194 206.644L377.409 207.15L377.541 207.497H379.088C380.787 207.605 382.464 207.92 384.084 208.434C384.986 208.726 385.867 209.079 386.719 209.494C393.095 213.07 398.091 218.684 400.903 225.431C401.438 226.547 401.934 227.681 402.412 228.816L402.694 229.519C402.694 229.519 404.822 234.731 405.759 237.375C406.744 239.7 407.516 242.11 408.066 244.575L402.103 246.45C402.103 246.45 398.945 240.452 394.106 240.45H359.325L353.325 249.694H374.156V264.975H387.553V282.188H374.1V293.85H352.828L352.772 301.481H335.503L335.587 388.228L262.256 388.303V422.344H245.644V450H209.269V422.419H192.703V388.378L119.372 388.303L119.456 301.556H102.178L102.122 293.925H80.7844V282.262H67.3969V264.881H80.7844V249.6H101.616L95.6156 240.356H60.8344C55.9959 240.358 52.8375 246.356 52.8375 246.356L46.875 244.481C47.4244 242.017 48.1969 239.606 49.1813 237.281C50.1188 234.628 52.2469 229.425 52.2469 229.425L52.5281 228.722C53.0062 227.578 53.4656 226.444 54.0375 225.337C56.85 218.59 61.8459 212.977 68.2219 209.4C69.0741 208.986 69.9544 208.632 70.8563 208.341C72.4772 207.825 74.1553 207.511 75.8531 207.403C76.3688 207.403 76.8844 207.403 77.4 207.403L77.5406 207.056L77.7562 206.55C78.3769 205.159 79.1709 203.852 80.1188 202.659C80.7347 201.924 81.4116 201.244 82.1438 200.625C85.0931 197.972 88.6828 196.133 92.5594 195.291L92.3813 162.713L109.941 162.769L109.894 139.687L127.078 139.584L127.144 124.2L137.616 124.153L125.466 103.125H109.153L136.341 75.8719L183.131 75.9281V24.3656H209.644V0H245.269V24.375ZM254.55 414.919V388.303H237.975V403.566H216.947V388.303H200.372V414.919H216.909V442.5H238.003V414.919H254.55ZM327.722 380.803L327.713 297.366H127.2V380.803H327.722ZM294.694 370.781C294.78 371.244 294.744 371.723 294.591 372.169C294.397 372.75 294.148 373.312 293.85 373.847C293.498 374.492 293.035 375.07 292.481 375.553C292.26 375.821 291.952 376.004 291.609 376.069C291.256 375.95 290.935 375.751 290.672 375.488C290.278 375.162 289.866 374.828 289.434 374.484C289.105 374.236 288.792 373.966 288.497 373.678C288.286 373.522 288.142 373.29 288.094 373.031C288.356 372.478 288.562 372.047 288.694 371.747C289.144 370.797 289.478 370.109 289.697 369.684C290.097 369.059 290.5 368.393 290.906 367.688L291.309 367.106C291.433 367.225 291.568 367.331 291.712 367.425L292.247 367.744C292.926 368.24 293.554 368.802 294.122 369.422C294.435 369.813 294.641 370.278 294.722 370.772L294.694 370.781ZM244.481 361.481C247.506 361.49 250.523 361.198 253.491 360.609C256.119 360.097 258.707 359.395 261.234 358.509C263.52 357.687 265.684 356.558 267.666 355.153C269.539 353.861 271.229 352.322 272.691 350.578C273.091 350.06 273.715 349.244 274.566 348.131C274.969 347.569 275.259 347.194 275.438 346.969C275.616 346.744 275.663 346.791 275.709 346.837C275.763 346.911 275.786 347.001 275.775 347.091L275.709 347.803C275.665 348.19 275.566 349.019 275.409 350.287C275.264 351.4 275.185 352.522 275.175 353.644C275.12 355.317 275.403 356.986 276.009 358.547C276.492 359.783 277.732 360.569 279.056 360.478C279.994 360.478 280.91 359.782 281.803 358.387C282.864 356.558 283.612 354.565 284.016 352.491L284.184 351.656C284.242 351.4 284.275 351.14 284.288 350.878C284.288 350.447 284.175 350.231 283.95 350.231C283.725 350.231 283.622 350.428 283.519 350.812C283.416 351.197 283.303 351.544 283.219 351.844C282.731 353.175 282.172 353.841 281.541 353.841C280.805 353.861 280.079 353.659 279.459 353.259C278.383 352.361 277.829 350.977 277.988 349.584V348.581C277.988 347.806 278.056 346.657 278.194 345.131C278.344 343.437 278.543 341.75 278.794 340.069L280.2 333.3C280.263 332.969 280.328 332.637 280.397 332.306L281.963 331.247L288.225 326.503C290.018 325.347 291.806 324.178 293.588 322.997C295.132 321.972 296.65 320.916 298.144 319.828C300.556 318.066 302.365 316.722 303.572 315.797C305.178 314.547 306.319 313.647 306.994 313.097C307.669 312.547 308.328 311.944 308.972 311.287C309.778 310.519 310.55 309.722 311.288 308.897C311.948 308.136 312.553 307.327 313.097 306.478C313.641 305.74 314.071 304.925 314.372 304.059C314.462 303.903 314.507 303.725 314.503 303.544C314.503 303.619 312.828 305.037 309.478 307.8C307.734 309.275 305.969 310.732 304.181 312.169C302.262 313.694 300.297 315.172 298.284 316.603C295.434 318.591 292.575 320.566 289.706 322.528C286.939 324.491 284.287 326.614 281.766 328.884C281.167 329.4 280.645 330 280.219 330.666C280.137 330.777 280.062 330.892 279.994 331.012C279.688 331.527 279.412 332.06 279.169 332.606L278.869 333.197C278.301 334.257 277.808 335.357 277.397 336.487L276.459 340.162C275.992 341.865 275.243 343.477 274.247 344.934C272.865 346.766 271.106 348.281 269.091 349.378C263.572 352.427 257.426 354.169 251.128 354.469C249.609 354.6 247.578 354.666 245.034 354.666C241.973 355.085 238.861 354.4 236.259 352.734C235.706 352.12 235.376 351.338 235.322 350.513C235.256 349.669 235.153 349.256 235.022 349.256C234.666 349.256 234.387 349.987 234.188 351.45C233.991 352.86 233.891 354.282 233.887 355.706C233.786 357.007 234.156 358.301 234.928 359.353C236.015 360.332 237.39 360.931 238.847 361.059C240.398 361.302 241.965 361.412 243.534 361.387L244.481 361.481ZM224.653 351.366V351.422C225.591 350.503 226.147 349.941 226.322 349.734C227.02 348.942 227.587 348.044 228 347.072C228.542 345.718 228.935 344.31 229.172 342.872C229.452 341.542 229.618 340.19 229.669 338.831C229.669 337.706 229.669 336.525 229.669 335.287C229.669 334.05 229.747 332.8 229.903 331.537C229.903 330.366 229.969 329.663 229.969 329.344C229.969 329.288 229.969 329.231 229.969 329.184C230.109 329.109 230.288 328.997 230.494 328.866L232.472 327.516L237.263 324.272C239.138 323.065 240.987 321.847 242.813 320.616C244.413 319.547 245.975 318.441 247.5 317.297C250 315.422 251.875 314.009 253.125 313.059C254.8 311.766 255.987 310.828 256.688 310.247C257.388 309.666 258.082 309.022 258.769 308.316C259.619 307.497 260.435 306.647 261.216 305.766C261.923 304.941 262.571 304.066 263.156 303.15C263.746 302.342 264.219 301.455 264.563 300.516C264.662 300.341 264.716 300.144 264.722 299.944C264.722 300.031 262.969 301.535 259.463 304.453C257.637 306.016 255.794 307.559 253.931 309.084C251.932 310.697 249.884 312.26 247.791 313.772C244.835 315.853 241.868 317.918 238.894 319.969C236.607 321.487 234.415 323.142 232.331 324.928C231.699 325.474 231.147 326.105 230.691 326.803C230.241 327.502 229.843 328.231 229.5 328.987L229.388 329.25V329.306L227.119 334.566C226.907 335.093 226.793 335.656 226.781 336.225C226.737 336.956 226.716 337.803 226.716 338.766L226.781 342.966C226.844 344.335 226.617 345.702 226.116 346.978C225.907 347.412 225.65 347.822 225.347 348.197C225.135 348.481 224.874 348.725 224.578 348.919L224.175 349.106C223.857 349.143 223.536 349.101 223.238 348.984C223.013 349.322 222.787 349.631 222.562 349.922C222.206 350.392 221.716 350.741 221.156 350.925C220.891 351.069 220.56 351.019 220.35 350.803C220.041 351.094 219.75 351.394 219.478 351.684C219.057 352.133 218.48 352.401 217.866 352.434C217.26 352.437 216.655 352.394 216.056 352.303C215.069 352.972 214.106 353.641 213.169 354.309C212.37 354.822 211.436 355.083 210.487 355.059C208.895 355.198 207.348 354.452 206.466 353.119C205.931 352.141 205.678 351.035 205.734 349.922C205.734 349.416 205.734 348.609 205.866 347.475C205.978 346.132 206.135 344.794 206.334 343.463L207.478 335.812L207.75 334.181C207.829 333.853 207.851 333.514 207.816 333.178L207.544 333.3C207.143 334.094 206.609 335.262 205.941 336.806C205.272 338.35 204.916 339.206 204.872 339.375C204.56 341.425 204.157 344.381 203.663 348.244C203.168 352.106 202.922 354.293 202.922 354.806C202.932 355.384 202.976 355.959 203.053 356.531C203.099 357.077 203.209 357.615 203.381 358.134C203.849 360.081 205.608 361.461 207.609 361.453C209.461 361.365 211.139 360.32 212.034 358.697C213.284 356.859 214.291 355.941 215.053 355.941L215.991 356.034C216.246 356.068 216.504 356.068 216.759 356.034C217.242 355.849 217.685 355.571 218.063 355.219C218.445 354.88 218.848 354.567 219.272 354.281C219.56 354.12 219.88 354.024 220.209 354C220.494 353.98 220.771 353.894 221.016 353.747C221.372 353.409 221.672 353.147 221.953 352.959C222.18 352.781 222.429 352.633 222.694 352.519C222.937 352.416 223.444 352.172 224.203 351.797L224.606 351.478L224.653 351.366ZM175.631 344.063C175.588 344.93 175.475 345.791 175.294 346.641C175.069 347.841 174.844 348.893 174.619 349.8L173.812 352.959C173.362 354.159 173.006 355.041 172.744 355.603C172.414 356.289 172.044 356.956 171.638 357.6C171.359 358.052 171.008 358.454 170.597 358.791C170.027 359.197 169.421 359.552 168.788 359.85L166.378 360.788C165.862 360.948 165.336 361.076 164.803 361.172C164.286 361.298 163.759 361.387 163.228 361.434C163.003 361.434 162.872 361.359 162.825 361.209C162.788 361.018 162.836 360.819 162.956 360.666C163.423 360.038 163.994 359.497 164.644 359.063C165.563 358.375 166.469 357.71 167.363 357.066C168.387 356.159 169.147 355.45 169.641 354.938C170.408 354.137 171.083 353.249 171.647 352.294C171.875 351.87 172.067 351.428 172.219 350.972C172.462 350.309 172.853 349.225 173.391 347.719L174.197 345.394C174.284 345.05 174.419 344.632 174.6 344.138C174.778 343.65 175.003 343.397 175.275 343.397C175.443 343.579 175.559 343.802 175.613 344.044L175.631 344.063ZM169.2 326.109C169.247 325.967 169.223 325.809 169.134 325.688C169.007 325.533 168.847 325.408 168.666 325.322C167.838 325.502 167.046 325.819 166.322 326.259C165.46 326.698 164.63 327.196 163.837 327.75C162.987 328.338 162.293 328.853 161.756 329.297C160.54 330.373 159.397 331.529 158.334 332.756C156.91 334.356 155.714 336.144 154.781 338.072C154.046 339.453 153.611 340.973 153.506 342.534C153.469 343.184 153.657 343.827 154.041 344.353C154.456 344.839 154.984 345.216 155.578 345.45C155.879 345.59 156.193 345.699 156.516 345.778C156.785 345.841 157.231 345.963 157.856 346.144C158.482 346.325 158.794 346.597 158.794 346.959C158.752 347.698 158.508 348.412 158.091 349.022C157.514 349.922 156.828 350.748 156.047 351.478C155.068 352.404 153.936 353.153 152.7 353.691C150.956 354.493 149.06 354.909 147.141 354.909C145.237 355.027 143.347 354.526 141.75 353.484C140.525 352.592 139.821 351.146 139.875 349.631C140.1 347.224 140.757 344.877 141.816 342.703L142.622 341.006C143.159 339.875 143.562 339.066 143.831 338.578C144.319 337.641 144.647 336.984 144.769 336.6C144.891 336.216 145.134 335.719 145.406 335.109C145.505 334.902 145.55 334.673 145.538 334.444C145.538 334.078 145.378 333.9 145.069 333.9C144.937 333.9 144.769 334.059 144.563 334.387C144.356 334.716 144.169 335.034 143.991 335.325L142.453 338.306L140.512 342.131C139.702 343.72 139.007 345.365 138.431 347.053C138.082 348.075 137.813 349.121 137.625 350.184C137.443 351.237 137.352 352.303 137.353 353.372C137.363 354.286 137.498 355.194 137.756 356.072C138.042 357.055 138.52 357.973 139.162 358.772C140.703 360.581 143.031 361.533 145.397 361.322C147.678 361.369 149.927 360.781 151.894 359.625C152.887 359.048 153.81 358.357 154.641 357.562C155.437 356.81 156.177 355.998 156.853 355.134C158.176 353.252 159.195 351.173 159.872 348.975C160.572 346.949 160.958 344.828 161.016 342.684C161.154 341.669 160.747 340.652 159.947 340.013C159.732 339.856 159.495 339.733 159.244 339.647L158.409 339.347L157.2 338.794C156.926 338.516 156.76 338.151 156.731 337.762C156.903 337.162 157.225 336.617 157.669 336.178C158.473 335.209 159.382 334.332 160.378 333.563C161.202 332.828 162.127 332.216 163.125 331.744C163.792 331.4 164.523 331.192 165.272 331.134C165.427 331.142 165.577 331.194 165.703 331.284L166.209 331.622C166.481 331.622 166.791 331.378 167.147 330.891C167.241 330.769 167.494 330.291 167.916 329.466C168.261 328.835 168.574 328.188 168.853 327.525C169.032 327.064 169.167 326.587 169.256 326.1L169.2 326.109ZM197.184 352.153L196.247 354.534C195.848 355.388 195.365 356.198 194.803 356.953C194.427 357.516 193.966 358.015 193.434 358.434C192.798 358.795 192.126 359.087 191.428 359.306L190.022 359.822C189.303 360.047 188.587 360.284 187.875 360.534C187.179 360.769 186.459 360.92 185.728 360.984L185.456 360.853C185.456 360.553 186.26 359.909 187.866 358.922L190.481 357.122C190.925 356.822 191.416 356.456 191.953 356.025C192.577 355.518 193.162 354.967 193.706 354.375C194.26 353.808 194.683 353.126 194.944 352.378C194.95 352.248 194.973 352.119 195.009 351.994L193.266 352.125C192.526 352.152 191.804 351.886 191.259 351.384C190.763 350.993 190.507 350.37 190.584 349.744C190.65 349.323 190.762 348.91 190.922 348.516C191.1 348.047 191.503 347.184 192.131 345.938C192.477 345.218 192.882 344.528 193.341 343.875C193.922 343.097 194.484 342.712 195.019 342.712C195.923 342.718 196.779 343.119 197.363 343.809C198.029 344.526 198.389 345.475 198.366 346.453C198.366 346.972 198.322 347.489 198.234 348L198 349.35C197.934 349.734 197.831 350.203 197.7 350.737C197.587 351.214 197.43 351.678 197.231 352.125L197.184 352.153ZM187.088 343.556C187.043 344.425 186.93 345.286 186.75 346.134C186.525 347.334 186.3 348.387 186.075 349.294L185.269 352.5C184.819 353.707 184.463 354.588 184.2 355.144C183.87 355.83 183.501 356.497 183.094 357.141C182.813 357.591 182.462 357.993 182.053 358.331C181.482 358.737 180.877 359.092 180.244 359.391L177.834 360.328C177.318 360.488 176.792 360.617 176.259 360.712C175.742 360.839 175.215 360.927 174.684 360.975C174.459 360.975 174.328 360.9 174.281 360.75C174.245 360.559 174.293 360.36 174.413 360.206C174.883 359.573 175.461 359.028 176.119 358.594C177.038 357.907 177.944 357.241 178.838 356.597C179.862 355.697 180.622 354.987 181.116 354.469C181.883 353.667 182.557 352.78 183.122 351.825C183.35 351.401 183.541 350.96 183.694 350.503C183.938 349.835 184.328 348.75 184.866 347.25L185.672 344.925C185.766 344.578 185.897 344.166 186.075 343.669C186.253 343.172 186.478 342.928 186.75 342.928C186.913 343.104 187.029 343.32 187.088 343.556ZM290.869 348.656C290.869 348.141 290.869 347.306 291 346.144C291.113 344.763 291.269 343.387 291.469 342.019L292.612 334.153L292.884 332.475C292.965 332.138 292.987 331.789 292.95 331.444L292.678 331.575C292.278 332.393 291.741 333.597 291.066 335.184C290.391 336.772 290.034 337.653 289.997 337.828C289.685 339.935 289.282 342.975 288.788 346.95C288.293 350.925 288.047 353.163 288.047 353.662C287.992 355.336 288.275 357.005 288.881 358.566C289.364 359.802 290.603 360.588 291.928 360.497C292.866 360.497 293.782 359.8 294.675 358.406C295.736 356.577 296.483 354.584 296.887 352.509L297.056 351.675C297.113 351.419 297.147 351.158 297.159 350.897C297.159 350.466 297.047 350.25 296.822 350.25C296.597 350.25 296.503 350.447 296.391 350.831L296.091 351.863C295.597 353.194 295.038 353.859 294.412 353.859C293.677 353.88 292.951 353.677 292.331 353.278C291.255 352.38 290.701 350.996 290.859 349.603V348.666L290.869 348.656ZM178.706 329.466C178.792 329.931 178.757 330.408 178.603 330.853C178.407 331.433 178.16 331.996 177.863 332.531C177.511 333.176 177.048 333.755 176.494 334.238C176.272 334.507 175.964 334.689 175.622 334.753C175.268 334.635 174.947 334.436 174.684 334.172C174.272 333.828 173.847 333.494 173.409 333.169C173.08 332.92 172.767 332.651 172.472 332.362C172.261 332.206 172.117 331.974 172.069 331.716C172.338 331.16 172.537 330.731 172.669 330.431C173.119 329.494 173.447 328.8 173.672 328.369C174.075 327.722 174.478 327.056 174.881 326.372L175.284 325.791C175.408 325.912 175.543 326.022 175.687 326.119L176.222 326.437C176.902 326.932 177.53 327.495 178.097 328.116C178.413 328.505 178.623 328.969 178.706 329.466ZM213.834 320.897C213.754 320.403 213.547 319.938 213.234 319.547C212.666 318.926 212.038 318.365 211.359 317.869L210.825 317.55C210.681 317.457 210.546 317.35 210.422 317.231L210.019 317.812C209.618 318.5 209.215 319.165 208.809 319.809C208.584 320.241 208.25 320.928 207.806 321.872C207.675 322.172 207.469 322.603 207.206 323.156C207.255 323.415 207.398 323.646 207.609 323.803C207.905 324.091 208.218 324.361 208.547 324.609C208.978 324.928 209.403 325.259 209.822 325.603C210.083 325.868 210.405 326.068 210.759 326.184C211.102 326.121 211.411 325.939 211.631 325.669C212.188 325.186 212.654 324.608 213.009 323.962C213.307 323.427 213.555 322.866 213.75 322.284C213.904 321.839 213.939 321.36 213.853 320.897H213.834ZM220.734 320.512C220.821 320.977 220.785 321.455 220.631 321.9C220.436 322.481 220.189 323.043 219.891 323.578C219.54 324.224 219.077 324.802 218.522 325.284C218.302 325.554 217.992 325.736 217.65 325.8C217.297 325.681 216.976 325.482 216.713 325.219C216.3 324.875 215.875 324.541 215.437 324.216C215.108 323.967 214.795 323.698 214.5 323.409C214.289 323.252 214.146 323.021 214.097 322.762C214.369 322.209 214.566 321.769 214.697 321.478C215.022 320.784 215.356 320.097 215.7 319.416C216.044 318.734 216.447 318.068 216.909 317.419L217.313 316.837C217.435 316.957 217.57 317.064 217.716 317.156L218.25 317.484C218.929 317.98 219.557 318.543 220.125 319.162C220.444 319.551 220.657 320.015 220.744 320.512H220.734ZM282.3 320.034C282.385 320.499 282.35 320.977 282.197 321.422C282.003 322.003 281.754 322.565 281.456 323.1C281.104 323.745 280.641 324.322 280.087 324.806C279.866 325.075 279.558 325.258 279.216 325.322C278.862 325.204 278.542 325.004 278.278 324.741C277.866 324.397 277.441 324.063 277.003 323.737C276.673 323.49 276.36 323.221 276.066 322.931C275.855 322.775 275.71 322.543 275.662 322.284C275.932 321.728 276.131 321.3 276.263 321C276.713 320.062 277.041 319.369 277.266 318.938C277.669 318.291 278.072 317.625 278.475 316.941L278.878 316.359C279.002 316.481 279.137 316.591 279.281 316.687L279.816 317.006C280.495 317.501 281.124 318.063 281.691 318.684C282.01 319.072 282.214 319.537 282.3 320.034ZM217.247 312.534C217.163 312.039 216.953 311.574 216.637 311.184C216.071 310.562 215.443 310 214.763 309.506L214.228 309.187C214.083 309.096 213.948 308.989 213.825 308.869L213.422 309.45C213.019 310.134 212.616 310.8 212.212 311.447C211.987 311.878 211.65 312.562 211.209 313.509C211.078 313.809 210.872 314.241 210.6 314.794C210.648 315.052 210.792 315.284 211.003 315.441C211.275 315.703 211.594 315.975 211.941 316.284L213.216 317.287C213.483 317.538 213.803 317.724 214.153 317.831C214.495 317.768 214.804 317.585 215.025 317.316C215.579 316.833 216.042 316.254 216.394 315.609C216.691 315.074 216.939 314.512 217.134 313.931C217.288 313.485 217.323 313.008 217.238 312.544L217.247 312.534ZM185.841 289.941V229.003L159.591 202.753L101.184 202.791C86.7281 202.791 83.6344 208.125 83.5219 216.694C72.8344 211.303 64.3219 219.394 59.1469 232.866H124.069L161.184 289.941H185.841ZM223.706 289.903V220.369L197.597 201.375V103.584L185.681 82.9594L140.072 82.8844L129.759 93.1969H145.772L163.303 123.563V195.853L193.303 225.853V289.903H223.706ZM152.231 289.903L119.991 240.328H104.728L136.894 289.903H152.231ZM325.125 93.2813L314.813 82.9688H269.231L257.316 103.594V201.384L231.206 220.369V289.903H261.609L261.581 225.938L291.581 195.938V123.647L309.113 93.2813H325.125ZM293.728 289.903L330.844 232.828L395.775 232.791C390.628 219.319 382.116 211.2 371.4 216.619C371.297 208.05 368.194 202.716 353.738 202.716H295.359L269.109 228.966V289.903H293.728ZM318.019 289.903L350.231 240.328H334.959L302.719 289.903H318.019ZM353.709 276.488L353.7 267.956H341.203L335.663 276.488H353.709ZM119.25 276.488L113.709 267.956H101.213V276.488H119.25ZM237.572 31.875L237.581 7.5H217.341V31.875H190.894L190.809 76.875L205.097 101.588V197.55L223.706 211.087V188.831L217.031 183.975V45.3375H237.881V183.984L231.206 188.841V211.097L249.816 197.597V101.625L264.103 76.875L264.019 31.875H237.572ZM306.6 195.253V127.359L321.966 100.744H313.462L299.1 125.625V195.253H306.6ZM133.163 195.253H140.662V172.894H133.163V195.253ZM141.488 100.744H132.984L148.35 127.359V195.253H155.85V125.625L141.488 100.744ZM314.288 195.253H321.787V172.894H314.288V195.253Z" fill="white"/>
</svg>
