<svg width="450" height="450" viewBox="0 0 450 450" fill="none" xmlns="http://www.w3.org/2000/svg">
<path d="M120.152 286.91C-34.2087 71.5116 239.855 -108.718 400.446 77.8996C217.969 -17.471 63.5177 119.41 120.152 286.91Z" fill="white"/>
<path d="M295.493 324.055C93.3905 495.195 -107.252 235.349 65.7461 60.2353C-14.8113 250.089 133.372 393.767 295.493 324.055Z" fill="white"/>
<path d="M323.349 151.829C497.38 351.585 241.591 557.052 64.0796 386.538C254.751 464.136 395.565 313.192 323.349 151.829Z" fill="white"/>
<path d="M153.767 124.819C354.762 -47.6253 557.075 210.914 385.209 387.147C464.541 196.774 315.434 54.06 153.767 124.819Z" fill="white"/>
<path d="M309.375 225.001C309.375 271.473 271.472 309.375 225 309.375C178.528 309.375 140.625 271.473 140.625 225.001C140.625 178.528 178.528 140.625 225 140.625C271.472 140.625 309.375 178.528 309.375 225.001Z" fill="white"/>
</svg>
