<svg width="450" height="450" viewBox="0 0 450 450" fill="none" xmlns="http://www.w3.org/2000/svg">
<path d="M298.221 449.992H445.312V76.1586C393.881 -45.385 211.252 3.35604 198.204 52.6605C243.372 27.4332 280.965 22.3325 298.221 62.3657V449.992Z" fill="white"/>
<path d="M151.779 0.00656051H4.6875V373.841C56.1189 495.385 238.748 446.644 251.795 397.34C206.626 422.567 169.035 427.667 151.779 387.633V0.00656051Z" fill="white"/>
<path d="M297.044 224.999C297.044 264.415 264.681 296.561 224.999 296.561C185.319 296.561 152.955 264.415 152.955 224.999C152.955 185.585 185.319 153.438 224.999 153.438C264.681 153.438 297.044 185.585 297.044 224.999Z" fill="white"/>
</svg>
