<svg width="450" height="450" viewBox="0 0 450 450" fill="none" xmlns="http://www.w3.org/2000/svg">
<path fill-rule="evenodd" clip-rule="evenodd" d="M348.51 356.96C317.463 386.83 276.014 403.533 232.93 403.533C164.127 403.533 102.084 360.937 77.3617 296.728C76.892 295.46 75.8055 294.516 74.4845 294.228C73.173 293.895 71.7789 294.255 70.7927 295.18L1.33422 358.567C0.510153 359.3 0.0282778 360.343 0.00390282 361.445C-0.0448472 362.543 0.36484 363.616 1.13547 364.402C45.7577 411.518 107.869 438.24 172.762 438.24C244.544 438.24 312.553 405.542 357.381 349.478C357.47 349.373 357.519 349.238 357.519 349.101C357.519 348.78 357.255 348.517 356.935 348.517C356.763 348.517 356.599 348.593 356.488 348.724C353.935 351.502 351.275 354.248 348.51 356.96ZM260.139 136.715C331.246 157.27 380.545 222.84 380.545 296.859C380.545 334.992 367.461 371.994 343.489 401.651C342.62 402.693 342.342 404.11 342.755 405.402C343.124 406.705 344.137 407.732 345.434 408.121L435.056 436.559C435.453 436.684 435.866 436.747 436.282 436.747C438.09 436.747 439.695 435.552 440.216 433.821C446.705 411.972 450 389.3 450 366.508C450 250.187 364.159 150.28 249.164 132.765C248.872 132.714 248.586 132.896 248.509 133.182C248.495 133.233 248.488 133.285 248.488 133.337C248.488 133.612 248.679 133.853 248.946 133.916C252.703 134.71 256.434 135.643 260.139 136.715ZM227.48 191.002C272.386 183.681 314.787 214.194 322.109 259.1C329.43 304.006 298.916 346.408 254.011 353.729C209.105 361.051 166.703 330.537 159.382 285.631C152.06 240.725 182.574 198.323 227.48 191.002ZM113.6 323.381C110.367 310.298 108.733 296.872 108.733 283.395C108.733 191.945 183.985 116.693 275.435 116.693C284.102 116.693 292.756 117.369 301.317 118.715C301.517 118.744 301.719 118.759 301.919 118.759C304.184 118.759 306.047 116.896 306.047 114.631C306.047 114.35 306.019 114.068 305.962 113.793L285.778 21.9685C285.553 20.8931 284.892 19.9585 283.953 19.3885C283.026 18.7875 281.889 18.6 280.817 18.8719C174.803 44.2106 99.4014 139.756 99.4014 248.757C99.4014 278.201 104.904 307.388 115.624 334.812C115.734 335.086 116.032 335.24 116.319 335.169C116.572 335.104 116.75 334.873 116.75 334.612C116.75 334.545 116.739 334.478 116.715 334.415C115.564 330.803 114.512 327.092 113.6 323.381Z" fill="white"/>
</svg>
