<svg width="450" height="450" viewBox="0 0 450 450" fill="none" xmlns="http://www.w3.org/2000/svg">
<path fill-rule="evenodd" clip-rule="evenodd" d="M228.796 307.716C182.872 307.716 145.644 270.393 145.644 224.353C145.644 205.014 152.213 187.213 163.236 173.07C166.103 144.861 185.725 93.75 290.287 93.75C434.701 93.75 440.625 198.794 440.625 198.794V419.001C440.625 419.001 436.142 450 414.048 450H179.815L103.125 380.453H353.528V200.079C353.528 200.079 335.917 132.138 256.345 132.138C230.171 132.138 211.169 138.533 197.453 147.116C207.126 143.167 217.707 140.991 228.796 140.991C274.719 140.991 311.947 178.313 311.947 224.353C311.947 248.436 301.761 270.134 285.471 285.353C279.503 314.22 254.532 356.25 159.713 356.25C15.2989 356.25 9.375 251.367 9.375 251.367V30.9992C9.375 30.9992 13.8579 0 35.9523 0H270.185L346.875 69.5475H96.4718V249.921C96.4718 249.921 114.083 317.862 193.655 317.862C217.159 317.862 234.88 312.705 248.184 305.438C241.963 306.927 235.471 307.716 228.796 307.716Z" fill="white"/>
</svg>
