<svg width="300" height="300" viewBox="0 0 300 300" fill="none" xmlns="http://www.w3.org/2000/svg">
<path d="M295.08 75.987L296.559 75.6106L296.871 229.09L252.74 158.891C248.198 151.772 245.413 143.641 244.616 135.189C243.807 126.735 245.021 118.209 248.129 110.334C251.157 102.465 256.01 95.4644 262.273 89.9324C268.525 84.4005 276.013 80.503 284.068 78.5748L295.08 75.987ZM264.03 0.235268C268.329 0.246896 272.57 1.13527 276.533 2.8482C280.485 4.56114 284.068 7.06409 287.061 10.2101C293.22 16.5887 296.652 25.2013 296.606 34.1588V65.6358L282.092 69.1647L273.748 71.1879C266.191 73.052 258.321 73.1178 250.741 71.38C243.16 69.6423 236.076 66.1476 230.021 61.166C224.428 56.6025 219.817 50.9003 216.478 44.4209C213.15 37.9413 211.174 30.8259 210.677 23.5254C210.677 22.302 210.677 21.1258 210.677 19.8554V0L264.03 0.235268ZM3.30988 33.9707C3.2729 25.069 6.69685 16.5164 12.8307 10.1911C18.9633 3.86581 27.3042 0.285058 36.0207 0.235268H201.19V19.5732C201.097 20.9674 201.097 22.3664 201.19 23.7606C200.67 31.0629 198.682 38.1776 195.354 44.6561C192.014 51.1347 187.392 56.8362 181.787 61.4012C175.767 66.3626 168.706 69.8497 161.16 71.595C153.614 73.3404 145.781 73.2976 138.252 71.4702L3.125 39.3345L3.30988 33.9707ZM36.0207 299.996C27.3042 299.946 18.9633 296.366 12.8307 290.04C6.69685 283.715 3.2729 275.161 3.30988 266.26V49.3092L126.642 78.763C134.725 80.757 142.223 84.7013 148.507 90.265C154.793 95.8288 159.67 102.85 162.755 110.74C165.829 118.629 167.008 127.157 166.199 135.609C165.378 144.061 162.593 152.189 158.063 159.314L154.47 165.007L69.5602 299.901L36.0207 299.996ZM296.871 266.448C296.837 275.318 293.381 283.816 287.245 290.096C281.109 296.376 272.801 299.934 264.122 299.996H80.8479L109.826 253.886L162.397 170.371C167.019 162.977 173.398 156.891 180.932 152.673C188.467 148.456 196.926 146.24 205.511 146.233C214.178 146.246 222.706 148.505 230.275 152.802C237.856 157.097 244.235 163.289 248.822 170.795L296.825 247.063L296.871 266.448Z" fill="white"/>
</svg>
