<svg width="300" height="300" viewBox="0 0 300 300" fill="none" xmlns="http://www.w3.org/2000/svg">
<path d="M71.3176 80.0225C77.8823 80.0225 83.2039 74.7009 83.2039 68.1363C83.2039 61.5717 77.8823 56.25 71.3176 56.25C64.753 56.25 59.4314 61.5717 59.4314 68.1363C59.4314 74.7009 64.753 80.0225 71.3176 80.0225Z" fill="white"/>
<path d="M225.839 132.916V189.376C225.839 201.856 235.09 211.366 247.234 211.366C259.258 211.366 268.63 201.855 268.627 189.74L268.629 132.916C268.63 124.711 275.282 118.059 283.488 118.059H298.345V188.188C298.345 216.415 275.462 239.299 247.234 239.299C219.007 239.299 196.123 216.415 196.123 188.188V118.059H210.981C219.187 118.059 225.839 124.711 225.839 132.916Z" fill="white"/>
<path fill-rule="evenodd" clip-rule="evenodd" d="M157.493 72.8908H172.351V224.441C172.351 232.647 165.699 239.299 157.493 239.299H142.635V87.7486C142.635 79.5429 149.287 72.8908 157.493 72.8908Z" fill="white"/>
<path d="M29.7157 72.8908L29.715 129.31C39.1209 120.789 51.118 115.681 64.1859 115.681C94.3831 115.681 118.863 142.955 118.863 176.599C118.863 176.855 118.861 177.111 118.858 177.367C118.861 177.606 118.863 177.845 118.863 178.084C118.858 212.851 92.2544 239.299 59.4314 239.299C27.1876 239.299 0.941071 212.851 0.0247479 179.868L0 179.867V87.7486C0 79.4921 6.72905 72.8908 14.8578 72.8908H29.7157ZM58.837 143.02C41.7691 143.02 27.9327 158.32 27.9327 177.193C27.9327 196.066 41.7691 211.366 58.837 211.366C75.905 211.366 89.7413 196.066 89.7413 177.193C89.7413 158.32 75.905 143.02 58.837 143.02Z" fill="white"/>
</svg>
