<svg width="450" height="450" viewBox="0 0 450 450" fill="none" xmlns="http://www.w3.org/2000/svg">
<path fill-rule="evenodd" clip-rule="evenodd" d="M382.359 307.191C419.7 307.191 450 337.5 450 374.831C450 412.162 419.7 442.472 382.359 442.472C345.028 442.472 314.719 412.162 314.719 374.831C314.719 337.5 345.028 307.191 382.359 307.191ZM188.765 65.1562L114.731 442.472H0L188.765 65.1562ZM323.906 9.375C305.044 104.728 269.85 282.628 242.766 419.747C230.859 433.959 213.112 442.472 194.081 442.472H124.284L203.981 36.3375C215.756 19.5937 235.069 9.375 255.928 9.375H323.906ZM333.469 9.375H450C450 9.375 336.112 236.925 273.075 362.906L257.344 394.359C283.734 260.756 315.9 98.1562 333.469 9.375ZM67.6406 9.375C104.972 9.375 135.281 39.6844 135.281 77.0156C135.281 114.347 104.972 144.656 67.6406 144.656C30.3093 144.656 0 114.347 0 77.0156C0 39.6844 30.3093 9.375 67.6406 9.375Z" fill="white"/>
</svg>
