<svg width="450" height="450" viewBox="0 0 450 450" fill="none" xmlns="http://www.w3.org/2000/svg">
<path fill-rule="evenodd" clip-rule="evenodd" d="M57.398 392.602H209.269L239.265 450H0V0H450V450H337.153L307.157 392.602L215.767 217.233H292.57L392.602 408.161V244.769C389.061 275.061 377.483 302.914 360.061 326.134L298.249 207.858H200.29L290.531 380.534C287.455 381.833 284.333 383.043 281.167 384.162L189.031 207.858H112.5L209.269 392.602C130.028 385.262 66.5974 323.46 57.398 244.769V392.602ZM57.398 205.231C66.4406 127.881 127.881 66.4406 205.231 57.398H57.398V205.231ZM244.769 57.398C322.119 66.4406 383.559 127.881 392.602 205.231V57.398H244.769ZM127.977 217.233H183.352L304.833 450H249.524L127.977 217.233Z" fill="white"/>
</svg>
