<svg width="450" height="450" viewBox="0 0 450 450" fill="none" xmlns="http://www.w3.org/2000/svg">
<path fill-rule="evenodd" clip-rule="evenodd" d="M391.072 450H67.6247V399.131L73.9547 391.707C57.0938 376.419 42.5597 358.612 30.9478 338.882L114.589 386.776H123.831L22.7278 323.593C19.4906 316.971 16.5694 310.166 13.9838 303.199L134.12 386.776H140.476L9.105 288.511C6.6975 280.326 4.74281 271.947 3.27094 263.407L149.871 386.776H156.513L0.707812 242.945C0.238125 237.025 0 231.04 0 225C0 223.673 0.01125 222.349 0.035625 221.029L162.882 386.776H167.494L0.995625 203.724C1.78219 195.351 3.02906 187.109 4.71 179.028L173.602 386.776H177.81L9.26063 160.958C11.3484 153.923 13.7719 147.033 16.5122 140.303L182.437 386.776H186.363L24.7641 122.346C28.3931 115.287 32.385 108.444 36.7153 101.842L190.808 386.776H194.402L154.838 305.027C154.415 304.824 153.996 304.616 153.577 304.403C151.524 303.31 149.563 302.063 147.881 300.442C146.293 298.911 144.995 297.112 143.91 295.196C142.522 292.748 141.463 290.13 140.241 287.6C139.859 286.852 139.473 286.114 139.054 285.387C138.814 284.987 138.608 284.684 138.261 284.378C137.715 283.937 137.134 283.544 136.586 283.105C136.063 282.653 135.537 282.171 135.179 281.571C134.887 281.082 134.708 280.55 134.518 280.015L134.505 280.012C134.11 279.788 133.783 279.568 133.524 279.184C133.282 278.824 133.143 278.398 133.126 277.964C133.112 277.594 133.178 277.601 133.194 277.233C133.198 277.139 133.171 277.046 133.176 276.953C133.194 276.539 133.232 276.507 133.354 276.119C133.434 275.539 133.526 274.962 133.633 274.386C133.751 273.837 133.882 273.328 134.152 272.835C134.926 271.428 136.416 270.573 137.838 269.901L113.582 219.784C113.382 219.722 113.196 219.662 112.797 219.533C110.327 218.679 107.722 217.58 106.084 215.436C105.67 214.894 105.313 214.326 105.023 213.709C104.678 212.978 104.435 212.202 104.271 211.412C104.077 210.476 104.006 209.524 103.978 208.57C103.95 207.645 104.009 206.707 103.891 205.785C103.879 205.712 103.886 205.713 103.844 205.652C103.681 205.433 103.507 205.233 103.328 205.023C102.547 204.164 101.739 203.333 100.968 202.464C100.35 201.731 99.7631 200.975 99.2944 200.135C98.5659 198.828 98.1394 197.363 98.1881 195.86C98.2106 195.187 98.3503 194.539 98.5416 193.897C98.8941 192.906 99.2653 191.922 99.6188 190.932L48.5606 85.4334C53.1675 79.6191 58.0547 74.0372 63.2034 68.7084L77.8303 103.177C77.8547 102.095 77.9156 100.989 78.1228 99.9281C78.8016 96.4378 81.4097 93.5269 84.7219 92.2959C85.95 91.8394 87.3741 91.5656 88.6753 91.8488C89.6147 92.0531 90.4903 92.4188 91.3491 92.8491C92.1338 93.2428 92.8828 93.6984 93.5962 94.2037L78.7669 54.0516C84.075 49.5056 89.5969 45.2034 95.3156 41.1609L115.123 103.607C115.763 103.057 116.384 102.486 117.005 101.913C119.169 99.855 121.245 97.7091 123.396 95.6362C124.882 94.2497 126.462 92.7769 128.297 91.8253L111.759 30.5719C118.493 26.6381 125.45 23.0447 132.606 19.8141L152.069 110.434C152.224 110.283 152.377 110.131 152.529 109.976C153.046 109.42 153.537 108.847 153.956 108.214C154.308 107.682 154.621 107.118 154.849 106.522C155.363 105.175 155.416 103.727 155.386 102.302C155.308 100.607 155.1 98.9231 154.994 97.23C154.93 95.7084 154.932 94.1175 155.553 92.6953C156.481 90.5662 158.771 89.4619 160.883 88.8319C161.305 88.7053 161.737 88.5966 162.168 88.5009C162.839 88.3519 163.518 88.2375 164.199 88.1466L164.362 88.125L151.648 12.2475C158.145 10.005 164.775 8.05219 171.524 6.405L181.311 87.5888C182.527 87.5363 183.23 87.5128 184.907 87.4519C187.369 87.3769 189.831 87.3094 192.293 87.2756C194.008 87.2512 195.745 87.2897 197.458 87.2325C197.769 87.2109 198.08 87.1856 198.39 87.1584L192.172 2.38219C199.372 1.3275 206.681 0.615 214.085 0.261562L216.659 106.311C216.856 106.511 217.04 106.728 217.209 106.963C217.643 107.568 217.913 108.304 218.151 109.001C218.737 110.726 218.992 112.548 219.137 114.357C219.2 115.144 219.241 115.932 219.27 116.721C219.318 117.978 219.349 119.236 219.416 120.493C219.472 121.283 219.542 122.072 219.619 122.861C219.841 124.925 220.08 126.985 220.279 129.052C220.322 129.551 220.362 130.05 220.399 130.55L220.446 130.532C220.845 130.357 221.229 130.162 221.609 129.95C223.193 129.018 224.611 127.84 225.997 126.64C227.263 125.544 228.509 124.426 229.787 123.344C230.472 122.78 230.469 122.782 231.167 122.229C231.887 121.685 232.621 121.157 233.378 120.67L236.439 0.286875C243.664 0.649687 250.798 1.35281 257.828 2.38219L249.428 116.907C252.848 116.584 256.292 116.365 259.726 116.572C261.525 116.679 263.348 116.899 265.1 117.367L278.476 6.405C285.226 8.05312 291.857 10.0059 298.352 12.2475L279.112 127.067C280.597 126.967 282.082 126.883 283.568 126.81C284.916 126.757 285.495 126.727 286.846 126.699C288.668 126.663 290.498 126.656 292.318 126.786C292.998 126.834 293.69 126.894 294.372 127.007L317.394 19.8141C324.549 23.0447 331.506 26.6381 338.241 30.5719L309.689 136.324C309.917 136.423 310.143 136.529 310.368 136.637C311.438 137.148 312.475 137.719 313.484 138.344C316.488 140.205 319.131 142.762 320.813 145.889C320.953 146.151 321.086 146.415 321.213 146.683L354.684 41.1609C360.403 45.2034 365.925 49.5066 371.233 54.0516L317.997 198.196C318.513 199.138 318.841 200.176 318.918 201.263C318.967 201.974 318.877 202.653 318.786 203.355C318.716 203.891 318.662 204.429 318.609 204.968C318.517 206.141 318.517 206.137 318.449 207.31C318.181 214.061 318.671 220.799 319.413 227.506L386.797 68.7084C391.944 74.0363 396.833 79.6181 401.439 85.4334L330.805 231.381C332.893 232.268 334.765 233.572 336.064 235.493C336.534 236.191 336.913 236.949 337.184 237.746C337.478 238.613 337.643 239.521 337.652 240.437C337.658 240.93 337.618 241.422 337.538 241.907L413.285 101.842C417.614 108.443 421.606 115.286 425.236 122.346L331.979 274.946C332.645 275.488 333.347 275.986 334.061 276.465C335.708 277.536 337.414 278.512 339.07 279.567C339.223 279.668 339.377 279.771 339.529 279.874L433.488 140.303C436.228 147.032 438.651 153.923 440.739 160.958L346.196 287.624C346.373 288.126 346.522 288.638 346.644 289.158C347.15 291.295 347.152 293.481 347.346 295.658C348.072 296.009 348.844 296.27 349.588 296.579L349.688 296.625L445.29 179.028C446.971 187.11 448.218 195.352 449.004 203.724L333.945 330.223C333.928 330.61 333.917 330.997 333.91 331.384C333.892 332.492 333.915 333.599 333.988 334.702L334.284 334.673C335.213 334.598 335.21 334.599 336.142 334.543C337.092 334.508 337.088 334.5 338.036 334.499C338.181 334.499 338.326 334.504 338.471 334.508L449.964 221.029L449.98 222.02C449.993 223.012 450 224.005 450 225C450 231.04 449.762 237.025 449.292 242.945L345.702 338.573C345.662 338.852 345.615 339.125 345.575 339.387C345.487 340.129 345.47 341.816 345.442 342.551C345.384 344.051 345.336 345.55 345.28 347.05C345.233 347.722 345.157 348.317 344.888 348.934C344.839 349.049 344.78 349.157 344.712 349.258L446.729 263.407L446.447 265.007C445.012 272.995 443.153 280.837 440.895 288.511L309.524 386.776H315.88L436.016 303.199L435.527 304.503C433.064 311.016 430.307 317.385 427.272 323.593L326.169 386.776H335.411L419.052 338.882L418.592 339.659C408.191 357.171 395.483 373.153 380.887 387.186L391.072 399.131V450ZM385.447 404.756H73.2497V444.375H385.447V404.756ZM290.257 431.963C290.257 433.173 289.727 434.826 288.668 436.922C287.65 438.938 286.608 440.481 285.539 441.548C284.843 441.548 283.912 441.307 282.742 440.823C281.572 440.339 280.736 439.851 280.232 439.357C282.056 438.519 283.685 437.547 285.115 436.438C286.799 435.138 287.797 433.964 288.11 432.916C287.656 431.656 286.723 430.552 285.312 429.605L287.399 425.568C288.144 426.213 288.807 427.191 289.387 428.5C289.967 429.811 290.257 430.965 290.257 431.963ZM380.175 437.482L377.74 439.779L375.352 437.391L377.831 435.123L380.175 437.482ZM310.788 437.27L308.354 439.568L305.965 437.179L308.445 434.911L310.788 437.27ZM116.552 413.473H119.835V427.53C119.835 429.368 119.716 430.781 119.479 431.77C119.16 433.063 118.582 434.101 117.742 434.884C116.904 435.666 115.799 436.058 114.427 436.058C112.817 436.058 111.578 435.444 110.709 434.217C109.841 432.99 109.404 431.19 109.397 428.817L112.501 428.333C112.538 429.605 112.675 430.504 112.913 431.029C113.27 431.827 113.811 432.225 114.538 432.225C115.272 432.225 115.792 431.94 116.096 431.369C116.4 430.799 116.552 429.615 116.552 427.818V413.473ZM138.052 435.679H134.468L133.044 430.635H126.523L125.177 435.679H121.682L128.036 413.473H131.52L138.052 435.679ZM107.56 417.23H98.7581V422.153H106.948V425.894H98.7581V431.937H107.872V435.679H95.4638V413.473H107.56V417.23ZM143.105 435.679H139.81V413.473H146.743C148.487 413.473 149.753 413.673 150.544 414.071C151.334 414.471 151.967 415.179 152.441 416.199C152.916 417.219 153.154 418.386 153.154 419.699C153.154 421.365 152.794 422.74 152.074 423.826C151.355 424.912 150.278 425.596 148.847 425.879C149.559 426.444 150.147 427.065 150.61 427.742C151.074 428.418 151.7 429.62 152.485 431.347L154.478 435.679H150.538L148.157 430.847C147.311 429.12 146.733 428.032 146.421 427.583C146.109 427.133 145.779 426.825 145.431 426.659C145.082 426.492 144.529 426.409 143.772 426.409H143.105V435.679ZM170.97 435.679H167.387L165.962 430.635H159.441L158.094 435.679H154.6L160.955 413.473H164.437L170.97 435.679ZM182.822 417.23H177.992V435.679H174.698V417.23H169.857V413.473H182.822V417.23ZM196.843 435.679H191.29V413.473H197.812C199.103 413.473 200.065 413.546 200.699 413.693C201.334 413.84 201.901 414.144 202.403 414.609C202.903 415.073 203.32 415.692 203.654 416.465C203.988 417.237 204.155 418.103 204.155 419.063C204.155 420.102 203.949 421.057 203.537 421.926C203.125 422.794 202.568 423.445 201.863 423.879C202.856 424.273 203.62 424.944 204.155 425.894C204.689 426.843 204.956 427.958 204.956 429.241C204.956 430.251 204.784 431.233 204.439 432.188C204.094 433.142 203.622 433.904 203.025 434.474C202.428 435.045 201.692 435.396 200.816 435.527C200.268 435.608 198.943 435.658 196.843 435.679ZM222.45 435.679H218.867L217.442 430.635H210.921L209.574 435.679H206.08L212.435 413.473H215.917L222.45 435.679ZM227.291 435.679H224.23V413.473H227.436L234.113 428.303V413.473H237.173V435.679H233.868L227.291 421.198V435.679ZM243.995 435.679H240.7V413.473H243.995V423.334L250.649 413.473H255.079L248.935 422.123L255.412 435.679H251.15L246.666 425.258L243.995 428.968V435.679ZM93.3384 417.23H88.5084V435.679H85.215V417.23H80.3738V413.473H93.3384V417.23ZM358.75 432.628H357.768C356.649 432.628 355.586 432.235 354.577 431.449C354.023 431.016 353.308 430.235 352.431 429.106C351.554 427.976 350.854 427.206 350.33 426.792C350.39 427.155 350.42 427.533 350.42 427.927C350.42 428.44 350.364 428.984 350.254 429.559C349.357 430.85 347.901 431.726 345.884 432.189C344.615 432.482 342.871 432.628 340.653 432.628C337.64 432.628 335.608 432.416 334.56 431.993C333.028 431.378 332.262 430.078 332.262 428.093C332.262 426.308 332.882 424.444 334.121 422.498C334.596 422.458 334.898 422.624 335.029 422.997C334.444 423.955 334.152 424.877 334.152 425.764C334.152 427.034 334.872 427.846 336.314 428.198C337.131 428.4 338.828 428.5 341.409 428.5C343.788 428.5 345.527 428.41 346.625 428.228C347.613 428.067 348.455 427.74 349.15 427.246C347.981 425.29 345.945 423.652 343.042 422.332C343.102 420.286 343.264 418.567 343.525 417.176C347.89 414.717 352.078 413.054 356.09 412.187L354.276 416.088C352.865 416.431 351.04 417.061 348.803 417.978C347.018 418.703 345.728 419.283 344.932 419.717C346.514 420.311 348.328 421.4 350.375 422.982C351.141 423.577 352.083 424.448 353.202 425.598C354.21 426.636 354.946 427.321 355.409 427.654C356.175 428.209 356.977 428.485 357.814 428.485H359.356C361.543 428.485 362.636 428.158 362.636 427.503C362.636 427.049 362.067 426.052 360.928 424.509L363.256 421.334C364.405 422.866 364.98 424.469 364.98 426.143C364.627 428.279 364.143 429.73 363.529 430.496C362.39 431.917 360.797 432.628 358.75 432.628ZM374.081 432.628H373.099C371.174 432.628 369.919 431.832 369.334 430.239C368.941 429.161 368.679 426.757 368.548 423.027C368.487 421.183 368.412 419.902 368.321 419.187C368.15 417.796 367.827 416.561 367.354 415.483L370.12 412.58C370.584 413.316 370.871 414.45 370.982 415.982C371.022 416.536 371.043 417.711 371.043 419.505V423.965C371.043 425.295 371.138 426.263 371.33 426.868C371.673 427.946 372.358 428.485 373.387 428.485H374.687C376.874 428.485 377.967 428.158 377.967 427.503C377.967 427.049 377.398 426.052 376.259 424.509L378.587 421.334C379.736 422.866 380.311 424.469 380.311 426.143C379.958 428.279 379.474 429.73 378.86 430.496C377.721 431.917 376.128 432.628 374.081 432.628ZM279.083 425.507C279.083 425.981 278.796 426.832 278.221 428.062C277.647 429.292 277.178 430.053 276.816 430.345C276.372 430.698 274.986 431.141 272.658 431.676C269.886 432.31 267.321 432.628 264.962 432.628C261.797 432.628 259.62 432.008 258.43 430.768C257.675 429.983 257.296 428.818 257.296 427.276C257.296 425.18 257.896 423.204 259.096 421.349C259.146 421.34 259.201 421.334 259.262 421.334C259.705 421.334 260.013 421.506 260.184 421.848C259.569 423.3 259.262 424.408 259.262 425.174C259.262 427.403 261.661 428.516 266.458 428.516C270.813 428.516 274.224 427.997 276.695 426.958C276.271 425.86 275.717 424.852 275.032 423.935L277.329 420.82C277.793 421.395 278.212 422.227 278.584 423.315C278.917 424.283 279.083 425.013 279.083 425.507ZM300.431 432.628H298.36C296.435 432.628 295.18 431.832 294.595 430.239C294.203 429.161 293.94 426.757 293.81 423.027C293.749 421.183 293.673 419.902 293.583 419.187C293.411 417.796 293.089 416.561 292.614 415.483L295.382 412.58C295.845 413.316 296.133 414.45 296.243 415.982C296.284 416.536 296.304 417.711 296.304 419.505V423.965C296.304 425.295 296.4 426.263 296.591 426.868C296.933 427.946 297.62 428.485 298.647 428.485H301.097C302.739 428.485 304.086 428.319 305.134 427.987C305.849 427.765 307.194 427.16 309.171 426.173C305.33 424.66 303.163 423.905 302.669 423.905C302.226 423.905 301.868 424.045 301.596 424.328C301.354 424.569 301.021 425.093 300.598 425.901C300.437 425.971 300.291 426.006 300.159 426.006C299.887 426.006 299.671 425.87 299.509 425.598C300.195 423.814 300.719 422.584 301.082 421.909C301.757 420.638 302.407 420.004 303.032 420.004C303.435 420.004 304.819 420.532 307.182 421.591C309.546 422.649 311.267 423.179 312.345 423.179C313.535 423.179 315.389 422.937 317.909 422.453L316.307 426.112C314.986 426.253 313.897 426.414 313.041 426.595C313.645 427.855 314.815 428.485 316.549 428.485H319.754C321.941 428.485 323.034 428.158 323.034 427.503C323.034 427.049 322.465 426.052 321.326 424.509L323.655 421.334C324.803 422.866 325.378 424.469 325.378 426.143C325.026 428.279 324.542 429.73 323.927 430.496C322.788 431.917 321.195 432.628 319.149 432.628H317.894C316.191 432.628 314.835 432.119 313.827 431.101C313.021 430.284 312.321 428.975 311.725 427.17C308.5 429.448 306.58 430.759 305.965 431.101C304.141 432.119 302.296 432.628 300.431 432.628ZM197.244 426H194.585V431.937H197.633C198.82 431.937 199.574 431.892 199.893 431.801C200.382 431.68 200.782 431.384 201.089 430.915C201.397 430.446 201.551 429.817 201.551 429.029C201.551 428.362 201.432 427.797 201.195 427.333C200.957 426.868 200.614 426.53 200.166 426.318C199.717 426.106 198.743 426 197.244 426ZM216.385 426.893L214.137 418.654L211.934 426.893H216.385ZM131.987 426.893L129.74 418.654L127.536 426.893H131.987ZM164.905 426.893L162.657 418.654L160.454 426.893H164.905ZM145.675 417.23H143.105V422.864H145.541C147.122 422.864 148.108 422.773 148.502 422.592C148.895 422.41 149.203 422.097 149.425 421.653C149.648 421.208 149.759 420.652 149.759 419.987C149.759 419.239 149.613 418.636 149.319 418.177C149.027 417.717 148.613 417.427 148.079 417.306C147.812 417.255 147.01 417.23 145.675 417.23ZM196.477 417.169H194.585V422.304H196.744C198.027 422.304 198.824 422.279 199.136 422.228C199.7 422.138 200.143 421.872 200.466 421.433C200.788 420.994 200.95 420.415 200.95 419.699C200.95 419.012 200.811 418.454 200.532 418.025C200.255 417.595 199.84 417.336 199.292 417.245C198.966 417.194 198.027 417.169 196.477 417.169ZM267.895 419.217L265.657 421.334L263.465 419.111L265.747 417.07L267.895 419.217ZM273.428 418.93L271.191 421.032L268.999 418.824L271.297 416.768L273.428 418.93ZM365.207 416.858L362.772 419.157L360.383 416.768L362.863 414.501L365.207 416.858ZM327.525 416.98L325.439 419.066L323.322 417.206L321.387 419.157L319.164 417.206L321.25 415.074L323.367 416.964L325.302 414.984L327.525 416.98ZM201.65 386.776L189.922 355.02L189.651 354.975L188.81 354.817C188.4 354.702 188.048 354.576 187.719 354.293C186.982 353.662 186.709 352.61 187.046 351.699C187.196 351.293 187.442 351.012 187.744 350.712L188.193 350.339L184.33 339.879C183.958 340.126 183.556 340.325 183.129 340.491C182.573 340.706 181.995 340.862 181.409 340.971C181.107 341.027 180.807 341.068 180.502 341.097C179.953 341.15 179.371 341.158 178.792 341.105L198.172 386.776H201.65ZM204.945 386.776H207.93L199.622 356.004C198.106 355.93 196.594 355.828 195.083 355.686L204.945 386.776ZM211.421 386.776H214.406L209.284 356.21L207.908 356.2L204.848 356.17L211.421 386.776ZM217.378 386.776H220.363L218.126 356.275L217.63 356.279C216.32 356.263 215.008 356.251 213.698 356.242L217.378 386.776ZM226.608 386.776L227.393 355.947C226.297 356.643 225.074 356.442 223.853 356.248C223.583 356.219 223.309 356.23 223.036 356.228L222.724 356.226L223.465 386.776H226.608ZM232.622 386.776L237.72 344.486C237.638 344.707 237.555 344.927 237.466 345.144C237.252 345.615 237.029 346.076 236.742 346.506C235.778 347.946 234.4 349.1 233.03 350.131C232.784 350.307 232.536 350.48 232.286 350.65L229.637 386.776H232.622ZM238.579 386.776L250.008 333.564C249.744 334.135 249.481 334.707 249.209 335.276C248.875 335.942 248.876 335.939 248.527 336.593C247.376 338.584 245.92 340.707 243.565 341.317C243.443 341.348 243.322 341.376 243.198 341.397L235.594 386.776H238.579ZM242.07 386.776H245.055L258.102 345.643C257.893 345.489 257.703 345.314 257.54 345.109C257.216 344.704 257.011 344.205 256.865 343.713C256.532 342.588 256.565 341.399 256.732 340.249C256.772 339.976 256.835 339.617 256.888 339.346C257.01 338.736 257.145 338.128 257.256 337.516C257.447 336.252 257.588 334.98 257.723 333.709C257.877 332.123 257.993 330.533 257.983 328.938C257.98 328.598 257.974 328.259 257.961 327.92L242.07 386.776ZM248.35 386.776H251.828L266.982 351.064C266.724 351.016 266.471 350.948 266.223 350.849C265.174 350.432 264.371 349.565 264.033 348.487C263.869 347.963 263.828 347.423 263.811 346.878L263.806 346.707C263.596 346.679 263.385 346.656 263.174 346.638L248.35 386.776ZM255.598 386.776H259.192L277.066 353.724C275.854 353.69 274.644 353.59 273.449 353.36C272.947 353.263 272.436 353.16 271.949 352.991L255.598 386.776ZM267.562 386.776L289.984 353.47C287.969 353.501 285.954 353.504 283.941 353.554L263.637 386.776H267.562ZM276.398 386.776L303.975 352.855L303.813 352.866C301.62 352.996 299.427 353.12 297.233 353.223L272.19 386.776H276.398ZM287.118 386.776L321.598 351.682C320.295 351.766 318.991 351.845 317.688 351.933L313.968 352.187L282.506 386.776H287.118ZM300.129 386.776L343.719 350.093C343.046 350.427 342.232 350.556 341.538 350.605C341.369 350.617 341.199 350.625 341.029 350.629C340.704 350.637 340.368 350.631 340.043 350.618C339.572 350.599 339.158 350.565 338.675 350.527C338.098 350.482 337.525 350.425 336.947 350.41C336 350.427 335.053 350.512 334.109 350.581C333.589 350.624 333.069 350.668 332.55 350.715L293.487 386.776H300.129ZM184.659 333.945C184.717 333.939 184.774 333.935 184.832 333.931C185.216 333.936 185.213 333.935 185.599 333.967C185.708 333.983 185.818 334 185.927 334.021L185.958 334.027C186.061 334.047 186.164 334.069 186.266 334.092L186.311 334.102C186.411 334.126 186.51 334.151 186.608 334.177L186.718 334.208L186.826 334.241L186.97 334.283L187.082 334.32L187.178 334.354L187.302 334.395L187.44 334.445L187.63 334.518L187.794 334.583L187.955 334.651L188.143 334.733L188.275 334.793L188.488 334.895C189.261 335.268 190.001 335.72 190.715 336.199C191.994 337.057 193.256 338.006 194.227 339.215C196.26 341.746 196.789 345.085 195.898 348.178C195.612 349.168 195.222 350.098 194.614 350.933L194.603 350.945C195.847 351.073 197.093 351.171 198.338 351.246L198.506 351.256L199.593 351.315L199.896 351.329L201.023 351.378L202.361 351.424L203.725 351.459L204.74 351.482C205.992 351.497 207.245 351.507 208.498 351.517L213.131 351.549C214.639 351.56 216.145 351.573 217.652 351.592L218.99 351.58L221.404 351.548L221.499 351.548C222.031 351.542 222.562 351.538 223.094 351.54C223.785 351.555 223.782 351.527 224.467 351.599L224.637 351.626C224.732 351.323 224.838 351.033 224.959 350.739C225.236 350.183 225.568 349.708 226.044 349.304C226.552 348.919 227.065 348.545 227.588 348.178L228.926 347.274L229.593 346.818L230.254 346.354C230.641 346.062 231.017 345.763 231.386 345.449L231.765 345.1L231.952 344.924L232.137 344.741L232.318 344.554L232.399 344.465L232.492 344.36L232.569 344.266L232.655 344.16L232.774 344.002L232.844 343.9C233.087 343.537 233.243 343.111 233.39 342.702C233.572 342.198 233.747 341.692 233.938 341.191C234.123 340.747 234.122 340.751 234.327 340.316C234.642 339.74 234.979 339.195 235.437 338.72C236.301 337.824 237.414 337.277 238.617 337.04L238.826 337.001C238.905 336.987 238.986 336.975 239.066 336.965C240.106 336.826 241.161 336.953 242.198 336.816C242.344 336.79 242.493 336.764 242.619 336.684L242.778 336.557L242.932 336.419L242.983 336.371L243.129 336.225L243.267 336.074L243.4 335.916L243.531 335.751L243.576 335.692L243.698 335.521L243.811 335.356L243.989 335.078L244.118 334.861L244.25 334.635L244.338 334.478C244.469 334.243 244.594 334.007 244.716 333.779C245.418 332.378 246.039 330.939 246.728 329.533C247.131 328.762 247.582 328.019 247.987 327.25C248.472 326.333 248.937 325.407 249.438 324.499C249.723 324.014 250.014 323.538 250.332 323.074C250.688 322.581 251.062 322.104 251.48 321.662C251.84 321.281 252.224 320.925 252.631 320.596L252.826 320.445L252.962 320.339L253.112 320.228L253.301 320.093L253.403 320.023L253.648 319.859L253.673 319.843C253.782 319.772 253.892 319.702 254.003 319.635C255.528 318.697 257.402 317.766 259.199 318.474C259.603 318.635 259.982 318.896 260.308 319.179L260.318 319.188C260.655 319.481 260.947 319.824 261.193 320.197C261.566 320.765 261.826 321.401 262.008 322.053C262.352 323.28 262.406 324.558 262.513 325.82C262.622 327.104 262.685 328.385 262.668 329.675C262.653 330.791 262.59 331.906 262.496 333.019L262.493 333.057L262.49 333.093C262.469 333.34 262.447 333.588 262.423 333.834C262.393 334.137 262.362 334.441 262.329 334.744L262.297 335.031L262.248 335.469L262.221 335.693L262.205 335.832L262.18 336.021L262.15 336.272L262.099 336.677L262.077 336.854L261.942 337.874C261.805 338.901 261.536 339.903 261.371 340.925C261.334 341.209 261.307 341.487 261.296 341.774L261.297 341.823C261.995 341.888 262.698 341.902 263.396 341.947L263.758 341.981L264.012 342.008L264.32 342.047L264.481 342.07L264.625 342.093L264.839 342.131C265.174 342.194 265.502 342.278 265.823 342.397C266.965 342.817 267.868 343.669 268.252 344.835C268.426 345.367 268.473 345.919 268.489 346.475L268.933 346.466L269.02 346.465L269.242 346.464L269.551 346.469C270.516 346.539 271.382 346.791 272.159 347.38C272.388 347.555 272.6 347.75 272.805 347.95C273.008 348.15 273.203 348.388 273.443 348.548L273.589 348.593L273.735 348.633L274.027 348.699C274.236 348.742 274.448 348.776 274.655 348.814C276.347 349.077 278.058 349.097 279.771 349.043L280.16 349.03L280.743 349.007L283.112 348.896L283.721 348.872C283.919 348.865 284.119 348.859 284.317 348.854L284.331 348.853C286.131 348.835 287.931 348.825 289.732 348.796C290.977 348.764 292.221 348.726 293.465 348.68L294.841 348.627L295.256 348.61L297.007 348.535L297.179 348.527L298.795 348.45L299.157 348.432L301.228 348.323C303.488 348.189 305.746 348.046 308.005 347.898L313.087 347.56L322.927 346.897C324.205 346.802 325.482 346.687 326.758 346.564C328.041 346.442 329.322 346.313 330.604 346.191L331.042 346.148L331.594 346.098L331.962 346.062L332.394 346.024L332.529 346.012C332.935 345.976 333.341 345.94 333.747 345.908C334.688 345.839 335.627 345.779 336.568 345.729L336.819 345.728H336.904L337.072 345.73L337.24 345.734L337.574 345.747L337.911 345.766C338.802 345.82 339.692 345.919 340.585 345.943H340.621C340.65 344.214 340.753 342.483 340.82 340.755L340.892 339.105C340.449 339.132 340.008 339.166 339.564 339.189L339.122 339.209C338.8 339.207 338.48 339.202 338.159 339.198L337.678 339.194C337.518 339.193 337.357 339.193 337.196 339.194L336.726 339.215L336.271 339.239L335.354 339.3L334.906 339.337L334.386 339.38L333.893 339.426C332.4 339.566 330.909 339.742 329.414 339.886C328.495 339.963 328.499 339.963 327.578 340.023C326.794 340.056 326.013 340.079 325.228 340.072L324.992 340.066L324.854 340.063L324.824 340.061C324.741 340.059 324.648 340.055 324.478 340.044C323.587 339.953 322.748 339.704 321.931 339.341C320.988 338.923 320.11 338.373 319.164 337.958C318.905 337.857 318.657 337.784 318.385 337.715L318.151 337.671L317.916 337.631L317.824 337.617L317.679 337.597L317.445 337.566L317.268 337.545L316.967 337.512L316.487 337.468C315.862 337.415 315.237 337.373 314.616 337.304C314.084 337.228 314.089 337.228 313.564 337.132C312.995 336.998 312.439 336.849 311.899 336.622C311.327 336.381 310.779 336.098 310.246 335.79L310.208 335.768C310.059 335.683 309.911 335.595 309.763 335.505L309.746 335.495L309.447 335.31L309.326 335.234L309.281 335.206L309.224 335.169L309.111 335.097L308.983 335.014L308.807 334.901L308.52 334.712L308.444 334.663L308.359 334.607L308.335 334.591L307.618 334.117L307.23 333.864L306.993 333.711L306.873 333.635L306.441 333.365C306.007 333.117 305.571 332.882 305.112 332.68L304.907 332.601L304.853 332.581L304.745 332.543L304.528 332.473L304.448 332.448C303.816 332.258 303.169 332.15 302.502 332.049C301.764 331.939 301.023 331.851 300.28 331.78C299.341 331.69 298.395 331.621 297.446 331.581L297.37 331.578L296.836 331.56L296.715 331.556L296.29 331.548L296.145 331.546L295.707 331.543L295.597 331.542L295.051 331.548L294.964 331.55L294.517 331.56L294.339 331.567L293.976 331.582L293.784 331.591L293.245 331.624L292.712 331.666L292.1 331.726L291.919 331.747L291.463 331.801L291.293 331.822L290.696 331.902L289.788 332.035C288.966 332.159 288.146 332.288 287.324 332.396C286.591 332.481 286.594 332.48 285.856 332.549C284.426 332.648 283 332.678 281.576 332.493C280.454 332.347 279.42 332.093 278.436 331.518L278.273 331.42L278.232 331.394L278.209 331.38L278.176 331.359L278.114 331.32L278.07 331.29L277.986 331.236L277.84 331.134L277.802 331.109L277.788 331.099C277.698 331.035 277.608 330.969 277.519 330.902L277.499 330.887L277.454 330.852L277.344 330.769L277.241 330.686L277.202 330.656L277.177 330.635L277.137 330.604L277.07 330.547L276.911 330.418L276.783 330.308L276.73 330.265L276.68 330.221L276.624 330.174L276.51 330.074L276.33 329.918L276.057 329.677C275.75 329.407 275.443 329.136 275.129 328.876C273.884 327.908 272.543 327.07 271.275 326.132C271.138 326.025 271.002 325.916 270.868 325.807L270.758 325.717L270.653 325.63L270.628 325.61C270.536 325.534 270.446 325.457 270.355 325.379L270.303 325.333L270.106 325.16L270.079 325.134L270.052 325.11L269.86 324.935L269.805 324.883L269.759 324.84L269.704 324.787L269.619 324.706L269.535 324.622L269.475 324.562L269.437 324.523L269.384 324.47L269.198 324.276L269.179 324.255C269.094 324.165 269.012 324.072 268.929 323.978C268.851 323.888 268.773 323.796 268.696 323.703L268.675 323.678L268.624 323.614L268.519 323.484L268.468 323.418L268.431 323.372L268.388 323.315L268.323 323.229L268.244 323.122L268.196 323.058L268.169 323.02L268.133 322.971L267.97 322.737L267.961 322.724C267.894 322.625 267.828 322.524 267.763 322.424L267.755 322.411L267.715 322.347L267.604 322.169L267.573 322.117L267.548 322.078L267.507 322.006L267.44 321.893L267.389 321.802L267.352 321.739L267.323 321.684L267.283 321.615L267.208 321.473L267.166 321.395L267.15 321.365L267.133 321.332L267.002 321.072L266.989 321.046L266.977 321.02L266.852 320.756L266.838 320.724L266.823 320.692L266.784 320.603L266.723 320.464L266.693 320.394L266.666 320.333L266.636 320.257L266.599 320.167L266.557 320.058L266.521 319.969L266.501 319.917L266.483 319.868L266.422 319.703L266.385 319.601L266.378 319.578L266.374 319.568C266.248 319.209 266.137 318.844 266.042 318.475C265.589 316.733 265.444 314.933 265.156 313.161C265.081 312.758 264.997 312.363 264.897 311.966C264.728 311.411 264.538 310.855 264.163 310.402C263.829 309.998 263.378 309.734 262.893 309.556L262.669 309.48L262.652 309.475L262.433 309.413L262.394 309.403L262.182 309.353L261.896 309.296C261.509 309.227 261.117 309.186 260.725 309.176L260.49 309.175C260.332 309.176 260.176 309.184 260.018 309.196C258.42 309.322 256.931 309.967 255.518 310.683L254.855 311.039C253.402 311.833 251.988 312.697 250.535 313.49C249.597 313.977 248.635 314.408 247.656 314.792L247.644 314.797L247.618 314.807L247.493 314.855L247.256 314.946L247.19 314.97L247.12 314.996L247.001 315.039L246.854 315.094L246.727 315.139L246.62 315.178L246.536 315.207L246.451 315.237L246.244 315.308L246.116 315.352L246.076 315.366C245.928 315.415 245.779 315.464 245.631 315.512L245.61 315.518L245.493 315.555L245.229 315.638L245.167 315.657L245.102 315.678L244.976 315.715L244.819 315.763L244.698 315.799L244.591 315.831L244.498 315.857L244.407 315.883L244.216 315.937L244.078 315.976L244.027 315.99L243.994 315.999L243.638 316.095L243.562 316.116L243.408 316.155L243.164 316.219L243.118 316.23L243.046 316.249L242.887 316.288L242.747 316.323L242.695 316.335C242.437 316.398 242.178 316.459 241.919 316.517L241.91 316.52L241.888 316.524L241.485 316.613L241.07 316.702L240.961 316.725C238.887 317.154 236.786 317.468 234.7 317.735C234.503 317.76 234.307 317.785 234.111 317.81C233.411 317.897 232.712 317.98 232.012 318.064C231.7 318.1 231.386 318.137 231.071 318.171L231.05 318.173L230.897 318.188L230.647 318.214L230.609 318.217L230.565 318.221L230.408 318.235L230.189 318.254L230.138 318.259L230.079 318.263L229.924 318.274L229.729 318.289L229.664 318.292L229.592 318.297L229.442 318.304L229.269 318.313L229.192 318.316L229.104 318.32L228.962 318.323L228.809 318.328L228.719 318.329L228.617 318.331L228.484 318.33L228.35 318.331C226.978 318.323 225.623 318.132 224.342 317.578C223.379 317.161 222.529 316.597 221.747 315.946L221.708 315.914L221.596 315.819L221.479 315.717L221.442 315.686L221.421 315.667C221.237 315.504 221.057 315.338 220.88 315.168L220.853 315.143L220.815 315.105L220.725 315.018L220.602 314.896L220.514 314.808L220.455 314.747L220.284 314.573L220.155 314.437L220.101 314.38L220.061 314.338C219.943 314.212 219.826 314.086 219.71 313.959L219.695 313.943L219.641 313.883L219.46 313.685L219.385 313.6L219.294 313.5L218.956 313.117L218.923 313.08L218.908 313.062L218.899 313.052L218.293 312.362L217.965 311.991L217.771 311.772L217.678 311.669L217.318 311.274C217.017 310.966 216.709 310.668 216.386 310.381L216.185 310.218L216.115 310.165L215.979 310.062L215.892 310L215.77 309.913L215.672 309.847L215.557 309.771L215.448 309.702L215.341 309.635L215.22 309.563L215.122 309.505L214.986 309.429L214.899 309.382L214.745 309.301C212.898 308.345 210.761 307.946 208.736 307.562L207.383 307.305L207.247 307.279C206.842 307.202 206.437 307.123 206.031 307.042C205.246 306.871 204.467 306.691 203.692 306.481C203.552 306.441 203.413 306.399 203.275 306.356L203.242 306.346L203.143 306.314L202.946 306.251L202.862 306.223L202.798 306.202L202.708 306.172L202.577 306.127L202.447 306.081L202.357 306.05L202.293 306.026L202.211 305.997L202.025 305.928L201.92 305.889L201.884 305.875L201.848 305.862L201.536 305.74L201.487 305.721L201.42 305.693L201.129 305.574L201.099 305.561L201.057 305.543L200.774 305.422C199.449 304.842 198.18 304.146 196.958 303.346C195.514 302.399 194.155 301.336 192.832 300.228L192.797 300.199L192.728 300.141L192.428 299.888L192.311 299.789L192.278 299.761L192.22 299.712L191.794 299.347L191.772 299.329L190.994 298.655L190.763 298.454L190.72 298.417L190.712 298.41L189.729 297.554L188.706 296.671L187.861 295.968L187.556 295.716L187.02 295.274L185.24 293.813L184.788 293.441L183.773 292.608L183.616 292.477L183.505 292.386L182.954 291.927L182.828 291.821L182.642 291.668L182.382 291.448L182.137 291.243L181.783 290.944C180.233 289.605 178.708 288.24 177.26 286.792C176.386 285.919 175.501 285.043 174.788 284.031C173.569 282.297 172.777 280.29 172.197 278.263C171.43 275.582 171.018 272.8 170.763 270.026C170.675 269.065 170.675 268.099 170.608 267.137C170.568 266.733 170.522 266.333 170.439 265.937C170.348 265.562 170.241 265.146 169.954 264.868C169.849 264.782 169.739 264.728 169.609 264.695C169.212 264.621 168.797 264.694 168.406 264.761C167.804 264.863 167.208 264.989 166.604 265.084C166.383 265.108 166.164 265.131 165.947 265.146L165.903 265.149L165.8 265.156L165.74 265.16L165.714 265.161C165.626 265.166 165.538 265.17 165.449 265.172C165.001 265.165 164.558 265.138 164.117 265.048C163.533 264.928 162.952 264.706 162.395 264.513C160.933 264.006 159.484 263.303 158.528 262.04C157.934 261.252 157.662 260.282 157.252 259.398L157.193 259.282C156.943 259.18 156.688 259.096 156.42 259.06L156.311 259.05L156.283 259.048L156.184 259.046L156.08 259.051L155.94 259.066L155.802 259.095L155.761 259.105L155.66 259.135L155.625 259.147L155.497 259.196L155.468 259.209L155.369 259.255L155.327 259.277L155.236 259.327L155.201 259.345L155.09 259.415L154.911 259.538L154.885 259.557L154.714 259.689C154.538 259.831 154.372 259.983 154.21 260.129C153.508 260.829 152.876 261.591 152.198 262.313C151.237 263.288 150.224 264.214 149.29 265.216C149.072 265.462 148.862 265.71 148.659 265.97C148.337 266.418 148.038 266.881 147.744 267.349L147.596 267.588L147.431 267.853L147.163 268.287L147.024 268.509L146.943 268.641L146.914 268.687L146.871 268.755L146.711 269.002L146.609 269.163L146.586 269.198L146.572 269.219L146.55 269.251L146.437 269.421L146.263 269.677C146.005 270.031 145.741 270.375 145.462 270.713C145.092 271.134 144.723 271.544 144.275 271.884C143.562 272.426 142.743 272.818 141.933 273.191C141.54 273.372 141.144 273.548 140.751 273.727L140.516 273.832L139.932 274.104L139.883 274.127C139.66 274.234 139.438 274.343 139.218 274.456C138.938 274.613 138.667 274.775 138.412 274.971C138.341 275.031 138.342 275.028 138.277 275.093C138.206 275.417 138.151 275.742 138.097 276.07L138.045 276.416C138.218 276.704 138.361 277 138.501 277.305C138.746 277.898 138.924 278.519 139.178 279.109C139.344 279.314 139.556 279.479 139.762 279.643C140.269 280.027 140.788 280.394 141.283 280.794C141.6 281.073 141.597 281.071 141.901 281.366C142.22 281.716 142.217 281.714 142.511 282.085C142.823 282.55 143.106 283.028 143.385 283.514C144.762 285.999 145.857 288.62 147.089 291.177C147.454 291.893 147.823 292.6 148.225 293.296C149.026 294.622 149.931 295.874 151.029 296.962L151.252 297.175L151.313 297.234L151.534 297.436C153.241 298.963 155.284 300.086 157.355 301.037L158.157 301.399L158.408 301.509L158.877 301.716L160.049 302.223L161.433 302.814L161.475 302.833C161.901 303.015 162.326 303.199 162.751 303.384L162.793 303.403C163.334 303.639 163.872 303.879 164.408 304.127C165.014 304.417 165.615 304.715 166.212 305.023C167.132 305.52 168.055 306.021 168.89 306.655C170.652 307.997 172.139 309.71 173.483 311.458C173.717 311.761 173.948 312.068 174.173 312.379L174.308 312.562L174.391 312.68L174.491 312.819L174.611 312.992L174.706 313.126L174.825 313.3C174.919 313.439 175.012 313.579 175.103 313.719L175.278 313.99L175.419 314.216C175.504 314.353 175.586 314.49 175.667 314.628L175.812 314.878L175.979 315.179L176.081 315.369L176.207 315.611L176.31 315.817C176.356 315.911 176.401 316.005 176.446 316.101C177.019 317.326 177.428 318.622 177.718 319.942C177.752 320.097 177.784 320.252 177.815 320.407L177.887 320.791L177.914 320.941L177.96 321.217L177.997 321.443L178.027 321.644L178.07 321.946L178.137 322.48L178.19 322.956L178.229 323.361C178.373 324.915 178.42 326.478 178.463 328.036C178.502 329.447 178.591 330.853 178.642 332.262C178.679 333.307 178.633 334.353 178.682 335.398C178.707 335.725 178.727 336.055 178.799 336.376C179.562 336.589 180.458 336.407 181.194 336.202C181.318 336.162 181.313 336.163 181.434 336.119L181.503 336.092C181.566 335.932 181.636 335.775 181.717 335.623C181.883 335.363 182.046 335.105 182.283 334.898C182.335 334.852 182.388 334.809 182.442 334.768L182.574 334.669L182.709 334.577L182.857 334.486L183.007 334.403L183.159 334.328L183.315 334.26L183.473 334.199L183.634 334.145L183.798 334.098L183.964 334.056L184.18 334.011L184.34 333.984L184.502 333.962L184.659 333.945ZM190.983 342.757L191.609 344.731C191.541 344.038 191.333 343.368 190.983 342.757ZM144.499 119.302C143.835 119.022 143.11 118.86 142.428 118.748L141.964 118.68L141.812 118.661L141.495 118.625L141.318 118.607L141.023 118.581L140.84 118.567L140.542 118.548L140.366 118.538L140.036 118.526L139.894 118.522L139.428 118.515H139.309L138.958 118.518L138.765 118.522L138.488 118.53L138.273 118.538L138.021 118.55L137.792 118.562L137.315 118.593L137.126 118.608C136.751 118.638 136.377 118.673 136.004 118.715L135.571 118.764C135.173 118.812 134.777 118.865 134.384 118.921L133.984 118.985C134.138 117.812 134.276 116.638 134.408 115.462L134.48 114.723L134.553 113.948L134.643 112.958L134.701 112.28L134.733 111.896L134.817 110.814C134.885 109.756 134.948 108.698 134.987 107.638C135.012 106.926 135.03 106.205 135.035 105.492C135.039 104.798 135.033 104.092 135.011 103.399C134.987 102.627 134.959 102.189 134.901 101.423C134.789 99.9834 134.598 98.4525 134.013 97.1184C133.705 96.4191 133.243 95.7441 132.469 95.5519C132.227 95.5162 132.016 95.5125 131.773 95.5331L131.61 95.5669L131.558 95.5791L131.45 95.6062L131.388 95.6241L131.291 95.6522L131.228 95.6728L131.134 95.7047L131.071 95.7272L130.977 95.7628L130.918 95.7862L130.819 95.8275L130.767 95.85L130.633 95.9119L130.619 95.9184L130.369 96.0459L130.337 96.0637L130.123 96.1856L129.938 96.2991L129.843 96.3591L129.595 96.5241L129.571 96.5409L129.288 96.7434C128.339 97.4362 127.478 98.2378 126.621 99.0384C124.751 100.839 122.939 102.698 121.078 104.508C120.204 105.338 119.324 106.159 118.418 106.956C117.667 107.617 116.891 108.251 116.094 108.856C115.471 109.329 114.832 109.783 114.174 110.209C113.693 110.52 113.204 110.816 112.703 111.093C111.127 111.961 109.426 112.647 107.639 112.92C107.297 112.972 106.952 113.01 106.608 113.027L106.263 113.035C105.804 113.036 105.346 112.994 104.893 112.889C104.141 112.715 103.436 112.386 102.796 111.958C101.364 111.004 100.255 109.617 99.2541 108.241L98.82 107.634L98.775 107.571L98.7506 107.536L98.6606 107.406C97.7156 106.057 96.8213 104.67 95.8734 103.323C95.3522 102.609 94.8197 101.913 94.2628 101.227C92.9353 99.6666 91.4494 98.2369 89.64 97.2459C89.2481 97.0313 88.845 96.8381 88.4316 96.6684C88.2188 96.5813 87.9966 96.4762 87.7641 96.4491C87.2916 96.3928 86.7947 96.5269 86.3559 96.69C85.4044 97.0444 84.5372 97.6584 83.8828 98.4328C83.3738 99.0347 82.9941 99.7434 82.7972 100.508C82.6791 100.966 82.6331 101.438 82.5928 101.908C82.5188 102.773 82.4991 103.643 82.5094 104.512C82.5441 107.347 82.8806 110.179 83.3522 112.971C83.7122 115.097 84.1566 117.212 84.6994 119.301L84.7463 119.475L84.9684 120.298L84.9994 120.411L85.2338 121.232L85.2666 121.344L85.4728 122.03L85.5375 122.24L85.7878 123.027C86.3166 124.653 86.9138 126.261 87.6356 127.81L87.8831 128.327L87.9666 128.494L88.1409 128.84L88.3519 129.236L88.3884 129.302L88.6275 129.725L88.77 129.965L88.8253 130.054C88.9444 130.249 89.0681 130.442 89.1966 130.63L89.3766 130.89L89.5378 131.111L89.7 131.326L89.8613 131.53C89.9597 131.653 90.06 131.773 90.1631 131.89L90.4303 134.756L90.5138 135.624L90.5588 136.098L90.6938 137.439C91.1072 140.984 91.6003 144.696 93.255 147.912C93.6638 148.705 94.1634 149.44 94.6922 150.157C95.4122 151.134 96.1575 152.089 96.9216 153.031L97.8806 154.203L98.0756 154.44L98.5763 155.044L100.098 156.875L100.3 157.117L100.815 157.737L101.159 158.153C101.477 158.538 101.793 158.924 102.108 159.31C103.012 160.445 103.897 161.588 104.766 162.748C105.343 163.543 105.914 164.343 106.46 165.161C107.005 165.979 107.555 166.77 107.859 167.71C108.225 168.843 108.348 170.047 108.384 171.231C108.428 172.628 108.342 174.029 108.189 175.418L108.18 175.507L108.179 175.52L108.176 175.541L108.104 176.153C107.537 180.693 106.397 185.167 105.029 189.527C104.619 190.833 104.183 192.131 103.718 193.418C103.456 194.145 103.107 194.864 102.927 195.617C102.904 195.75 102.887 195.879 102.878 196.014C102.885 197.347 103.688 198.418 104.513 199.398C105.42 200.418 106.385 201.382 107.271 202.421C107.58 202.811 107.893 203.21 108.113 203.66C108.477 204.403 108.566 205.236 108.619 206.05C108.663 207.073 108.649 208.097 108.694 209.12L108.722 209.45L108.728 209.513L108.763 209.827C108.83 210.367 108.938 210.9 109.138 211.412C109.409 212.108 109.839 212.671 110.365 213.136C110.564 213.312 110.777 213.474 111 213.625L111.242 213.781L111.491 213.928L111.743 214.066L111.972 214.183L112.035 214.213L112.316 214.344L112.41 214.387L112.739 214.527L113.087 214.664L113.177 214.699L113.345 214.761L113.695 214.887L113.83 214.934L114.279 215.087C114.822 215.268 115.073 215.338 115.624 215.505C117.671 216.092 119.736 216.615 121.782 217.203C122.016 217.272 122.249 217.342 122.482 217.415L123.101 217.607L123.259 217.658L123.757 217.819L123.993 217.897L124.171 217.958L124.41 218.038L124.569 218.093L124.722 218.147L124.878 218.202L125.061 218.267L125.257 218.339L125.449 218.408L125.575 218.457L125.707 218.505L125.938 218.595L126.169 218.684L126.368 218.764C126.779 218.928 127.188 219.1 127.593 219.283C128.839 219.844 130.05 220.485 131.196 221.231C131.843 221.653 132.47 222.108 133.069 222.597C133.551 222.99 134.03 223.393 134.415 223.886C135.707 225.54 135.946 227.782 135.991 229.808C136.001 230.288 135.997 230.774 135.988 231.254C135.973 232.014 135.941 232.642 135.91 233.436C135.869 234.497 135.864 234.493 135.84 235.554C135.836 236.213 135.848 236.866 135.884 237.524C136 238.897 136.258 240.451 137.381 241.385C137.785 241.72 138.276 241.882 138.721 242.146C138.952 242.315 138.948 242.312 139.163 242.499C139.99 243.343 140.492 244.409 140.87 245.518C141.255 246.652 141.522 247.833 141.715 249.014C142.164 251.753 142.37 254.526 142.43 257.303L142.445 258.115L142.448 258.376V258.595L142.451 259.03L142.45 259.27L142.451 259.421L142.449 259.633L142.448 259.944L142.444 260.467L142.441 260.64L142.439 260.858L142.431 261.265L142.427 261.511L142.424 261.633L142.421 261.773L142.407 262.306L142.402 262.554L142.399 262.617C142.39 262.943 142.379 263.271 142.368 263.597L142.326 264.479L143.516 265.303L144.065 264.423C144.249 264.129 144.435 263.838 144.626 263.549L144.84 263.257L145.058 262.972L145.242 262.741C145.329 262.63 145.419 262.521 145.511 262.412C146.632 261.151 147.903 260.042 149.055 258.813C149.541 258.269 150.02 257.722 150.518 257.192C150.985 256.726 151.456 256.268 151.982 255.869C152.32 255.612 152.677 255.38 153.048 255.179L153.206 255.096L153.367 255.016L153.533 254.937L153.693 254.868L153.859 254.8L154.019 254.739L154.254 254.659L154.365 254.624L154.516 254.58L154.75 254.52L154.884 254.489L155.025 254.461L155.258 254.422L155.417 254.399L155.545 254.386C155.623 254.377 155.7 254.371 155.778 254.366C155.882 254.36 155.987 254.355 156.091 254.354L156.405 254.358C156.614 254.365 156.822 254.383 157.03 254.41C157.607 254.486 158.173 254.636 158.717 254.842C159.303 255.062 159.869 255.322 160.338 255.742C161 256.334 161.409 257.163 161.746 257.968C161.92 258.384 162.058 258.841 162.287 259.234C162.394 259.355 162.527 259.444 162.661 259.531C163.069 259.766 163.504 259.935 163.947 260.09C164.093 260.139 164.261 260.204 164.437 260.267L164.624 260.332L164.859 260.404C164.951 260.429 165.043 260.451 165.132 260.467C165.308 260.486 165.48 260.484 165.656 260.473C166.489 260.38 167.305 260.188 168.133 260.06C168.522 260.018 168.896 259.985 169.286 259.976C169.858 259.989 170.419 260.044 170.97 260.204C171.338 260.311 171.695 260.454 172.031 260.636C172.408 260.841 172.761 261.085 173.08 261.371C174.467 262.61 174.972 264.371 175.221 266.149C175.335 267.302 175.344 268.459 175.432 269.613C175.697 272.237 176.056 274.87 176.829 277.399C177.316 278.988 177.967 280.541 179.015 281.843C179.282 282.144 179.558 282.437 179.838 282.726L180.574 283.477L181.222 284.105L181.878 284.723L182.142 284.968L182.541 285.335L182.822 285.589L183.211 285.939L183.497 286.192L183.89 286.539L184.17 286.784L184.576 287.137L184.841 287.364L185.273 287.734L185.508 287.932L185.911 288.273L186.474 288.743L187.425 289.535L187.663 289.731C189.018 290.85 190.383 291.962 191.733 293.092C193.226 294.368 194.697 295.67 196.202 296.932C197.357 297.87 198.545 298.786 199.797 299.591L200.277 299.893L200.763 300.182L201.255 300.458L201.501 300.591L201.751 300.72L202.003 300.846L202.257 300.967L202.513 301.086L202.771 301.199L203.031 301.309L203.293 301.415L203.557 301.515L203.823 301.612L204.265 301.761L204.71 301.899L204.89 301.952L205.157 302.028L205.352 302.08L205.606 302.147L205.813 302.199L206.052 302.258L206.276 302.311L206.49 302.36L206.745 302.417L207.22 302.518C208.626 302.808 210.047 303.035 211.444 303.323C212.072 303.466 212.694 303.612 213.317 303.778C213.728 303.896 214.138 304.021 214.545 304.159L214.748 304.227L215.1 304.353L215.451 304.484L215.798 304.623L216.043 304.726L216.327 304.851L216.483 304.923L216.608 304.981L216.819 305.084L216.886 305.118L217.157 305.257C217.258 305.311 217.358 305.366 217.457 305.422L217.701 305.563L217.802 305.624L217.965 305.725L218.119 305.824L218.226 305.894L218.43 306.034L218.483 306.07L218.735 306.255L218.932 306.406L219.103 306.543C219.208 306.627 219.311 306.713 219.412 306.802L219.502 306.878L219.613 306.979L219.777 307.125L219.868 307.208L219.97 307.306L220.106 307.434L220.224 307.549L220.312 307.638L220.428 307.752L220.572 307.898L220.743 308.076L220.912 308.255L221.053 308.406L221.358 308.74L221.577 308.986C222.307 309.804 223.015 310.65 223.766 311.446C224.063 311.743 224.365 312.028 224.684 312.302C225.216 312.729 225.786 313.137 226.435 313.366C227.057 313.584 227.729 313.642 228.383 313.648L228.838 313.643L229.21 313.628L229.584 313.605L229.958 313.574L230.334 313.538L230.708 313.497L231.463 313.408C232.151 313.327 232.838 313.244 233.526 313.159L234.35 313.053L235.05 312.958C237.04 312.685 239.024 312.352 240.982 311.908C241.21 311.856 241.439 311.802 241.667 311.747L242.107 311.637L242.454 311.548L242.865 311.438L243.28 311.322L243.694 311.201L244.096 311.077L244.52 310.942L244.941 310.799L245.128 310.733L245.361 310.65L245.545 310.582L245.778 310.495L245.96 310.425L246.194 310.332L246.372 310.261L246.609 310.162L246.781 310.089L247.027 309.982L247.187 309.91L247.59 309.724L247.989 309.53C249.814 308.581 251.549 307.473 253.37 306.517C254.337 306.026 255.327 305.577 256.351 305.228L256.559 305.158L256.89 305.054L257.223 304.957L257.558 304.868L257.896 304.788L258.248 304.715C258.357 304.693 258.469 304.672 258.58 304.654L258.861 304.611L259.145 304.573L259.432 304.542L259.604 304.526L259.72 304.517L259.978 304.501C260.195 304.49 260.412 304.483 260.631 304.483H260.656L260.891 304.485L261.187 304.494L261.363 304.504L261.482 304.511L261.739 304.532C261.962 304.552 262.184 304.578 262.404 304.611L262.657 304.651L262.948 304.704L263.237 304.766L263.474 304.824C263.7 304.881 263.923 304.945 264.143 305.018C265.335 305.409 266.435 306.027 267.322 306.913C267.788 307.378 268.185 307.909 268.511 308.48C268.91 309.178 269.194 309.916 269.408 310.678L269.456 310.85L269.513 311.071C269.541 311.179 269.566 311.287 269.59 311.395C269.623 311.541 269.654 311.687 269.684 311.833L269.755 312.203L269.782 312.353L269.821 312.585L269.873 312.914L269.942 313.371L270.046 314.124L270.088 314.441L270.187 315.167L270.244 315.557L270.283 315.818L270.306 315.958L270.383 316.413C270.473 316.852 270.576 317.284 270.697 317.716L270.775 317.948L270.859 318.178L270.948 318.405L271.043 318.629L271.143 318.851L271.249 319.07L271.359 319.285L271.477 319.498L271.598 319.707L271.727 319.913L271.86 320.116L272 320.315L272.145 320.509L272.297 320.7L272.453 320.887L272.624 321.077C273.079 321.569 273.592 321.991 274.118 322.404C275.311 323.288 276.555 324.099 277.752 324.978L278.091 325.25L278.422 325.529L278.588 325.672C278.836 325.886 279.08 326.104 279.327 326.318L279.427 326.405L279.755 326.685L280.08 326.953L280.411 327.211C280.656 327.381 280.9 327.546 281.18 327.655C281.498 327.764 281.848 327.801 282.18 327.844L282.427 327.873L282.673 327.897L282.919 327.916L283.163 327.93L283.404 327.939L283.619 327.944L284.071 327.946L284.242 327.943C286.701 327.892 289.13 327.373 291.563 327.07C292.322 326.993 292.319 326.994 293.081 326.938C293.346 326.925 293.61 326.914 293.874 326.905L294.023 326.9C294.278 326.891 294.533 326.885 294.788 326.881L295.207 326.874L295.727 326.873C295.994 326.873 296.263 326.874 296.53 326.879L296.663 326.882C296.926 326.887 297.188 326.893 297.449 326.902L297.555 326.905C298.109 326.925 298.662 326.953 299.214 326.991L299.278 326.994C299.563 327.014 299.847 327.036 300.131 327.06C300.61 327.1 301.09 327.147 301.569 327.202C303.263 327.392 304.995 327.602 306.593 328.222L306.984 328.382L307.368 328.554L307.521 328.628L307.625 328.678L307.746 328.738L307.981 328.86L308.117 328.932L308.332 329.05L308.484 329.136L308.678 329.247L308.847 329.347L309.022 329.452L309.206 329.564L309.362 329.662L309.699 329.875L310.061 330.11L310.267 330.244L310.974 330.711L311.693 331.18L312.036 331.399L312.384 331.615L312.723 331.805L313.079 331.994C313.286 332.102 313.497 332.204 313.712 332.299C314.195 332.492 314.696 332.58 315.209 332.654C316.256 332.771 317.308 332.824 318.354 332.951C318.95 333.044 319.535 333.159 320.106 333.329L320.32 333.394L320.43 333.429L320.638 333.503L320.662 333.512C320.76 333.548 320.857 333.585 320.954 333.625C321.946 334.034 322.861 334.605 323.833 335.057C324.046 335.147 324.257 335.228 324.477 335.297C324.604 335.328 324.727 335.358 324.856 335.371C325.131 335.387 325.407 335.391 325.683 335.389L326.51 335.377C327.453 335.336 328.392 335.265 329.332 335.178C329.029 330.842 329.349 326.463 330.192 322.199C330.227 322.023 330.262 321.848 330.299 321.673L330.399 321.207L330.51 320.713L330.563 320.49C330.739 319.742 330.933 318.999 331.147 318.262C331.488 317.093 331.865 315.943 332.412 314.854C333.595 312.499 335.349 310.493 337.113 308.559C337.688 307.928 338.268 307.302 338.838 306.668C339.086 306.391 339.319 306.098 339.592 305.845C339.723 305.738 339.856 305.651 340.005 305.572C340.857 305.188 341.806 305.331 342.693 305.511L342.757 305.524C343.776 305.758 344.773 306.081 345.794 306.307C346.138 306.374 346.527 306.452 346.904 306.448L347.03 306.444C347.278 306.428 347.519 306.372 347.735 306.247C348.08 306.045 348.368 305.719 348.593 305.392C349.111 304.638 349.39 303.667 349.311 302.752C349.275 302.347 349.162 301.929 348.906 301.607C348.751 301.412 348.562 301.302 348.349 301.177C347.783 300.892 347.2 300.666 346.612 300.433C346.208 300.272 345.81 300.106 345.413 299.931C345.031 299.746 344.666 299.552 344.303 299.33C343.941 299.081 343.593 298.807 343.341 298.442C342.943 297.869 342.822 297.154 342.723 296.479C342.582 295.31 342.546 294.132 342.46 292.958L342.437 292.661L342.405 292.294L342.353 291.787C342.194 290.613 341.954 289.449 341.445 288.372L341.346 288.172L341.312 288.107L341.241 287.974L341.198 287.899L341.129 287.779L341.084 287.703L341.012 287.586L340.966 287.513L340.886 287.392L340.843 287.328L340.739 287.179L340.717 287.147L340.585 286.97L340.544 286.916L340.449 286.796L340.395 286.73L340.309 286.625L340.25 286.555L340.163 286.456L340.102 286.388L340.049 286.328L339.798 286.061L339.786 286.049L339.523 285.79L339.494 285.762L339.224 285.513L339.183 285.475L339.019 285.333L338.82 285.164L338.667 285.038L338.474 284.884L338.311 284.756L338.122 284.614L337.95 284.485L337.778 284.36C337.493 284.153 337.203 283.955 336.911 283.762L336.832 283.708C336.568 283.534 336.305 283.364 336.043 283.197C334.521 282.258 332.978 281.351 331.478 280.376C330.683 279.844 329.905 279.287 329.162 278.69L329.128 278.663L329.06 278.607L328.903 278.481L328.805 278.398L328.744 278.347L328.689 278.302L328.597 278.225L328.439 278.087L328.366 278.024L328.338 277.999C328.223 277.898 328.109 277.795 327.997 277.693L327.986 277.683L327.709 277.422L327.667 277.381L327.634 277.35L327.564 277.282L327.423 277.143L327.338 277.057L327.28 276.999L327.226 276.943L327.142 276.858L327.006 276.712L326.935 276.637L326.907 276.607C326.803 276.495 326.701 276.382 326.601 276.266C325.592 275.11 324.717 273.829 324.049 272.447C323.986 272.316 323.925 272.184 323.866 272.052L323.855 272.029L323.85 272.018C323.795 271.891 323.74 271.764 323.689 271.637L323.676 271.607L323.667 271.587C323.617 271.462 323.567 271.335 323.52 271.208L323.51 271.182L323.501 271.158L323.472 271.081L323.417 270.922L323.357 270.754L323.337 270.692L323.312 270.619L323.261 270.455L323.218 270.323L323.198 270.255L323.167 270.154L323.12 269.982L323.092 269.889L323.076 269.825L323.036 269.685L322.991 269.503L322.979 269.453L322.968 269.408L322.92 269.213L322.877 269.015L322.818 268.739C322.05 264.934 322.547 260.891 323.172 257.084C323.334 256.091 323.412 255.686 323.617 254.542C323.677 254.254 323.746 253.973 323.828 253.691C324.381 252.042 325.38 250.64 326.522 249.341C327.757 247.937 329.128 246.66 330.406 245.297C330.794 244.867 330.791 244.87 331.165 244.432C332.258 243.062 333.337 241.402 332.837 239.567C332.724 239.152 332.562 238.756 332.346 238.386C332.078 237.93 331.736 237.521 331.347 237.164C330.767 236.633 330.088 236.215 329.379 235.879C329.265 235.824 329.151 235.772 329.035 235.722L328.76 235.607L328.492 235.501L328.426 235.476L328.185 235.387L328.088 235.354L327.863 235.277L327.746 235.239L327.531 235.173L327.401 235.134L327.194 235.074L327.053 235.036L326.852 234.983L326.514 234.899L326.172 234.821L326.016 234.788L325.817 234.748L325.659 234.718L325.461 234.681L325.303 234.653L325.102 234.619L324.948 234.593L324.741 234.562L324.592 234.539L324.376 234.508L324.237 234.489L323.53 234.403L323.069 234.355L322.916 234.341L322.607 234.313L322.144 234.278L321.95 234.264L321.68 234.248L321.481 234.236L321.215 234.223L321.013 234.215L320.749 234.205L320.546 234.199L320.282 234.192L320.08 234.187L319.812 234.185L319.613 234.183H319.163L318.904 234.186L318.713 234.187L318.259 234.198L317.952 234.207L317.809 234.212L317.482 234.225L317.368 234.23L317.011 234.248L316.941 234.251L316.54 234.275L316.235 234.294C316.073 234.306 315.911 234.318 315.75 234.33L315.576 234.346C315.007 230.535 314.563 226.704 314.233 222.865C313.895 218.933 313.672 214.985 313.674 211.037C313.675 210.433 313.682 209.829 313.696 209.226L313.711 208.605L313.74 207.794L313.75 207.553L313.765 207.214L313.777 206.985L313.787 206.802L313.8 206.549L313.822 206.175L313.84 205.885L313.882 205.303C313.899 205.054 313.919 204.806 313.94 204.558C313.991 203.955 314.06 203.353 314.137 202.753C314.18 202.423 314.232 202.111 314.245 201.781C314.239 201.591 314.22 201.413 314.186 201.225C313.782 199.625 312.237 198.618 310.933 197.784C310.658 197.608 310.382 197.436 310.105 197.261C309.557 196.914 309.011 196.569 308.473 196.206C308.093 195.935 308.095 195.937 307.725 195.655C307.644 195.588 307.563 195.52 307.482 195.45L307.454 195.427L307.407 195.384L307.296 195.288L307.237 195.232L307.188 195.189L307.108 195.113L307.088 195.095L307.079 195.087C307.018 195.028 306.958 194.969 306.899 194.907L306.886 194.895L306.871 194.878C306.791 194.795 306.714 194.71 306.64 194.622L306.603 194.578L306.595 194.569L306.574 194.543L306.536 194.495L306.516 194.467L306.501 194.448L306.466 194.403L306.44 194.366L306.431 194.355L306.413 194.33C306.225 194.065 306.07 193.779 305.965 193.463C305.713 192.708 305.85 191.906 306.056 191.155C306.558 189.329 307.632 187.675 308.723 186.155C309.203 185.484 309.706 184.83 310.217 184.183C310.761 183.493 311.271 182.871 311.837 182.175C312.755 181.047 313.674 179.921 314.57 178.776C315.085 178.099 315.589 177.416 316.08 176.722C317.212 175.04 318.315 173.263 318.834 171.281C319.382 169.187 319.657 167.033 319.739 164.872L319.76 164.159L319.763 163.927L319.767 163.444L319.766 163.169L319.763 162.727L319.757 162.439L319.745 162.003L319.734 161.716L319.714 161.269L319.7 160.998L319.667 160.497L319.652 160.282L319.594 159.577L319.574 159.382L319.522 158.868L319.488 158.577L319.437 158.16L319.395 157.841L319.341 157.454L319.291 157.12L319.233 156.753L319.177 156.408L319.114 156.057L319.049 155.701L318.988 155.386C318.922 155.045 318.85 154.705 318.775 154.367C318.66 153.849 318.534 153.334 318.399 152.821C317.858 150.769 317.181 148.712 315.974 146.946C314.534 144.835 312.513 143.19 310.322 141.908C309.68 141.532 309.02 141.187 308.348 140.867C307.979 140.691 307.61 140.513 307.222 140.383C306.653 140.192 306.065 140.083 305.473 139.99C303.969 139.795 302.454 139.718 300.948 139.551C299.915 139.402 298.604 139.268 297.87 138.426C297.479 137.976 297.263 137.409 297.069 136.854C296.786 135.934 296.558 134.999 296.27 134.08C296.041 133.44 295.773 132.78 295.266 132.307L295.161 132.216L295.125 132.188L295.051 132.133L295.007 132.103L294.937 132.058L294.889 132.03L294.819 131.992L294.769 131.965L294.697 131.932L294.646 131.908L294.569 131.877L294.52 131.858L294.435 131.827L294.393 131.812L294.264 131.774L294.232 131.765L294.135 131.739L293.934 131.695L293.771 131.665L293.662 131.646L293.498 131.621L293.384 131.605L293.127 131.572C292.083 131.437 291.026 131.397 289.974 131.377C286.618 131.313 283.257 131.476 279.906 131.707L278.316 131.822L276.557 131.956L275.915 132.01C275.719 131.683 275.513 131.365 275.302 131.047C274.897 130.469 274.476 129.91 274.04 129.355C272.412 127.377 270.559 125.594 268.444 124.14C267.537 123.517 266.585 122.912 265.573 122.471L265.334 122.372L265.259 122.342L265.09 122.276L265.009 122.246L264.833 122.183L264.768 122.161L264.531 122.082L264.48 122.066C263.663 121.809 262.82 121.637 261.977 121.509C260.247 121.247 258.491 121.175 256.744 121.182C254.126 121.192 251.513 121.39 248.91 121.666L248.571 121.702L247.512 121.821L246.101 121.988C244.791 122.149 243.482 122.327 242.168 122.473C241.627 122.533 241.09 122.575 240.553 122.654C240.208 122.718 239.871 122.795 239.531 122.885C237.237 123.579 235.263 124.936 233.413 126.43C231.497 127.978 229.699 129.666 227.812 131.249C227.182 131.762 227.183 131.76 226.543 132.26C224.888 133.493 223.186 134.582 221.219 135.237L220.868 135.341L220.527 135.43L220.524 135.513C220.473 136.856 220.337 138.242 220.042 139.585C219.977 140.156 219.909 140.727 219.841 141.298C219.725 142.14 219.614 142.981 219.465 143.818C219.366 144.38 219.253 144.938 219.116 145.492C218.994 145.988 218.854 146.48 218.681 146.961C218.438 147.636 218.123 148.312 217.692 148.893L217.619 148.991L217.559 149.064L217.547 149.08L217.528 149.102L217.459 149.187L217.412 149.238L217.392 149.26L217.356 149.299L217.287 149.374L217.252 149.408L217.229 149.432L217.175 149.483L217.106 149.551L217.064 149.587L217.049 149.601C216.996 149.648 216.941 149.694 216.884 149.738L216.875 149.747L216.862 149.755C216.807 149.799 216.75 149.842 216.691 149.882L216.604 149.94L216.593 149.947L216.583 149.954L216.532 149.986L216.495 150.008L216.481 150.017L216.416 150.053L216.382 150.073L216.267 150.134C215.978 150.28 215.671 150.387 215.355 150.457C215.145 150.505 214.943 150.537 214.746 150.546L214.628 150.547C214.238 150.545 213.872 150.44 213.519 150.164C213.132 149.861 212.827 149.449 212.569 149.036C212.448 148.845 212.332 148.651 212.219 148.456C211.28 148.833 210.308 149.128 209.323 149.358C206.972 149.905 204.562 150.064 202.155 150.127C200.458 150.153 198.763 150.13 197.066 150.115C195.61 150.102 194.153 150.137 192.698 150.095C191.538 150.042 190.388 149.932 189.233 149.797C188.385 149.682 187.538 149.553 186.693 149.418C186.571 149.428 186.45 149.437 186.328 149.446C185.942 149.473 185.554 149.494 185.166 149.502L184.778 149.508C183.23 149.512 181.696 149.315 180.264 148.657C180.055 148.561 179.851 148.458 179.65 148.349C179.148 148.295 178.645 148.253 178.141 148.237C176.966 148.197 175.79 148.287 174.615 148.294C174.098 148.283 173.591 148.257 173.078 148.208C172.446 148.123 171.818 147.997 171.238 147.724C170.72 147.48 170.259 147.123 169.83 146.749C169.223 146.219 168.666 145.627 168.139 145.018C166.963 143.662 165.859 142.246 164.665 140.905C164.312 140.522 163.953 140.149 163.582 139.783C162.436 138.721 161.163 137.729 159.557 137.598L159.353 137.592L158.298 137.273C158.031 137.298 157.763 137.32 157.495 137.341L157.383 137.35L156.923 137.382C156.614 137.395 156.305 137.407 155.995 137.409H155.686C155.273 137.406 154.861 137.385 154.45 137.334C153.788 137.253 153.129 137.099 152.523 136.816C151.638 136.401 150.991 135.725 150.502 134.925L147.388 133.987C146.843 132.708 146.205 131.47 145.658 130.192C145.449 129.679 145.252 129.163 145.097 128.631C144.793 127.583 144.619 126.485 144.459 125.407C144.165 123.425 143.998 121.279 144.499 119.302ZM165.631 310.089L173.817 329.381C173.801 328.976 173.788 328.571 173.777 328.166C173.749 327.162 173.713 326.161 173.663 325.158C173.608 324.353 173.544 323.556 173.448 322.756C173.244 321.291 172.948 319.837 172.369 318.469C171.645 316.758 170.494 315.208 169.338 313.769C168.278 312.449 167.114 311.078 165.693 310.13L165.631 310.089ZM160.18 169.82C171.652 174.782 180.876 183.629 183.275 200.235C185.428 200.353 187.301 201.097 189.052 202.457C187.971 204.689 187.099 207.018 186.449 209.416H179.186C177.618 216.292 177.618 223.434 179.186 230.311H186.449C187.342 233.606 188.654 236.773 190.353 239.735L185.217 244.87C188.971 250.842 194.021 255.892 199.993 259.646L205.129 254.511C208.09 256.209 211.257 257.521 214.552 258.413V265.677C221.429 267.245 228.571 267.245 235.447 265.677V258.413C238.743 257.521 241.91 256.209 244.871 254.511L256.431 266.07C247.473 272.179 236.65 275.752 225 275.752C194.154 275.752 169.112 250.709 169.112 219.863C169.112 215.593 169.493 211.148 169.698 206.464C169.877 202.369 168.525 195.459 164.793 191.725C158.249 185.176 151.616 180.833 151.616 180.833L160.18 169.82ZM289.82 269.907C278.348 264.945 269.124 256.098 266.725 239.492C264.572 239.373 262.699 238.63 260.948 237.27C262.029 235.038 262.901 232.709 263.551 230.311H270.814C272.382 223.434 272.382 216.292 270.814 209.416H263.551C262.658 206.121 261.346 202.954 259.647 199.992L264.783 194.857C261.029 188.885 255.979 183.834 250.007 180.081L244.871 185.216C241.91 183.517 238.743 182.206 235.447 181.313V174.05C228.571 172.481 221.429 172.481 214.552 174.05V181.313C211.257 182.206 208.09 183.517 205.129 185.216L193.569 173.657C202.527 167.548 213.35 163.975 225 163.975C255.846 163.975 280.888 189.018 280.888 219.863C280.888 224.134 280.507 228.579 280.302 233.263C280.123 237.358 281.475 244.267 285.207 248.002C291.751 254.551 298.384 258.893 298.384 258.893L289.82 269.907ZM334.157 248.158C332.951 249.507 331.603 250.753 330.398 252.041C330.061 252.416 329.733 252.795 329.416 253.188C328.97 253.78 328.539 254.384 328.302 255.093C328.118 255.723 328.035 256.457 327.93 257.055C327.829 257.632 327.767 258.037 327.674 258.614C327.572 259.293 327.47 259.987 327.382 260.687L334.157 248.158ZM232.614 181.583C227.587 180.583 222.412 180.583 217.386 181.583L217.572 187.53C213.967 188.359 210.525 189.785 207.389 191.748L203.317 187.411C199.055 190.259 195.396 193.918 192.547 198.18L196.885 202.253C194.921 205.388 193.495 208.83 192.667 212.436L186.72 212.249C185.721 217.276 185.721 222.451 186.72 227.478L192.667 227.291C193.495 230.897 194.921 234.338 196.885 237.474L192.547 241.547C195.396 245.809 199.055 249.468 203.317 252.316L207.389 247.978C210.525 249.942 213.967 251.368 217.572 252.197L217.386 258.143C222.412 259.143 227.587 259.143 232.614 258.143L232.428 252.197C236.033 251.368 239.475 249.942 242.611 247.978L246.683 252.316C250.945 249.468 254.604 245.809 257.452 241.547L253.115 237.474C255.079 234.338 256.505 230.897 257.333 227.291L263.28 227.478C264.279 222.451 264.279 217.276 263.28 212.249L257.333 212.436C256.505 208.83 255.079 205.388 253.115 202.253L257.452 198.18C254.604 193.918 250.945 190.259 246.683 187.411L242.611 191.748C239.475 189.785 236.033 188.359 232.428 187.53L232.614 181.583ZM223.309 198.593V195.067H226.691V198.58C230.587 197.85 232.342 194.846 232.292 195.095C231.652 198.112 230.168 201.378 226.691 202.192V209.431C233.648 208.642 236.77 203.364 236.686 203.778C235.601 208.821 232.996 214.305 226.691 215.166V221.747C235.243 220.988 239.078 214.92 238.976 215.39C237.66 221.114 234.473 227.348 226.691 228.172V236.124C237.622 235.332 242.519 227.344 242.39 227.952C240.64 235.795 236.226 244.384 225 244.426C213.749 244.461 209.34 235.811 207.671 227.918C207.564 227.348 212.386 235.389 223.309 236.133V228.187C215.473 227.43 212.281 221.138 211.023 215.363C210.938 214.923 214.73 221.056 223.309 221.759V215.183C216.958 214.378 214.351 208.841 213.314 203.753C213.244 203.366 216.331 208.701 223.309 209.443V202.209C219.805 201.424 218.319 198.125 217.708 195.08C217.667 194.846 219.402 197.884 223.309 198.593ZM130.012 226.148L131.27 229.113C131.245 228.715 131.203 228.319 131.129 227.926C131.057 227.543 130.961 227.138 130.746 226.808C130.555 226.55 130.274 226.345 130.012 226.148ZM173.498 143.533C173.639 143.555 173.781 143.567 173.926 143.581C175.179 143.647 176.434 143.554 177.688 143.542C178.305 143.551 178.3 143.551 178.914 143.583C182.282 143.882 185.588 144.522 188.927 145.026C189.815 145.147 190.7 145.25 191.592 145.334C192.305 145.387 193.015 145.419 193.73 145.428C196.506 145.415 199.282 145.483 202.057 145.44C203.948 145.39 205.843 145.286 207.702 144.913C208.854 144.682 209.991 144.347 211.059 143.854C212.179 143.337 213.368 142.643 214.144 141.662C214.742 140.905 215.105 139.985 215.347 139.058C215.732 137.593 215.842 136.059 215.859 134.55C215.869 133.725 215.845 132.9 215.802 132.076C215.758 131.209 215.686 130.343 215.611 129.478C215.359 126.859 215.025 124.248 214.798 121.627C214.65 119.567 214.628 117.502 214.514 115.441C214.465 114.749 214.404 114.063 214.327 113.374C214.19 112.404 214.029 111.441 213.713 110.512C213.612 110.214 213.517 109.82 213.307 109.577C213.155 109.423 212.977 109.303 212.797 109.184C212.584 109.055 212.369 108.934 212.15 108.817C211.056 108.272 209.938 107.777 208.851 107.218C207.464 106.469 206.146 105.61 205.056 104.458C204.06 103.407 203.328 102.148 202.631 100.888C201.838 99.4547 201.161 97.9584 200.647 96.4013C200.178 94.9838 199.858 93.5334 199.578 92.07L199.541 91.7569C199.377 91.7719 199.212 91.7869 199.047 91.8019L198.733 91.8309L198.649 91.8384L198.429 91.8591L198.343 91.8656L198.162 91.8806L198.073 91.8881L197.701 91.9144C196.73 91.9472 195.757 91.9303 194.785 91.9369C192.655 91.9519 192.059 91.9678 189.928 92.0044L189.13 92.0241L189.008 92.0278L188.921 92.0297L187.535 92.07L187.093 92.0841L186.908 92.0897L186.833 92.0925C186.527 92.1019 186.22 92.1122 185.914 92.1225L185.901 92.1234L185.822 92.1263L185.142 92.1497L184.984 92.1562L184.895 92.1591L184.026 92.1919L183.889 92.1966L183.772 92.2013L183.547 92.2097L182.882 92.2359L182.859 92.2369C182.531 92.25 182.204 92.2631 181.876 92.2772C180.308 92.3409 178.738 92.4094 177.169 92.4769C174.313 92.5547 171.457 92.4431 168.601 92.5125C167.452 92.5528 166.288 92.6072 165.137 92.745C164.896 92.7731 164.656 92.8059 164.416 92.8425L164.399 92.8444L164.384 92.8472L164.285 92.8631L164.215 92.8734L164.205 92.8753L164.185 92.8791L164.106 92.8922L164.032 92.9044L164.013 92.9081L163.987 92.9128L163.919 92.925L163.85 92.9372L163.821 92.9428L163.789 92.9484L163.73 92.9597L163.667 92.9719L163.629 92.9794L163.591 92.9869L163.485 93.0084L163.438 93.0187L163.394 93.0272L163.351 93.0366L163.303 93.0469L163.247 93.06L163.197 93.0703L163.162 93.0788L163.121 93.0881L163.056 93.1031L163.001 93.1163L162.973 93.1228L162.941 93.1303L162.864 93.15L162.806 93.1641L162.785 93.1697L162.76 93.1753L162.671 93.1988L162.597 93.2184L162.581 93.2231L162.473 93.2531L162.417 93.2681C162.355 93.2859 162.286 93.3056 162.223 93.3244C161.606 93.5091 160.993 93.7397 160.44 94.0744C160.257 94.185 160.008 94.3097 159.887 94.4972C159.787 94.6697 159.754 94.8778 159.72 95.0719C159.607 95.8612 159.655 96.6628 159.705 97.4559L159.72 97.6378C159.767 98.2284 159.821 98.8191 159.874 99.4097C159.936 100.1 159.996 100.789 160.041 101.481C160.05 101.677 160.057 101.873 160.062 102.07C160.126 104.298 159.951 106.528 159.064 108.603C158.65 109.57 158.11 110.485 157.494 111.338C156.791 112.31 155.975 113.18 155.115 114.013L154.994 114.125L154.953 114.162L154.875 114.233L154.66 114.428L154.633 114.452L154.38 114.677L154.132 114.893L154.001 115.006L153.888 115.103L153.731 115.238L153.198 115.691C152.46 116.317 151.721 116.939 151.013 117.599C150.311 118.283 149.594 119.033 149.208 119.95C148.736 121.074 148.843 122.478 148.961 123.648C149.033 124.372 149.147 125.092 149.278 125.807C149.386 126.398 149.487 126.996 149.675 127.568C149.918 128.307 150.257 129.011 150.586 129.715L150.774 130.112L160.107 132.923L159.813 132.915C160.264 132.953 160.26 132.952 160.708 133.012C161.138 133.093 161.135 133.092 161.558 133.194C162.212 133.385 162.84 133.614 163.448 133.921C165.458 134.937 167.054 136.493 168.525 138.179L168.757 138.446L168.985 138.714L169.209 138.981L169.426 139.239L169.612 139.463C169.858 139.762 170.103 140.061 170.348 140.359L170.742 140.836L171.089 141.252L171.303 141.504L171.533 141.774L171.748 142.022L171.949 142.248C172.258 142.583 172.571 142.907 172.909 143.213C173.008 143.296 173.149 143.454 173.282 143.492C173.354 143.509 173.425 143.522 173.498 143.533ZM214.108 0.260625C217.717 0.0871874 221.348 0 225 0C228.833 0 232.652 0.0965625 236.439 0.286875L214.108 0.260625Z" fill="white"/>
</svg>
