<svg width="450" height="450" viewBox="0 0 450 450" fill="none" xmlns="http://www.w3.org/2000/svg">
<path d="M275.169 49.6989L225.527 0L97.456 127.897C78.2789 147.447 55.9334 145.354 32.8549 143.192C31.248 143.042 29.6376 142.891 28.0245 142.747C51.6744 196.461 114.058 211.664 150.656 174.86L275.169 49.6989Z" fill="white"/>
<path d="M49.6426 175.404L174.662 300.059C211.428 336.709 196.243 399.156 142.582 422.826C142.725 421.216 142.876 419.608 143.026 418.004C145.188 394.904 147.283 372.528 127.752 353.319L0 225.111L49.6426 175.404Z" fill="white"/>
<path d="M224.796 450L175.146 400.305L299.655 275.14C336.26 238.336 398.644 253.539 422.283 307.257C420.678 307.113 419.075 306.963 417.476 306.813C394.399 304.648 372.045 302.551 352.855 322.107L224.796 450Z" fill="white"/>
<path d="M450 224.78L400.357 274.487L275.338 149.836C238.576 113.19 253.761 50.7347 307.415 27.0693C307.271 28.6818 307.121 30.2916 306.97 31.898C304.811 54.9925 302.719 77.3686 322.248 96.5757L450 224.78Z" fill="white"/>
<path d="M225.005 154.688C186.171 154.688 154.688 186.187 154.688 225.015C154.688 263.835 186.171 295.312 225.002 295.312C263.825 295.312 295.312 263.853 295.312 225.015C295.312 186.187 263.825 154.688 225.005 154.688Z" fill="white"/>
</svg>
