<svg width="450" height="450" viewBox="0 0 450 450" fill="none" xmlns="http://www.w3.org/2000/svg">
<path d="M132.992 153.9V218.258C187.767 178.462 245.715 159.99 309.504 158.783L316.19 158.657V219.101C339.304 201.024 362.418 178.577 385.532 150.981L385.172 0.624847C308.914 92.3039 226.296 150.888 132.992 153.9Z" fill="white"/>
<path d="M199.015 393.478C199.015 424.609 224.406 450.001 255.538 450.001C286.672 450.001 312.064 424.609 312.064 393.478C312.064 362.343 286.672 336.952 255.538 336.952C224.406 336.952 199.015 362.343 199.015 393.478Z" fill="white"/>
<path d="M309.628 296.725V165.345C225.45 166.936 141.272 199.137 57.0879 299.644L57.4479 450.001C133.706 358.321 216.326 299.737 309.628 296.725Z" fill="white"/>
</svg>
