<svg width="450" height="450" viewBox="0 0 450 450" fill="none" xmlns="http://www.w3.org/2000/svg">
<path fill-rule="evenodd" clip-rule="evenodd" d="M141.665 409.874C142.772 409.066 143.861 408.238 144.922 407.373C147.183 405.531 149.327 403.543 151.308 401.402C152.23 400.406 153.117 399.377 153.965 398.315C154.642 397.465 155.293 396.592 155.937 395.714C157.029 394.225 158.087 392.708 159.107 391.167C161.962 386.853 164.532 382.35 166.816 377.706C167.914 375.475 168.94 373.211 169.911 370.921C170.103 370.464 170.293 370.006 170.481 369.548C170.543 369.395 170.667 369.088 170.667 369.088C172.49 370.959 174.353 372.79 176.261 374.572C181.166 379.153 186.345 383.436 191.73 387.436C193.728 388.921 195.754 390.366 197.807 391.773C198.927 392.541 200.052 393.302 201.194 394.037C202.729 395.026 204.293 395.969 205.882 396.87C209.403 398.867 213.038 400.658 216.742 402.288C218.273 402.961 219.818 403.602 221.37 404.227C221.894 404.435 222.419 404.641 222.945 404.847C215.277 421.707 201.983 436.251 188.431 447.656C170.65 436.576 153.699 423.844 141.665 409.874ZM38.9325 333.917C39.9956 334.325 41.0644 334.711 42.1462 335.063C44.4216 335.8 46.7447 336.397 49.1006 336.817C50.1834 337.01 51.2728 337.166 52.3669 337.282C53.3681 337.387 54.3722 337.456 55.3772 337.513C56.7141 337.59 58.0528 337.639 59.3916 337.659C63.6413 337.727 67.8956 337.513 72.1162 337.016C73.9491 336.8 75.7725 336.524 77.5903 336.208C78.3666 336.067 78.3656 336.067 79.1409 335.92C78.7453 337.928 78.3834 339.941 78.075 341.964C77.4 346.4 76.9528 350.87 76.7269 355.351C76.6031 357.798 76.5459 360.249 76.5544 362.699C76.56 364.603 76.6031 366.505 76.7428 368.405C77.0466 372.536 77.7366 376.623 78.6741 380.655C78.8081 381.216 78.9459 381.777 79.0875 382.338C80.2697 382.176 81.4481 381.994 82.6209 381.772C85.1072 381.302 87.5653 380.678 89.9644 379.868C91.0772 379.494 92.1778 379.079 93.2606 378.621C94.1269 378.255 94.9828 377.86 95.8341 377.461C97.02 376.904 98.1956 376.326 99.3591 375.725C104.774 372.929 109.927 369.651 114.788 365.974C115.363 365.535 115.935 365.092 116.503 364.644C117.069 364.193 117.632 363.739 118.192 363.28C118.878 365.747 119.613 368.2 120.422 370.63C122.208 375.993 124.308 381.252 126.695 386.376C127.493 388.092 128.325 389.793 129.188 391.479C129.712 392.501 130.241 393.521 130.797 394.526C131.512 395.821 132.264 397.094 133.052 398.345C135.255 401.845 137.727 405.162 140.364 408.345C140.795 408.856 141.229 409.367 141.665 409.874C129.258 418.787 113.885 424.019 99.6159 426.983C90.7922 412.853 82.9303 397.363 79.0875 382.338C70.9134 383.391 62.3259 382.931 53.985 381.556C48.9028 380.731 43.8797 379.573 39.0759 378.215C37.1166 363.644 36.4256 347.919 38.9325 333.917ZM222.945 404.847C223.618 403.344 224.261 401.828 224.848 400.289C226.1 397.013 227.13 393.651 227.888 390.226C228.267 388.517 228.578 386.795 228.817 385.061C229.031 383.499 229.181 381.928 229.315 380.357C229.484 378.385 229.61 376.411 229.692 374.434C229.947 368.383 229.803 362.314 229.254 356.281C229.011 353.597 228.682 350.922 228.283 348.256C228.167 347.5 228.045 346.745 227.919 345.991L228.572 346.168L229.227 346.343C232.358 347.172 235.505 347.937 238.668 348.629C246.648 350.377 254.719 351.694 262.831 352.641C265.706 352.978 268.586 353.267 271.47 353.512C273.375 353.674 275.282 353.825 277.191 353.932C279.57 354.065 281.953 354.135 284.335 354.147C289.817 354.175 295.298 353.902 300.756 353.396C303.315 353.159 305.867 352.864 308.417 352.537C312.495 375.182 308.418 399.273 301.541 420.476C290.256 419.538 279.108 418.243 268.385 416.495C251.968 413.834 236.492 410.083 222.945 404.847ZM121.754 360.168C123.897 358.207 125.955 356.154 127.944 354.034C130.418 351.399 132.788 348.663 135.045 345.838C136.834 343.597 138.554 341.299 140.164 338.925C141.66 336.716 143.065 334.443 144.235 332.043C144.357 331.784 144.477 331.526 144.593 331.264C145.559 333.762 146.748 336.167 148.011 338.525C149.579 341.456 151.279 344.315 153.067 347.116C155.383 350.744 157.854 354.275 160.489 357.678C162.571 360.368 164.757 362.977 167.079 365.461L166.143 367.769L165.961 368.21C164.92 370.718 163.809 373.195 162.611 375.63C160.486 379.95 158.106 384.144 155.466 388.168C154.405 389.785 153.304 391.375 152.16 392.934C151.238 394.189 150.298 395.429 149.288 396.614C147.428 398.798 145.382 400.805 143.216 402.682C142.939 402.919 142.662 403.156 142.38 403.388C139.96 400.353 137.737 397.148 135.776 393.797C134.921 392.336 134.13 390.841 133.359 389.335C132.447 387.555 131.572 385.756 130.733 383.941C128.641 379.406 126.779 374.765 125.169 370.036C124.369 367.684 123.638 365.31 122.958 362.921L122.507 361.299L121.754 360.168ZM172.557 364.312L172.581 364.246C173.897 360.532 175.033 356.755 175.98 352.93C177.538 346.637 178.583 340.213 179.052 333.745C179.256 330.941 179.341 328.134 179.33 325.323C179.325 324.86 179.318 324.396 179.311 323.932C182.274 325.903 185.283 327.804 188.354 329.601C193.062 332.357 197.907 334.878 202.875 337.13C207.996 339.45 213.244 341.482 218.585 343.232C220.027 343.704 221.476 344.154 222.931 344.585L223.389 347.321L223.477 347.867C223.855 350.248 224.175 352.638 224.424 355.035C225.066 361.221 225.266 367.452 225.032 373.666C224.946 375.957 224.799 378.246 224.595 380.53C224.421 382.476 224.207 384.416 223.876 386.341C223.149 390.582 221.965 394.747 220.414 398.757L220.103 398.626C218.636 397.997 217.178 397.35 215.734 396.672C212.719 395.257 209.761 393.72 206.889 392.031C205.822 391.404 204.769 390.757 203.729 390.088C202.453 389.265 201.197 388.411 199.947 387.549C197.462 385.834 195.016 384.061 192.615 382.23C186.463 377.535 180.612 372.449 175.153 366.961C174.283 366.081 173.419 365.197 172.557 364.312ZM84.1369 334.822C88.8384 333.636 93.4425 332.052 97.9181 330.191C100.188 329.247 102.427 328.226 104.623 327.121C107.614 325.616 110.522 323.952 113.289 322.064C113.701 321.777 113.7 321.778 114.109 321.487C113.778 324.194 113.669 326.923 113.665 329.649C113.661 332.774 113.795 335.899 114.026 339.015C114.294 342.618 114.696 346.212 115.241 349.783C115.677 352.64 116.209 355.481 116.867 358.293L114.89 359.918C113.065 361.406 111.197 362.837 109.277 364.199C105.659 366.766 101.874 369.098 97.9509 371.165C96.5981 371.878 95.2303 372.559 93.8466 373.208C92.6391 373.774 91.425 374.323 90.18 374.802C87.7453 375.737 85.2225 376.461 82.6659 376.977L82.6556 376.925C82.0416 373.827 81.5878 370.7 81.3825 367.546C81.2766 365.927 81.2466 364.305 81.2409 362.683C81.2353 360.905 81.2653 359.126 81.3309 357.35C81.4819 353.29 81.8194 349.238 82.3491 345.21C82.6088 343.241 82.92 341.281 83.265 339.326C83.3663 338.773 83.4694 338.222 83.5744 337.67L84.1369 334.822ZM147.407 325.542C151.436 316.607 153.95 307.318 154.733 298.103C159.527 306.175 166.227 313.671 174.561 320.344L174.636 324.693C174.648 325.803 174.648 326.914 174.626 328.024C174.573 330.725 174.411 333.425 174.145 336.114C173.556 342.101 172.457 348.036 170.903 353.847C170.305 356.086 169.635 358.305 168.907 360.505L168.718 360.291C168.028 359.502 167.346 358.709 166.677 357.903C164.816 355.659 163.042 353.344 161.343 350.976C159.413 348.288 157.579 345.532 155.842 342.715C154.441 340.444 153.103 338.133 151.858 335.772C150.854 333.869 149.908 331.934 149.107 329.936L147.407 325.542ZM119.296 317.687C126.337 312.122 132.407 305.552 137.19 298.163C137.255 307.053 138.968 316.135 142.182 325.152L140.235 329.525L140.167 329.676C139.319 331.482 138.302 333.201 137.22 334.875C136.023 336.729 134.743 338.527 133.416 340.288C131.499 342.829 129.481 345.292 127.379 347.681C125.288 350.058 123.114 352.362 120.848 354.573L120.832 354.498C119.705 348.827 118.978 343.08 118.607 337.31C118.456 334.961 118.364 332.608 118.354 330.253C118.343 327.95 118.412 325.647 118.618 323.353C118.661 322.922 118.66 322.923 118.708 322.492L119.296 317.687ZM362.711 250.881C385.223 269.512 400.769 295.554 411.244 321.684C375.766 336.608 340.074 348.416 308.417 352.537L308.341 352.115C307.918 349.872 307.424 347.643 306.838 345.436C305.67 341.043 304.156 336.74 302.267 332.606C301.617 331.182 300.922 329.779 300.184 328.398C299.464 327.053 298.703 325.731 297.932 324.415C296.255 321.554 294.49 318.746 292.641 315.994C288.881 310.402 284.775 305.044 280.354 299.961C278.261 297.555 276.095 295.216 273.87 292.932C273.396 292.449 272.918 291.968 272.439 291.488C276.255 290.502 280.053 289.446 283.827 288.311C292.467 285.712 300.99 282.728 309.384 279.42C313.856 277.657 318.292 275.802 322.691 273.86C324.767 272.945 326.839 272.016 328.893 271.049C330.976 270.07 333.039 269.049 335.084 267.991C343.727 263.52 352.007 258.381 359.987 252.813C360.897 252.174 361.806 251.53 362.711 250.881ZM267.112 292.793L269.598 295.282L270.061 295.749L270.522 296.22C272.684 298.437 274.788 300.709 276.82 303.046C281.413 308.328 285.658 313.915 289.513 319.759C291.034 322.065 292.493 324.41 293.89 326.793C294.631 328.056 295.362 329.327 296.053 330.618C296.619 331.676 297.158 332.748 297.668 333.834C299.873 338.522 301.553 343.443 302.772 348.477L302.447 348.512C300.34 348.724 298.233 348.915 296.121 349.06C291.379 349.389 286.623 349.524 281.87 349.416C280.235 349.38 278.601 349.313 276.967 349.215C275.266 349.113 273.565 348.978 271.867 348.833C268.023 348.506 264.185 348.098 260.359 347.606C253.187 346.684 246.052 345.461 238.992 343.893C236.124 343.255 233.272 342.556 230.432 341.805C229.356 341.517 228.28 341.226 227.206 340.934C226.564 337.422 225.64 333.96 224.571 330.555C222.847 325.064 220.728 319.696 218.354 314.455C216.909 311.267 215.367 308.12 213.693 305.047C213.093 303.947 212.475 302.856 211.828 301.783C211.216 300.767 210.581 299.76 209.866 298.814C209.745 298.658 209.622 298.504 209.495 298.352L210.151 298.396L210.81 298.437C213.98 298.619 217.154 298.717 220.329 298.708C226.185 298.692 232.04 298.353 237.864 297.766C245.653 296.978 253.395 295.738 261.057 294.138C263.082 293.716 265.1 293.266 267.112 292.793ZM179.026 318.11C178.185 307.452 175.616 297.455 171.323 288.688C180.234 293.223 190.835 296.27 202.808 297.719L205.982 301.463L206.027 301.519C206.085 301.592 206.085 301.592 206.141 301.665C206.653 302.343 207.112 303.062 207.557 303.786C208.151 304.751 208.716 305.735 209.264 306.726C210.73 309.374 212.085 312.085 213.365 314.828C215.095 318.538 216.686 322.317 218.108 326.157C219.713 330.495 221.107 334.917 222.119 339.433L221.649 339.285C219.263 338.525 216.892 337.721 214.543 336.852C210.753 335.45 207.02 333.892 203.356 332.184C199.282 330.284 195.295 328.197 191.404 325.946C189.336 324.748 187.297 323.502 185.279 322.223C184.602 321.79 183.928 321.354 183.256 320.916C181.843 319.985 180.433 319.048 179.026 318.11ZM22.5572 271.901C25.1456 274.88 27.9347 277.68 31.0134 280.15C31.9144 280.873 32.8378 281.567 33.7847 282.229C34.5075 282.734 35.2444 283.218 35.985 283.696C37.14 284.442 38.31 285.164 39.4941 285.864C42.9694 287.915 46.5656 289.761 50.2631 291.378C52.1887 292.221 54.1434 292.992 56.1169 293.715C56.8519 293.978 56.8519 293.978 57.5887 294.234C56.2444 296.025 54.9413 297.845 53.6963 299.708C51.1575 303.506 48.8419 307.453 46.7512 311.516C45.9525 313.069 45.1866 314.638 44.4534 316.222C44.0644 317.063 43.6809 317.907 43.3209 318.762C42.9206 319.712 42.5456 320.672 42.1941 321.642C40.9312 325.122 39.9834 328.704 39.2391 332.33C39.1341 332.857 39.0319 333.386 38.9325 333.917C26.9728 329.324 15.4631 320.803 5.55562 311.71C9.29625 297.932 14.7056 283.458 22.5572 271.901ZM62.2097 295.892C63.6919 296.341 65.1947 296.724 66.7088 297.055C68.9419 297.545 71.1984 297.923 73.4644 298.218C76.0809 298.558 78.7116 298.785 81.3459 298.916C84.5362 299.074 87.7331 299.086 90.9244 298.935C91.3716 298.911 91.8187 298.884 92.2659 298.855C92.6812 298.825 93.0966 298.792 93.5119 298.756L93.1997 299.264C92.1581 300.978 91.1606 302.718 90.2184 304.489C87.9975 308.668 86.0644 312.998 84.4059 317.43C83.0681 321.005 81.9084 324.647 80.9213 328.334C80.6897 329.196 80.4694 330.06 80.2584 330.927L77.5106 331.45C75.5391 331.809 73.56 332.117 71.5688 332.352C67.5544 332.825 63.5072 333.028 59.4656 332.964C58.1916 332.945 56.9175 332.898 55.6453 332.824C54.4341 332.755 53.2238 332.667 52.02 332.515C49.4259 332.186 46.8591 331.613 44.3616 330.838L44.3728 330.79C45.0947 327.773 45.9741 324.795 47.1056 321.904C47.6981 320.388 48.3703 318.905 49.0631 317.432C49.7784 315.914 50.5247 314.413 51.3019 312.927C53.0841 309.523 55.0313 306.206 57.1425 302.997C58.0313 301.646 58.9528 300.318 59.895 299.004C60.3675 298.355 60.3675 298.356 60.8447 297.71L62.2097 295.892ZM99.4922 297.977C107.771 296.563 115.732 293.779 123.005 289.638C119.014 297.415 116.31 306.046 114.885 315.176L111.008 317.933C107.521 320.361 103.77 322.392 99.9206 324.182C95.2387 326.359 90.3909 328.174 85.4325 329.611L85.4484 329.551C86.7713 324.662 88.3819 319.855 90.3394 315.183C91.6237 312.117 93.0516 309.112 94.6284 306.187C95.355 304.84 96.1153 303.515 96.9019 302.203C97.7587 300.791 98.6241 299.383 99.4922 297.977ZM91.2094 270.266C99.0084 273.339 107.106 274.948 115.187 274.908C108.255 279.918 102.07 286.335 96.8166 293.758L92.7225 294.111L92.3372 294.141C90.0234 294.31 87.7022 294.367 85.3819 294.341C82.9687 294.315 80.5566 294.2 78.1528 293.997C75.6131 293.783 73.08 293.47 70.5694 293.03C68.8463 292.728 67.1287 292.372 65.4366 291.924L65.4881 291.863C66.3937 290.804 67.3144 289.759 68.2575 288.734C70.5066 286.292 72.8709 283.956 75.3478 281.747C77.6175 279.722 79.98 277.803 82.4334 276.007C83.6363 275.127 84.8625 274.282 86.1047 273.46C86.5687 273.158 87.0337 272.858 87.5006 272.562C88.7334 271.791 89.9709 271.028 91.2094 270.266ZM218.303 262.121L223.282 264.096C224.815 264.715 226.338 265.356 227.846 266.033C231.188 267.532 234.464 269.179 237.665 270.961C244.089 274.536 250.216 278.644 255.998 283.186C258.352 285.035 260.643 286.959 262.884 288.943L262.647 288.995C253.303 291.034 243.848 292.572 234.316 293.38C229.661 293.774 224.989 293.999 220.316 294.013C217.883 294.019 215.452 293.96 213.022 293.852C212.377 293.82 211.732 293.786 211.088 293.75C209.38 293.643 207.672 293.532 205.965 293.417C199.081 284.378 191.026 277.04 182.181 271.833C193.375 270.879 205.57 267.616 218.303 262.121ZM59.3813 248.016L59.5322 248.177C62.22 251.018 65.0606 253.716 68.0541 256.232C71.2181 258.892 74.5528 261.351 78.0497 263.556C79.6622 264.573 81.3103 265.529 82.9866 266.437C83.4844 266.703 83.9841 266.965 84.4866 267.223C84.9872 267.477 85.4897 267.727 85.995 267.974L85.5 268.278C83.8444 269.313 82.2169 270.39 80.6269 271.524C76.8825 274.192 73.3341 277.134 69.9938 280.296C67.3022 282.843 64.7456 285.532 62.3278 288.341C61.7625 288.997 61.2066 289.661 60.6572 290.331L58.4091 289.549C56.5294 288.877 54.6675 288.159 52.8319 287.374C49.3031 285.865 45.8691 284.137 42.5475 282.213C41.1872 281.424 39.8456 280.602 38.5238 279.749C37.3284 278.977 36.1519 278.182 35.0175 277.322C33.0384 275.822 31.1878 274.167 29.4272 272.418C29.1431 272.131 28.8609 271.844 28.5816 271.554C30.3909 269.171 32.3513 266.902 34.5019 264.822C35.6681 263.693 36.8972 262.634 38.1478 261.601C39.5325 260.457 40.9462 259.349 42.3881 258.277C45.2184 256.174 48.1538 254.213 51.1838 252.411C52.7869 251.458 54.4172 250.555 56.0663 249.686C56.7713 249.321 56.7703 249.321 57.4781 248.962L59.3813 248.016ZM277.649 222.951L282.181 223.664L282.96 223.788C286.634 224.393 290.293 225.081 293.933 225.867C302.523 227.721 311.002 230.087 319.317 232.931C322.523 234.028 325.704 235.197 328.859 236.436C330.396 237.039 331.93 237.652 333.448 238.304C334.856 238.907 336.25 239.543 337.629 240.21C341.285 241.978 344.832 243.964 348.259 246.143C349.968 247.231 351.644 248.369 353.294 249.545C353.81 249.917 354.323 250.29 354.834 250.668L354.621 250.814L354.083 251.178C347.099 255.888 339.882 260.254 332.386 264.101C330.573 265.031 328.745 265.932 326.901 266.799C324.88 267.748 322.843 268.662 320.801 269.564C317.029 271.228 313.228 272.829 309.4 274.362C302.16 277.261 294.821 279.916 287.393 282.29C283.628 283.492 279.839 284.616 276.03 285.673C274.972 285.963 273.913 286.248 272.852 286.529C271.389 286.912 269.925 287.292 268.462 287.669C268.161 287.389 267.858 287.11 267.554 286.833C263.839 283.443 259.961 280.233 255.932 277.225C249.421 272.367 242.51 268.038 235.262 264.372C232.17 262.807 229.016 261.376 225.814 260.055C225.287 259.842 224.759 259.631 224.23 259.421C226.894 258.136 229.529 256.799 232.13 255.392C238.94 251.711 245.528 247.619 251.901 243.224C259.19 238.197 266.202 232.771 272.95 227.036C274.532 225.691 276.098 224.328 277.649 222.951ZM22.5572 271.901C13.3697 261.206 5.91187 246.71 0 232.145C9.16781 220.494 20.4703 208.9 32.9841 201.659L32.8838 201.26C28.6641 184.344 27.6253 163.95 28.1859 143.803C33.72 141.102 39.5325 138.672 45.5297 136.643C55.4053 133.341 65.64 131.262 75.5681 131.438C74.4722 137.532 73.6603 143.679 73.3669 149.868C73.2937 151.4 73.2525 152.933 73.2459 154.467C73.2403 155.842 73.2666 157.216 73.2994 158.591C73.3519 160.828 73.4391 163.065 73.5619 165.3C74.0316 173.855 75.0375 182.377 76.6753 190.787C76.8497 191.665 77.0297 192.543 77.2153 193.418C74.895 193.232 72.57 193.121 70.2422 193.1C65.3662 193.056 60.4875 193.387 55.6603 194.078C54.0244 194.313 52.3941 194.589 50.7712 194.906C49.8347 195.089 48.8991 195.279 47.97 195.501C46.9425 195.746 45.9244 196.028 44.9156 196.342C42.3394 197.143 39.8306 198.156 37.3988 199.323C36.2344 199.88 35.0906 200.479 33.9581 201.099C33.4697 201.371 33.4706 201.371 32.9841 201.646C34.1738 206.271 35.6287 210.826 37.5122 215.216C38.055 216.482 38.6316 217.732 39.2466 218.964C39.7087 219.889 40.1925 220.804 40.6819 221.716C41.4384 223.123 42.2194 224.517 43.0238 225.898C45.3516 229.889 47.8837 233.762 50.6231 237.481C52.0256 239.385 53.4881 241.24 54.9928 243.063C55.3763 243.52 55.7287 243.945 56.1178 244.396C54.1294 245.385 52.1663 246.421 50.2397 247.526C46.1841 249.854 42.2822 252.45 38.5622 255.283C37.2975 256.248 36.0534 257.239 34.8309 258.257C34.1231 258.846 33.42 259.44 32.7347 260.054C31.9753 260.736 31.2356 261.439 30.5156 262.162C27.9281 264.759 25.6106 267.603 23.4759 270.582C23.1666 271.019 22.86 271.459 22.5572 271.901ZM96.48 239.278C101.965 246.773 108.338 252.881 115.425 257.287C107.138 258.27 98.8528 261.003 90.9384 265.163L87.5597 263.513L87.0862 263.279L86.6147 263.04C84.2194 261.805 81.8859 260.46 79.6247 258.992C73.92 255.286 68.6897 250.873 63.945 245.999L64.305 245.852C66.4856 244.966 68.6944 244.153 70.935 243.432C76.0641 241.781 81.3459 240.588 86.6962 239.943C87.8953 239.799 89.1009 239.716 90.3047 239.631C91.1475 239.574 91.9913 239.523 92.835 239.474L96.48 239.278ZM211.99 225.146L217.398 224.187C219.336 223.847 221.275 223.514 223.218 223.199C224.728 222.954 226.24 222.715 227.756 222.509C229.281 222.302 230.813 222.135 232.343 221.981C245.304 220.683 258.402 220.845 271.349 222.229L270.82 222.684C267.86 225.21 264.86 227.689 261.8 230.094C253.322 236.758 244.435 242.918 235.113 248.337C231.718 250.31 228.263 252.174 224.756 253.938C224.19 254.219 223.624 254.498 223.056 254.776L218.046 257.193C206.281 253.323 194.558 251.576 183.443 252.01C193.409 245.311 203.062 236.248 211.99 225.146ZM75.5681 131.438C79.7184 108.434 89.235 82.5993 100.622 57.3633C119.278 59.8033 138.958 65.7606 154.094 78.3053C171.572 52.6016 196.478 26.7138 223.537 2.34375C239.203 21.1604 252.899 44.7397 257.807 71.9555C277.198 60.7932 299.042 51.5084 322.071 43.7704C337.231 38.6772 352.872 34.2611 368.625 30.4095C366.676 65.6967 359.996 103.17 344.722 136.815C380.721 137.558 416.992 148.147 450 162.554C423.64 196.497 394.072 228.274 362.711 250.881L362.303 250.545L361.894 250.211C359.568 248.329 357.183 246.521 354.727 244.812C350.381 241.789 345.83 239.063 341.1 236.688C339.352 235.81 337.579 234.979 335.785 234.198C334.062 233.45 332.318 232.75 330.569 232.064C327.084 230.695 323.566 229.41 320.019 228.211C312.574 225.694 305.001 223.554 297.337 221.811C293.875 221.024 290.395 220.326 286.902 219.697C286.104 219.556 285.307 219.419 284.509 219.285C283.713 219.154 282.918 219.026 282.121 218.901L282.786 218.284C285.937 215.342 289.034 212.345 292.07 209.285C299.141 202.151 305.888 194.697 312.313 186.974C315.353 183.32 318.321 179.604 321.216 175.833C322.582 174.055 323.937 172.267 325.257 170.454C326.65 168.539 328.004 166.596 329.319 164.627C332.919 159.239 336.23 153.658 339.262 147.93C340.786 145.051 342.234 142.134 343.625 139.187C343.994 138.398 344.36 137.607 344.722 136.815L344.09 136.803L343.459 136.792C340.101 136.746 336.742 136.777 333.386 136.908C326.923 137.158 320.473 137.755 314.079 138.731C311.61 139.108 309.15 139.541 306.701 140.033C304.459 140.482 302.227 140.982 299.997 141.494C295.854 142.446 291.728 143.476 287.623 144.582C279.426 146.792 271.312 149.312 263.313 152.159C259.622 153.474 255.959 154.863 252.32 156.313C251.496 156.645 250.673 156.978 249.851 157.315C249.037 157.652 248.223 157.99 247.41 158.332L247.671 157.545C248.888 153.837 250.029 150.106 251.079 146.348C253.535 137.558 255.518 128.635 257.02 119.631C257.643 115.902 258.183 112.159 258.64 108.406C258.867 106.541 259.082 104.673 259.249 102.801C259.42 100.878 259.542 98.9496 259.614 97.0196C259.813 91.6812 259.63 86.3307 259.087 81.0177C258.792 78.1494 258.388 75.2943 257.895 72.4542C257.866 72.2879 257.836 72.1217 257.807 71.9555C255.236 73.4525 252.684 74.9787 250.163 76.5575C245.048 79.7611 240.05 83.1544 235.217 86.7721C232.931 88.4833 230.683 90.2443 228.479 92.0597C226.888 93.369 225.326 94.7129 223.767 96.0597C221.356 98.1419 218.97 100.254 216.611 102.397C209.878 108.514 203.365 114.877 197.121 121.497C194.373 124.41 191.681 127.376 189.038 130.386C188.305 131.227 187.575 132.07 186.848 132.916C186.131 133.755 185.419 134.597 184.71 135.441L184.554 134.808C183.817 131.852 183.009 128.915 182.111 126.005C180.055 119.34 177.56 112.81 174.614 106.488C173.417 103.919 172.146 101.385 170.798 98.8914C170.139 97.6704 169.469 96.4551 168.759 95.2643C168.106 94.1682 167.42 93.0919 166.701 92.0372C164.654 89.0337 162.347 86.2095 159.823 83.5948C158.36 82.079 156.823 80.6392 155.229 79.2614C154.853 78.9393 154.475 78.6209 154.094 78.3053C152.688 80.3884 151.305 82.4857 149.963 84.6101C146.996 89.3079 144.206 94.1203 141.657 99.0595C140.579 101.149 139.544 103.26 138.559 105.395C137.832 106.968 137.133 108.555 136.441 110.144C135.392 112.555 134.372 114.979 133.384 117.415C130.659 124.133 128.172 130.949 125.962 137.854C125.025 140.777 124.143 143.718 123.306 146.672C123.056 147.559 122.811 148.449 122.569 149.338C122.392 150 122.214 150.661 122.042 151.323C121.985 151.543 121.87 151.983 121.87 151.983L121.485 151.657C119.551 150.034 117.568 148.471 115.526 146.986C111.569 144.109 107.408 141.51 103.08 139.23C100.828 138.042 98.5303 136.942 96.1931 135.932C95.1112 135.464 94.0219 135.007 92.9166 134.595C91.8928 134.211 90.8541 133.866 89.8059 133.556C86.9362 132.708 83.9887 132.132 81.0159 131.796C79.6106 131.637 78.2016 131.539 76.7887 131.475C76.1794 131.453 76.1775 131.454 75.5681 131.438ZM93.375 234.742C91.2263 234.858 89.0747 234.98 86.9334 235.194C85.6472 235.323 84.3656 235.505 83.0887 235.706C77.0231 236.663 71.0634 238.268 65.3119 240.418C63.7209 241.011 62.1469 241.65 60.5897 242.326L59.6241 241.278C58.1803 239.579 56.7759 237.848 55.4269 236.072C52.5712 232.313 49.9425 228.38 47.5359 224.318C46.5937 222.728 45.6844 221.117 44.8097 219.49C43.9959 217.976 43.2103 216.451 42.495 214.888C40.8862 211.376 39.5662 207.725 38.49 204.016L38.5069 204.007C41.3128 202.616 44.2106 201.417 47.2237 200.551C48.825 200.091 50.4553 199.745 52.0912 199.433C53.9156 199.086 55.7503 198.793 57.5925 198.554C61.6341 198.031 65.7094 197.776 69.7837 197.793C71.7225 197.801 73.6594 197.876 75.5944 198.004C76.5047 198.07 77.4159 198.139 78.3262 198.212C78.5381 199.086 78.7584 199.957 78.9872 200.828C81.3075 209.654 84.4331 218.297 88.5984 226.423C89.8688 228.899 91.2422 231.319 92.7066 233.686C92.9278 234.038 93.1509 234.39 93.375 234.742C93.2503 234.55 93.0056 234.576 92.67 234.766L93.375 234.742ZM98.9569 234.771L96.9984 231.701C95.7047 229.641 94.4831 227.539 93.3459 225.387C90.3712 219.756 87.9338 213.849 85.9369 207.804C84.9656 204.865 84.0909 201.89 83.3269 198.891L83.6316 198.939C85.2478 199.21 86.8584 199.515 88.4588 199.872C91.8075 200.621 95.1122 201.572 98.3428 202.73C101.514 203.865 104.615 205.2 107.616 206.732C109.012 207.444 110.381 208.204 111.733 208.995C112.236 209.295 112.235 209.294 112.735 209.598L116.171 211.72C117.313 222.638 119.932 232.433 123.97 240.758C116.34 237.116 107.861 235.148 98.9569 234.771ZM186.517 200.766L191.42 196.703C193.907 194.663 196.437 192.68 199.022 190.766C205.951 185.632 213.215 180.956 220.701 176.68C224.542 174.486 228.445 172.398 232.398 170.41C234.092 169.558 235.797 168.728 237.508 167.909C238.102 167.628 238.695 167.347 239.289 167.068C235.781 176.114 231.733 184.954 227.17 193.516C223.237 200.895 218.926 208.093 213.982 214.841C213.503 215.483 213.504 215.483 213.02 216.123L209.109 221.213C196.063 224.452 184.335 229.252 174.337 235.437C179.952 225.191 184.068 213.456 186.517 200.766ZM120.581 209.214L120.349 204.932C120.254 202.98 120.195 201.026 120.184 199.071C120.149 193.026 120.519 186.982 121.196 180.976C121.958 174.214 123.112 167.498 124.574 160.853L124.633 160.913C126.144 162.43 127.615 163.986 129.033 165.592C131.688 168.602 134.165 171.771 136.444 175.076C138.699 178.35 140.762 181.758 142.612 185.278C143.583 187.128 144.488 189.011 145.346 190.916L147.442 195.661C142.77 207.583 140.024 219.002 139.316 229.575C134.613 221.687 128.216 214.813 120.581 209.214ZM152.15 195.248L154.451 191.183L154.966 190.264C157.402 185.893 159.833 181.52 162.335 177.187C165.248 172.141 168.24 167.14 171.352 162.216C174.727 156.878 178.247 151.631 181.982 146.536C182.087 146.395 182.192 146.252 182.297 146.11L182.309 146.182C183.608 153.824 184.237 161.576 184.402 169.321C184.473 172.717 184.45 176.116 184.318 179.511C184.17 183.308 183.878 187.095 183.381 190.862C183.331 191.214 183.282 191.566 183.231 191.917C182.897 194.111 182.543 196.302 182.184 198.492C172.054 207.697 163.875 217.413 157.899 227.295C157.967 216.594 156.001 205.731 152.15 195.248ZM216.247 219.621C216.928 218.735 217.6 217.845 218.257 216.941C220.652 213.649 222.885 210.239 225.009 206.767C227.413 202.838 229.676 198.824 231.824 194.749C236.517 185.844 240.679 176.648 244.248 167.234C244.618 166.257 244.981 165.276 245.337 164.293L250.026 162.325L250.827 161.992C254.636 160.42 258.473 158.918 262.343 157.501C271.645 154.096 281.113 151.146 290.692 148.623C294.445 147.635 298.216 146.712 302.002 145.853C303.674 145.473 305.347 145.101 307.027 144.758C308.809 144.393 310.597 144.06 312.39 143.758C320.617 142.373 328.957 141.631 337.298 141.495L337.158 141.774C333.463 149.123 329.34 156.252 324.721 163.059C323.662 164.62 322.579 166.163 321.469 167.687C320.173 169.469 318.841 171.224 317.5 172.971C315.046 176.168 312.538 179.324 309.978 182.437C303.263 190.602 296.185 198.469 288.743 205.976C285.963 208.78 283.128 211.529 280.25 214.232C278.878 215.513 277.504 216.79 276.128 218.065C273.7 217.754 271.267 217.484 268.828 217.259C256.017 216.08 243.08 216.074 230.286 217.476C229.232 217.592 228.178 217.713 227.127 217.856C224.94 218.152 222.761 218.512 220.583 218.874C219.138 219.118 217.69 219.366 216.247 219.621ZM82.1241 193.965L81.6909 191.926L81.585 191.417C79.92 183.3 78.8728 175.068 78.3459 166.798C78.1697 164.029 78.0506 161.255 77.985 158.48C77.9316 156.176 77.9119 153.872 77.9887 151.568C78.1331 147.237 78.5606 142.925 79.1512 138.634C79.26 137.875 79.3725 137.117 79.4897 136.359C82.8 136.681 86.0766 137.292 89.25 138.296C90.9844 138.844 92.6681 139.523 94.3369 140.244C96.1191 141.014 97.8769 141.84 99.6084 142.719C103.629 144.759 107.503 147.087 111.202 149.667C113.048 150.955 114.846 152.311 116.604 153.717C117.105 154.12 117.603 154.528 118.097 154.939C118.942 155.648 119.783 156.359 120.624 157.072C120.447 157.828 120.275 158.585 120.106 159.343C118.681 165.755 117.535 172.231 116.737 178.752C116.007 184.727 115.568 190.741 115.503 196.761C115.475 199.318 115.522 201.872 115.631 204.426C115.656 204.924 115.681 205.421 115.708 205.918C113.764 204.716 111.779 203.586 109.744 202.547C105.052 200.152 100.131 198.213 95.0766 196.732C91.3594 195.643 87.5709 194.8 83.7441 194.201C83.205 194.117 82.665 194.038 82.1241 193.965ZM187.729 193.494L187.754 193.338C188.463 188.824 188.824 184.26 189.002 179.695C189.189 174.894 189.167 170.084 188.963 165.285C188.753 160.361 188.352 155.444 187.71 150.558C187.292 147.38 186.773 144.212 186.1 141.078L188.822 137.839L189.346 137.218C191.858 134.261 194.419 131.347 197.035 128.482C203.412 121.505 210.096 114.811 217.026 108.386C220.24 105.405 223.509 102.482 226.827 99.6165C228.061 98.5514 229.295 97.4864 230.545 96.442C232.065 95.1732 233.605 93.9306 235.166 92.7144C238.986 89.739 242.922 86.9158 246.947 84.2269C249.173 82.7383 251.43 81.2976 253.703 79.8822C253.872 79.7789 254.041 79.6747 254.21 79.5714L254.264 80.0334C254.522 82.3157 254.722 84.6026 254.845 86.8961C255.052 90.7101 255.058 94.5354 254.863 98.3514C254.785 99.8663 254.676 101.379 254.534 102.89C254.378 104.542 254.187 106.191 253.987 107.838C253.607 110.957 253.169 114.071 252.672 117.174C251.254 126.038 249.362 134.826 247.005 143.487C245.927 147.453 244.743 151.388 243.474 155.297C242.868 157.145 242.256 158.99 241.642 160.836C239.937 161.595 238.24 162.372 236.552 163.167C224.259 168.958 212.37 175.654 201.208 183.419C197.626 185.911 194.131 188.521 190.713 191.234C190.205 191.642 189.698 192.051 189.192 192.462C188.693 192.871 188.194 193.283 187.696 193.695C187.749 193.65 187.758 193.582 187.729 193.494ZM125.798 155.509L126.577 152.512C127.328 149.655 128.122 146.81 128.97 143.98C131.122 136.795 133.589 129.706 136.318 122.721C137.627 119.37 138.997 116.044 140.425 112.742C141.847 109.45 143.321 106.181 144.927 102.975C147.953 96.9341 151.364 91.099 155.013 85.4159L155.234 85.631C156.221 86.6031 157.18 87.6033 158.103 88.6373C159.963 90.7252 161.677 92.9416 163.223 95.2708C164.479 97.1605 165.598 99.13 166.676 101.126C167.778 103.167 168.829 105.236 169.827 107.33C172.918 113.811 175.516 120.528 177.633 127.392C178.443 130.015 179.177 132.661 179.851 135.323C180.244 136.894 180.63 138.466 181.014 140.038C177.347 144.766 173.918 149.679 170.632 154.678C165.106 163.081 159.996 171.746 155.048 180.5C153.334 183.553 151.645 186.62 149.92 189.667C148.74 186.994 147.465 184.367 146.07 181.8C143.018 176.185 139.446 170.854 135.425 165.889C132.922 162.798 130.244 159.848 127.41 157.058C126.878 156.536 126.341 156.019 125.798 155.509Z" fill="white"/>
</svg>
