<svg width="450" height="450" viewBox="0 0 450 450" fill="none" xmlns="http://www.w3.org/2000/svg">
<path fill-rule="evenodd" clip-rule="evenodd" d="M40.4091 292.971L112.5 417.836H166.255L94.4456 294.036L108.144 270.31L193.318 417.836H337.5L364.412 371.223L221.092 371.282L135.471 222.98L166.644 168.985H111.993L40.4091 292.971ZM377.909 347.845L450 222.98L423.123 176.427L351.814 300.515H324.417L409.591 152.989L337.5 28.1245H283.677L355.387 152.213L269.765 300.515H207.416L234.742 347.845H377.909ZM225 169.171C255.158 169.171 279.644 193.657 279.644 223.815C279.644 253.974 255.158 278.46 225 278.46C194.842 278.46 170.356 253.974 170.356 223.815C170.356 193.657 194.842 169.171 225 169.171ZM242.438 98.1155L228.741 74.3883L85.6228 74.678L112.5 28.1245H256.682L328.266 152.111L300.939 199.44L269.765 145.445H98.52L26.9119 269.593L0 222.98L72.0909 98.1155H242.438Z" fill="white"/>
</svg>
