<svg width="450" height="450" viewBox="0 0 450 450" fill="none" xmlns="http://www.w3.org/2000/svg">
<path d="M334.075 63.4334L321.64 55.9718L225.364 0L32.8125 111.944V335.827L102.659 377.384L210.914 312.357L142.048 272.322V175.448L334.075 63.4334Z" fill="white"/>
<path d="M115.925 386.567L128.361 394.028L224.636 450L417.188 338.058V114.173L347.342 72.6164L239.088 137.643L307.953 177.678V274.552L115.925 386.567Z" fill="white"/>
<path d="M290.625 225C290.625 261.145 261.145 290.625 224.999 290.625C188.855 290.625 159.375 261.145 159.375 225C159.375 188.855 188.855 159.375 224.999 159.375C261.145 159.375 290.625 188.855 290.625 225Z" fill="white"/>
</svg>
