<svg width="450" height="450" viewBox="0 0 450 450" fill="none" xmlns="http://www.w3.org/2000/svg">
<path d="M217.46 335.692C217.787 330.931 215.725 326.399 212.093 323.507C193.405 320.83 176.56 312.413 163.405 300.103C158.861 299.052 154.008 300.272 150.48 303.513L149.718 304.213C134.38 318.304 100.638 349.303 85.1683 363.619C80.6027 367.813 79.6361 374.646 82.8602 379.941C88.9797 389.787 93.4742 398.667 97.4415 406.506C105.735 422.892 111.725 434.727 125.441 441.316C139.157 447.905 152.144 445.188 170.125 441.426C178.728 439.626 188.474 437.587 199.99 436.213C206.14 435.422 210.875 430.398 211.3 424.215C212.846 402.842 216.069 355.945 217.46 335.692Z" fill="white"/>
<path d="M299.556 303.414C296.023 300.179 291.169 298.965 286.627 300.022C273.487 312.35 256.652 320.788 237.97 323.49C234.341 326.386 232.285 330.922 232.618 335.681L232.624 335.767C234.046 356.065 237.323 402.856 238.895 424.197C239.328 430.38 244.07 435.397 250.221 436.179C261.738 437.538 271.486 439.564 280.09 441.353C298.078 445.092 311.069 447.793 324.776 441.185C338.484 434.577 344.458 422.735 352.73 406.338C356.687 398.494 361.169 389.608 367.276 379.754C370.494 374.455 369.518 367.623 364.946 363.434C349.396 349.082 315.405 317.937 300.136 303.946L299.556 303.414Z" fill="white"/>
<path d="M141.019 291.675C144.951 288.958 147.21 284.512 147.201 279.864C139.347 266.502 134.844 250.94 134.844 234.335C134.844 231.936 134.937 229.559 135.123 227.207C133.105 223.022 129.134 220.006 124.414 219.273L123.942 219.199C103.624 216.044 57.7074 208.914 36.6751 205.726C30.5476 204.774 24.6011 208.28 22.4711 214.101C18.5872 225.023 14.445 234.073 10.7886 242.061C3.14544 258.76 -2.37479 270.821 1.02483 285.648C4.42634 300.475 14.6514 308.928 28.8081 320.631C35.5806 326.23 43.2528 332.573 51.5083 340.713C55.9623 345.026 62.8436 345.593 67.9445 342.069C85.4682 330.055 123.631 303.688 140.572 291.983L141.019 291.675Z" fill="white"/>
<path d="M325.51 219.141C320.791 219.88 316.824 222.9 314.813 227.088C315.004 229.479 315.101 231.896 315.101 234.335C315.101 250.898 310.62 266.422 302.804 279.762C302.8 284.41 305.066 288.852 309.001 291.564L309.431 291.861C326.38 303.538 364.597 329.867 382.142 341.862C387.248 345.38 394.128 344.803 398.576 340.485C406.822 332.333 414.486 325.979 421.251 320.371C435.392 308.649 445.606 300.183 448.987 285.353C452.367 270.522 446.831 258.469 439.166 241.781C435.499 233.797 431.345 224.752 427.447 213.835C425.309 208.017 419.357 204.518 413.231 205.477C392.039 208.719 345.577 215.997 325.51 219.141Z" fill="white"/>
<path d="M127.772 204.497C132.339 205.873 137.215 204.873 140.841 201.98C147.51 184.684 159.369 169.955 174.505 159.705C176.53 155.514 176.415 150.522 174.04 146.37L173.616 145.629C163.321 127.625 140.477 87.6774 129.919 69.3682C126.842 63.9867 120.39 61.5269 114.509 63.4928C103.546 67.2694 93.8849 69.6766 85.3572 71.8015C67.5307 76.2435 54.6555 79.4518 45.1801 91.3554C35.7059 103.258 35.4715 116.519 35.1469 134.878C34.9917 143.662 34.8158 153.613 33.5973 165.141C33.003 171.31 36.8505 177.041 42.7886 178.828C63.2936 185.083 108.324 198.642 127.772 204.497Z" fill="white"/>
<path d="M275.788 146.304C273.419 150.459 273.311 155.45 275.341 159.637C290.492 169.869 302.369 184.584 309.061 201.87C312.692 204.758 317.569 205.75 322.134 204.37L323.602 203.925C343.757 197.827 387.087 184.717 407.083 178.588C413.019 176.793 416.859 171.057 416.256 164.889C415.022 153.362 414.833 143.411 414.666 134.627C414.318 116.269 414.066 103.009 404.575 91.1184C395.084 79.2276 382.205 76.0362 364.374 71.6176C355.843 69.5038 346.179 67.1091 335.21 63.3466C329.326 61.3891 322.878 63.8573 319.808 69.2426C309.127 87.8227 285.844 128.665 275.788 146.304Z" fill="white"/>
<path d="M187.815 139.731C189.581 144.158 193.398 147.349 197.919 148.385C206.459 145.698 215.548 144.249 224.972 144.249C234.397 144.249 243.485 145.698 252.026 148.385C256.547 147.349 260.364 144.158 262.13 139.731C269.654 120.874 287.075 77.2105 294.945 57.2773C297.242 51.5209 295.151 44.9427 289.951 41.5665C280.167 35.3422 272.267 29.2843 265.294 23.9369C250.718 12.7601 240.19 4.6875 224.972 4.6875C209.754 4.68813 199.226 12.7609 184.65 23.9378C177.677 29.2849 169.777 35.3424 159.994 41.5665C154.794 44.9427 152.702 51.5209 155 57.2773C162.869 77.2105 180.291 120.874 187.815 139.731Z" fill="white"/>
<path d="M295.478 234.443C295.478 195.529 263.886 163.936 224.972 163.936C186.058 163.936 154.465 195.529 154.465 234.443C154.465 273.356 186.058 304.949 224.972 304.949C263.886 304.949 295.478 273.356 295.478 234.443Z" fill="white"/>
</svg>
