<svg width="450" height="450" viewBox="0 0 450 450" fill="none" xmlns="http://www.w3.org/2000/svg">
<path fill-rule="evenodd" clip-rule="evenodd" d="M71.7179 327.782C42.3777 293.924 24.3227 250.255 23.4691 202.428C21.5149 92.9792 110.393 2.00725 221.442 0.0314473L225.705 0L228.558 0.0314473C339.602 2.00725 428.485 92.9792 426.531 202.428C425.677 250.255 407.622 293.924 378.282 327.777C383.305 330.842 387.653 335.618 390.982 342.226C394.765 349.677 394.558 358.521 390.506 365.68C383.727 377.853 376.099 393.834 369.504 407.275C364.98 416.487 360.869 424.6 356.786 430.147C352.235 436.321 347.167 440.102 342.194 441.876C329.768 447.163 317.387 449.833 305.055 449.999C304.242 450.008 303.433 449.959 302.634 449.842C284.435 447.266 274.053 439.345 269.597 428.498C255.046 422.759 240.229 419.645 225.04 419.632C225.04 419.632 224.591 419.632 224.605 419.632C209.51 419.699 194.824 422.808 180.404 428.494C175.947 439.345 165.565 447.266 147.366 449.842C146.562 449.959 145.753 450.008 144.945 449.999C132.613 449.833 120.232 447.163 107.806 441.876C102.833 440.102 97.7607 436.321 93.2143 430.147C89.1262 424.6 85.0157 416.487 80.4963 407.275C73.9014 393.834 66.2731 377.853 59.5479 365.779C55.4328 358.507 55.2398 349.663 58.991 342.275C62.3334 335.64 66.6908 330.851 71.7179 327.782ZM83.349 330.559C51.1742 296.966 31.0928 251.957 30.2078 202.307C28.3165 96.5365 114.248 8.65598 221.563 6.75186L225.755 6.72041L228.437 6.75186C335.752 8.65598 421.684 96.5365 419.792 202.307C418.907 251.957 398.821 296.966 366.647 330.564C374.194 331.72 380.605 336.599 384.971 345.264C387.734 350.703 387.59 357.159 384.612 362.419C377.783 374.681 370.092 390.779 363.448 404.323C359.135 413.108 355.254 420.873 351.354 426.168C347.707 431.119 343.731 434.242 339.741 435.613C328.101 440.59 316.511 443.126 304.965 443.279C304.503 443.283 304.04 443.256 303.582 443.189C287.081 440.855 277.966 433.736 274.938 423.409C258.662 416.607 242.076 412.925 225.022 412.911H224.573C207.646 412.987 191.199 416.666 175.058 423.409C172.03 433.736 162.919 440.855 146.418 443.189C145.96 443.256 145.497 443.283 145.035 443.279C133.484 443.126 121.894 440.59 110.254 435.613C106.269 434.242 102.293 431.119 98.6456 426.168C94.7462 420.873 90.8648 413.108 86.5475 404.318C79.9032 390.779 72.2122 374.681 65.4152 362.472C62.4097 357.163 62.266 350.707 65.0154 345.295C69.391 336.603 75.8062 331.72 83.349 330.559Z" fill="white"/>
<path fill-rule="evenodd" clip-rule="evenodd" d="M224.534 403.957C204.871 404.047 185.814 408.644 167.13 417.085C166.304 426.614 158.981 432.367 145.153 434.329C134.623 434.186 124.057 431.825 113.441 427.237C106.797 425.234 101.348 414.101 94.6179 400.391C87.9062 386.713 80.1341 370.458 73.2382 358.075C71.7108 355.373 71.6344 352.089 73.0405 349.325C77.1511 341.162 83.8943 337.905 91.7561 339.889C93.7911 340.4 95.5119 341.758 96.4777 343.617C97.6323 345.844 99.1191 348.711 99.1191 348.711C107.529 351.466 116.105 353.688 125.041 354.768L126.146 353.85C125.903 353.711 125.674 353.545 125.445 353.406C74.5951 321.462 40.3267 265.817 39.1901 202.157C37.3841 101.292 119.385 17.5379 221.718 15.7189L225.815 15.6876C226.633 15.692 227.455 15.7054 228.272 15.7189C330.61 17.5379 412.61 101.292 410.805 202.157C409.668 265.817 375.4 321.462 324.55 353.406C324.321 353.545 324.092 353.711 323.849 353.85L324.954 354.768C333.89 353.688 342.466 351.466 350.876 348.711C350.876 348.711 352.363 345.844 353.517 343.617C354.483 341.758 356.203 340.4 358.239 339.889C366.1 337.905 372.844 341.162 376.954 349.325C378.36 352.089 378.284 355.373 376.756 358.075C369.861 370.458 362.088 386.713 355.377 400.391C348.647 414.101 343.198 425.234 336.554 427.237C325.938 431.825 315.372 434.186 304.841 434.329C291.014 432.367 283.691 426.614 282.864 417.085C264.032 408.576 244.822 403.975 224.997 403.957H224.534ZM101.828 355.933C101.828 355.933 106.752 369.473 109.398 376.175C112.826 384.84 122.376 407.927 122.376 407.927C124.614 413.393 129.16 417.524 117.448 423.666C117.592 424.078 117.731 424.481 117.884 425.023C125.063 427.367 131.55 429.58 138.28 429.459C139.088 429.033 139.911 428.742 140.598 428.455L108.513 362.479C105.139 355.539 104.232 355.172 101.828 355.933ZM348.166 355.933C348.166 355.933 343.243 369.473 340.597 376.175C337.169 384.84 327.618 407.927 327.618 407.927C325.381 413.393 320.834 417.524 332.546 423.666C332.403 424.078 332.263 424.481 332.111 425.023C324.932 427.367 318.444 429.58 311.715 429.459C310.906 429.033 310.084 428.742 309.397 428.455L341.482 362.479C344.856 355.539 345.763 355.172 348.166 355.933ZM304.581 348.509C282.038 336.31 253.601 331.498 224.997 332.3L224.027 332.277C183.047 331.305 142.539 341.905 119.362 369.307C118.922 372.9 139.987 412.882 144.399 418.675C146.353 420.561 147.045 420.821 148.702 421.063C168.132 404.629 196.506 397.671 224.997 398.066L225.667 398.057C253.933 397.783 282.011 404.755 301.293 421.063C302.95 420.821 303.642 420.561 305.596 418.675C310.008 412.882 331.073 372.9 330.632 369.307C323.588 360.974 314.941 354.199 305.165 348.827C305.008 349.056 304.684 349.41 304.19 349.88C302.901 351.095 301.477 352.223 299.918 353.245C298.345 354.284 296.746 355.109 295.111 355.745L291.045 357.416C289.675 357.828 288.278 358.25 286.876 358.666C285.479 359.101 284.077 359.459 282.671 359.755C282.568 359.782 282.474 359.809 282.384 359.831L280.87 362.085C280.205 363.142 279.558 364.199 278.925 365.27L277.891 367.152C277.141 368.456 276.472 369.8 275.897 371.206C275.317 372.609 274.783 374.007 274.279 375.404L274.27 375.422C273.633 377.183 273.385 378.572 273.52 379.598C273.66 380.629 274.239 381.327 275.268 381.699C275.636 381.834 275.986 381.843 276.31 381.731C276.629 381.619 276.93 381.444 277.204 381.211C277.483 380.978 277.739 380.714 277.968 380.413C278.201 380.109 278.399 379.831 278.561 379.576C278.857 379.154 279.082 378.989 279.239 379.083C279.401 379.172 279.414 379.405 279.279 379.777C278.916 380.593 278.431 381.52 277.824 382.564C277.218 383.608 276.539 384.562 275.784 385.431C275.034 386.296 274.243 386.968 273.421 387.443C272.599 387.918 271.786 388.012 270.977 387.721C270.11 387.407 269.513 386.919 269.189 386.26C268.866 385.602 268.7 384.867 268.691 384.06C268.686 383.254 268.799 382.443 269.019 381.632C269.243 380.817 269.463 380.118 269.675 379.526L269.684 379.522C270.048 378.599 270.465 377.649 270.928 376.646C271.395 375.637 271.849 374.656 272.271 373.68C272.487 373.272 272.586 372.99 272.568 372.842C272.545 372.694 272.258 372.828 271.696 373.218C270.164 374.347 268.65 375.31 267.163 376.135C265.681 376.946 264.086 377.586 262.41 378.066C259.926 378.787 257.383 379.146 254.769 379.132C252.159 379.123 249.535 378.832 246.889 378.267C244.84 377.837 242.765 377.282 240.685 376.583C238.596 375.888 236.458 375.019 234.27 373.993C233.304 373.541 232.464 373.052 231.727 372.551C231.004 372.04 230.415 371.453 229.984 370.767C229.548 370.082 229.261 369.28 229.139 368.362C229.018 367.443 229.112 366.359 229.422 365.104C229.633 364.307 229.934 363.491 230.312 362.658C230.671 361.834 231.085 361.045 231.538 360.297C231.943 359.629 232.271 359.347 232.504 359.428C232.729 359.513 232.738 359.961 232.522 360.75C232.333 361.489 232.279 362.17 232.36 362.797C232.446 363.424 232.711 364.007 233.151 364.558C234.256 365.866 235.582 366.883 237.127 367.609C238.677 368.339 240.236 369.007 241.808 369.607C247.5 371.834 253.794 373.043 260.672 373.241C262.064 373.285 263.435 373.218 264.773 373.039C266.126 372.855 267.433 372.506 268.718 371.986C270.681 371.215 272.325 370.154 273.637 368.796C274.953 367.425 275.286 367.161 276.373 365.346C276.602 364.912 276.858 364.54 277.146 364.231L279.935 361.377C280.412 360.897 280.91 360.427 281.427 359.965C281.337 359.898 281.526 359.629 281.993 359.15C282.599 358.63 283.206 358.097 283.808 357.546C284.414 356.995 285.093 356.547 285.834 356.22C286.463 355.96 287.29 355.629 288.332 355.23C289.244 354.88 293.772 353.276 295.12 352.739C297.82 351.65 300.488 350.454 303.143 349.137L304.581 348.509ZM334.204 420.167C332.632 419.423 330.305 418.155 330.358 415.418C333.813 414.387 338.202 414.19 339.896 419.688C338.207 420.929 335.449 420.754 334.204 420.167ZM115.791 420.167C117.363 419.423 119.69 418.155 119.632 415.418C116.182 414.387 111.792 414.19 110.099 419.688C111.788 420.929 114.546 420.754 115.791 420.167ZM90.6286 344.083C82.6814 341.578 76.702 347.806 78.2968 354.137L108.135 415.552C111.109 411.905 114.047 411.533 116.959 411.359L90.6286 344.083ZM359.366 344.083C367.313 341.578 373.293 347.806 371.698 354.137L341.859 415.552C338.885 411.905 335.947 411.533 333.036 411.359L359.366 344.083ZM277.68 399.468C277.851 399.002 278.588 398.182 279.89 397.004C281.193 395.825 281.97 395.283 282.217 395.373C283.026 395.664 283.668 396.323 284.14 397.349C284.607 398.379 284.711 399.262 284.441 400.006C284.194 400.687 283.534 401.421 282.46 402.21C281.382 402.994 280.645 403.317 280.241 403.173C280.052 403.106 279.553 402.501 278.731 401.368C278.448 400.987 278.165 400.606 277.882 400.221C277.671 399.938 277.604 399.683 277.68 399.468ZM163.599 400.234C163.577 400.068 163.891 399.163 164.547 397.506C165.203 395.852 165.63 395.01 165.827 394.979C166.38 394.889 167.085 395.127 167.948 395.691C168.81 396.291 169.291 396.896 169.39 397.515C169.507 398.231 169.273 399.204 168.698 400.427C168.119 401.619 167.665 402.241 167.341 402.295C167.175 402.317 166.91 402.219 166.542 401.995C166.169 401.771 165.8 401.533 165.428 401.296C164.996 401.13 164.596 400.969 164.219 400.812C163.842 400.651 163.635 400.458 163.599 400.234ZM159.057 394.697C159.017 394.437 159.354 393.415 160.077 391.632C160.796 389.853 161.254 388.944 161.447 388.912C161.874 388.85 162.539 389.042 163.451 389.499C164.327 389.961 164.951 390.431 165.329 390.906C165.67 390.118 166.03 389.325 166.407 388.532C166.933 387.412 167.26 386.847 167.391 386.825C167.979 386.731 168.752 386.977 169.713 387.559C170.688 388.205 171.227 388.868 171.335 389.553C171.461 390.333 171.173 391.363 170.472 392.64C169.79 393.818 169.269 394.432 168.909 394.491C168.649 394.531 168.199 394.351 167.57 393.953C166.672 393.361 165.935 392.94 165.365 392.698C164.457 395.212 163.63 396.524 162.88 396.645C162.75 396.663 162.085 396.368 160.881 395.758C159.682 395.149 159.071 394.795 159.057 394.697ZM294.347 364.84C294.388 364.804 294.428 364.764 294.468 364.728C294.63 364.576 294.76 364.481 294.859 364.446C294.958 364.414 295.003 364.464 294.99 364.598C294.976 364.737 294.841 365.001 294.594 365.4C293.076 367.94 291.656 370.552 290.331 373.245C286.773 380.472 289.361 375.172 287.528 379.697C286.885 381.462 286.638 382.864 286.773 383.895C286.912 384.921 287.492 385.624 288.52 385.991C288.889 386.126 289.239 386.135 289.558 386.023C289.882 385.911 290.183 385.741 290.457 385.508C290.735 385.275 290.991 385.006 291.225 384.705C291.454 384.401 291.652 384.123 291.813 383.868C292.105 383.447 292.334 383.281 292.492 383.375C292.653 383.469 292.667 383.697 292.532 384.074C292.168 384.885 291.683 385.817 291.077 386.856C290.47 387.9 289.792 388.859 289.037 389.723C288.282 390.588 287.496 391.26 286.674 391.74C285.852 392.21 285.039 392.304 284.23 392.013C283.359 391.699 282.766 391.215 282.442 390.557C282.119 389.894 281.952 389.163 281.948 388.352C281.939 387.546 282.047 386.735 282.272 385.924C282.496 385.113 282.712 384.41 282.927 383.823L283.004 383.751C283.543 382.277 284.387 380.413 285.528 378.164C288.107 373.079 284.275 380.409 289.32 370.808C289.756 369.983 290.286 369.195 290.915 368.438C291.279 368.012 291.724 367.51 292.24 366.946L294.347 364.84ZM186.645 369.065C189.431 368.693 192.131 368.218 194.75 367.636C197.369 367.058 199.948 366.233 202.486 365.163C204.741 364.204 206.915 363.084 209.004 361.807C211.089 360.525 213.092 359.168 215.002 357.73C217.693 355.705 220.208 353.581 222.549 351.359C224.885 349.137 227.284 346.901 229.732 344.647C230.46 343.962 231.192 343.312 231.934 342.698C232.67 342.08 233.466 341.502 234.319 340.969C235.11 340.476 235.671 340.328 236.004 340.526C236.336 340.723 236.35 341.216 236.04 342C235.833 342.595 235.613 343.214 235.379 343.854C235.146 344.491 234.872 345.082 234.557 345.633C234.404 345.924 234.234 346.162 234.045 346.341C233.856 346.52 233.609 346.699 233.304 346.883C232.868 347.116 232.261 347.6 231.471 348.321C230.685 349.047 229.683 349.992 228.461 351.148C227.037 352.51 225.617 353.895 224.202 355.301C222.787 356.708 221.345 358.097 219.871 359.464C218.398 360.83 216.902 362.161 215.388 363.447C213.87 364.741 212.297 365.947 210.666 367.071C203.833 371.856 196.205 374.912 187.786 376.242L182.238 376.995C180.693 377.188 179.386 377.255 178.303 377.192C177.117 377.111 175.944 376.982 174.776 376.798C173.613 376.614 172.476 376.327 171.38 375.933C170.953 375.767 170.612 375.638 170.365 375.543C170.113 375.449 169.889 375.4 169.686 375.4C169.489 375.4 169.3 375.481 169.125 375.637C168.95 375.799 168.725 376.072 168.451 376.444C168.204 376.784 167.948 377.174 167.683 377.618C167.418 378.061 167.103 378.594 166.735 379.217C166.034 380.297 165.153 381.112 164.084 381.663C163.02 382.215 161.834 382.394 160.531 382.201C159.812 382.08 159.156 381.95 158.563 381.811C157.974 381.672 157.305 381.695 156.568 381.879C155.89 382.049 155.243 382.286 154.623 382.582C153.999 382.882 153.401 383.312 152.817 383.872C151.941 384.674 151.366 385.042 151.088 384.97C150.809 384.898 150.953 384.334 151.519 383.276C152.161 382.04 152.912 380.839 153.779 379.665C154.65 378.496 155.63 377.439 156.717 376.502C157.274 376.009 157.88 375.557 158.532 375.136C159.183 374.719 159.888 374.481 160.652 374.428C161.281 374.396 161.91 374.459 162.539 374.629C163.168 374.795 163.806 374.912 164.453 374.974C165.167 375.064 165.801 374.983 166.344 374.728C166.888 374.477 167.373 374.101 167.795 373.599C168.285 373.088 168.716 372.551 169.098 371.991C169.475 371.43 169.853 370.87 170.234 370.31C170.783 369.558 171.304 369.051 171.798 368.787C172.292 368.527 173.038 368.5 174.044 368.707C176.317 369.114 178.438 369.356 180.405 369.428C182.373 369.499 184.458 369.378 186.645 369.065ZM282.927 364.598C283.085 364.163 283.817 363.357 285.12 362.179C286.422 361.005 287.2 360.458 287.451 360.548C288.26 360.839 288.898 361.498 289.369 362.528C289.841 363.554 289.94 364.437 289.67 365.18C289.423 365.866 288.768 366.592 287.698 367.362C286.629 368.133 285.892 368.447 285.488 368.299C285.299 368.236 284.796 367.631 283.979 366.498C283.682 366.148 283.394 365.781 283.111 365.396C282.909 365.082 282.851 364.813 282.927 364.598ZM305.066 342.958C308.871 344.576 319.118 350.7 318.13 350.4C318.651 350.073 320.048 349.181 320.583 348.85C370.188 318.017 403.684 263.953 404.785 202.049C406.537 104.451 327.191 23.416 228.165 21.6553L224.997 21.6284C223.942 21.6284 222.886 21.6374 221.83 21.6553C122.803 23.416 43.4579 104.451 45.2054 202.049C46.3106 263.953 79.8063 318.017 129.412 348.85C129.946 349.181 131.101 349.921 131.626 350.248C131.519 349.912 141.528 344.15 143.433 343.68C142.017 343.384 140.625 342.981 139.268 342.466C134.479 340.651 130.274 337.51 126.788 333.796C126.02 332.976 125.279 332.125 124.578 331.242C123.863 330.346 123.185 329.423 122.561 328.465L121.842 327.291C120.216 326.784 118.639 326.148 117.125 325.36C113.037 323.232 109.551 320.073 106.711 316.471C106.244 315.875 105.79 315.266 105.355 314.643C104.631 313.612 103.953 312.546 103.324 311.453C102.825 310.584 102.358 309.697 101.941 308.783L101.208 307.103C101.514 307.04 101.81 306.982 102.115 306.919C99.5952 305.754 97.2235 304.284 95.121 302.474C91.6259 299.468 88.9619 295.597 87.0256 291.44C86.7067 290.754 86.4054 290.055 86.1224 289.352C85.6552 288.182 85.2419 286.991 84.8825 285.781C84.595 284.822 84.3434 283.85 84.1457 282.869L83.8225 281.063L85.9472 281.135C82.5869 278.993 79.5457 276.323 77.2097 273.088C74.5142 269.356 72.8203 264.975 71.9083 260.481C71.7601 259.742 71.6299 258.993 71.5176 258.245C71.3379 256.995 71.2122 255.741 71.1403 254.482C71.0864 253.483 71.0683 252.479 71.1088 251.476L71.2122 249.648C71.7647 249.8 72.3218 249.948 72.8743 250.1C73.7863 250.355 74.6847 250.669 75.5697 251.01C76.3514 251.31 77.1287 251.637 77.8924 251.986C77.5959 251.794 77.3039 251.596 77.0164 251.395C76.3919 250.965 75.7808 250.517 75.1833 250.051C71.5624 247.228 68.3864 243.765 66.239 239.688C64.0962 235.615 63.0359 231.041 62.7663 226.462C62.7214 225.709 62.699 224.952 62.6945 224.195C62.69 222.932 62.7438 221.673 62.8516 220.418C62.9415 219.419 63.0629 218.425 63.2426 217.434L63.6065 215.638C64.1321 215.866 64.6622 216.09 65.1878 216.319C66.0548 216.7 66.8994 217.139 67.726 217.6C68.7593 218.174 70.6056 219.325 70.5382 219.258C69.9901 218.734 69.4557 218.191 68.9391 217.636C65.8123 214.28 63.2292 210.355 61.7557 205.992C60.2866 201.632 59.972 196.946 60.4302 192.39C60.5066 191.637 60.6054 190.884 60.7222 190.136C60.9199 188.891 61.1715 187.654 61.4815 186.431C61.7241 185.459 62.0028 184.495 62.3397 183.55L62.9819 181.834C63.467 182.139 63.9524 182.448 64.4376 182.753C65.2327 183.268 65.9963 183.832 66.7375 184.419C67.7528 185.217 68.7279 186.068 69.6668 186.955C70.0486 187.327 70.4305 187.699 70.8033 188.084L70.8527 187.968C70.1339 187.036 69.4511 186.072 68.8132 185.082C68.4044 184.446 68.009 183.796 67.6361 183.138C65.3719 179.15 63.7636 174.737 63.3413 170.154C62.9235 165.571 63.7009 160.943 65.2059 156.615C65.453 155.898 65.7223 155.19 66.0098 154.487C66.486 153.322 67.0206 152.175 67.6002 151.059C68.0674 150.168 68.5616 149.294 69.1052 148.452L70.125 146.928C70.5293 147.34 70.9291 147.748 71.329 148.16C71.9849 148.841 72.5959 149.567 73.1845 150.311C73.2608 150.405 73.337 150.504 73.4134 150.602C72.3307 147 71.7917 143.232 72.0523 139.478C72.3713 134.885 73.8762 130.441 76.055 126.404C76.4144 125.737 76.7917 125.078 77.1916 124.433C77.8475 123.358 78.5572 122.314 79.3119 121.301C79.9094 120.499 80.5385 119.711 81.2124 118.967L82.4657 117.627C82.7937 118.093 83.126 118.564 83.4539 119.034C83.993 119.814 84.4827 120.625 84.9409 121.449L84.959 121.48C84.7838 117.986 85.1072 114.464 86.109 111.104C87.4208 106.695 89.8649 102.681 92.8748 99.2134C93.369 98.6444 93.8855 98.0842 94.4111 97.5377C95.2916 96.6326 96.208 95.768 97.1649 94.9437C97.9286 94.2895 98.7149 93.6578 99.5326 93.0798L101.046 92.0404L101.922 94.1865C102.381 91.4714 103.167 88.8191 104.348 86.3281C106.32 82.1659 109.353 78.5772 112.852 75.6067C113.432 75.1184 114.025 74.6436 114.631 74.1866C115.638 73.4249 116.68 72.7081 117.749 72.0405C118.603 71.5073 119.474 71.0056 120.373 70.5575L122.031 69.7645C122.165 70.3201 122.305 70.8755 122.44 71.4311C122.655 72.354 122.812 73.2905 122.943 74.2224C123.113 75.4993 123.23 76.7895 123.284 78.0754C123.306 78.6085 123.32 79.1416 123.32 79.6748L123.571 79.5718C124.29 77.7752 125.225 76.0683 126.411 74.5315C126.752 74.0835 127.12 73.6489 127.502 73.2367C129.708 70.8577 132.498 69.07 135.472 67.7976C136.932 67.1748 138.446 66.6597 139.991 66.3103L141.883 65.9248C141.874 66.5252 141.86 67.1256 141.847 67.7259C141.824 68.4069 141.761 69.088 141.676 69.7645C141.573 70.6113 141.424 71.4535 141.245 72.2869C140.463 75.8263 139.003 79.2761 136.662 82.0763C135.112 83.9311 133.208 85.4589 131.123 86.6821L131.092 86.7895C131.586 86.7402 132.076 86.7 132.57 86.6641C133.329 86.6149 134.093 86.5879 134.857 86.579C135.171 86.5745 135.171 86.5745 135.481 86.5745C136.586 86.5834 137.687 86.6238 138.787 86.7403L140.611 86.9598C140.414 87.5377 140.221 88.1156 140.014 88.6936C139.672 89.6344 139.273 90.5574 138.846 91.4625C138.334 92.5422 137.772 93.6041 137.17 94.6345C136.793 95.2842 136.397 95.9249 135.98 96.5521C133.414 100.437 130.153 103.927 126.177 106.409C124.717 107.318 123.172 108.084 121.572 108.72C121.424 109.37 121.254 110.015 121.069 110.656C120.71 111.892 120.292 113.116 119.82 114.316C119.546 115.015 119.25 115.71 118.94 116.391C116.923 120.79 114.092 124.881 110.337 127.981C109.016 129.074 107.592 130.038 106.105 130.875C106.096 131.068 106.083 131.256 106.074 131.444C105.993 132.73 105.853 134.016 105.656 135.289C105.539 136.032 105.404 136.771 105.247 137.502C104.241 142.237 102.372 146.843 99.3842 150.687C98.1982 152.21 96.855 153.604 95.3949 154.863C95.4983 155.512 95.5791 156.162 95.642 156.816C95.7723 158.098 95.8396 159.388 95.8441 160.678C95.8486 161.426 95.8353 162.179 95.7994 162.927C95.5613 167.762 94.4515 172.605 92.1199 176.87C91.1316 178.684 89.9366 180.374 88.5888 181.942L89.0561 182.936C89.4514 183.796 89.7884 184.684 90.0939 185.58C90.5162 186.798 90.88 188.035 91.1855 189.289C91.3652 190.02 91.5225 190.754 91.6617 191.489C92.5512 196.247 92.5917 201.216 91.3113 205.907C90.7543 207.95 89.9545 209.921 88.9752 211.794L89.5279 212.609C90.0536 213.398 90.5251 214.218 90.9743 215.051C91.5808 216.189 92.138 217.354 92.6412 218.545C92.9332 219.235 93.2073 219.934 93.4588 220.642C95.0941 225.199 95.925 230.096 95.4084 234.93C94.9367 239.321 93.3868 243.545 91.2304 247.381L89.9949 249.437C90.1791 249.612 90.3589 249.786 90.5386 249.966C90.6599 249.688 90.7767 249.415 90.9025 249.146C91.4236 247.999 91.9942 246.874 92.6187 245.777C93.1129 244.903 93.6428 244.047 94.2178 243.227L95.2916 241.74C95.6779 242.165 96.0642 242.591 96.4506 243.017C97.0795 243.72 97.6636 244.468 98.2252 245.23C98.9889 246.27 99.7032 247.349 100.368 248.456C100.754 249.097 101.127 249.751 101.478 250.418C103.737 254.697 105.251 259.428 105.418 264.289C105.463 265.553 105.418 266.811 105.292 268.066L105.404 267.797C105.876 268.12 106.352 268.442 106.824 268.765C107.601 269.307 108.347 269.898 109.07 270.512C110.054 271.346 111.002 272.228 111.905 273.151C112.43 273.684 112.942 274.235 113.437 274.804C116.635 278.442 119.209 282.694 120.503 287.38C120.746 288.25 120.939 289.123 121.096 290.006C121.864 290.324 122.615 290.682 123.356 291.063C124.51 291.65 125.634 292.291 126.725 292.981C127.359 293.384 127.983 293.805 128.599 294.24C132.471 297 135.899 300.467 138.235 304.63C138.716 305.494 139.151 306.377 139.542 307.286C140.113 307.452 140.679 307.636 141.24 307.833C142.462 308.254 143.666 308.738 144.843 309.276C145.526 309.585 146.204 309.916 146.869 310.266C151.169 312.51 155.108 315.552 158.01 319.459C160.688 323.066 162.436 327.295 163.451 331.646C163.622 332.38 163.77 333.115 163.9 333.854C163.959 334.172 164.008 334.491 164.057 334.809L164.152 334.777C180.666 328.85 197.045 326.247 221.471 326.211C222.643 326.166 223.82 326.135 224.997 326.121L228.524 326.211C255.905 326.251 273.174 329.517 291.849 337.071C291.625 336.319 291.436 335.557 291.279 334.786C290.565 331.332 290.479 327.694 291.413 324.275C292.348 320.853 294.275 317.761 296.652 315.149C297.712 313.98 298.871 312.887 300.129 311.928L301.688 310.794C301.926 311.346 302.169 311.897 302.407 312.443C302.667 313.075 302.896 313.716 303.103 314.365C303.359 315.181 303.574 316 303.759 316.834C304.055 318.196 304.253 319.589 304.329 320.991C304.77 320.741 305.214 320.508 305.668 320.288C305.012 316.928 304.958 313.402 305.87 310.082C306.805 306.664 308.727 303.568 311.104 300.956C312.169 299.786 313.328 298.693 314.586 297.734L316.144 296.601C316.382 297.152 316.621 297.703 316.859 298.254C317.124 298.881 317.353 299.526 317.555 300.176C317.811 300.987 318.031 301.812 318.211 302.645C318.508 304.007 318.705 305.4 318.781 306.798C318.849 306.758 318.921 306.722 318.988 306.681C318.391 303.429 318.373 300.033 319.249 296.829C320.188 293.406 322.11 290.315 324.487 287.703C325.552 286.534 326.706 285.441 327.964 284.482L329.523 283.348L330.493 285.633C330.552 284.979 330.641 284.325 330.772 283.68C331.455 280.199 333.148 276.977 335.327 274.195C336.302 272.954 337.38 271.78 338.562 270.732L340.035 269.491L341.086 271.525C341.073 271.059 341.077 270.588 341.1 270.118C341.271 266.579 342.479 263.142 344.231 260.078C345.013 258.707 345.907 257.389 346.927 256.184L348.202 254.742C348.557 255.226 348.908 255.714 349.263 256.198C349.658 256.753 350.018 257.331 350.359 257.923C350.786 258.657 351.176 259.419 351.536 260.19C352.12 261.458 352.619 262.775 352.996 264.123C353.247 263.895 353.508 263.675 353.769 263.456C352.008 260.768 350.696 257.739 350.237 254.544C349.734 251.032 350.264 247.434 351.406 244.096C351.913 242.6 352.542 241.14 353.315 239.76L354.294 238.102C354.73 238.514 355.17 238.922 355.606 239.334C356.1 239.804 356.567 240.306 357.012 240.821C357.569 241.462 358.099 242.134 358.598 242.824C359.411 243.958 360.148 245.158 360.777 246.413L361.118 245.974C358.98 243.496 357.264 240.615 356.392 237.448C355.453 234.029 355.53 230.391 356.239 226.937C356.558 225.391 356.999 223.864 357.592 222.399L358.351 220.633C358.841 220.983 359.326 221.337 359.811 221.691C360.359 222.094 360.885 222.533 361.392 222.99C362.03 223.559 362.637 224.155 363.216 224.782C363.436 225.015 363.805 225.432 363.832 225.463C363.832 225.468 363.836 225.468 363.832 225.463C362.794 224.182 361.904 222.788 361.208 221.292C359.721 218.071 359.2 214.468 359.335 210.942C359.393 209.365 359.573 207.788 359.923 206.247L360.381 204.379C360.92 204.648 361.46 204.916 361.999 205.185C362.547 205.468 363.086 205.777 363.611 206.108C363.297 205.718 363 205.32 362.722 204.903C360.736 201.964 359.645 198.492 359.209 194.993C359.016 193.425 358.944 191.839 359.038 190.262L359.191 188.344C359.766 188.523 360.341 188.702 360.916 188.882C361.567 189.092 362.201 189.339 362.83 189.607C363.612 189.943 364.38 190.32 365.13 190.727C366.361 191.391 367.547 192.152 368.661 193.008C368.701 192.811 368.746 192.609 368.791 192.412C366.424 191.131 364.254 189.473 362.524 187.412C360.242 184.693 358.796 181.35 358.001 177.914C357.646 176.377 357.407 174.805 357.336 173.228L357.295 171.306C357.884 171.422 358.472 171.543 359.061 171.659C359.6 171.776 360.134 171.915 360.66 172.072C360.525 171.951 360.391 171.83 360.256 171.704C357.673 169.271 355.844 166.122 354.649 162.802C354.114 161.314 353.697 159.782 353.441 158.223L353.171 156.319C353.769 156.368 354.371 156.418 354.968 156.467C355.647 156.53 356.325 156.633 356.994 156.758C357.138 156.785 357.282 156.812 357.421 156.839C357.192 156.691 356.967 156.534 356.743 156.373C353.867 154.289 351.648 151.395 350.04 148.254C349.321 146.848 348.71 145.383 348.256 143.868L347.744 142.013C348.387 141.986 349.029 141.951 349.672 141.928L351.19 141.942C350.979 141.857 350.768 141.767 350.561 141.673C347.326 140.194 344.582 137.797 342.38 135.033C341.397 133.797 340.507 132.479 339.761 131.086L338.894 129.37C339.519 129.213 340.138 129.052 340.763 128.904C341.473 128.743 342.753 128.47 342.753 128.47C342.281 128.304 341.814 128.12 341.356 127.914C338.342 126.574 335.713 124.455 333.544 121.996C332.497 120.813 331.54 119.54 330.722 118.187L329.77 116.516C330.386 116.328 330.997 116.135 331.616 115.956C331.868 115.884 332.119 115.817 332.375 115.759C329.258 114.375 326.567 112.148 324.366 109.572C323.341 108.371 322.402 107.085 321.612 105.714L320.686 104.03L322.065 103.631C318.871 102.17 316.144 99.8136 313.952 97.0941C312.959 95.8665 312.061 94.5539 311.306 93.165L310.43 91.4536C310.556 91.4177 310.507 91.4311 310.605 91.4042C308.206 90.1676 306.059 88.4517 304.212 86.4983C303.125 85.3469 302.123 84.1103 301.265 82.7841L300.255 81.1443C300.861 80.9382 301.468 80.7232 302.079 80.5261C303.031 80.2259 304.001 79.9885 304.981 79.8048C306.472 79.5226 307.986 79.3613 309.5 79.3255H310.655C310.125 78.1875 309.684 77.0047 309.325 75.8084C308.871 74.2941 308.53 72.7439 308.359 71.1713L308.188 69.2582C308.786 69.3389 309.379 69.4196 309.976 69.4957C310.65 69.5988 311.324 69.7331 311.984 69.8944C312.815 70.096 313.638 70.338 314.446 70.6113C316.082 71.1713 317.681 71.8792 319.177 72.7574C319.222 71.0683 319.446 69.3837 319.819 67.7395C320.165 66.1983 320.637 64.6793 321.257 63.2277L322.056 61.476C322.537 61.8389 323.013 62.2017 323.494 62.5646C324.033 62.9813 324.55 63.4294 325.048 63.8909C325.673 64.4733 326.27 65.0826 326.836 65.7188C329.334 68.51 331.325 71.8388 332.178 75.5037C332.227 75.7232 332.38 76.0279 332.38 76.0279L332.834 75.1229L333.71 73.5459C334.159 73.9446 334.608 74.3433 335.058 74.7421C335.561 75.1991 336.041 75.6874 336.504 76.1892C337.079 76.8164 337.627 77.475 338.144 78.1515C340.21 80.8621 341.823 83.9849 342.519 87.3317L343.468 85.4902C343.926 85.8755 344.388 86.2608 344.846 86.6461C345.368 87.0941 345.858 87.5647 346.334 88.053C346.927 88.6668 347.493 89.3074 348.027 89.9705C349.86 92.2465 351.37 94.8316 352.259 97.6183L353.629 98.7295C354.155 99.1641 354.654 99.63 355.139 100.109C355.741 100.71 356.316 101.342 356.864 101.996C359.263 104.872 361.136 108.264 361.864 111.955C361.886 112.058 361.904 112.161 361.922 112.264L362.291 111.615C362.735 112.014 363.185 112.412 363.63 112.815C364.133 113.277 364.609 113.765 365.067 114.272C365.638 114.903 366.181 115.562 366.693 116.243C368.944 119.236 370.642 122.721 371.181 126.445C371.518 128.779 371.402 131.158 370.961 133.47L370.966 133.456C371.563 132.488 372.224 131.556 372.942 130.678L374.2 129.222C374.559 129.702 374.919 130.185 375.278 130.665C375.678 131.216 376.047 131.789 376.397 132.376C376.833 133.107 377.233 133.859 377.601 134.63C379.209 138.008 380.189 141.754 379.977 145.512C379.923 146.444 379.802 147.363 379.618 148.272L381.042 146.991C381.339 147.515 381.635 148.035 381.927 148.559C382.255 149.159 382.547 149.773 382.817 150.4C383.154 151.18 383.459 151.977 383.724 152.788C384.892 156.341 385.382 160.181 384.69 163.882C384.497 164.908 384.223 165.916 383.868 166.897L384.6 166.337L386.074 165.302C386.307 165.853 386.537 166.409 386.766 166.96C387.022 167.596 387.242 168.241 387.435 168.891C387.678 169.711 387.884 170.535 388.055 171.368C388.796 175.037 388.828 178.909 387.709 182.502C387.219 184.07 386.523 185.566 385.674 186.969L386.869 186.225L388.441 185.342C388.617 185.92 388.787 186.494 388.958 187.067C389.147 187.721 389.299 188.389 389.425 189.056C389.582 189.894 389.699 190.736 389.78 191.583C390.135 195.306 389.767 199.164 388.28 202.623C387.368 204.742 386.069 206.668 384.524 208.384L384.582 208.353C385.656 207.739 386.775 207.197 387.925 206.744L389.735 206.081C389.816 206.677 389.892 207.273 389.969 207.864C390.049 208.541 390.09 209.222 390.108 209.903C390.13 210.754 390.112 211.606 390.058 212.457C389.811 216.189 388.828 219.934 386.802 223.111C385.521 225.123 383.864 226.865 381.995 228.348C383.023 227.985 384.07 227.681 385.135 227.457L387.031 227.098C387.008 227.699 386.99 228.299 386.968 228.895C386.936 229.576 386.864 230.257 386.77 230.929C386.653 231.771 386.496 232.609 386.303 233.438C385.445 237.08 383.863 240.62 381.343 243.42C379.057 245.969 376.092 247.846 372.938 249.141C372.174 249.455 371.402 249.742 370.611 249.984C370.611 250.27 370.602 250.557 370.593 250.844C372.107 250.087 373.706 249.5 375.337 249.056C376.864 248.644 378.432 248.344 380.009 248.214L381.936 248.093C381.837 248.684 381.743 249.276 381.644 249.872C381.527 250.539 381.375 251.207 381.195 251.861C380.97 252.685 380.71 253.496 380.413 254.294C379.111 257.797 377.093 261.108 374.245 263.577C371.657 265.821 368.477 267.318 365.184 268.209C364.169 268.487 363.131 268.711 362.089 268.868C362.003 269.356 361.904 269.84 361.792 270.324C363.418 269.872 365.103 269.594 366.788 269.468C367.372 269.423 367.96 269.401 368.549 269.392C368.769 269.388 368.989 269.388 369.209 269.388L371.657 269.536L373.45 269.764C373.23 270.369 373.014 270.974 372.785 271.574C372.205 273.044 371.473 274.455 370.642 275.794C368.773 278.792 366.325 281.489 363.283 283.33C360.242 285.172 356.711 286.09 353.185 286.359C352.587 286.404 351.981 286.431 351.379 286.44C351.325 286.588 351.266 286.731 351.208 286.879C352.115 286.762 353.041 286.704 353.957 286.686L355.727 286.717C356.715 286.767 357.704 286.87 358.683 287.026L361.091 287.524L362.825 288.012C362.52 288.577 362.219 289.141 361.904 289.701C361.123 291.072 360.188 292.363 359.169 293.572C356.886 296.265 354.07 298.581 350.795 299.961C348.274 301.018 345.552 301.502 342.82 301.556C343.881 301.646 344.932 301.794 345.974 302C347.025 302.21 348.072 302.474 349.092 302.819L350.907 303.474C350.561 304.011 350.219 304.558 349.865 305.091C348.98 306.404 347.96 307.622 346.855 308.751C344.384 311.274 341.405 313.38 338.036 314.518C336.58 315.01 335.076 315.315 333.553 315.463C333.503 315.449 334.954 315.817 335.709 316.072L337.524 316.726C337.178 317.268 336.836 317.81 336.482 318.348C335.597 319.656 334.577 320.875 333.472 322.004C330.996 324.526 328.022 326.632 324.653 327.77C321.284 328.908 317.636 329.047 314.136 328.545C313.399 328.438 312.663 328.308 311.935 328.142C311.818 328.415 311.692 328.68 311.567 328.944L313.058 328.913C314.765 328.931 316.463 329.114 318.139 329.446C319.19 329.656 320.237 329.921 321.257 330.261L323.072 330.915C322.721 331.457 322.384 332 322.029 332.537C321.144 333.85 320.125 335.069 319.015 336.198C316.544 338.72 313.566 340.821 310.201 341.964C308.539 342.524 306.814 342.842 305.066 342.958ZM150.252 340.467C146.91 339.468 143.707 337.994 140.881 335.942C137.615 333.572 134.928 330.494 132.781 327.094C130.427 327.259 128.086 327.645 125.804 328.232L125.723 328.25C126.775 329.697 127.934 331.063 129.174 332.345C129.632 332.824 130.108 333.285 130.589 333.738C133.639 336.578 137.206 338.931 141.177 340.257C143.347 340.978 145.607 341.395 147.88 341.56C147.7 341.646 149.286 340.906 150.252 340.467ZM298.754 339.818C299.356 339.939 299.958 340.033 300.565 340.109C303.646 340.49 306.85 340.315 309.774 339.222C312.236 338.303 314.437 336.793 316.342 335.001C316.76 334.607 317.164 334.199 317.555 333.778L318.764 332.376C318.238 332.241 317.703 332.13 317.169 332.031C315.808 331.785 314.424 331.65 313.036 331.632C312.941 331.632 312.843 331.632 312.748 331.632C311.782 331.641 310.816 331.708 309.864 331.852C309.352 332.586 308.786 333.29 308.17 333.949C305.83 336.444 302.824 338.259 299.644 339.491L298.754 339.818ZM159.569 336.502C158.482 334.11 157.166 331.82 155.589 329.715C154.026 327.618 152.206 325.709 150.117 324.128C147.701 322.3 144.951 320.951 142.08 320.001C140.602 319.513 139.088 319.128 137.561 318.836C135.575 318.46 133.558 318.241 131.537 318.169H131.46C131.469 318.191 131.474 318.218 131.483 318.245C132.152 320.078 132.952 321.861 133.882 323.577C134.618 324.934 135.441 326.247 136.348 327.497C138.118 329.934 140.23 332.138 142.691 333.886C144.956 335.494 147.489 336.699 150.126 337.573C151.496 338.026 152.894 338.388 154.309 338.671L155.989 337.958C154.273 336.798 152.593 335.584 150.921 334.361C149.035 332.945 147.161 331.507 145.346 329.992C143.523 328.482 141.734 326.928 140.036 325.234L140.045 325.225C142.238 326.198 144.331 327.313 146.393 328.474C148.46 329.629 150.477 330.862 152.476 332.112C154.457 333.388 156.429 334.679 158.347 336.045C158.631 336.247 158.914 336.449 159.197 336.65L159.569 336.502ZM298.821 336.887C298.92 336.847 299.019 336.807 299.123 336.767C301.993 335.593 304.698 333.872 306.71 331.489C308.4 329.486 309.577 327.089 310.349 324.603C310.52 324.051 310.673 323.496 310.807 322.94L311.167 321.121L309.397 321.682C308.853 321.874 308.319 322.085 307.789 322.313C305.246 323.42 302.856 324.961 300.991 327.031C299.132 329.101 297.86 331.641 297.033 334.28C297.006 334.379 296.975 334.477 296.944 334.576C297.712 333.675 298.511 332.806 299.325 331.941C300.416 330.817 301.526 329.71 302.707 328.662C303.884 327.604 305.107 326.592 306.454 325.682L306.463 325.691C305.78 327.165 304.972 328.527 304.118 329.854C303.265 331.184 302.348 332.457 301.409 333.711C300.569 334.791 299.72 335.862 298.821 336.887ZM301.629 322.761C301.661 321.381 301.548 319.997 301.324 318.644C301.229 318.075 301.117 317.51 300.982 316.955L300.493 315.167L299.158 316.457C298.763 316.87 298.377 317.3 298.008 317.739C296.229 319.862 294.783 322.309 294.051 324.992C293.318 327.672 293.318 330.512 293.767 333.241C293.853 333.747 294.078 334.692 294.078 334.692C294.091 334.647 294.105 334.598 294.114 334.553C295.025 331.144 296.584 327.855 298.961 325.212C299.756 324.325 300.636 323.523 301.58 322.797L301.629 322.761ZM160.998 333.214C160.634 331.431 160.14 329.674 159.502 327.967C158.59 325.521 157.377 323.178 155.814 321.081C154.012 318.653 151.753 316.583 149.259 314.871C147.925 313.953 146.523 313.133 145.072 312.403C143.325 311.525 141.514 310.781 139.654 310.172L139.578 310.145C139.583 310.176 139.583 310.199 139.583 310.225C139.708 312.174 139.973 314.11 140.387 316.018C140.436 316.251 140.49 316.484 140.544 316.713C143.949 317.591 147.238 318.931 150.185 320.848C150.881 321.301 151.555 321.785 152.202 322.295C154.057 323.76 155.715 325.458 157.179 327.304C158.639 329.146 159.906 331.135 160.998 333.214ZM313.206 325.629C313.808 325.745 314.41 325.839 315.017 325.915C318.099 326.296 321.302 326.121 324.231 325.028C326.688 324.114 328.894 322.6 330.794 320.812C331.212 320.418 331.616 320.006 332.007 319.585L333.216 318.182C332.618 318.03 332.012 317.905 331.401 317.802C330.107 317.578 328.8 317.457 327.488 317.443H327.2C326.234 317.448 325.273 317.519 324.321 317.663C323.804 318.397 323.243 319.096 322.623 319.755C320.282 322.255 317.281 324.07 314.096 325.297C313.804 325.414 313.507 325.521 313.206 325.629ZM125.67 325.454C126.465 325.261 128.239 324.916 128.392 324.889C124.996 323.411 121.81 321.426 119.133 318.859C116.222 316.068 113.985 312.649 112.327 308.984C111.792 308.948 111.258 308.926 110.728 308.913C110.35 308.904 109.973 308.899 109.6 308.899C108.225 308.908 106.855 308.984 105.485 309.128L105.175 309.164C105.305 309.401 105.435 309.638 105.566 309.871C107.246 312.828 109.29 315.593 111.712 317.994C113.625 319.889 115.786 321.556 118.167 322.828C120.517 324.083 123.064 324.934 125.67 325.454ZM135.095 315.705C133.59 312.739 131.644 309.988 129.187 307.73C127.098 305.803 124.677 304.253 122.112 303.035C119.084 301.601 115.845 300.606 112.552 300.015L112.242 299.966C112.251 299.988 112.255 300.015 112.26 300.042C112.668 301.95 113.212 303.828 113.899 305.651C114.443 307.098 115.076 308.509 115.804 309.871C117.179 312.457 118.908 314.867 121.024 316.897C123.145 318.926 125.625 320.557 128.266 321.834C128.971 322.174 129.69 322.488 130.418 322.784C130.014 321.919 129.636 321.045 129.286 320.158C128.971 319.347 128.455 317.793 128.473 317.842C127.08 316.449 125.705 315.033 124.376 313.572C122.776 311.829 121.218 310.042 119.771 308.138L119.78 308.124C121.815 309.392 123.738 310.781 125.62 312.215C127.008 313.263 128.36 314.347 129.699 315.449L130.75 315.431C132.201 315.445 133.652 315.539 135.095 315.705ZM313.687 322.528C316.517 321.354 319.177 319.647 321.162 317.295C322.852 315.297 324.029 312.9 324.806 310.409C324.976 309.862 325.125 309.307 325.26 308.747L325.623 306.932L323.849 307.488C323.31 307.681 322.771 307.891 322.245 308.12C319.702 309.226 317.308 310.768 315.448 312.837C314.065 314.374 313.004 316.175 312.214 318.079L313.7 317.828L313.777 317.752C314.869 316.623 315.978 315.517 317.164 314.468C318.341 313.415 319.563 312.398 320.906 311.489L320.92 311.498C320.237 312.972 319.424 314.334 318.57 315.66C317.721 316.995 316.8 318.268 315.861 319.518C315.179 320.4 314.487 321.274 313.768 322.125C313.741 322.259 313.714 322.394 313.687 322.528ZM308.988 318.94C309.931 316.045 311.374 313.29 313.413 311.018C314.226 310.118 315.12 309.302 316.082 308.568C316.113 307.188 316.001 305.808 315.776 304.45C315.686 303.881 315.569 303.321 315.439 302.761L314.945 300.978L313.615 302.264C313.215 302.681 312.829 303.106 312.461 303.55C310.682 305.669 309.235 308.12 308.503 310.799C307.771 313.483 307.771 316.319 308.22 319.052L308.247 319.199L308.988 318.94ZM136.811 307.86C136.451 307.062 136.047 306.283 135.602 305.526C134.12 303.008 132.184 300.772 130 298.832C127.44 296.556 124.537 294.665 121.464 293.16L121.393 293.129C121.388 293.156 121.388 293.182 121.384 293.209C121.235 295.216 121.236 297.237 121.397 299.249C121.411 299.419 121.428 299.594 121.442 299.764C125.292 301.341 128.895 303.55 131.838 306.493C134.007 308.662 135.791 311.184 137.224 313.886L136.937 311.453C136.847 310.454 136.811 307.86 136.811 307.86ZM326.998 312.452C327.461 312.533 327.933 312.604 328.4 312.663C331.482 313.044 334.685 312.869 337.614 311.776C340.071 310.862 342.277 309.347 344.177 307.56C344.595 307.165 344.999 306.753 345.39 306.332L346.599 304.93C346.001 304.777 345.395 304.652 344.784 304.549C343.49 304.325 342.183 304.204 340.871 304.19C340.777 304.19 340.678 304.19 340.583 304.19C339.617 304.195 338.656 304.267 337.704 304.405C337.187 305.145 336.626 305.844 336.006 306.502C333.665 309.002 330.664 310.817 327.479 312.044C327.349 312.094 327.218 312.147 327.088 312.192C327.056 312.277 327.025 312.363 326.998 312.452ZM327.969 303.671C328.804 302.828 329.653 302.004 330.547 301.216C331.72 300.163 332.942 299.146 334.289 298.236L334.303 298.245C333.615 299.719 332.807 301.081 331.953 302.407C331.104 303.738 330.183 305.01 329.244 306.265C328.93 306.668 328.62 307.067 328.301 307.466C328.225 307.932 328.135 308.388 328.036 308.85C330.502 307.703 332.789 306.126 334.545 304.043C336.235 302.04 337.412 299.647 338.189 297.156C338.355 296.605 338.508 296.054 338.643 295.494L339.002 293.68L337.232 294.235C336.688 294.428 336.154 294.638 335.628 294.867C333.081 295.974 330.691 297.515 328.831 299.585C327.636 300.911 326.688 302.43 325.938 304.043L327.969 303.671ZM108.526 306.193C104.618 303.698 101.096 300.508 98.5666 296.601C96.3788 293.218 94.9817 289.379 94.209 285.432C92.0302 284.764 89.7839 284.294 87.5197 284.016L87.2096 283.98C87.2186 284.002 87.2231 284.029 87.2321 284.056C87.7397 285.938 88.3913 287.784 89.1775 289.571C89.7975 290.983 90.5073 292.358 91.3069 293.68C92.8209 296.184 94.6806 298.496 96.9044 300.409C99.0742 302.277 101.567 303.742 104.196 304.863C105.422 305.382 108.028 306.211 108.028 306.211C108.194 306.202 108.36 306.198 108.526 306.193ZM322.587 305.051C323.53 302.389 324.905 299.871 326.796 297.766C327.604 296.865 328.503 296.05 329.465 295.315C329.496 293.935 329.383 292.555 329.159 291.198C329.065 290.629 328.952 290.069 328.822 289.509L328.328 287.721L326.998 289.011C326.598 289.428 326.212 289.854 325.844 290.293C324.065 292.416 322.618 294.863 321.886 297.546C321.18 300.118 321.153 302.833 321.549 305.458L322.587 305.051ZM114.955 297.725C114.829 297.17 114.695 296.623 114.542 296.077C113.837 293.563 112.83 291.126 111.455 288.899C109.861 286.328 107.785 284.078 105.449 282.161C104.196 281.135 102.866 280.199 101.487 279.347C99.8201 278.326 98.0768 277.43 96.2754 276.664L96.2035 276.637C96.2035 276.664 96.2035 276.686 96.2035 276.713C96.1586 278.666 96.2574 280.615 96.509 282.551C96.7067 284.083 96.9989 285.602 97.3897 287.094C98.1624 290.001 99.3348 292.82 100.997 295.333C102.574 297.707 104.56 299.791 106.774 301.583C107.965 302.551 110.503 304.146 110.503 304.146C110.247 303.317 110.022 302.479 109.82 301.637C109.717 301.202 109.618 300.763 109.528 300.324C109.187 299.795 108.845 299.262 108.504 298.733C107.26 296.735 106.033 294.719 104.883 292.654C103.728 290.593 102.623 288.496 101.653 286.31L101.662 286.301C103.351 288.003 104.906 289.791 106.411 291.614C107.871 293.375 109.259 295.181 110.624 297.004L109.021 296.865L110.737 297.013C111.68 297.103 112.619 297.251 113.549 297.43C114.021 297.519 114.488 297.618 114.955 297.725ZM340.776 298.03L340.529 298.774C340.704 298.787 340.875 298.796 341.05 298.805C344.15 298.962 347.331 298.559 350.17 297.255C352.555 296.166 354.645 294.495 356.41 292.573C356.801 292.152 357.174 291.713 357.533 291.265L358.638 289.777C357.371 289.553 356.091 289.441 354.811 289.41C354.586 289.406 354.362 289.406 354.137 289.406C352.655 289.423 351.167 289.576 349.725 289.898C349.263 290.669 348.755 291.413 348.189 292.112C346.203 294.562 343.62 296.475 340.812 297.905L340.776 298.03ZM118.693 292.631C118.549 291.104 118.279 289.585 117.871 288.106C117.048 285.118 115.638 282.318 113.877 279.777C112.996 278.505 112.026 277.295 110.988 276.153C109.676 274.706 108.257 273.357 106.743 272.121L106.68 272.071C106.671 272.098 106.662 272.125 106.653 272.148C106.064 274.007 105.615 275.911 105.31 277.837C105.274 278.075 105.238 278.308 105.207 278.545C108.589 280.96 111.59 283.931 113.778 287.47C115.862 290.835 117.179 294.625 117.902 298.505C118.145 298.581 118.383 298.653 118.625 298.733C118.603 298.433 118.589 298.138 118.576 297.837C118.526 296.578 118.531 295.315 118.594 294.061C118.616 293.581 118.648 293.106 118.693 292.631ZM341.94 292.098L341.675 294.271C343.548 293.066 345.237 291.57 346.549 289.764C348.09 287.645 349.088 285.172 349.681 282.631C349.811 282.071 349.923 281.511 350.013 280.942L350.242 279.105L348.517 279.791C347.991 280.019 347.47 280.27 346.958 280.535C344.505 281.82 342.228 283.532 340.525 285.732C339.249 287.376 338.324 289.253 337.672 291.225C338.162 291.077 338.661 290.942 339.155 290.826L339.218 290.754C340.224 289.553 341.253 288.366 342.358 287.233C343.45 286.099 344.595 284.997 345.875 283.993L345.884 284.002C345.309 285.521 344.6 286.937 343.845 288.321C343.256 289.41 342.623 290.467 341.972 291.507L341.94 292.098ZM334.505 292.385C335.228 289.397 336.473 286.507 338.364 284.065C339.096 283.124 339.914 282.259 340.799 281.466L340.844 281.426C340.781 280.051 340.565 278.68 340.242 277.34C340.107 276.785 339.954 276.229 339.779 275.683L339.159 273.94C339.155 273.944 339.155 273.944 339.15 273.949C338.728 274.392 338.319 274.849 337.924 275.319C337.56 275.763 337.205 276.216 336.868 276.682C335.251 278.931 333.988 281.476 333.449 284.2C332.915 286.928 333.121 289.764 333.773 292.452C333.791 292.533 333.809 292.609 333.831 292.69C334.051 292.587 334.276 292.484 334.505 292.385ZM240.267 262.842C252.361 267.255 265.295 269.249 278.318 268.617C263.021 273.572 247.37 274.159 232.688 271.077L232.567 274.096L224.997 284.486L217.428 274.096L217.306 271.077C202.625 274.159 186.969 273.572 171.676 268.617C184.696 269.249 197.634 267.255 209.728 262.842C189.92 252.497 173.995 234.71 166.533 211.83C155.477 177.923 165.931 140.71 193.043 117.457C163.581 160.92 174.188 219.625 216.453 250.221L213.515 177.771V120.777C218.093 118.586 222.046 115.275 224.997 111.158C227.949 115.275 231.902 118.586 236.475 120.777V177.771L233.542 250.221C275.802 219.625 286.413 160.92 256.952 117.457C284.064 140.71 294.518 177.923 283.462 211.83C276 234.71 260.074 252.497 240.267 262.842ZM352.232 283.689C352.65 283.671 353.063 283.639 353.477 283.599C356.567 283.308 359.654 282.443 362.277 280.745C364.478 279.321 366.298 277.367 367.767 275.208C368.091 274.733 368.396 274.249 368.688 273.752L369.564 272.121C369.303 272.112 369.047 272.112 368.787 272.112C368.27 272.116 367.753 272.13 367.237 272.165C365.036 272.309 362.825 272.734 360.763 273.527L360.741 273.581C360.404 274.392 360.013 275.185 359.564 275.942C357.821 278.886 355.283 281.31 352.443 283.196L352.336 283.268C352.304 283.406 352.268 283.55 352.232 283.689ZM80.2957 256.305C80.0621 256.166 79.8242 256.032 79.5861 255.898C77.7667 254.881 75.8618 254.011 73.9031 253.295L73.8266 253.268C73.8266 253.294 73.8268 253.321 73.8313 253.348C73.8852 255.297 74.0874 257.242 74.4378 259.159C74.7118 260.678 75.0803 262.183 75.5475 263.653C76.4415 266.44 77.7081 269.119 79.4287 271.498C81.0999 273.814 83.1846 275.817 85.4803 277.515C86.8504 278.527 88.3014 279.437 89.8019 280.243C89.6312 280.069 89.456 279.889 89.2853 279.715C86.1091 276.399 83.463 272.515 81.9311 268.174C80.5878 264.379 80.125 260.32 80.2957 256.305ZM97.5737 274.258C97.7579 270.436 97.3312 266.57 96.0149 262.963C95.0131 260.221 93.5126 257.672 91.7201 255.369C89.6132 252.672 87.102 250.288 84.3481 248.254L84.285 248.209C84.2805 248.232 84.2715 248.259 84.2625 248.286C83.7684 250.172 83.4136 252.094 83.2025 254.034C83.0408 255.566 82.9689 257.112 83.0048 258.657C83.0722 261.579 83.5303 264.509 84.5052 267.268C85.4846 270.033 86.9671 272.6 88.7506 274.921C89.6536 276.095 90.6329 277.206 91.6752 278.259C92.2772 278.863 92.8927 279.446 93.5307 280.01L93.4857 279.029C92.6276 276.892 91.8549 274.724 91.1002 272.551C90.35 270.315 89.6312 268.075 88.9933 265.799C88.3508 263.527 87.7624 261.234 87.3311 258.881L87.3401 258.877C88.589 260.92 89.685 263.021 90.7182 265.145C91.765 267.264 92.7263 269.415 93.6562 271.579C93.8629 272.067 94.0653 272.555 94.2674 273.044L95.4174 273.42C96.1452 273.666 96.8639 273.949 97.5737 274.258ZM353.054 277.318L352.956 279.428C354.833 277.878 356.469 276.018 357.601 273.859C358.814 271.538 359.442 268.944 359.658 266.346C359.707 265.777 359.735 265.199 359.744 264.625L359.699 262.779L358.095 263.702C357.605 264.007 357.129 264.329 356.662 264.67C354.42 266.296 352.416 268.317 351.051 270.741C350.022 272.569 349.375 274.585 349.02 276.65L350.301 276.216L350.489 275.898C351.307 274.562 352.156 273.241 353.081 271.959C354.002 270.678 354.973 269.424 356.091 268.245L356.1 268.25C355.754 269.836 355.26 271.341 354.712 272.824C354.213 274.2 353.643 275.539 353.045 276.87L353.054 277.318ZM346.091 277.923C346.397 274.948 347.201 272.013 348.67 269.406C349.267 268.348 349.964 267.358 350.745 266.435C350.476 265.082 350.067 263.756 349.55 262.479C349.339 261.946 349.105 261.422 348.854 260.907L347.987 259.271L346.962 260.812C346.666 261.305 346.383 261.807 346.118 262.318C344.842 264.773 343.962 267.475 343.831 270.248C343.697 273.008 344.307 275.763 345.327 278.317L346.091 277.923ZM100.673 275.745C101.114 274.567 101.496 273.362 101.801 272.143C102.462 269.531 102.798 266.829 102.677 264.132C102.547 261.198 101.869 258.303 100.822 255.566C99.5774 252.3 97.8252 249.235 95.7273 246.444L95.5386 246.198C95.5251 246.22 95.5118 246.243 95.4983 246.265C94.492 247.936 93.6068 249.683 92.8611 251.485C92.7712 251.704 92.6816 251.928 92.5962 252.152C95.3231 255.284 97.5469 258.868 98.8542 262.82C100.202 266.892 100.557 271.247 100.229 275.512C100.17 275.481 100.471 275.638 100.673 275.745ZM363.167 265.898C363.769 265.772 364.362 265.62 364.95 265.445C367.929 264.576 370.795 263.142 373.046 260.983C374.937 259.168 376.357 256.906 377.39 254.509C377.614 253.984 377.821 253.447 378.014 252.905L378.562 251.14L376.743 251.507C376.186 251.641 375.629 251.798 375.081 251.968C373.374 252.506 371.712 253.236 370.189 254.182C370.009 255.06 369.771 255.929 369.47 256.78C368.32 259.997 366.284 262.855 363.858 265.243C363.629 265.467 363.405 265.687 363.167 265.898ZM360.166 259.536C360.292 259.173 360.422 258.81 360.552 258.447C361.105 256.982 361.684 255.521 362.349 254.092C363.009 252.658 363.728 251.243 364.6 249.876L364.613 249.881C364.573 251.502 364.371 253.075 364.115 254.63C363.867 256.189 363.531 257.721 363.171 259.244C362.924 260.203 362.673 261.157 362.394 262.107L362.439 262.802C364.537 260.615 366.271 258.017 367.147 255.1C367.902 252.596 368.023 249.93 367.745 247.336C367.682 246.767 367.601 246.198 367.498 245.633L367.107 243.823L365.705 245.037C365.283 245.427 364.874 245.835 364.483 246.256C362.587 248.277 361.006 250.638 360.125 253.277C359.411 255.418 359.173 257.69 359.267 259.943L360.256 259.5L360.166 259.536ZM356.63 261.404C356.347 258.384 356.572 255.297 357.533 252.412C357.92 251.265 358.418 250.163 359.007 249.105C358.486 247.829 357.83 246.605 357.084 245.45C356.774 244.966 356.446 244.491 356.1 244.034L354.937 242.591L354.227 244.303C354.029 244.84 353.845 245.382 353.683 245.933C352.897 248.586 352.547 251.408 352.942 254.159C353.337 256.906 354.469 259.509 355.97 261.834L356.63 261.404ZM285.308 251.431C285.254 251.507 285.2 251.583 285.146 251.646C320.673 231.171 332.829 185.862 312.29 150.445C302.218 133.075 285.528 120.517 266.004 115.647C308.947 147.829 317.591 208.626 285.308 251.431ZM137.7 150.445C117.165 185.862 129.322 231.171 164.848 251.646C164.794 251.583 164.74 251.507 164.686 251.431C132.404 208.626 141.043 147.829 183.986 115.647C164.466 120.517 147.772 133.075 137.7 150.445ZM84.2672 244.899C84.8153 245.239 85.7857 245.924 85.7407 245.898C86.8953 241.395 87.2457 236.619 86.2305 232.058C85.6285 229.361 84.5683 226.776 83.2115 224.374C81.5269 221.399 79.3928 218.675 76.9714 216.265L76.7512 216.046C76.7422 216.072 76.7289 216.095 76.7199 216.122C75.9652 217.918 75.3408 219.773 74.8601 221.664C74.4782 223.16 74.1907 224.679 74.0065 226.211C73.6651 229.114 73.7056 232.08 74.2851 234.952C74.8601 237.824 75.965 240.575 77.4071 243.124C78.1663 244.468 79.02 245.759 79.95 246.995C80.3947 247.587 80.8573 248.165 81.338 248.734L81.5357 247.932C80.9786 245.669 80.5115 243.389 80.0668 241.104C79.64 238.787 79.2401 236.467 78.9346 234.123C78.6157 231.785 78.3595 229.428 78.2607 227.04L78.2744 227.036C79.2223 229.235 80.0083 231.467 80.7361 233.716C81.4729 235.96 82.1153 238.227 82.7353 240.499C83.0902 241.861 83.4361 243.223 83.7641 244.589L84.2672 244.899ZM71.6613 223.505C69.8778 222.08 67.9597 220.826 65.9561 219.737L65.6819 219.589C65.6819 219.616 65.6773 219.643 65.6728 219.67C65.4482 221.673 65.3763 223.693 65.4617 225.709C65.5246 227.183 65.6775 228.657 65.9245 230.114C66.4277 233.079 67.3442 235.987 68.7773 238.644C70.0936 241.086 71.8277 243.286 73.8044 245.23C75.0174 246.426 76.3244 247.528 77.6991 248.536C77.5508 248.339 77.4028 248.142 77.259 247.941C74.5815 244.217 72.515 239.997 71.6075 235.485C70.8124 231.538 70.929 227.457 71.6613 223.505ZM370.647 247.103C371.226 246.901 371.797 246.677 372.354 246.431C375.202 245.194 377.871 243.42 379.829 240.996C381.478 238.958 382.601 236.538 383.324 234.034C383.481 233.483 383.625 232.923 383.747 232.363L384.07 230.539L382.309 231.135C381.77 231.337 381.24 231.561 380.714 231.798C379.092 232.546 377.533 233.474 376.141 234.603C376.078 235.499 375.948 236.39 375.754 237.269C375.018 240.606 373.356 243.698 371.249 246.368C371.051 246.614 370.853 246.861 370.647 247.103ZM88.2609 247.067C89.1998 245.508 90.0311 243.882 90.7229 242.197C91.7427 239.706 92.4568 237.076 92.7174 234.392C93.0004 231.467 92.7353 228.51 92.0884 225.647C91.3157 222.242 90.0085 218.958 88.3283 215.902L88.1756 215.633C88.1576 215.651 88.1397 215.674 88.1263 215.692C86.8953 217.21 85.7722 218.81 84.7794 220.494C84.6581 220.7 84.5411 220.907 84.4243 221.113C86.684 224.598 88.3822 228.46 89.1145 232.551C89.9096 236.968 89.5908 241.529 88.5576 245.884C88.4632 246.278 88.3642 246.673 88.2609 247.067ZM363.562 243.308C362.929 240.396 362.78 237.358 363.364 234.428C363.602 233.241 363.958 232.08 364.411 230.96C363.733 229.76 362.933 228.626 362.048 227.573C361.675 227.13 361.289 226.704 360.894 226.292L359.555 225.002L359.07 226.789C358.935 227.349 358.822 227.914 358.733 228.478C358.283 231.207 358.288 234.047 359.025 236.726C359.757 239.383 361.19 241.807 362.947 243.913L363.562 243.308ZM369.874 243.648C371.518 241.332 372.767 238.707 373.239 235.898C373.674 233.313 373.459 230.656 372.857 228.12C372.722 227.56 372.569 227.004 372.399 226.458L371.783 224.71L370.543 226.09C370.175 226.529 369.824 226.982 369.483 227.448C367.861 229.692 366.59 232.233 366.046 234.957C365.628 237.031 365.647 239.168 365.961 241.26L367.008 240.512C367.044 240.355 367.08 240.194 367.116 240.037C367.48 238.514 367.87 236.995 368.356 235.494C368.827 233.989 369.362 232.493 370.058 231.028L370.072 231.032C370.233 232.645 370.233 234.231 370.175 235.804C370.125 237.381 369.982 238.944 369.816 240.499C369.735 241.14 369.649 241.785 369.555 242.421L369.874 243.648ZM376.855 228.492C377.39 228.196 377.915 227.882 378.432 227.551C381.033 225.866 383.374 223.675 384.91 220.965C386.204 218.689 386.914 216.117 387.219 213.528C387.282 212.954 387.332 212.381 387.359 211.807L387.377 209.957L385.741 210.83C385.243 211.122 384.753 211.426 384.277 211.749C382.799 212.752 381.41 213.922 380.224 215.261C380.305 216.157 380.328 217.054 380.278 217.954C380.099 221.368 378.967 224.683 377.327 227.667C377.174 227.945 377.017 228.218 376.855 228.492ZM364.416 226.153C364.914 226.771 365.391 227.407 365.831 228.066C365.885 227.976 365.939 227.882 365.993 227.793C365.44 227.273 364.914 226.726 364.416 226.153ZM372.331 220.548C372.421 219.504 372.533 218.456 372.686 217.407C372.911 215.848 373.189 214.285 373.639 212.726C374.065 214.289 374.335 215.857 374.533 217.421C374.744 218.985 374.861 220.548 374.951 222.112C374.995 223.308 375.031 224.504 375.022 225.701C375.054 225.804 375.085 225.907 375.117 226.014L375.166 225.916C376.608 223.178 377.57 220.123 377.574 217.009C377.579 214.392 376.932 211.803 375.921 209.401C375.696 208.868 375.458 208.348 375.198 207.833L374.303 206.211L373.306 207.775C373.019 208.272 372.74 208.774 372.484 209.289C371.249 211.767 370.413 214.482 370.323 217.26C370.274 218.805 370.454 220.347 370.813 221.847C370.939 221.731 372.331 220.548 372.331 220.548ZM368.616 224.146C367.902 221.892 367.516 219.536 367.592 217.17C367.632 215.96 367.794 214.76 368.055 213.581C367.192 212.506 366.213 211.516 365.166 210.624C364.73 210.248 364.276 209.89 363.814 209.549L362.291 208.496L362.098 210.338C362.062 210.911 362.044 211.485 362.044 212.058C362.048 214.827 362.52 217.627 363.688 220.149C364.618 222.157 365.966 223.94 367.538 225.494L368.616 224.146ZM82.3221 216.762C82.7084 216.305 83.0813 215.844 83.4452 215.369C85.9834 212.067 87.987 208.299 88.9214 204.227C89.5369 201.534 89.6896 198.743 89.4964 195.992C89.2538 192.582 88.499 189.213 87.3489 186.001L87.2411 185.71C87.2232 185.728 87.2007 185.745 87.1827 185.763C85.7227 187.063 84.3616 188.469 83.1172 189.975C82.9645 190.158 82.8162 190.342 82.6634 190.53C84.3436 194.325 85.4039 198.407 85.4803 202.564C85.5611 207.049 84.5187 211.507 82.8071 215.638C82.6544 216.014 82.4928 216.391 82.3221 216.762ZM64.406 186.063L64.3836 186.14C63.8579 188.017 63.4761 189.935 63.238 191.87C63.0493 193.402 62.955 194.948 62.9684 196.489C62.9954 199.415 63.4087 202.349 64.3476 205.127C65.2821 207.905 66.7242 210.494 68.4762 212.838C69.4017 214.079 70.4126 215.253 71.4907 216.359C71.5447 216.417 71.6479 216.516 71.6479 216.516C71.54 216.305 71.4324 216.095 71.3246 215.884C69.276 211.785 67.9012 207.291 67.726 202.694C67.5688 198.671 68.3325 194.657 69.6802 190.875C68.1438 189.191 66.4546 187.641 64.6531 186.252L64.406 186.063ZM79.9409 215.405C80.6642 213.77 81.2706 212.08 81.7334 210.355C82.4387 207.757 82.8207 205.06 82.7443 202.367C82.659 199.428 82.0299 196.525 81.0281 193.765C80.498 192.305 79.8646 190.884 79.1458 189.504C78.2158 187.717 77.1421 186.001 75.9426 184.379L75.8976 184.312C75.8797 184.334 75.8664 184.357 75.8529 184.379C74.7837 186.09 73.8493 187.882 73.0586 189.737C72.4476 191.167 71.9264 192.636 71.5086 194.133C70.7269 196.96 70.3181 199.903 70.4663 202.838C70.6056 205.678 71.2482 208.483 72.2366 211.149C72.7667 212.573 73.3908 213.962 74.0962 215.311L75.0712 213.192L75.3092 212.739C75.2598 211.686 75.2193 210.629 75.1833 209.576C75.1339 207.219 75.1071 204.867 75.179 202.506C75.2374 200.145 75.3541 197.779 75.6371 195.405H75.6506C76.2391 197.721 76.6568 200.055 77.0207 202.39C77.3891 204.719 77.6678 207.058 77.9149 209.401C78.0542 210.848 78.1844 212.295 78.2922 213.743L79.9409 215.405ZM379.322 209.513C379.807 209.141 380.274 208.747 380.728 208.335C383.028 206.261 384.987 203.725 386.069 200.804C386.977 198.348 387.269 195.696 387.152 193.093C387.125 192.52 387.08 191.946 387.013 191.377L386.739 189.545L385.261 190.669C384.816 191.032 384.385 191.413 383.962 191.807C382.664 193.03 381.482 194.406 380.525 195.92C380.75 196.789 380.916 197.672 381.011 198.572C381.384 201.969 380.8 205.423 379.654 208.626C379.551 208.926 379.438 209.222 379.322 209.513ZM370.669 206.888C369.51 204.679 368.684 202.296 368.365 199.818C368.207 198.617 368.171 197.408 368.243 196.202C367.219 195.279 366.091 194.46 364.914 193.743C364.425 193.443 363.921 193.16 363.409 192.896L361.734 192.103L361.841 193.949C361.895 194.522 361.972 195.091 362.066 195.66C362.515 198.389 363.432 201.077 364.986 203.384C366.294 205.32 368.028 206.937 369.95 208.259L370.669 206.888ZM376.685 204.881C376.977 205.369 377.255 205.871 377.52 206.377C378.306 203.689 378.639 200.844 378.189 198.071C377.776 195.486 376.721 193.03 375.337 190.822C375.031 190.333 374.712 189.858 374.371 189.392L373.23 187.932L372.498 189.634C372.291 190.167 372.098 190.71 371.927 191.261C371.105 193.899 370.714 196.713 371.073 199.473C371.28 201.099 371.752 202.676 372.399 204.182L373.603 202.672C373.513 201.534 373.446 200.391 373.432 199.24C373.396 197.667 373.423 196.081 373.616 194.468H373.63C374.299 195.942 374.807 197.448 375.256 198.958C375.714 200.468 376.078 201.995 376.415 203.523C376.509 203.976 376.599 204.424 376.685 204.881ZM379.515 190.284C379.955 189.863 380.382 189.419 380.791 188.967C382.862 186.664 384.546 183.94 385.319 180.925C385.97 178.389 385.984 175.718 385.593 173.142C385.512 172.573 385.404 172.009 385.278 171.449L384.816 169.657L383.464 170.925C383.059 171.332 382.668 171.758 382.291 172.193C381.123 173.546 380.094 175.037 379.299 176.641C379.614 177.479 379.87 178.344 380.058 179.222C380.782 182.564 380.557 186.063 379.753 189.365C379.681 189.675 379.6 189.979 379.515 190.284ZM370.238 187.941C369.047 186.032 368.126 183.962 367.605 181.776C367.331 180.615 367.174 179.433 367.116 178.25L367.111 178.187C365.997 177.376 364.793 176.677 363.549 176.086C363.027 175.839 362.497 175.611 361.963 175.401L360.211 174.782L360.512 176.61C360.624 177.17 360.759 177.73 360.912 178.286C361.644 180.951 362.83 183.532 364.618 185.665C365.997 187.309 367.704 188.649 369.56 189.719L370.238 187.941ZM371.208 169.464C371.006 170.042 370.822 170.624 370.66 171.216C370.507 171.767 370.377 172.327 370.265 172.891C369.721 175.602 369.622 178.443 370.265 181.149C370.584 182.484 371.078 183.77 371.698 184.993L372.646 183.434L373.077 183.846C372.884 182.797 372.713 181.74 372.588 180.674C372.394 179.11 372.255 177.529 372.277 175.907L372.286 175.902C373.109 177.305 373.769 178.747 374.371 180.203C374.986 181.659 375.507 183.138 376.002 184.625C376.41 185.925 376.81 187.233 377.143 188.554C377.165 188.451 377.188 188.348 377.215 188.241C377.884 185.221 378.01 182.022 377.201 179.016C376.518 176.489 375.216 174.159 373.607 172.103C373.252 171.65 372.884 171.207 372.502 170.781L371.213 169.446L371.208 169.464ZM92.8882 156.749C92.8882 156.749 90.5251 158.411 89.2762 159.101C88.6293 159.46 87.9733 159.805 87.3039 160.127C88.0227 164.141 88.0947 168.286 87.2187 172.278C86.2573 176.659 84.2132 180.754 81.5941 184.383C81.356 184.715 81.109 185.042 80.862 185.365C81.3426 185.011 81.8144 184.648 82.2771 184.267C85.5072 181.637 88.3284 178.434 90.1838 174.684C91.4058 172.206 92.2007 169.531 92.65 166.807C93.1935 163.487 93.2476 160.091 92.8882 156.749ZM78.7594 183.622L78.7909 183.581C81.6751 179.8 83.9124 175.432 84.7435 170.723C85.2332 167.927 85.233 165.06 84.8691 162.251C84.4423 158.935 83.526 155.683 82.2412 152.6L82.1197 152.314C82.1017 152.331 82.0838 152.349 82.0613 152.367C80.6731 153.743 79.3884 155.217 78.2203 156.78C77.2949 158.021 76.4457 159.316 75.6865 160.66C74.2579 163.214 73.1619 165.969 72.5914 168.846C72.0253 171.718 71.9938 174.679 72.3487 177.582C72.5329 179.115 72.8295 180.633 73.2113 182.13C73.2922 182.439 73.3774 182.748 73.4628 183.053L74.7161 181.194C74.9812 179.702 75.2777 178.214 75.5787 176.731C76.0729 174.428 76.5942 172.13 77.2097 169.849C77.8116 167.569 78.4765 165.293 79.3031 163.048H79.3166C79.348 165.441 79.2176 167.806 79.029 170.159C78.8493 172.515 78.5753 174.854 78.2788 177.188C78.0541 178.792 77.8205 180.396 77.5554 181.991L78.7594 183.622ZM70.5338 151.373L70.4935 151.44C69.5501 153.151 68.7323 154.926 68.054 156.754C67.5149 158.201 67.0655 159.684 66.7241 161.189C66.0682 164.038 65.7943 166.991 66.0638 169.908C66.3289 172.824 67.1376 175.678 68.2966 178.362C68.9076 179.782 69.6219 181.153 70.4126 182.484C70.444 182.533 70.4755 182.587 70.5069 182.641L70.5382 182.69C70.4798 182.452 70.4214 182.215 70.363 181.977C69.2758 177.336 69.002 172.452 70.0263 167.775C70.8484 164.02 72.4611 160.481 74.5546 157.264C73.418 155.203 72.0791 153.25 70.5831 151.436L70.5338 151.373ZM367.852 171.167C366.505 169.455 365.39 167.56 364.64 165.508C364.231 164.388 363.935 163.236 363.737 162.067L363.728 162.009C362.524 161.328 361.249 160.777 359.941 160.333C359.398 160.15 358.845 159.984 358.288 159.84L356.478 159.428L356.99 161.211C357.169 161.753 357.367 162.296 357.583 162.829C358.62 165.392 360.107 167.815 362.133 169.724C363.674 171.175 365.498 172.296 367.439 173.142L367.852 171.167ZM377.471 172.569C377.857 172.098 378.225 171.61 378.58 171.113C380.364 168.582 381.716 165.683 382.129 162.596C382.475 160.002 382.179 157.349 381.492 154.836C381.339 154.28 381.168 153.734 380.979 153.187L380.305 151.462L379.115 152.883C378.76 153.335 378.419 153.801 378.1 154.276C377.098 155.759 376.249 157.358 375.651 159.043C376.06 159.841 376.415 160.669 376.707 161.52C377.817 164.755 378.005 168.254 377.601 171.633C377.56 171.946 377.52 172.255 377.471 172.569ZM375.04 169.54C375.166 166.861 374.847 164.146 373.845 161.651C372.87 159.222 371.303 157.058 369.465 155.203C369.061 154.796 368.638 154.401 368.207 154.021L366.774 152.847L366.433 154.666C366.348 155.235 366.28 155.804 366.235 156.377C366.015 159.137 366.253 161.964 367.206 164.576C367.637 165.745 368.203 166.857 368.872 167.9L369.393 166.664L370.166 165.038L369.914 165.566C369.753 164.993 369.6 164.415 369.461 163.837C369.079 162.305 368.76 160.75 368.589 159.137L368.603 159.133C369.582 160.427 370.404 161.785 371.177 163.16C371.954 164.536 372.646 165.943 373.315 167.358C373.401 167.555 373.49 167.753 373.58 167.95L375.04 169.54ZM363.715 154.379C362.367 152.972 361.199 151.404 360.3 149.67C359.748 148.613 359.308 147.506 358.962 146.373L358.944 146.315C357.663 145.795 356.329 145.41 354.977 145.136C354.411 145.024 353.84 144.93 353.27 144.854L351.424 144.679L352.16 146.377C352.408 146.897 352.673 147.408 352.956 147.909C354.312 150.32 356.096 152.538 358.351 154.173C359.901 155.297 361.648 156.126 363.472 156.709L363.625 155.042C363.652 154.823 363.683 154.599 363.715 154.379ZM93.4226 152.963C94.8827 151.722 96.217 150.342 97.376 148.819C99.1595 146.48 100.489 143.824 101.446 141.046C102.578 137.744 103.198 134.267 103.374 130.786L103.387 130.472C103.36 130.481 103.338 130.49 103.311 130.499C101.464 131.144 99.6671 131.924 97.9376 132.838C97.7264 132.95 97.5153 133.062 97.3042 133.178C97.394 137.327 96.81 141.503 95.2781 145.369C93.7597 149.218 91.3698 152.681 88.5216 155.674L90.5386 154.442C91.4102 153.944 93.4226 152.963 93.4226 152.963ZM373.922 155.047C374.25 154.527 374.551 153.998 374.838 153.461C376.289 150.723 377.259 147.672 377.273 144.558C377.286 141.942 376.649 139.348 375.647 136.942C375.422 136.413 375.184 135.889 374.928 135.378L374.039 133.752L373.037 135.311C372.745 135.804 372.47 136.31 372.21 136.821C371.406 138.416 370.768 140.109 370.391 141.861C370.903 142.6 371.361 143.375 371.756 144.182C373.27 147.251 373.908 150.696 373.931 154.097C373.935 154.41 373.931 154.729 373.922 155.047ZM85.8666 154.495C86.9223 153.438 87.9151 152.323 88.8271 151.14C90.4758 149.007 91.8639 146.659 92.8298 144.142C93.881 141.395 94.4156 138.474 94.5504 135.539C94.7076 132.054 94.3259 128.546 93.5172 125.15L93.4407 124.849C93.4183 124.867 93.4004 124.881 93.3779 124.899C91.7876 126.032 90.2781 127.282 88.8765 128.644C87.7668 129.72 86.7199 130.862 85.7586 132.072C83.8852 134.428 82.3265 137.049 81.3067 139.89C80.3453 142.569 79.8646 145.405 79.7523 148.241C79.7163 149.106 79.7164 149.966 79.7479 150.826C80.2915 150.275 80.8574 149.742 81.4369 149.227L82.9823 147.936L83.0317 148.03L83.0766 147.914C83.9347 145.719 84.8153 143.537 85.7857 141.382C86.7471 139.222 87.7669 137.085 88.9439 134.997L88.9527 135.002C88.6068 137.367 88.0992 139.684 87.5332 141.978C86.9806 144.271 86.3383 146.538 85.6689 148.797C85.3814 149.737 85.0848 150.674 84.7838 151.606C84.8467 151.749 84.905 151.892 84.9634 152.04C85.2913 152.847 85.5926 153.667 85.8666 154.495ZM371.172 153.053C371.024 150.145 370.364 147.229 368.935 144.675C367.655 142.39 365.826 140.441 363.764 138.837C363.31 138.483 362.843 138.147 362.367 137.824L360.795 136.843L360.691 138.689C360.678 139.263 360.687 139.84 360.714 140.414C360.844 143.174 361.442 145.952 362.727 148.42C363.203 149.343 363.773 150.217 364.416 151.032L365.215 148.586L365.377 148.689C365.202 148.259 365.027 147.833 364.865 147.399C364.29 145.929 363.773 144.433 363.4 142.851L363.409 142.847C364.55 144.003 365.539 145.244 366.482 146.512C367.43 147.775 368.297 149.083 369.137 150.405C369.488 150.974 369.834 151.538 370.17 152.116L371.172 153.053ZM85.1836 128.537C84.4154 126.391 83.4451 124.321 82.313 122.345L82.1556 122.076C82.1376 122.099 82.1242 122.121 82.1063 122.139C80.8619 123.729 79.7342 125.41 78.7504 127.17C78.0271 128.461 77.3759 129.791 76.8233 131.162C75.7227 133.873 74.9767 136.745 74.7745 139.666C74.5724 142.587 74.9138 145.53 75.6281 148.366C76.0055 149.863 76.4864 151.337 77.0569 152.771C77.0884 152.847 77.1151 152.918 77.1466 152.995C77.1511 153.03 77.1107 152.542 77.0882 152.269C76.7557 147.511 77.2679 142.65 79.029 138.192C80.4396 134.616 82.6004 131.382 85.1836 128.537ZM357.951 138.971C355.979 137.735 354.177 136.216 352.717 134.401C351.967 133.47 351.316 132.475 350.75 131.431C350.75 131.431 349.73 131.212 349.231 131.153C348.535 131.073 347.834 131.032 347.129 131.01C346.868 131.005 346.603 131.005 346.338 131.005C345.848 131.014 345.363 131.032 344.874 131.064L343.027 131.256C343.575 132.116 344.182 132.941 344.833 133.729C346.814 136.113 349.263 138.178 352.138 139.388C353.998 140.172 355.988 140.593 357.996 140.745L357.951 138.971ZM362.358 117.811C362.237 118.147 361.069 124.065 361.06 124.751C361.707 125.378 362.309 126.05 362.861 126.763C364.955 129.473 366.257 132.721 366.958 136.05C367.026 136.359 367.084 136.668 367.138 136.982C367.354 136.409 367.547 135.831 367.722 135.248C368.598 132.278 368.944 129.097 368.342 126.041C367.834 123.474 366.698 121.059 365.238 118.9C364.914 118.42 364.578 117.959 364.223 117.502L363.027 116.086L362.358 117.811ZM364.074 135.687C363.36 132.824 362.125 130.056 360.188 127.802C358.486 125.813 356.302 124.263 353.966 123.098C353.45 122.838 352.929 122.6 352.394 122.381L350.66 121.727L350.92 123.559C351.024 124.124 351.145 124.684 351.284 125.244C351.963 127.923 353.099 130.53 354.847 132.694C355.804 133.882 356.927 134.921 358.158 135.822L358.495 133.855C357.888 133.013 357.3 132.157 356.743 131.274C355.889 129.944 355.085 128.577 354.402 127.103L354.415 127.094C355.759 128.008 356.976 129.025 358.149 130.087C359.33 131.135 360.44 132.246 361.527 133.375C362.021 133.909 362.511 134.442 362.996 134.984C363.36 135.208 363.719 135.445 364.074 135.687ZM96.2935 125.033C96.545 126.135 96.9809 128.326 96.9809 128.326C100.454 126.014 103.567 123.098 105.772 119.54C107.228 117.193 108.275 114.603 108.985 111.937C109.861 108.631 110.238 105.199 110.189 101.789L110.184 101.476C110.157 101.489 110.135 101.498 110.108 101.507C108.306 102.273 106.563 103.165 104.896 104.186C103.58 104.993 102.309 105.88 101.105 106.852C98.8271 108.694 96.783 110.844 95.1882 113.308C93.5889 115.768 92.4569 118.505 91.7067 121.332C91.5585 121.897 91.4236 122.461 91.3023 123.03L93.2655 121.695L94.9952 120.665L95.2466 121.404C96.491 119.563 97.758 117.735 99.1012 115.947C100.507 114.048 101.972 112.184 103.571 110.405L103.585 110.41C102.727 112.645 101.725 114.791 100.673 116.906C99.6312 119.03 98.5081 121.1 97.3626 123.16C97.0077 123.779 96.6527 124.401 96.2888 125.02L96.2935 125.033ZM106.051 126.892C106.078 127.466 106.087 127.708 106.087 127.708C107.237 126.973 108.329 126.149 109.349 125.235C111.518 123.286 113.324 120.956 114.798 118.447C116.492 115.562 117.767 112.43 118.639 109.2L118.657 109.124C118.634 109.128 118.607 109.133 118.58 109.133C116.572 109.37 114.582 109.76 112.632 110.302C112.466 110.347 112.3 110.396 112.134 110.445C111.316 114.509 109.829 118.461 107.493 121.901C105.894 124.254 103.94 126.341 101.756 128.16C102.583 127.86 103.423 127.582 104.272 127.35L106.051 126.892ZM348.337 124.572C346.671 123.541 345.139 122.3 343.831 120.84C343.027 119.935 342.313 118.958 341.688 117.923C340.857 117.811 340.022 117.748 339.182 117.73C338.997 117.73 338.809 117.726 338.625 117.726C337.075 117.739 335.529 117.901 334.006 118.187L333.993 118.192C334.586 119.021 335.233 119.814 335.925 120.566C338.023 122.847 340.574 124.787 343.508 125.849C345.242 126.476 347.066 126.798 348.903 126.888L348.899 126.866C348.701 126.189 348.337 124.572 348.337 124.572ZM101.316 103.281C101.267 102.878 101.208 102.479 101.145 102.081C100.84 100.154 100.386 98.2546 99.7974 96.3953L99.7706 96.3191C99.7526 96.3371 99.7301 96.3504 99.7122 96.3684C97.0616 98.5368 94.676 101.046 92.7084 103.841C90.9833 106.301 89.5862 108.998 88.7281 111.879C87.8925 114.688 87.578 117.636 87.6544 120.557C87.6993 122.103 87.8477 123.644 88.0903 125.168C88.1038 125.248 88.1172 125.329 88.1306 125.409L88.234 124.679C88.9169 120.15 90.3858 115.692 92.8926 111.825C95.0894 108.447 98.0275 105.602 101.316 103.281ZM359.344 118.268C359.613 116.077 359.55 113.846 359.011 111.7C358.373 109.16 357.116 106.807 355.543 104.72C355.197 104.263 354.833 103.815 354.46 103.38L353.194 102.022L352.614 103.779C352.452 104.33 352.308 104.89 352.183 105.45C351.801 107.193 351.608 108.994 351.675 110.781L351.716 110.817C352.376 111.4 352.996 112.022 353.571 112.695C355.799 115.293 357.273 118.474 358.14 121.763C358.207 122.013 358.27 122.264 358.328 122.511L358.405 122.569C358.441 122.457 358.522 122.134 358.522 122.134C358.692 120.826 358.975 119.531 359.344 118.268ZM341.131 108.299C341.23 108.904 341.347 109.505 341.486 110.1C341.616 110.66 341.765 111.216 341.936 111.767C342.749 114.41 344.02 116.951 345.871 119.03C346.477 119.706 347.142 120.329 347.848 120.898L347.812 118.192L348.252 118.29C348.063 118.035 347.874 117.775 347.69 117.511C346.774 116.229 345.898 114.903 345.143 113.465L345.152 113.456C346.54 114.303 347.812 115.257 349.038 116.252C350.269 117.242 351.432 118.295 352.578 119.37L352.834 119.616C353.202 119.76 353.566 119.912 353.93 120.069C354.254 120.217 354.577 120.365 354.901 120.521C354.034 118.075 352.753 115.759 350.956 113.868C349.15 111.969 346.895 110.535 344.501 109.487C343.975 109.254 343.441 109.043 342.897 108.85L341.127 108.286L341.131 108.299ZM328.97 105.392C328.377 105.401 327.784 105.427 327.191 105.477L324.882 105.777C325.462 106.615 326.095 107.421 326.774 108.183C328.831 110.499 331.351 112.479 334.271 113.595C336.131 114.303 338.112 114.657 340.103 114.751L339.312 112.524C337.587 111.44 336.01 110.132 334.676 108.591C333.894 107.686 333.211 106.713 332.609 105.687L332.582 105.638C332.187 105.575 330.129 105.248 328.97 105.392ZM244.553 110.298C238.214 114.742 229.454 113.228 224.997 106.902C220.541 113.228 211.78 114.742 205.442 110.298C200.123 106.574 198.07 99.6927 200.482 93.6668C201.839 100.844 208.775 105.571 215.972 104.209C219.764 103.501 223.066 101.171 224.997 97.8379C226.929 101.171 230.231 103.501 234.018 104.209C241.219 105.571 248.156 100.844 249.513 93.6668C251.925 99.6927 249.872 106.574 244.553 110.298ZM350.354 101.861C350.287 101.135 350.175 100.419 350.008 99.7061C349.415 97.1569 348.194 94.7823 346.662 92.6721C346.32 92.2061 345.97 91.7537 345.597 91.3147L344.357 89.9347L343.746 91.682C343.575 92.2331 343.422 92.7842 343.288 93.3442C342.879 95.0826 342.65 96.8791 342.686 98.6667C343.351 99.2671 343.979 99.9167 344.554 100.611C346.473 102.932 347.798 105.692 348.647 108.568C348.755 108.635 348.863 108.703 348.971 108.77C349.065 107.085 349.353 105.405 349.779 103.779C349.941 103.156 350.354 101.861 350.354 101.861ZM332.191 96.0055C332.277 96.6148 332.384 97.2151 332.515 97.8155C332.632 98.3755 332.775 98.9311 332.933 99.4822C333.705 102.143 334.927 104.706 336.747 106.812C337.254 107.403 337.807 107.95 338.391 108.461C338.31 107.919 338.247 107.367 338.207 106.821L338.103 104.899L338.324 104.939C337.524 103.761 336.769 102.547 336.113 101.238L336.122 101.229C337.497 102.099 338.75 103.075 339.959 104.092C340.552 104.59 341.131 105.096 341.702 105.62L344.307 106.467C344.577 106.57 344.847 106.673 345.112 106.785C344.325 104.944 343.279 103.219 341.918 101.74C340.148 99.8092 337.915 98.3352 335.538 97.2509C335.017 97.009 334.482 96.7895 333.943 96.5834L332.187 95.9921L332.191 96.0055ZM120.207 106.265L120.386 106.261C121.743 105.732 123.055 105.1 124.304 104.357C126.905 102.806 129.192 100.768 131.146 98.4651C132.152 97.2823 133.073 96.0278 133.918 94.7196C135.009 93.026 135.966 91.243 136.784 89.4016L136.82 89.3299L134.888 89.2985C134.174 89.3119 133.459 89.3344 132.75 89.3836C131.887 89.4374 131.024 89.5225 130.166 89.6345C128.738 93.5324 126.662 97.2062 123.827 100.253C121.186 103.089 117.96 105.329 114.492 107.045L117.21 106.565C118.203 106.422 119.205 106.315 120.207 106.265ZM112.852 104.814C113.827 104.348 114.784 103.837 115.71 103.281C117.951 101.937 120.04 100.316 121.824 98.4025C123.886 96.1892 125.508 93.5907 126.739 90.8353C127.372 89.4195 127.902 87.9544 128.342 86.467C128.917 84.5315 129.335 82.5557 129.605 80.5575L129.614 80.4768C129.587 80.4858 129.56 80.4903 129.537 80.4993C127.642 80.9786 125.777 81.5924 123.976 82.3496C122.547 82.9499 121.159 83.6309 119.82 84.4105C117.287 85.88 114.937 87.6946 112.983 89.8854C111.078 92.018 109.569 94.4777 108.405 97.0807C108.014 97.9633 107.659 98.8549 107.34 99.7644C107.583 99.6479 107.826 99.5359 108.073 99.4239C108.985 99.0118 109.919 98.6264 110.867 98.2994L111.676 98.0351C113.226 96.3594 114.802 94.6972 116.442 93.0888C118.127 91.4311 119.856 89.8092 121.716 88.2949L121.725 88.3039C120.535 90.3783 119.214 92.3495 117.853 94.2805C116.496 96.216 115.072 98.0932 113.621 99.9525C113.378 100.257 113.14 100.557 112.897 100.862C112.915 101.332 112.924 101.803 112.924 102.273C112.929 103.12 112.902 103.967 112.852 104.814ZM330.754 101.633C328.301 100.298 326.05 98.5636 324.285 96.3997C323.517 95.4588 322.847 94.4464 322.272 93.3846C321.778 93.295 321.279 93.2233 320.776 93.1695C320.08 93.0933 319.379 93.0574 318.674 93.044L316.652 93.0933L314.572 93.3173C315.129 94.173 315.74 94.9929 316.396 95.7725C318.391 98.147 320.852 100.195 323.737 101.391C325.444 102.094 327.254 102.497 329.092 102.668L331.172 102.735C331.023 102.372 330.884 102.004 330.754 101.633ZM120.575 80.907C120.642 78.631 120.494 76.3505 120.162 74.1014L120.117 73.7968C120.094 73.8102 120.072 73.8236 120.049 73.8371C118.365 74.8272 116.752 75.9428 115.234 77.1749C114.034 78.1471 112.893 79.1954 111.828 80.3155C109.757 82.5019 107.974 84.9795 106.711 87.7169C105.516 90.3021 104.789 93.0888 104.429 95.9069C104.223 97.5198 104.133 99.1507 104.151 100.777L104.366 100.069C105.795 95.5171 108.05 91.1757 111.316 87.6632C113.94 84.8496 117.129 82.6184 120.575 80.907ZM334.312 93.8191C333.633 92.354 332.775 90.9741 331.715 89.7465C329.995 87.7707 327.807 86.2384 325.462 85.0825C324.945 84.8316 324.42 84.5942 323.885 84.3747L322.146 83.7385L322.42 85.5664C322.524 86.1309 322.649 86.6909 322.793 87.2465C323.489 89.9257 324.644 92.5242 326.401 94.6792C327.362 95.8531 328.485 96.8792 329.716 97.7663C329.523 96.7806 329.384 95.777 329.312 94.7734C328.961 94.2716 328.62 93.7609 328.287 93.2456C327.425 91.9195 326.612 90.5574 325.924 89.0879L325.933 89.0789C327.281 89.9839 328.508 90.9965 329.689 92.0449C329.972 92.2958 330.246 92.5467 330.52 92.7976C330.52 92.7976 330.404 92.7751 330.997 92.8872C331.666 93.0216 332.326 93.1918 332.982 93.3889C333.427 93.5189 333.872 93.6668 334.312 93.8191ZM339.523 96.2922C340.206 93.5682 340.417 90.7009 339.856 87.9365C339.334 85.3738 338.18 82.9679 336.702 80.8129C336.378 80.3425 336.037 79.8764 335.678 79.4284L334.478 78.0171L333.818 79.7466C333.629 80.2887 333.463 80.8397 333.315 81.3952C332.856 83.1201 332.578 84.9078 332.569 86.6955C332.569 86.6955 333.831 87.9991 334.379 88.6936C335.929 90.6739 337.057 92.9499 337.83 95.3378C338.405 95.6335 338.97 95.9517 339.523 96.2922ZM320.56 89.3522C318.296 88.2545 316.198 86.8119 314.455 84.9929C313.633 84.1282 312.896 83.1919 312.245 82.1973L312.214 82.1479L310.416 82.045C310.273 82.0405 310.129 82.0404 309.985 82.0404C308.157 82.0539 306.333 82.2734 304.545 82.6766H304.531C305.151 83.4876 305.83 84.2581 306.544 84.9884C308.718 87.1972 311.333 89.0476 314.303 90.0108C314.81 90.1721 315.322 90.3111 315.839 90.4276C316.504 90.3693 317.173 90.3334 317.838 90.32C318.13 90.3155 318.427 90.3155 318.719 90.32C319.46 90.3334 320.201 90.3738 320.942 90.45L320.56 89.3522ZM324.217 81.579C323.431 80.1946 322.479 78.9042 321.342 77.7841C319.473 75.9472 317.169 74.5898 314.738 73.622C314.204 73.4114 313.66 73.2143 313.112 73.0396L311.328 72.5378L311.746 74.3389C311.895 74.8944 312.061 75.4454 312.249 75.9875C313.157 78.604 314.509 81.0997 316.432 83.1113C317.402 84.1238 318.494 84.9974 319.676 85.7456L319.662 85.674C319.509 84.8003 319.397 83.9177 319.334 83.0306V82.9679C318.948 82.4974 318.566 82.0225 318.198 81.5341C317.236 80.2842 316.32 78.9894 315.515 77.5781L315.524 77.5692C316.944 78.3667 318.242 79.2762 319.5 80.2305L319.568 80.2842L321.037 80.5978C321.706 80.7502 322.362 80.9428 323.009 81.1534C323.418 81.2878 323.817 81.4267 324.217 81.579ZM329.532 84.2806C330.102 81.337 330.147 78.2457 329.316 75.3425C328.593 72.829 327.25 70.5172 325.61 68.4876C325.251 68.0396 324.873 67.605 324.482 67.1838L323.175 65.8711L322.649 67.6498C322.506 68.2008 322.385 68.7654 322.281 69.3299C321.958 71.0861 321.823 72.8917 321.953 74.6748C322.645 75.2438 323.305 75.8577 323.912 76.5253C325.74 78.5145 327.106 80.88 328.085 83.389C328.575 83.6712 329.06 83.967 329.532 84.2806ZM132.512 78.8639C132.458 79.8092 132.345 80.7502 132.201 81.6821C132.148 82.0495 132.085 82.4167 132.022 82.7841C133.073 81.9553 134.039 81.0145 134.87 79.9571C136.492 77.8917 137.588 75.45 138.275 72.9276C138.428 72.372 138.558 71.8075 138.671 71.243L138.972 69.406C138.963 69.4105 138.958 69.4105 138.949 69.4105C138.365 69.5987 137.781 69.8048 137.21 70.0288C136.676 70.2394 136.146 70.4723 135.625 70.7187C133.114 71.915 130.768 73.5458 128.98 75.6874C128.293 76.5073 127.696 77.3899 127.179 78.3174L127.264 78.2949C128.36 77.9724 129.474 77.69 130.602 77.475L131.114 77.3854C132.224 76.3281 133.374 75.3021 134.65 74.3792L134.659 74.3836C134.043 75.8352 133.311 77.1928 132.525 78.51L132.512 78.8639Z" fill="white"/>
</svg>
