<svg width="450" height="450" viewBox="0 0 450 450" fill="none" xmlns="http://www.w3.org/2000/svg">
<path d="M84.7297 207.719C64.761 207.719 46.9969 217.858 37.0195 235.268C27.2215 252.364 26.9546 273.347 37.0103 290.402C46.753 306.929 65.143 315.68 83.9795 315.68C142.236 315.68 180.051 256.46 210.677 208.497C217.666 197.554 224.28 187.196 230.677 178.261C234.253 173.268 237.971 168.421 241.874 163.772C247.134 157.504 252.725 151.591 258.75 146.169C281.075 126.061 309.276 112.643 348.132 112.505C348.335 112.5 348.542 112.5 348.749 112.5V178.261C331.127 178.261 314.366 184.727 298.006 195.124C290.371 199.975 282.823 205.682 275.317 211.986C258.086 226.46 242.361 242.538 226.634 258.619C209.83 275.8 193.024 292.984 174.374 308.216C168.539 312.98 162.616 317.468 156.583 321.579C152.146 324.605 147.65 327.433 143.085 330.013C125.081 340.203 105.251 346.875 84.3753 346.875C66.1049 346.834 48.3591 340.984 33.7474 330.013C30.328 327.447 27.1065 324.623 24.1197 321.579C9.19964 306.372 0 285.542 0 262.568C0 253.753 1.35302 245.26 3.86118 237.273C9.20884 220.272 19.8029 205.59 33.7428 195.124C48.3223 184.18 66.1371 178.261 84.3753 178.261C106.912 178.321 128.284 184.814 148.147 195.124C157.116 199.777 165.837 205.194 174.374 211.122C174.789 211.407 175.203 211.696 175.617 211.986C175.98 212.241 176.41 212.501 176.885 212.788C177.404 213.102 177.978 213.449 178.576 213.858L184.623 217.964L184.734 218.042L168.792 241.085C144.87 223.707 115.104 207.719 84.7297 207.719Z" fill="white"/>
<path d="M348.749 178.261L348.749 243.149C368.777 243.218 385.032 259.653 385.032 279.426C385.032 299.424 368.768 315.45 348.896 315.698L348.749 315.703L348.804 315.698C348.708 315.667 348.595 315.672 348.487 315.676C348.449 315.678 348.412 315.68 348.376 315.68V315.703C346.162 315.703 343.949 315.565 341.744 315.371C311.817 309.669 275.888 278.892 251.81 258.255L251.124 257.671L230.359 278.423C266.642 310.391 314.583 346.617 365.183 346.875H366.062C384.889 346.778 402.258 340.52 416.253 330.013C419.672 327.447 422.889 324.623 425.876 321.579C440.8 306.372 450 285.542 450 262.564C450 253.758 448.647 245.26 446.139 237.273C440.791 220.272 430.197 205.59 416.253 195.124C402.258 184.616 384.889 178.358 366.062 178.261H348.749Z" fill="white"/>
</svg>
