<svg width="450" height="450" viewBox="0 0 450 450" fill="none" xmlns="http://www.w3.org/2000/svg">
<path fill-rule="evenodd" clip-rule="evenodd" d="M225.357 27.5379C248.262 27.5379 266.851 46.3215 266.851 69.4924C266.851 92.6659 248.259 111.45 225.357 111.45C202.417 111.45 183.825 92.6659 183.825 69.4924C183.825 46.3215 202.417 27.5379 225.357 27.5379ZM321.977 0C344.922 0 363.501 18.7862 363.501 41.9571C363.504 65.1306 344.922 83.9168 321.975 83.9168C299.068 83.9168 280.476 65.1306 280.476 41.9571C280.476 18.7862 299.07 0 321.977 0ZM136.81 70.4654C159.739 70.4654 178.326 89.2567 178.326 112.438C178.326 135.604 159.739 154.392 136.81 154.392C113.882 154.392 95.2932 135.604 95.2932 112.438C95.2932 89.2567 113.882 70.4654 136.81 70.4654ZM224.465 332.934L225.098 266.635C227.848 266.502 255.528 265.413 272.544 273.989C278.774 277.126 279.415 281.171 279.405 285.451C279.395 305.355 225.631 333.775 220.345 336.47C152.262 371.21 56.25 377.116 56.25 377.116L57.1523 450C98.2314 444.307 172.344 435.929 261.781 387.473C306.017 363.505 353.892 324.05 344.962 267.577C336.334 213.096 279.274 197.744 225.54 200.097L224.907 266.398C222.185 266.533 194.487 267.625 177.469 259.051C171.236 255.914 170.607 251.872 170.607 247.587C170.612 227.68 224.372 199.261 229.662 196.573C297.753 161.826 393.75 155.919 393.75 155.919L392.85 83.0327C351.759 88.7384 277.656 97.109 188.226 145.562C143.983 169.528 96.1227 208.985 105.06 265.458C113.686 319.952 170.746 335.291 224.465 332.934Z" fill="white"/>
</svg>
