<svg width="450" height="450" viewBox="0 0 450 450" fill="none" xmlns="http://www.w3.org/2000/svg">
<path fill-rule="evenodd" clip-rule="evenodd" d="M420.4 450H232.118V265.862C234.638 236.185 239.102 208.853 250.051 189.344C256.56 192.996 268.176 209.147 271.641 240.396C280.135 225.059 290.478 207.864 309.245 196.959C310.51 230.807 308.495 243.686 299.01 267.249C285.693 300.33 249.047 308.031 249.047 308.031V433.071H403.47C403.47 331.304 405.39 229.519 403.455 127.77C403.422 126.749 403.365 125.732 403.28 124.714C402.812 119.8 401.651 114.989 399.726 110.439C394.991 99.2437 385.941 90.118 374.828 85.2515L374.813 85.2449C378.167 80.1065 381.596 75.4818 384.988 71.3371C391.061 74.4252 396.641 78.4715 401.463 83.294C408.278 90.1077 413.542 98.4346 416.745 107.526C419.178 114.436 420.354 121.691 420.4 129.01V450ZM217.883 450H29.6011V129.01C29.647 121.691 30.8226 114.436 33.2564 107.526C36.4589 98.4346 41.723 90.1077 48.5376 83.294C53.3601 78.4715 58.9401 74.4252 65.0133 71.3371C68.4051 75.4818 71.8336 80.1065 75.1879 85.2449L75.1729 85.2515C64.0598 90.118 55.0101 99.2437 50.2748 110.439C48.3501 114.989 47.1886 119.8 46.7208 124.714C46.6364 125.732 46.5792 126.749 46.5464 127.77C44.6104 229.519 46.5304 331.304 46.5304 433.071H200.954V308.031C200.954 308.031 164.308 300.33 150.991 267.249C141.506 243.686 139.491 230.807 140.756 196.959C159.523 207.864 169.866 225.059 178.36 240.396C181.825 209.147 193.441 192.996 199.95 189.344C210.899 208.853 215.363 236.185 217.883 265.862V450ZM402.953 42.7049C373.212 64.138 338.424 110.977 334.324 160.266C330.986 200.412 324.126 217.954 319.004 225.465C321.273 211.929 321.259 193.523 318.718 178.684C313.034 181.199 303.6 186.996 294.963 195.583C293.89 192.071 285.076 174.03 256.043 182.031C257.44 177.535 258.98 173.089 260.694 168.7C264.794 158.203 269.757 148.045 275.466 138.321C275.505 138.259 275.541 138.196 275.577 138.132C281.723 127.686 288.73 117.744 296.45 108.422C303.015 100.492 310.118 92.9896 317.722 86.038C317.95 85.8618 318.164 85.6659 318.365 85.4521C323.905 80.429 329.709 75.6984 335.761 71.309C352.709 59.0193 371.845 49.2187 392.351 44.5818C395.858 43.7896 399.393 43.1727 402.953 42.7049ZM47.0479 42.7049C76.7892 64.138 111.577 110.977 115.677 160.266C119.015 200.412 125.875 217.954 130.997 225.465C128.728 211.929 128.742 193.523 131.283 178.684C136.967 181.199 146.4 186.996 155.038 195.583C156.111 192.071 164.925 174.03 193.958 182.031C192.561 177.535 191.021 173.089 189.307 168.7C185.207 158.203 180.244 148.045 174.535 138.321C174.496 138.259 174.46 138.196 174.424 138.132C168.278 127.686 161.271 117.744 153.551 108.422C146.985 100.492 139.883 92.9896 132.279 86.038C132.051 85.8618 131.836 85.6659 131.636 85.4521C126.096 80.429 120.292 75.6984 114.24 71.309C97.2923 59.0193 78.1561 49.2187 57.6501 44.5818C54.1429 43.7896 50.6076 43.1727 47.0479 42.7049ZM242.98 186.432C239.724 184.052 234.572 179.775 224.881 179.805C215.19 179.836 210.163 184.135 207.021 186.432C204.602 171.207 194.602 152.944 185.816 135.286C189.761 127.828 201.555 101.897 204.703 92.0793C213.06 66.0102 220.353 34.0546 225 16.8243C229.467 34.1024 236.764 67.1596 245.298 92.0793C248.639 101.833 260.24 127.828 264.185 135.286C255.399 152.944 245.399 171.207 242.98 186.432ZM296.153 11.518C295.997 13.0584 295.786 14.594 295.517 16.123C295.14 18.2652 294.658 20.3868 294.077 22.4821C289.302 39.7284 278.202 54.3993 266.159 67.2927C263.923 69.6862 261.638 72.0337 259.332 74.3587C257.16 76.5477 254.966 78.7162 252.775 80.8855C256.355 91.3912 260.487 101.706 265.123 111.79C267.013 115.9 268.991 119.966 271.042 123.996C276.859 114.997 283.29 106.395 290.249 98.263C295.552 92.0662 301.172 86.129 307.095 80.5115C302.608 71.9905 300.034 62.5527 298.396 53.0868C296.027 39.3862 295.567 25.4071 296.153 11.518ZM153.848 11.518C154.004 13.0584 154.215 14.594 154.484 16.123C154.86 18.2652 155.343 20.3868 155.924 22.4821C160.699 39.7284 171.799 54.3993 183.842 67.2927C186.078 69.6862 188.363 72.0337 190.669 74.3587C192.841 76.5477 195.035 78.7162 197.226 80.8855C193.646 91.3912 189.514 101.706 184.878 111.79C182.988 115.9 181.01 119.966 178.959 123.996C173.142 114.997 166.71 106.395 159.752 98.263C154.449 92.0662 148.829 86.129 142.905 80.5115C147.393 71.9905 149.967 62.5527 151.605 53.0868C153.974 39.3862 154.434 25.4071 153.848 11.518ZM308.726 30.2568C310.975 12.4049 331.142 11.0877 343.578 15.2521C361.449 21.2371 367.613 37.9302 353.259 47.2002C346.332 51.674 338.89 55.3237 332.154 60.0243C326.496 63.973 321.039 68.2049 315.791 72.6843L315.706 72.4996C309.662 53.069 307.47 40.2252 308.726 30.2568ZM141.275 30.2568C139.026 12.4049 118.859 11.0877 106.423 15.2521C88.552 21.2371 82.388 37.9302 96.742 47.2002C103.669 51.674 111.111 55.3237 117.847 60.0243C123.505 63.973 128.962 68.2049 134.21 72.6843L134.295 72.4996C140.339 53.069 142.531 40.2252 141.275 30.2568ZM238.67 21.9262C236.599 7.82429 251.358 -1.3754 261.915 0.168665C268.854 1.18304 287.685 5.99148 282.391 22.1427C280.328 28.4399 277.258 34.3921 273.654 39.9459C267.345 49.6677 259.433 58.1859 251.32 66.4087C250.523 67.2074 249.724 68.0043 248.925 68.8002C245.788 58.2224 243.199 47.4834 241.138 36.644C240.208 31.7549 239.393 26.848 238.67 21.9262ZM211.331 21.9262C213.402 7.82429 198.643 -1.3754 188.085 0.168665C181.147 1.18304 162.316 5.99148 167.61 22.1427C169.673 28.4399 172.743 34.3921 176.347 39.9459C182.656 49.6677 190.568 58.1859 198.681 66.4087C199.478 67.2074 200.277 68.0043 201.075 68.8002C204.213 58.2224 206.802 47.4834 208.863 36.644C209.793 31.7549 210.608 26.848 211.331 21.9262Z" fill="white"/>
</svg>
