<svg width="450" height="450" viewBox="0 0 450 450" fill="none" xmlns="http://www.w3.org/2000/svg">
<path d="M217.352 2.40888C220.117 0.798345 222.46 0 224.844 0H225.006C227.442 0.0369177 229.868 0.899869 232.786 2.56116L343.708 66.2673C353.821 72.6171 360.538 83.8308 360.538 96.5951V152.655L224.088 74.1907C222.965 73.5723 221.773 73.2447 220.651 73.2447C219.792 73.2447 218.976 73.4385 218.266 73.8215C217.566 74.1999 216.967 74.786 216.522 75.5751C216.007 76.4935 215.696 77.7163 215.696 79.2484L215.692 168.1L215.696 168.922L214.875 169.028L214.81 169.037L213.915 169.152L213.015 169.272L212.899 169.291L212.022 169.425L211.16 169.558L210.928 169.6L210.032 169.757L209.156 169.914L209.105 169.928L208.191 170.103L207.296 170.292L207.147 170.32L206.275 170.514L205.394 170.726L205.324 170.74C201.335 171.69 197.452 172.936 193.699 174.445C192.934 174.75 192.206 175.059 191.519 175.359C190.8 175.668 190.086 175.996 189.381 176.328L189.357 176.333L188.55 176.72L187.743 177.122L187.622 177.173L186.908 177.537L186.184 177.916L185.864 178.082L185.164 178.456L184.477 178.834L184.241 178.963C183.939 179.129 183.601 179.323 183.243 179.531L183.039 179.646L182.845 179.761L182.622 179.891L181.907 180.311L181.184 180.754L181.082 180.814L180.349 181.275L179.611 181.741L179.528 181.806C177.32 183.227 175.186 184.759 173.122 186.388C172.676 186.744 172.277 187.062 171.929 187.348C171.577 187.634 171.173 187.971 170.756 188.331L170.742 188.34L170.672 188.4L170.009 188.968L169.369 189.54L169.271 189.623L168.692 190.149L168.116 190.675L167.829 190.948L167.268 191.474L166.715 192.004L166.511 192.203L165.973 192.733L165.44 193.273L165.12 193.596L164.656 194.076L164.197 194.561L163.747 195.041L163.343 195.479L162.94 195.922L162.415 196.508L162.03 196.942L161.659 197.367L161.265 197.833L160.829 198.34L160.407 198.848L160.101 199.236L159.655 199.78L159.228 200.315L158.978 200.643C157.985 201.917 157.02 203.232 156.097 204.584L155.555 205.382L155.026 206.171L154.873 206.411L154.233 207.408L153.801 208.105L153.333 208.876L153.254 209.005L153.249 209.019L152.827 209.734C152.651 210.027 152.529 210.241 152.417 210.439C152.388 210.491 152.36 210.542 152.331 210.592L152.294 210.662L151.871 211.414L151.616 211.88L151.356 212.351L150.948 213.13L150.494 214.012L150.062 214.875L149.612 215.793L149.232 216.61L148.819 217.514L148.522 218.188L148.017 219.351L147.673 220.191L147.316 221.072C147.201 221.364 147.116 221.587 147.042 221.78C147.003 221.883 146.967 221.977 146.931 222.069L146.885 222.198L146.88 222.217L146.616 222.914C146.416 223.463 146.249 223.933 146.082 224.413L145.966 224.75L145.688 225.586L145.414 226.449L145.145 227.316L144.964 227.93L144.783 228.53L144.607 229.167L144.524 229.462L144.278 230.385L144.069 231.225L143.786 232.355L143.61 233.144C143.54 233.444 143.471 233.754 143.369 234.252L143.183 235.138L142.974 236.241L142.826 237.104L142.64 238.193L142.501 239.111L142.343 240.21L142.227 241.1L142.102 242.185L142 243.135L141.903 244.234L141.828 245.157L141.763 246.195L141.754 246.315L141.74 246.472L141.699 247.182L141.657 248.345L141.648 248.544L141.624 249.236L141.606 250.26L141.596 251.289L141.606 252.351L141.624 253.421L141.629 253.454L141.657 254.487L141.708 255.553V255.567L141.712 255.6L141.768 256.61L141.842 257.667L141.93 258.728L142.028 259.725L142.033 259.767C142.167 261.137 142.348 262.517 142.561 263.911L142.719 264.917L142.9 265.918V265.941L142.909 265.969L142.914 266.006L143.09 266.98L143.29 267.981L143.294 268.004C143.494 268.959 143.702 269.91 143.934 270.851L144.074 271.405L144.217 271.963V271.977L144.227 272.01L144.491 273.002L144.76 273.975L144.765 273.989C144.873 274.373 144.992 274.756 145.104 275.134C145.127 275.211 145.15 275.288 145.173 275.364L145.252 275.632L145.335 275.904L145.345 275.923L145.349 275.941L145.66 276.915L145.971 277.852L145.985 277.879L146.309 278.825L146.643 279.748L146.653 279.758L146.662 279.79L147.001 280.699L147.349 281.599L147.404 281.728L147.757 282.605L148.133 283.496L148.151 283.542L148.494 284.322L89.4056 318.258V96.5951C89.4056 83.4294 96.54 71.9249 107.172 65.6904L107.784 65.3443L217.352 2.40888Z" fill="white"/>
<path d="M234.326 100.753L427.294 211.585C438.752 218.165 445.2 230.071 445.311 242.346V368.909C445.339 372.172 444.838 374.622 443.586 376.708C442.338 378.789 440.371 380.446 437.463 382.13L326.545 445.841C315.959 451.379 302.845 451.563 291.726 445.172L244.345 417.964L242.921 417.142L244.345 416.33L379.459 338.826C380.559 338.166 381.431 337.303 381.997 336.334C382.423 335.591 382.674 334.793 382.688 333.994C382.706 333.201 382.502 332.388 382.038 331.618C381.491 330.704 380.587 329.832 379.251 329.066L301.903 284.64L301.184 284.229L301.505 283.468L301.528 283.403L301.88 282.577L302.219 281.742L302.585 280.81L302.896 279.998L302.975 279.781L303.29 278.927L303.592 278.092L303.606 278.046L303.903 277.169L304.19 276.306L304.241 276.163L304.51 275.309L304.77 274.451L304.789 274.386C305.949 270.473 306.811 266.5 307.377 262.512C307.489 261.7 307.586 260.925 307.669 260.182C307.758 259.402 307.832 258.627 307.901 257.852V257.829L307.971 256.942L308.027 256.043L308.031 255.913L308.078 255.115L308.115 254.303L308.129 253.948L308.152 253.154L308.17 252.106C308.175 251.765 308.18 251.377 308.175 250.962V250.251L308.161 249.425L308.143 248.581L308.138 248.461L308.11 247.602L308.068 246.73L308.059 246.624C307.915 244.017 307.651 241.405 307.266 238.816C307.187 238.253 307.104 237.75 307.029 237.307C306.955 236.864 306.862 236.347 306.76 235.807V235.789L306.742 235.696L306.575 234.847L306.398 234.007L306.375 233.883L306.208 233.117L306.037 232.355L305.944 231.972L305.772 231.234L305.582 230.486L305.512 230.209L305.118 228.751L304.993 228.317L304.807 227.671L304.427 226.416L304.246 225.849L304.061 225.272L303.815 224.533L303.439 223.449L303.23 222.877L303.008 222.249L302.776 221.631L302.599 221.169L302.344 220.519L302.089 219.882L301.931 219.503C301.319 218.013 300.656 216.527 299.941 215.05L299.097 213.333L299.088 213.329L299.083 213.32L298.962 213.084L298.689 212.554L298.41 212.032L298.021 211.308L297.589 210.523L297.511 210.389L297.506 210.38L297.093 209.656C296.88 209.282 296.736 209.042 296.592 208.802L296.55 208.733L296.11 207.99L295.836 207.542L295.544 207.081L295.075 206.338L294.537 205.502L293.999 204.704L293.419 203.859L292.909 203.121L292.324 202.314L291.884 201.723L291.772 201.575L291.123 200.708L290.566 199.988L289.977 199.24C289.671 198.866 289.485 198.636 289.3 198.414L289.212 198.303L289.202 198.299L288.725 197.717C288.349 197.27 288.02 196.891 287.686 196.508L287.449 196.241L286.865 195.581L286.252 194.912L285.626 194.247L284.749 193.329L284.281 192.858L284.063 192.641L283.39 191.967L282.764 191.367L281.92 190.555L281.321 190.011C281.094 189.798 280.857 189.586 280.477 189.249L279.8 188.645L278.942 187.92L278.264 187.353L277.411 186.651L276.682 186.074L275.801 185.387L275.087 184.842L274.205 184.192L273.426 183.629L272.521 182.996L271.751 182.47L271.005 181.977L270.879 181.893L270.782 181.824L270.657 181.741L270.054 181.354L269.066 180.726L268.305 180.255L267.419 179.725L266.533 179.203L265.605 178.682L264.659 178.16L264.631 178.156L263.717 177.657L262.766 177.168L262.752 177.159L262.72 177.15L261.81 176.693L260.855 176.227L259.89 175.774L258.972 175.354L258.93 175.336C257.673 174.778 256.383 174.238 255.061 173.725L254.11 173.361L253.145 173.01L253.127 173.006L253.094 172.992L253.066 172.978L252.125 172.646L251.155 172.318L251.146 172.313L251.127 172.309C250.2 172.004 249.263 171.713 248.33 171.437L247.783 171.28L247.222 171.127L247.212 171.118L247.184 171.109L246.187 170.841L245.199 170.587L245.185 170.583C244.717 170.467 244.248 170.352 243.78 170.246L243.51 170.186L243.232 170.121L243.218 170.117L243.19 170.112L242.193 169.895L241.219 169.692L241.191 169.688L240.208 169.498L239.229 169.323L239.187 169.318L238.232 169.152L237.267 169.009L237.128 168.986L236.191 168.857L235.23 168.732L235.175 168.723L234.326 168.631V100.753Z" fill="white"/>
<path d="M71.4813 183.573L71.3978 340.363C71.421 341.641 71.7364 342.832 72.2977 343.796C72.7338 344.539 73.3043 345.148 73.9863 345.559C74.6728 345.974 75.4846 346.2 76.3891 346.191C77.4514 346.173 78.6668 345.826 79.9981 345.065L158.064 300.228L158.57 300.884L158.612 300.93L159.154 301.645L159.711 302.36L159.781 302.453L160.337 303.14L160.889 303.814L161.038 303.999L161.622 304.691L162.197 305.365L162.234 305.406L162.847 306.098L163.454 306.781L163.556 306.892L164.164 307.547L164.786 308.203L164.832 308.253C167.657 311.212 170.682 313.939 173.873 316.417C174.523 316.92 175.153 317.395 175.756 317.838C176.387 318.3 177.028 318.757 177.672 319.2L177.686 319.209L178.428 319.712L179.18 320.21L179.287 320.284L179.959 320.722L180.65 321.156L180.957 321.35L181.629 321.765L182.302 322.167L182.534 322.31C182.826 322.481 183.165 322.679 183.531 322.882L183.726 322.997L183.925 323.108L184.148 323.233L184.872 323.644L185.623 324.045L185.725 324.105L186.491 324.506L187.265 324.903L187.363 324.95C189.705 326.135 192.108 327.215 194.557 328.171C195.091 328.383 195.564 328.567 195.991 328.72C196.413 328.881 196.905 329.057 197.429 329.241L197.443 329.25L197.536 329.278L198.357 329.56L199.178 329.836L199.298 329.873L200.045 330.109L200.792 330.34L201.172 330.459L201.905 330.672L202.647 330.884L202.926 330.958L203.654 331.156L204.392 331.35L204.832 331.461L205.486 331.622L206.127 331.779L206.771 331.922L207.95 332.181L208.72 332.338L209.29 332.448L209.847 332.559L210.45 332.665L211.109 332.785L211.758 332.896L212.254 332.97L212.95 333.076L213.632 333.178L214.036 333.233C215.641 333.45 217.269 333.621 218.906 333.741L219.871 333.814L220.827 333.87L220.836 333.865H220.85L221.11 333.884L221.708 333.911L222.302 333.934L223.123 333.962L224.023 333.981H224.195L225.03 333.99C225.456 333.99 225.739 333.99 226.027 333.985L226.101 333.981L226.969 333.971L228.04 333.944L228.926 333.907L229.919 333.86L230.884 333.796L231.914 333.722L232.809 333.648L233.802 333.551L234.539 333.468L234.725 333.45L235.801 333.321L237.656 333.067C238.052 333.009 238.324 332.96 238.567 332.92C238.617 332.912 238.666 332.904 238.714 332.896L238.853 332.868L238.867 332.864L239.605 332.744C240.185 332.647 240.681 332.555 241.177 332.453L241.525 332.388L242.393 332.213L243.283 332.019L244.174 331.812L244.8 331.664L245.412 331.516L246.057 331.35L246.354 331.272L247.282 331.022L248.117 330.792L249.244 330.464L250.014 330.224C250.316 330.127 250.617 330.04 251.104 329.878L251.967 329.587L253.029 329.218L253.855 328.923L254.894 328.535L255.762 328.194L256.805 327.778L257.636 327.432L258.638 327.003L259.519 326.611L260.516 326.149L261.365 325.748L262.168 325.351L262.307 325.286L262.409 325.231L262.548 325.166L263.188 324.848L264.232 324.303L264.404 324.211L265.016 323.888L265.92 323.394L266.82 322.882L267.739 322.347L268.662 321.788L268.681 321.775L269.571 321.23L270.476 320.653L270.49 320.649L270.513 320.626L271.362 320.076L272.248 319.481L273.124 318.877L273.95 318.295L273.983 318.267C275.101 317.464 276.219 316.625 277.323 315.743L278.12 315.102L278.904 314.446L278.918 314.433L278.946 314.414L278.969 314.391L279.73 313.75L280.505 313.076L280.514 313.071L280.519 313.057C281.256 312.407 281.975 311.756 282.68 311.087L283.093 310.69L283.506 310.284L283.515 310.279L283.539 310.261L284.271 309.532L284.981 308.812L284.995 308.803C285.334 308.452 285.663 308.11 285.988 307.764L286.183 307.561L286.373 307.354L286.387 307.335L286.401 307.321L287.097 306.569L287.755 305.831L287.774 305.808L288.432 305.055L289.073 304.303L289.077 304.294L289.1 304.266L289.717 303.528L290.325 302.771L290.413 302.66L290.998 301.917L291.587 301.151L291.619 301.11L292.125 300.427L292.862 300.847L351.214 334.359L349.799 335.18L158.25 445.195C146.792 451.776 133.2 451.379 122.457 445.338L121.854 444.987L12.2812 382.057C9.42833 380.441 7.54499 378.789 6.35746 376.667C5.17457 374.553 4.71069 372.029 4.69678 368.683L4.6875 241.266C5.16529 229.383 11.5668 217.99 22.6813 211.603L71.4813 183.573Z" fill="white"/>
<path d="M224.995 316.092C188.761 316.092 159.375 286.703 159.375 250.467C159.375 214.231 188.761 184.842 224.995 184.842C261.239 184.842 290.625 214.231 290.625 250.467C290.625 286.703 261.239 316.092 224.995 316.092Z" fill="white"/>
</svg>
