<svg width="450" height="450" viewBox="0 0 450 450" fill="none" xmlns="http://www.w3.org/2000/svg">
<path d="M106.978 120.034C116.825 120.034 124.807 112.052 124.807 102.205C124.807 92.3576 116.825 84.375 106.978 84.375C97.1308 84.375 89.1482 92.3576 89.1482 102.205C89.1482 112.052 97.1308 120.034 106.978 120.034Z" fill="white"/>
<path d="M338.763 199.376V284.067C338.763 302.787 352.639 317.052 370.856 317.052C388.891 317.052 402.95 302.785 402.945 284.612L402.949 199.376C402.95 187.068 412.928 177.09 425.237 177.089H447.524V282.284C447.524 324.626 413.199 358.951 370.856 358.951C328.514 358.951 294.189 324.626 294.189 282.284V177.089H316.476C328.785 177.089 338.763 187.067 338.763 199.376Z" fill="white"/>
<path fill-rule="evenodd" clip-rule="evenodd" d="M236.243 109.337H258.53V336.664C258.53 348.973 248.551 358.951 236.243 358.951H213.956V131.624C213.956 119.315 223.934 109.337 236.243 109.337Z" fill="white"/>
<path d="M44.5741 109.337L44.5731 193.967C58.682 181.185 76.6779 173.523 96.28 173.523C141.576 173.523 178.296 214.434 178.296 264.9C178.296 265.285 178.294 265.669 178.29 266.053C178.294 266.411 178.296 266.77 178.296 267.129C178.29 319.279 138.383 358.951 89.1481 358.951C40.7819 358.951 1.41162 319.279 0.0371223 269.804L0 269.803V131.624C0 119.239 10.0937 109.337 22.287 109.337H44.5741ZM88.2567 214.531C62.6544 214.531 41.8996 237.481 41.8996 265.791C41.8996 294.102 62.6544 317.052 88.2567 317.052C113.859 317.052 134.614 294.102 134.614 265.791C134.614 237.481 113.859 214.531 88.2567 214.531Z" fill="white"/>
</svg>
