<svg width="300" height="300" viewBox="0 0 300 300" fill="none" xmlns="http://www.w3.org/2000/svg">
<path fill-rule="evenodd" clip-rule="evenodd" d="M194.926 114.814H196.942C197.89 114.814 198.739 114.131 199.489 112.766C201.198 114.454 202.912 115.298 204.631 115.298C205.611 114.579 206.559 113.1 207.476 110.86C207.476 108.724 207.049 107.171 206.194 106.203C205.277 105.181 203.766 104.671 201.662 104.671C201.037 105.306 200.219 106.531 199.208 108.344C198.395 109.802 197.791 110.531 197.395 110.531H194.926C194.644 108.687 193.993 107.27 192.972 106.281C192.128 105.458 191.191 105.046 190.159 105.046C189.284 105.525 188.508 106.306 187.83 107.39C186.82 109.016 186.314 111.001 186.314 113.345C187.366 114.324 189.612 114.814 193.05 114.814C192.196 116.429 191.174 117.731 189.987 118.721C188.664 119.825 186.768 120.878 184.298 121.878C185.059 122.389 186.028 122.832 187.205 123.207C188.424 123.602 189.471 123.8 190.346 123.8C192.962 120.737 194.488 117.742 194.926 114.814ZM191.581 109.375C192.061 109.886 192.446 110.459 192.738 111.094C192.311 111.313 191.769 111.422 191.112 111.422C190.602 111.422 190.086 111.349 189.565 111.204C188.856 111.006 188.445 110.735 188.33 110.391C188.403 110.037 188.586 109.641 188.878 109.203C189.221 108.682 189.539 108.422 189.831 108.422C190.404 108.422 190.987 108.739 191.581 109.375ZM205.131 111.579C205.131 111.766 205.121 111.964 205.1 112.172C203.016 111.693 201.568 110.891 200.755 109.766C200.974 108.963 201.381 108.359 201.974 107.952C204.079 108.401 205.131 109.609 205.131 111.579Z" fill="white"/>
<path d="M78.7821 106.915L80.7377 102.676C79.8546 102.316 79.014 102.136 78.2165 102.136C74.9415 102.136 72.5335 104.835 70.9928 110.232C70.551 111.778 70.3297 112.836 70.3297 113.408C70.8041 114.106 71.7953 114.619 73.3034 114.947C75.1565 115.35 76.5359 115.863 77.4409 116.487C76.3634 117.154 74.6934 117.752 72.4309 118.281C70.3297 118.768 68.5735 119.012 67.1623 119.012C63.7467 119.012 62.0392 117.731 62.0392 115.17C62.0392 113.625 62.4705 112.064 63.3323 110.487C63.0736 110.064 62.6692 109.873 62.1198 109.915C61.4736 110.984 60.908 112.217 60.423 113.614C59.8411 115.276 59.5505 116.694 59.5505 117.869C59.5505 119.71 60.1486 121.102 61.3442 122.044C62.443 122.901 63.9517 123.33 65.8692 123.33C70.0172 123.33 74.0634 122.176 78.0065 119.869C78.9221 117.445 79.3802 115.487 79.3802 113.995C79.3802 113.36 78.8146 112.826 77.6834 112.392L74.5159 111.502C73.3522 111.175 72.7434 110.82 72.6897 110.439C73.7884 107.867 75.2428 106.581 77.0528 106.581C77.5915 106.581 78.1684 106.692 78.7821 106.915Z" fill="white"/>
<path d="M88.1045 118.881C89.2364 116.68 89.802 114.944 89.802 113.674C89.802 112.627 89.492 111.415 88.8726 110.039C88.2526 108.663 87.5445 107.636 86.747 106.959L84.517 111.198C86.0252 112.192 87.022 113.352 87.507 114.674C87.1726 115.775 86.1064 117.008 84.3071 118.373C82.7771 119.537 81.0371 120.559 79.0865 121.437C79.6252 121.956 80.5196 122.469 81.7696 122.977C83.0196 123.485 84.0158 123.739 84.7595 123.739C85.9014 122.617 87.0164 120.998 88.1045 118.881Z" fill="white"/>
<path d="M99.72 122.314L102.322 119.9L99.8169 117.424L97.1663 119.805L99.72 122.314Z" fill="white"/>
<path d="M110.499 113.677C111.254 114.429 112.067 114.805 112.94 114.805C113.554 114.805 114.912 114.546 117.012 114.027C120.514 113.159 123.326 112.492 125.448 112.027L127.323 108.026L121.23 109.582C119.033 108.661 117.82 107.169 117.594 105.105C118.769 104.227 120.342 103.788 122.313 103.788C123.24 103.788 124.016 103.899 124.64 104.121C124.845 104.195 124.991 104.232 125.077 104.232C125.238 104.232 125.222 104.068 125.028 103.74C123.854 101.771 122.346 100.787 120.503 100.787C119.34 100.787 118.025 101.428 116.56 102.708C114.965 104.094 114.168 105.518 114.168 106.978C114.168 108.428 114.815 109.539 116.107 110.312C115.202 110.407 114.604 110.455 114.314 110.455H113.117C112.019 110.455 111.189 110.032 110.629 109.185C110.144 108.466 109.902 107.539 109.902 106.407H108.528C108.528 107.381 108.275 108.254 107.768 109.026C107.143 109.979 106.287 110.455 105.199 110.455H104.245C103.146 110.455 102.316 110.032 101.756 109.185C101.271 108.466 101.029 107.539 101.029 106.407H99.655C99.655 107.381 99.4019 108.254 98.8956 109.026C98.2706 109.979 97.4144 110.455 96.3263 110.455C95.2269 110.455 94.4944 109.889 94.1282 108.756C93.9232 108.121 93.8213 107.106 93.8213 105.708V101.025C93.8213 99.1413 93.7994 97.9082 93.7563 97.3264C93.6376 95.7176 93.3307 94.527 92.8351 93.7545L89.8776 96.8026C90.3839 97.9351 90.7288 99.2313 90.912 100.692C91.0088 101.443 91.0895 102.788 91.1545 104.724C91.2945 108.64 91.5745 111.164 91.9951 112.296C92.6194 113.969 93.9613 114.805 96.0188 114.805H96.4875C97.3063 114.805 98.125 114.419 98.9444 113.646C99.7306 112.905 100.189 112.127 100.318 111.312C100.49 112.191 100.927 112.979 101.627 113.677C102.381 114.429 103.194 114.805 104.067 114.805H105.36C106.179 114.805 106.998 114.419 107.817 113.646C108.603 112.905 109.061 112.127 109.19 111.312C109.363 112.191 109.799 112.979 110.499 113.677Z" fill="white"/>
<path d="M111.21 102.343L113.441 100.152L111.065 98.0564L108.997 100.136L106.734 98.152L104.504 100.39L106.879 102.438L108.948 100.39L111.21 102.343Z" fill="white"/>
<path d="M130.828 99.5645C130.828 97.0351 130.688 95.0933 130.408 93.7383L126.577 97.0089C127.537 99.9301 128.016 104.163 128.016 109.709L128.032 115.678L129.664 113.265C130.44 108.301 130.828 103.734 130.828 99.5645Z" fill="white"/>
<path fill-rule="evenodd" clip-rule="evenodd" d="M164.556 114.814H165.385C166.897 114.814 168.189 113.756 169.262 111.641C170.105 113.756 171.262 114.814 172.731 114.814C174.732 114.814 176.023 113.751 176.607 111.626C176.743 112.469 177.107 113.199 177.702 113.814C178.327 114.481 179.05 114.814 179.873 114.814C180.634 114.814 181.395 114.543 182.155 114.001C182.864 113.501 183.401 112.891 183.765 112.172C184.171 111.182 184.458 110.432 184.625 109.922C184.99 108.807 185.172 108.052 185.172 107.656C185.172 106.968 184.963 106.114 184.546 105.093C184.171 104.165 183.796 103.504 183.421 103.108L181.015 106.265C182.348 108.192 183.015 109.297 183.015 109.578C182.275 110.214 181.285 110.531 180.045 110.531C178.368 110.531 177.529 109.25 177.529 106.687H176.123C176.123 107.593 175.93 108.385 175.545 109.062C174.982 110.052 174.065 110.547 172.793 110.547C170.877 110.547 169.918 109.261 169.918 106.687H168.527C168.527 107.51 168.355 108.276 168.011 108.984C167.511 110.016 166.735 110.531 165.683 110.531H164.104L164.978 110.562H164.509C162.707 110.562 161.805 109.266 161.805 106.671H160.399C160.399 107.536 160.195 108.328 159.789 109.047C159.216 110.057 158.357 110.562 157.211 110.562C156.2 110.562 155.517 110.141 155.163 109.297C154.934 108.755 154.819 107.89 154.819 106.702H153.413C153.413 107.577 153.236 108.359 152.881 109.047C152.371 110.047 151.564 110.547 150.459 110.547C148.803 110.547 147.974 109.266 147.974 106.702H146.568C146.568 107.609 146.338 108.437 145.879 109.187C145.328 110.094 144.572 110.547 143.614 110.547H143.004V110.531H142.754C141.837 110.531 141.18 109.844 140.784 108.469C140.68 108.104 140.441 106.629 140.066 104.046C139.784 102.097 139.368 100.722 138.815 99.9195L136.955 102.701C137.226 103.431 137.403 103.993 137.487 104.389C135.111 105.275 133.288 106.286 132.016 107.421C131.694 108.328 131.318 109.578 130.891 111.172C131.954 112.641 134.126 113.376 137.409 113.376C138.013 112.542 138.482 111.511 138.815 110.281C139.471 113.303 140.706 114.814 142.519 114.814H143.348C144.973 114.814 146.213 113.819 147.068 111.829C147.266 112.558 147.594 113.189 148.052 113.72C148.678 114.439 149.432 114.798 150.318 114.798C151.819 114.798 152.996 113.751 153.851 111.657C154.309 113.761 155.372 114.814 157.039 114.814C158.081 114.814 158.982 114.418 159.742 113.626C160.389 112.949 160.8 112.167 160.977 111.282C161.134 112.188 161.535 112.991 162.18 113.689C162.889 114.439 163.681 114.814 164.556 114.814ZM137.987 106.203L138.675 109.672C138.258 109.724 137.805 109.75 137.315 109.75C135.377 109.75 134.101 109.37 133.486 108.609C134.882 107.348 136.382 106.546 137.987 106.203Z" fill="white"/>
<path d="M93.5251 192.04H103.322V194.895C103.322 198.373 106.142 201.191 109.62 201.192H109.632C110.415 201.191 111.05 200.557 111.049 199.774V185.127C111.049 184.267 110.352 183.568 109.49 183.568H87.8826C87.1039 183.568 86.4727 184.2 86.4727 184.979V184.987C86.4727 188.882 89.6301 192.04 93.5251 192.04Z" fill="white"/>
<path d="M179.537 169.482C175.772 171.61 171.734 168.894 171.98 162.257C176.082 152.084 180.258 139.6 182.048 134.125C182.26 133.475 182.148 132.762 181.745 132.208C181.343 131.655 180.7 131.327 180.016 131.327L171.858 131.328C169.917 131.328 168.221 132.641 167.735 134.52C167.032 137.233 165.944 141.401 164.731 145.934C162.074 155.868 158.627 167.552 155.211 169.482C151.841 171.387 148.252 169.41 147.713 164.216C152.226 153.794 156.695 139.927 158.516 134.097C158.717 133.448 158.598 132.742 158.194 132.195C157.791 131.648 157.152 131.327 156.472 131.327L148.268 131.328C146.327 131.328 144.631 132.641 144.146 134.52C143.443 137.233 142.354 141.401 141.142 145.934C138.484 155.868 135.105 168.03 130.165 169.34C121.674 171.592 117.565 166.124 117.727 159.029C121.393 149.571 124.914 139.033 126.52 134.125C126.732 133.475 126.618 132.762 126.217 132.208C125.814 131.655 125.171 131.327 124.487 131.327L116.329 131.328C114.387 131.328 112.692 132.641 112.206 134.52C111.503 137.233 110.415 141.401 109.202 145.934C106.544 155.868 103.097 167.552 99.6819 169.482C96.0532 171.533 91.6376 168.61 91.4576 160.638C95.345 150.793 99.1825 139.313 100.879 134.125C101.091 133.475 100.979 132.762 100.576 132.208C100.174 131.655 99.5312 131.327 98.8469 131.327L90.6889 131.328C88.747 131.328 87.052 132.641 86.5658 134.52C85.8627 137.233 84.7745 141.401 83.5621 145.934C80.9046 155.868 77.4578 167.552 74.0422 169.482C70.0629 171.731 65.1367 167.999 65.8885 158.186C69.4322 148.959 72.7884 138.912 74.3441 134.156C74.5559 133.505 74.4434 132.792 74.0409 132.238C73.6384 131.685 72.9953 131.357 72.311 131.358H62.8798C60.9386 131.358 59.243 132.671 58.7574 134.551C58.0543 137.264 56.9661 141.431 55.7537 145.964C53.0962 155.898 48.5381 165.426 46.2563 169.185C42.6638 175.103 37.8014 179.969 32.2771 182.402C23.2697 186.368 11.1023 185.001 8.58362 179.386C2.69954 166.269 11.5546 152.946 17.1338 144.551C19.2454 141.374 20.8878 138.903 21.0841 137.416C21.0841 137.416 15.3923 136.067 13.6486 138.403C4.55867 150.581 -0.985009 164.767 0.145602 174.661C2.2687 193.232 24.3172 203.816 44.9407 189.628C54.3443 183.157 57.458 177.611 61.418 168.979C62.043 167.617 62.6848 166.141 63.3329 164.589C63.5136 168.347 64.7804 173.217 67.0879 175.802C69.3166 178.298 72.7997 178.843 73.2978 178.851C79.184 178.945 83.9933 177.581 87.9539 168.949C88.3383 168.111 88.7289 167.23 89.1232 166.315C89.5501 169.735 90.7607 173.599 92.7276 175.802C94.9563 178.298 98.4394 178.843 98.9375 178.851C104.824 178.945 109.633 177.581 113.594 168.949C114.244 167.532 114.912 165.991 115.587 164.369C116.081 168.197 118.22 173.429 120.617 175.652C124.399 179.162 129.463 178.917 130.654 178.859C130.761 178.854 130.836 178.85 130.877 178.851C136.763 178.945 141.982 176.123 145.533 168.949C145.622 168.77 145.711 168.588 145.8 168.404C145.776 171.004 146.783 173.772 148.257 175.802C150.224 178.508 153.969 178.843 154.467 178.851C160.353 178.945 165.162 177.581 169.123 168.949C169.62 167.864 170.128 166.707 170.642 165.497C170.601 165.629 170.558 165.76 170.517 165.89C169.482 169.072 170.617 173.095 172.583 175.802C174.55 178.508 178.295 178.843 178.793 178.851C184.679 178.945 189.489 177.581 193.449 168.949C198.306 158.362 204.162 140.891 206.375 134.125C206.587 133.475 206.474 132.762 206.072 132.208C205.669 131.655 205.026 131.327 204.342 131.327L196.184 131.328C194.243 131.328 192.547 132.641 192.061 134.52C191.358 137.233 190.27 141.401 189.058 145.934C186.4 155.868 182.953 167.552 179.537 169.482Z" fill="white"/>
<path d="M81.724 183.568C82.5852 183.568 83.2827 184.267 83.2827 185.127V190.481C83.2827 191.342 82.5852 192.04 81.724 192.04H64.1348C60.2399 192.04 57.0824 188.882 57.0824 184.987V184.979C57.0824 184.605 57.2305 184.247 57.4955 183.982C57.7599 183.717 58.1186 183.568 58.493 183.568H81.724Z" fill="white"/>
<path d="M297.001 111.569C295.911 113.029 294.044 113.681 292.283 113.216C286.696 112.284 276.29 112.304 265.328 114.344C252.932 116.649 244.136 123.192 239.009 130.569C272.436 127.069 265.98 150.958 259.101 161.792C249.77 176.486 235.303 179.343 227.287 179.423C225.155 179.443 211.3 178.045 207.602 166.459C203.842 154.678 207.178 143.204 211.017 131.723C214.439 121.494 218.148 113.809 225.597 101.619C227.112 99.1201 229.846 97.6189 232.768 97.6832L233.147 97.6913C236.411 97.7608 240.538 97.8486 243.221 97.907C243.726 97.9176 244.179 98.2189 244.384 98.6807C244.589 99.142 244.509 99.6801 244.179 100.062C231.145 115.327 220.667 132.427 218.862 144.392C217.127 155.885 222.803 167.28 235.604 167.056C252.827 166.756 261.967 152.751 260.029 148.441C255.859 139.175 237.968 139.882 229.559 140.843C228.64 140.911 227.753 140.487 227.229 139.728C226.705 138.97 226.623 137.99 227.012 137.155C230.359 130.131 234.541 123.875 240.071 118.287C248.839 109.426 261.985 104.586 271.995 101.391C279.6 98.9638 292.299 98.9326 297.64 99.0513C298.308 99.0663 298.94 99.3576 299.384 99.8563C299.829 100.354 300.048 101.016 299.986 101.681C299.647 105.568 298.733 108.875 297.001 111.569Z" fill="white"/>
<path d="M48.6794 132.283C49.3294 133.212 49.4856 134.398 49.0981 135.463L46.2432 143.308C44.935 146.903 41.5182 149.296 37.6926 149.296H35.5827C33.7389 149.296 32.0108 148.396 30.9533 146.886C29.8959 145.376 29.6415 143.444 30.2721 141.711L31.9396 137.13C33.3221 133.331 36.9326 130.802 40.9751 130.802H45.8344C46.9675 130.802 48.0294 131.355 48.6794 132.283Z" fill="white"/>
</svg>
