<svg width="300" height="300" viewBox="0 0 300 300" fill="none" xmlns="http://www.w3.org/2000/svg">
<path d="M56.4857 132.209C43.1735 132.209 31.3309 138.968 24.6793 150.575C18.1475 161.972 17.9695 175.96 24.6732 187.33C31.1682 198.348 43.4281 204.182 55.9856 204.182C94.8228 204.182 120.032 164.702 140.45 132.728C145.109 125.432 149.518 118.527 153.783 112.571C156.166 109.242 158.645 106.011 161.247 102.911C164.754 98.733 168.482 94.7907 172.498 91.1764C187.381 77.7708 206.182 68.8255 232.085 68.7335C232.22 68.7305 232.358 68.7305 232.496 68.7305V112.571C220.749 112.571 209.575 116.881 198.668 123.812C193.578 127.046 188.547 130.851 183.543 135.054C172.055 144.703 161.572 155.422 151.087 166.142C139.885 177.596 128.681 189.051 116.248 199.206C112.358 202.382 108.409 205.374 104.387 208.115C101.429 210.132 98.432 212.017 95.3885 213.737C83.3863 220.53 70.1661 224.979 56.2495 224.979C44.0694 224.951 32.239 221.052 22.498 213.737C20.2184 212.027 18.0708 210.144 16.0796 208.115C6.13302 197.977 0 184.09 0 168.775C0 162.898 0.902004 157.236 2.57409 151.911C6.13915 140.578 13.2018 130.789 22.4949 123.812C32.2144 116.516 44.0908 112.571 56.2495 112.571C71.2737 112.611 85.5217 116.939 98.7634 123.812C104.743 126.915 110.557 130.526 116.248 134.477C116.524 134.667 116.8 134.861 117.077 135.054C117.318 135.224 117.605 135.397 117.922 135.588C118.268 135.798 118.65 136.029 119.049 136.301L123.081 139.039L123.154 139.091L112.527 154.452C96.5789 142.868 76.7348 132.209 56.4857 132.209Z" fill="white"/>
<path d="M232.496 112.571L232.496 155.829C245.848 155.875 256.685 166.831 256.685 180.013C256.685 193.345 245.842 204.029 232.594 204.194L232.496 204.197L232.533 204.194C232.469 204.174 232.394 204.177 232.322 204.18C232.296 204.181 232.272 204.182 232.248 204.182V204.197C230.772 204.197 229.296 204.105 227.827 203.976C207.875 200.175 183.923 179.657 167.871 165.899L167.414 165.51L153.571 179.345C177.759 200.656 209.719 224.807 243.452 224.979H244.038C256.59 224.914 268.168 220.742 277.498 213.737C279.778 212.027 281.922 210.144 283.914 208.115C293.863 197.977 299.996 184.09 299.996 168.772C299.996 162.901 299.094 157.236 297.422 151.911C293.857 140.578 286.794 130.789 277.498 123.812C268.168 116.808 256.59 112.635 244.038 112.571H232.496Z" fill="white"/>
</svg>
