<svg width="300" height="300" viewBox="0 0 300 300" fill="none" xmlns="http://www.w3.org/2000/svg">
<path fill-rule="evenodd" clip-rule="evenodd" d="M254.903 204.803C279.796 204.803 299.996 225.009 299.996 249.896C299.996 274.783 279.796 294.989 254.903 294.989C230.016 294.989 209.81 274.783 209.81 249.896C209.81 225.009 230.016 204.803 254.903 204.803ZM125.842 43.4488L76.4866 294.989H0L125.842 43.4488ZM215.935 6.26172C203.36 69.8297 179.898 188.428 161.842 279.84C153.904 289.314 142.073 294.989 129.386 294.989H82.8551L135.986 24.2365C143.836 13.0741 156.71 6.26172 170.617 6.26172H215.935ZM222.31 6.26172H299.996C299.996 6.26172 224.072 157.96 182.048 241.946L171.56 262.915C189.154 173.847 210.597 65.4485 222.31 6.26172ZM45.0932 6.26172C69.9804 6.26172 90.1863 26.4677 90.1863 51.3549C90.1863 76.2421 69.9804 96.4481 45.0932 96.4481C20.206 96.4481 0 76.2421 0 51.3549C0 26.4677 20.206 6.26172 45.0932 6.26172Z" fill="white"/>
</svg>
