<svg width="300" height="300" viewBox="0 0 300 300" fill="none" xmlns="http://www.w3.org/2000/svg">
<path d="M219.272 49.3363C169.919 41.9732 141.318 38.5876 91.4445 37.5039C207.34 57.1455 219.84 67.9862 295.97 134.009L296.159 134.173C266.748 94.5126 242.581 70.6241 219.272 49.3363Z" fill="white"/>
<path d="M60.7386 68.2098C109.693 61.4636 141.979 63.3355 191.331 70.6985C220.052 95.4407 265.806 144.689 283.205 190.19C219.39 122.16 176.73 87.8683 60.7386 68.2098Z" fill="white"/>
<path d="M0 115.38C47.8825 106.126 100.772 104.521 161.745 111.57C212.95 166.391 237.4 212.571 254.798 258.072C190.983 190.043 110.971 137.71 0 115.38Z" fill="white"/>
</svg>
