<svg width="300" height="300" viewBox="0 0 300 300" fill="none" xmlns="http://www.w3.org/2000/svg">
<path fill-rule="evenodd" clip-rule="evenodd" d="M152.531 205.141C121.915 205.141 97.0969 180.26 97.0969 149.567C97.0969 136.674 101.476 124.807 108.825 115.378C110.736 96.5728 123.817 62.4992 193.524 62.4992C289.799 62.4992 293.748 132.528 293.748 132.528V279.33C293.748 279.33 290.76 299.996 276.03 299.996H119.877L68.7512 253.632H235.685V133.384C235.685 133.384 223.944 88.0907 170.897 88.0907C153.448 88.0907 140.78 92.354 131.636 98.0759C138.084 95.4432 145.138 93.9926 152.531 93.9926C183.146 93.9926 207.964 118.874 207.964 149.567C207.964 165.622 201.173 180.087 190.314 190.233C186.335 209.478 169.688 237.497 106.476 237.497C10.2011 237.497 6.25195 167.576 6.25195 167.576V20.6659C6.25195 20.6659 9.24053 0 23.97 0H180.123L231.249 46.3644H64.3158V166.612C64.3158 166.612 76.0566 211.906 129.104 211.906C144.773 211.906 156.587 208.468 165.456 203.623C161.309 204.615 156.981 205.141 152.531 205.141Z" fill="white"/>
</svg>
