<svg width="300" height="300" viewBox="0 0 300 300" fill="none" xmlns="http://www.w3.org/2000/svg">
<path d="M195.487 46.2743C195.487 71.7617 175.19 92.5486 150.303 92.5486C125.416 92.5486 105.119 71.7617 105.119 46.2743C105.119 20.7869 125.416 0 150.303 0C175.19 0 195.487 20.7869 195.487 46.2743Z" fill="white"/>
<path d="M104.505 103.567C104.505 122.464 89.4535 137.879 71.0016 137.879C52.5482 137.879 37.4971 122.464 37.4971 103.567C37.4971 84.6685 52.5482 69.2541 71.0016 69.2541C89.4535 69.2541 104.505 84.6685 104.505 103.567Z" fill="white"/>
<path d="M262.494 104.197C262.494 123.094 247.445 138.508 228.991 138.508C210.538 138.508 195.487 123.094 195.487 104.197C195.487 85.2979 210.538 69.8835 228.991 69.8835C247.445 69.8835 262.494 85.2979 262.494 104.197Z" fill="white"/>
<path d="M150.303 183.838C168.756 183.838 183.806 168.424 183.806 149.527C183.806 130.628 168.756 115.214 150.303 115.214C131.85 115.214 116.8 130.628 116.8 149.527C116.8 168.424 131.85 183.838 150.303 183.838Z" fill="white"/>
<path d="M82.6809 206.504C94.701 206.504 104.505 196.463 104.505 184.153C104.505 171.843 94.701 161.803 82.6809 161.803C70.6608 161.803 60.8571 171.843 60.8571 184.153C60.8571 196.463 70.6608 206.504 82.6809 206.504Z" fill="white"/>
<path d="M240.056 184.153C240.056 196.463 230.252 206.504 218.234 206.504C206.214 206.504 196.41 196.463 196.41 184.153C196.41 171.843 206.214 161.803 218.234 161.803C230.252 161.803 240.056 171.843 240.056 184.153Z" fill="white"/>
<path d="M149.996 253.093C162.016 253.093 171.819 243.052 171.819 230.742C171.819 218.432 162.016 208.392 149.996 208.392C137.976 208.392 128.172 218.432 128.172 230.742C128.172 243.052 137.976 253.093 149.996 253.093Z" fill="white"/>
<path d="M105.734 265.368C105.734 271.783 100.625 277.016 94.3617 277.016C88.098 277.016 82.9881 271.783 82.9881 265.368C82.9881 258.954 88.098 253.722 94.3617 253.722C100.625 253.722 105.734 258.954 105.734 265.368Z" fill="white"/>
<path d="M207.168 277.016C213.431 277.016 218.54 271.783 218.54 265.368C218.54 258.954 213.431 253.722 207.168 253.722C200.904 253.722 195.796 258.954 195.796 265.368C195.796 271.783 200.904 277.016 207.168 277.016Z" fill="white"/>
<path d="M161.984 288.348C161.984 294.763 156.874 299.996 150.61 299.996C144.347 299.996 139.238 294.763 139.238 288.348C139.238 281.933 144.347 276.702 150.61 276.702C156.874 276.702 161.984 281.933 161.984 288.348Z" fill="white"/>
</svg>
