<svg width="300" height="300" viewBox="0 0 300 300" fill="none" xmlns="http://www.w3.org/2000/svg">
<path d="M80.1004 191.271C-22.8055 47.6738 159.902 -72.4779 266.96 51.9324C145.311 -11.6472 42.3446 79.6058 80.1004 191.271Z" fill="white"/>
<path d="M196.993 216.034C62.2596 330.126 -71.5003 156.897 43.8302 40.1564C-9.87407 166.724 88.9139 262.508 196.993 216.034Z" fill="white"/>
<path d="M215.563 101.218C331.583 234.387 161.059 371.363 42.7192 257.689C169.832 309.42 263.706 208.792 215.563 101.218Z" fill="white"/>
<path d="M102.51 83.2117C236.505 -31.7498 371.379 140.608 256.803 258.095C309.69 131.181 210.287 36.0396 102.51 83.2117Z" fill="white"/>
<path d="M206.247 149.999C206.247 180.98 180.979 206.247 149.998 206.247C119.017 206.247 93.7488 180.98 93.7488 149.999C93.7488 119.017 119.017 93.7488 149.998 93.7488C180.979 93.7488 206.247 119.017 206.247 149.999Z" fill="white"/>
</svg>
