<svg width="300" height="300" viewBox="0 0 300 300" fill="none" xmlns="http://www.w3.org/2000/svg">
<path fill-rule="evenodd" clip-rule="evenodd" d="M38.2648 261.731H139.511L159.508 299.996H0V0H299.996V299.996H224.766L204.769 261.731L143.843 144.82H195.044L261.731 272.104V163.177C259.371 183.372 251.652 201.94 240.037 217.42L198.83 138.57H133.525L193.685 253.686C191.634 254.552 189.553 255.359 187.443 256.105L126.019 138.57H74.9991L139.511 261.731C86.684 256.838 44.3977 215.637 38.2648 163.177V261.731ZM38.2648 136.819C44.2932 85.253 85.253 44.2932 136.819 38.2648H38.2648V136.819ZM163.177 38.2648C214.743 44.2932 255.703 85.253 261.731 136.819V38.2648H163.177ZM85.3172 144.82H122.233L203.219 299.996H166.347L85.3172 144.82Z" fill="white"/>
</svg>
