<svg width="300" height="300" viewBox="0 0 300 300" fill="none" xmlns="http://www.w3.org/2000/svg">
<path fill-rule="evenodd" clip-rule="evenodd" d="M161.876 16.2498H179.526V50.6244L210.719 50.5869L228.869 68.7491H217.994L209.869 82.7802L216.85 82.8115L216.894 93.0676L228.35 93.1363L228.3 108.499L240.013 108.461L239.894 130.18C242.493 130.739 244.9 131.97 246.875 133.748C247.374 134.18 247.834 134.655 248.25 135.167C248.882 135.962 249.411 136.833 249.825 137.761L249.969 138.098L250.056 138.33H251.088C252.221 138.401 253.339 138.611 254.419 138.955C255.02 139.149 255.607 139.385 256.175 139.661C260.426 142.045 263.756 145.788 265.631 150.286C265.987 151.029 266.319 151.786 266.637 152.542L266.825 153.011C266.825 153.011 268.244 156.486 268.869 158.248C269.525 159.798 270.04 161.405 270.406 163.048L266.431 164.298C266.431 164.298 264.325 160.299 261.1 160.298H237.913L233.913 166.46H247.8V176.648H256.731V188.123H247.763V195.898H233.581L233.544 200.985H222.032L222.088 258.816L173.201 258.866V281.559H162.126V299.996H137.876V281.609H126.833V258.916L77.9459 258.866L78.0021 201.035H66.4835L66.446 195.948H52.2212V188.173H43.2963V176.585H52.2212V166.398H66.1085L62.1086 160.236H38.9214C35.6958 160.237 33.5902 164.235 33.5902 164.235L29.6152 162.985C29.9815 161.342 30.4965 159.736 31.1527 158.186C31.7777 156.417 33.1964 152.948 33.1964 152.948L33.3839 152.479C33.7027 151.717 34.0089 150.961 34.3902 150.223C36.2652 145.725 39.5957 141.983 43.8463 139.598C44.4144 139.322 45.0013 139.086 45.6025 138.892C46.6832 138.548 47.8019 138.339 48.9337 138.267C49.2775 138.267 49.6212 138.267 49.965 138.267L50.0587 138.036L50.2025 137.698C50.6162 136.771 51.1456 135.9 51.7775 135.105C52.1881 134.615 52.6393 134.161 53.1274 133.748C55.0937 131.98 57.4868 130.754 60.0711 130.192L59.9524 108.474L71.6585 108.511L71.6272 93.1238L83.0833 93.0551L83.1271 82.799L90.1082 82.7677L82.0083 68.7491H71.1335L89.2583 50.5806L120.452 50.6181V16.2435H138.126V0H161.876V16.2498ZM168.064 276.609V258.866H157.014V269.04H142.995V258.866H131.945V276.609H142.97V294.996H157.032V276.609H168.064ZM216.844 253.866L216.838 198.241H83.1646V253.866H216.844ZM194.826 247.184C194.883 247.493 194.859 247.813 194.757 248.109C194.628 248.497 194.462 248.871 194.263 249.228C194.029 249.658 193.72 250.044 193.351 250.366C193.203 250.544 192.998 250.666 192.769 250.709C192.534 250.63 192.32 250.498 192.144 250.322C191.882 250.105 191.607 249.883 191.319 249.653C191.1 249.488 190.891 249.308 190.694 249.116C190.554 249.011 190.458 248.857 190.426 248.684C190.601 248.316 190.738 248.028 190.826 247.828C191.126 247.195 191.349 246.736 191.494 246.453C191.761 246.036 192.03 245.593 192.301 245.122L192.569 244.734C192.652 244.814 192.742 244.884 192.838 244.947L193.194 245.159C193.647 245.49 194.066 245.865 194.444 246.278C194.653 246.539 194.791 246.849 194.844 247.178L194.826 247.184ZM161.351 240.984C163.367 240.99 165.379 240.796 167.357 240.403C169.11 240.061 170.835 239.594 172.52 239.003C174.043 238.455 175.486 237.703 176.807 236.766C178.056 235.905 179.183 234.878 180.157 233.716C180.424 233.37 180.84 232.826 181.407 232.085C181.676 231.71 181.87 231.46 181.988 231.31C182.107 231.16 182.138 231.191 182.17 231.222C182.205 231.271 182.221 231.331 182.213 231.391L182.17 231.866C182.14 232.124 182.074 232.676 181.97 233.522C181.873 234.264 181.82 235.011 181.813 235.76C181.776 236.875 181.965 237.988 182.37 239.028C182.691 239.853 183.518 240.376 184.401 240.316C185.026 240.316 185.636 239.851 186.232 238.922C186.94 237.703 187.438 236.374 187.707 234.991L187.82 234.435C187.858 234.264 187.88 234.09 187.888 233.916C187.888 233.628 187.813 233.485 187.663 233.485C187.513 233.485 187.445 233.616 187.376 233.872C187.307 234.128 187.232 234.36 187.176 234.56C186.851 235.447 186.478 235.891 186.057 235.891C185.566 235.905 185.083 235.77 184.67 235.503C183.952 234.905 183.583 233.982 183.688 233.053V232.385C183.688 231.868 183.734 231.101 183.826 230.085C183.926 228.955 184.059 227.83 184.226 226.71L185.163 222.197C185.205 221.977 185.249 221.755 185.295 221.535L186.338 220.829L190.513 217.666C191.709 216.895 192.901 216.116 194.088 215.329C195.118 214.645 196.13 213.941 197.126 213.216C198.734 212.041 199.94 211.145 200.744 210.529C201.815 209.696 202.576 209.096 203.026 208.729C203.476 208.362 203.915 207.96 204.344 207.522C204.882 207.01 205.396 206.479 205.888 205.929C206.329 205.421 206.732 204.882 207.094 204.316C207.457 203.824 207.744 203.281 207.944 202.704C208.004 202.599 208.034 202.481 208.032 202.36C208.032 202.41 206.915 203.356 204.682 205.197C203.519 206.181 202.342 207.152 201.151 208.11C199.871 209.127 198.561 210.112 197.219 211.066C195.319 212.391 193.413 213.708 191.501 215.016C189.656 216.325 187.888 217.74 186.207 219.254C185.808 219.597 185.46 219.997 185.176 220.441C185.121 220.515 185.071 220.592 185.026 220.672C184.822 221.015 184.638 221.37 184.476 221.735L184.276 222.128C183.897 222.835 183.569 223.568 183.295 224.322L182.67 226.772C182.358 227.907 181.859 228.982 181.195 229.953C180.273 231.175 179.101 232.185 177.757 232.916C174.078 234.948 169.981 236.11 165.782 236.31C164.77 236.397 163.415 236.441 161.72 236.441C159.679 236.72 157.604 236.264 155.87 235.153C155.501 234.744 155.281 234.222 155.245 233.672C155.201 233.11 155.132 232.835 155.045 232.835C154.807 232.835 154.622 233.322 154.489 234.297C154.357 235.237 154.291 236.185 154.289 237.135C154.221 238.001 154.467 238.865 154.982 239.566C155.707 240.218 156.624 240.618 157.595 240.703C158.629 240.865 159.674 240.938 160.72 240.922L161.351 240.984ZM148.133 234.241V234.278C148.758 233.666 149.128 233.291 149.245 233.153C149.711 232.625 150.089 232.026 150.364 231.378C150.725 230.476 150.987 229.537 151.145 228.578C151.332 227.692 151.442 226.79 151.476 225.885C151.476 225.135 151.476 224.347 151.476 223.522C151.476 222.697 151.528 221.864 151.632 221.022C151.632 220.241 151.676 219.772 151.676 219.56C151.676 219.522 151.676 219.485 151.676 219.454C151.77 219.404 151.889 219.329 152.026 219.241L153.345 218.341L156.539 216.179C157.789 215.374 159.022 214.562 160.239 213.741C161.306 213.029 162.347 212.291 163.364 211.529C165.03 210.279 166.28 209.337 167.114 208.704C168.23 207.841 169.022 207.216 169.489 206.829C169.955 206.441 170.418 206.012 170.876 205.541C171.443 204.996 171.987 204.429 172.507 203.841C172.979 203.291 173.411 202.708 173.801 202.097C174.194 201.559 174.51 200.968 174.738 200.341C174.805 200.225 174.841 200.094 174.845 199.96C174.845 200.018 173.676 201.021 171.338 202.966C170.122 204.008 168.893 205.037 167.651 206.054C166.318 207.129 164.953 208.171 163.557 209.179C161.587 210.566 159.609 211.943 157.626 213.31C156.102 214.322 154.641 215.425 153.251 216.616C152.83 216.98 152.462 217.4 152.157 217.866C151.857 218.332 151.592 218.818 151.364 219.322L151.289 219.497V219.535L149.776 223.041C149.635 223.393 149.559 223.768 149.551 224.147C149.522 224.635 149.508 225.199 149.508 225.841L149.551 228.641C149.593 229.554 149.442 230.465 149.108 231.316C148.969 231.605 148.797 231.878 148.595 232.128C148.454 232.318 148.28 232.48 148.083 232.61L147.814 232.735C147.602 232.759 147.388 232.731 147.189 232.653C147.039 232.878 146.889 233.085 146.739 233.278C146.501 233.591 146.174 233.825 145.801 233.947C145.624 234.043 145.404 234.01 145.264 233.866C145.058 234.06 144.864 234.26 144.683 234.453C144.402 234.752 144.017 234.931 143.608 234.953C143.204 234.955 142.801 234.926 142.401 234.866C141.743 235.311 141.101 235.758 140.476 236.203C139.944 236.545 139.321 236.719 138.689 236.703C137.627 236.796 136.596 236.298 136.008 235.41C135.651 234.758 135.483 234.02 135.52 233.278C135.52 232.941 135.52 232.403 135.608 231.647C135.683 230.752 135.787 229.86 135.92 228.972L136.683 223.872L136.864 222.785C136.916 222.566 136.931 222.34 136.908 222.116L136.726 222.197C136.46 222.727 136.103 223.505 135.658 224.535C135.212 225.564 134.975 226.135 134.945 226.247C134.737 227.614 134.468 229.585 134.139 232.16C133.81 234.735 133.645 236.193 133.645 236.535C133.652 236.92 133.681 237.303 133.733 237.685C133.763 238.048 133.836 238.407 133.951 238.753C134.263 240.051 135.436 240.971 136.77 240.966C138.005 240.907 139.123 240.21 139.72 239.128C140.553 237.903 141.224 237.291 141.733 237.291L142.358 237.353C142.528 237.376 142.7 237.376 142.87 237.353C143.192 237.23 143.487 237.045 143.739 236.81C143.994 236.584 144.263 236.375 144.545 236.185C144.737 236.077 144.951 236.013 145.17 235.997C145.36 235.984 145.544 235.926 145.708 235.828C145.945 235.603 146.145 235.428 146.333 235.303C146.484 235.185 146.65 235.086 146.826 235.01C146.989 234.941 147.326 234.778 147.833 234.528L148.101 234.316L148.133 234.241ZM115.452 229.372C115.423 229.95 115.347 230.525 115.227 231.091C115.077 231.891 114.927 232.593 114.777 233.197L114.239 235.303C113.939 236.103 113.702 236.691 113.527 237.066C113.307 237.523 113.06 237.968 112.789 238.397C112.604 238.698 112.369 238.966 112.095 239.191C111.715 239.461 111.312 239.698 110.889 239.897L109.283 240.522C108.939 240.629 108.588 240.715 108.233 240.778C107.888 240.863 107.537 240.921 107.183 240.953C107.033 240.953 106.946 240.903 106.914 240.803C106.89 240.676 106.922 240.543 107.002 240.441C107.313 240.023 107.694 239.661 108.127 239.372C108.739 238.914 109.344 238.47 109.939 238.041C110.622 237.436 111.129 236.964 111.458 236.622C111.97 236.088 112.419 235.496 112.795 234.86C112.947 234.577 113.075 234.283 113.177 233.978C113.339 233.536 113.6 232.814 113.958 231.81L114.495 230.26C114.554 230.03 114.644 229.752 114.764 229.422C114.883 229.097 115.033 228.928 115.214 228.928C115.326 229.05 115.404 229.198 115.439 229.36L115.452 229.372ZM111.164 217.404C111.195 217.309 111.179 217.204 111.12 217.122C111.035 217.019 110.929 216.936 110.808 216.879C110.256 216.999 109.728 217.21 109.246 217.504C108.671 217.796 108.117 218.128 107.589 218.497C107.022 218.889 106.56 219.233 106.202 219.529C105.391 220.246 104.629 221.017 103.921 221.835C102.971 222.901 102.174 224.093 101.552 225.378C101.062 226.299 100.772 227.313 100.702 228.353C100.677 228.787 100.802 229.215 101.058 229.566C101.335 229.89 101.687 230.141 102.083 230.297C102.284 230.39 102.493 230.463 102.708 230.516C102.887 230.558 103.185 230.639 103.602 230.76C104.019 230.88 104.227 231.061 104.227 231.303C104.199 231.796 104.036 232.271 103.758 232.678C103.374 233.278 102.916 233.829 102.396 234.316C101.743 234.933 100.988 235.433 100.164 235.791C99.0019 236.326 97.7375 236.603 96.4582 236.603C95.1894 236.681 93.9288 236.348 92.8645 235.653C92.0476 235.058 91.5782 234.095 91.6145 233.085C91.7645 231.48 92.2026 229.915 92.9082 228.466L93.4457 227.335C93.8038 226.58 94.0726 226.041 94.2519 225.716C94.5769 225.091 94.7957 224.653 94.8769 224.397C94.9582 224.141 95.1207 223.81 95.3019 223.403C95.3676 223.265 95.3976 223.113 95.3894 222.96C95.3894 222.716 95.2832 222.597 95.0769 222.597C94.9894 222.597 94.8769 222.703 94.7394 222.922C94.6019 223.141 94.4769 223.353 94.3582 223.547L93.3332 225.535L92.0395 228.085C91.4995 229.144 91.0357 230.24 90.652 231.366C90.4195 232.047 90.2395 232.745 90.1145 233.453C89.9932 234.155 89.9326 234.866 89.9332 235.578C89.9401 236.188 90.0301 236.793 90.202 237.378C90.3926 238.034 90.7114 238.646 91.1395 239.178C92.1663 240.385 93.7182 241.019 95.2957 240.878C96.8163 240.91 98.3156 240.518 99.6269 239.747C100.289 239.363 100.904 238.901 101.458 238.372C101.989 237.87 102.482 237.329 102.933 236.753C103.815 235.498 104.494 234.113 104.946 232.647C105.412 231.296 105.67 229.882 105.708 228.453C105.801 227.777 105.529 227.098 104.996 226.672C104.852 226.568 104.694 226.486 104.527 226.428L103.971 226.228L103.164 225.86C102.982 225.675 102.871 225.431 102.852 225.172C102.966 224.772 103.181 224.408 103.477 224.116C104.013 223.47 104.619 222.885 105.283 222.372C105.832 221.883 106.449 221.475 107.114 221.16C107.559 220.93 108.046 220.792 108.546 220.753C108.649 220.758 108.749 220.794 108.833 220.854L109.171 221.079C109.352 221.079 109.558 220.916 109.795 220.591C109.858 220.51 110.027 220.191 110.308 219.641C110.538 219.22 110.747 218.789 110.933 218.347C111.052 218.04 111.142 217.722 111.202 217.397L111.164 217.404ZM129.82 234.766L129.195 236.353C128.93 236.922 128.607 237.462 128.233 237.966C127.982 238.341 127.675 238.674 127.32 238.953C126.896 239.194 126.448 239.388 125.983 239.535L125.045 239.878C124.566 240.028 124.089 240.186 123.614 240.353C123.15 240.51 122.67 240.61 122.183 240.653L122.002 240.566C122.002 240.366 122.537 239.936 123.608 239.278L125.352 238.078C125.647 237.878 125.975 237.635 126.333 237.347C126.748 237.009 127.139 236.641 127.502 236.247C127.871 235.869 128.153 235.415 128.327 234.916C128.331 234.829 128.346 234.743 128.37 234.66L127.208 234.747C126.715 234.765 126.233 234.588 125.87 234.253C125.54 233.993 125.369 233.577 125.42 233.16C125.464 232.879 125.539 232.604 125.645 232.341C125.764 232.028 126.033 231.453 126.452 230.622C126.682 230.143 126.952 229.683 127.258 229.247C127.645 228.728 128.02 228.472 128.377 228.472C128.979 228.476 129.55 228.743 129.939 229.203C130.383 229.681 130.623 230.314 130.608 230.966C130.608 231.311 130.578 231.656 130.52 231.997L130.364 232.897C130.32 233.153 130.251 233.466 130.164 233.822C130.089 234.14 129.984 234.449 129.852 234.747L129.82 234.766ZM123.089 229.035C123.06 229.614 122.984 230.188 122.864 230.753C122.714 231.553 122.564 232.255 122.414 232.86L121.877 234.997C121.577 235.801 121.339 236.389 121.164 236.76C120.944 237.217 120.698 237.661 120.427 238.091C120.24 238.391 120.005 238.659 119.733 238.885C119.352 239.155 118.949 239.391 118.527 239.591L116.92 240.216C116.576 240.323 116.225 240.408 115.87 240.472C115.525 240.556 115.174 240.615 114.82 240.647C114.67 240.647 114.583 240.597 114.552 240.497C114.527 240.37 114.559 240.237 114.639 240.134C114.953 239.713 115.338 239.349 115.777 239.06C116.389 238.601 116.994 238.158 117.589 237.728C118.272 237.128 118.779 236.655 119.108 236.31C119.62 235.775 120.069 235.184 120.445 234.547C120.597 234.265 120.725 233.97 120.827 233.666C120.989 233.22 121.25 232.497 121.608 231.497L122.145 229.947C122.208 229.716 122.295 229.441 122.414 229.11C122.533 228.778 122.683 228.616 122.864 228.616C122.973 228.733 123.05 228.877 123.089 229.035ZM192.276 232.435C192.276 232.091 192.276 231.535 192.363 230.76C192.438 229.839 192.543 228.922 192.676 228.01L193.438 222.766L193.619 221.647C193.673 221.422 193.688 221.19 193.663 220.96L193.482 221.047C193.215 221.593 192.857 222.395 192.407 223.453C191.957 224.512 191.719 225.099 191.694 225.216C191.486 226.62 191.218 228.647 190.888 231.297C190.559 233.947 190.395 235.439 190.395 235.772C190.358 236.888 190.546 238 190.951 239.041C191.273 239.865 192.099 240.389 192.982 240.328C193.607 240.328 194.218 239.864 194.813 238.935C195.521 237.715 196.019 236.386 196.288 235.003L196.401 234.447C196.439 234.276 196.461 234.103 196.469 233.928C196.469 233.641 196.394 233.497 196.244 233.497C196.094 233.497 196.032 233.628 195.957 233.885L195.757 234.572C195.428 235.46 195.055 235.903 194.638 235.903C194.148 235.917 193.664 235.782 193.251 235.516C192.533 234.917 192.164 233.995 192.269 233.066V232.441L192.276 232.435ZM117.502 219.641C117.559 219.951 117.535 220.269 117.433 220.566C117.302 220.953 117.137 221.328 116.939 221.685C116.705 222.115 116.396 222.5 116.027 222.822C115.879 223.002 115.674 223.123 115.445 223.166C115.21 223.087 114.995 222.955 114.82 222.778C114.545 222.549 114.262 222.327 113.97 222.11C113.751 221.944 113.542 221.765 113.345 221.572C113.205 221.468 113.109 221.313 113.077 221.141C113.256 220.77 113.389 220.485 113.477 220.285C113.777 219.66 113.995 219.197 114.145 218.91C114.414 218.479 114.683 218.035 114.952 217.579L115.22 217.191C115.303 217.272 115.393 217.345 115.489 217.41L115.845 217.622C116.299 217.952 116.717 218.327 117.095 218.741C117.306 219 117.446 219.31 117.502 219.641ZM140.92 213.929C140.866 213.599 140.728 213.289 140.52 213.029C140.141 212.615 139.723 212.24 139.27 211.91L138.914 211.697C138.818 211.635 138.728 211.564 138.645 211.485L138.376 211.872C138.11 212.33 137.841 212.774 137.57 213.204C137.42 213.491 137.197 213.949 136.901 214.579C136.814 214.779 136.676 215.066 136.501 215.435C136.534 215.607 136.63 215.761 136.77 215.866C136.967 216.058 137.176 216.238 137.395 216.404C137.683 216.616 137.966 216.837 138.245 217.066C138.42 217.243 138.634 217.376 138.87 217.454C139.098 217.411 139.305 217.29 139.451 217.11C139.823 216.788 140.133 216.403 140.37 215.972C140.569 215.615 140.734 215.241 140.864 214.854C140.966 214.557 140.99 214.237 140.933 213.929H140.92ZM145.52 213.672C145.578 213.982 145.554 214.3 145.451 214.597C145.321 214.985 145.156 215.359 144.958 215.716C144.724 216.147 144.415 216.532 144.045 216.854C143.898 217.034 143.692 217.155 143.464 217.197C143.228 217.118 143.014 216.985 142.839 216.81C142.564 216.58 142.281 216.358 141.989 216.141C141.769 215.975 141.561 215.796 141.364 215.604C141.223 215.499 141.128 215.345 141.095 215.172C141.276 214.804 141.408 214.51 141.495 214.316C141.712 213.854 141.934 213.395 142.164 212.941C142.393 212.487 142.662 212.043 142.97 211.61L143.239 211.222C143.321 211.302 143.411 211.374 143.508 211.435L143.864 211.654C144.316 211.984 144.735 212.359 145.114 212.772C145.326 213.031 145.468 213.34 145.526 213.672H145.52ZM186.563 213.354C186.62 213.664 186.596 213.982 186.495 214.279C186.365 214.666 186.2 215.04 186.001 215.397C185.766 215.827 185.457 216.212 185.088 216.535C184.941 216.714 184.735 216.836 184.507 216.879C184.271 216.8 184.058 216.667 183.882 216.491C183.607 216.262 183.324 216.039 183.032 215.822C182.812 215.657 182.603 215.478 182.407 215.285C182.266 215.18 182.17 215.026 182.138 214.854C182.318 214.483 182.451 214.197 182.538 213.997C182.838 213.372 183.057 212.91 183.207 212.622C183.476 212.191 183.745 211.747 184.013 211.291L184.282 210.904C184.365 210.985 184.455 211.058 184.551 211.122L184.907 211.335C185.36 211.665 185.78 212.039 186.157 212.454C186.37 212.712 186.506 213.022 186.563 213.354ZM143.195 208.354C143.139 208.024 142.999 207.714 142.789 207.454C142.411 207.039 141.993 206.664 141.539 206.335L141.183 206.122C141.086 206.061 140.996 205.99 140.914 205.91L140.645 206.297C140.376 206.754 140.108 207.197 139.839 207.629C139.689 207.916 139.464 208.372 139.17 209.004C139.083 209.204 138.945 209.491 138.764 209.86C138.796 210.032 138.892 210.187 139.033 210.291C139.214 210.466 139.426 210.647 139.658 210.854L140.508 211.522C140.686 211.689 140.899 211.814 141.133 211.885C141.361 211.842 141.566 211.72 141.714 211.541C142.083 211.219 142.392 210.834 142.626 210.404C142.824 210.047 142.99 209.672 143.12 209.285C143.223 208.987 143.246 208.669 143.189 208.36L143.195 208.354ZM122.258 193.291V152.667L104.758 135.167L65.821 135.192C56.1837 135.192 54.1212 138.748 54.0462 144.461C46.9213 140.867 41.2463 146.261 37.7964 155.242H81.0771L105.821 193.291H122.258ZM147.501 193.266V146.911L130.095 134.248V69.0554L122.152 55.3056L91.7457 55.2556L84.8708 62.1305H95.5457L107.233 82.374V130.567L127.233 150.567V193.266H147.501ZM99.8519 193.266L78.3584 160.217H68.1835L89.627 193.266H99.8519ZM215.113 62.1867L208.238 55.3118H177.851L169.907 69.0616V134.255L152.501 146.911V193.266H172.77L172.751 150.623L192.751 130.623V82.4302L204.438 62.1867H215.113ZM194.182 193.266L218.925 155.217L262.212 155.192C258.781 146.211 253.106 140.798 245.963 144.411C245.894 138.698 243.825 135.142 234.188 135.142H195.269L177.77 152.642V193.266H194.182ZM210.376 193.266L231.85 160.217H221.669L200.176 193.266H210.376ZM234.169 184.323L234.163 178.635H225.832L222.138 184.323H234.169ZM77.8646 184.323L74.1709 178.635H65.8398V184.323H77.8646ZM156.745 21.2497L156.751 4.99994H143.258V21.2497H125.627L125.57 51.2494L135.095 67.7242V131.698L147.501 140.723V125.886L143.051 122.648V30.2246H156.951V122.655L152.501 125.892V140.729L164.907 131.73V67.7492L174.432 51.2494L174.376 21.2497H156.745ZM202.763 130.167V84.9052L213.007 67.1617H207.338L197.763 83.749V130.167H202.763ZM87.1395 130.167H92.1395V115.261H87.1395V130.167ZM92.6895 67.1617H87.0208L97.2644 84.9052V130.167H102.264V83.749L92.6895 67.1617ZM207.888 130.167H212.888V115.261H207.888V130.167Z" fill="white"/>
</svg>
