<svg width="300" height="300" viewBox="0 0 300 300" fill="none" xmlns="http://www.w3.org/2000/svg">
<path d="M265.414 61.1301L299.975 48.1715V26.4034L263.904 44.4497L299.975 15.4631V0H285.574L253.273 35.0145L274.739 0H254.433L236.156 33.343C249.149 38.6148 259.563 48.6452 265.414 61.1301Z" fill="white"/>
<path d="M299.975 120.256L266.226 106.082C268.507 100.71 269.968 94.8843 270.439 88.7456C271.113 80.0129 269.71 71.5985 266.653 63.985L299.975 55.9263V70.4741L280.095 75.862L299.975 79.6679V94.2551L284.272 94.8682L299.975 100.682V120.256Z" fill="white"/>
<path d="M0 203.18V161.504L161.881 98.0949C165.156 110.991 173.006 122.194 183.721 129.718L83.4434 299.975H41.1854L131.127 169.552L0 299.996V234.592L112.321 146.681L0 203.18Z" fill="white"/>
<path d="M116.007 299.975L186.858 131.767C194.011 136.095 202.257 138.862 211.161 139.547C216.939 139.992 222.577 139.529 227.938 138.279L270.597 299.975H237.511L214.767 190.941L213.274 299.975H179.484L187.329 193.145L156.946 299.975H116.007Z" fill="white"/>
<path d="M232.118 137.128L299.689 299.308L299.975 299.975V224.676L263.702 162.134L299.975 195.784V169.958L277.279 139.581L299.975 150.866V130.986L264.497 109.768C257.788 122.788 246.092 132.68 232.118 137.128Z" fill="white"/>
<path d="M245.96 0L233.552 32.3634C229.156 30.835 224.497 29.8411 219.64 29.4674C211.664 28.8525 203.952 29.968 196.875 32.4957L189.029 0H205.13L208.857 13.8417L209.377 0H224.17L223.096 17.8103L228.612 0H245.96Z" fill="white"/>
<path d="M194.077 33.5772L180.927 0H161.837L168.832 15.6937L156.202 0H130.984L151.83 22.8049L119.677 0H69.9915L168.004 56.1927C174.055 46.0836 183.221 38.1357 194.077 33.5772Z" fill="white"/>
<path d="M35.894 0L166.383 59.0886C163.063 65.483 160.948 72.6336 160.36 80.2686C159.979 85.2096 160.265 90.047 161.136 94.6966L0 138.036V99.7735L105.285 85.5957L0 78.8724V47.2831L112.641 61.9149L0 29.4674V0H35.894Z" fill="white"/>
</svg>
