<svg width="300" height="300" viewBox="0 0 300 300" fill="none" xmlns="http://www.w3.org/2000/svg">
<path fill-rule="evenodd" clip-rule="evenodd" d="M232.337 235.642C211.639 255.556 184.007 266.691 155.285 266.691C109.417 266.691 68.0549 238.293 51.5738 195.488C51.2607 194.643 50.5363 194.013 49.6557 193.821C48.7814 193.6 47.852 193.84 47.1945 194.456L0.889466 236.713C0.340098 237.202 0.0188516 237.898 0.00260185 238.632C-0.0298977 239.365 0.243224 240.08 0.756967 240.603C30.5047 272.014 71.9117 289.828 115.173 289.828C163.027 289.828 208.366 268.03 238.251 230.654C238.31 230.584 238.343 230.495 238.343 230.403C238.343 230.189 238.167 230.014 237.953 230.014C237.839 230.014 237.73 230.064 237.656 230.152C235.953 232.004 234.18 233.834 232.337 235.642ZM173.424 88.814C220.828 102.518 253.694 146.23 253.694 195.576C253.694 220.997 244.971 245.665 228.99 265.436C228.41 266.131 228.225 267.076 228.5 267.937C228.747 268.806 229.422 269.49 230.287 269.749L290.034 288.708C290.298 288.791 290.574 288.833 290.851 288.833C292.056 288.833 293.126 288.037 293.474 286.882C297.8 272.317 299.996 257.202 299.996 242.008C299.996 164.461 242.77 97.8577 166.107 86.1809C165.912 86.1472 165.722 86.2684 165.671 86.4591C165.661 86.4928 165.657 86.5278 165.657 86.5622C165.657 86.7453 165.784 86.9059 165.962 86.9484C168.467 87.4778 170.954 88.0997 173.424 88.814ZM151.651 125.005C181.588 120.124 209.856 140.467 214.737 170.403C219.617 200.34 199.275 228.608 169.339 233.489C139.401 238.37 111.134 218.027 106.253 188.09C101.372 158.153 121.714 129.886 151.651 125.005ZM75.7323 213.257C73.5773 204.535 72.488 195.584 72.488 186.6C72.488 125.634 122.655 75.4667 183.621 75.4667C189.399 75.4667 195.168 75.9173 200.876 76.8142C201.009 76.8336 201.143 76.8436 201.277 76.8436C202.787 76.8436 204.029 75.6017 204.029 74.0917C204.029 73.9042 204.01 73.7167 203.972 73.533L190.516 12.3175C190.366 11.6006 189.926 10.9775 189.3 10.5975C188.682 10.1969 187.923 10.0719 187.209 10.2531C116.534 27.1454 66.2668 90.8415 66.2668 163.508C66.2668 183.137 69.9349 202.595 77.0816 220.877C77.1548 221.06 77.3535 221.162 77.5448 221.116C77.7135 221.072 77.8323 220.918 77.8323 220.744C77.8323 220.699 77.8248 220.655 77.8091 220.612C77.0416 218.205 76.3404 215.731 75.7323 213.257Z" fill="white"/>
</svg>
