<svg width="300" height="300" viewBox="0 0 300 300" fill="none" xmlns="http://www.w3.org/2000/svg">
<path d="M183.445 33.1322L150.35 0L64.9708 85.2636C52.1862 98.2966 37.2895 96.9013 21.904 95.4603C20.8327 95.36 19.7592 95.2594 18.6837 95.1635C34.4501 130.973 76.039 141.108 100.437 116.572L183.445 33.1322Z" fill="white"/>
<path d="M33.0957 116.935L116.441 200.037C140.951 224.47 130.828 266.101 95.0541 281.88C95.1499 280.807 95.2502 279.735 95.3503 278.666C96.792 263.266 98.1885 248.349 85.168 235.543L0.000976562 150.072L33.0957 116.935Z" fill="white"/>
<path d="M149.863 299.996L116.763 266.867L199.769 183.424C224.172 158.889 265.761 169.024 281.519 204.835C280.449 204.74 279.381 204.639 278.315 204.539C262.931 203.096 248.028 201.698 235.235 214.735L149.863 299.996Z" fill="white"/>
<path d="M299.997 149.852L266.903 182.989L183.557 99.8895C159.049 75.4588 169.173 33.8227 204.942 18.046C204.846 19.1209 204.745 20.1942 204.645 21.2651C203.206 36.6612 201.811 51.5785 214.83 64.383L299.997 149.852Z" fill="white"/>
<path d="M150.003 103.124C124.114 103.124 103.125 124.123 103.125 150.008C103.125 175.888 124.114 196.873 150 196.873C175.882 196.873 196.874 175.9 196.874 150.008C196.874 124.123 175.882 103.124 150.003 103.124Z" fill="white"/>
</svg>
