<svg width="300" height="300" viewBox="0 0 300 300" fill="none" xmlns="http://www.w3.org/2000/svg">
<path fill-rule="evenodd" clip-rule="evenodd" d="M126.738 23.4336C159.968 23.4336 190.214 36.2111 212.82 57.1179C177.126 91.9329 159.024 131.714 155.215 142.246C154.646 143.981 153.012 144.137 152.052 142.506C138.505 109.88 103.402 85.3565 69.7067 86.2528C68.2456 86.305 67.6454 87.8631 68.6943 88.9834C94.5512 125.977 80.253 206.217 151.243 241.553C154.072 243.001 155.449 241.735 155.622 239.755C165.646 153.147 228.412 63.8036 296.825 41.4013C297.232 41.245 298.526 41.0678 299.387 41.9693C300.253 42.876 300.024 44.1632 299.742 44.6478C282.48 72.553 273.833 123.7 258.637 169.062C238.113 230.318 195.01 276.555 126.738 276.555C56.7547 276.555 0 219.88 0 149.995C0 80.109 56.7547 23.4336 126.738 23.4336Z" fill="white"/>
</svg>
