<svg width="300" height="300" viewBox="0 0 300 300" fill="none" xmlns="http://www.w3.org/2000/svg">
<path d="M149.998 0C111.483 0 79.5794 28.5284 74.2836 65.5888C94.3313 47.385 120.887 36.2947 149.998 36.2947C179.109 36.2947 205.665 47.385 225.713 65.5888C220.417 28.5284 188.513 0 149.998 0Z" fill="white"/>
<path d="M65.6963 74.268C47.818 94.3817 36.9437 120.923 36.9437 149.998C36.9437 179.074 47.818 205.615 65.6963 225.728C28.5836 220.479 0 188.55 0 149.998C0 111.446 28.5836 79.5173 65.6963 74.268Z" fill="white"/>
<path d="M299.996 149.998C299.996 111.446 271.413 79.5173 234.3 74.268C252.179 94.3817 263.054 120.923 263.054 149.998C263.054 179.074 252.179 205.615 234.3 225.728C271.413 220.479 299.996 188.55 299.996 149.998Z" fill="white"/>
<path fill-rule="evenodd" clip-rule="evenodd" d="M145.119 93.9193C109.859 96.5524 85.7593 132.36 96.2057 166.592C110.208 212.468 172.304 220.665 197.584 179.975C222.07 140.559 191.524 90.4526 145.119 93.9193ZM145.551 180.165C145.848 180.942 145.772 193.944 145.467 194.133C144.587 194.679 134.159 180.864 134.739 179.92C135.064 179.395 145.346 179.629 145.551 180.165ZM185.706 179.999C186.499 181.283 176.368 189.164 169.855 192.331C164.759 194.808 164.524 194.72 167.004 191.268C169.347 188.003 171.846 183.888 172.958 181.453L173.771 179.674H179.639C183.385 179.674 185.579 179.791 185.706 179.999ZM124.455 179.674H119.395C115.317 179.674 114.334 179.756 114.334 180.1C114.334 182.086 129.534 193.378 132.207 193.378C132.62 193.378 132.183 192.595 129.692 188.857C128.22 186.648 126.438 183.678 125.735 182.258L124.455 179.674ZM158.936 179.674H154.447V186.048C154.447 191.031 154.531 192.387 154.835 192.255C156.014 191.745 163.97 180.552 163.591 179.937C163.502 179.791 161.407 179.674 158.936 179.674ZM145.589 154.833C145.682 155.218 145.719 158.967 145.673 163.164L145.585 170.797L130.215 170.963L129.426 168.367C127.989 163.654 126.474 155.179 126.933 154.435C127.047 154.25 130.687 154.132 136.267 154.132H145.417L145.589 154.833ZM114.468 170.952C117.985 170.952 120.862 170.847 120.862 170.718C120.862 170.589 120.448 168.847 119.944 166.848C119.117 163.574 118.216 158.281 117.992 155.379L117.908 154.287L110.891 154.205C107.033 154.158 103.779 154.216 103.661 154.334C102.77 155.229 104.779 163.786 107.035 168.694L108.074 170.952H114.468ZM168.049 170.952L169.043 167.545C170.323 163.155 171.185 158.866 171.303 156.313L171.394 154.287L163.132 154.205C158.589 154.16 154.776 154.218 154.658 154.334C154.542 154.452 154.447 158.238 154.447 162.749V170.952H168.049ZM192.011 170.952L193.126 168.281C194.848 164.16 196.923 155.698 196.5 154.521C196.343 154.085 180.723 153.934 180.465 154.365C180.389 154.495 180.23 155.509 180.113 156.623C179.741 160.155 178.693 166.158 178.064 168.358C177.73 169.526 177.458 170.587 177.458 170.716C177.458 170.847 180.732 170.952 184.734 170.952H192.011ZM145.551 128.149C145.654 128.42 145.74 132.263 145.74 136.69C145.74 141.115 145.654 144.958 145.551 145.229C145.327 145.814 127.287 145.993 126.929 145.416C126.183 144.205 129.709 128.667 130.905 127.904C131.719 127.387 145.346 127.615 145.551 128.149ZM114.813 127.656H108.742L107.533 130.07C105.374 134.38 102.934 143.616 103.538 145.195C103.727 145.688 104.352 145.726 110.816 145.649L117.89 145.567L118.252 142.296C118.683 138.398 119.39 134.81 120.44 131.179C120.864 129.714 121.138 128.321 121.046 128.086C120.916 127.742 119.681 127.656 114.813 127.656ZM167.883 128.902C169.282 131.769 171.926 143.978 171.429 145.277C171.28 145.664 170.002 145.72 162.929 145.649L154.602 145.567L154.52 137.006C154.473 132.296 154.505 128.263 154.589 128.045C154.708 127.733 156.138 127.661 161.047 127.729L167.351 127.813L167.883 128.902ZM196.582 145.567L196.481 144.32C196.175 140.57 194.24 133.769 192.449 130.145L191.296 127.813L177.075 127.645L177.245 128.506C177.338 128.981 177.777 130.771 178.217 132.485C178.956 135.348 179.583 138.933 180.182 143.698L180.415 145.567H196.582ZM145.74 112.075C145.74 115.478 145.654 118.484 145.551 118.754C145.335 119.317 135.678 119.51 135.336 118.956C134.829 118.136 144.682 105.235 145.451 105.712C145.613 105.811 145.74 108.601 145.74 112.075ZM179.029 119.246C182.695 119.246 184.645 119.132 184.783 118.908C185.492 117.758 175.334 109.892 170.138 107.566L169.934 107.474C167.099 106.204 165.738 105.594 165.499 105.891C165.277 106.165 166.011 107.21 167.422 109.22L167.532 109.377C168.875 111.292 170.765 114.297 171.732 116.054L173.485 119.246H179.029ZM124.897 119.246L126.028 116.988C127.054 114.944 130.892 108.911 131.943 107.698C132.178 107.427 132.368 107.042 132.368 106.841C132.368 106.28 132.148 106.362 128.418 108.315C123.188 111.053 114.531 117.996 115.132 118.969C115.225 119.123 117.461 119.246 120.1 119.246H124.897ZM156.727 109.582C159.442 112.886 163.243 118.659 162.918 118.984C162.763 119.139 160.828 119.227 158.619 119.179L154.602 119.091L154.51 112.708C154.459 109.288 154.438 107.837 154.832 107.714C155.122 107.623 155.637 108.252 156.532 109.345L156.727 109.582Z" fill="white"/>
<path d="M225.713 234.407C220.417 271.468 188.513 299.996 149.998 299.996C111.483 299.996 79.5794 271.468 74.2836 234.407C94.3313 252.612 120.887 263.702 149.998 263.702C179.109 263.702 205.665 252.612 225.713 234.407Z" fill="white"/>
<path d="M101.719 66.0398C97.534 70.6983 96.2672 73.4518 96.0443 78.3651C95.7896 84.0245 96.1133 84.8949 102.339 95.3353C107.292 103.644 108.334 104.348 111.971 101.865C112.847 101.267 114.8 99.9286 116.31 98.8923C122.948 94.3344 131.832 90.8622 140.366 89.4923C147.754 88.306 147.833 88.087 144.97 76.5432C142.521 66.6617 141.974 65.42 138.56 61.9636C133.929 57.2784 127.358 55.4615 118.991 56.5601C112.207 57.4509 106.741 60.4515 101.719 66.0398Z" fill="white"/>
<path d="M159.775 89.4923C152.326 88.2961 152.204 87.927 155.294 75.9766C158.865 62.155 162.749 57.8053 172.6 56.5837C184.664 55.0929 194.935 59.8726 201.502 70.0351C206.542 77.8361 204.857 85.2186 194.442 100.965C192.765 103.499 190.247 103.59 187.17 101.223C179.39 95.2405 169.681 91.0833 159.775 89.4923Z" fill="white"/>
<path d="M58.5401 133.821C61.2731 139.619 64.9276 141.887 76.0963 144.71C87.8019 147.669 88.5635 147.467 89.416 141.214C90.7322 131.561 94.7636 121.788 100.851 113.497C104.742 108.197 104.452 107.605 95.2589 102.108C83.9619 95.3511 80.3173 94.3996 73.9888 96.5551C60.3733 101.196 52.3204 120.621 58.5401 133.821Z" fill="white"/>
<path d="M199.213 113.428C195.391 108.257 195.728 107.584 204.882 102.108C212.45 97.5815 213.973 96.8037 216.505 96.1799C232.035 92.3408 247.042 111.342 242.983 129.704C241.121 138.132 236.871 141.486 223.942 144.728C212.349 147.633 211.625 147.451 210.739 141.395C209.271 131.354 205.245 121.591 199.213 113.428Z" fill="white"/>
<path d="M62.1098 161.433C46.4123 177.207 65.0025 210.458 85.4557 203.186C87.938 202.302 101.467 194.38 102.274 193.336C103.665 191.536 103.28 189.7 100.823 186.4C94.9432 178.508 90.6552 168.064 89.3903 158.555C88.5833 152.491 87.6323 152.234 76.5661 155.085C66.4352 157.694 65.3617 158.164 62.1098 161.433Z" fill="white"/>
<path d="M199.168 186.613C205.338 178.202 209.295 168.543 210.765 158.302C211.195 155.312 211.846 154.157 213.517 153.429C214.074 153.186 214.615 152.98 214.717 152.975C215.518 152.919 232.05 157.347 233.562 158.02C246.617 163.843 247.252 185.693 234.713 197.637C225.404 206.5 219.5 206.587 205.21 198.074C195.655 192.379 195.356 191.81 199.168 186.613Z" fill="white"/>
<path d="M99.1561 209.935C93.7315 219.378 94.8444 227.021 102.824 235.097C114.915 247.336 135.983 246.424 142.055 233.399C142.931 231.516 146.947 216.155 146.945 214.69C146.941 212.458 145.303 211.299 141.234 210.65C130.991 209.011 121.525 205.113 113.695 199.303C110.767 197.132 108.892 196.589 107.233 197.43C106.522 197.791 103.002 203.241 99.1561 209.935Z" fill="white"/>
<path d="M155.185 223.551C152.271 212.019 152.415 211.581 159.444 210.541C169.014 209.124 179.441 204.69 187.206 198.737C190.659 196.09 192.756 196.384 194.917 199.816C202.433 211.749 204.235 215.752 204.223 220.496C204.178 239.319 175.035 251.408 161.666 238.149C158.327 234.836 157.658 233.33 155.185 223.551Z" fill="white"/>
</svg>
