<svg width="300" height="300" viewBox="0 0 300 300" fill="none" xmlns="http://www.w3.org/2000/svg">
<path d="M144.9 1.6059C146.743 0.532224 148.305 0 149.894 0H150.002C151.626 0.0246115 153.243 0.599905 155.189 1.70742L229.136 44.1776C235.878 48.4108 240.355 55.8865 240.355 64.396V101.769L149.39 49.4599C148.642 49.0476 147.847 48.8292 147.099 48.8292C146.526 48.8292 145.982 48.9584 145.509 49.2137C145.042 49.466 144.643 49.8567 144.346 50.3828C144.003 50.995 143.796 51.8103 143.796 52.8316L143.793 112.065L143.796 112.613L143.248 112.684L143.205 112.69L142.608 112.767L142.008 112.847L141.931 112.859L141.347 112.948L140.771 113.037L140.617 113.065L140.02 113.17L139.435 113.274L139.401 113.284L138.792 113.401L138.195 113.527L138.096 113.545L137.515 113.674L136.927 113.816L136.881 113.825C134.222 114.459 131.633 115.289 129.131 116.295C128.621 116.498 128.136 116.705 127.678 116.905C127.198 117.111 126.722 117.329 126.252 117.551L126.237 117.554L125.699 117.812L125.161 118.08L125.08 118.114L124.604 118.357L124.121 118.609L123.908 118.72L123.441 118.969L122.983 119.221L122.826 119.307C122.625 119.418 122.399 119.547 122.161 119.686L122.025 119.763L121.895 119.839L121.746 119.926L121.27 120.206L120.788 120.501L120.72 120.541L120.231 120.849L119.739 121.159L119.684 121.202C118.212 122.15 116.789 123.171 115.413 124.257C115.116 124.494 114.85 124.706 114.618 124.897C114.383 125.088 114.114 125.312 113.836 125.552L113.827 125.559L113.78 125.599L113.338 125.977L112.911 126.358L112.846 126.414L112.46 126.765L112.076 127.115L111.885 127.297L111.51 127.647L111.142 128.001L111.006 128.134L110.648 128.487L110.292 128.847L110.079 129.063L109.769 129.383L109.463 129.706L109.163 130.026L108.894 130.318L108.625 130.613L108.276 131.004L108.019 131.293L107.772 131.576L107.509 131.887L107.218 132.225L106.937 132.564L106.732 132.822L106.436 133.185L106.151 133.542L105.984 133.76C105.322 134.609 104.679 135.486 104.064 136.388L103.702 136.92L103.349 137.446L103.247 137.606L102.82 138.27L102.533 138.735L102.221 139.249L102.168 139.335L102.165 139.344L101.883 139.821C101.766 140.016 101.685 140.159 101.61 140.291C101.591 140.325 101.572 140.359 101.553 140.393L101.528 140.439L101.246 140.941L101.076 141.251L100.903 141.565L100.631 142.085L100.328 142.673L100.04 143.248L99.7403 143.86L99.4868 144.405L99.2115 145.008L99.0136 145.457L98.6765 146.232L98.4477 146.792L98.2096 147.38C98.133 147.574 98.0761 147.723 98.027 147.851C98.0007 147.92 97.9766 147.983 97.9529 148.044L97.922 148.13L97.9189 148.143L97.7426 148.607C97.6096 148.973 97.4983 149.287 97.387 149.607L97.3096 149.832L97.1241 150.389L96.9416 150.964L96.7623 151.542L96.6417 151.951L96.5211 152.351L96.4035 152.776L96.3479 152.973L96.184 153.588L96.0448 154.148L95.8562 154.902L95.7387 155.428C95.6923 155.628 95.6459 155.834 95.5779 156.166L95.4542 156.757L95.315 157.492L95.216 158.067L95.0923 158.793L94.9996 159.406L94.8944 160.138L94.8171 160.731L94.7336 161.454L94.6656 162.088L94.6006 162.82L94.5512 163.436L94.5079 164.128L94.5017 164.208L94.4924 164.312L94.4646 164.786L94.4367 165.561L94.4305 165.694L94.4151 166.155L94.4027 166.838L94.3965 167.524L94.4027 168.232L94.4151 168.946L94.4182 168.967L94.4367 169.656L94.4707 170.367V170.376L94.4738 170.398L94.5109 171.071L94.5604 171.776L94.6192 172.483L94.6841 173.148L94.6872 173.176C94.7769 174.089 94.8975 175.009 95.0398 175.938L95.1449 176.609L95.2655 177.277V177.292L95.2717 177.31L95.2748 177.335L95.3923 177.984L95.5253 178.652L95.5284 178.667C95.6614 179.304 95.8005 179.938 95.9551 180.565L96.0479 180.934L96.1438 181.307V181.316L96.15 181.337L96.3262 181.999L96.5056 182.648L96.5087 182.657C96.5806 182.913 96.6599 183.168 96.735 183.42C96.7504 183.472 96.7656 183.523 96.7808 183.574L96.8334 183.752L96.8891 183.934L96.8952 183.946L96.8983 183.959L97.1055 184.608L97.3127 185.232L97.322 185.251L97.5385 185.881L97.7611 186.497L97.7673 186.503L97.7735 186.524L97.9993 187.13L98.2312 187.73L98.2683 187.816L98.5033 188.401L98.7538 188.995L98.7662 189.025L98.995 189.545L59.603 212.169V64.396C59.603 55.6189 64.3592 47.9493 71.4472 43.7931L71.8554 43.5623L144.9 1.6059Z" fill="white"/>
<path d="M156.215 67.1678L284.859 141.055C292.498 145.442 296.796 153.379 296.871 161.562V245.936C296.889 248.111 296.555 249.745 295.72 251.136C294.888 252.523 293.577 253.628 291.638 254.75L217.694 297.224C210.637 300.915 201.894 301.039 194.482 296.778L162.895 278.639L161.946 278.091L162.895 277.55L252.97 225.881C253.703 225.441 254.284 224.866 254.661 224.22C254.946 223.725 255.113 223.192 255.122 222.66C255.134 222.131 254.998 221.59 254.689 221.076C254.324 220.467 253.721 219.885 252.831 219.374L201.267 189.758L200.787 189.484L201.001 188.976L201.016 188.933L201.251 188.382L201.477 187.826L201.721 187.204L201.928 186.663L201.981 186.518L202.191 185.949L202.392 185.392L202.401 185.361L202.599 184.777L202.791 184.202L202.825 184.106L203.004 183.537L203.178 182.965L203.19 182.922C203.963 180.313 204.538 177.664 204.916 175.006C204.99 174.465 205.055 173.948 205.11 173.453C205.169 172.933 205.219 172.416 205.265 171.899V171.884L205.312 171.293L205.349 170.693L205.352 170.607L205.383 170.075L205.407 169.533L205.417 169.296L205.432 168.767L205.444 168.069C205.448 167.841 205.451 167.583 205.448 167.306V166.832L205.438 166.281L205.426 165.718L205.423 165.638L205.404 165.066L205.376 164.485L205.37 164.414C205.274 162.676 205.098 160.935 204.841 159.209C204.789 158.833 204.733 158.498 204.684 158.203C204.634 157.907 204.572 157.563 204.504 157.203V157.191L204.492 157.129L204.381 156.563L204.263 156.003L204.248 155.92L204.136 155.409L204.022 154.902L203.96 154.646L203.846 154.154L203.719 153.656L203.672 153.471L203.41 152.499L203.326 152.21L203.202 151.779L202.949 150.942L202.828 150.564L202.705 150.179L202.541 149.687L202.29 148.964L202.151 148.583L202.003 148.164L201.848 147.752L201.73 147.444L201.56 147.011L201.39 146.586L201.285 146.334C200.877 145.34 200.435 144.349 199.958 143.365L199.396 142.221L199.389 142.217L199.386 142.211L199.306 142.054L199.123 141.701L198.938 141.353L198.678 140.87L198.391 140.347L198.338 140.258L198.335 140.252L198.06 139.769C197.917 139.519 197.821 139.359 197.726 139.2L197.698 139.153L197.404 138.658L197.222 138.36L197.027 138.052L196.714 137.557L196.356 137L195.997 136.468L195.61 135.905L195.27 135.412L194.881 134.874L194.587 134.48L194.513 134.382L194.08 133.803L193.708 133.324L193.316 132.825C193.112 132.576 192.988 132.422 192.864 132.274L192.805 132.201L192.799 132.198L192.481 131.81C192.23 131.511 192.011 131.259 191.788 131.004L191.63 130.825L191.241 130.386L190.832 129.939L190.415 129.496L189.831 128.884L189.518 128.57L189.373 128.426L188.924 127.977L188.507 127.577L187.944 127.035L187.545 126.672C187.394 126.531 187.236 126.389 186.982 126.165L186.531 125.762L185.959 125.279L185.507 124.9L184.938 124.433L184.453 124.048L183.865 123.59L183.389 123.227L182.801 122.793L182.282 122.418L181.679 121.996L181.165 121.645L180.668 121.316L180.584 121.261L180.519 121.215L180.436 121.159L180.034 120.901L179.375 120.482L178.868 120.169L178.277 119.815L177.686 119.467L177.068 119.12L176.437 118.772L176.418 118.769L175.809 118.437L175.175 118.111L175.166 118.104L175.144 118.098L174.538 117.794L173.901 117.483L173.258 117.181L172.646 116.901L172.618 116.889C171.78 116.517 170.92 116.157 170.039 115.816L169.405 115.572L168.761 115.339L168.749 115.336L168.727 115.326L168.709 115.317L168.081 115.096L167.435 114.877L167.429 114.874L167.416 114.871C166.798 114.668 166.173 114.474 165.551 114.29L165.187 114.185L164.812 114.083L164.806 114.077L164.788 114.071L164.123 113.893L163.464 113.724L163.455 113.72C163.142 113.644 162.83 113.567 162.518 113.496L162.338 113.456L162.153 113.413L162.144 113.41L162.125 113.407L161.46 113.262L160.811 113.127L160.792 113.124L160.137 112.997L159.484 112.881L159.456 112.878L158.819 112.767L158.176 112.671L158.083 112.656L157.458 112.57L156.818 112.487L156.781 112.481L156.215 112.419V67.1678Z" fill="white"/>
<path d="M47.6537 122.381L47.598 226.906C47.6134 227.758 47.8237 228.552 48.1979 229.194C48.4886 229.69 48.869 230.096 49.3236 230.37C49.7813 230.647 50.3225 230.797 50.9255 230.791C51.6337 230.779 52.4439 230.548 53.3314 230.041L105.375 200.15L105.712 200.587L105.74 200.617L106.102 201.094L106.473 201.571L106.519 201.633L106.89 202.091L107.258 202.54L107.357 202.663L107.747 203.125L108.13 203.574L108.155 203.602L108.563 204.063L108.968 204.518L109.036 204.592L109.441 205.029L109.856 205.466L109.887 205.5C111.77 207.472 113.786 209.29 115.914 210.942C116.347 211.277 116.768 211.594 117.17 211.89C117.59 212.197 118.017 212.502 118.447 212.797L118.456 212.803L118.951 213.139L119.452 213.471L119.523 213.52L119.971 213.812L120.432 214.101L120.636 214.231L121.085 214.508L121.533 214.775L121.688 214.871C121.882 214.984 122.108 215.117 122.353 215.252L122.482 215.329L122.615 215.403L122.764 215.486L123.246 215.76L123.747 216.027L123.815 216.067L124.326 216.335L124.842 216.6L124.907 216.63C126.469 217.421 128.071 218.141 129.703 218.778C130.059 218.919 130.374 219.042 130.659 219.144C130.94 219.251 131.268 219.368 131.618 219.491L131.627 219.498L131.689 219.516L132.236 219.704L132.784 219.888L132.864 219.913L133.362 220.07L133.86 220.224L134.113 220.304L134.602 220.445L135.097 220.587L135.282 220.636L135.768 220.768L136.259 220.897L136.553 220.971L136.989 221.079L137.416 221.183L137.846 221.279L138.631 221.451L139.145 221.556L139.525 221.63L139.896 221.703L140.298 221.774L140.737 221.854L141.17 221.928L141.501 221.977L141.965 222.048L142.42 222.116L142.689 222.153C143.759 222.297 144.844 222.411 145.936 222.491L146.579 222.54L147.216 222.577L147.222 222.574H147.232L147.405 222.586L147.804 222.605L148.2 222.62L148.747 222.639L149.347 222.651H149.461L150.018 222.657C150.302 222.657 150.491 222.657 150.683 222.654L150.732 222.651L151.311 222.645L152.025 222.626L152.616 222.602L153.277 222.571L153.921 222.528L154.607 222.479L155.204 222.429L155.866 222.365L156.357 222.309L156.481 222.297L157.199 222.211L158.436 222.042C158.7 222.004 158.881 221.971 159.042 221.944C159.076 221.939 159.108 221.933 159.141 221.928L159.234 221.909L159.243 221.906L159.734 221.826C160.121 221.762 160.452 221.7 160.783 221.633L161.015 221.59L161.593 221.473L162.187 221.343L162.781 221.205L163.198 221.107L163.606 221.008L164.036 220.897L164.234 220.845L164.853 220.679L165.409 220.525L166.161 220.307L166.674 220.147C166.875 220.082 167.076 220.024 167.401 219.916L167.976 219.722L168.684 219.476L169.235 219.279L169.927 219.021L170.506 218.793L171.201 218.516L171.755 218.285L172.423 217.999L173.011 217.738L173.675 217.43L174.241 217.163L174.776 216.898L174.869 216.855L174.937 216.818L175.03 216.775L175.457 216.563L176.152 216.2L176.267 216.138L176.675 215.923L177.278 215.594L177.878 215.252L178.49 214.895L179.106 214.523L179.118 214.514L179.712 214.151L180.315 213.766L180.324 213.763L180.34 213.748L180.906 213.382L181.496 212.985L182.081 212.582L182.631 212.194L182.653 212.176C183.398 211.64 184.143 211.08 184.879 210.493L185.411 210.065L185.934 209.628L185.943 209.619L185.962 209.607L185.977 209.591L186.484 209.164L187.001 208.715L187.007 208.712L187.01 208.702C187.502 208.269 187.981 207.835 188.451 207.389L188.727 207.124L189.002 206.853L189.008 206.85L189.023 206.838L189.512 206.352L189.985 205.872L189.994 205.866C190.22 205.632 190.44 205.404 190.656 205.174L190.786 205.038L190.913 204.9L190.922 204.888L190.931 204.878L191.395 204.377L191.834 203.885L191.847 203.869L192.286 203.368L192.713 202.866L192.716 202.86L192.731 202.842L193.143 202.349L193.548 201.845L193.606 201.771L193.996 201.276L194.389 200.765L194.41 200.737L194.748 200.282L195.239 200.562L234.14 222.903L233.196 223.451L105.499 296.793C97.8601 301.18 88.7991 300.915 81.6369 296.888L81.2349 296.655L8.18739 254.701C6.28552 253.624 5.02997 252.523 4.23829 251.108C3.44971 249.699 3.14046 248.016 3.13118 245.786L3.125 160.842C3.44353 152.92 7.71115 145.325 15.1207 141.067L47.6537 122.381Z" fill="white"/>
<path d="M149.995 210.725C125.839 210.725 106.249 191.133 106.249 166.976C106.249 142.819 125.839 123.226 149.995 123.226C174.157 123.226 193.748 142.819 193.748 166.976C193.748 191.133 174.157 210.725 149.995 210.725Z" fill="white"/>
</svg>
