<svg width="300" height="300" viewBox="0 0 300 300" fill="none" xmlns="http://www.w3.org/2000/svg">
<path d="M262.252 57.3008C275.368 44.1839 275.358 22.9388 262.252 9.83315C249.146 -3.27248 227.901 -3.28314 214.784 9.8337L119.077 105.541C106.162 118.457 106.161 139.399 119.065 152.303L214.784 248.022C227.89 261.128 249.146 261.128 262.252 248.022L262.263 248.01C275.369 234.905 275.369 213.649 262.263 200.543L214.022 152.303C201.107 139.388 201.096 118.456 214.011 105.541L262.252 57.3008Z" fill="white"/>
<path d="M162.645 204.722L114.646 156.722C99.2999 141.376 99.3031 116.476 114.657 101.122L120.505 95.2748L77.2043 51.9742C64.0987 38.8686 42.8428 38.8686 29.7372 51.9742L29.7257 51.9857C16.6201 65.0913 16.6201 86.3472 29.7257 99.4528L77.9663 147.693C90.8813 160.608 90.8928 181.54 77.9778 194.455L29.7372 242.695C16.6204 255.812 16.631 277.057 29.7366 290.163C42.8423 303.269 64.0874 303.279 77.2043 290.162L162.645 204.722Z" fill="white"/>
<path d="M295.055 92.548C295.055 89.1623 293.709 85.911 291.31 83.5119L291.299 83.5009C288.9 81.1018 285.649 79.7561 282.263 79.7561C278.878 79.7561 275.604 81.1018 273.205 83.5009L236.534 120.172C231.702 125.004 231.702 132.829 236.534 137.661L273.216 174.344C275.615 176.743 278.867 178.088 282.264 178.099C285.661 178.088 288.912 176.742 291.311 174.343C293.71 171.944 295.055 168.693 295.067 165.296C295.055 161.899 293.71 158.648 291.311 156.249L272.723 137.661C267.902 132.84 267.903 125.015 272.734 120.183L291.311 101.607C293.71 99.2074 295.066 95.9449 295.055 92.548Z" fill="white"/>
<path d="M9.99429 216.495C7.59514 214.096 6.26149 210.834 6.26149 207.448C6.25028 204.051 7.59542 200.8 10.0058 198.39L28.5822 179.813C33.4141 174.981 33.4135 167.156 28.5816 162.324L10.0052 143.748C7.60609 141.348 6.26121 138.097 6.25 134.7C6.25 131.314 7.60664 128.052 10.0058 125.653C12.4049 123.254 15.6559 121.908 19.0528 121.897C22.4498 121.908 25.7007 123.254 28.0999 125.653L64.7824 162.335C69.6031 167.156 69.6034 174.981 64.7715 179.813L28.1004 216.484C25.6901 218.895 22.4386 220.239 19.0528 220.239C15.6671 220.239 12.3934 218.894 9.99429 216.495Z" fill="white"/>
</svg>
