<svg width="450" height="450" viewBox="0 0 450 450" fill="none" xmlns="http://www.w3.org/2000/svg">
<path d="M281.394 195.81C281.394 164.177 256.125 138.495 225 138.495C193.875 138.495 168.606 164.177 168.606 195.81C168.606 227.443 193.875 253.125 225 253.125C256.125 253.125 281.394 227.443 281.394 195.81Z" fill="white"/>
<path d="M383.008 128.351C358.637 134.966 313.486 160.763 291.84 173.616C292.632 176.079 293.297 178.601 293.824 181.175C295.947 181.189 298.262 181.197 300.735 181.198H301.666C328.527 181.185 373.078 180.182 395.133 174.195C407.621 170.805 415.043 157.782 411.697 145.13C408.913 134.605 399.546 127.631 389.285 127.538L389.14 127.537C387.115 127.532 385.057 127.794 383.008 128.351Z" fill="white"/>
<path d="M54.8666 174.195C79.2412 180.811 131.092 181.341 156.176 181.175C156.704 178.601 157.368 176.079 158.16 173.616C136.513 160.763 91.3618 134.966 66.9922 128.351C54.5038 124.961 41.6486 132.48 38.3026 145.13C34.9566 157.782 42.3782 170.805 54.8666 174.195Z" fill="white"/>
<path d="M70.758 119.929C91.7286 134.126 140.62 151.505 164.438 159.522C165.751 157.264 167.185 155.085 168.727 152.995C152.299 133.764 117.756 94.6629 96.7894 80.4681C86.0402 73.1911 71.4814 76.1236 64.2973 87.0133C57.1142 97.903 60.0099 112.652 70.758 119.929Z" fill="white"/>
<path d="M352.666 79.6837C331.713 93.9404 297.218 133.179 280.852 152.43C282.411 154.5 283.862 156.66 285.195 158.9C308.993 150.826 357.848 133.331 378.787 119.084C389.519 111.781 392.38 97.0256 385.172 86.1524C377.963 75.2803 363.398 72.3819 352.666 79.6837Z" fill="white"/>
<path d="M103.406 73.3346C118.682 93.64 159.308 126.113 179.287 141.541C181.252 139.83 183.312 138.226 185.455 136.74C176.062 113.124 155.936 64.8623 140.666 44.5652C132.83 34.1482 118.12 32.1365 107.837 40.0761C97.5546 48.0148 95.5688 62.9177 103.406 73.3346Z" fill="white"/>
<path d="M309.149 44.1378C293.817 64.4907 273.58 112.983 264.213 136.511C266.334 137.964 268.373 139.531 270.321 141.203C290.256 125.833 331.065 93.2777 346.392 72.932C354.236 62.5203 352.259 47.6163 341.982 39.6705C331.704 31.7246 316.993 33.7261 309.149 44.1378Z" fill="white"/>
<path d="M148.615 40.2908C156.644 64.4587 184.783 108.342 198.837 129.477C201.245 128.495 203.717 127.644 206.246 126.934C204.824 101.484 201.044 49.3133 193.016 25.1505C188.893 12.7373 175.597 6.05178 163.344 10.2301C151.091 14.4074 144.491 27.8776 148.615 40.2908Z" fill="white"/>
<path d="M256.953 25.1454C248.929 49.3092 245.159 101.48 243.742 126.929C246.271 127.641 248.744 128.491 251.151 129.473C265.202 108.334 293.332 64.4474 301.358 40.2774C305.479 27.8632 298.877 14.395 286.624 10.2188C274.37 6.04352 261.075 12.7311 256.953 25.1454Z" fill="white"/>
<path d="M201.575 23.7313C201.575 49.2245 214.419 99.8869 221.085 124.468C222.382 124.395 223.687 124.358 225 124.358C226.313 124.358 227.619 124.395 228.915 124.468C235.581 99.8869 248.424 49.2245 248.424 23.7313C248.424 10.6337 237.929 0 225 0C212.071 0 201.575 10.6337 201.575 23.7313Z" fill="white"/>
<path d="M293.75 423.238C295.48 424.971 296.453 427.322 296.453 429.773V440.758C296.453 443.208 295.48 445.559 293.75 447.293C292.018 449.027 289.67 450.001 287.222 450H168.108C165.66 450.001 163.312 449.027 161.581 447.293C159.85 445.559 158.878 443.208 158.878 440.758V429.773C158.878 427.322 159.85 424.971 161.581 423.238C163.312 421.504 165.66 420.531 168.108 420.531H287.222C289.67 420.531 292.018 421.504 293.75 423.238Z" fill="white"/>
<path d="M231.84 290.563C231.84 290.563 275.29 241.604 316.469 218.47C365.06 191.174 438.281 197.513 438.281 197.513C438.281 197.513 380.047 215.066 344.926 266.55C313.459 312.678 293.939 408.09 293.939 408.09C293.939 408.09 264.542 336.462 231.84 290.563Z" fill="white"/>
<path d="M159.153 407.065H276.969C276.927 406.976 227.753 309.95 194.2 267.649C125.033 180.449 11.7188 199.21 11.7188 199.21C11.7188 199.21 71.8956 224.049 103.059 263.987C119.522 285.086 130.169 323.389 136.709 355.642C142.749 385.426 159.153 407.065 159.153 407.065Z" fill="white"/>
</svg>
