<svg width="300" height="300" viewBox="0 0 300 300" fill="none" xmlns="http://www.w3.org/2000/svg">
<path d="M187.593 130.538C187.593 109.45 170.747 92.329 149.997 92.329C129.248 92.329 112.402 109.45 112.402 130.538C112.402 151.627 129.248 168.748 149.997 168.748C170.747 168.748 187.593 151.627 187.593 130.538Z" fill="white"/>
<path d="M255.334 85.5661C239.088 89.9763 208.987 107.174 194.556 115.742C195.085 117.384 195.528 119.066 195.88 120.782C197.294 120.791 198.838 120.797 200.487 120.797H201.107C219.015 120.788 248.715 120.12 263.418 116.128C271.743 113.869 276.691 105.187 274.461 96.7523C272.604 89.7355 266.36 85.0865 259.519 85.0246L259.423 85.0239C258.073 85.0204 256.7 85.1952 255.334 85.5661Z" fill="white"/>
<path d="M36.5764 116.128C52.8259 120.539 87.3927 120.892 104.115 120.782C104.467 119.066 104.91 117.384 105.437 115.742C91.0069 107.174 60.9062 89.9763 44.6601 85.5661C36.3346 83.3063 27.7645 88.3186 25.5339 96.7523C23.3033 105.187 28.2509 113.869 36.5764 116.128Z" fill="white"/>
<path d="M47.1705 79.9517C61.1508 89.4162 93.7443 101.002 109.623 106.347C110.499 104.841 111.454 103.389 112.483 101.995C101.53 89.1747 78.5021 63.1078 64.5246 53.6448C57.3585 48.7935 47.6528 50.7484 42.8635 58.0081C38.0748 65.2679 40.0052 75.1005 47.1705 79.9517Z" fill="white"/>
<path d="M235.107 53.1218C221.139 62.6261 198.142 88.7852 187.231 101.619C188.271 102.999 189.238 104.439 190.127 105.932C205.992 100.549 238.561 88.8863 252.52 79.3882C259.676 74.5197 261.583 64.6829 256.777 57.4342C251.972 50.1862 242.262 48.254 235.107 53.1218Z" fill="white"/>
<path d="M68.9356 48.8891C79.1195 62.4259 106.203 84.0743 119.522 94.3597C120.833 93.2187 122.205 92.1494 123.634 91.1592C117.372 75.4149 103.955 43.241 93.7755 29.7097C88.5515 22.7652 78.7445 21.424 71.8896 26.7171C65.0347 32.0095 63.7108 41.9446 68.9356 48.8891Z" fill="white"/>
<path d="M206.096 29.4249C195.875 42.9933 182.384 75.3213 176.139 91.0064C177.553 91.9746 178.912 93.0192 180.211 94.134C193.501 83.8878 220.707 62.1844 230.924 48.6208C236.153 41.6797 234.836 31.7438 227.984 26.4467C221.133 21.1495 211.325 22.4838 206.096 29.4249Z" fill="white"/>
<path d="M99.0743 26.8602C104.427 42.972 123.186 72.2268 132.556 86.3169C134.161 85.6625 135.809 85.0948 137.494 84.6213C136.547 67.655 134.027 32.8751 128.675 16.7668C125.926 8.49145 117.062 4.03447 108.893 6.81999C100.725 9.60483 96.3254 18.5848 99.0743 26.8602Z" fill="white"/>
<path d="M171.299 16.7634C165.95 32.8724 163.436 67.6522 162.492 84.6186C164.178 85.0927 165.826 85.6597 167.431 86.3141C176.798 72.222 195.551 42.9644 200.902 26.8513C203.649 18.5752 199.248 9.59657 191.079 6.81243C182.91 4.02896 174.047 8.48732 171.299 16.7634Z" fill="white"/>
<path d="M134.381 15.8207C134.381 32.8159 142.943 66.5904 147.388 82.9774C148.252 82.9292 149.122 82.9045 149.997 82.9045C150.873 82.9045 151.743 82.9292 152.607 82.9774C157.051 66.5904 165.613 32.8159 165.613 15.8207C165.613 7.08905 158.616 0 149.997 0C141.378 0 134.381 7.08905 134.381 15.8207Z" fill="white"/>
<path d="M195.83 282.155C196.983 283.311 197.632 284.878 197.632 286.512V293.835C197.632 295.469 196.983 297.036 195.83 298.192C194.676 299.347 193.11 299.997 191.478 299.996H112.07C110.438 299.997 108.873 299.347 107.718 298.192C106.564 297.036 105.916 295.469 105.916 293.835V286.512C105.916 284.878 106.564 283.311 107.718 282.155C108.873 280.999 110.438 280.35 112.07 280.35H191.478C193.11 280.35 194.676 280.999 195.83 282.155Z" fill="white"/>
<path d="M154.557 193.706C154.557 193.706 183.523 161.067 210.976 145.645C243.369 127.448 292.183 131.673 292.183 131.673C292.183 131.673 253.36 143.376 229.947 177.698C208.969 208.449 195.956 272.057 195.956 272.057C195.956 272.057 176.358 224.305 154.557 193.706Z" fill="white"/>
<path d="M106.1 271.373H184.643C184.615 271.314 151.833 206.631 129.464 178.43C83.3533 120.298 7.81152 132.805 7.81152 132.805C7.81152 132.805 47.9289 149.364 68.7043 175.989C79.6794 190.055 86.7773 215.59 91.1374 237.092C95.164 256.947 106.1 271.373 106.1 271.373Z" fill="white"/>
</svg>
