<svg width="300" height="300" viewBox="0 0 300 300" fill="none" xmlns="http://www.w3.org/2000/svg">
<path fill-rule="evenodd" clip-rule="evenodd" d="M280.266 299.996H154.746V177.239C156.426 157.455 159.402 139.234 166.701 126.228C171.04 128.663 178.784 139.429 181.094 160.262C186.757 150.037 193.652 138.574 206.163 131.305C207.007 153.869 205.663 162.455 199.34 178.164C190.462 200.217 166.032 205.352 166.032 205.352V288.71H268.98C268.98 220.867 270.259 153.011 268.969 85.1789C268.947 84.4983 268.909 83.8202 268.853 83.1414C268.541 79.8658 267.766 76.6584 266.483 73.6253C263.326 66.1616 257.293 60.078 249.885 56.8336L249.875 56.8292C252.111 53.4037 254.397 50.3206 256.658 47.5575C260.706 49.6162 264.426 52.3137 267.641 55.5286C272.184 60.0711 275.694 65.6223 277.829 71.6828C279.451 76.2896 280.235 81.1264 280.266 86.0058V299.996ZM145.256 299.996H19.7363V86.0058C19.767 81.1264 20.5507 76.2896 22.1732 71.6828C24.3081 65.6223 27.8175 60.0711 32.3605 55.5286C35.5755 52.3137 39.2955 49.6162 43.3442 47.5575C45.6054 50.3206 47.891 53.4037 50.1272 56.8292L50.1172 56.8336C42.7085 60.078 36.6755 66.1616 33.5187 73.6253C32.2355 76.6584 31.4612 79.8658 31.1493 83.1414C31.0931 83.8202 31.0549 84.4983 31.0331 85.1789C29.7425 153.011 31.0224 220.867 31.0224 288.71H133.97V205.352C133.97 205.352 109.54 200.217 100.662 178.164C94.3385 162.455 92.9954 153.869 93.8385 131.305C106.35 138.574 113.245 150.037 118.908 160.262C121.218 139.429 128.962 128.663 133.301 126.228C140.6 139.234 143.576 157.455 145.256 177.239V299.996ZM268.634 28.4696C248.807 42.7582 225.616 73.984 222.883 106.842C220.657 133.606 216.084 145.301 212.669 150.308C214.182 141.284 214.173 129.014 212.478 119.121C208.689 120.798 202.4 124.662 196.642 130.387C195.927 128.046 190.051 116.019 170.696 121.352C171.627 118.355 172.654 115.391 173.796 112.465C176.529 105.467 179.838 98.6956 183.644 92.2132C183.67 92.1713 183.694 92.1294 183.718 92.0869C187.816 85.1233 192.487 78.4952 197.634 72.2803C202.01 66.9941 206.745 61.9923 211.815 57.358C211.966 57.2405 212.11 57.1099 212.243 56.9674C215.936 53.6187 219.806 50.4649 223.841 47.5387C235.139 39.3457 247.896 32.812 261.566 29.7208C263.905 29.1927 266.261 28.7815 268.634 28.4696ZM31.3674 28.4696C51.1947 42.7582 74.3863 73.984 77.1194 106.842C79.345 133.606 83.918 145.301 87.333 150.308C85.8199 141.284 85.8293 129.014 87.5236 119.121C91.3129 120.798 97.6016 124.662 103.36 130.387C104.075 128.046 109.951 116.019 129.306 121.352C128.375 118.355 127.348 115.391 126.206 112.465C123.473 105.467 120.164 98.6956 116.358 92.2132C116.332 92.1713 116.308 92.1294 116.284 92.0869C112.186 85.1233 107.515 78.4952 102.368 72.2803C97.9916 66.9941 93.2567 61.9923 88.1874 57.358C88.0355 57.2405 87.8924 57.1099 87.7586 56.9674C84.0655 53.6187 80.1962 50.4649 76.1613 47.5387C64.8633 39.3457 52.1059 32.812 38.4355 29.7208C36.0974 29.1927 33.7405 28.7815 31.3674 28.4696ZM161.987 124.287C159.816 122.7 156.382 119.848 149.922 119.868C143.46 119.889 140.109 122.755 138.015 124.287C136.402 114.137 129.736 101.961 123.878 90.1895C126.508 85.2176 134.371 67.9304 136.469 61.3854C142.041 44.0063 146.903 22.7028 150.001 11.2161C152.978 22.7347 157.843 44.7725 163.533 61.3854C165.76 67.8879 173.494 85.2176 176.124 90.1895C170.266 101.961 163.6 114.137 161.987 124.287ZM197.435 7.6786C197.332 8.70546 197.191 9.7292 197.012 10.7486C196.76 12.1767 196.439 13.591 196.052 14.9879C192.868 26.4852 185.468 36.2657 177.439 44.8613C175.949 46.4569 174.426 48.0219 172.888 49.5718C171.44 51.0312 169.978 52.4768 168.517 53.923C170.904 60.9267 173.658 67.8035 176.749 74.5259C178.009 77.2659 179.327 79.9765 180.695 82.6627C184.573 76.664 188.86 70.9291 193.499 65.5079C197.035 61.3767 200.782 57.4186 204.73 53.6737C201.738 47.9931 200.023 41.7013 198.931 35.3908C197.352 26.2571 197.045 16.9379 197.435 7.6786ZM102.567 7.6786C102.67 8.70546 102.811 9.7292 102.99 10.7486C103.242 12.1767 103.563 13.591 103.95 14.9879C107.134 26.4852 114.534 36.2657 122.563 44.8613C124.053 46.4569 125.576 48.0219 127.114 49.5718C128.562 51.0312 130.024 52.4768 131.485 53.923C129.098 60.9267 126.344 67.8035 123.253 74.5259C121.993 77.2659 120.674 79.9765 119.307 82.6627C115.429 76.664 111.141 70.9291 106.503 65.5079C102.967 61.3767 99.2203 57.4186 95.2716 53.6737C98.2635 47.9931 99.9791 41.7013 101.071 35.3908C102.65 26.2571 102.957 16.9379 102.567 7.6786ZM205.817 20.1709C207.317 8.26984 220.761 7.39173 229.052 10.1679C240.965 14.1579 245.075 25.2865 235.506 31.4664C230.887 34.4489 225.926 36.882 221.436 40.0157C217.664 42.6482 214.026 45.4694 210.527 48.4556L210.471 48.3325C206.442 35.3789 204.98 26.8165 205.817 20.1709ZM94.1848 20.1709C92.6854 8.26984 79.2406 7.39173 70.9501 10.1679C59.0365 14.1579 54.9271 25.2865 64.4964 31.4664C69.1145 34.4489 74.0757 36.882 78.5662 40.0157C82.3381 42.6482 85.9761 45.4694 89.4748 48.4556L89.5311 48.3325C93.5604 35.3789 95.0223 26.8165 94.1848 20.1709ZM159.114 14.6173C157.733 5.21613 167.573 -0.91692 174.611 0.112442C179.236 0.788684 191.79 3.99427 188.261 14.7616C186.886 18.9597 184.839 22.9278 182.436 26.6302C178.23 33.1114 172.956 38.7901 167.547 44.2719C167.016 44.8044 166.483 45.3356 165.951 45.8663C163.859 38.8145 162.133 31.6552 160.759 24.429C160.139 21.1697 159.596 17.8985 159.114 14.6173ZM140.888 14.6173C142.269 5.21613 132.429 -0.91692 125.391 0.112442C120.766 0.788684 108.212 3.99427 111.741 14.7616C113.116 18.9597 115.163 22.9278 117.566 26.6302C121.772 33.1114 127.046 38.7901 132.455 44.2719C132.986 44.8044 133.519 45.3356 134.051 45.8663C136.143 38.8145 137.869 31.6552 139.243 24.429C139.863 21.1697 140.406 17.8985 140.888 14.6173Z" fill="white"/>
</svg>
