<svg width="300" height="300" viewBox="0 0 300 300" fill="none" xmlns="http://www.w3.org/2000/svg">
<path fill-rule="evenodd" clip-rule="evenodd" d="M18.7539 299.996H281.251V297.228H18.7539V299.996ZM18.7539 295.998H281.251V289.41H18.7539V295.998ZM175.447 72.1897L156.677 190.938C156.677 190.938 155.382 211.897 166.215 223.757C171.453 229.491 177.868 231.083 183.822 234.506C189.079 237.526 195.062 243.009 195.985 249.509C197.437 259.734 186.611 261.102 180.855 258.919C174.732 256.597 170.082 255.754 163.962 256.012C150.341 256.586 147.27 266.431 147.315 270.024C147.469 282.302 159.064 286.833 159.064 286.833C159.064 286.833 147.637 286.896 138.777 286.976C86.6299 287.448 68.7608 251.674 62.1002 210.389L39.8036 72.1897H175.447ZM265.071 286.7H173.893C173.893 286.7 154.443 286.326 154.679 272.443C154.871 261.193 167.248 257.571 181.749 262.415C185.682 263.729 191.987 263.752 199.749 264.766C207.613 265.793 217.001 264.4 228.831 269.6C229.759 270.008 231.885 269.578 234.393 269.657C236.667 269.729 239.351 270.341 239.959 270.133C243.37 268.964 245.115 267.149 248.449 267.223C249.748 267.252 250.89 268.346 251.657 269.281C252.623 268.489 253.227 267.89 254.439 267.885C257.271 267.872 258.375 272.068 260.138 274.69C264.948 275.772 268.495 281.664 269.275 284.721C269.433 285.343 267.823 286.204 267.33 285.793C265.063 283.911 255.795 271.71 254.39 271.72C253.77 271.724 255.355 274.979 255.678 276.072C253.203 274.485 248.76 268.309 246.978 270.118C244.784 272.346 252.439 277.732 249.239 278.823C247.508 279.413 243.776 275.905 239.27 274.464C235.54 273.272 227.956 273.963 226.899 273.313C218.311 268.028 196.799 268.777 180.969 267.562C178.278 267.355 175.1 265.759 171.186 265.421C165.922 264.967 160.475 266.832 160.533 272.988C160.561 276.034 163.37 281.861 171.616 282.111C191.924 282.724 226.247 281.83 226.247 281.83L221.886 278.635C221.886 278.635 182.771 278.386 173.893 277.998C169.765 277.817 168.688 273.32 169.128 271.982C170.114 268.978 174.844 269.823 174.844 269.823C174.844 269.823 179.919 270.451 182.522 270.587C190.647 271.009 212.988 272.787 223.372 275.874C226.345 276.758 231.633 276.404 235.281 277.07C241.951 278.288 244.697 279.769 249.698 283.646L253.642 283.621C253.642 283.621 253.037 280.08 253.56 279.263C254.082 278.447 254.95 278.679 255.885 279.028C256.82 279.376 257.772 280.651 258.532 280.865C259.292 281.078 259.559 280.038 260.4 280.206C262.145 280.555 263.526 282.877 264.513 284.447C264.955 285.15 265.069 286.678 265.071 286.7ZM131.664 265.641C130.542 269.33 132.044 271.703 135.128 273.035L117.528 278.172C115.188 278.855 112.737 277.512 112.054 275.171C111.488 273.231 112.598 271.206 114.531 270.642L131.664 265.641ZM147.107 261.215C146.716 264.475 146.174 267.336 145.717 269.944L138.547 272.037C136.442 271.622 134.254 270.605 133.934 268.19C133.723 266.595 134.693 265.334 135.95 264.39L147.107 261.215ZM131.768 255.641C129.477 258.776 130.576 261.638 134.446 263.264L116.893 268.388C114.552 269.071 112.101 267.727 111.418 265.387C110.852 263.447 111.961 261.422 113.895 260.857L131.768 255.641ZM198.022 143.321C188.757 147.641 175.537 161.194 170.164 171.878C169.782 172.637 168.91 174.303 168.224 175.583C166.907 178.038 164.445 183.808 163.846 185.842C162.278 191.166 161.904 192.688 161.316 196.123C159.547 206.452 161.09 214.65 165.804 219.979C169.284 223.913 172.109 225.55 184.355 230.727C185.917 231.387 187.107 231.981 189.759 233.423C199.478 238.71 203.489 249.831 199.555 259.812C198.925 261.411 198.6 261.479 206.842 262.166C216.268 262.952 223.469 264.199 226.031 265.474C224.956 251.85 222.256 215.102 221.347 206.623C221.224 205.471 220.621 205.322 219.992 205.312C217.939 205.279 214.263 205.229 212.074 204.068C212.985 202.918 213.881 202.14 215.376 201.221L211.295 201.054C205.298 200.461 203.903 197.726 209.46 194.878C209.46 194.878 201.72 195.812 201.732 189.206C201.734 187.944 201.907 187.478 203.025 187.763C204.079 188.031 206.531 187.985 206.52 187.696C206.494 187.004 205.061 186.665 204.322 186.372C202.598 185.691 201.805 184.418 201.294 182.887C200.787 181.369 201.419 180.997 203.654 179.986C206.64 178.635 206.744 177.408 204.135 177.408C198.707 177.408 198.789 168.993 203.82 164.619C206.338 162.43 206.499 161.69 204.777 161.128C202.207 160.289 198.633 155.954 198.814 151.956C199.076 146.133 212.313 143.075 214.461 148.403C215.028 149.809 217.519 150.088 217.451 148.323C217.417 147.422 219.09 145.852 221.019 145.036C221.872 144.676 219.601 143.184 217.95 142.371C215.195 141.015 209.28 140.591 204.924 141.4C200.708 142.183 199.868 142.46 198.022 143.321ZM147.621 251.014C147.689 254.132 147.545 256.944 147.293 259.514L138.222 262.162C133.456 261.608 131.792 258.357 134.428 254.864L147.621 251.014ZM150.642 259.531C150.642 259.531 152.079 235.155 144.105 218.254C135.539 200.098 116.02 180.749 104.81 167.967C103.657 166.652 102.039 163.008 102.276 160.239C103.302 148.258 120.292 151.033 120.292 151.033C120.292 151.033 120.743 154.925 121.462 156.722C127.067 170.747 144.412 188.174 152.617 204.366C160.988 220.887 169.861 254.291 169.861 254.291C160.423 253.164 153.937 254.836 150.642 259.531ZM130.174 246.106C128.909 250.549 130.925 252.353 133.331 253.59L115.824 258.7C113.484 259.383 111.033 258.039 110.35 255.699C109.783 253.759 110.893 251.734 112.827 251.169L130.174 246.106ZM146.775 241.261C147.212 244.199 147.46 246.913 147.57 249.434L138.021 252.221C135.929 252.17 134.259 251.495 133.366 250.3C132.317 248.898 132.334 246.721 134.216 244.927L146.775 241.261ZM128.085 236.776C126.151 239.588 127.63 242.94 131.218 244.267L113.294 249.499C112.17 249.827 110.962 249.695 109.935 249.132C108.909 248.569 108.148 247.622 107.82 246.498L107.818 246.492C107.253 244.558 108.363 242.533 110.297 241.968L128.085 236.776ZM144.884 231.873C145.588 234.68 146.132 237.315 146.544 239.794L134.96 243.175C130.331 242.773 129.28 239.973 130.831 235.975L144.884 231.873ZM124.869 227.745C123.475 232.975 125.936 234.185 128.761 235.015L110.45 240.36C108.11 241.042 105.658 239.699 104.975 237.358C104.409 235.418 105.519 233.393 107.453 232.829L124.869 227.745ZM142.187 222.691C143.092 225.401 143.86 227.973 144.508 230.418L131.354 234.258C129.142 233.694 127.691 231.745 127.354 230.51C126.899 228.852 127.538 227.597 128.349 226.73L142.187 222.691ZM121.083 219.177C119.548 222.247 120.968 225.542 124.547 226.275L106.423 231.565C105.305 231.891 104.104 231.76 103.083 231.2C102.062 230.641 101.305 229.698 100.979 228.581C100.705 227.642 100.818 226.642 101.289 225.796C101.76 224.949 102.551 224.327 103.484 224.067L121.083 219.177ZM138.412 213.867C139.72 216.289 140.836 218.757 141.704 221.267L127.693 225.357C125.863 225.157 123.698 224.303 123.158 221.485C122.91 220.378 123.529 219.149 124.33 218.203L138.412 213.867ZM115.956 210.899C114.783 214.822 116.81 216.977 119.699 217.72L101.464 223.043C99.2348 223.693 96.8973 222.43 96.2204 220.208C95.9461 219.308 96.0448 218.34 96.4929 217.519C96.9404 216.698 97.6998 216.09 98.5998 215.835L115.956 210.899ZM133.094 205.509C134.749 207.788 136.283 210.114 137.642 212.483L122.986 216.761C119.711 216.479 117.378 213.691 118.673 210.065L133.094 205.509ZM108.785 203.04C109.852 207.049 111.103 209.092 112.714 209.789L95.6661 214.765C94.6023 215.076 93.4592 214.951 92.4874 214.419C91.5161 213.886 90.7955 212.989 90.4855 211.925C90.2318 211.056 90.333 210.126 90.7661 209.336C91.1993 208.546 91.9286 207.96 92.7942 207.707L108.785 203.04ZM126.921 197.746C128.709 199.833 130.446 201.963 132.081 204.137L116.648 208.641C113.92 208.103 111.214 205.058 113.161 201.762L126.921 197.746ZM101.574 195.306C101.899 195.461 102.202 195.63 102.422 195.801C104.163 197.148 101.86 199.608 106.964 201.713L88.8474 207.001C86.6131 207.653 84.2725 206.37 83.6206 204.136C83.3637 203.256 83.4662 202.314 83.905 201.513C84.3437 200.713 85.0825 200.119 85.9587 199.864L101.574 195.306ZM208.069 175.142C209.215 174.922 209.216 176.641 208.187 179.269C207.078 182.102 203.37 182.368 203.72 182.941C205.253 185.451 210.123 184.456 211.43 184.881C212.377 185.189 210.92 188.513 207.81 190.553C205.538 192.044 206.288 192.745 209.285 192.959C210.658 193.058 212.593 191.696 214.431 191.714C215.084 191.72 214.94 195.186 213.065 196.604C208.678 199.925 212.245 199.788 217.74 198.238C220.807 197.373 220.255 198.331 219.08 200.57C218.37 201.926 216.927 202.629 217.357 203.05C217.932 203.612 222.531 204.336 225.96 200.002C226.597 199.197 226.767 198.028 225.06 196.754C219.056 192.273 216.606 186.91 214.595 178.84C213.92 176.126 213.556 165.303 214.105 162.872C214.446 161.359 214.056 161.405 210.261 163.323C201.105 167.952 199.543 176.776 208.069 175.142ZM233.037 181.231C220.383 181.342 217.046 189.743 226.798 195.668C228.331 196.598 227.999 196.883 227.999 198.168C228 199.994 229.791 201.117 231.288 201.248C234.627 201.539 236.452 200.321 237.066 196.165C237.366 194.128 237.94 193.065 240.013 190.281C240.997 188.96 241.446 188.098 241.182 188.002C240.693 187.823 239.409 188.118 238.392 189.839C234.98 195.614 226.246 194.281 224.285 190.11C222.921 187.208 225.349 183.249 234.104 183.216C240.273 183.195 240.501 183.444 241.07 185.525C241.524 187.188 242.587 186.511 244.821 183.136C248.504 177.572 248.022 176.612 244.261 178.661C240.699 180.601 237.604 181.19 233.037 181.231ZM119.894 189.959C121.814 192.009 123.746 194.112 125.634 196.264L110.7 200.623C109.263 200.268 107.899 199.419 106.872 198.061C106.008 196.919 106.068 195.079 107.336 193.624L119.894 189.959ZM96.8811 186.864C95.8911 190.566 96.9673 192.215 100.592 193.388L82.4037 198.697C81.3381 199.008 80.1931 198.883 79.2207 198.349C78.2475 197.816 77.5263 196.918 77.2151 195.853C76.9563 194.966 77.0638 194.019 77.5125 193.218C77.9607 192.416 78.7119 191.829 79.5975 191.587L96.8811 186.864ZM112.44 182.073C114.311 184.066 116.275 186.12 118.267 188.23L103.748 192.467C99.9085 191.684 98.6873 188.534 100.501 185.765L112.44 182.073ZM89.6536 179.078C89.3768 183.224 92.0974 184.571 94.9117 185.076L76.2526 190.523C73.7826 191.244 71.1864 189.876 70.3833 187.432C70.2839 187.13 70.1858 186.83 70.0901 186.539C69.852 185.814 69.9308 185.022 70.307 184.358C70.6833 183.695 71.322 183.22 72.0657 183.052L89.6536 179.078ZM230.124 186.558C232.59 186.542 234.742 186.71 237.036 189.091C237.252 189.316 237.516 188.563 237.681 188.213C238.053 187.422 238.787 186.585 238.023 186.045C236.514 184.98 232.188 184.713 228.878 185.723C226.906 186.326 227.775 186.574 230.124 186.558ZM105.506 174.312C107.123 176.274 108.944 178.309 110.891 180.413L97.9992 184.175C92.9267 184.045 92.0386 179.967 92.4199 177.653L94.1817 176.563L105.506 174.312ZM84.3781 170.747C85.0218 173.785 86.8899 175.221 88.8674 176.459L69.3383 181.333C67.8414 181.706 66.2746 181.076 65.4521 179.771C64.9208 178.927 64.2965 177.936 63.694 176.979C63.1684 176.144 63.1115 175.097 63.544 174.21C63.9765 173.324 64.8365 172.724 65.8183 172.625L84.3781 170.747ZM229.948 175.467C229.32 176.51 228.398 177.916 226.876 179.232C225.823 180.141 237.799 179.132 240.871 177.372C243.027 176.137 245.406 176.356 246.016 176.513C246.909 176.745 246.757 175.43 245.943 173.043C244.279 168.167 241.391 166.701 237.386 168.087C234.791 168.985 232.571 171.109 229.948 175.467ZM229.569 165.254C228.419 166.31 226.818 167.893 225.668 168.695C221.007 171.945 218.917 175.165 220.716 176.944C223.783 179.978 229.499 174.882 229.585 168.78C229.622 166.21 231.831 163.722 237.937 162.996C239.566 162.802 240.019 162.174 238.225 162.205C236.404 162.238 234.677 162.272 234.39 162.369C232.536 162.994 231.394 163.58 229.569 165.254ZM100.244 166.724C101.237 168.626 102.59 170.617 104.207 172.692L91.6305 175.77C89.0287 174.488 85.4006 170.405 88.4493 167.717L88.453 167.692L100.244 166.724ZM236.121 165.454C237.801 165.235 240.267 164.936 241.974 165.582C245.679 166.984 248.279 170.529 248.396 173.085C248.459 174.445 249.292 175.08 249.681 173.529C249.942 172.49 251.054 169.876 251.108 167.357C251.118 166.886 251.055 166.069 250.657 165.817C250.232 165.549 248.459 165.72 247.655 165.576C246.597 165.385 244.922 164.992 244.033 164.525C242.004 163.459 237.969 163.789 235.759 164.425C235.252 164.57 234.438 165.672 236.121 165.454ZM83.6775 169.515L64.124 170.06C62.3471 170.11 60.8053 168.845 60.5053 167.094C60.3971 166.465 60.2796 165.779 60.1596 165.076C59.884 163.469 60.379 161.825 61.4959 160.636C62.6134 159.448 64.2233 158.852 65.8452 159.027C71.8201 159.673 76.7269 160.237 79.7181 160.572C80.1688 165.199 82.5537 168.293 83.6775 169.515ZM218.762 167.354C220.676 169.25 224.256 168.637 225.676 166.806C229.493 161.884 232.558 160.606 237.29 160.586C238.89 160.58 238.161 159.853 236.709 158.487C234.776 156.671 233.56 156.503 231.224 156.634C229.441 156.733 228.826 156.621 228.826 156.082C228.828 153.902 225.043 152.559 222.446 154.163C217.882 156.984 215.851 164.472 218.762 167.354ZM234.454 159.069C234.607 159.304 230.604 160.437 228.984 161.582C228.308 162.059 227.915 162.548 227.291 162.884C227.156 162.957 224.742 162.911 223.831 161.86C222.842 160.72 223.404 158.102 225.239 158.129C226.351 158.144 225.708 159.062 225.294 160.102C225.064 160.681 225.159 161.434 225.526 161.545C228.896 162.572 227.876 157.249 225.866 156.907C224.389 156.656 221.518 157.749 221.35 160.054C221.271 161.132 221.395 162.152 222.716 163.169C223.83 164.027 225.198 163.791 226.316 163.702C224.83 165.247 223.289 166.537 221.526 166.442C219.181 166.315 218.889 162.087 220.404 159.066C221.294 157.291 223.464 155.291 225.179 155.374C227.517 155.489 227.266 157.033 228.333 158.103C228.951 158.725 233.586 157.733 234.454 159.069ZM100.117 164.865L85.7237 165.477C81.7625 162.572 81.5875 151.201 83.5687 149.733C87.6899 154.572 93.5423 156.334 99.526 157.257C99.3154 158.248 99.1804 159.341 99.1304 160.546C99.0835 161.679 99.1692 163.709 100.117 164.865ZM216.555 152.351C215.36 153.455 214.946 153.397 213.596 151.379C212.175 149.254 210.328 148.353 208.625 148.332C204.695 148.281 201.354 151.932 201.074 152.487C200.836 152.96 201.536 153.132 201.764 153.99C202.516 156.83 205.408 160.809 209.292 161.026C212.275 161.192 214.838 160.137 216.859 156.903C218.838 153.736 220.796 151.628 222.913 150.869C225.893 149.801 228.729 150.986 231.393 153.704C231.816 154.136 233.114 154.332 233.526 154.314C234.336 154.279 236.243 155.689 237.199 156.843C239.159 159.208 240.048 159.301 239.58 157.76C239.232 156.614 235.197 152.304 232.938 151.568C230.891 150.902 228.639 147.296 225.218 146.586C223.721 146.275 222.466 147.276 221.226 148.346C219.631 149.721 217.018 151.925 216.555 152.351ZM79.5888 158.66C76.5663 158.132 68.1277 156.668 62.1252 155.697C60.9884 155.514 59.9721 154.886 59.2996 153.952C58.6265 153.018 58.3528 151.855 58.539 150.719C58.699 149.739 58.8709 148.691 59.0353 147.684C59.2315 146.484 59.9709 145.441 61.0384 144.858C62.1059 144.274 63.3834 144.216 64.4996 144.699C69.877 147.026 76.6707 150.065 79.6006 151.38C79.3531 153.645 79.4906 156.964 79.5888 158.66ZM99.9023 155.831C94.5205 155.024 90.9793 153.686 85.1481 148.926C81.9575 145.188 89.0974 135.818 92.4555 138.357C94.5336 145.421 98.2504 148.078 102.627 151.319C101.457 152.437 100.515 153.907 99.9023 155.831ZM103.605 150.499C100.093 147.395 96.5592 142.91 95.3992 138.878C95.1386 137.971 95.0323 136.472 95.4198 135.84C98.0623 131.52 104.77 132.066 107.151 132.406C107.615 132.473 107.896 132.97 107.855 133.302C107.244 138.204 108.122 141.941 109.383 145.113C109.465 145.319 109.799 148.188 109.35 148.263C107.245 148.616 105.258 149.288 103.605 150.499ZM79.9569 149.449L64.2102 141.171C63.059 140.565 62.1959 139.526 61.8115 138.284C61.4278 137.041 61.554 135.696 62.1634 134.548C62.2315 134.418 62.3002 134.289 62.3696 134.158C63.1534 132.68 64.5652 131.636 66.2089 131.32C67.852 131.003 69.5508 131.45 70.827 132.532L82.6781 142.584C81.65 144.318 80.5575 146.999 79.9569 149.449ZM112.343 147.956C110.323 145.198 109.757 137.915 110.07 133.536C110.13 132.7 110.731 132.421 110.958 132.43C115.262 132.616 118.496 133.803 121.831 136.857C122.219 137.213 122.309 138.136 122.136 138.381C120.074 141.273 119.236 144.543 119.41 148.126C117.235 148 114.777 147.84 112.343 147.956ZM83.5775 141.192C80.5619 138.686 71.982 131.494 71.1426 130.13C69.887 122.668 76.8707 118.27 81.4794 119.955C82.7506 121.782 87.2968 131.45 88.9855 135.072C86.3943 137.128 84.64 139.592 83.5775 141.192ZM119.474 131.253C121.931 128.317 127.578 121.642 129.949 119.419C131.665 117.81 134.732 117.009 136.189 118.182C137.519 119.253 139.816 121.625 140.232 123.476C140.825 126.112 140.171 127.936 138.075 129.29C135.618 130.877 128.021 135.047 124.826 136.79C123.334 134.281 121.62 132.483 119.474 131.253ZM90.5999 133.87C88.6987 130.123 83.8375 120.492 82.7069 117.766C82.365 116.942 82.185 115.667 82.9075 114.844C85.5731 111.807 91.7742 109.654 95.0642 109.988C96.5011 110.134 97.0067 110.872 97.0511 112.019C97.2079 116.084 97.4967 126.513 97.5948 130.124C95.1092 130.958 92.6567 132.413 90.5999 133.87ZM109.657 129.032C111.185 124.974 114.463 116.29 115.53 113.625C115.839 112.853 116.453 110.772 117.56 110.177C118.792 109.515 121.741 109.217 123.758 109.717C125.775 110.217 127.978 111.918 128.68 113.259C129.383 114.6 129.013 116.157 128.189 117.432C126.598 119.895 120.741 127.305 118.133 130.581C115.835 129.585 113.076 129.114 109.657 129.032ZM99.2554 129.667C99.1867 125.517 99.0398 113.82 99.4885 110.554C99.7035 108.993 100.829 107.729 102.343 107.294C104.287 106.734 109.468 106.71 111.432 107.374C113.035 107.917 114.391 109.348 114.144 111.022C113.687 114.12 109.675 124.688 107.997 129.022C105.799 129.043 103.347 129.199 100.597 129.458C100.153 129.5 99.7048 129.571 99.2554 129.667ZM175.713 70.5041H39.5318L39.2299 68.6348H176.009L175.713 70.5041ZM176.569 65.0873H38.658L38.018 61.1217C38.4849 61.0124 38.9462 60.8786 39.4005 60.7161C40.8911 60.1842 42.2674 59.3661 43.4536 58.3187C44.5767 57.3268 45.5211 56.1456 46.3073 54.8724C46.8936 53.9237 47.3948 52.9231 47.8298 51.8962C47.921 51.68 48.0042 51.4594 48.0867 51.2387V47.3994C47.9685 47.43 47.8529 47.47 47.7404 47.5182C47.0711 47.8063 46.5936 48.3744 46.2698 49.0125C46.0579 49.4288 45.9154 49.8756 45.7454 50.3094C45.6661 50.5106 45.5823 50.7094 45.5004 50.9087C45.2942 51.3781 45.083 51.8425 44.853 52.3012C44.2742 53.4118 43.6086 54.4743 42.7792 55.4174C41.4249 56.9587 39.6786 58.0762 37.6905 58.5999L37.6143 58.6193L29.6563 9.29488H185.388L177.549 58.8924C177.044 58.8274 176.543 58.7293 176.053 58.5999C174.065 58.0762 172.319 56.9587 170.965 55.4174C170.136 54.4743 169.47 53.4118 168.891 52.3012C168.661 51.8425 168.45 51.3781 168.243 50.9087C168.161 50.7094 168.078 50.5106 167.999 50.3094C167.828 49.8756 167.686 49.4288 167.474 49.0125C167.15 48.3744 166.673 47.8063 166.003 47.5182C165.891 47.47 165.775 47.43 165.657 47.3994V51.2387C165.74 51.4594 165.823 51.68 165.915 51.8962C166.35 52.9231 166.85 53.9237 167.436 54.8724C168.223 56.1456 169.167 57.3268 170.29 58.3187C171.476 59.3661 172.853 60.1842 174.344 60.7161C175.257 61.0424 176.199 61.2542 177.155 61.3836L176.569 65.0873ZM92.2817 59.0005C92.2817 59.0005 93.3967 58.9893 93.7136 58.9711C94.5005 58.9261 95.2886 58.8005 96.0504 58.5999C98.0385 58.0762 99.7841 56.9587 101.139 55.4174C101.968 54.4743 102.634 53.4118 103.213 52.3012C103.442 51.8425 103.653 51.3781 103.86 50.9087C103.942 50.7094 104.026 50.5106 104.105 50.3094C104.275 49.8756 104.418 49.4288 104.629 49.0125C104.953 48.3744 105.431 47.8063 106.1 47.5182C106.212 47.47 106.328 47.43 106.447 47.3994V51.2387C106.364 51.4594 106.281 51.68 106.189 51.8962C105.754 52.9231 105.253 53.9237 104.667 54.8724C103.88 56.1456 102.936 57.3268 101.813 58.3187C100.627 59.3661 99.2504 60.1843 97.7598 60.7161C96.5042 61.1649 95.1961 61.3967 93.8692 61.4961C93.4761 61.5149 92.2036 61.533 92.2036 61.533C91.7899 61.5336 91.063 61.5136 90.6949 61.4961C89.368 61.3967 88.0599 61.1649 86.8043 60.7161C85.3137 60.1843 83.9368 59.3661 82.7512 58.3187C81.6281 57.3268 80.6838 56.1456 79.8975 54.8724C79.3113 53.9237 78.81 52.9231 78.375 51.8962C78.2832 51.68 78.2 51.4594 78.1175 51.2387V47.3994C78.2357 47.43 78.3519 47.47 78.4644 47.5182C79.1332 47.8063 79.6113 48.3744 79.935 49.0125C80.1463 49.4288 80.2888 49.8756 80.4594 50.3094C80.5381 50.5106 80.6225 50.7094 80.7038 50.9087C80.9106 51.3781 81.1219 51.8425 81.3512 52.3012C81.93 53.4118 82.5962 54.4743 83.425 55.4174C84.78 56.9587 86.5256 58.0762 88.5137 58.5999C89.2755 58.8005 90.0636 58.9261 90.8505 58.9711C91.1886 58.9905 91.943 58.9774 92.2817 59.0005ZM150.642 61.5324C150.642 61.5324 149.423 61.5136 149.054 61.4961C147.728 61.3967 146.419 61.1649 145.164 60.7161C143.673 60.1843 142.297 59.3661 141.111 58.3187C139.987 57.3268 139.043 56.1456 138.257 54.8724C137.671 53.9237 137.169 52.9231 136.734 51.8962C136.643 51.68 136.56 51.4594 136.477 51.2387V47.3994C136.596 47.43 136.711 47.47 136.824 47.5182C137.493 47.8063 137.971 48.3744 138.294 49.0125C138.506 49.4288 138.649 49.8756 138.819 50.3094C138.898 50.5106 138.982 50.7094 139.064 50.9087C139.27 51.3781 139.481 51.8425 139.711 52.3012C140.29 53.4118 140.956 54.4743 141.785 55.4174C143.139 56.9587 144.885 58.0762 146.874 58.5999C147.635 58.8005 148.423 58.9261 149.21 58.9711C149.549 58.9905 150.303 58.9774 150.642 59.0005C150.642 59.0005 151.756 58.9893 152.073 58.9711C152.86 58.9261 153.648 58.8005 154.41 58.5999C156.398 58.0762 158.143 56.9587 159.498 55.4174C160.327 54.4743 160.993 53.4118 161.572 52.3012C161.802 51.8425 162.013 51.3781 162.22 50.9087C162.301 50.7094 162.385 50.5106 162.464 50.3094C162.635 49.8756 162.777 49.4288 162.989 49.0125C163.313 48.3744 163.79 47.8063 164.46 47.5182C164.572 47.47 164.688 47.43 164.806 47.3994V51.2387C164.723 51.4594 164.64 51.68 164.549 51.8962C164.114 52.9231 163.613 53.9237 163.026 54.8724C162.24 56.1456 161.296 57.3268 160.173 58.3187C158.987 59.3661 157.61 60.1843 156.119 60.7161C154.864 61.1649 153.555 61.3967 152.229 61.4961C151.836 61.5149 151.035 61.5367 150.642 61.5324ZM121.53 58.9968C121.893 58.9793 122.576 58.9893 122.894 58.9711C123.68 58.9261 124.468 58.8005 125.23 58.5999C127.218 58.0762 128.964 56.9587 130.319 55.4174C131.148 54.4743 131.814 53.4118 132.392 52.3012C132.622 51.8425 132.834 51.3781 133.04 50.9087C133.121 50.7094 133.206 50.5106 133.284 50.3094C133.455 49.8756 133.597 49.4288 133.809 49.0125C134.132 48.3744 134.611 47.8063 135.279 47.5182C135.392 47.47 135.508 47.43 135.626 47.3994V51.2387C135.544 51.4594 135.461 51.68 135.369 51.8962C134.934 52.9231 134.433 53.9237 133.846 54.8724C133.06 56.1456 132.116 57.3268 130.993 58.3187C129.807 59.3661 128.43 60.1843 126.939 60.7161C125.684 61.1649 124.376 61.3967 123.049 61.4961C122.656 61.5149 121.856 61.5367 121.462 61.5324C121.068 61.5367 120.268 61.5149 119.875 61.4961C118.548 61.3967 117.24 61.1649 115.984 60.7161C114.493 60.1843 113.116 59.3661 111.931 58.3187C110.808 57.3268 109.863 56.1456 109.077 54.8724C108.491 53.9237 107.99 52.9231 107.555 51.8962C107.463 51.68 107.38 51.4594 107.297 51.2387V47.3994C107.416 47.43 107.532 47.47 107.644 47.5182C108.313 47.8063 108.791 48.3744 109.115 49.0125C109.326 49.4288 109.469 49.8756 109.639 50.3094C109.718 50.5106 109.802 50.7094 109.883 50.9087C110.09 51.3781 110.302 51.8425 110.532 52.3012C111.11 53.4118 111.776 54.4743 112.605 55.4174C113.96 56.9587 115.705 58.0762 117.694 58.5999C118.455 58.8005 119.243 58.9261 120.03 58.9711C120.368 58.9905 121.53 58.9968 121.53 58.9968ZM61.6702 58.9711C62.009 58.9905 64.2165 58.9893 64.534 58.9711C65.3208 58.9261 66.1089 58.8005 66.8702 58.5999C68.8589 58.0762 70.6045 56.9587 71.9595 55.4174C72.7882 54.4743 73.4545 53.4118 74.0326 52.3012C74.2626 51.8425 74.4738 51.3781 74.6807 50.9087C74.762 50.7094 74.8463 50.5106 74.9251 50.3094C75.0951 49.8756 75.2382 49.4288 75.4494 49.0125C75.7732 48.3744 76.2507 47.8063 76.9201 47.5182C77.0326 47.47 77.1482 47.43 77.2669 47.3994V51.2387C77.1844 51.4594 77.1013 51.68 77.0094 51.8962C76.5744 52.9231 76.0732 53.9237 75.487 54.8724C74.7007 56.1456 73.7563 57.3268 72.6332 58.3187C71.447 59.3661 70.0708 60.1843 68.5802 60.7161C67.3246 61.1649 66.0164 61.3967 64.6896 61.4961C64.2965 61.5149 61.8834 61.5136 61.5146 61.4961C60.1884 61.3967 58.8803 61.1649 57.6247 60.7161C56.1341 60.1843 54.7572 59.3661 53.571 58.3187C52.4479 57.3268 51.5041 56.1456 50.7179 54.8724C50.131 53.9237 49.6304 52.9231 49.1954 51.8962C49.1035 51.68 49.0204 51.4594 48.9379 51.2387V47.3994C49.056 47.43 49.1717 47.47 49.2848 47.5182C49.9535 47.8063 50.4316 48.3744 50.7554 49.0125C50.9666 49.4288 51.1091 49.8756 51.2798 50.3094C51.3585 50.5106 51.4429 50.7094 51.5241 50.9087C51.7304 51.3781 51.9416 51.8425 52.1716 52.3012C52.7504 53.4118 53.4166 54.4743 54.2453 55.4174C55.6003 56.9587 57.3459 58.0762 59.334 58.5999C60.0959 58.8005 60.884 58.9261 61.6702 58.9711ZM47.6942 46.2469C47.2698 46.6188 46.8161 47.0169 46.6973 47.1213C46.6779 47.1382 46.6529 47.1463 46.6273 47.1444C46.4092 47.1219 46.1067 47.0025 45.9336 46.7194C45.9017 46.6632 45.9154 46.5925 45.9648 46.5519C46.3023 46.2544 47.6992 45.0244 48.2692 44.5226C48.4085 44.4001 48.6173 44.4001 48.7567 44.5226C49.3935 45.0838 51.0604 46.5519 51.0604 46.5519C51.1104 46.5925 51.1235 46.6632 51.0923 46.7194C50.9185 47.0025 50.616 47.1219 50.3979 47.1444C50.3729 47.1463 50.3473 47.1382 50.3279 47.1213C50.1335 46.9507 49.0417 45.9932 48.6517 45.6507C48.5723 45.5807 48.4535 45.5807 48.3735 45.6507C48.1404 45.8557 47.6942 46.2469 47.6942 46.2469ZM76.8738 46.2469C76.4501 46.6188 75.9957 47.0169 75.8769 47.1213C75.8576 47.1382 75.8326 47.1463 75.8069 47.1444C75.5895 47.1219 75.287 47.0025 75.1132 46.7194C75.082 46.6632 75.0951 46.5925 75.1445 46.5519C75.4826 46.2544 76.8788 45.0244 77.4488 44.5226C77.5882 44.4001 77.7969 44.4001 77.9363 44.5226C78.5732 45.0838 80.24 46.5519 80.24 46.5519C80.29 46.5925 80.3031 46.6632 80.2719 46.7194C80.0981 47.0025 79.7956 47.1219 79.5782 47.1444C79.5525 47.1463 79.5269 47.1382 79.5082 47.1213C79.3132 46.9507 78.2219 45.9932 77.8313 45.6507C77.7519 45.5807 77.6332 45.5807 77.5538 45.6507C77.3201 45.8557 76.8738 46.2469 76.8738 46.2469ZM106.053 46.2469C105.63 46.6188 105.176 47.0169 105.057 47.1213C105.037 47.1382 105.012 47.1463 104.987 47.1444C104.769 47.1219 104.467 47.0025 104.293 46.7194C104.262 46.6632 104.275 46.5925 104.325 46.5519C104.662 46.2544 106.058 45.0244 106.628 44.5226C106.768 44.4001 106.977 44.4001 107.116 44.5226C107.753 45.0838 109.42 46.5519 109.42 46.5519C109.47 46.5925 109.483 46.6632 109.452 46.7194C109.278 47.0025 108.975 47.1219 108.758 47.1444C108.732 47.1463 108.707 47.1382 108.688 47.1213C108.493 46.9507 107.402 45.9932 107.011 45.6507C106.932 45.5807 106.813 45.5807 106.733 45.6507C106.5 45.8557 106.053 46.2469 106.053 46.2469ZM135.234 46.2469C134.809 46.6188 134.356 47.0169 134.236 47.1213C134.217 47.1382 134.192 47.1463 134.166 47.1444C133.949 47.1219 133.646 47.0025 133.472 46.7194C133.441 46.6632 133.454 46.5925 133.504 46.5519C133.842 46.2544 135.239 45.0244 135.808 44.5226C135.947 44.4001 136.156 44.4001 136.296 44.5226C136.933 45.0838 138.6 46.5519 138.6 46.5519C138.649 46.5925 138.662 46.6632 138.631 46.7194C138.457 47.0025 138.155 47.1219 137.937 47.1444C137.912 47.1463 137.887 47.1382 137.867 47.1213C137.672 46.9507 136.581 45.9932 136.191 45.6507C136.111 45.5807 135.992 45.5807 135.913 45.6507C135.679 45.8557 135.234 46.2469 135.234 46.2469ZM164.413 46.2469C163.989 46.6188 163.535 47.0169 163.416 47.1213C163.397 47.1382 163.371 47.1463 163.346 47.1444C163.128 47.1219 162.826 47.0025 162.652 46.7194C162.621 46.6632 162.634 46.5925 162.684 46.5519C163.021 46.2544 164.418 45.0244 164.988 44.5226C165.127 44.4001 165.336 44.4001 165.475 44.5226C166.113 45.0838 167.78 46.5519 167.78 46.5519C167.829 46.5925 167.843 46.6632 167.811 46.7194C167.638 47.0025 167.335 47.1219 167.117 47.1444C167.091 47.1463 167.066 47.1382 167.047 47.1213C166.853 46.9507 165.761 45.9932 165.371 45.6507C165.291 45.5807 165.172 45.5807 165.093 45.6507C164.86 45.8557 164.413 46.2469 164.413 46.2469ZM165.232 32.5615L169.355 28.7346C169.355 28.7346 174.331 23.8047 175.653 22.6403C176.411 21.9735 177.199 22.0097 177.199 22.0097C177.199 22.0097 172.238 31.2296 172.257 36.6758C172.278 42.6276 168.348 45.9438 168.348 45.9438L165.232 43.1995L162.116 45.9438C162.116 45.9438 158.186 42.6276 158.207 36.6758C158.227 31.2296 153.265 22.0097 153.265 22.0097C153.265 22.0097 154.053 21.9735 154.811 22.6403C156.133 23.8047 161.109 28.7346 161.109 28.7346L165.232 32.5615ZM48.5129 32.5615L52.636 28.7346C52.636 28.7346 57.6122 23.8047 58.934 22.6403C59.6915 21.9735 60.4796 22.0097 60.4796 22.0097C60.4796 22.0097 55.5184 31.2296 55.5378 36.6758C55.5591 42.6276 51.6291 45.9438 51.6291 45.9438L48.5129 43.1995L45.3967 45.9438C45.3967 45.9438 41.4667 42.6276 41.488 36.6758C41.5074 31.2296 36.5462 22.0097 36.5462 22.0097C36.5462 22.0097 37.3343 21.9735 38.0918 22.6403C39.4136 23.8047 44.3898 28.7346 44.3898 28.7346L48.5129 32.5615ZM77.6925 32.5615L81.8156 28.7346C81.8156 28.7346 86.7918 23.8047 88.1137 22.6403C88.8712 21.9735 89.6593 22.0097 89.6593 22.0097C89.6593 22.0097 84.6981 31.2296 84.7175 36.6758C84.7387 42.6276 80.8088 45.9438 80.8088 45.9438L77.6925 43.1995L74.5763 45.9438C74.5763 45.9438 70.6464 42.6276 70.6676 36.6758C70.687 31.2296 65.7258 22.0097 65.7258 22.0097C65.7258 22.0097 66.5146 21.9735 67.2714 22.6403C68.5933 23.8047 73.5695 28.7346 73.5695 28.7346L77.6925 32.5615ZM106.872 32.5615L110.995 28.7346C110.995 28.7346 115.971 23.8047 117.293 22.6403C118.051 21.9735 118.839 22.0097 118.839 22.0097C118.839 22.0097 113.878 31.2296 113.897 36.6758C113.918 42.6276 109.988 45.9438 109.988 45.9438L106.872 43.1995L103.756 45.9438C103.756 45.9438 99.8266 42.6276 99.8473 36.6758C99.8666 31.2296 94.9061 22.0097 94.9061 22.0097C94.9061 22.0097 95.6942 21.9735 96.4517 22.6403C97.7735 23.8047 102.75 28.7346 102.75 28.7346L106.872 32.5615ZM136.052 32.5615L140.175 28.7346C140.175 28.7346 145.151 23.8047 146.473 22.6403C147.23 21.9735 148.019 22.0097 148.019 22.0097C148.019 22.0097 143.058 31.2296 143.077 36.6758C143.098 42.6276 139.169 45.9438 139.169 45.9438L136.052 43.1995L132.936 45.9438C132.936 45.9438 129.006 42.6276 129.028 36.6758C129.046 31.2296 124.086 22.0097 124.086 22.0097C124.086 22.0097 124.874 21.9735 125.631 22.6403C126.953 23.8047 131.929 28.7346 131.929 28.7346L136.052 32.5615ZM103.39 28.0403C101.316 26.1172 98.8085 23.7897 97.3311 22.416C96.9892 22.0991 96.7998 21.6504 96.8111 21.1841C96.8223 20.7179 97.0336 20.2791 97.3904 19.9791C97.7517 19.6648 98.2229 19.5323 98.686 19.6029C99.1498 19.6735 99.5604 19.9398 99.8135 20.3341L103.98 26.7909C103.708 27.1597 103.505 27.5828 103.39 28.0403ZM161.749 28.0403C159.676 26.1172 157.168 23.7897 155.69 22.416C155.348 22.0991 155.159 21.6504 155.17 21.1841C155.182 20.7179 155.393 20.2791 155.75 19.9791C156.112 19.6648 156.583 19.5323 157.046 19.6029C157.509 19.6735 157.92 19.9398 158.173 20.3341L162.34 26.7909C162.068 27.1597 161.865 27.5828 161.749 28.0403ZM74.2101 28.0403C72.1364 26.1172 69.6283 23.7897 68.1514 22.416C67.8089 22.0991 67.6195 21.6504 67.6314 21.1841C67.6427 20.7179 67.8539 20.2791 68.2108 19.9791C68.572 19.6648 69.0433 19.5323 69.5064 19.6029C69.9695 19.6735 70.3801 19.9398 70.6339 20.3341L74.8001 26.7909C74.5282 27.1597 74.3251 27.5828 74.2101 28.0403ZM132.569 28.0403C130.496 26.1172 127.988 23.7897 126.511 22.416C126.169 22.0991 125.979 21.6504 125.991 21.1841C126.002 20.7179 126.213 20.2791 126.57 19.9791C126.931 19.6648 127.403 19.5323 127.866 19.6029C128.329 19.6735 128.74 19.9398 128.993 20.3341L133.16 26.7909C132.888 27.1597 132.684 27.5828 132.569 28.0403ZM45.0298 28.0403C42.9567 26.1172 40.4486 23.7897 38.9712 22.416C38.6293 22.0991 38.4399 21.6504 38.4512 21.1841C38.463 20.7179 38.6737 20.2791 39.0312 19.9791C39.3924 19.6648 39.8636 19.5323 40.3268 19.6029C40.7899 19.6735 41.2005 19.9398 41.4536 20.3341L45.6204 26.7909C45.3486 27.1597 45.1455 27.5828 45.0298 28.0403ZM51.4016 26.7859C52.8666 24.5166 54.5472 21.9147 55.5684 20.3372C55.8216 19.9454 56.2303 19.681 56.6916 19.611C57.1528 19.541 57.6215 19.6729 57.979 19.9723C58.3515 20.2735 58.5634 20.7147 58.5747 21.1835C58.5853 21.6516 58.3947 22.1022 58.0503 22.4203L51.9941 28.0347C51.8785 27.5772 51.6741 27.1547 51.4016 26.7859ZM168.121 26.7859C169.586 24.5166 171.266 21.9147 172.288 20.3372C172.541 19.9454 172.949 19.681 173.411 19.611C173.872 19.541 174.341 19.6729 174.698 19.9723C175.071 20.2735 175.283 20.7147 175.293 21.1835C175.304 21.6516 175.114 22.1022 174.769 22.4203L168.713 28.0347C168.598 27.5772 168.393 27.1547 168.121 26.7859ZM138.941 26.7859C140.406 24.5166 142.087 21.9147 143.108 20.3372C143.36 19.9454 143.77 19.681 144.231 19.611C144.692 19.541 145.161 19.6729 145.518 19.9723C145.89 20.2735 146.103 20.7147 146.114 21.1835C146.125 21.6516 145.934 22.1022 145.59 22.4203L139.534 28.0347C139.417 27.5772 139.214 27.1547 138.941 26.7859ZM109.761 26.7859C111.227 24.5166 112.907 21.9147 113.928 20.3372C114.181 19.9454 114.59 19.681 115.051 19.611C115.512 19.541 115.981 19.6729 116.338 19.9723C116.711 20.2735 116.923 20.7147 116.934 21.1835C116.945 21.6516 116.754 22.1022 116.41 22.4203L110.354 28.0347C110.238 27.5772 110.034 27.1547 109.761 26.7859ZM80.5813 26.7859C82.0462 24.5166 83.7269 21.9147 84.7481 20.3372C85.0012 19.9454 85.41 19.681 85.8712 19.611C86.3324 19.541 86.8012 19.6729 87.1587 19.9723C87.5312 20.2735 87.743 20.7147 87.7543 21.1835C87.7649 21.6516 87.5743 22.1022 87.2299 22.4203L81.1744 28.0347C81.0581 27.5772 80.8544 27.1547 80.5813 26.7859ZM133.532 26.3615C132.319 23.996 130.949 21.3241 130.113 19.6879C129.9 19.2729 129.876 18.7866 130.046 18.3523C130.216 17.9179 130.564 17.5779 131.003 17.4179C131.449 17.246 131.937 17.2835 132.349 17.5079C132.76 17.7329 133.054 18.1235 133.158 18.5804L134.751 25.5709C134.291 25.7503 133.877 26.0209 133.532 26.3615ZM104.352 26.3615C103.14 23.996 101.77 21.3241 100.933 19.6879C100.72 19.2729 100.695 18.7866 100.866 18.3523C101.036 17.9179 101.384 17.5779 101.822 17.4179C102.27 17.246 102.758 17.2835 103.169 17.5079C103.58 17.7329 103.875 18.1235 103.978 18.5804L105.571 25.5709C105.112 25.7503 104.698 26.0209 104.352 26.3615ZM75.1726 26.3615C73.9595 23.996 72.5901 21.3241 71.7532 19.6879C71.5401 19.2729 71.5157 18.7866 71.6864 18.3523C71.8564 17.9179 72.2045 17.5779 72.6426 17.4179C73.0901 17.246 73.5776 17.2835 73.9888 17.5079C74.4001 17.7329 74.6951 18.1235 74.7982 18.5804L76.3913 25.5709C75.9313 25.7503 75.5176 26.0209 75.1726 26.3615ZM162.712 26.3615C161.499 23.996 160.13 21.3241 159.293 19.6879C159.08 19.2729 159.055 18.7866 159.225 18.3523C159.395 17.9179 159.744 17.5779 160.182 17.4179C160.629 17.246 161.117 17.2835 161.528 17.5079C161.94 17.7329 162.235 18.1235 162.338 18.5804L163.93 25.5709C163.471 25.7503 163.057 26.0209 162.712 26.3615ZM45.9929 26.3615C44.7798 23.996 43.4105 21.3241 42.5736 19.6879C42.3605 19.2729 42.3361 18.7866 42.5061 18.3523C42.6767 17.9179 43.0249 17.5779 43.463 17.4179C43.9098 17.246 44.398 17.2835 44.8092 17.5079C45.2205 17.7329 45.5154 18.1235 45.6186 18.5804L47.2111 25.5709C46.7517 25.7503 46.3379 26.0209 45.9929 26.3615ZM78.9882 25.5684C79.56 23.0603 80.1906 20.2985 80.5844 18.5816C80.6881 18.1267 80.9819 17.7385 81.3913 17.5154C81.8006 17.2923 82.2862 17.2554 82.725 17.4148L82.7375 17.4098C83.1781 17.5704 83.5281 17.9123 83.6987 18.3485C83.8693 18.7854 83.8437 19.2741 83.6287 19.6904L80.2081 26.3565C79.8619 26.0172 79.4482 25.7466 78.9882 25.5684ZM166.527 25.5684C167.1 23.0603 167.73 20.2985 168.124 18.5816C168.228 18.1267 168.521 17.7385 168.931 17.5154C169.34 17.2923 169.826 17.2554 170.264 17.4148L170.277 17.4098C170.717 17.5704 171.067 17.9123 171.238 18.3485C171.408 18.7854 171.383 19.2741 171.168 19.6904L167.748 26.3565C167.401 26.0172 166.987 25.7466 166.527 25.5684ZM49.8079 25.5684C50.3804 23.0603 51.011 20.2985 51.4048 18.5816C51.5085 18.1267 51.8022 17.7385 52.2116 17.5154C52.621 17.2923 53.1066 17.2554 53.5447 17.4148L53.5579 17.4098C53.9978 17.5704 54.3478 17.9123 54.5185 18.3485C54.6891 18.7854 54.6641 19.2741 54.4491 19.6904L51.0285 26.3565C50.6823 26.0172 50.2679 25.7466 49.8079 25.5684ZM108.168 25.5684C108.74 23.0603 109.37 20.2985 109.764 18.5816C109.868 18.1267 110.162 17.7385 110.572 17.5154C110.981 17.2923 111.467 17.2554 111.905 17.4148L111.917 17.4098C112.358 17.5704 112.708 17.9123 112.878 18.3485C113.049 18.7854 113.023 19.2741 112.809 19.6904L109.388 26.3565C109.042 26.0172 108.628 25.7466 108.168 25.5684ZM137.347 25.5684C137.92 23.0603 138.551 20.2985 138.944 18.5816C139.047 18.1267 139.342 17.7385 139.751 17.5154C140.161 17.2923 140.646 17.2554 141.084 17.4148L141.097 17.4098C141.537 17.5704 141.887 17.9123 142.058 18.3485C142.229 18.7854 142.203 19.2741 141.989 19.6904L138.567 26.3565C138.222 26.0172 137.807 25.7466 137.347 25.5684ZM164.571 25.3884C164.221 22.2578 163.817 18.6341 163.587 16.551C163.535 16.0867 163.683 15.6211 163.995 15.2723C164.307 14.9236 164.752 14.7242 165.22 14.7236C165.706 14.7148 166.153 14.9161 166.466 15.2667C166.78 15.6173 166.928 16.0848 166.875 16.5517L165.886 25.3872C165.674 25.3478 165.455 25.3278 165.232 25.3278C165.006 25.3278 164.785 25.3484 164.571 25.3884ZM135.391 25.3884C135.042 22.2578 134.637 18.6341 134.407 16.551C134.355 16.0867 134.504 15.6211 134.816 15.2723C135.127 14.9236 135.572 14.7242 136.041 14.7236C136.526 14.7148 136.974 14.9161 137.287 15.2667C137.599 15.6173 137.748 16.0848 137.695 16.5517L136.706 25.3872C136.494 25.3478 136.276 25.3278 136.052 25.3278C135.826 25.3278 135.606 25.3484 135.391 25.3884ZM77.0319 25.3884C76.6819 22.2578 76.2782 18.6341 76.0476 16.551C75.9957 16.0867 76.1438 15.6211 76.4557 15.2723C76.7676 14.9236 77.2132 14.7242 77.6807 14.7236C78.1663 14.7148 78.6144 14.9161 78.9269 15.2667C79.24 15.6173 79.3882 16.0848 79.335 16.5517L78.3463 25.3872C78.1344 25.3478 77.9157 25.3278 77.6926 25.3278C77.4669 25.3278 77.2457 25.3484 77.0319 25.3884ZM47.8517 25.3884C47.5023 22.2578 47.0979 18.6341 46.8679 16.551C46.8161 16.0867 46.9642 15.6211 47.2761 15.2723C47.5879 14.9236 48.0329 14.7242 48.501 14.7236C48.9867 14.7148 49.4342 14.9161 49.7473 15.2667C50.0604 15.6173 50.2085 16.0848 50.1554 16.5517L49.1667 25.3872C48.9548 25.3478 48.736 25.3278 48.5129 25.3278C48.2873 25.3278 48.066 25.3484 47.8517 25.3884ZM106.212 25.3884C105.862 22.2578 105.458 18.6341 105.227 16.551C105.175 16.0867 105.324 15.6211 105.635 15.2723C105.947 14.9236 106.393 14.7242 106.86 14.7236C107.347 14.7148 107.794 14.9161 108.107 15.2667C108.42 15.6173 108.568 16.0848 108.515 16.5517L107.527 25.3872C107.314 25.3478 107.096 25.3278 106.872 25.3278C106.647 25.3278 106.426 25.3484 106.212 25.3884ZM185.949 5.74743H29.0838L28.1569 0H186.857L185.949 5.74743Z" fill="white"/>
</svg>
