<svg width="300" height="300" viewBox="0 0 300 300" fill="none" xmlns="http://www.w3.org/2000/svg">
<path fill-rule="evenodd" clip-rule="evenodd" d="M41.3759 71.1486C74.9209 43.4369 105.493 26.9333 133.091 21.6379C152.63 17.8359 172.867 20.1492 191.044 28.2628C241.044 50.7512 248.885 109.91 233.851 148.159C250.123 77.4213 217.237 47.8421 187.42 38.9899C169.852 33.7741 149.92 35.24 132.682 40.7513C101.489 50.6943 79.2731 73.5122 62.3984 87.1371C50.7053 89.0121 42.3532 85.7394 41.3304 71.1486H41.3759Z" fill="white"/>
<path fill-rule="evenodd" clip-rule="evenodd" d="M99.1251 86.0458C93.2161 115.864 97.8637 142.318 117.977 154.284C133.886 163.749 156.158 163.261 172.931 156.67C188.294 150.636 200.919 139.625 216.112 128.182C226.919 126.216 230.885 132.102 230.282 138.716C211.544 153.761 192.488 165.283 172.829 170.238C158.42 173.863 144.852 173.715 130.943 168.249C93.7274 153.624 88.8298 111.432 99.1251 86.0458Z" fill="white"/>
<path fill-rule="evenodd" clip-rule="evenodd" d="M163.613 138.125C159.579 139.443 156.079 141.262 154.068 144.512C153.784 145.648 154.409 145.534 154.84 145.705L157.227 146.216C158.011 146.353 157.931 146.728 157.909 147.352C157.909 147.693 157.818 148.023 157.784 148.364C154.66 148.208 151.56 147.732 148.534 146.943V146.909C152.42 140.409 157.42 137.398 163.613 138.125ZM164.374 125.921C155.897 128.569 148.386 131.671 143.761 136.148C142.738 137.353 144.466 137.864 145.318 138.273L148.363 139.728L146.147 146.318C141.55 144.958 137.175 142.937 133.159 140.318C140.511 131.171 151.113 126.682 164.374 125.921ZM178.908 111.239C164.577 112.808 150.555 116.48 137.295 122.137C136.375 122.728 136.068 123.557 136.5 125.103L137.75 130.966L131.352 139C127.638 136.544 124.356 133.492 121.636 129.966L121.591 130.012C131.045 117.273 169.488 106.478 178.908 111.239ZM201.544 96.2849C176.136 94.5577 153.181 99.4099 131.023 108.876C130.307 109.205 129.886 109.876 130.113 111.296C130.341 112.717 131.25 117.819 130.113 118.728C126.391 121.341 122.921 124.297 119.75 127.557C117.355 124.162 115.375 120.492 113.852 116.626C135.034 97.9554 180.022 89.0123 201.544 96.2849ZM204.124 83.6942C179.033 78.717 154.193 82.1601 131.17 92.41C129.193 93.285 128.898 94.8077 128.579 96.6713C128.261 98.5349 127.886 100.353 127.534 102.194C123.159 103.796 118.295 107.194 112.705 113.239C111.262 108.909 110.6 104.358 110.75 99.7962C132.488 82.0806 185.147 71.8875 204.124 83.6942ZM154.545 70.3534C140.568 74.7852 132.863 73.9898 130.579 86.2623L110.841 96.9895C111.298 92.4079 112.235 87.8869 113.636 83.501C126.306 76.5425 140.193 72.0793 154.545 70.3534ZM156.659 59.7399C147.954 61.8535 141.056 60.6376 137.852 69.2853C130.307 71.3534 122.591 75.5466 114.773 80.7056C116.786 75.9827 119.604 71.6455 123.102 67.8876C134.522 62.3649 145.636 60.4104 156.659 59.7399ZM172.727 52.4673C192.147 57.649 201.078 68.1148 207.067 80.0465C190.192 56.5343 164.92 49.8284 130.555 61.5054L129.681 61.8051L129.921 61.6243C140.343 53.748 153.234 48.9416 172.727 52.4673Z" fill="white"/>
<path d="M229.544 276.896L235.555 281.771L229.544 286.635L223.584 281.821L217.635 286.635L211.675 281.821L205.715 286.635L199.703 281.771L205.715 276.896L211.675 281.72L217.635 276.896L223.584 281.72L229.544 276.896ZM213.692 242.658V267.067H221.749C222.283 267.106 222.751 266.713 222.805 266.18V257.919L229.919 252.942V271.998C229.913 274.663 227.754 276.822 225.089 276.828H205.556V248.34L213.692 242.658ZM156.067 242.658V267.067H162.772C163.304 267.1 163.769 266.71 163.829 266.18V257.919L170.942 252.942L170.942 267.067L178.7 267.067C179.18 267.039 179.58 266.669 179.635 266.18V257.919L186.749 252.942L186.749 267.067L194.507 267.067C194.987 267.039 195.387 266.669 195.442 266.18V257.919L202.556 252.942V271.998C202.531 274.655 200.383 276.803 197.726 276.828H186.635L186.637 272.998C186.161 275.174 184.233 276.806 181.919 276.828H170.795L170.795 273.156C170.266 275.256 168.373 276.812 166.113 276.828H147.931V248.34L156.067 242.658ZM144.738 252.942V271.998C144.713 274.66 142.559 276.809 139.897 276.828H128.818V267.067H136.556C137.089 267.1 137.554 266.71 137.613 266.18V257.919L144.738 252.942ZM74.6594 247.18L92.4092 262.771C95.3637 265.794 96.6251 276.828 85.6479 276.828H74.5685V267.067H82.3184C83.8752 267.612 85.8638 265.783 84.5911 264.248L74.489 255.703L74.6594 247.18ZM104.727 242.646V267.032H117.898C118.943 266.964 119.159 266.305 118.432 265.714L106.932 256.112C106.932 256.112 110.165 253.695 113.443 251.25L114.098 250.761C117.151 248.486 120.057 246.327 120.227 246.226L130.454 246.078L116.977 256.124L123.045 260.908C128.375 264.737 127.386 272.271 122.454 275.68C120.329 277.146 117.693 276.623 115.113 276.816H96.591V248.328L104.727 242.646ZM123.147 241.84L106.989 253.783L106.92 249.158L116.909 241.908L123.147 241.84ZM206.965 228.863C207.45 228.847 207.926 228.995 208.317 229.283C208.711 229.57 208.937 230.034 208.919 230.522C208.919 231.522 208.34 232.01 207.181 232.01C206.021 232.01 205.26 231.522 205.26 230.522C205.201 230.058 205.363 229.593 205.698 229.267C206.034 228.941 206.502 228.791 206.965 228.863ZM275.611 213.34V217.272C275.611 218.51 276.6 219.147 278.589 219.181H280.793C282.055 219.181 282.691 218.522 282.691 217.192V213.34H285.384V217.363C285.358 217.97 285.604 218.557 286.055 218.965C286.503 219.377 287.094 219.597 287.702 219.579C288.986 219.579 289.634 219.01 289.634 217.885V213.34H292.282V217.363C292.267 217.969 292.52 218.551 292.975 218.954C293.427 219.367 294.021 219.591 294.634 219.579C295.907 219.579 296.543 219.01 296.543 217.885V213.34H299.225V217.533C299.267 218.679 298.945 219.809 298.304 220.76C297.645 221.669 296.573 222.185 295.452 222.135C293.981 222.126 292.595 221.444 291.691 220.283C290.915 221.369 289.693 222.049 288.361 222.135C286.847 222.027 285.472 221.215 284.645 219.942C283.764 221.05 282.465 221.745 281.055 221.863L278.589 221.908H277.521V221.806C276.773 221.689 276.103 221.28 275.657 220.669C275.733 222.7 275.134 224.698 273.952 226.351C272.748 228.007 270.794 228.95 268.748 228.863H265.214L264.771 226.124H268.532C269.646 226.134 270.724 225.729 271.555 224.988C272.407 224.268 272.89 223.205 272.873 222.09V213.34H275.611ZM95.1137 202.806L95.4887 205.533L88.3752 208.192L95.9205 216.544C96.5093 217.254 97.1807 217.891 97.9205 218.442C98.7124 218.931 99.6261 219.187 100.557 219.181H101.045C101.92 219.181 102.477 218.897 102.705 218.522C102.914 217.877 102.991 217.197 102.932 216.522V204.386H105.625V217.726C105.701 218.868 105.288 219.988 104.489 220.806C103.613 221.579 102.474 221.986 101.307 221.942H99.2273V221.851C97.8279 221.746 96.5373 221.057 95.6705 219.954C95.1364 221.272 93.8751 221.942 91.9092 221.942H83.807C83.3843 221.936 82.9626 221.898 82.5457 221.829C82.0246 221.604 81.5475 221.288 81.1366 220.897C80.4217 221.547 79.5004 221.926 78.5344 221.965L73.6367 221.908H72.5799V221.806C71.828 221.693 71.1527 221.284 70.7049 220.669C70.7843 222.698 70.1889 224.697 69.0118 226.351C67.8057 228.005 65.8528 228.948 63.8073 228.863H60.2278L59.7846 226.124H63.5573C64.6719 226.139 65.7512 225.733 66.58 224.988C67.4318 224.268 67.9157 223.205 67.8981 222.09V213.34H70.6254V217.272C70.6254 218.51 71.6254 219.147 73.6026 219.181H77.6139C78.1799 219.245 78.748 219.081 79.1935 218.726C79.5374 218.254 79.6952 217.671 79.6366 217.09V213.34H82.3752V217.09C82.2817 217.747 82.515 218.409 83.0002 218.863C83.5687 219.124 84.195 219.233 84.8184 219.181H91.8524C92.5683 219.181 92.9887 218.715 92.9887 217.772C92.9966 217.473 92.8863 217.183 92.6819 216.965L85.5684 209.499L85.0684 206.431L95.1137 202.806ZM52.7506 210.954C54.5687 210.783 56.2746 211.855 56.9096 213.567C57.4223 215.264 57.6376 217.036 57.546 218.806V222.215L57.5801 222.249C57.606 224.024 56.8546 225.722 55.5233 226.897C54.2386 228.141 52.5164 228.831 50.7279 228.817H47.1825L46.8416 226.078H50.2506C51.4273 226.118 52.5755 225.712 53.4665 224.942C54.335 224.169 54.8279 223.059 54.8188 221.897C53.1135 222.013 51.4062 221.701 49.8529 220.988C48.4008 220.03 47.6033 218.343 47.7847 216.613C47.7847 214.34 48.3302 212.738 49.4211 211.806C50.3994 211.146 51.5757 210.845 52.7506 210.954ZM200.056 213.283V217.215C200.056 218.454 201.056 219.09 203.033 219.124H207.26C207.826 219.189 208.395 219.026 208.84 218.669C209.175 218.193 209.328 217.613 209.271 217.033V213.283H211.999V217.408C212.024 218.519 211.663 219.603 210.976 220.476C210.293 221.363 209.232 221.877 208.112 221.863L203.021 221.908H202.271V221.851C201.4 221.78 200.606 221.326 200.101 220.613C200.18 222.642 199.585 224.64 198.408 226.294C197.202 227.949 195.249 228.891 193.203 228.806H189.658L189.215 226.067H192.987C194.102 226.082 195.181 225.676 196.01 224.931C196.862 224.212 197.346 223.148 197.328 222.033V213.283H200.056ZM33.0577 225.635C34.1523 225.635 34.8619 226.091 34.9373 226.984L34.9428 227.13L34.9373 227.274C34.9015 227.647 34.7266 227.996 34.444 228.249C34.1161 228.55 33.6846 228.713 33.2395 228.703C32.765 228.718 32.2998 228.569 31.9213 228.283C31.5493 228.023 31.3251 227.6 31.319 227.147C31.319 226.147 31.8986 225.635 33.0577 225.635ZM27.8191 225.635C28.9138 225.635 29.6233 226.091 29.6987 226.984L29.7043 227.13L29.6987 227.274C29.6629 227.647 29.488 227.996 29.2054 228.249C28.8775 228.55 28.446 228.713 28.0009 228.703C27.5264 228.718 27.0612 228.569 26.6827 228.283C26.3107 228.023 26.0866 227.6 26.0805 227.147C26.0805 226.147 26.66 225.635 27.8191 225.635ZM204.476 224.988C205.771 224.988 206.419 225.544 206.419 226.669C206.419 227.647 205.84 228.124 204.658 228.124C203.476 228.124 202.76 227.647 202.76 226.669C202.75 226.218 202.927 225.782 203.249 225.465C203.578 225.149 204.02 224.977 204.476 224.988ZM209.715 224.988C210.938 224.988 211.584 225.484 211.652 226.487L211.658 226.669C211.658 227.647 211.067 228.124 209.896 228.124C208.726 228.124 207.999 227.647 207.999 226.669C207.983 226.217 208.16 225.778 208.487 225.465C208.815 225.147 209.258 224.975 209.715 224.988ZM262.657 202.829L263.066 205.567L255.998 208.215L261.6 214.488C262.157 215.169 262.662 215.891 263.112 216.647C263.425 217.111 263.602 217.655 263.623 218.215C263.623 220.704 262.225 221.942 259.453 221.942L251.93 221.908H250.919C249.723 221.956 248.547 221.591 247.589 220.874C246.847 221.509 245.917 221.885 244.941 221.942H230.555C229.441 221.95 228.388 221.432 227.714 220.544C227.011 219.683 226.636 218.6 226.658 217.488V213.363H229.385V217.113C229.319 217.696 229.482 218.283 229.839 218.749C230.289 219.104 230.861 219.267 231.43 219.204H244.135C244.697 219.269 245.263 219.106 245.703 218.749C246.049 218.278 246.207 217.694 246.146 217.113V213.363H248.919V217.113C248.919 218.51 249.919 219.204 251.93 219.204H259.453C260.168 219.204 260.532 218.783 260.532 217.931C260.543 217.582 260.416 217.244 260.18 216.988L253.089 209.522L252.634 206.476L262.657 202.829ZM158.886 211.033C162.605 211.033 164.461 212.908 164.454 216.658L158.204 220.226C156.786 221.052 155.217 221.585 153.59 221.794C152.92 221.874 151.67 221.919 149.829 221.931L149.806 221.908H148.67C147.519 221.932 146.394 221.568 145.477 220.874C144.741 221.512 143.813 221.888 142.84 221.942H128.466C127.355 221.948 126.306 221.43 125.636 220.544C124.926 219.686 124.547 218.602 124.568 217.488V213.363H127.272V217.113C127.21 217.698 127.377 218.284 127.738 218.749C128.188 219.104 128.76 219.267 129.329 219.204H142.045C142.608 219.269 143.173 219.106 143.613 218.749C143.953 218.275 144.107 217.693 144.045 217.113V213.363H146.829V217.113C146.829 218.431 147.727 219.135 149.522 219.204C151.783 219.289 154.039 218.942 156.17 218.181L158.147 217.147C158.905 216.738 160.018 216.113 161.488 215.272C161.156 214.548 160.504 214.022 159.727 213.851C158.925 213.742 158.115 213.7 157.306 213.726H152.522L152.147 211.033H158.886ZM21.3192 202.795L21.6942 205.522L14.5806 208.181L22.1714 216.613L24.1259 218.579C24.7577 219.024 25.526 219.233 26.2964 219.169H30.0577C30.6236 219.233 31.1918 219.07 31.6372 218.715C31.9812 218.243 32.139 217.66 32.0804 217.079V213.329H34.8076V217.079C34.8076 217.988 35.0235 218.579 35.444 218.851C35.9821 219.106 36.5776 219.216 37.1712 219.169C38.4688 219.212 39.7678 219.159 41.0576 219.01C41.6712 218.783 41.9666 217.965 41.9666 216.544V213.329H44.7621V217.454C44.7687 218.58 44.3648 219.671 43.6257 220.522C42.9345 221.405 41.8723 221.917 40.7507 221.908H36.2735C35.8018 221.894 35.3313 221.852 34.8644 221.783C34.3528 221.56 33.8867 221.244 33.4895 220.851C32.7745 221.502 31.8532 221.88 30.8872 221.919H25.0009V221.806C23.7212 221.645 22.5612 220.972 21.7851 219.942C21.3078 221.249 20.1374 221.908 18.2737 221.908H3.95574C2.83621 221.922 1.77527 221.409 1.09214 220.522C0.385365 219.658 0.0105677 218.57 0.0353329 217.454V213.329H2.76257V217.079C2.70892 217.656 2.86637 218.233 3.20575 218.704C3.65233 219.065 4.22536 219.233 4.79664 219.169H18.1487C19.0578 219.169 19.5124 218.851 19.5124 218.192C19.4506 217.71 19.2116 217.269 18.8419 216.954L11.7511 209.488L11.2397 206.42L21.3192 202.795ZM170.647 204.386V221.908H167.988V204.386H170.647ZM113.136 204.386V221.908H110.489V204.386H113.136ZM180.681 208.726L186.84 215.238C187.65 216.062 188.103 217.173 188.101 218.329H188.022C188.054 219.355 187.599 220.337 186.794 220.976C186.07 221.549 185.183 221.874 184.264 221.907L175.51 221.908L175.135 219.169H183.806C184.817 219.169 185.317 218.817 185.317 218.113C185.317 217.741 185.175 217.383 184.919 217.113L178.76 210.579L180.681 208.726ZM50.9552 214.579C50.6936 215.247 50.5812 215.964 50.6256 216.681C50.5078 217.654 51.0854 218.577 52.012 218.897C52.9403 219.127 53.8976 219.219 54.8528 219.169V216.363C54.8528 214.59 54.1369 213.692 52.7165 213.692C52.0046 213.607 51.3108 213.956 50.9552 214.579ZM292.952 208.306C294.088 208.306 294.895 208.795 294.895 209.76C294.913 210.216 294.73 210.656 294.395 210.965C294.062 211.282 293.616 211.453 293.157 211.442C292.669 211.448 292.195 211.283 291.816 210.976C291.446 210.683 291.235 210.233 291.248 209.76C291.248 208.795 291.816 208.306 292.952 208.306ZM287.748 208.306C288.907 208.306 289.611 208.795 289.611 209.76C289.616 210.21 289.435 210.641 289.111 210.954C288.788 211.273 288.35 211.449 287.895 211.442C287.411 211.45 286.939 211.285 286.566 210.976C286.196 210.683 285.985 210.233 285.998 209.76C285.998 208.795 286.589 208.306 287.748 208.306ZM40.0462 207.408C41.3644 207.408 42.0462 207.954 42.0462 209.033C42.0548 209.548 41.8538 210.044 41.4894 210.408C41.1376 210.77 40.6528 210.971 40.1485 210.965C38.7621 210.965 38.069 210.317 38.069 209.033C38.069 207.897 38.728 207.408 40.0462 207.408ZM77.0344 207.261C78.2048 207.261 78.9094 207.761 78.9094 208.772L78.8525 208.806C78.8593 209.239 78.6767 209.654 78.3525 209.942C78.0443 210.231 77.6386 210.393 77.2162 210.397C75.9321 210.397 75.2844 209.851 75.2844 208.772C75.2844 207.692 75.8639 207.261 77.0344 207.261ZM82.2161 207.261C83.3866 207.261 84.0911 207.761 84.0911 208.772V208.806C84.0979 209.239 83.9153 209.654 83.5911 209.942C83.2686 210.245 82.84 210.408 82.398 210.397C81.1139 210.397 80.4662 209.851 80.4662 208.772C80.4662 207.692 81.0457 207.261 82.2161 207.261ZM133.034 207.249C134.204 207.249 134.931 207.749 134.931 208.749V208.772C134.934 209.204 134.752 209.618 134.431 209.908C134.098 210.208 133.664 210.37 133.216 210.363C131.92 210.363 131.272 209.829 131.272 208.749C131.272 207.67 131.863 207.249 133.034 207.249ZM138.318 207.249C139.511 207.249 140.193 207.749 140.193 208.749V208.772C140.195 209.204 140.013 209.618 139.693 209.908C139.357 210.212 138.918 210.374 138.465 210.363C137.17 210.363 136.522 209.829 136.522 208.749C136.522 207.67 137.125 207.249 138.318 207.249ZM240.396 207.249C241.589 207.249 242.282 207.749 242.282 208.749V208.772C242.288 209.208 242.101 209.623 241.771 209.908C241.435 210.212 240.996 210.374 240.544 210.363C239.26 210.363 238.612 209.829 238.612 208.749C238.612 207.67 239.203 207.249 240.396 207.249ZM235.123 207.249C236.305 207.249 237.021 207.749 237.021 208.749V208.772C237.022 209.207 236.836 209.621 236.51 209.908C236.182 210.209 235.75 210.372 235.305 210.363C234.01 210.363 233.362 209.829 233.362 208.749C233.362 207.67 233.942 207.249 235.123 207.249ZM157.192 204.465C158.522 204.465 159.17 205.011 159.17 206.101C159.17 206.605 158.97 207.087 158.614 207.443C158.258 207.799 157.775 207.999 157.272 207.999C155.886 207.999 155.204 207.374 155.204 206.101C155.204 204.965 155.863 204.465 157.192 204.465ZM290.304 204.374C291.475 204.374 292.225 204.874 292.225 205.851V205.908C292.223 206.342 292.037 206.755 291.714 207.045C291.38 207.354 290.941 207.525 290.486 207.522C290.007 207.53 289.54 207.369 289.168 207.067C288.784 206.781 288.556 206.331 288.554 205.851C288.554 204.874 289.134 204.374 290.304 204.374Z" fill="white"/>
</svg>
