<svg width="300" height="300" viewBox="0 0 300 300" fill="none" xmlns="http://www.w3.org/2000/svg">
<path fill-rule="evenodd" clip-rule="evenodd" d="M168.895 1.29297C242.376 10.5946 299.514 73.5899 299.514 149.498C299.514 231.777 232.381 298.886 150.069 298.886C67.7586 298.886 0.624023 231.777 0.624023 149.498C0.624023 128.105 5.16238 107.738 13.3258 89.3089L21.0504 99.2383L21.4997 99.7917C21.4997 99.7917 22.968 101.524 24.7136 103.032C26.3098 104.394 28.3553 105.62 29.7958 106.213C30.8958 106.655 31.9882 107.036 33.1363 107.258C38.1932 108.25 43.3817 108.19 47.1374 108.019C50.1247 107.884 52.2538 107.718 52.2538 107.718C71.7814 106.806 79.2522 115.606 84.3318 121.594C88.9887 127.07 134.56 187.765 134.56 187.765L157.218 165.086C157.218 165.086 138.193 140.838 129.753 129.968C120.317 117.822 113.482 109.092 109.311 105.57C100.2 97.8921 80.0496 96.9821 75.437 96.1892C75.437 96.1892 58.4271 94.1107 48.2766 83.7041C45.8868 81.2537 44.2298 79.0894 44.2298 79.0894L29.6531 61.1918C33.3862 56.1223 37.4313 51.2953 41.7595 46.7396L57.4803 66.9812C60.5473 70.8925 62.222 73.1613 65.3207 76.2495C73.213 84.1238 84.3635 85.1889 84.3635 85.1889C107.62 89.3737 120.32 90.4767 127.691 99.014C136.536 109.252 138.245 111.594 145.637 121.122C148.361 124.632 169.737 152.571 169.737 152.571L191.693 130.577C191.693 130.577 177.636 112.472 169.471 101.743C165.476 96.4879 159.147 88.2859 154.482 84.9381C144.86 78.0508 136.297 79.073 127.572 78.1491C120.077 77.3487 113.163 77.1962 104.173 72.9181C104.173 72.9181 100.286 72.0534 92.2621 61.7212C84.228 51.3977 81.9762 48.4041 81.9762 48.4041L64.7537 26.9595C69.8237 23.4187 75.122 20.1836 80.6213 17.2815L97.5924 39.287L106.068 50.3301C118.28 65.9161 126.174 66.0951 134.312 67.0518C147.223 68.582 159.38 67.7652 169.894 75.6899C175.979 80.273 179.159 85.136 183.536 90.7716C190.144 99.2761 204.39 117.802 204.39 117.802L226.364 95.7997C226.364 95.7997 213.714 79.4537 208.799 73.2433C207.168 71.1899 204.367 68.5883 200.219 65.8972C193.662 61.6329 187.117 60.322 170.326 57.8439C153.54 55.3683 148.083 52.4553 140.151 43.7831C136.36 39.6349 134.26 36.6916 131.707 33.4018L109.726 5.65479C116.58 3.72676 123.631 2.27713 130.841 1.34451L145.818 22.012C150.845 28.1077 155.328 36.0437 168.09 41.7273C183.448 48.5654 195.048 46.9621 205.562 49.6784C205.562 49.6784 208.426 50.3755 211.581 51.7595C214.926 53.2355 217.104 55.4389 219.196 57.7998C222.672 61.7212 225.716 65.5442 226.412 66.4442C226.555 66.6219 239.448 82.6894 239.448 82.6894L261.165 60.956C261.165 60.956 256.151 54.5515 252.174 49.5247C249.712 46.415 248.64 45.2945 246.574 44.0327C244.94 43.0382 242.891 42.0474 240.125 41.3933C236.967 40.6571 232.657 40.1113 225.221 39.8113C205.64 39.0324 198.406 37.4757 185.946 22.559L176.7 11.3482L168.895 1.29297Z" fill="white"/>
</svg>
