<svg width="300" height="300" viewBox="0 0 300 300" fill="none" xmlns="http://www.w3.org/2000/svg">
<path fill-rule="evenodd" clip-rule="evenodd" d="M37.3297 257.124C25.9655 254.372 15.0112 247.13 6.48133 232.502C-8.54411 206.734 5.91446 181.304 16.0243 163.895C-14.9422 228.474 26.9067 248.235 76.4561 204.742C76.4561 204.742 137.131 143.993 154.086 127.017C161.926 119.168 173.605 113.966 185.225 115.319C202.566 117.339 214.222 127.229 221.234 130.236C225.835 132.209 230.008 129.325 228.424 125.503C226.812 121.612 223.379 117.46 216.881 110.952C197.605 91.6488 173.949 69.1396 173.949 69.1396C160.194 55.9025 154.715 43.8508 155.467 32.0076C156.659 13.2379 174.094 2.06803 185.858 1.57422C178.712 10.0816 179.33 17.3492 183.517 22.6446C183.517 22.6446 249.578 88.7986 251.208 90.4309C259.566 98.8 270.312 133.709 239.755 142.83C236.074 143.929 232.407 143.858 228.235 142.651C217.364 139.505 200.906 136.513 189.689 147.545C169.448 167.452 104.524 233.092 98.8664 238.494C93.2091 243.896 76.1442 257.317 51.7514 258.428C57.5938 279.111 85.8478 276.39 118.971 247.315C118.971 247.315 179.646 186.567 196.601 169.592C204.441 161.742 216.043 157.717 227.739 157.894C236.316 158.023 242.56 160.307 247.323 163.741C256.996 170.715 260.446 177.356 261.838 184.761C250.583 178.23 243.422 179.087 232.204 190.119C215.967 206.088 173.217 249.074 156.937 265.457C157.024 267.178 157.585 268.726 159 269.808C163.994 273.627 175.48 273.701 180.906 268.269C200.205 248.947 229.487 219.629 240.46 208.643C248.3 200.794 258.473 196.151 270.169 196.327C278.745 196.457 281.958 198.398 286.721 201.832C296.393 208.806 298.604 217.869 299.996 225.274C289.838 218.099 284.261 221.108 276.063 229.17C264.203 240.835 238.197 266.914 218.693 286.511C211.909 293.328 194.23 302.102 174.238 295.019C162.976 291.03 155.358 279.042 150.5 272.002C149.15 276.868 83.8169 328.436 46.0983 272.874C42.4092 267.44 39.7593 262.449 37.3297 257.124ZM61.2113 133.454C59.325 130.01 58.2519 126.058 58.2519 121.857C58.2519 108.52 69.0649 97.6915 82.3835 97.6915C95.7021 97.6915 106.515 108.52 106.515 121.857C106.515 135.194 95.7021 146.022 82.3835 146.022C78.1886 146.022 74.2417 144.948 70.803 143.059C72.6893 146.502 73.7624 150.455 73.7624 154.655C73.7624 167.993 62.9494 178.821 49.6308 178.821C36.3122 178.821 25.4992 167.993 25.4992 154.655C25.4992 141.318 36.3122 130.49 49.6308 130.49C53.8264 130.49 57.7726 131.565 61.2113 133.454Z" fill="white"/>
</svg>
