<svg width="300" height="300" viewBox="0 0 300 300" fill="none" xmlns="http://www.w3.org/2000/svg">
<path fill-rule="evenodd" clip-rule="evenodd" d="M62.1497 73.2113C12.1961 106.341 10.1221 143.441 6.25 173.044C54.1882 192.558 66.5802 203.169 90.2375 223.198C99.8862 203.894 100.979 189.644 98.9962 167.843C110.441 184.314 110.387 258.849 58.8696 284.415C87.6132 289.121 117.156 301.343 146.956 299.875C142.715 210.519 126.801 154.65 62.1497 73.2113ZM115.265 0.7368C208.207 -5.11022 229.062 25.0182 259.798 49.5136C225.922 109.673 217.701 145.814 209.602 186.36C183.528 174.213 170.382 161.933 154.383 137.524C156.086 164.221 218.77 234.588 293.746 218.524C267.638 247.293 238.147 273.519 205.818 296.718C147.826 216.094 115.265 139.42 115.265 0.7368Z" fill="white"/>
</svg>
