<svg width="300" height="300" viewBox="0 0 300 300" fill="none" xmlns="http://www.w3.org/2000/svg">
<path d="M198.812 299.991H296.871V50.7718C262.584 -30.2563 140.833 2.23733 132.134 35.1066C162.246 18.2886 187.307 14.8882 198.812 41.5766V299.991Z" fill="white"/>
<path d="M101.184 0.00437362H3.125V249.224C37.4122 330.253 159.164 297.759 167.861 264.89C137.749 281.708 112.689 285.108 101.184 258.419V0.00437362Z" fill="white"/>
<path d="M198.027 149.998C198.027 176.274 176.452 197.705 149.998 197.705C123.545 197.705 101.969 176.274 101.969 149.998C101.969 123.722 123.545 102.29 149.998 102.29C176.452 102.29 198.027 123.722 198.027 149.998Z" fill="white"/>
</svg>
