<svg width="300" height="300" viewBox="0 0 300 300" fill="none" xmlns="http://www.w3.org/2000/svg">
<path fill-rule="evenodd" clip-rule="evenodd" d="M94.442 273.257C95.1801 272.719 95.9063 272.167 96.6138 271.59C98.1207 270.362 99.55 269.037 100.871 267.61C101.486 266.946 102.077 266.26 102.642 265.552C103.094 264.985 103.527 264.403 103.957 263.818C104.685 262.825 105.39 261.814 106.07 260.786C107.974 257.911 109.687 254.908 111.209 251.813C111.941 250.325 112.625 248.816 113.272 247.289C113.4 246.985 113.527 246.679 113.652 246.374C113.694 246.272 113.777 246.068 113.777 246.068C114.992 247.315 116.234 248.535 117.506 249.724C120.776 252.777 124.228 255.633 127.818 258.299C129.15 259.289 130.501 260.252 131.87 261.19C132.616 261.702 133.366 262.21 134.128 262.7C135.151 263.359 136.194 263.988 137.253 264.588C139.6 265.92 142.024 267.114 144.493 268.2C145.514 268.649 146.544 269.076 147.578 269.493C147.928 269.632 148.278 269.769 148.628 269.906C143.516 281.147 134.653 290.842 125.619 298.446C113.765 291.059 102.465 282.571 94.442 273.257ZM25.9547 222.62C26.6634 222.892 27.3759 223.15 28.0971 223.384C29.614 223.875 31.1627 224.274 32.7333 224.554C33.4552 224.683 34.1815 224.786 34.9108 224.863C35.5783 224.934 36.2477 224.979 36.9177 225.018C37.8089 225.069 38.7014 225.101 39.5939 225.115C42.427 225.16 45.2632 225.018 48.0769 224.686C49.2988 224.542 50.5144 224.358 51.7262 224.148C52.2437 224.054 52.2431 224.054 52.76 223.956C52.4962 225.294 52.255 226.636 52.0494 227.985C51.5994 230.942 51.3012 233.922 51.1506 236.909C51.0681 238.541 51.03 240.175 51.0356 241.808C51.0394 243.077 51.0681 244.345 51.1612 245.612C51.3637 248.366 51.8237 251.09 52.4487 253.778C52.5381 254.153 52.63 254.526 52.7243 254.9C53.5125 254.793 54.2981 254.671 55.0799 254.523C56.7374 254.21 58.3761 253.794 59.9755 253.254C60.7174 253.004 61.4511 252.728 62.173 252.423C62.7505 252.179 63.3211 251.916 63.8886 251.649C64.6792 251.278 65.4629 250.892 66.2386 250.492C69.8485 248.628 73.2835 246.443 76.5241 243.991C76.9078 243.699 77.289 243.403 77.6678 243.105C78.0453 242.804 78.4203 242.501 78.7934 242.195C79.2509 243.84 79.7409 245.475 80.2803 247.095C81.4709 250.671 82.8708 254.176 84.4621 257.593C84.9946 258.736 85.5489 259.87 86.1246 260.994C86.4733 261.675 86.8264 262.356 87.197 263.026C87.6733 263.889 88.1752 264.738 88.7002 265.572C90.1689 267.905 91.817 270.116 93.5751 272.238C93.862 272.579 94.1513 272.92 94.442 273.257C86.1708 279.199 75.9222 282.687 66.4098 284.663C60.5274 275.243 55.2862 264.917 52.7243 254.9C47.275 255.603 41.5501 255.296 35.9896 254.379C32.6015 253.829 29.2528 253.057 26.0503 252.152C24.7441 242.438 24.2834 231.955 25.9547 222.62ZM148.628 269.906C149.077 268.905 149.506 267.893 149.897 266.868C150.731 264.684 151.418 262.442 151.924 260.159C152.176 259.02 152.384 257.872 152.542 256.716C152.686 255.675 152.786 254.627 152.875 253.58C152.987 252.266 153.071 250.949 153.126 249.631C153.296 245.597 153.2 241.551 152.834 237.529C152.672 235.74 152.452 233.957 152.187 232.18C152.109 231.676 152.028 231.172 151.944 230.67L152.379 230.787L152.816 230.904C154.904 231.457 157.001 231.967 159.11 232.428C164.43 233.593 169.81 234.471 175.218 235.103C177.135 235.327 179.055 235.52 180.978 235.683C182.248 235.791 183.519 235.892 184.791 235.963C186.378 236.052 187.966 236.099 189.555 236.107C193.209 236.125 196.863 235.943 200.501 235.606C202.207 235.448 203.909 235.251 205.609 235.034C208.327 250.13 205.609 266.19 201.025 280.326C193.501 279.7 186.07 278.837 178.921 277.672C167.977 275.898 157.659 273.397 148.628 269.906ZM81.1684 240.121C82.5971 238.813 83.969 237.445 85.2952 236.032C86.9445 234.275 88.5245 232.451 90.0289 230.567C91.2214 229.074 92.3682 227.541 93.4413 225.959C94.4388 224.487 95.3757 222.971 96.1557 221.371C96.2369 221.198 96.3169 221.026 96.3944 220.852C97.0382 222.517 97.8307 224.12 98.6725 225.692C99.7181 227.646 100.851 229.553 102.043 231.42C103.587 233.838 105.235 236.192 106.991 238.461C108.379 240.254 109.837 241.993 111.385 243.65L110.76 245.188L110.639 245.482C109.946 247.154 109.205 248.805 108.406 250.429C106.989 253.309 105.402 256.104 103.642 258.787C102.936 259.865 102.201 260.925 101.439 261.965C100.824 262.801 100.198 263.628 99.5244 264.418C98.2844 265.874 96.92 267.212 95.4763 268.463C95.2913 268.621 95.1069 268.779 94.9188 268.933C93.3057 266.91 91.8239 264.774 90.5164 262.54C89.9464 261.566 89.4189 260.569 88.9051 259.565C88.297 258.378 87.7139 257.179 87.1545 255.969C85.7596 252.946 84.5183 249.852 83.4452 246.699C82.9115 245.132 82.4246 243.549 81.9709 241.956L81.6702 240.875L81.1684 240.121ZM115.037 242.883L115.052 242.839C115.93 240.364 116.687 237.845 117.319 235.295C118.357 231.1 119.054 226.818 119.367 222.506C119.502 220.637 119.559 218.765 119.552 216.891C119.549 216.582 119.544 216.273 119.539 215.964C121.515 217.277 123.52 218.545 125.568 219.743C128.707 221.58 131.936 223.261 135.248 224.762C138.662 226.309 142.161 227.664 145.721 228.83C146.683 229.145 147.649 229.445 148.619 229.732L148.924 231.556L148.983 231.92C149.235 233.508 149.448 235.101 149.614 236.699C150.042 240.823 150.176 244.977 150.019 249.119C149.962 250.646 149.864 252.173 149.728 253.695C149.612 254.992 149.469 256.286 149.249 257.569C148.764 260.396 147.975 263.173 146.941 265.847L146.733 265.759C145.756 265.34 144.783 264.909 143.821 264.457C141.811 263.513 139.839 262.488 137.925 261.362C137.213 260.945 136.511 260.513 135.818 260.067C134.967 259.519 134.13 258.949 133.296 258.375C131.64 257.231 130.009 256.049 128.408 254.828C124.307 251.698 120.407 248.308 116.767 244.649C116.187 244.063 115.611 243.474 115.037 242.883ZM56.0906 223.224C59.2249 222.433 62.2942 221.377 65.2779 220.136C66.791 219.507 68.2835 218.826 69.7479 218.09C71.7416 217.086 73.6803 215.977 75.5253 214.719C75.7997 214.527 75.7991 214.528 76.0716 214.333C75.8509 216.139 75.7784 217.957 75.7759 219.775C75.7728 221.858 75.8622 223.942 76.0166 226.019C76.1953 228.421 76.4628 230.817 76.8265 233.198C77.1172 235.102 77.4715 236.996 77.9103 238.871L76.5922 239.954C75.3759 240.946 74.1303 241.9 72.8503 242.808C70.4385 244.519 67.9154 246.074 65.2998 247.452C64.3979 247.927 63.4861 248.381 62.5636 248.814C61.7586 249.191 60.9492 249.557 60.1193 249.876C58.4962 250.5 56.8143 250.983 55.1099 251.326L55.1031 251.292C54.6937 249.226 54.3912 247.142 54.2543 245.04C54.1837 243.96 54.1637 242.879 54.16 241.797C54.1562 240.612 54.1762 239.426 54.22 238.242C54.3206 235.536 54.5456 232.834 54.8987 230.149C55.0718 228.836 55.2793 227.53 55.5093 226.226C55.5768 225.858 55.6456 225.49 55.7156 225.122L56.0906 223.224ZM98.27 217.037C100.956 211.081 102.632 204.888 103.154 198.744C106.35 204.126 110.817 209.123 116.372 213.571L116.422 216.471C116.43 217.211 116.43 217.952 116.416 218.692C116.38 220.493 116.272 222.292 116.095 224.085C115.702 228.076 114.97 232.033 113.934 235.907C113.535 237.4 113.089 238.879 112.604 240.346L112.477 240.203C112.017 239.677 111.562 239.148 111.117 238.611C109.876 237.115 108.694 235.571 107.561 233.993C106.274 232.201 105.051 230.363 103.893 228.486C102.959 226.972 102.067 225.431 101.237 223.857C100.568 222.588 99.9375 221.298 99.4031 219.967L98.27 217.037ZM79.5296 211.8C84.2239 208.09 88.2702 203.711 91.4589 198.784C91.502 204.711 92.6445 210.766 94.7869 216.777L93.4888 219.692L93.4432 219.793C92.8782 220.997 92.2001 222.143 91.4789 223.259C90.6807 224.495 89.8276 225.694 88.9426 226.868C87.6652 228.561 86.3196 230.204 84.9183 231.796C83.5246 233.381 82.0752 234.917 80.5646 236.391L80.554 236.341C79.8021 232.56 79.3178 228.729 79.0703 224.882C78.9696 223.316 78.9084 221.747 78.9015 220.178C78.8946 218.642 78.9403 217.107 79.0778 215.578C79.1065 215.29 79.1059 215.291 79.1378 215.003L79.5296 211.8ZM241.805 167.264C256.812 179.684 267.176 197.045 274.159 214.465C250.508 224.415 226.713 232.286 205.609 235.034L205.558 234.752C205.276 233.257 204.947 231.771 204.556 230.299C203.777 227.371 202.768 224.502 201.509 221.746C201.076 220.797 200.613 219.861 200.12 218.941C199.64 218.044 199.133 217.163 198.619 216.286C197.501 214.379 196.324 212.506 195.091 210.672C192.585 206.944 189.848 203.372 186.9 199.983C185.505 198.379 184.061 196.82 182.578 195.298C182.261 194.975 181.943 194.655 181.624 194.335C184.168 193.677 186.7 192.973 189.216 192.216C194.976 190.484 200.658 188.495 206.254 186.29C209.235 185.114 212.192 183.877 215.125 182.583C216.509 181.973 217.89 181.353 219.259 180.709C220.648 180.056 222.023 179.375 223.387 178.67C229.148 175.689 234.668 172.263 239.988 168.552C240.595 168.126 241.201 167.696 241.805 167.264ZM178.072 195.205L179.73 196.864L180.038 197.175L180.346 197.489C181.787 198.967 183.19 200.482 184.545 202.04C187.606 205.561 190.436 209.286 193.006 213.182C194.02 214.719 194.993 216.283 195.924 217.871C196.418 218.713 196.906 219.56 197.366 220.421C197.744 221.126 198.103 221.841 198.443 222.565C199.913 225.69 201.033 228.971 201.846 232.327L201.629 232.35C200.224 232.492 198.819 232.619 197.411 232.716C194.25 232.935 191.079 233.025 187.911 232.953C186.821 232.929 185.731 232.884 184.643 232.819C183.508 232.751 182.375 232.661 181.242 232.564C178.68 232.346 176.121 232.074 173.57 231.746C168.789 231.132 164.032 230.316 159.326 229.271C157.414 228.846 155.512 228.38 153.619 227.879C152.902 227.687 152.185 227.493 151.469 227.298C151.041 224.957 150.425 222.649 149.712 220.379C148.563 216.718 147.15 213.139 145.568 209.646C144.604 207.521 143.576 205.423 142.46 203.374C142.06 202.641 141.648 201.913 141.217 201.198C140.809 200.521 140.386 199.849 139.909 199.218C139.828 199.114 139.746 199.012 139.661 198.911L140.099 198.94L140.538 198.967C142.651 199.089 144.768 199.154 146.884 199.148C150.788 199.137 154.691 198.912 158.574 198.52C163.767 197.995 168.928 197.168 174.036 196.102C175.386 195.82 176.731 195.52 178.072 195.205ZM119.349 212.083C118.789 204.977 117.076 198.312 114.214 192.468C120.155 195.491 127.222 197.523 135.204 198.489L137.32 200.985L137.35 201.022C137.388 201.07 137.388 201.07 137.426 201.119C137.767 201.571 138.073 202.05 138.37 202.533C138.766 203.177 139.142 203.832 139.508 204.493C140.485 206.258 141.388 208.066 142.241 209.894C143.395 212.368 144.456 214.887 145.404 217.447C146.474 220.339 147.403 223.287 148.078 226.297L147.764 226.199C146.174 225.692 144.593 225.157 143.027 224.577C140.5 223.642 138.011 222.604 135.569 221.465C132.853 220.198 130.195 218.807 127.601 217.306C126.222 216.508 124.863 215.677 123.518 214.824C123.067 214.536 122.617 214.245 122.169 213.953C121.227 213.332 120.287 212.708 119.349 212.083ZM15.0379 181.277C16.7635 183.263 18.6229 185.129 20.6754 186.776C21.276 187.258 21.8916 187.721 22.5228 188.162C23.0047 188.499 23.496 188.822 23.9897 189.14C24.7597 189.637 25.5397 190.119 26.329 190.585C28.6459 191.953 31.0434 193.183 33.5083 194.261C34.7921 194.823 36.0952 195.337 37.4108 195.819C37.9008 195.994 37.9008 195.994 38.392 196.165C37.4958 197.359 36.627 198.573 35.7971 199.814C34.1046 202.346 32.5608 204.978 31.1671 207.687C30.6346 208.722 30.124 209.768 29.6353 210.824C29.3759 211.384 29.1203 211.947 28.8803 212.517C28.6134 213.15 28.3634 213.791 28.129 214.437C27.2872 216.757 26.6553 219.145 26.1591 221.562C26.0891 221.914 26.0209 222.266 25.9547 222.62C17.9817 219.558 10.3086 213.878 3.7037 207.816C6.19742 198.63 9.80363 188.981 15.0379 181.277ZM41.4726 197.27C42.4607 197.57 43.4626 197.825 44.4719 198.046C45.9607 198.372 47.465 198.625 48.9756 198.821C50.72 199.048 52.4737 199.2 54.23 199.287C56.3568 199.392 58.488 199.4 60.6155 199.299C60.9136 199.283 61.2117 199.265 61.5099 199.246C61.7867 199.226 62.0636 199.204 62.3405 199.18L62.1324 199.519C61.438 200.662 60.773 201.821 60.1449 203.002C58.6643 205.788 57.3755 208.675 56.2699 211.629C55.3781 214.012 54.6049 216.44 53.9468 218.898C53.7925 219.473 53.6456 220.049 53.505 220.627L51.6731 220.976C50.3588 221.215 49.0394 221.42 47.7119 221.577C45.0357 221.892 42.3376 222.028 39.6433 221.985C38.7939 221.972 37.9445 221.941 37.0964 221.892C36.2889 221.846 35.4821 221.787 34.6796 221.685C32.9502 221.466 31.239 221.084 29.574 220.568L29.5815 220.536C30.0628 218.524 30.649 216.539 31.4034 214.611C31.7984 213.601 32.2465 212.612 32.7083 211.631C33.1852 210.619 33.6827 209.618 34.2008 208.627C35.3889 206.358 36.687 204.147 38.0945 202.007C38.687 201.107 39.3014 200.221 39.9295 199.345C40.2445 198.913 40.2445 198.913 40.5626 198.483L41.4726 197.27ZM66.3273 198.66C71.8466 197.718 77.1534 195.862 82.0021 193.101C79.3415 198.286 77.539 204.04 76.589 210.127L74.0047 211.964C71.6797 213.583 69.1791 214.937 66.6129 216.13C63.4917 217.582 60.2599 218.791 56.9543 219.749L56.9649 219.71C57.8468 216.45 58.9205 213.246 60.2255 210.131C61.0817 208.087 62.0336 206.084 63.0848 204.134C63.5692 203.236 64.0761 202.353 64.6004 201.478C65.1717 200.536 65.7486 199.598 66.3273 198.66ZM60.8055 180.187C66.0048 182.236 71.4029 183.308 76.7903 183.282C72.1691 186.621 68.046 190.899 64.5436 195.848L61.8142 196.083L61.5574 196.103C60.0149 196.216 58.4674 196.254 56.9205 196.237C55.3118 196.219 53.7037 196.143 52.1012 196.008C50.4081 195.865 48.7194 195.656 47.0457 195.363C45.8969 195.161 44.7519 194.924 43.6238 194.625L43.6582 194.584C44.2619 193.879 44.8757 193.182 45.5044 192.499C47.0038 190.871 48.58 189.313 50.2312 187.841C51.7444 186.491 53.3193 185.211 54.9549 184.014C55.7568 183.428 56.5743 182.864 57.4024 182.316C57.7118 182.115 58.0218 181.915 58.333 181.718C59.1549 181.204 59.9799 180.695 60.8055 180.187ZM145.533 174.757L148.853 176.073C149.875 176.487 150.89 176.914 151.896 177.365C154.124 178.364 156.307 179.462 158.441 180.65C162.724 183.033 166.809 185.772 170.663 188.8C172.232 190.033 173.76 191.315 175.254 192.638L175.096 192.673C168.867 194.032 162.564 195.057 156.209 195.596C153.106 195.859 149.991 196.009 146.876 196.018C145.254 196.022 143.633 195.983 142.013 195.911C141.583 195.889 141.153 195.867 140.724 195.842C139.585 195.772 138.446 195.697 137.308 195.621C132.719 189.595 127.349 184.702 121.452 181.231C128.915 180.596 137.045 178.42 145.533 174.757ZM39.587 165.354L39.6876 165.461C41.4795 167.355 43.3732 169.153 45.3688 170.831C47.4782 172.605 49.7013 174.244 52.0325 175.713C53.1075 176.391 54.2062 177.029 55.3237 177.634C55.6556 177.811 55.9887 177.986 56.3237 178.158C56.6574 178.327 56.9924 178.494 57.3293 178.659L56.9993 178.861C55.8956 179.551 54.8106 180.27 53.7506 181.025C51.2544 182.804 48.8888 184.766 46.6619 186.873C44.8676 188.571 43.1632 190.364 41.5514 192.237C41.1745 192.674 40.8039 193.117 40.4376 193.563L38.9389 193.042C37.6858 192.594 36.4445 192.116 35.2208 191.592C32.8683 190.586 30.579 189.434 28.3646 188.151C27.4578 187.625 26.5634 187.077 25.6822 186.509C24.8853 185.994 24.101 185.464 23.3447 184.891C22.0254 183.891 20.7916 182.788 19.6179 181.621C19.4285 181.43 19.2404 181.239 19.0541 181.045C20.2604 179.457 21.5672 177.944 23.001 176.557C23.7785 175.805 24.5978 175.099 25.4316 174.41C26.3547 173.648 27.2972 172.909 28.2584 172.194C30.1452 170.793 32.1021 169.485 34.1221 168.284C35.1908 167.648 36.2777 167.047 37.377 166.467C37.847 166.224 37.8464 166.224 38.3183 165.985L39.587 165.354ZM185.097 148.644L188.118 149.119L188.638 149.202C191.087 149.605 193.526 150.064 195.953 150.588C201.679 151.824 207.332 153.401 212.875 155.297C215.012 156.029 217.134 156.808 219.237 157.633C220.261 158.035 221.284 158.444 222.296 158.879C223.235 159.281 224.164 159.705 225.083 160.15C227.52 161.328 229.885 162.652 232.17 164.105C233.309 164.83 234.426 165.589 235.526 166.373C235.87 166.621 236.213 166.87 236.553 167.122L236.411 167.219L236.053 167.462C231.396 170.602 226.585 173.512 221.588 176.077C220.379 176.697 219.16 177.297 217.931 177.875C216.584 178.508 215.226 179.117 213.865 179.719C211.35 180.828 208.816 181.896 206.264 182.917C201.437 184.85 196.545 186.62 191.593 188.202C189.083 189.004 186.557 189.753 184.018 190.458C183.313 190.651 182.606 190.842 181.899 191.029C180.924 191.284 179.948 191.537 178.972 191.789C178.772 191.602 178.57 191.416 178.367 191.232C175.89 188.971 173.305 186.831 170.619 184.826C166.279 181.587 161.671 178.702 156.839 176.257C154.778 175.214 152.676 174.26 150.541 173.38C150.189 173.238 149.838 173.097 149.485 172.957C151.261 172.101 153.017 171.209 154.751 170.271C159.291 167.817 163.683 165.089 167.932 162.159C172.791 158.808 177.466 155.19 181.965 151.367C183.019 150.471 184.063 149.562 185.097 148.644ZM15.0379 181.277C8.91301 174.147 3.9412 164.483 0 154.773C6.1118 147.006 13.6467 139.277 21.9891 134.45L21.9222 134.183C19.1091 122.906 18.4166 109.31 18.7904 95.8795C22.4797 94.0788 26.3547 92.4584 30.3527 91.1059C36.9364 88.9045 43.7595 87.5189 50.3781 87.636C49.6475 91.6989 49.1063 95.7968 48.9106 99.9223C48.8619 100.944 48.8344 101.966 48.83 102.988C48.8263 103.905 48.8438 104.821 48.8656 105.738C48.9006 107.229 48.9588 108.721 49.0406 110.21C49.3538 115.913 50.0244 121.595 51.1162 127.202C51.2325 127.787 51.3525 128.372 51.4762 128.955C49.9294 128.831 48.3794 128.758 46.8275 128.744C43.577 128.714 40.3245 128.935 37.1064 129.396C36.0158 129.552 34.9289 129.736 33.8471 129.947C33.2227 130.069 32.599 130.196 31.9796 130.344C31.2946 130.508 30.6159 130.695 29.9434 130.904C28.2259 131.439 26.5534 132.114 24.9322 132.892C24.156 133.264 23.3935 133.663 22.6385 134.076C22.3128 134.257 22.3135 134.257 21.9891 134.441C22.7822 137.524 23.7522 140.56 25.0078 143.488C25.3697 144.331 25.7541 145.164 26.164 145.986C26.4722 146.603 26.7947 147.212 27.1209 147.82C27.6253 148.758 28.1459 149.688 28.6821 150.608C30.234 153.269 31.9221 155.851 33.7483 158.33C34.6833 159.599 35.6583 160.837 36.6614 162.052C36.917 162.356 37.152 162.64 37.4114 162.94C36.0858 163.6 34.7771 164.29 33.4927 165.027C30.789 166.579 28.1878 168.309 25.7078 170.198C24.8647 170.841 24.0353 171.502 23.2203 172.181C22.7485 172.573 22.2797 172.97 21.8229 173.379C21.3166 173.834 20.8235 174.302 20.3435 174.784C18.6185 176.515 17.0735 178.411 15.6504 180.397C15.4442 180.689 15.2398 180.982 15.0379 181.277ZM64.3192 159.529C67.976 164.525 72.2247 168.597 76.949 171.535C71.4241 172.189 65.9011 174.011 60.6249 176.785L58.3724 175.685L58.0568 175.529L57.7424 175.37C56.1456 174.546 54.5899 173.65 53.0825 172.671C49.2794 170.2 45.7926 167.258 42.6295 164.009L42.8695 163.911C44.3232 163.321 45.7957 162.778 47.2894 162.297C50.7087 161.197 54.2299 160.402 57.7968 159.972C58.5961 159.876 59.3999 159.821 60.2024 159.764C60.7642 159.726 61.3267 159.692 61.8892 159.659L64.3192 159.529ZM141.325 150.107L144.93 149.468C146.222 149.241 147.515 149.019 148.81 148.809C149.817 148.646 150.825 148.487 151.836 148.349C152.852 148.211 153.873 148.1 154.894 147.998C163.534 147.132 172.266 147.24 180.897 148.163L180.545 148.466C178.571 150.15 176.571 151.802 174.531 153.406C168.879 157.848 162.955 161.955 156.74 165.568C154.477 166.883 152.174 168.125 149.836 169.302C149.458 169.489 149.081 169.675 148.702 169.86L145.362 171.471C137.519 168.892 129.704 167.727 122.294 168.016C128.938 163.55 135.373 157.508 141.325 150.107ZM50.3781 87.636C53.145 72.3005 59.4893 55.0772 67.0804 38.2535C79.5178 39.8801 92.6376 43.8516 102.728 52.2146C114.38 35.079 130.984 17.8207 149.023 1.57422C159.467 14.1185 168.597 29.8378 171.869 47.9815C184.796 40.54 199.359 34.3502 214.711 29.1917C224.818 25.7962 235.245 22.8522 245.747 20.2845C244.448 43.809 239.995 68.7911 229.812 91.2205C253.811 91.7158 277.992 98.7753 299.996 108.38C282.423 131.008 262.711 152.193 241.805 167.264L241.533 167.04L241.26 166.817C239.709 165.562 238.119 164.357 236.481 163.218C233.585 161.202 230.55 159.385 227.397 157.802C226.232 157.216 225.05 156.662 223.854 156.142C222.705 155.643 221.542 155.177 220.377 154.719C218.054 153.807 215.708 152.95 213.344 152.151C208.38 150.473 203.331 149.046 198.222 147.884C195.914 147.36 193.594 146.894 191.266 146.475C190.734 146.381 190.202 146.289 189.67 146.2C189.14 146.112 188.61 146.027 188.078 145.944L188.521 145.532C190.622 143.571 192.687 141.574 194.711 139.533C199.425 134.778 203.923 129.808 208.206 124.66C210.233 122.223 212.211 119.746 214.141 117.233C215.052 116.047 215.955 114.855 216.835 113.646C217.764 112.37 218.667 111.074 219.544 109.762C221.943 106.17 224.15 102.449 226.172 98.6306C227.188 96.7109 228.153 94.7662 229.08 92.8021C229.327 92.2762 229.57 91.7483 229.812 91.2205L229.39 91.2124L228.97 91.2055C226.731 91.1748 224.492 91.1955 222.255 91.2825C217.946 91.4491 213.646 91.8473 209.384 92.4978C207.737 92.7495 206.097 93.0381 204.465 93.3656C202.97 93.6655 201.482 93.9986 199.996 94.3398C197.234 94.9747 194.483 95.661 191.746 96.3985C186.281 97.8718 180.872 99.5517 175.54 101.45C173.079 102.327 170.637 103.253 168.211 104.219C167.662 104.44 167.114 104.663 166.565 104.887C166.022 105.112 165.48 105.337 164.938 105.565L165.112 105.04C165.923 102.568 166.684 100.081 167.384 97.5756C169.021 91.7158 170.343 85.767 171.345 79.7651C171.76 77.2788 172.12 74.7837 172.425 72.2817C172.576 71.0382 172.719 69.7929 172.83 68.545C172.945 67.2628 173.026 65.9773 173.074 64.6907C173.207 61.1318 173.085 57.5648 172.722 54.0229C172.526 52.1107 172.257 50.2073 171.928 48.3139C171.908 48.2031 171.888 48.0923 171.869 47.9815C170.155 48.9795 168.454 49.9969 166.774 51.0494C163.364 53.1851 160.031 55.4473 156.809 57.8591C155.286 58.9999 153.787 60.1738 152.317 61.3841C151.257 62.2569 150.216 63.1529 149.176 64.0508C147.569 65.4389 145.978 66.847 144.406 68.2758C139.917 72.3537 135.575 76.5957 131.412 81.0085C129.58 82.9508 127.786 84.928 126.024 86.9347C125.535 87.4951 125.048 88.0574 124.563 88.6215C124.086 89.1806 123.611 89.7416 123.138 90.3045L123.035 89.8825C122.543 87.9121 122.005 85.9542 121.406 84.0139C120.035 79.571 118.372 75.2176 116.408 71.0032C115.61 69.2901 114.762 67.6009 113.864 65.9385C113.425 65.1246 112.978 64.3144 112.505 63.5204C112.069 62.7898 111.612 62.0722 111.132 61.3691C109.768 59.3668 108.23 57.484 106.547 55.7409C105.572 54.7304 104.547 53.7705 103.485 52.852C103.234 52.6373 102.982 52.425 102.728 52.2146C101.791 53.6034 100.869 55.0015 99.9744 56.4178C97.9963 59.5496 96.1363 62.7578 94.4369 66.0506C93.7182 67.4437 93.0282 68.8512 92.3714 70.2744C91.887 71.3231 91.4207 72.3806 90.9595 73.44C90.2601 75.0473 89.5801 76.6633 88.9214 78.2874C87.1052 82.7661 85.4471 87.3098 83.9733 91.913C83.349 93.8621 82.7608 95.8225 82.2027 97.7916C82.0365 98.3833 81.8727 98.9762 81.7115 99.5692C81.5934 100.011 81.4752 100.451 81.3602 100.893C81.3221 101.039 81.2459 101.332 81.2459 101.332L80.989 101.115C79.6996 100.033 78.3778 98.9913 77.0165 98.0014C74.3784 96.083 71.6047 94.3505 68.7191 92.8303C67.2179 92.0389 65.6861 91.3051 64.1279 90.632C63.4067 90.3202 62.6805 90.0152 61.9436 89.7404C61.2611 89.4849 60.5686 89.2545 59.8699 89.0479C57.9568 88.4825 55.9918 88.0987 54.01 87.8745C53.0731 87.7687 52.1337 87.703 51.1919 87.6604C50.7856 87.646 50.7844 87.6466 50.3781 87.636ZM62.2492 156.505C60.8167 156.582 59.3824 156.663 57.9549 156.806C57.0974 156.892 56.243 157.013 55.3918 157.147C51.3481 157.785 47.375 158.855 43.5407 160.288C42.4801 160.684 41.4307 161.11 40.3926 161.56L39.7489 160.862C38.7864 159.729 37.8502 158.575 36.9508 157.391C35.0471 154.885 33.2946 152.263 31.6902 149.555C31.0621 148.495 30.4559 147.421 29.8728 146.336C29.3303 145.327 28.8065 144.31 28.3296 143.268C27.2572 140.927 26.3772 138.494 25.6597 136.021L25.6709 136.015C27.5415 135.088 29.4734 134.288 31.4821 133.711C32.5496 133.404 33.6365 133.174 34.7271 132.966C35.9433 132.734 37.1664 132.539 38.3945 132.38C41.0889 132.031 43.8057 131.861 46.5219 131.872C47.8144 131.877 49.1056 131.928 50.3956 132.013C51.0025 132.057 51.61 132.103 52.2168 132.152C52.3581 132.734 52.505 133.315 52.6575 133.895C54.2043 139.779 56.2881 145.541 59.0649 150.958C59.9118 152.609 60.8274 154.222 61.8036 155.8C61.9511 156.035 62.0999 156.27 62.2492 156.505C62.1661 156.376 62.003 156.394 61.7792 156.52L62.2492 156.505ZM65.9704 156.524L64.6648 154.477C63.8023 153.104 62.988 151.702 62.2298 150.268C60.2467 146.514 58.6218 142.576 57.2905 138.546C56.643 136.587 56.0599 134.604 55.5506 132.604L55.7537 132.636C56.8312 132.817 57.9049 133.02 58.9718 133.258C61.2042 133.757 63.4073 134.391 65.5611 135.163C67.6754 135.92 69.7423 136.81 71.7429 137.831C72.6735 138.306 73.5866 138.812 74.4878 139.34C74.8228 139.54 74.8222 139.539 75.1559 139.742L77.4465 141.157C78.2078 148.435 79.9534 154.965 82.6458 160.515C77.559 158.087 71.9066 156.775 65.9704 156.524ZM124.343 133.854L127.612 131.146C129.27 129.786 130.956 128.463 132.68 127.187C137.299 123.765 142.141 120.647 147.132 117.797C149.693 116.334 152.295 114.942 154.93 113.617C156.059 113.049 157.196 112.495 158.337 111.949C158.732 111.762 159.128 111.575 159.524 111.389C157.186 117.42 154.487 123.313 151.445 129.021C148.823 133.94 145.949 138.738 142.653 143.237C142.334 143.665 142.334 143.665 142.011 144.092L139.405 147.485C130.707 149.645 122.888 152.844 116.223 156.968C119.967 150.137 122.71 142.314 124.343 133.854ZM80.3865 139.486L80.2315 136.632C80.1684 135.33 80.129 134.028 80.1215 132.724C80.0984 128.694 80.3453 124.665 80.7965 120.661C81.3046 116.153 82.0734 111.676 83.0483 107.246L83.0877 107.285C84.0952 108.297 85.0758 109.334 86.0208 110.405C87.7908 112.411 89.442 114.524 90.9614 116.728C92.4651 118.91 93.8401 121.182 95.0732 123.529C95.7207 124.762 96.3244 126.018 96.8963 127.287L98.2932 130.451C95.1788 138.398 93.3482 146.011 92.8763 153.06C89.7408 147.802 85.4764 143.218 80.3865 139.486ZM101.432 130.176L102.966 127.465L103.309 126.853C104.933 123.939 106.554 121.024 108.222 118.135C110.164 114.771 112.159 111.437 114.234 108.155C116.484 104.596 118.83 101.098 121.32 97.7015C121.39 97.6069 121.46 97.5118 121.53 97.4172L121.538 97.4654C122.403 102.56 122.823 107.727 122.933 112.891C122.98 115.155 122.965 117.421 122.877 119.684C122.778 122.215 122.583 124.74 122.252 127.252C122.219 127.486 122.187 127.721 122.152 127.955C121.93 129.417 121.694 130.878 121.455 132.338C114.701 138.475 109.249 144.952 105.265 151.54C105.31 144.406 103.999 137.164 101.432 130.176ZM144.163 146.424C144.617 145.833 145.065 145.24 145.503 144.637C147.099 142.443 148.588 140.169 150.004 137.854C151.607 135.235 153.116 132.559 154.547 129.843C157.676 123.906 160.45 117.775 162.83 111.5C163.077 110.848 163.319 110.194 163.556 109.539L166.682 108.227L167.216 108.005C169.755 106.957 172.313 105.956 174.893 105.011C181.095 102.741 187.406 100.774 193.792 99.0927C196.294 98.434 198.808 97.8186 201.332 97.2457C202.447 96.9927 203.562 96.7448 204.682 96.5156C205.87 96.2727 207.062 96.0504 208.257 95.8494C213.742 94.9259 219.302 94.4313 224.862 94.3405L224.769 94.5264C222.306 99.4258 219.557 104.179 216.478 108.716C215.772 109.757 215.05 110.785 214.31 111.802C213.446 112.989 212.558 114.16 211.664 115.324C210.028 117.455 208.356 119.56 206.649 121.635C202.173 127.078 197.454 132.323 192.493 137.327C190.639 139.197 188.75 141.029 186.831 142.831C185.916 143.685 185 144.536 184.083 145.387C182.465 145.179 180.842 144.999 179.217 144.849C170.676 144.063 162.051 144.059 153.522 144.994C152.819 145.071 152.117 145.152 151.416 145.247C149.958 145.445 148.506 145.685 147.054 145.926C146.09 146.088 145.125 146.254 144.163 146.424ZM54.7487 129.32L54.4599 127.96L54.3893 127.622C53.2793 122.21 52.5812 116.722 52.23 111.209C52.1125 109.363 52.0331 107.514 51.9893 105.664C51.9537 104.128 51.9406 102.592 51.9919 101.056C52.0881 98.1686 52.3731 95.2941 52.7668 92.4333C52.8393 91.9274 52.9143 91.4221 52.9925 90.9169C55.1993 91.131 57.3837 91.5386 59.4993 92.2079C60.6555 92.5729 61.778 93.0256 62.8905 93.5065C64.0786 94.0199 65.2504 94.5703 66.4048 95.1563C69.0854 96.5162 71.6679 98.0684 74.1335 99.7883C75.3647 100.647 76.5628 101.551 77.7353 102.488C78.069 102.757 78.4009 103.029 78.7303 103.303C79.2934 103.775 79.8546 104.25 80.4153 104.725C80.2971 105.229 80.1821 105.734 80.0696 106.239C79.1196 110.514 78.3559 114.831 77.824 119.178C77.3372 123.161 77.0447 127.171 77.0009 131.184C76.9822 132.889 77.014 134.592 77.0865 136.294C77.1028 136.626 77.1197 136.957 77.1378 137.288C75.8416 136.488 74.5184 135.734 73.1616 135.041C70.0335 133.445 66.7529 132.152 63.3836 131.165C60.9055 130.439 58.3799 129.877 55.8287 129.478C55.4693 129.421 55.1093 129.369 54.7487 129.32ZM125.151 129.006L125.168 128.902C125.64 125.893 125.881 122.85 126 119.807C126.125 116.606 126.11 113.399 125.973 110.2C125.833 106.918 125.567 103.64 125.138 100.383C124.86 98.2637 124.513 96.1518 124.065 94.0625L125.88 91.903L126.229 91.4891C127.904 89.5181 129.611 87.5753 131.355 85.6656C135.606 81.0142 140.062 76.5512 144.682 72.2679C146.825 70.2806 149.004 68.3322 151.216 66.4219C152.039 65.7119 152.861 65.0018 153.695 64.3056C154.708 63.4597 155.735 62.6314 156.776 61.8205C159.322 59.837 161.946 57.9549 164.629 56.1623C166.114 55.1699 167.618 54.2094 169.134 53.2659C169.246 53.197 169.359 53.1275 169.471 53.0586L169.507 53.3667C169.679 54.8882 169.812 56.4128 169.895 57.9417C170.032 60.4844 170.037 63.0346 169.907 65.5785C169.855 66.5884 169.782 67.5971 169.687 68.6039C169.584 69.7052 169.456 70.8047 169.322 71.9029C169.069 73.9822 168.777 76.0578 168.446 78.1265C167.5 84.0358 166.239 89.8944 164.668 95.6685C163.949 98.3126 163.16 100.936 162.314 103.542C161.91 104.773 161.502 106.004 161.093 107.234C159.956 107.741 158.825 108.258 157.699 108.788C149.504 112.649 141.578 117.113 134.137 122.29C131.749 123.951 129.419 125.691 127.14 127.5C126.802 127.771 126.463 128.044 126.127 128.318C125.793 128.591 125.461 128.865 125.129 129.14C125.165 129.11 125.17 129.065 125.151 129.006ZM83.8646 103.683L84.3833 101.685C84.8839 99.7808 85.4139 97.8837 85.9789 95.9972C87.4139 91.2074 89.0583 86.4814 90.8776 81.825C91.7501 79.591 92.6638 77.3733 93.6157 75.1719C94.5638 72.9773 95.5463 70.7984 96.6169 68.6609C98.6344 64.6337 100.908 60.7436 103.341 56.955L103.488 57.0984C104.146 57.7464 104.786 58.4132 105.401 59.1026C106.641 60.4944 107.783 61.9721 108.814 63.5248C109.651 64.7846 110.397 66.0975 111.116 67.428C111.85 68.7886 112.551 70.1679 113.217 71.5642C115.277 75.885 117.009 80.363 118.42 84.9387C118.96 86.6874 119.45 88.4512 119.899 90.2256C120.161 91.2731 120.419 92.3212 120.675 93.3694C118.23 96.5212 115.944 99.7965 113.753 103.129C110.069 108.731 106.662 114.508 103.364 120.344C102.221 122.379 101.096 124.424 99.9456 126.455C99.1588 124.673 98.3088 122.921 97.3788 121.21C95.3438 117.467 92.9626 113.913 90.282 110.603C88.6133 108.542 86.8283 106.575 84.9389 104.716C84.5846 104.368 84.2265 104.023 83.8646 103.683Z" fill="white"/>
</svg>
