<svg width="300" height="300" viewBox="0 0 300 300" fill="none" xmlns="http://www.w3.org/2000/svg">
<path fill-rule="evenodd" clip-rule="evenodd" d="M227.949 110.995C230.158 112.677 231.813 114.999 232.881 117.549C236.1 117.538 239.317 117.541 242.537 117.549C242.553 129.535 242.534 141.524 242.548 153.513C244.889 153.494 247.233 153.483 249.577 153.518C249.582 156.661 249.582 159.806 249.58 162.952C247.23 162.968 244.884 162.952 242.537 162.963C242.54 166.77 242.559 170.574 242.529 174.378C239.051 174.383 235.576 174.386 232.099 174.378C232.085 170.697 232.099 167.017 232.093 163.339C220.181 163.333 208.272 163.342 196.36 163.333C196.873 158.673 198.704 154.188 201.534 150.458C204.749 146.197 208.632 142.557 212.5 138.904L213.182 138.259C215.115 136.43 217.033 134.589 218.853 132.656C220.933 130.52 222.641 127.864 223.003 124.85C223.236 122.618 222.904 120.14 221.356 118.414C219.824 116.704 217.393 116.149 215.18 116.289C213.273 116.407 211.33 117.165 210.119 118.693C208.706 120.464 208.396 122.797 208.154 124.976C204.649 124.584 201.133 124.29 197.628 123.897C198.051 119.533 199.448 114.952 202.813 111.942C206.384 108.755 211.288 107.443 215.998 107.465C220.195 107.426 224.587 108.354 227.949 110.995ZM232.112 130.864C230.762 133.658 229.033 136.265 226.966 138.579C224.875 140.836 222.621 142.929 220.359 145.014L219.455 145.847C218.4 146.821 217.347 147.797 216.314 148.792C214.881 150.159 213.591 151.677 212.537 153.356C219.072 153.37 225.61 153.403 232.148 153.365C232.142 151.115 232.143 148.865 232.147 146.615L232.154 142.115C232.158 138.365 232.155 134.614 232.112 130.864Z" fill="white"/>
<path fill-rule="evenodd" clip-rule="evenodd" d="M217.116 60.0447C218.938 58.7766 220.774 57.525 222.61 56.2734C224.425 57.5086 226.203 58.7986 228.007 60.0474C226.217 63.0529 224.422 66.0528 222.616 69.05C220.785 66.0446 218.976 63.0282 217.116 60.0447Z" fill="white"/>
<path fill-rule="evenodd" clip-rule="evenodd" d="M237.432 60.9918C239.8 60.1958 242.175 59.4218 244.541 58.6149C246.089 60.5554 247.667 62.4684 249.215 64.4117C246.333 67.1042 243.454 69.7968 240.583 72.5003C239.504 68.6715 238.445 64.8371 237.432 60.9918Z" fill="white"/>
<path fill-rule="evenodd" clip-rule="evenodd" d="M257.613 68.4158C260.443 68.3417 263.276 68.468 266.103 68.2484C267.231 70.8778 268.219 73.5676 269.221 76.2492C265.15 78.143 261.094 80.0725 257.034 81.9911C257.188 77.4651 257.421 72.9418 257.613 68.4158Z" fill="white"/>
<path fill-rule="evenodd" clip-rule="evenodd" d="M276.676 83.729C279.67 84.7528 282.623 85.9001 285.607 86.9623C285.629 90.1022 285.651 93.2449 285.648 96.3876C280.688 96.7499 275.729 97.1451 270.775 97.5733C272.731 92.9567 274.732 88.3538 276.676 83.729Z" fill="white"/>
<path fill-rule="evenodd" clip-rule="evenodd" d="M279.091 117.98C282.903 114.118 286.82 110.361 290.66 106.529C293.163 108.87 295.732 111.146 298.238 113.487C296.948 116.599 295.697 119.726 294.459 122.86C289.323 121.268 284.232 119.547 279.091 117.98Z" fill="white"/>
<path fill-rule="evenodd" clip-rule="evenodd" d="M278.814 141.373C284.251 139.111 289.661 136.781 295.093 134.503C296.726 137.857 298.378 141.203 299.984 144.57C297.401 147.197 294.942 149.939 292.359 152.56C287.871 148.797 283.263 145.177 278.814 141.373Z" fill="white"/>
<path fill-rule="evenodd" clip-rule="evenodd" d="M267.714 162.513C274.48 162.529 281.24 162.733 288.003 162.873C288.08 167.143 288.343 171.406 288.393 175.679C284.484 177.26 280.606 178.918 276.689 180.485C273.722 174.483 270.728 168.494 267.714 162.513Z" fill="white"/>
<path fill-rule="evenodd" clip-rule="evenodd" d="M248.175 190.468C248.276 186.441 248.208 182.407 248.49 178.386C254.853 181.951 261.237 185.481 267.602 189.041C265.593 193.16 263.572 197.275 261.58 201.405C257.018 201.134 252.481 200.563 247.928 200.159C248.013 196.929 247.958 193.693 248.175 190.468Z" fill="white"/>
<path fill-rule="evenodd" clip-rule="evenodd" d="M209.502 203.384C213.767 196.094 218.235 188.906 222.583 181.654C226.991 188.969 231.443 196.259 235.785 203.612C231.561 206.442 227.356 209.305 223.162 212.178C222.844 212.368 222.435 212.796 222.092 212.384C217.911 209.365 213.613 206.483 209.502 203.384Z" fill="white"/>
<path fill-rule="evenodd" clip-rule="evenodd" d="M10.3897 174.578C12.1518 173.05 13.9084 171.51 15.6513 169.959C16.2771 170.681 16.9084 171.4 17.5451 172.114C16.4116 173.099 15.267 174.076 14.128 175.062C15.0475 176.412 15.8983 177.809 16.8205 179.159C17.6412 180.685 19.7574 180.367 21.1187 179.857C21.0529 179.14 20.9568 178.429 20.858 177.718C21.7583 177.488 22.6585 177.263 23.5698 177.076C23.7784 177.998 23.6795 179.093 24.3218 179.859C25.4773 180.455 26.8662 180.279 28.1122 180.125C28.4306 179.168 28.1013 178.193 27.8707 177.257C28.7627 177.071 29.652 176.887 30.5413 176.695C30.9338 178.045 31.3839 179.456 31.1232 180.875C30.8048 182.269 29.3556 183.079 28.0079 183.139C26.32 183.158 24.481 183.4 22.9989 182.406C20.6412 183.565 17.7126 183.444 15.3796 182.277C14.4217 182.719 13.4308 183.158 12.3521 183.15C9.51138 183.169 6.67061 183.15 3.82984 183.158C2.60296 183.131 1.11807 182.953 0.415426 181.803C-0.306431 180.512 0.184871 178.984 0.448363 177.633C1.38156 177.801 2.30927 177.982 3.24796 178.122C3.22326 178.674 3.15739 179.228 3.19032 179.785C3.62948 180.285 4.32389 180.241 4.92772 180.249C7.31287 180.241 9.69527 180.244 12.0777 180.249C12.6047 180.227 13.2497 180.307 13.5818 179.793C12.967 177.82 11.4574 176.31 10.3897 174.578ZM56.8356 174.57C58.6114 173.046 60.368 171.501 62.1273 169.961C62.7641 170.645 63.4228 171.315 63.9498 172.091C62.9425 173.184 61.6964 174.024 60.6287 175.056C61.7376 176.774 62.5912 178.75 64.2106 180.065C65.034 180.523 66.6534 180.095 66.5381 178.942C66.5244 176.488 65.8519 174.103 65.3963 171.707C66.335 171.531 67.2737 171.369 68.2206 171.257C68.7942 174.251 69.6067 177.24 69.6039 180.309C69.6616 181.3 68.9507 182.162 68.0861 182.557C66.1044 183.493 63.7275 183.342 61.8337 182.274C60.0249 183.191 57.9581 183.312 55.971 183.087C55.3754 182.969 54.8402 182.678 54.3104 182.398C52.7899 183.18 50.8713 183.509 49.2684 182.818C49.4056 184.692 48.0498 186.221 46.521 187.094C45.3901 187.717 44.2648 188.373 43.0654 188.856C42.4862 188.131 42.1679 187.237 41.7616 186.41C43.4194 185.502 45.6015 184.967 46.4496 183.095C46.8037 181.712 46.0104 180.402 45.5631 179.14C46.4359 178.808 47.3169 178.489 48.2007 178.179C48.5658 178.805 48.6948 179.691 49.3864 180.056C50.3718 180.386 51.4614 180.249 52.4138 179.867C52.3617 179.148 52.2656 178.434 52.1641 177.721C53.0671 177.485 53.9728 177.265 54.8868 177.076C55.1311 178.102 54.9115 179.686 56.1466 180.098C57.4284 180.336 58.7569 180.273 60.0414 180.084C59.9892 179.642 59.9179 179.192 59.6736 178.81C58.8282 177.334 57.7825 175.981 56.8356 174.57ZM71.7777 171.318C72.7164 171.316 73.6551 171.316 74.5938 171.318C74.5965 175.263 74.5993 179.209 74.5938 183.156C73.6551 183.156 72.7164 183.156 71.7777 183.156C71.7722 179.209 71.7722 175.263 71.7777 171.318ZM102.776 171.345C103.625 171.339 104.473 171.339 105.324 171.345C105.326 172.212 105.326 173.077 105.324 173.947C104.475 173.947 103.625 173.947 102.776 173.944C102.774 173.077 102.774 172.212 102.776 171.345ZM111.76 171.318C112.696 171.315 113.635 171.315 114.573 171.321C114.576 175.265 114.579 179.209 114.571 183.153C113.635 183.156 112.696 183.156 111.76 183.156C111.755 179.209 111.757 175.262 111.76 171.318ZM27.7719 171.919C28.6173 171.913 29.4599 171.913 30.3053 171.919C30.3081 172.778 30.3081 173.64 30.3053 174.501C29.4599 174.504 28.6173 174.504 27.7719 174.504C27.7692 173.642 27.7692 172.778 27.7719 171.919ZM50.3251 172.528C51.154 172.523 51.9856 172.523 52.8145 172.528C52.82 173.354 52.82 174.181 52.8173 175.007C51.9856 175.012 51.154 175.012 50.3251 175.009C50.3196 174.181 50.3196 173.354 50.3251 172.528ZM53.583 172.526C54.4009 172.523 55.2216 172.523 56.0395 172.534C56.0395 173.355 56.0395 174.178 56.0395 175.001C55.2188 175.012 54.4009 175.012 53.5803 175.009C53.5775 174.181 53.5775 173.355 53.583 172.526ZM85.7567 172.457C86.6131 172.451 87.4666 172.451 88.323 172.454C88.323 173.316 88.323 174.178 88.323 175.043C87.4666 175.043 86.6131 175.043 85.7567 175.04C85.754 174.178 85.754 173.316 85.7567 172.457ZM89.2698 172.454C90.1206 172.451 90.9687 172.451 91.8196 172.457C91.8223 173.316 91.8223 174.178 91.8196 175.04C90.9687 175.043 90.1206 175.043 89.2698 175.043C89.2671 174.178 89.2671 173.316 89.2698 172.454ZM118.915 175.281C119.73 174.749 120.554 174.233 121.383 173.72C122.555 175.729 124.232 177.631 124.432 180.041C124.542 181.649 123.101 182.903 121.594 183.082C119.895 183.255 118.182 183.115 116.478 183.156C116.472 182.176 116.47 181.196 116.486 180.219C118.174 180.299 119.977 180.688 121.572 179.923C120.782 178.322 119.84 176.805 118.915 175.281ZM100.089 174.817C103.125 175.515 106.142 176.297 109.177 177C109.251 177.839 109.334 178.685 109.249 179.527C108.966 179.986 108.337 180.06 107.898 180.326C106.213 181.032 104.835 182.374 103.037 182.824C101.552 183.156 100.021 183.197 98.5057 183.15C97.7701 183.153 97.1087 182.799 96.4939 182.442C95.6869 182.876 94.7949 183.181 93.8671 183.156C90.6641 183.156 87.461 183.161 84.2579 183.156C82.7812 183.137 81.0905 182.396 80.6321 180.878C80.3247 179.698 80.7748 178.515 80.9422 177.354C81.9194 177.488 82.891 177.669 83.8681 177.817C83.7693 178.386 83.6293 178.948 83.5964 179.527C83.9367 180.142 84.719 180.214 85.3503 180.238C87.5515 180.26 89.7556 180.233 91.9568 180.249C92.7199 180.241 93.5707 180.279 94.1993 179.766C94.4765 179.143 94.191 178.451 94.1636 177.809C95.1023 177.656 96.0355 177.472 96.9742 177.323C97.1663 178.317 96.9303 180.019 98.2889 180.205C100.743 180.359 103.199 179.821 105.466 178.899C104.327 178.602 103.183 178.331 102.033 178.095C101.994 178.235 101.92 178.515 101.884 178.657C100.981 178.432 100.087 178.18 99.1947 177.922C99.4993 176.887 99.7793 175.85 100.089 174.817ZM33.4123 178.339C34.4306 177.06 35.6301 175.702 37.2824 175.304C38.8578 175.109 40.1149 176.637 40.211 178.103C40.2796 179.764 40.2439 181.43 40.2329 183.093C40.2192 184.616 39.0253 185.791 37.8313 186.573C36.5605 187.345 35.2074 187.965 33.8488 188.563C33.4316 187.748 33.0226 186.93 32.6521 186.093C34.3044 185.297 36.0857 184.658 37.4388 183.368C36.157 183.101 34.7353 183.099 33.6237 182.336C32.3941 181.391 32.4572 179.459 33.4123 178.339ZM136.437 177.263C137.332 177.077 138.224 176.874 139.133 176.764C139.503 178.433 140.329 180.422 139.138 181.951C137.708 183.518 135.254 183.326 133.377 182.876C133.47 184.301 132.699 185.618 131.587 186.458C130.223 187.485 128.634 188.149 127.125 188.931C126.716 188.086 126.282 187.251 125.87 186.406C127.421 185.582 129.298 185.069 130.344 183.56C131.203 182.124 130.179 180.524 129.68 179.146C130.558 178.811 131.442 178.493 132.326 178.172C132.737 178.907 132.916 180.126 133.964 180.173C134.895 180.211 136.05 180.483 136.811 179.788C136.89 178.927 136.577 178.098 136.437 177.263ZM35.1304 180.128C35.8276 179.31 36.6757 178.63 37.6391 178.152C37.6858 179.044 37.683 179.942 37.6776 180.839C36.8102 180.674 35.9429 180.48 35.1304 180.128ZM19.4116 185.717C20.2295 185.711 21.0501 185.711 21.8708 185.714C21.8763 186.554 21.8763 187.394 21.8735 188.234C21.0529 188.234 20.2295 188.234 19.4061 188.228C19.4061 187.388 19.4061 186.554 19.4116 185.717ZM22.6284 188.234C22.6257 187.391 22.6257 186.554 22.6339 185.714C23.4573 185.711 24.2807 185.711 25.1069 185.717C25.1123 186.554 25.1123 187.391 25.1096 188.231C24.2835 188.234 23.4546 188.234 22.6284 188.234ZM134.988 185.719C135.806 185.711 136.627 185.711 137.448 185.714C137.453 186.554 137.453 187.394 137.453 188.233C136.624 188.233 135.795 188.233 134.969 188.222C134.977 187.388 134.986 186.554 134.988 185.719ZM138.232 185.714C139.056 185.711 139.882 185.711 140.708 185.717C140.713 186.554 140.705 187.394 140.689 188.234C139.868 188.234 139.048 188.234 138.23 188.231C138.227 187.391 138.227 186.551 138.232 185.714ZM136.632 188.919C137.456 188.906 138.282 188.903 139.108 188.908C139.108 189.751 139.1 190.594 139.092 191.439C138.266 191.439 137.442 191.436 136.616 191.431C136.616 190.591 136.624 189.754 136.632 188.919Z" fill="white"/>
<path fill-rule="evenodd" clip-rule="evenodd" d="M222.295 69.8923C222.682 69.4998 223.11 69.9829 223.467 70.1805C227.433 73.002 231.451 75.755 235.403 78.5957C231.166 85.6716 226.911 92.7392 222.698 99.8288C218.296 92.7667 214.008 85.6304 209.696 78.5107C213.904 75.6479 218.082 72.7468 222.295 69.8923Z" fill="white"/>
<path fill-rule="evenodd" clip-rule="evenodd" d="M182.518 80.4545C187.245 80.6439 191.958 81.0446 196.676 81.3603C196.698 88.867 196.725 96.3738 196.744 103.881C190.217 100.485 183.69 97.0929 177.163 93.6977C176.502 93.5523 176.922 92.8935 177.065 92.4955C178.893 88.4855 180.721 84.4755 182.518 80.4545Z" fill="white"/>
<path fill-rule="evenodd" clip-rule="evenodd" d="M156.932 106.177C160.89 104.616 164.843 103.026 168.814 101.498C171.748 107.591 174.674 113.69 177.608 119.783C174.026 119.722 170.453 119.495 166.874 119.437C163.64 119.193 160.391 119.303 157.16 119.014C157.141 114.733 157.017 110.456 156.932 106.177Z" fill="white"/>
<path fill-rule="evenodd" clip-rule="evenodd" d="M145.473 137.538C148.133 134.821 150.652 131.972 153.345 129.285C157.986 133.15 162.696 136.932 167.359 140.772C161.741 143.124 156.15 145.542 150.534 147.902C148.841 144.45 147.147 140.997 145.473 137.538Z" fill="white"/>
<path fill-rule="evenodd" clip-rule="evenodd" d="M150.943 159.139C156.084 160.674 161.189 162.337 166.33 163.879C162.548 167.763 158.686 171.567 154.849 175.393C152.346 173.079 149.777 170.834 147.257 168.54C148.503 165.414 149.722 162.276 150.943 159.139Z" fill="white"/>
<path fill-rule="evenodd" clip-rule="evenodd" d="M159.979 185.384C164.686 185.074 169.407 184.967 174.111 184.64C172.185 188.977 170.118 193.25 168.155 197.571C165.37 196.511 162.628 195.342 159.845 194.277C159.839 191.313 159.949 188.348 159.979 185.384Z" fill="white"/>
<path fill-rule="evenodd" clip-rule="evenodd" d="M176.156 205.57C180.188 203.805 184.209 202.018 188.236 200.242C187.942 204.694 187.673 209.146 187.311 213.592C184.517 213.516 181.72 213.422 178.923 213.417C178.012 210.798 177.026 208.202 176.156 205.57Z" fill="white"/>
<path fill-rule="evenodd" clip-rule="evenodd" d="M196.116 217.695C198.989 214.956 201.756 212.104 204.6 209.332C205.744 213.169 206.979 216.984 208.061 220.84C205.689 221.68 203.34 222.583 200.957 223.398C199.352 221.488 197.719 219.602 196.116 217.695Z" fill="white"/>
<path fill-rule="evenodd" clip-rule="evenodd" d="M217.821 221.779C219.473 219.197 220.977 216.52 222.687 213.973C224.254 216.636 225.879 219.268 227.397 221.96C225.761 223.012 224.158 224.107 222.547 225.194C220.964 224.063 219.377 222.943 217.821 221.779Z" fill="white"/>
<path fill-rule="evenodd" clip-rule="evenodd" d="M23.2486 194.409C24.577 194.398 25.9054 194.398 27.2339 194.409C27.2339 195.713 27.2339 197.014 27.2339 198.318C25.9054 198.332 24.577 198.329 23.2486 198.321C23.2486 197.017 23.2486 195.713 23.2486 194.409ZM49.392 203.088C52.1532 200.716 54.9391 198.369 57.6893 195.984C58.6746 197.011 59.5804 198.109 60.5355 199.163C58.724 200.664 56.9125 202.163 55.1038 203.664C56.553 205.915 58.6582 207.981 58.8942 210.781C59.122 212.787 57.703 214.588 55.9327 215.356C53.5585 216.537 50.8358 216.092 48.2832 216.158C46.9355 216.218 45.7306 215.584 44.5696 214.991C42.4644 216.177 39.9667 216.358 37.609 216.078C36.5496 215.952 35.6054 215.444 34.6585 215C32.6301 216.087 30.234 216.479 27.9806 215.971C27.2972 215.829 26.7537 215.373 26.2322 214.942C24.9422 216.032 23.1472 216.463 21.536 215.848C21.9916 217.618 22.4308 219.397 22.7766 221.192C19.4583 222.325 16.236 223.736 12.8573 224.675C10.6725 225.314 8.36144 225.657 6.09706 225.303C3.09435 224.749 0.533543 222.13 0.319456 219.04C-0.0318659 215.087 1.55457 211.338 2.64422 207.619C4.04128 208.16 5.45206 208.67 6.86283 209.181C6.16293 211.98 4.81803 214.692 4.99094 217.646C4.99094 218.963 5.86925 220.217 7.10986 220.665C8.75942 221.307 10.549 220.824 12.1903 220.412C14.1116 219.825 15.9478 219.001 17.8279 218.296C17.01 215.011 16.1427 211.742 15.3248 208.459C16.8481 208.058 18.3824 207.701 19.9084 207.312C20.3037 208.558 20.3915 209.949 21.1655 211.044C21.6211 211.714 22.7766 212.085 23.3256 211.327C24.1078 210.262 24.1847 208.884 24.3823 207.625C25.8864 207.888 27.3987 208.097 28.8973 208.39C28.6256 209.381 28.4719 210.419 28.6531 211.445C29.6219 211.791 31.2166 212.087 31.6475 210.839C31.6695 209.785 31.2605 208.788 31.0272 207.773C32.3831 207.38 33.728 206.944 35.0729 206.513C35.4435 207.781 35.5038 209.151 36.0939 210.347C36.9311 211.821 38.8908 211.909 40.3702 211.602C40.8368 211.451 41.6026 211.349 41.6492 210.743C41.6684 209.749 41.3583 208.788 41.2156 207.817C42.6154 207.498 44.0124 207.174 45.404 206.82C45.7196 208.077 45.7279 209.431 46.2658 210.627C46.952 211.799 48.5 211.687 49.6775 211.733C51.253 211.676 52.9876 212.057 54.3709 211.088C54.1514 209.9 53.435 208.909 52.7872 207.924C51.7031 206.28 50.5311 204.696 49.392 203.088ZM87.7465 197.936C89.2176 197.925 90.6888 197.93 92.1627 197.93C92.1655 202.506 92.1572 207.084 92.1655 211.662C92.9203 211.692 93.6805 211.788 94.4326 211.673C95.2889 211.434 95.9724 210.806 96.5131 210.128C97.5561 208.775 98.3822 207.262 99.4499 205.931C100.649 204.479 102.793 203.659 104.588 204.449C105.705 204.907 106.26 206.082 106.545 207.188C107.053 209.09 107.668 210.992 107.783 212.971C107.959 215.406 105.571 217.563 103.177 217.297C101.132 217.116 99.653 215.524 98.0282 214.448C97.1608 215.378 96.0245 216.098 94.7235 216.141C92.385 216.259 90.063 215.823 87.7465 215.576C87.7465 209.694 87.7465 203.815 87.7465 197.936ZM110.97 197.931C112.443 197.928 113.92 197.928 115.397 197.931C115.402 202.509 115.386 207.085 115.405 211.663C116.687 211.671 118.067 211.976 119.272 211.41C120.354 210.801 119.753 209.39 119.558 208.446C120.974 208.161 122.396 207.903 123.815 207.628C124.051 208.874 124.128 210.247 124.915 211.303C125.385 211.99 126.463 211.83 126.87 211.155C127.559 210.093 127.526 208.767 127.789 207.568C129.178 207.823 130.561 208.097 131.961 208.306C131.884 209.313 131.461 210.321 131.64 211.336C132.702 212.058 134.363 211.844 135.123 210.774C135.112 209.519 134.596 208.334 134.313 207.126C135.724 206.796 137.14 206.492 138.559 206.201C138.916 208.087 139.624 209.942 139.547 211.882C139.314 214.158 137.072 215.53 135.03 215.994C133.158 216.354 130.907 216.34 129.513 214.83C128.692 215.566 127.693 216.194 126.554 216.172C125.064 216.304 123.697 215.511 122.717 214.454C121.523 215.934 119.528 216.205 117.746 216.178C115.474 216.194 113.22 215.835 110.967 215.582C110.97 209.698 110.967 203.813 110.97 197.931ZM20.5341 199.618C21.8735 199.596 23.2156 199.605 24.5578 199.607C24.5578 200.925 24.5578 202.242 24.5578 203.56C23.2156 203.562 21.8735 203.571 20.5341 203.549C20.5341 202.239 20.5341 200.928 20.5341 199.618ZM26.0126 199.616C27.3383 199.6 28.6668 199.602 29.9952 199.613C29.9952 200.925 29.9952 202.24 29.9952 203.555C28.6668 203.566 27.3383 203.568 26.0126 203.555C26.0099 202.24 26.0099 200.928 26.0126 199.616ZM70.5921 209.297C70.5921 207.949 70.5783 206.598 70.6085 205.251C71.915 205.251 73.2214 205.234 74.5279 205.278C74.5471 206.618 74.5361 207.957 74.5361 209.297C73.2214 209.299 71.9067 209.299 70.5921 209.297ZM76.9817 206.521C78.3952 206.195 79.8169 205.901 81.2469 205.638C82.268 210.208 83.3631 214.764 84.4226 219.328C80.193 220.797 76.054 222.636 71.624 223.415C69.2087 223.841 66.5244 223.552 64.5537 221.982C62.7833 220.662 61.7596 218.461 61.809 216.262C61.6937 212.757 63.2362 209.532 64.2243 206.25C65.657 206.598 67.0953 206.928 68.517 207.32C67.6689 210.246 66.2993 213.18 66.6341 216.298C66.9635 218.189 69.0166 219.23 70.8034 219.068C73.8335 218.807 76.6386 217.547 79.4876 216.578C78.634 213.23 77.849 209.864 76.9817 206.521ZM100.18 211.366C100.907 210.293 101.583 209.134 102.639 208.347C103.175 208.704 103.358 209.351 103.534 209.933C103.852 211.072 104.154 212.283 103.866 213.466C102.543 212.941 101.36 212.143 100.18 211.366ZM39.0279 220.184C40.2768 220.184 41.5256 220.184 42.7745 220.187C42.7718 221.474 42.7827 222.762 42.7717 224.049C41.5256 224.049 40.2768 224.049 39.0307 224.049C39.0225 222.762 39.0252 221.472 39.0279 220.184ZM44.0287 220.187C45.3078 220.184 46.584 220.182 47.8631 220.19C47.8631 221.474 47.8658 222.759 47.8603 224.046C46.5841 224.049 45.3078 224.049 44.0342 224.049C44.026 222.759 44.0287 221.472 44.0287 220.187ZM62.067 233.722C61.798 232.585 61.0569 231.584 61.0268 230.392C62.5967 232.075 63.7001 234.24 63.8319 236.562C64.0817 239.414 63.1457 242.524 60.9499 244.437C61.1558 243.345 61.6416 242.335 61.927 241.267C62.6654 238.83 62.6901 236.186 62.067 233.722ZM2.87748 244.486C-0.962358 240.844 -0.962358 234.018 2.8967 230.395C2.67712 231.737 2.02663 232.955 1.73843 234.284C1.17302 236.485 1.2087 238.813 1.75764 241.014C2.0376 242.2 2.78142 243.251 2.87748 244.486ZM18.9723 233.713C19.4938 233.708 20.0153 233.708 20.5368 233.711C20.5395 235.382 20.5368 237.056 20.5395 238.728C22.0683 238.78 23.6465 238.673 25.0354 237.962C23.8716 237.63 22.6475 237.907 21.4974 237.512C21.6566 236.922 21.8213 236.337 21.9778 235.75C23.7563 236.077 25.5047 236.551 27.2613 236.977C27.2558 237.471 27.2531 237.968 27.2476 238.467C25.9603 238.945 24.8926 239.905 23.5587 240.257C22.0436 240.372 20.5148 240.312 18.997 240.254C18.8159 238.077 18.9174 235.893 18.9723 233.713ZM23.5204 233.763C24.0254 233.76 24.5304 233.763 25.0354 233.765C25.0327 234.262 25.0327 234.762 25.0327 235.264C24.5304 235.264 24.0281 235.264 23.5259 235.267C23.5231 234.762 23.5204 234.262 23.5204 233.763ZM45.6948 240.218C45.6894 238.047 45.6894 235.878 45.6948 233.71C46.2438 233.707 46.7927 233.707 47.3417 233.71C47.3527 235.393 47.3362 237.075 47.3527 238.76C47.9263 238.741 48.4999 238.716 49.0736 238.664C48.9473 237.992 48.7881 237.328 48.6289 236.663C49.1477 236.537 49.6719 236.422 50.1989 236.326C50.402 237.19 50.6079 238.063 50.6326 238.958C51.3544 238.826 52.079 238.725 52.8037 238.607C52.7817 238.255 52.7597 237.907 52.735 237.561C53.2263 237.462 53.7176 237.358 54.2089 237.259C54.3352 237.723 54.456 238.187 54.5822 238.656C54.821 238.675 55.0598 238.7 55.2986 238.73C55.4468 238.239 55.5813 237.748 55.7076 237.254C56.2071 237.341 56.7039 237.44 57.2034 237.533C57.176 237.937 57.1513 238.343 57.1321 238.752C57.5493 238.711 57.9637 238.664 58.3809 238.615C58.2794 238.099 58.1723 237.588 58.0543 237.083C58.5785 236.968 59.1028 236.85 59.627 236.735C59.7642 237.673 60.3763 238.823 59.616 239.641C58.7954 240.577 57.3763 240.52 56.3087 240.097C55.5072 240.492 54.5987 240.437 53.8494 239.957C52.9985 240.382 52.0379 240.446 51.1074 240.561C50.9894 241.11 51.1596 241.631 51.456 242.092C51.0498 242.425 50.6408 242.754 50.2319 243.083C49.51 242.348 49.2355 241.343 49.3426 240.333C48.1267 240.465 46.9053 240.363 45.6948 240.218ZM11.397 238.193C12.8846 237.133 14.4765 235.659 16.4308 235.843C18.5799 236.378 18.0255 240.141 15.923 240.333C14.5561 240.43 13.1783 240.391 11.8114 240.303C11.9651 240.951 12.1216 241.604 12.2698 242.26C10.5818 242.823 8.93499 243.586 7.15093 243.797C5.83347 243.973 4.37603 243.15 4.09333 241.799C3.77494 240.301 4.46112 238.849 4.88929 237.449C5.43549 237.572 5.97894 237.701 6.52514 237.836C6.19577 238.857 5.76211 239.881 5.80054 240.976C5.76211 241.67 6.48671 242.145 7.12074 242.14C8.26528 242.068 9.32474 241.588 10.3924 241.217C10.1399 239.993 9.83251 238.783 9.52236 237.575C10.0576 237.441 10.5928 237.306 11.128 237.18C11.2186 237.515 11.3064 237.852 11.397 238.193ZM42.1212 236.164C42.7031 235.974 43.5951 235.919 43.897 236.584C44.2593 237.358 44.4295 238.211 44.5475 239.057C44.7698 240.132 43.5512 241.151 42.5274 240.766C42.0279 240.544 41.5915 240.209 41.1029 239.968C40.4332 240.193 39.7607 240.412 39.0471 240.454C39.0965 240.865 39.1487 241.282 39.1953 241.702C37.8998 242.545 36.4204 243.242 34.8312 243.113C33.5193 243.168 32.1634 242.378 31.7544 241.099C31.3701 239.743 31.7544 238.329 32.3692 237.108C32.8852 237.292 33.3985 237.484 33.9118 237.676C33.533 238.691 32.7288 240.113 33.6949 241.038C35.0234 242.015 36.7498 241.206 38.0069 240.492C37.4195 240.179 36.8047 239.902 36.2859 239.485C36.2091 238.93 36.6482 238.494 36.8568 238.022C37.7598 238.595 38.8879 238.963 39.9446 238.628C40.8312 237.956 41.1358 236.721 42.1212 236.164ZM13.2086 238.695C14.1061 238.176 15.0064 237.591 16.0549 237.449C16.0576 237.838 16.0494 238.234 16.0357 238.629C15.0997 238.788 14.15 238.774 13.2086 238.695ZM41.7479 238.618C42.0855 238.22 42.4341 237.833 42.8046 237.468C42.9583 238.116 43.1038 238.766 43.2191 239.425C42.7195 239.172 42.2255 238.906 41.7479 238.618Z" fill="white"/>
</svg>
