<svg width="300" height="300" viewBox="0 0 300 300" fill="none" xmlns="http://www.w3.org/2000/svg">
<path d="M88.6644 102.6V145.505C125.181 118.974 163.812 106.66 206.338 105.856L210.795 105.771V146.067C226.204 134.016 241.613 119.051 257.022 100.654L256.782 0.417969C205.944 61.5366 150.867 100.592 88.6644 102.6Z" fill="white"/>
<path d="M132.679 262.317C132.679 283.071 149.607 299.998 170.361 299.998C191.117 299.998 208.044 283.071 208.044 262.317C208.044 241.561 191.117 224.633 170.361 224.633C149.607 224.633 132.679 241.561 132.679 262.317Z" fill="white"/>
<path d="M206.42 197.816V110.23C150.302 111.291 94.1843 132.758 38.0625 199.762L38.3025 299.998C89.1406 238.879 144.22 199.824 206.42 197.816Z" fill="white"/>
</svg>
