<svg width="300" height="300" viewBox="0 0 300 300" fill="none" xmlns="http://www.w3.org/2000/svg">
<path fill-rule="evenodd" clip-rule="evenodd" d="M47.8154 218.518C28.2556 195.947 16.219 166.834 15.65 134.95C14.3472 61.9854 73.5987 1.33815 147.63 0.0209646L150.472 0L152.374 0.0209646C226.403 1.33815 285.657 61.9854 284.355 134.95C283.785 166.834 271.749 195.947 252.189 218.515C255.537 220.558 258.436 223.742 260.656 228.148C263.177 233.115 263.04 239.011 260.338 243.784C255.819 251.899 250.733 262.553 246.337 271.513C243.321 277.654 240.581 283.063 237.858 286.761C234.824 290.877 231.446 293.398 228.131 294.581C219.847 298.105 211.593 299.885 203.372 299.996C202.83 300.002 202.291 299.969 201.757 299.891C189.625 298.174 182.704 292.893 179.733 285.662C170.032 281.836 160.155 279.76 150.029 279.751C150.029 279.751 149.73 279.751 149.739 279.751C139.676 279.796 129.885 281.869 120.272 285.659C117.301 292.893 110.379 298.174 98.2471 299.891C97.711 299.969 97.1719 300.002 96.6328 299.996C88.4117 299.885 80.1576 298.105 71.8737 294.581C68.5583 293.398 65.1771 290.877 62.1462 286.761C59.4208 283.063 56.6805 277.654 53.6676 271.513C49.2711 262.553 44.1856 251.899 39.7022 243.849C36.9589 239.002 36.8302 233.106 39.331 228.181C41.5592 223.757 44.4641 220.564 47.8154 218.518ZM55.5694 220.37C34.1198 197.975 20.7324 167.969 20.1424 134.87C18.8815 64.3569 76.1685 5.77058 147.711 4.50119L150.505 4.48022L152.293 4.50119C223.836 5.77058 281.123 64.3569 279.862 134.87C279.272 167.969 265.882 197.975 244.432 220.373C249.464 221.144 253.737 224.396 256.648 230.173C258.49 233.799 258.395 238.103 256.409 241.609C251.857 249.784 246.729 260.516 242.3 269.545C239.425 275.402 236.837 280.578 234.237 284.109C231.806 287.409 229.155 289.491 226.496 290.405C218.736 293.723 211.009 295.414 203.312 295.515C203.003 295.518 202.695 295.5 202.389 295.456C191.389 293.9 185.312 289.153 183.294 282.269C172.443 277.735 161.386 275.28 150.017 275.271H149.718C138.433 275.322 127.469 277.774 116.708 282.269C114.689 289.153 108.615 293.9 97.6151 295.456C97.3097 295.5 97.0011 295.518 96.6926 295.515C88.9926 295.414 81.2657 293.723 73.5059 290.405C70.8494 289.491 68.1989 287.409 65.767 284.109C63.1674 280.578 60.5799 275.402 57.7017 269.542C53.2722 260.516 48.145 249.784 43.6137 241.645C41.6101 238.106 41.5143 233.802 43.3472 230.194C46.2642 224.399 50.541 221.144 55.5694 220.37Z" fill="white"/>
<path fill-rule="evenodd" clip-rule="evenodd" d="M149.692 269.301C136.583 269.361 123.879 272.426 111.423 278.053C110.872 284.406 105.99 288.241 96.7717 289.549C89.7516 289.454 82.7076 287.879 75.6306 284.821C71.2011 283.486 67.5683 276.064 63.0819 266.924C58.6075 257.805 53.4262 246.969 48.829 238.714C47.8107 236.912 47.7598 234.723 48.6972 232.88C51.4375 227.438 55.9329 225.267 61.1741 226.59C62.5308 226.931 63.6779 227.836 64.3218 229.075C65.0915 230.56 66.0827 232.471 66.0827 232.471C71.6892 234.308 77.4065 235.789 83.3634 236.509L84.1003 235.897C83.9385 235.804 83.7858 235.694 83.633 235.601C49.7335 214.305 26.8882 177.209 26.1305 134.769C24.9265 67.5273 79.5929 11.6918 147.814 10.4791L150.546 10.4582C151.091 10.4612 151.639 10.4702 152.184 10.4791C220.408 11.6918 275.074 67.5273 273.87 134.769C273.113 177.209 250.267 214.305 216.368 235.601C216.215 235.694 216.063 235.804 215.901 235.897L216.637 236.509C222.594 235.789 228.312 234.308 233.918 232.471C233.918 232.471 234.91 230.56 235.679 229.075C236.323 227.836 237.47 226.931 238.827 226.59C244.068 225.267 248.563 227.438 251.304 232.88C252.241 234.723 252.19 236.912 251.172 238.714C246.575 246.969 241.393 257.805 236.919 266.924C232.433 276.064 228.8 283.486 224.37 284.821C217.293 287.879 210.249 289.454 203.229 289.549C194.011 288.241 189.129 284.406 188.578 278.053C176.023 272.381 163.217 269.313 150 269.301H149.692ZM67.8887 237.286C67.8887 237.286 71.1711 246.312 72.9351 250.78C75.2202 256.557 81.5874 271.948 81.5874 271.948C83.0789 275.592 86.1098 278.346 78.302 282.441C78.3978 282.715 78.4906 282.984 78.5925 283.345C83.3783 284.908 87.7031 286.383 92.1895 286.302C92.7286 286.019 93.2767 285.825 93.7349 285.633L72.3451 241.65C70.0959 237.023 69.491 236.778 67.8887 237.286ZM232.112 237.286C232.112 237.286 228.83 246.312 227.066 250.78C224.781 256.557 218.414 271.948 218.414 271.948C216.922 275.592 213.891 278.346 221.699 282.441C221.603 282.715 221.51 282.984 221.408 283.345C216.623 284.908 212.298 286.383 207.811 286.302C207.272 286.019 206.724 285.825 206.266 285.633L227.656 241.65C229.905 237.023 230.51 236.778 232.112 237.286ZM203.056 232.337C188.027 224.204 169.069 220.996 150 221.53L149.354 221.515C122.034 220.867 95.0287 227.934 79.5779 246.202C79.2844 248.597 93.3276 275.251 96.2686 279.113C97.5714 280.371 98.0326 280.544 99.1378 280.705C112.091 269.75 131.007 265.111 150 265.374L150.447 265.368C169.291 265.186 188.009 269.833 200.863 280.705C201.968 280.544 202.429 280.371 203.732 279.113C206.673 275.251 220.716 248.597 220.423 246.202C215.727 240.646 209.962 236.13 203.445 232.549C203.34 232.701 203.124 232.937 202.795 233.251C201.935 234.06 200.986 234.813 199.947 235.494C198.899 236.187 197.832 236.736 196.742 237.16L194.032 238.274C193.118 238.549 192.187 238.83 191.252 239.108C190.321 239.398 189.387 239.636 188.449 239.834C188.38 239.851 188.317 239.869 188.258 239.884L187.248 241.387C186.805 242.092 186.374 242.797 185.952 243.51L185.263 244.765C184.762 245.634 184.316 246.53 183.933 247.468C183.547 248.403 183.19 249.335 182.855 250.267L182.849 250.278C182.424 251.452 182.259 252.378 182.349 253.062C182.442 253.749 182.828 254.215 183.514 254.463C183.759 254.553 183.993 254.559 184.208 254.484C184.421 254.409 184.622 254.293 184.805 254.137C184.99 253.982 185.161 253.806 185.314 253.606C185.469 253.403 185.601 253.218 185.709 253.047C185.906 252.767 186.056 252.656 186.161 252.719C186.269 252.778 186.278 252.934 186.188 253.182C185.946 253.725 185.622 254.344 185.218 255.039C184.814 255.735 184.361 256.372 183.858 256.951C183.358 257.528 182.831 257.975 182.283 258.292C181.735 258.609 181.193 258.671 180.653 258.477C180.075 258.268 179.677 257.943 179.461 257.504C179.246 257.065 179.135 256.575 179.129 256.037C179.126 255.499 179.201 254.959 179.348 254.418C179.497 253.875 179.644 253.409 179.785 253.014L179.791 253.011C180.034 252.396 180.312 251.763 180.621 251.094C180.932 250.422 181.235 249.768 181.516 249.117C181.66 248.845 181.726 248.657 181.714 248.558C181.699 248.46 181.507 248.549 181.133 248.809C180.111 249.562 179.102 250.204 178.111 250.753C177.122 251.294 176.059 251.721 174.942 252.041C173.286 252.522 171.591 252.761 169.848 252.752C168.108 252.746 166.359 252.551 164.595 252.175C163.229 251.888 161.845 251.518 160.459 251.052C159.066 250.589 157.641 250.01 156.182 249.326C155.538 249.024 154.978 248.698 154.487 248.364C154.005 248.023 153.612 247.632 153.325 247.175C153.034 246.718 152.843 246.184 152.762 245.571C152.681 244.959 152.744 244.236 152.95 243.4C153.091 242.868 153.292 242.325 153.543 241.769C153.783 241.219 154.059 240.694 154.361 240.195C154.631 239.75 154.849 239.562 155.005 239.616C155.155 239.672 155.161 239.971 155.017 240.497C154.891 240.99 154.855 241.444 154.909 241.862C154.966 242.28 155.143 242.668 155.436 243.035C156.173 243.908 157.057 244.586 158.087 245.07C159.12 245.556 160.159 246.001 161.207 246.402C165.002 247.886 169.198 248.692 173.783 248.824C174.711 248.854 175.625 248.809 176.517 248.689C177.419 248.567 178.29 248.334 179.147 247.988C180.456 247.474 181.552 246.766 182.427 245.861C183.304 244.947 183.526 244.771 184.25 243.561C184.403 243.271 184.574 243.023 184.766 242.817L186.625 240.915C186.943 240.595 187.275 240.282 187.62 239.974C187.56 239.929 187.686 239.75 187.997 239.43C188.401 239.084 188.806 238.729 189.207 238.361C189.611 237.994 190.064 237.695 190.558 237.477C190.977 237.304 191.528 237.083 192.223 236.817C192.831 236.584 195.85 235.515 196.748 235.156C198.548 234.43 200.327 233.633 202.097 232.755L203.056 232.337ZM222.804 280.108C221.756 279.612 220.204 278.767 220.24 276.942C222.543 276.255 225.469 276.123 226.599 279.788C225.472 280.616 223.634 280.499 222.804 280.108ZM77.1968 280.108C78.245 279.612 79.7965 278.767 79.7576 276.942C77.4575 276.255 74.5314 276.123 73.4023 279.788C74.5284 280.616 76.3672 280.499 77.1968 280.108ZM60.4224 229.386C55.1244 227.716 51.1382 231.868 52.2014 236.088L72.0935 277.031C74.0762 274.6 76.0348 274.352 77.9755 274.236L60.4224 229.386ZM239.578 229.386C244.876 227.716 248.863 231.868 247.8 236.088L227.907 277.031C225.925 274.6 223.966 274.352 222.025 274.236L239.578 229.386ZM185.122 266.309C185.236 265.998 185.727 265.451 186.595 264.666C187.464 263.88 187.982 263.519 188.147 263.579C188.686 263.773 189.114 264.212 189.429 264.896C189.74 265.583 189.809 266.171 189.629 266.667C189.465 267.121 189.024 267.611 188.309 268.137C187.59 268.659 187.099 268.874 186.829 268.779C186.703 268.734 186.371 268.331 185.823 267.575C185.634 267.321 185.445 267.067 185.257 266.811C185.116 266.622 185.071 266.452 185.122 266.309ZM109.069 266.819C109.054 266.709 109.264 266.106 109.701 265C110.138 263.898 110.422 263.337 110.554 263.316C110.923 263.256 111.393 263.414 111.968 263.791C112.543 264.191 112.863 264.594 112.929 265.006C113.007 265.484 112.851 266.132 112.468 266.948C112.082 267.742 111.779 268.158 111.564 268.193C111.453 268.208 111.276 268.143 111.03 267.993C110.782 267.844 110.536 267.686 110.288 267.527C110 267.417 109.734 267.309 109.482 267.205C109.231 267.097 109.093 266.969 109.069 266.819ZM106.041 263.128C106.014 262.955 106.239 262.274 106.721 261.085C107.2 259.899 107.506 259.293 107.634 259.272C107.919 259.23 108.362 259.358 108.97 259.663C109.554 259.971 109.97 260.284 110.222 260.601C110.45 260.075 110.689 259.547 110.941 259.018C111.291 258.271 111.51 257.895 111.597 257.88C111.989 257.817 112.504 257.981 113.145 258.37C113.795 258.8 114.154 259.242 114.226 259.699C114.31 260.219 114.118 260.906 113.651 261.757C113.196 262.542 112.848 262.952 112.609 262.99C112.435 263.017 112.136 262.898 111.716 262.632C111.117 262.238 110.626 261.957 110.246 261.796C109.641 263.471 109.09 264.346 108.59 264.427C108.503 264.439 108.06 264.242 107.257 263.836C106.457 263.429 106.05 263.193 106.041 263.128ZM196.233 243.224C196.26 243.2 196.287 243.173 196.314 243.149C196.422 243.047 196.509 242.985 196.575 242.961C196.64 242.94 196.67 242.973 196.661 243.062C196.652 243.155 196.563 243.331 196.398 243.597C195.386 245.291 194.439 247.032 193.556 248.827C191.184 253.645 192.909 250.111 191.687 253.128C191.259 254.305 191.094 255.24 191.184 255.927C191.276 256.611 191.663 257.079 192.349 257.324C192.594 257.414 192.828 257.42 193.041 257.345C193.256 257.271 193.457 257.157 193.639 257.002C193.825 256.847 193.996 256.667 194.152 256.467C194.304 256.264 194.436 256.079 194.544 255.909C194.739 255.628 194.891 255.517 194.996 255.58C195.104 255.643 195.113 255.795 195.023 256.046C194.781 256.587 194.457 257.208 194.053 257.901C193.648 258.597 193.196 259.236 192.693 259.812C192.19 260.389 191.666 260.837 191.118 261.156C190.57 261.47 190.028 261.533 189.488 261.339C188.907 261.13 188.512 260.807 188.296 260.368C188.081 259.926 187.97 259.439 187.967 258.898C187.961 258.361 188.033 257.82 188.183 257.28C188.333 256.739 188.476 256.27 188.62 255.879L188.671 255.831C189.03 254.848 189.593 253.606 190.354 252.106C192.073 248.716 189.518 253.603 192.882 247.202C193.172 246.652 193.526 246.127 193.945 245.622C194.187 245.338 194.484 245.004 194.828 244.627L196.233 243.224ZM124.433 246.04C126.29 245.792 128.09 245.476 129.836 245.087C131.582 244.702 133.301 244.152 134.993 243.439C136.496 242.799 137.946 242.053 139.339 241.202C140.728 240.347 142.064 239.442 143.337 238.484C145.131 237.133 146.808 235.718 148.368 234.236C149.926 232.755 151.525 231.264 153.157 229.762C153.642 229.305 154.13 228.872 154.625 228.463C155.116 228.051 155.646 227.665 156.215 227.31C156.742 226.981 157.116 226.883 157.338 227.014C157.56 227.146 157.569 227.474 157.362 227.997C157.224 228.394 157.077 228.806 156.922 229.233C156.766 229.658 156.583 230.052 156.374 230.419C156.272 230.613 156.158 230.772 156.032 230.891C155.906 231.011 155.742 231.13 155.538 231.252C155.248 231.408 154.843 231.73 154.316 232.211C153.792 232.695 153.124 233.325 152.31 234.096C151.36 235.004 150.414 235.927 149.47 236.865C148.527 237.803 147.566 238.728 146.583 239.639C145.601 240.55 144.604 241.437 143.594 242.295C142.582 243.158 141.534 243.961 140.447 244.711C135.891 247.901 130.806 249.938 125.193 250.825L121.495 251.327C120.465 251.455 119.593 251.5 118.871 251.458C118.081 251.404 117.299 251.318 116.52 251.195C115.744 251.073 114.987 250.882 114.256 250.619C113.972 250.508 113.744 250.422 113.579 250.359C113.411 250.296 113.262 250.264 113.127 250.264C112.995 250.264 112.869 250.317 112.753 250.422C112.636 250.529 112.486 250.712 112.303 250.959C112.139 251.186 111.968 251.446 111.791 251.742C111.615 252.038 111.405 252.393 111.159 252.808C110.692 253.528 110.105 254.072 109.392 254.439C108.682 254.807 107.892 254.926 107.023 254.798C106.544 254.717 106.107 254.63 105.711 254.538C105.319 254.445 104.873 254.46 104.382 254.583C103.93 254.696 103.498 254.854 103.085 255.051C102.669 255.252 102.27 255.538 101.881 255.912C101.297 256.446 100.914 256.691 100.728 256.643C100.542 256.596 100.638 256.219 101.015 255.514C101.444 254.69 101.944 253.89 102.522 253.107C103.103 252.327 103.756 251.623 104.481 250.998C104.852 250.67 105.256 250.368 105.691 250.087C106.125 249.81 106.595 249.651 107.104 249.615C107.523 249.594 107.943 249.636 108.362 249.75C108.781 249.86 109.207 249.938 109.638 249.98C110.114 250.04 110.536 249.986 110.899 249.816C111.261 249.648 111.585 249.397 111.866 249.063C112.193 248.722 112.48 248.364 112.735 247.991C112.986 247.617 113.238 247.244 113.492 246.871C113.858 246.369 114.205 246.031 114.535 245.855C114.864 245.682 115.361 245.664 116.032 245.801C117.548 246.073 118.961 246.234 120.273 246.282C121.585 246.33 122.974 246.249 124.433 246.04ZM188.62 243.062C188.725 242.773 189.213 242.235 190.081 241.449C190.95 240.667 191.468 240.302 191.636 240.362C192.175 240.556 192.6 240.995 192.915 241.682C193.229 242.366 193.295 242.955 193.115 243.451C192.951 243.908 192.513 244.391 191.801 244.905C191.088 245.419 190.597 245.628 190.327 245.529C190.201 245.488 189.866 245.084 189.321 244.329C189.123 244.096 188.931 243.851 188.743 243.594C188.608 243.385 188.569 243.206 188.62 243.062ZM203.379 228.636C205.916 229.714 212.747 233.797 212.088 233.597C212.436 233.379 213.367 232.785 213.723 232.564C246.793 212.008 269.124 175.967 269.857 134.698C271.025 69.633 218.129 15.6105 152.112 14.4367L150 14.4187C149.297 14.4187 148.593 14.4247 147.889 14.4367C81.8719 15.6105 28.9756 69.633 30.1407 134.698C30.8774 175.967 53.2076 212.008 86.2775 232.564C86.6339 232.785 87.4036 233.278 87.754 233.496C87.6821 233.272 94.3548 229.431 95.6246 229.117C94.6812 228.92 93.7528 228.651 92.8483 228.308C89.6557 227.098 86.8524 225.004 84.5284 222.528C84.0163 221.981 83.5221 221.414 83.0549 220.826C82.5787 220.228 82.1265 219.613 81.7102 218.974L81.2311 218.191C80.147 217.854 79.0956 217.429 78.0863 216.904C75.3609 215.485 73.0369 213.379 71.1441 210.978C70.8326 210.581 70.5301 210.175 70.2396 209.759C69.7574 209.072 69.3053 208.361 68.886 207.633C68.5536 207.053 68.2422 206.462 67.9636 205.853L67.4754 204.733C67.679 204.691 67.8766 204.652 68.0803 204.61C66.4001 203.833 64.8189 202.854 63.4173 201.647C61.0873 199.643 59.3113 197.062 58.0205 194.291C57.8078 193.834 57.607 193.368 57.4183 192.899C57.1069 192.119 56.8313 191.325 56.5917 190.518C56.4001 189.879 56.2323 189.231 56.1006 188.577L55.885 187.373L57.3015 187.421C55.0613 185.993 53.0339 184.213 51.4766 182.057C49.6796 179.569 48.5504 176.648 47.9424 173.652C47.8436 173.159 47.7568 172.66 47.6819 172.161C47.5621 171.328 47.4783 170.492 47.4304 169.652C47.3945 168.986 47.3824 168.317 47.4094 167.648L47.4783 166.43C47.8467 166.531 48.218 166.63 48.5864 166.731C49.1944 166.902 49.7933 167.111 50.3833 167.338C50.9044 167.538 51.4226 167.756 51.9317 167.989C51.7341 167.86 51.5394 167.729 51.3477 167.594C50.9314 167.308 50.524 167.009 50.1257 166.698C47.7118 164.817 45.5945 162.508 44.1629 159.79C42.7343 157.075 42.0275 154.025 41.8478 150.973C41.8179 150.471 41.8029 149.966 41.7999 149.462C41.7969 148.619 41.8328 147.78 41.9047 146.944C41.9646 146.278 42.0455 145.615 42.1653 144.954L42.4079 143.757C42.7583 143.909 43.1117 144.058 43.4621 144.211C44.0401 144.465 44.6032 144.757 45.1542 145.065C45.8431 145.447 47.0739 146.215 47.029 146.17C46.6636 145.821 46.3073 145.459 45.9629 145.089C43.8784 142.852 42.1564 140.235 41.174 137.326C40.1947 134.42 39.9849 131.296 40.2904 128.258C40.3413 127.756 40.4072 127.255 40.4851 126.756C40.6168 125.926 40.7846 125.101 40.9912 124.286C41.153 123.638 41.3388 122.995 41.5634 122.365L41.9915 121.221C42.3149 121.424 42.6385 121.63 42.962 121.834C43.4921 122.177 44.0011 122.553 44.4952 122.945C45.1721 123.476 45.8221 124.044 46.448 124.635C46.7026 124.883 46.9572 125.131 47.2057 125.388L47.2386 125.31C46.7595 124.689 46.3043 124.047 45.879 123.387C45.6065 122.963 45.3428 122.529 45.0943 122.09C43.5848 119.432 42.5127 116.49 42.2311 113.435C41.9526 110.379 42.4708 107.294 43.4741 104.408C43.6389 103.931 43.8184 103.459 44.0101 102.99C44.3276 102.213 44.684 101.449 45.0703 100.705C45.3818 100.11 45.7113 99.528 46.0737 98.9665L46.7535 97.951C47.023 98.2258 47.2896 98.4975 47.5562 98.7723C47.9934 99.2263 48.4008 99.7102 48.7931 100.206C48.844 100.269 48.8949 100.334 48.9458 100.4C48.224 97.9988 47.8647 95.4869 48.0384 92.9839C48.251 89.9224 49.2543 86.9595 50.7068 84.2684C50.9464 83.8234 51.198 83.3843 51.4645 82.9542C51.9018 82.2374 52.3749 81.5414 52.8781 80.8664C53.2764 80.3318 53.6958 79.8061 54.145 79.3103L54.9806 78.4172C55.1992 78.7278 55.4207 79.0414 55.6394 79.355C55.9988 79.8747 56.3252 80.4154 56.6307 80.9649L56.6427 80.9859C56.5259 78.6562 56.7415 76.3085 57.4094 74.0684C58.2839 71.1294 59.9133 68.4532 61.9199 66.1414C62.2493 65.7621 62.5937 65.3887 62.9441 65.0243C63.5311 64.421 64.142 63.8446 64.7799 63.295C65.289 62.8589 65.8132 62.4377 66.3583 62.0524L67.3675 61.3595L67.9516 62.7902C68.257 60.9802 68.7811 59.212 69.5688 57.5513C70.8835 54.7766 72.9051 52.3841 75.2382 50.4039C75.6245 50.0783 76.0198 49.7617 76.4241 49.4571C77.095 48.9493 77.7899 48.4714 78.5027 48.0264C79.0717 47.671 79.6527 47.3365 80.2517 47.0378L81.3569 46.5091C81.4467 46.8795 81.5396 47.2498 81.6294 47.6201C81.7732 48.2354 81.878 48.8597 81.9649 49.481C82.0787 50.3322 82.1565 51.1924 82.1924 52.0496C82.2074 52.405 82.2164 52.7604 82.2164 53.1159L82.384 53.0472C82.8632 51.8495 83.4862 50.7115 84.2769 49.6871C84.5045 49.3884 84.75 49.0987 85.0046 48.8239C86.4751 47.2379 88.3351 46.0461 90.3177 45.1978C91.291 44.7827 92.3003 44.4393 93.3305 44.2063L94.5915 43.9493C94.5855 44.3496 94.5765 44.7498 94.5675 45.1501C94.5525 45.6041 94.5105 46.0581 94.4536 46.5091C94.3847 47.0736 94.2859 47.6351 94.1661 48.1907C93.645 50.5502 92.6716 52.8501 91.1112 54.7168C90.078 55.9534 88.8082 56.9719 87.4186 57.7873L87.3975 57.859C87.727 57.8261 88.0536 57.7993 88.383 57.7754C88.8891 57.7425 89.3982 57.7246 89.9073 57.7186C90.117 57.7156 90.1169 57.7156 90.3235 57.7156C91.0603 57.7216 91.7941 57.7485 92.5279 57.8262L93.7438 57.9724C93.6121 58.3577 93.4833 58.743 93.3455 59.1283C93.1179 59.7556 92.8513 60.3709 92.5668 60.9742C92.2254 61.694 91.8511 62.4019 91.4498 63.0889C91.1982 63.522 90.9346 63.9491 90.6561 64.3673C88.946 66.9568 86.7716 69.2835 84.1211 70.9382C83.1478 71.5445 82.1176 72.0553 81.0514 72.4794C80.9526 72.9125 80.8388 73.3426 80.716 73.7697C80.4764 74.5941 80.1978 75.4095 79.8834 76.21C79.7007 76.6759 79.5031 77.1388 79.2964 77.5928C77.9517 80.5259 76.0648 83.2529 73.561 85.3197C72.6805 86.0485 71.7311 86.6907 70.7397 87.2492C70.7338 87.3776 70.7249 87.5031 70.7189 87.6286C70.665 88.4858 70.5721 89.343 70.4403 90.1913C70.3625 90.6871 70.2726 91.1799 70.1678 91.6667C69.4969 94.8238 68.2511 97.8942 66.2594 100.457C65.4688 101.472 64.5733 102.401 63.5999 103.241C63.6688 103.674 63.7227 104.107 63.7646 104.543C63.8515 105.397 63.8964 106.257 63.8994 107.118C63.9023 107.616 63.8935 108.118 63.8696 108.617C63.7108 111.84 62.971 115.068 61.4166 117.912C60.7577 119.121 59.9611 120.248 59.0626 121.293L59.3741 121.956C59.6376 122.529 59.8623 123.121 60.0659 123.718C60.3475 124.531 60.59 125.355 60.7937 126.191C60.9135 126.678 61.0183 127.168 61.1112 127.658C61.7042 130.83 61.7311 134.142 60.8776 137.269C60.5062 138.631 59.973 139.946 59.3201 141.194L59.6887 141.738C60.0391 142.263 60.3534 142.81 60.6529 143.365C61.0572 144.124 61.4287 144.901 61.7641 145.695C61.9588 146.155 62.1415 146.621 62.3092 147.093C63.3994 150.131 63.9533 153.395 63.6089 156.618C63.2944 159.545 62.2612 162.362 60.8236 164.918L60 166.289C60.1228 166.406 60.2426 166.522 60.3624 166.642C60.4433 166.456 60.5212 166.274 60.605 166.095C60.9524 165.331 61.3328 164.581 61.7491 163.849C62.0786 163.267 62.4318 162.696 62.8152 162.15L63.531 161.158C63.7886 161.442 64.0461 161.725 64.3037 162.009C64.723 162.478 65.1124 162.977 65.4867 163.485C65.9959 164.178 66.472 164.897 66.9153 165.635C67.1729 166.062 67.4215 166.498 67.6551 166.943C69.1615 169.796 70.1708 172.95 70.2817 176.191C70.3116 177.033 70.2816 177.872 70.1978 178.708L70.2727 178.529C70.5872 178.744 70.9046 178.959 71.219 179.174C71.7372 179.536 72.2343 179.93 72.7165 180.339C73.3724 180.895 74.0043 181.483 74.6062 182.098C74.9566 182.454 75.2981 182.821 75.6275 183.201C77.7599 185.626 79.476 188.46 80.3385 191.585C80.5003 192.164 80.6291 192.746 80.7339 193.335C81.246 193.547 81.7462 193.786 82.2403 194.04C83.01 194.431 83.7588 194.858 84.4865 195.318C84.9088 195.587 85.3251 195.868 85.7354 196.157C88.317 197.997 90.6022 200.309 92.1595 203.084C92.48 203.66 92.7706 204.249 93.0311 204.855C93.4115 204.966 93.7888 205.088 94.1632 205.219C94.9778 205.5 95.7804 205.823 96.5651 206.181C97.0203 206.387 97.4725 206.608 97.9158 206.841C100.782 208.338 103.408 210.366 105.343 212.97C107.128 215.375 108.293 218.194 108.97 221.094C109.084 221.584 109.183 222.074 109.27 222.567C109.309 222.779 109.341 222.991 109.374 223.203L109.437 223.182C120.447 219.231 131.366 217.495 147.65 217.471C148.431 217.441 149.216 217.421 150 217.412L152.351 217.471C170.605 217.498 182.118 219.676 194.568 224.711C194.418 224.21 194.292 223.702 194.188 223.188C193.711 220.885 193.654 218.46 194.277 216.181C194.9 213.899 196.185 211.838 197.769 210.097C198.476 209.317 199.249 208.589 200.088 207.949L201.127 207.194C201.285 207.561 201.447 207.928 201.606 208.293C201.78 208.714 201.932 209.141 202.07 209.574C202.241 210.118 202.385 210.664 202.507 211.22C202.705 212.128 202.837 213.057 202.888 213.992C203.181 213.824 203.478 213.669 203.78 213.523C203.343 211.283 203.307 208.932 203.915 206.719C204.538 204.44 205.82 202.376 207.404 200.635C208.114 199.855 208.887 199.126 209.725 198.487L210.764 197.731C210.923 198.099 211.082 198.466 211.241 198.834C211.417 199.252 211.57 199.682 211.705 200.115C211.876 200.656 212.022 201.205 212.142 201.761C212.34 202.669 212.471 203.598 212.522 204.529C212.567 204.503 212.615 204.479 212.66 204.452C212.262 202.283 212.25 200.019 212.834 197.884C213.46 195.602 214.742 193.541 216.326 191.8C217.036 191.02 217.805 190.291 218.644 189.652L219.683 188.896L220.33 190.42C220.369 189.984 220.429 189.548 220.516 189.118C220.971 186.797 222.1 184.649 223.553 182.794C224.203 181.967 224.921 181.185 225.709 180.486L226.691 179.658L227.392 181.014C227.383 180.704 227.386 180.39 227.401 180.076C227.515 177.717 228.321 175.426 229.489 173.383C230.01 172.469 230.606 171.591 231.286 170.787L232.136 169.826C232.373 170.148 232.606 170.474 232.843 170.796C233.107 171.167 233.346 171.552 233.574 171.946C233.858 172.436 234.119 172.944 234.358 173.458C234.748 174.303 235.08 175.181 235.332 176.08C235.499 175.928 235.673 175.781 235.847 175.635C234.673 173.843 233.798 171.824 233.493 169.694C233.157 167.353 233.511 164.954 234.272 162.729C234.61 161.731 235.029 160.758 235.544 159.838L236.197 158.733C236.488 159.007 236.781 159.279 237.072 159.554C237.401 159.868 237.713 160.202 238.009 160.546C238.381 160.973 238.734 161.421 239.066 161.881C239.609 162.636 240.1 163.437 240.519 164.273L240.747 163.98C239.321 162.329 238.177 160.408 237.596 158.297C236.97 156.018 237.021 153.592 237.494 151.29C237.707 150.259 238 149.241 238.396 148.264L238.902 147.087C239.228 147.32 239.552 147.556 239.875 147.792C240.241 148.061 240.591 148.353 240.929 148.658C241.355 149.037 241.759 149.435 242.145 149.853C242.292 150.008 242.538 150.286 242.556 150.307C242.556 150.31 242.558 150.31 242.556 150.307C241.864 149.453 241.271 148.524 240.807 147.526C239.815 145.379 239.468 142.977 239.558 140.627C239.597 139.575 239.716 138.524 239.95 137.496L240.255 136.251C240.615 136.43 240.974 136.609 241.334 136.788C241.699 136.977 242.058 137.183 242.409 137.404C242.199 137.144 242.001 136.878 241.816 136.6C240.492 134.641 239.764 132.326 239.474 129.994C239.345 128.948 239.297 127.891 239.36 126.839L239.462 125.561C239.845 125.681 240.228 125.8 240.612 125.919C241.046 126.06 241.468 126.224 241.888 126.403C242.409 126.627 242.921 126.878 243.421 127.15C244.242 127.592 245.032 128.1 245.775 128.67C245.802 128.539 245.832 128.405 245.862 128.273C244.284 127.419 242.837 126.314 241.684 124.94C240.163 123.127 239.198 120.899 238.668 118.608C238.432 117.583 238.273 116.535 238.225 115.484L238.198 114.202C238.59 114.28 238.983 114.361 239.375 114.438C239.734 114.516 240.091 114.608 240.441 114.713C240.351 114.632 240.262 114.552 240.172 114.468C238.45 112.846 237.23 110.746 236.434 108.533C236.077 107.542 235.799 106.52 235.628 105.481L235.449 104.211C235.847 104.244 236.248 104.277 236.647 104.31C237.099 104.352 237.551 104.42 237.997 104.504C238.093 104.522 238.189 104.54 238.282 104.558C238.129 104.459 237.979 104.355 237.83 104.247C235.913 102.858 234.433 100.929 233.361 98.835C232.882 97.8972 232.475 96.9205 232.172 95.9109L231.831 94.6744C232.259 94.6565 232.687 94.6326 233.116 94.6177L234.128 94.6266C233.987 94.5699 233.846 94.5102 233.709 94.4474C231.552 93.4618 229.722 91.8639 228.255 90.021C227.599 89.1966 227.006 88.3185 226.509 87.3896L225.931 86.2456C226.347 86.1411 226.76 86.0336 227.177 85.935C227.65 85.8275 228.503 85.6453 228.503 85.6453C228.189 85.5348 227.877 85.4124 227.572 85.275C225.562 84.3819 223.81 82.9691 222.364 81.3294C221.666 80.5408 221.028 79.6926 220.483 78.7905L219.848 77.6765C220.258 77.5511 220.666 77.4226 221.079 77.3032C221.247 77.2554 221.414 77.2105 221.585 77.1717C219.507 76.2488 217.713 74.7643 216.245 73.0469C215.562 72.2464 214.936 71.3892 214.409 70.4753L213.792 69.3522L214.712 69.0864C212.582 68.1127 210.764 66.5416 209.303 64.7286C208.641 63.9102 208.042 63.0351 207.539 62.1092L206.955 60.9683C207.039 60.9444 207.006 60.9533 207.072 60.9354C205.472 60.111 204.041 58.9671 202.81 57.6648C202.085 56.8972 201.417 56.0728 200.845 55.1887L200.171 54.0955C200.576 53.9582 200.98 53.8148 201.387 53.6834C202.022 53.4833 202.669 53.325 203.322 53.2026C204.316 53.0144 205.326 52.9069 206.335 52.883H207.105C206.751 52.1243 206.458 51.3358 206.218 50.5383C205.916 49.5288 205.688 48.4953 205.574 47.447L205.46 46.1716C205.859 46.2253 206.254 46.2791 206.652 46.3299C207.102 46.3986 207.551 46.4882 207.991 46.5957C208.545 46.7301 209.093 46.8914 209.632 47.0736C210.723 47.447 211.789 47.9189 212.786 48.5043C212.816 47.3783 212.966 46.2552 213.214 45.1591C213.445 44.1316 213.759 43.119 214.173 42.1513L214.706 40.9835C215.026 41.2254 215.344 41.4673 215.664 41.7092C216.023 41.987 216.368 42.2857 216.7 42.5934C217.117 42.9817 217.515 43.3878 217.892 43.812C219.558 45.6728 220.884 47.8919 221.453 50.3351C221.486 50.4815 221.588 50.6846 221.588 50.6846L221.891 50.0813L222.474 49.03C222.774 49.2958 223.074 49.5616 223.373 49.8274C223.709 50.1321 224.029 50.4576 224.337 50.7922C224.721 51.2103 225.086 51.6494 225.43 52.1004C226.808 53.9074 227.883 55.9892 228.348 58.2204L228.98 56.9928C229.285 57.2496 229.593 57.5065 229.899 57.7633C230.246 58.062 230.573 58.3757 230.89 58.7013C231.286 59.1105 231.663 59.5375 232.019 59.9796C233.241 61.4969 234.248 63.2203 234.841 65.0781L235.754 65.8189C236.104 66.1086 236.437 66.4191 236.76 66.7387C237.162 67.139 237.545 67.5602 237.91 67.9962C239.51 69.9138 240.759 72.1748 241.244 74.6359C241.259 74.7046 241.271 74.7733 241.283 74.842L241.528 74.4089C241.825 74.6748 242.124 74.9405 242.421 75.2093C242.756 75.517 243.074 75.8426 243.379 76.1801C243.76 76.6012 244.122 77.0403 244.463 77.4943C245.964 79.4895 247.096 81.8132 247.455 84.2953C247.68 85.8514 247.602 87.4374 247.309 88.9786L247.311 88.9697C247.71 88.3245 248.15 87.7032 248.629 87.1178L249.468 86.1471C249.707 86.4667 249.947 86.7892 250.187 87.1088C250.453 87.4762 250.699 87.8585 250.932 88.2498C251.223 88.7366 251.489 89.2385 251.735 89.7522C252.807 92.0042 253.46 94.5012 253.319 97.0071C253.283 97.6284 253.203 98.2407 253.08 98.847L254.029 97.9928C254.227 98.3423 254.424 98.6887 254.619 99.0381C254.838 99.4384 255.032 99.8476 255.212 100.266C255.437 100.785 255.64 101.317 255.817 101.858C256.596 104.226 256.922 106.786 256.461 109.253C256.332 109.937 256.15 110.609 255.913 111.263L256.401 110.89L257.383 110.2C257.539 110.567 257.692 110.938 257.845 111.305C258.015 111.729 258.162 112.159 258.291 112.592C258.453 113.139 258.59 113.688 258.704 114.244C259.198 116.69 259.219 119.271 258.474 121.666C258.147 122.712 257.683 123.709 257.117 124.644L257.913 124.148L258.962 123.56C259.079 123.945 259.192 124.327 259.306 124.71C259.432 125.146 259.534 125.591 259.618 126.036C259.722 126.594 259.8 127.156 259.854 127.721C260.091 130.203 259.845 132.774 258.854 135.08C258.246 136.493 257.38 137.777 256.35 138.921L256.389 138.9C257.105 138.491 257.851 138.13 258.617 137.828L259.824 137.386C259.878 137.783 259.929 138.18 259.98 138.575C260.034 139.026 260.061 139.48 260.073 139.934C260.088 140.501 260.076 141.069 260.04 141.636C259.875 144.124 259.219 146.621 257.869 148.739C257.015 150.08 255.91 151.242 254.664 152.23C255.35 151.988 256.048 151.785 256.757 151.636L258.021 151.397C258.006 151.797 257.994 152.197 257.979 152.595C257.958 153.049 257.911 153.503 257.848 153.951C257.77 154.512 257.665 155.071 257.536 155.623C256.964 158.052 255.91 160.411 254.23 162.278C252.705 163.977 250.729 165.229 248.626 166.092C248.117 166.301 247.602 166.492 247.075 166.654C247.075 166.845 247.069 167.036 247.063 167.227C248.072 166.722 249.138 166.331 250.226 166.035C251.244 165.761 252.289 165.56 253.34 165.474L254.625 165.393C254.559 165.787 254.496 166.182 254.43 166.579C254.353 167.024 254.251 167.469 254.131 167.905C253.981 168.455 253.808 168.995 253.61 169.527C252.741 171.863 251.396 174.07 249.498 175.716C247.773 177.212 245.652 178.21 243.457 178.804C242.78 178.989 242.088 179.139 241.393 179.243C241.337 179.569 241.271 179.891 241.196 180.214C242.28 179.912 243.403 179.727 244.526 179.643C244.916 179.613 245.308 179.598 245.7 179.592C245.847 179.59 245.994 179.59 246.14 179.59L247.773 179.688L248.968 179.84C248.821 180.244 248.677 180.647 248.524 181.047C248.138 182.027 247.65 182.968 247.096 183.861C245.85 185.859 244.218 187.657 242.19 188.885C240.163 190.112 237.809 190.724 235.458 190.904C235.059 190.933 234.655 190.951 234.254 190.957C234.218 191.056 234.179 191.152 234.14 191.25C234.745 191.172 235.362 191.134 235.973 191.122L237.153 191.143C237.811 191.175 238.47 191.244 239.123 191.349L240.729 191.68L241.885 192.006C241.681 192.382 241.48 192.758 241.271 193.132C240.75 194.046 240.127 194.906 239.447 195.712C237.925 197.507 236.048 199.052 233.864 199.972C232.184 200.676 230.369 200.999 228.548 201.035C229.255 201.095 229.956 201.193 230.651 201.331C231.352 201.471 232.049 201.647 232.729 201.877L233.939 202.313C233.708 202.672 233.481 203.036 233.244 203.391C232.654 204.267 231.974 205.079 231.238 205.832C229.59 207.513 227.605 208.917 225.359 209.676C224.388 210.004 223.385 210.207 222.37 210.306C222.337 210.297 223.304 210.542 223.807 210.712L225.017 211.148C224.787 211.51 224.559 211.871 224.322 212.229C223.732 213.102 223.053 213.914 222.316 214.667C220.666 216.348 218.683 217.752 216.437 218.511C214.191 219.269 211.759 219.362 209.426 219.027C208.934 218.956 208.443 218.869 207.958 218.759C207.88 218.941 207.797 219.117 207.713 219.293L208.707 219.272C209.845 219.284 210.977 219.407 212.094 219.628C212.795 219.768 213.493 219.944 214.173 220.171L215.383 220.607C215.149 220.969 214.924 221.33 214.688 221.689C214.098 222.564 213.418 223.376 212.678 224.129C211.031 225.81 209.045 227.211 206.802 227.973C205.694 228.346 204.544 228.558 203.379 228.636ZM100.171 226.975C97.9427 226.309 95.8073 225.327 93.9235 223.959C91.7462 222.379 89.9553 220.327 88.5237 218.06C86.9544 218.17 85.3939 218.427 83.8725 218.818L83.8186 218.83C84.5194 219.795 85.2921 220.706 86.1187 221.56C86.4242 221.88 86.7417 222.187 87.0621 222.489C89.0957 224.383 91.4736 225.951 94.1211 226.835C95.5677 227.316 97.0741 227.594 98.5896 227.704C98.4698 227.761 99.527 227.268 100.171 226.975ZM199.171 226.542C199.572 226.623 199.974 226.686 200.378 226.736C202.432 226.99 204.568 226.874 206.518 226.145C208.159 225.533 209.626 224.526 210.896 223.331C211.175 223.069 211.444 222.797 211.705 222.516L212.51 221.581C212.16 221.492 211.804 221.417 211.447 221.351C210.54 221.187 209.617 221.097 208.692 221.085C208.629 221.085 208.563 221.085 208.5 221.085C207.856 221.091 207.212 221.136 206.578 221.232C206.236 221.722 205.859 222.191 205.448 222.63C203.888 224.293 201.885 225.503 199.764 226.324L199.171 226.542ZM106.382 224.332C105.658 222.737 104.78 221.211 103.729 219.807C102.687 218.409 101.474 217.137 100.081 216.082C98.4699 214.864 96.637 213.965 94.7233 213.332C93.7379 213.006 92.7285 212.749 91.7102 212.555C90.3865 212.304 89.0418 212.158 87.694 212.11H87.6432C87.6492 212.125 87.6522 212.143 87.6582 212.161C88.1045 213.382 88.6375 214.571 89.2575 215.715C89.7487 216.62 90.2968 217.495 90.9017 218.329C92.0817 219.953 93.4893 221.423 95.1305 222.588C96.64 223.66 98.329 224.463 100.087 225.046C101 225.348 101.932 225.589 102.875 225.778L103.995 225.303C102.851 224.529 101.731 223.72 100.617 222.904C99.3593 221.96 98.1105 221.002 96.9005 219.992C95.6846 218.986 94.4926 217.949 93.3605 216.82L93.3665 216.814C94.8281 217.462 96.2236 218.206 97.5983 218.98C98.9759 219.75 100.321 220.572 101.653 221.405C102.974 222.256 104.289 223.116 105.568 224.027C105.756 224.162 105.945 224.296 106.134 224.431L106.382 224.332ZM199.216 224.589C199.282 224.562 199.348 224.535 199.417 224.508C201.33 223.726 203.133 222.579 204.475 220.99C205.601 219.655 206.386 218.057 206.901 216.399C207.015 216.032 207.117 215.661 207.207 215.291L207.446 214.078L206.266 214.452C205.904 214.58 205.547 214.72 205.194 214.873C203.499 215.611 201.905 216.638 200.663 218.018C199.423 219.398 198.575 221.091 198.024 222.851C198.006 222.916 197.985 222.982 197.964 223.048C198.476 222.447 199.009 221.868 199.551 221.291C200.279 220.542 201.019 219.804 201.807 219.105C202.591 218.4 203.406 217.725 204.304 217.119L204.31 217.125C203.855 218.107 203.316 219.016 202.747 219.9C202.178 220.787 201.567 221.635 200.941 222.471C200.381 223.191 199.815 223.905 199.216 224.589ZM201.088 215.171C201.109 214.252 201.034 213.329 200.884 212.427C200.821 212.047 200.746 211.671 200.657 211.301L200.33 210.109L199.441 210.969C199.177 211.244 198.92 211.531 198.674 211.823C197.488 213.239 196.524 214.87 196.035 216.659C195.547 218.445 195.547 220.339 195.847 222.158C195.904 222.495 196.053 223.125 196.053 223.125C196.062 223.095 196.071 223.063 196.077 223.033C196.685 220.76 197.725 218.567 199.309 216.805C199.839 216.214 200.426 215.679 201.055 215.195L201.088 215.171ZM107.335 222.14C107.092 220.951 106.763 219.78 106.338 218.642C105.73 217.011 104.921 215.449 103.879 214.051C102.678 212.433 101.171 211.053 99.509 209.912C98.6195 209.299 97.6851 208.753 96.7177 208.266C95.5527 207.681 94.3458 207.185 93.1059 206.779L93.0551 206.761C93.0581 206.781 93.058 206.796 93.058 206.814C93.1418 208.114 93.3186 209.404 93.5941 210.676C93.6271 210.832 93.6629 210.987 93.6989 211.139C95.969 211.725 98.1613 212.618 100.126 213.896C100.59 214.198 101.04 214.52 101.471 214.861C102.708 215.838 103.813 216.97 104.789 218.2C105.762 219.428 106.607 220.754 107.335 222.14ZM208.806 217.083C209.207 217.161 209.608 217.223 210.013 217.274C212.067 217.528 214.203 217.412 216.155 216.683C217.793 216.073 219.264 215.064 220.531 213.872C220.809 213.609 221.079 213.335 221.34 213.054L222.145 212.119C221.747 212.017 221.342 211.934 220.935 211.865C220.073 211.716 219.201 211.635 218.327 211.626H218.135C217.491 211.629 216.85 211.677 216.215 211.772C215.871 212.262 215.496 212.728 215.083 213.167C213.523 214.834 211.522 216.044 209.399 216.862C209.204 216.94 209.006 217.011 208.806 217.083ZM83.7828 216.967C84.3129 216.838 85.4959 216.608 85.5977 216.59C83.3336 215.605 81.2101 214.281 79.4251 212.57C77.4844 210.709 75.9929 208.43 74.8877 205.987C74.5313 205.963 74.1751 205.948 73.8217 205.939C73.5701 205.933 73.3184 205.93 73.0698 205.93C72.1534 205.936 71.2399 205.987 70.3264 206.083L70.1199 206.106C70.2067 206.265 70.2935 206.423 70.3804 206.578C71.5005 208.55 72.8633 210.393 74.4775 211.994C75.7534 213.257 77.194 214.368 78.7813 215.216C80.3476 216.053 82.0457 216.62 83.7828 216.967ZM90.066 210.467C89.0627 208.49 87.7659 206.656 86.1277 205.151C84.735 203.866 83.1209 202.833 81.4108 202.02C79.3922 201.065 77.2329 200.402 75.0376 200.007L74.8309 199.975C74.8369 199.989 74.84 200.007 74.843 200.025C75.1155 201.298 75.4779 202.549 75.9361 203.765C76.2985 204.73 76.7208 205.67 77.206 206.578C78.1224 208.302 79.2754 209.909 80.686 211.262C82.0996 212.615 83.7528 213.702 85.5138 214.553C85.984 214.78 86.4632 214.989 86.9484 215.186C86.6789 214.61 86.4273 214.028 86.1937 213.436C85.984 212.896 85.6395 211.859 85.6515 211.892C84.7231 210.963 83.8066 210.019 82.9201 209.046C81.854 207.884 80.8148 206.692 79.8505 205.422L79.8563 205.414C81.213 206.259 82.495 207.185 83.7499 208.141C84.6753 208.839 85.5766 209.562 86.4691 210.297L87.17 210.285C88.1373 210.294 89.1046 210.357 90.066 210.467ZM209.126 215.016C211.013 214.234 212.786 213.096 214.11 211.528C215.236 210.195 216.02 208.597 216.539 206.937C216.652 206.572 216.751 206.202 216.841 205.829L217.084 204.619L215.901 204.989C215.541 205.118 215.182 205.258 214.831 205.411C213.136 206.148 211.54 207.176 210.3 208.556C209.378 209.58 208.671 210.781 208.144 212.05L209.135 211.883L209.186 211.832C209.914 211.08 210.654 210.342 211.444 209.643C212.229 208.941 213.044 208.263 213.939 207.657L213.948 207.663C213.493 208.645 212.951 209.553 212.382 210.437C211.816 211.327 211.202 212.176 210.576 213.009C210.121 213.597 209.659 214.18 209.18 214.747C209.162 214.837 209.144 214.927 209.126 215.016ZM205.993 212.624C206.622 210.694 207.584 208.857 208.944 207.343C209.486 206.743 210.082 206.199 210.723 205.709C210.744 204.789 210.669 203.869 210.519 202.964C210.459 202.585 210.381 202.212 210.294 201.838L209.965 200.65L209.078 201.507C208.812 201.785 208.554 202.068 208.309 202.364C207.123 203.777 206.158 205.411 205.67 207.197C205.182 208.986 205.182 210.876 205.481 212.698L205.499 212.797L205.993 212.624ZM91.2101 205.237C90.9705 204.706 90.701 204.186 90.4045 203.681C89.4162 202.003 88.1254 200.512 86.6698 199.219C84.9627 197.702 83.0279 196.441 80.9794 195.438L80.9315 195.417C80.9285 195.435 80.9285 195.453 80.9255 195.47C80.8266 196.809 80.8268 198.156 80.9346 199.497C80.9436 199.61 80.9554 199.727 80.9644 199.84C83.5311 200.892 85.9331 202.364 87.8947 204.326C89.3413 205.772 90.5302 207.453 91.4856 209.255L91.294 207.633C91.2341 206.967 91.2101 205.237 91.2101 205.237ZM218 208.299C218.309 208.353 218.623 208.4 218.935 208.439C220.989 208.693 223.124 208.577 225.077 207.848C226.715 207.239 228.186 206.229 229.453 205.037C229.731 204.774 230.001 204.5 230.261 204.219L231.067 203.284C230.669 203.182 230.264 203.099 229.857 203.03C228.995 202.881 228.123 202.8 227.249 202.791C227.186 202.791 227.12 202.791 227.057 202.791C226.413 202.794 225.772 202.842 225.137 202.934C224.793 203.427 224.418 203.893 224.005 204.332C222.445 205.999 220.444 207.209 218.321 208.027C218.234 208.06 218.147 208.096 218.06 208.126C218.039 208.182 218.018 208.239 218 208.299ZM218.647 202.445C219.204 201.883 219.77 201.334 220.366 200.808C221.148 200.106 221.962 199.428 222.861 198.822L222.87 198.828C222.412 199.81 221.873 200.718 221.304 201.602C220.737 202.489 220.124 203.338 219.498 204.174C219.288 204.443 219.081 204.709 218.869 204.974C218.818 205.285 218.758 205.59 218.692 205.897C220.336 205.133 221.861 204.081 223.032 202.693C224.158 201.357 224.942 199.763 225.46 198.102C225.571 197.734 225.673 197.367 225.763 196.994L226.003 195.784L224.823 196.154C224.46 196.283 224.104 196.423 223.753 196.576C222.055 197.313 220.462 198.341 219.222 199.721C218.425 200.605 217.793 201.617 217.293 202.693L218.647 202.445ZM72.354 204.126C69.7484 202.463 67.4005 200.336 65.7143 197.731C64.2558 195.476 63.3245 192.917 62.8093 190.285C61.3568 189.84 59.8593 189.527 58.3499 189.341L58.1431 189.318C58.1491 189.333 58.1521 189.35 58.1581 189.368C58.4965 190.623 58.9309 191.853 59.455 193.045C59.8683 193.986 60.3415 194.903 60.8746 195.784C61.8839 197.454 63.1237 198.995 64.6062 200.27C66.0528 201.516 67.7149 202.492 69.4669 203.239C70.2846 203.586 72.0217 204.138 72.0217 204.138C72.1325 204.132 72.2432 204.129 72.354 204.126ZM215.059 203.365C215.688 201.59 216.604 199.912 217.865 198.508C218.404 197.908 219.004 197.364 219.644 196.874C219.665 195.954 219.59 195.034 219.441 194.129C219.378 193.75 219.303 193.377 219.216 193.003L218.887 191.812L218 192.672C217.734 192.95 217.476 193.233 217.23 193.526C216.044 194.942 215.08 196.573 214.592 198.362C214.122 200.076 214.104 201.886 214.367 203.636L215.059 203.365ZM76.6398 198.481C76.556 198.111 76.4662 197.746 76.3644 197.382C75.8942 195.706 75.2233 194.082 74.3068 192.597C73.2436 190.883 71.8599 189.383 70.3025 188.105C69.4669 187.421 68.5805 186.797 67.6611 186.229C66.55 185.548 65.3879 184.951 64.1869 184.44L64.139 184.422C64.139 184.44 64.139 184.455 64.139 184.473C64.109 185.775 64.1749 187.075 64.3426 188.365C64.4744 189.386 64.6692 190.399 64.9298 191.393C65.4449 193.332 66.2265 195.211 67.3346 196.886C68.3858 198.469 69.7096 199.858 71.1861 201.053C71.9798 201.698 73.6718 202.761 73.6718 202.761C73.5011 202.209 73.3514 201.65 73.2166 201.089C73.1477 200.799 73.0818 200.506 73.022 200.214C72.7943 199.861 72.5668 199.506 72.3392 199.153C71.5096 197.821 70.6919 196.477 69.9252 195.1C69.1555 193.726 68.4188 192.328 67.7719 190.871L67.7779 190.865C68.904 192 69.9403 193.192 70.9436 194.407C71.9169 195.581 72.8423 196.785 73.7528 198L72.6836 197.908L73.8275 198.006C74.4565 198.066 75.0825 198.165 75.7025 198.284C76.0169 198.344 76.3284 198.409 76.6398 198.481ZM227.185 198.684L227.021 199.18C227.138 199.189 227.251 199.195 227.368 199.201C229.435 199.305 231.555 199.037 233.448 198.168C235.038 197.442 236.431 196.328 237.608 195.046C237.869 194.766 238.117 194.473 238.357 194.174L239.093 193.183C238.249 193.033 237.395 192.959 236.542 192.938C236.392 192.935 236.242 192.935 236.093 192.935C235.104 192.947 234.113 193.048 233.151 193.263C232.843 193.777 232.505 194.273 232.127 194.739C230.803 196.372 229.081 197.648 227.21 198.601L227.185 198.684ZM79.1315 195.085C79.0357 194.067 78.856 193.054 78.5835 192.068C78.0354 190.076 77.0951 188.21 75.9211 186.516C75.3341 185.668 74.6872 184.861 73.9953 184.1C73.1208 183.135 72.1744 182.236 71.1651 181.412L71.1233 181.379C71.1173 181.397 71.1111 181.415 71.1052 181.429C70.7128 182.669 70.4135 183.938 70.2098 185.223C70.1859 185.381 70.1619 185.536 70.1409 185.695C72.3961 187.304 74.3966 189.285 75.8551 191.644C77.2447 193.887 78.1223 196.414 78.6045 199.001C78.7662 199.052 78.925 199.099 79.0867 199.153C79.0718 198.953 79.0626 198.756 79.0537 198.556C79.0207 197.716 79.0238 196.874 79.0657 196.038C79.0807 195.718 79.1016 195.402 79.1315 195.085ZM227.961 194.73L227.785 196.178C229.033 195.375 230.16 194.377 231.034 193.174C232.061 191.761 232.726 190.112 233.122 188.419C233.208 188.045 233.283 187.672 233.343 187.293L233.496 186.068L232.346 186.525C231.995 186.677 231.648 186.844 231.307 187.021C229.671 187.878 228.153 189.019 227.018 190.485C226.167 191.582 225.55 192.833 225.116 194.147C225.443 194.049 225.775 193.959 226.104 193.881L226.146 193.834C226.817 193.033 227.503 192.242 228.24 191.486C228.968 190.73 229.731 189.996 230.585 189.327L230.591 189.333C230.207 190.345 229.734 191.289 229.231 192.212C228.839 192.938 228.417 193.642 227.982 194.335L227.961 194.73ZM223.005 194.921C223.487 192.929 224.316 191.002 225.577 189.374C226.065 188.747 226.61 188.171 227.2 187.642L227.23 187.615C227.189 186.698 227.045 185.784 226.829 184.891C226.739 184.521 226.637 184.15 226.521 183.786L226.107 182.624C226.104 182.627 226.104 182.627 226.101 182.63C225.82 182.926 225.547 183.23 225.284 183.544C225.041 183.84 224.805 184.141 224.58 184.452C223.502 185.951 222.66 187.648 222.301 189.464C221.944 191.283 222.082 193.174 222.517 194.966C222.529 195.019 222.54 195.07 222.555 195.124C222.702 195.055 222.852 194.987 223.005 194.921ZM160.18 175.226C168.242 178.168 176.865 179.497 185.547 179.076C175.35 182.379 164.915 182.77 155.128 180.716L155.047 182.729L150 189.655L144.954 182.729L144.873 180.716C135.086 182.77 124.648 182.379 114.454 179.076C123.133 179.497 131.758 178.168 139.821 175.226C126.616 168.329 115.999 156.472 111.025 141.218C103.654 118.614 110.623 93.8053 128.698 78.3037C109.057 107.279 116.128 146.415 144.304 166.812L142.346 118.512V80.5169C145.397 79.0564 148.033 76.8491 150 74.1042C151.968 76.8491 154.604 79.0564 157.652 80.5169V118.512L155.697 166.812C183.87 146.415 190.944 107.279 171.303 78.3037C189.378 93.8053 196.347 118.614 188.976 141.218C184.002 156.472 173.385 168.329 160.18 175.226ZM234.823 189.123C235.101 189.112 235.377 189.091 235.652 189.064C237.713 188.87 239.77 188.293 241.519 187.161C242.987 186.211 244.2 184.909 245.179 183.469C245.395 183.153 245.598 182.83 245.793 182.499L246.377 181.412C246.203 181.406 246.033 181.406 245.859 181.406C245.515 181.409 245.17 181.418 244.826 181.441C243.358 181.537 241.885 181.821 240.51 182.349L240.495 182.385C240.27 182.926 240.01 183.454 239.71 183.959C238.548 185.922 236.856 187.537 234.963 188.795L234.892 188.843C234.871 188.935 234.847 189.031 234.823 189.123ZM53.5339 170.868C53.3782 170.775 53.2196 170.686 53.0609 170.596C51.8479 169.918 50.578 169.339 49.2722 168.861L49.2212 168.843C49.2212 168.861 49.2214 168.879 49.2243 168.897C49.2603 170.196 49.3951 171.492 49.6287 172.771C49.8114 173.783 50.057 174.787 50.3685 175.766C50.9644 177.624 51.8089 179.41 52.9559 180.996C54.07 182.54 55.4598 183.876 56.9902 185.008C57.9037 185.683 58.871 186.289 59.8713 186.827C59.7575 186.71 59.6407 186.591 59.5269 186.474C57.4095 184.264 55.6454 181.674 54.6241 178.78C53.7286 176.25 53.4201 173.544 53.5339 170.868ZM65.0524 182.836C65.1752 180.288 64.8907 177.711 64.0132 175.306C63.3454 173.478 62.3451 171.779 61.1501 170.244C59.7455 168.446 58.0714 166.857 56.2355 165.501L56.1934 165.471C56.1904 165.486 56.1844 165.504 56.1784 165.522C55.849 166.779 55.6125 168.06 55.4717 169.354C55.3639 170.375 55.316 171.406 55.34 172.436C55.3849 174.384 55.6903 176.337 56.3402 178.177C56.9931 180.02 57.9814 181.731 59.1704 183.278C59.7724 184.061 60.4253 184.802 61.1201 185.503C61.5214 185.907 61.9318 186.295 62.3571 186.671L62.3271 186.017C61.7551 184.592 61.24 183.147 60.7368 181.698C60.2367 180.208 59.7575 178.714 59.3322 177.197C58.9039 175.683 58.5116 174.154 58.2241 172.585L58.2301 172.582C59.0627 173.944 59.7933 175.345 60.4822 176.761C61.18 178.174 61.8209 179.607 62.4408 181.05C62.5786 181.376 62.7135 181.701 62.8483 182.027L63.6149 182.278C64.1001 182.442 64.5792 182.63 65.0524 182.836ZM235.371 184.876L235.305 186.283C236.557 185.25 237.647 184.01 238.402 182.57C239.21 181.023 239.629 179.294 239.773 177.561C239.806 177.182 239.824 176.797 239.83 176.415L239.8 175.184L238.731 175.799C238.405 176.002 238.087 176.217 237.776 176.444C236.281 177.529 234.945 178.876 234.035 180.492C233.349 181.71 232.918 183.054 232.681 184.431L233.535 184.141L233.661 183.929C234.206 183.039 234.772 182.158 235.389 181.304C236.003 180.45 236.65 179.613 237.395 178.828L237.401 178.831C237.171 179.888 236.841 180.892 236.476 181.88C236.143 182.797 235.763 183.69 235.365 184.578L235.371 184.876ZM230.729 185.279C230.932 183.296 231.468 181.34 232.448 179.602C232.846 178.897 233.31 178.237 233.831 177.621C233.652 176.719 233.379 175.835 233.035 174.984C232.894 174.628 232.738 174.279 232.57 173.936L231.992 172.845L231.31 173.873C231.112 174.201 230.923 174.536 230.747 174.876C229.896 176.513 229.309 178.314 229.222 180.163C229.132 182.003 229.54 183.84 230.219 185.542L230.729 185.279ZM67.1189 183.828C67.4124 183.042 67.6671 182.239 67.8708 181.426C68.311 179.685 68.5355 177.884 68.4546 176.086C68.3678 174.13 67.9156 172.2 67.2178 170.375C66.3882 168.198 65.2201 166.155 63.8215 164.294L63.6957 164.13C63.6867 164.145 63.6778 164.16 63.6688 164.175C62.998 165.289 62.4079 166.454 61.9107 167.654C61.8508 167.801 61.791 167.95 61.7341 168.099C63.5521 170.187 65.0346 172.577 65.9061 175.211C66.8046 177.926 67.0411 180.829 66.8224 183.673C66.7835 183.652 66.9842 183.756 67.1189 183.828ZM242.112 177.263C242.514 177.179 242.909 177.078 243.301 176.961C245.287 176.382 247.198 175.426 248.698 173.986C249.959 172.777 250.905 171.268 251.594 169.67C251.744 169.321 251.882 168.962 252.01 168.601L252.376 167.424L251.163 167.669C250.792 167.759 250.42 167.863 250.055 167.977C248.917 168.335 247.809 168.822 246.793 169.452C246.674 170.038 246.515 170.617 246.314 171.185C245.547 173.329 244.191 175.235 242.573 176.827C242.421 176.976 242.271 177.122 242.112 177.263ZM240.112 173.022C240.196 172.78 240.282 172.538 240.369 172.296C240.738 171.319 241.124 170.345 241.567 169.393C242.007 168.437 242.487 167.493 243.068 166.582L243.077 166.585C243.05 167.666 242.915 168.715 242.744 169.751C242.579 170.79 242.355 171.812 242.115 172.827C241.951 173.467 241.783 174.103 241.597 174.736L241.627 175.199C243.026 173.741 244.182 172.009 244.766 170.065C245.269 168.395 245.35 166.618 245.164 164.889C245.122 164.509 245.068 164.13 244.999 163.753L244.739 162.547L243.804 163.356C243.523 163.616 243.25 163.888 242.99 164.169C241.726 165.516 240.672 167.09 240.085 168.849C239.608 170.277 239.45 171.791 239.513 173.293L240.172 172.998L240.112 173.022ZM237.755 174.267C237.566 172.254 237.716 170.196 238.357 168.273C238.614 167.508 238.947 166.773 239.339 166.068C238.992 165.217 238.554 164.402 238.057 163.631C237.85 163.308 237.632 162.992 237.401 162.687L236.626 161.725L236.152 162.866C236.021 163.225 235.898 163.586 235.79 163.954C235.266 165.722 235.032 167.603 235.296 169.437C235.559 171.268 236.314 173.004 237.314 174.554L237.755 174.267ZM190.207 167.618C190.171 167.669 190.135 167.72 190.099 167.762C213.783 154.112 221.888 123.906 208.195 100.296C201.48 88.7158 190.354 80.3437 177.338 77.0971C205.967 98.5513 211.729 139.082 190.207 167.618ZM91.8031 100.296C78.1133 123.906 86.2177 154.112 109.901 167.762C109.866 167.72 109.83 167.669 109.794 167.618C88.2721 139.082 94.0314 98.5513 122.66 77.0971C109.647 80.3437 98.5177 88.7158 91.8031 100.296ZM56.1815 163.264C56.5469 163.491 57.1938 163.948 57.1639 163.93C57.9336 160.928 58.1672 157.744 57.4904 154.703C57.089 152.905 56.3822 151.182 55.4778 149.581C54.3547 147.598 52.932 145.782 51.3177 144.175L51.1709 144.029C51.1649 144.046 51.1561 144.061 51.1501 144.079C50.6469 145.277 50.2307 146.514 49.9102 147.774C49.6556 148.772 49.4639 149.784 49.3412 150.806C49.1135 152.741 49.1405 154.718 49.5269 156.633C49.9102 158.547 50.6468 160.381 51.6082 162.081C52.1143 162.977 52.6835 163.837 53.3034 164.661C53.5999 165.056 53.9083 165.441 54.2287 165.82L54.3605 165.286C53.9892 163.777 53.6778 162.257 53.3813 160.734C53.0968 159.19 52.8302 157.642 52.6265 156.08C52.4139 154.521 52.2431 152.95 52.1772 151.358L52.1864 151.355C52.8183 152.822 53.3423 154.309 53.8275 155.809C54.3187 157.305 54.747 158.816 55.1603 160.331C55.3969 161.239 55.6275 162.147 55.8461 163.058L56.1815 163.264ZM47.7777 149.002C46.5887 148.052 45.31 147.216 43.9743 146.49L43.7915 146.391C43.7915 146.409 43.7884 146.427 43.7854 146.445C43.6357 147.78 43.5878 149.127 43.6447 150.471C43.6866 151.454 43.7885 152.436 43.9533 153.407C44.2887 155.384 44.8997 157.323 45.8551 159.094C46.7326 160.722 47.8887 162.188 49.2064 163.485C50.0151 164.282 50.8864 165.017 51.8029 165.689C51.704 165.557 51.6053 165.426 51.5095 165.292C49.7245 162.81 48.3468 159.996 47.7419 156.988C47.2118 154.357 47.2895 151.636 47.7777 149.002ZM247.099 164.733C247.485 164.599 247.866 164.449 248.237 164.285C250.136 163.461 251.915 162.278 253.221 160.662C254.32 159.303 255.068 157.69 255.55 156.021C255.655 155.653 255.751 155.28 255.832 154.907L256.048 153.691L254.874 154.088C254.514 154.223 254.161 154.372 253.81 154.53C252.729 155.029 251.69 155.647 250.762 156.4C250.72 156.997 250.633 157.592 250.504 158.177C250.013 160.402 248.905 162.463 247.5 164.243C247.368 164.408 247.237 164.572 247.099 164.733ZM58.844 164.709C59.4699 163.67 60.0241 162.586 60.4853 161.463C61.1651 159.802 61.6412 158.049 61.8149 156.26C62.0036 154.309 61.8269 152.338 61.3956 150.429C60.8805 148.159 60.009 145.97 58.8889 143.933L58.7871 143.754C58.7751 143.766 58.7632 143.781 58.7542 143.793C57.9336 144.805 57.1849 145.871 56.523 146.994C56.4421 147.132 56.3642 147.269 56.2863 147.407C57.7927 149.73 58.9248 152.305 59.413 155.032C59.9431 157.977 59.7306 161.018 59.0417 163.921C58.9789 164.184 58.9128 164.446 58.844 164.709ZM242.376 162.203C241.954 160.262 241.855 158.237 242.244 156.283C242.403 155.492 242.639 154.718 242.942 153.972C242.49 153.171 241.957 152.416 241.367 151.714C241.118 151.418 240.86 151.134 240.597 150.859L239.704 149.999L239.381 151.191C239.291 151.564 239.216 151.941 239.156 152.317C238.857 154.136 238.86 156.03 239.351 157.816C239.839 159.587 240.795 161.203 241.966 162.607L242.376 162.203ZM246.584 162.43C247.68 160.886 248.512 159.136 248.827 157.263C249.117 155.54 248.974 153.769 248.572 152.078C248.483 151.705 248.381 151.334 248.267 150.97L247.857 149.805L247.03 150.725C246.784 151.018 246.551 151.319 246.323 151.63C245.242 153.126 244.394 154.82 244.032 156.636C243.753 158.019 243.765 159.443 243.975 160.838L244.673 160.34C244.697 160.235 244.721 160.127 244.745 160.023C244.987 159.007 245.248 157.995 245.571 156.994C245.886 155.991 246.242 154.993 246.706 154.016L246.716 154.019C246.823 155.095 246.823 156.152 246.784 157.2C246.751 158.252 246.656 159.294 246.545 160.331C246.491 160.758 246.434 161.188 246.371 161.612L246.584 162.43ZM251.238 152.326C251.594 152.129 251.945 151.92 252.289 151.699C254.023 150.576 255.583 149.115 256.608 147.308C257.47 145.791 257.943 144.076 258.147 142.35C258.189 141.968 258.222 141.585 258.24 141.203L258.252 139.969L257.162 140.552C256.829 140.746 256.503 140.949 256.185 141.164C255.2 141.833 254.275 142.613 253.484 143.506C253.538 144.103 253.553 144.701 253.52 145.301C253.4 147.577 252.645 149.787 251.552 151.776C251.451 151.962 251.346 152.144 251.238 152.326ZM242.945 150.767C243.277 151.179 243.595 151.603 243.888 152.042C243.924 151.982 243.96 151.92 243.996 151.86C243.628 151.514 243.277 151.149 242.945 150.767ZM248.222 147.03C248.282 146.334 248.357 145.635 248.459 144.937C248.608 143.897 248.794 142.855 249.093 141.815C249.378 142.858 249.558 143.903 249.689 144.946C249.83 145.988 249.908 147.03 249.968 148.073C249.998 148.87 250.022 149.668 250.016 150.465C250.037 150.534 250.058 150.603 250.079 150.674L250.112 150.609C251.073 148.784 251.714 146.747 251.717 144.671C251.72 142.926 251.289 141.2 250.615 139.599C250.465 139.244 250.306 138.897 250.133 138.554L249.537 137.472L248.872 138.515C248.68 138.846 248.495 139.181 248.324 139.524C247.5 141.176 246.943 142.986 246.883 144.838C246.85 145.868 246.97 146.896 247.21 147.896C247.294 147.819 248.222 147.03 248.222 147.03ZM245.745 149.429C245.269 147.926 245.011 146.355 245.062 144.778C245.089 143.972 245.197 143.171 245.371 142.386C244.796 141.669 244.143 141.009 243.445 140.415C243.154 140.164 242.852 139.925 242.544 139.698L241.528 138.996L241.399 140.223C241.376 140.606 241.363 140.988 241.363 141.37C241.366 143.216 241.681 145.083 242.46 146.764C243.08 148.103 243.978 149.291 245.026 150.328L245.745 149.429ZM54.8848 144.506C55.1424 144.202 55.3909 143.894 55.6335 143.578C57.3257 141.376 58.6614 138.864 59.2843 136.149C59.6946 134.354 59.7964 132.493 59.6676 130.66C59.5059 128.387 59.0027 126.141 58.236 123.999L58.1641 123.805C58.1522 123.817 58.1372 123.829 58.1252 123.841C57.1519 124.707 56.2445 125.645 55.4149 126.648C55.3131 126.771 55.2142 126.893 55.1124 127.019C56.2325 129.548 56.9393 132.269 56.9902 135.041C57.0441 138.031 56.3492 141.003 55.2082 143.757C55.1063 144.008 54.9986 144.259 54.8848 144.506ZM42.9409 124.041L42.9259 124.092C42.5755 125.343 42.321 126.621 42.1622 127.912C42.0364 128.933 41.9736 129.964 41.9825 130.991C42.0005 132.942 42.2761 134.898 42.902 136.75C43.5249 138.601 44.4863 140.328 45.6543 141.89C46.2713 142.717 46.9452 143.5 47.664 144.238C47.6999 144.276 47.7687 144.342 47.7687 144.342C47.6969 144.202 47.6251 144.061 47.5532 143.921C46.1875 141.188 45.271 138.192 45.1542 135.128C45.0494 132.446 45.5585 129.769 46.457 127.249C45.4327 126.126 44.3066 125.092 43.1056 124.166L42.9409 124.041ZM53.2974 143.601C53.7796 142.511 54.1839 141.385 54.4923 140.235C54.9625 138.503 55.2172 136.705 55.1663 134.91C55.1094 132.95 54.69 131.015 54.0222 129.175C53.6688 128.201 53.2465 127.255 52.7673 126.335C52.1473 125.143 51.4315 123.999 50.6319 122.918L50.6019 122.873C50.5899 122.888 50.5811 122.903 50.5721 122.918C49.8593 124.059 49.2363 125.253 48.7092 126.49C48.3019 127.443 47.9544 128.422 47.6759 129.42C47.1548 131.305 46.8822 133.267 46.9811 135.223C47.0739 137.117 47.5023 138.987 48.1612 140.764C48.5146 141.714 48.9307 142.64 49.4009 143.539L50.0509 142.126L50.2096 141.824C50.1767 141.122 50.1497 140.418 50.1257 139.716C50.0928 138.145 50.0749 136.576 50.1228 135.002C50.1617 133.428 50.2396 131.851 50.4282 130.268H50.4372C50.8295 131.813 51.108 133.369 51.3506 134.925C51.5962 136.478 51.782 138.037 51.9467 139.599C52.0396 140.564 52.1264 141.529 52.1982 142.493L53.2974 143.601ZM252.882 139.674C253.205 139.426 253.517 139.163 253.819 138.888C255.353 137.505 256.659 135.815 257.38 133.867C257.985 132.231 258.18 130.462 258.102 128.727C258.084 128.345 258.054 127.962 258.009 127.583L257.827 126.362L256.841 127.111C256.545 127.353 256.257 127.607 255.976 127.87C255.11 128.685 254.323 129.602 253.685 130.612C253.834 131.191 253.945 131.78 254.008 132.38C254.257 134.644 253.867 136.947 253.104 139.082C253.035 139.282 252.96 139.48 252.882 139.674ZM247.114 137.923C246.341 136.451 245.79 134.862 245.577 133.21C245.473 132.41 245.449 131.603 245.497 130.8C244.814 130.185 244.062 129.638 243.277 129.16C242.951 128.96 242.615 128.772 242.274 128.596L241.157 128.067L241.229 129.298C241.265 129.68 241.316 130.059 241.378 130.439C241.678 132.257 242.289 134.05 243.325 135.588C244.197 136.878 245.353 137.956 246.635 138.837L247.114 137.923ZM251.124 136.585C251.319 136.911 251.504 137.246 251.681 137.583C252.205 135.791 252.427 133.894 252.127 132.045C251.852 130.322 251.148 128.685 250.226 127.213C250.022 126.887 249.809 126.571 249.582 126.26L248.821 125.286L248.333 126.421C248.195 126.777 248.066 127.138 247.952 127.505C247.404 129.265 247.144 131.14 247.383 132.98C247.521 134.065 247.835 135.116 248.267 136.119L249.069 135.113C249.01 134.354 248.965 133.593 248.956 132.825C248.932 131.777 248.95 130.719 249.079 129.644H249.088C249.534 130.627 249.872 131.63 250.172 132.637C250.477 133.643 250.72 134.662 250.944 135.68C251.007 135.982 251.067 136.281 251.124 136.585ZM253.011 126.854C253.304 126.574 253.589 126.278 253.861 125.976C255.242 124.441 256.365 122.625 256.88 120.615C257.315 118.924 257.323 117.144 257.063 115.427C257.009 115.047 256.937 114.671 256.853 114.298L256.545 113.103L255.643 113.948C255.374 114.22 255.113 114.504 254.862 114.794C254.083 115.696 253.397 116.69 252.867 117.759C253.077 118.318 253.247 118.895 253.373 119.48C253.855 121.708 253.706 124.041 253.17 126.242C253.122 126.448 253.068 126.651 253.011 126.854ZM246.826 125.292C246.033 124.02 245.419 122.64 245.071 121.182C244.889 120.409 244.784 119.62 244.745 118.832L244.742 118.79C243.999 118.249 243.196 117.783 242.367 117.389C242.019 117.225 241.666 117.073 241.31 116.932L240.142 116.52L240.342 117.739C240.417 118.112 240.507 118.485 240.609 118.856C241.097 120.633 241.888 122.353 243.08 123.775C243.999 124.871 245.137 125.764 246.374 126.478L246.826 125.292ZM247.473 112.975C247.338 113.36 247.216 113.748 247.108 114.142C247.006 114.51 246.919 114.883 246.844 115.26C246.482 117.067 246.416 118.96 246.844 120.764C247.057 121.654 247.386 122.512 247.8 123.327L248.432 122.288L248.719 122.562C248.59 121.863 248.477 121.158 248.393 120.448C248.264 119.405 248.171 118.351 248.186 117.27L248.192 117.267C248.74 118.202 249.18 119.163 249.582 120.134C249.992 121.105 250.339 122.09 250.669 123.082C250.941 123.948 251.208 124.82 251.43 125.701C251.444 125.633 251.459 125.564 251.477 125.492C251.924 123.479 252.008 121.347 251.468 119.342C251.013 117.658 250.145 116.105 249.073 114.734C248.836 114.432 248.59 114.137 248.336 113.853L247.476 112.963L247.473 112.975ZM61.9288 104.498C61.9288 104.498 60.3534 105.606 59.5209 106.066C59.0896 106.305 58.6522 106.535 58.206 106.75C58.6852 109.426 58.7332 112.189 58.1492 114.85C57.5082 117.771 56.1455 120.501 54.3995 122.921C54.2407 123.142 54.0761 123.36 53.9114 123.575C54.2319 123.339 54.5463 123.097 54.8548 122.843C57.0082 121.09 58.889 118.954 60.1259 116.454C60.9405 114.803 61.4705 113.019 61.77 111.204C62.1324 108.99 62.1684 106.726 61.9288 104.498ZM52.5097 122.413L52.5307 122.386C54.4535 119.865 55.945 116.953 56.4991 113.814C56.8255 111.95 56.8254 110.039 56.5828 108.166C56.2983 105.956 55.6874 103.787 54.8309 101.732L54.7499 101.541C54.7379 101.553 54.7259 101.565 54.711 101.577C53.7855 102.494 52.929 103.477 52.1504 104.519C51.5334 105.346 50.9673 106.21 50.4611 107.106C49.5088 108.808 48.7781 110.645 48.3977 112.562C48.0204 114.477 47.9994 116.451 48.236 118.387C48.3588 119.408 48.5565 120.421 48.811 121.418C48.865 121.624 48.9218 121.831 48.9787 122.034L49.8142 120.794C49.9909 119.8 50.1886 118.808 50.3893 117.819C50.7187 116.284 51.0663 114.752 51.4766 113.232C51.8779 111.711 52.3211 110.194 52.8722 108.698H52.8812C52.9021 110.292 52.8152 111.87 52.6894 113.438C52.5696 115.009 52.387 116.568 52.1893 118.124C52.0395 119.193 51.8838 120.262 51.7071 121.326L52.5097 122.413ZM47.026 100.914L46.9992 100.959C46.3702 102.1 45.8251 103.282 45.3728 104.501C45.0135 105.466 44.7139 106.454 44.4863 107.458C44.049 109.358 43.8664 111.326 44.0461 113.27C44.2228 115.215 44.7619 117.117 45.5346 118.906C45.9419 119.853 46.4181 120.767 46.9452 121.654C46.9662 121.687 46.9872 121.723 47.0081 121.759L47.029 121.792C46.99 121.633 46.9511 121.475 46.9122 121.317C46.1874 118.222 46.0048 114.967 46.6877 111.849C47.2358 109.346 48.3109 106.986 49.7066 104.842C48.9488 103.468 48.0563 102.165 47.0589 100.956L47.026 100.914ZM245.236 114.11C244.338 112.969 243.595 111.705 243.095 110.337C242.822 109.591 242.624 108.823 242.493 108.043L242.487 108.005C241.684 107.551 240.834 107.183 239.962 106.888C239.6 106.765 239.231 106.655 238.86 106.559L237.653 106.284L237.994 107.473C238.114 107.834 238.246 108.196 238.39 108.551C239.081 110.26 240.073 111.875 241.423 113.148C242.451 114.116 243.667 114.862 244.961 115.427L245.236 114.11ZM251.648 115.044C251.906 114.731 252.151 114.405 252.388 114.074C253.577 112.386 254.478 110.454 254.754 108.396C254.984 106.667 254.787 104.898 254.329 103.223C254.227 102.852 254.113 102.488 253.987 102.124L253.538 100.974L252.744 101.92C252.508 102.222 252.28 102.533 252.067 102.849C251.4 103.838 250.833 104.904 250.435 106.027C250.708 106.559 250.944 107.111 251.139 107.679C251.879 109.835 252.004 112.168 251.735 114.42C251.708 114.629 251.681 114.835 251.648 115.044ZM250.028 113.025C250.112 111.239 249.899 109.429 249.231 107.766C248.581 106.147 247.536 104.704 246.311 103.468C246.042 103.196 245.76 102.933 245.473 102.679L244.517 101.897L244.29 103.109C244.233 103.488 244.188 103.868 244.158 104.25C244.011 106.09 244.17 107.975 244.805 109.716C245.092 110.496 245.47 111.236 245.916 111.932L246.263 111.108L246.778 110.024L246.611 110.376C246.503 109.994 246.401 109.608 246.308 109.223C246.054 108.202 245.841 107.165 245.727 106.09L245.736 106.087C246.389 106.95 246.937 107.855 247.452 108.772C247.97 109.689 248.432 110.627 248.878 111.571C248.935 111.702 248.995 111.834 249.054 111.965L250.028 113.025ZM242.478 102.918C241.579 101.98 240.8 100.935 240.201 99.7789C239.833 99.074 239.54 98.3363 239.309 97.5806L239.297 97.5418C238.443 97.1953 237.554 96.9385 236.652 96.7563C236.275 96.6816 235.895 96.6188 235.514 96.568L234.284 96.4516L234.775 97.5836C234.94 97.93 235.116 98.2706 235.305 98.6051C236.209 100.212 237.398 101.69 238.902 102.781C239.935 103.53 241.1 104.083 242.316 104.471L242.418 103.36C242.436 103.214 242.457 103.064 242.478 102.918ZM62.2851 101.974C63.2584 101.147 64.1479 100.227 64.9206 99.2114C66.1096 97.6523 66.9961 95.8812 67.634 94.0293C68.3888 91.828 68.8021 89.5103 68.9189 87.1895L68.9279 86.9804C68.9099 86.9864 68.895 86.9924 68.8771 86.9984C67.6461 87.4285 66.448 87.9482 65.295 88.5575C65.1542 88.6322 65.0135 88.7068 64.8727 88.7844C64.9326 91.5502 64.5433 94.334 63.5221 96.9116C62.5098 99.4773 60.9166 101.786 59.0178 103.781L60.3624 102.96C60.9435 102.628 62.2851 101.974 62.2851 101.974ZM249.282 103.363C249.501 103.017 249.701 102.664 249.893 102.306C250.86 100.481 251.507 98.4468 251.516 96.371C251.525 94.6267 251.1 92.8973 250.432 91.2934C250.282 90.9409 250.124 90.5915 249.953 90.251L249.36 89.1667L248.692 90.2061C248.497 90.5347 248.315 90.8722 248.141 91.2127C247.605 92.276 247.18 93.405 246.928 94.5729C247.27 95.0657 247.575 95.5824 247.839 96.12C248.848 98.166 249.273 100.463 249.288 102.73C249.291 102.939 249.288 103.151 249.282 103.363ZM57.2478 102.996C57.9516 102.291 58.6135 101.547 59.2214 100.759C60.3206 99.3369 61.246 97.7717 61.8899 96.0932C62.5907 94.2622 62.9471 92.3149 63.0369 90.3585C63.1417 88.0348 62.8872 85.6961 62.3482 83.4321L62.2972 83.2319C62.2822 83.2439 62.2703 83.2529 62.2553 83.2648C61.1951 84.0205 60.1888 84.8538 59.2543 85.7618C58.5146 86.4786 57.8167 87.2402 57.1758 88.0467C55.9269 89.6177 54.8877 91.365 54.2079 93.2587C53.567 95.0448 53.2465 96.9355 53.1716 98.8261C53.1477 99.4026 53.1477 99.976 53.1687 100.549C53.5311 100.182 53.9084 99.8267 54.2947 99.4832L55.325 98.623L55.3579 98.6857L55.3878 98.6081C55.9599 97.1445 56.547 95.6899 57.1939 94.2533C57.8348 92.8136 58.5146 91.389 59.2993 89.9971L59.3052 90C59.0745 91.5771 58.7362 93.1213 58.3588 94.6505C57.9904 96.1798 57.5622 97.6911 57.116 99.1965C56.9243 99.8237 56.7266 100.448 56.5259 101.069C56.5679 101.165 56.6067 101.26 56.6457 101.359C56.8643 101.897 57.0651 102.443 57.2478 102.996ZM247.449 102.034C247.35 100.096 246.91 98.1511 245.958 96.4486C245.104 94.9254 243.885 93.6261 242.511 92.5568C242.208 92.3208 241.897 92.0968 241.579 91.8817L240.531 91.2276L240.462 92.4583C240.453 92.8406 240.459 93.2258 240.477 93.6081C240.564 95.448 240.962 97.2999 241.819 98.9456C242.136 99.5609 242.517 100.143 242.945 100.687L243.478 99.0561L243.586 99.1248C243.469 98.8381 243.352 98.5543 243.244 98.2646C242.861 97.285 242.517 96.2873 242.268 95.233L242.274 95.23C243.035 96.0006 243.694 96.8279 244.323 97.6732C244.955 98.5154 245.533 99.3876 246.093 100.269C246.326 100.648 246.557 101.024 246.781 101.41L247.449 102.034ZM56.7924 85.6901C56.2803 84.2594 55.6335 82.8795 54.8788 81.5623L54.7738 81.3831C54.7619 81.3981 54.7529 81.413 54.7409 81.425C53.9113 82.4853 53.1596 83.6053 52.5037 84.7791C52.0215 85.6393 51.5874 86.5264 51.219 87.4403C50.4853 89.2474 49.9879 91.1619 49.8532 93.1093C49.7184 95.0568 49.946 97.019 50.4222 98.9097C50.6738 99.9073 50.9944 100.89 51.3747 101.846C51.3957 101.897 51.4136 101.944 51.4345 101.995C51.4375 102.019 51.4106 101.693 51.3956 101.511C51.174 98.3392 51.5154 95.0985 52.6894 92.1267C53.6298 89.7432 55.0704 87.5867 56.7924 85.6901ZM238.635 92.6464C237.32 91.822 236.119 90.8095 235.146 89.5999C234.646 88.9786 234.212 88.3155 233.834 87.6195C233.834 87.6195 233.154 87.4732 232.822 87.4344C232.358 87.3807 231.891 87.3537 231.42 87.3388C231.247 87.3358 231.07 87.3358 230.893 87.3358C230.567 87.3418 230.243 87.3537 229.917 87.3746L228.686 87.5031C229.051 88.0765 229.456 88.6261 229.89 89.1518C231.211 90.7408 232.843 92.1177 234.76 92.9241C236 93.4468 237.326 93.7276 238.665 93.8292L238.635 92.6464ZM241.573 78.5397C241.492 78.7637 240.714 82.7092 240.708 83.1662C241.139 83.5844 241.54 84.0324 241.909 84.5073C243.304 86.3143 244.173 88.4798 244.64 90.699C244.685 90.9051 244.724 91.1112 244.76 91.3202C244.904 90.9379 245.032 90.5527 245.149 90.1644C245.733 88.1841 245.964 86.0634 245.562 84.0264C245.224 82.315 244.466 80.7051 243.493 79.2654C243.277 78.9458 243.053 78.6383 242.816 78.3336L242.019 77.3897L241.573 78.5397ZM242.717 90.4571C242.241 88.5485 241.418 86.7026 240.127 85.2002C238.992 83.8741 237.536 82.8407 235.979 82.0641C235.634 81.8909 235.287 81.7326 234.931 81.5862L233.774 81.1501L233.948 82.3717C234.017 82.7481 234.098 83.1215 234.191 83.4948C234.643 85.2809 235.401 87.0192 236.566 88.4619C237.204 89.2534 237.952 89.9463 238.773 90.5467L238.998 89.2355C238.593 88.6739 238.201 88.1035 237.83 87.5151C237.26 86.628 236.724 85.717 236.269 84.7344L236.278 84.7283C237.174 85.3377 237.985 86.0157 238.767 86.7235C239.555 87.4225 240.294 88.1632 241.019 88.9159C241.349 89.2713 241.675 89.6267 241.999 89.9881C242.241 90.1374 242.481 90.2958 242.717 90.4571ZM64.199 83.3544C64.3667 84.0892 64.6572 85.5497 64.6572 85.5497C66.9723 84.0085 69.0477 82.0641 70.5182 79.6926C71.4886 78.1275 72.1865 76.4011 72.6596 74.624C73.2437 72.4197 73.4952 70.1318 73.4623 67.8588L73.4592 67.6498C73.4412 67.6587 73.4263 67.6647 73.4084 67.6707C72.2074 68.1814 71.0453 68.7758 69.9342 69.4568C69.0567 69.9944 68.2091 70.5858 67.4065 71.2339C65.888 72.4615 64.5253 73.8952 63.4621 75.5379C62.3959 77.1777 61.6413 79.0026 61.1412 80.8873C61.0423 81.2636 60.9524 81.6399 60.8715 82.0193L62.1803 81.1293L63.3334 80.4423L63.501 80.9351C64.3306 79.7075 65.1753 78.4889 66.0708 77.2971C67.0082 76.0307 67.9845 74.7882 69.0507 73.6024L69.0597 73.6055C68.4876 75.0959 67.8197 76.5266 67.1189 77.9364C66.4241 79.3521 65.6754 80.732 64.9117 82.106C64.6751 82.5181 64.4384 82.9332 64.1958 83.3454L64.199 83.3544ZM70.7039 84.5939C70.7219 84.9762 70.7279 85.1375 70.7279 85.1375C71.4946 84.6477 72.2224 84.0981 72.9022 83.4888C74.3488 82.1895 75.5528 80.6364 76.5351 78.9638C77.6642 77.0403 78.5147 74.9525 79.0957 72.7991L79.1076 72.7483C79.0926 72.7513 79.0747 72.7542 79.0568 72.7542C77.718 72.9125 76.3912 73.1724 75.0914 73.5338C74.9806 73.5637 74.8699 73.5965 74.7591 73.6293C74.214 76.3384 73.2226 78.9728 71.6652 81.2666C70.599 82.8347 69.2963 84.2266 67.8408 85.4392C68.3919 85.2391 68.9519 85.0539 69.5179 84.8986L70.7039 84.5939ZM232.226 83.0468C231.115 82.3598 230.094 81.5325 229.222 80.5588C228.686 79.9554 228.21 79.3043 227.793 78.6143C227.239 78.5397 226.682 78.4979 226.122 78.4859C226 78.4859 225.874 78.4829 225.751 78.4829C224.718 78.4919 223.688 78.5994 222.672 78.7905L222.663 78.7936C223.059 79.3461 223.49 79.8748 223.951 80.3766C225.35 81.8968 227.051 83.1901 229.007 83.898C230.163 84.3161 231.378 84.5313 232.603 84.591L232.6 84.576C232.469 84.125 232.226 83.0468 232.226 83.0468ZM67.5472 68.8534C67.5143 68.5846 67.4755 68.3188 67.4335 68.0529C67.2299 66.7686 66.9272 65.5023 66.5349 64.2627L66.517 64.212C66.505 64.2239 66.49 64.2328 66.478 64.2448C64.711 65.6904 63.1207 67.363 61.8089 69.2268C60.6589 70.8665 59.7275 72.6646 59.1554 74.5851C58.5984 76.4579 58.3887 78.4231 58.4396 80.3705C58.4696 81.401 58.5685 82.4285 58.7303 83.444C58.7392 83.4978 58.7481 83.5515 58.7571 83.6053L58.826 83.1185C59.2813 80.0988 60.2606 77.1269 61.9317 74.5493C63.3963 72.2973 65.3549 70.4006 67.5472 68.8534ZM239.564 78.8443C239.743 77.3838 239.701 75.8963 239.342 74.4656C238.917 72.7721 238.078 71.2041 237.03 69.8122C236.799 69.5076 236.557 69.2089 236.308 68.9191L235.464 68.0141L235.077 69.1849C234.969 69.5523 234.873 69.9257 234.79 70.2991C234.535 71.4609 234.406 72.6616 234.451 73.8534L234.478 73.8773C234.919 74.2656 235.332 74.6807 235.715 75.1288C237.201 76.8611 238.183 78.9817 238.761 81.174C238.806 81.3413 238.848 81.5085 238.887 81.6728L238.938 81.7116C238.962 81.637 239.015 81.422 239.015 81.422C239.129 80.5498 239.318 79.6866 239.564 78.8443ZM227.422 72.1986C227.488 72.6019 227.566 73.0021 227.659 73.3994C227.746 73.7727 227.845 74.1431 227.958 74.5105C228.5 76.2727 229.348 77.9662 230.582 79.3521C230.986 79.8031 231.429 80.2183 231.9 80.5976L231.876 78.7936L232.169 78.8593C232.043 78.689 231.917 78.5158 231.795 78.3395C231.184 77.4853 230.6 76.6013 230.097 75.6425L230.103 75.6365C231.028 76.201 231.876 76.8371 232.693 77.5002C233.514 78.1603 234.29 78.8622 235.053 79.5791L235.224 79.7433C235.47 79.8389 235.712 79.9405 235.955 80.045C236.17 80.1436 236.386 80.2421 236.602 80.3467C236.024 78.7159 235.17 77.1717 233.972 75.9113C232.768 74.6449 231.265 73.6891 229.668 72.9902C229.318 72.8349 228.962 72.6945 228.599 72.5661L227.419 72.1897L227.422 72.1986ZM219.315 70.2602C218.92 70.2662 218.524 70.2841 218.129 70.3169L216.59 70.5171C216.976 71.0756 217.398 71.6132 217.85 72.121C219.222 73.6652 220.902 74.9854 222.849 75.7291C224.089 76.201 225.41 76.4369 226.736 76.4997L226.209 75.0152C225.059 74.2924 224.008 73.4203 223.118 72.3928C222.597 71.7895 222.142 71.1413 221.741 70.4573L221.723 70.4245C221.459 70.3827 220.088 70.1647 219.315 70.2602ZM163.037 73.5308C158.812 76.4937 152.971 75.4842 150 71.2668C147.029 75.4842 141.189 76.4937 136.963 73.5308C133.417 71.0488 132.049 66.461 133.657 62.4437C134.562 67.2286 139.186 70.3797 143.984 69.4717C146.511 68.9998 148.713 67.4466 150 65.2245C151.288 67.4466 153.49 68.9998 156.014 69.4717C160.815 70.3797 165.439 67.2286 166.344 62.4437C167.952 66.461 166.583 71.0488 163.037 73.5308ZM233.571 67.9066C233.526 67.4228 233.451 66.9448 233.34 66.4699C232.945 64.7704 232.13 63.1874 231.109 61.7806C230.881 61.47 230.648 61.1684 230.399 60.8757L229.573 59.9557L229.165 61.1206C229.051 61.488 228.95 61.8554 228.86 62.2287C228.587 63.3876 228.435 64.5853 228.458 65.777C228.902 66.1772 229.321 66.6103 229.704 67.0733C230.983 68.6204 231.867 70.4603 232.433 72.3778C232.505 72.4226 232.576 72.4675 232.648 72.5123C232.711 71.3892 232.903 70.2692 233.187 69.1849C233.295 68.7698 233.571 67.9066 233.571 67.9066ZM221.462 64.0029C221.519 64.4091 221.591 64.8093 221.678 65.2095C221.756 65.5829 221.852 65.9533 221.956 66.3206C222.472 68.0948 223.286 69.8032 224.499 71.207C224.838 71.6013 225.206 71.9657 225.595 72.3062C225.541 71.9448 225.499 71.5774 225.473 71.213L225.404 69.9316L225.55 69.9585C225.017 69.173 224.514 68.3636 224.077 67.4915L224.083 67.4854C224.999 68.0649 225.835 68.716 226.641 69.394C227.036 69.7256 227.422 70.0631 227.803 70.4126L229.54 70.977C229.719 71.0457 229.899 71.1145 230.076 71.1892C229.552 69.9616 228.854 68.8116 227.946 67.826C226.766 66.5387 225.278 65.556 223.694 64.8332C223.346 64.6719 222.99 64.5255 222.63 64.3882L221.459 63.9939L221.462 64.0029ZM80.1409 70.8427L80.2607 70.8397C81.1651 70.4872 82.0397 70.066 82.8723 69.5702C84.6063 68.5368 86.1308 67.1778 87.4335 65.6426C88.1044 64.854 88.7184 64.0177 89.2814 63.1456C90.0092 62.0166 90.6471 60.8279 91.1922 59.6003L91.2161 59.5525L89.9283 59.5316C89.4522 59.5405 88.9759 59.5555 88.5027 59.5884C87.9277 59.6242 87.3526 59.6809 86.7806 59.7556C85.8282 62.3541 84.4445 64.8033 82.5547 66.8344C80.7937 68.725 78.6434 70.2184 76.3313 71.3623L78.1433 71.0428C78.8052 70.9472 79.4731 70.8755 80.1409 70.8427ZM75.2382 69.8749C75.8881 69.5643 76.5259 69.2238 77.1429 68.8534C78.6374 67.9574 80.0301 66.8762 81.219 65.6008C82.5937 64.1253 83.6749 62.393 84.4955 60.5561C84.9178 59.6123 85.2711 58.6356 85.5647 57.6439C85.948 56.3536 86.2265 55.0365 86.4062 53.7043L86.4123 53.6506C86.3943 53.6565 86.3762 53.6595 86.3613 53.6655C85.0974 53.9851 83.8546 54.3943 82.6536 54.899C81.7012 55.2993 80.7758 55.7532 79.8834 56.273C78.1942 57.2526 76.6278 58.4623 75.325 59.9229C74.0551 61.3446 73.0489 62.9843 72.2732 64.7197C72.0127 65.3081 71.7761 65.9024 71.5634 66.5088C71.7252 66.4311 71.8869 66.3565 72.0517 66.2818C72.6596 66.007 73.2826 65.7501 73.9145 65.5321L74.4536 65.3559C75.4869 64.2388 76.538 63.1307 77.6311 62.0584C78.7542 60.9533 79.9073 59.8721 81.1472 58.8625L81.1532 58.8685C80.3596 60.2514 79.4791 61.5656 78.5716 62.8529C77.6672 64.1432 76.7177 65.3947 75.7504 66.6342C75.5886 66.8373 75.4299 67.0374 75.2681 67.2405C75.2801 67.5541 75.2861 67.8678 75.2861 68.1814C75.2891 68.7459 75.2711 69.3104 75.2382 69.8749ZM220.504 67.7542C218.869 66.8642 217.368 65.7083 216.191 64.2657C215.679 63.6384 215.233 62.9635 214.85 62.2556C214.52 62.1959 214.188 62.1481 213.852 62.1122C213.388 62.0614 212.921 62.0375 212.451 62.0285L211.103 62.0614L209.716 62.2108C210.088 62.7812 210.495 63.3278 210.932 63.8475C212.262 65.4306 213.903 66.7955 215.826 67.593C216.964 68.0619 218.171 68.3308 219.396 68.4443L220.783 68.489C220.684 68.2471 220.591 68.0021 220.504 67.7542ZM80.3864 53.9373C80.4313 52.42 80.3326 50.8997 80.1109 49.4003L80.081 49.1972C80.066 49.2062 80.051 49.2152 80.036 49.2241C78.9129 49.8842 77.8378 50.6279 76.8256 51.4493C76.0259 52.0974 75.2652 52.7963 74.5554 53.543C73.1748 55.0006 71.9857 56.6523 71.1441 58.4772C70.3474 60.2006 69.8623 62.0584 69.6227 63.9371C69.4849 65.0124 69.425 66.0996 69.437 67.1838L69.5808 66.7118C70.5332 63.6772 72.0367 60.7831 74.214 58.4414C75.963 56.5657 78.0893 55.0783 80.3864 53.9373ZM222.876 62.5453C222.424 61.5686 221.852 60.6487 221.145 59.8303C219.998 58.5131 218.539 57.4916 216.976 56.721C216.631 56.5537 216.281 56.3954 215.925 56.2491L214.766 55.8249L214.948 57.0435C215.017 57.4199 215.101 57.7932 215.197 58.1636C215.661 59.9497 216.431 61.682 217.602 63.1187C218.243 63.9012 218.991 64.5853 219.812 65.1767C219.683 64.5196 219.591 63.8505 219.543 63.1815C219.309 62.847 219.081 62.5065 218.86 62.163C218.285 61.2789 217.743 60.3709 217.284 59.3912L217.29 59.3852C218.189 59.9885 219.006 60.6636 219.794 61.3625C219.983 61.5298 220.166 61.697 220.348 61.8643C220.348 61.8643 220.27 61.8493 220.666 61.924C221.112 62.0136 221.552 62.1271 221.989 62.2585C222.286 62.3451 222.582 62.4437 222.876 62.5453ZM226.35 64.194C226.805 62.378 226.946 60.4665 226.572 58.6236C226.224 56.9152 225.454 55.3113 224.469 53.8746C224.254 53.561 224.026 53.2503 223.786 52.9516L222.987 52.0108L222.547 53.1637C222.421 53.5251 222.31 53.8924 222.211 54.2628C221.906 55.4127 221.72 56.6045 221.714 57.7963C221.714 57.7963 222.555 58.6654 222.921 59.1283C223.954 60.4485 224.706 61.9658 225.221 63.5578C225.604 63.7549 225.982 63.967 226.35 64.194ZM213.708 59.5674C212.199 58.8356 210.8 57.8739 209.638 56.6612C209.09 56.0848 208.599 55.4606 208.165 54.7975L208.144 54.7646L206.946 54.696C206.85 54.693 206.754 54.6929 206.658 54.6929C205.44 54.7019 204.224 54.8483 203.032 55.1171H203.022C203.436 55.6577 203.888 56.1714 204.364 56.6582C205.814 58.1307 207.557 59.3643 209.537 60.0065C209.875 60.114 210.216 60.2066 210.561 60.2843C211.004 60.2455 211.45 60.2215 211.894 60.2126C212.088 60.2096 212.286 60.2096 212.481 60.2126C212.975 60.2215 213.469 60.2485 213.963 60.2992L213.708 59.5674ZM216.146 54.3853C215.622 53.4624 214.987 52.6021 214.229 51.8554C212.984 50.6308 211.447 49.7259 209.827 49.0807C209.471 48.9404 209.108 48.8089 208.743 48.6924L207.554 48.3579L207.832 49.5586C207.931 49.929 208.042 50.2963 208.168 50.6577C208.773 52.402 209.674 54.0658 210.956 55.4068C211.603 56.0819 212.331 56.6642 213.118 57.163L213.11 57.1153C213.008 56.5328 212.933 55.9444 212.891 55.3531V55.3112C212.633 54.9976 212.379 54.681 212.133 54.3554C211.492 53.5221 210.881 52.6589 210.345 51.7181L210.351 51.7122C211.298 52.2438 212.163 52.8501 213.002 53.4863L213.047 53.5221L214.026 53.7312C214.472 53.8328 214.909 53.9612 215.341 54.1016C215.613 54.1912 215.88 54.2838 216.146 54.3853ZM219.689 56.1864C220.07 54.224 220.1 52.1631 219.546 50.2277C219.063 48.5521 218.168 47.0109 217.075 45.6579C216.835 45.3592 216.584 45.0694 216.323 44.7886L215.451 43.9135L215.101 45.0993C215.005 45.4667 214.924 45.843 214.856 46.2193C214.64 47.3902 214.55 48.5938 214.637 49.7826C215.098 50.1619 215.538 50.5712 215.943 51.0162C217.162 52.3424 218.072 53.9193 218.725 55.592C219.051 55.7801 219.375 55.9773 219.689 56.1864ZM88.3441 52.5753C88.3081 53.2055 88.2332 53.8328 88.1373 54.454C88.1014 54.699 88.0595 54.9438 88.0176 55.1887C88.7184 54.6362 89.3622 54.009 89.9163 53.3041C90.9974 51.9272 91.7282 50.2994 92.1864 48.6178C92.2882 48.2474 92.3751 47.8711 92.45 47.4947L92.6507 46.2701C92.6447 46.2731 92.6417 46.2731 92.6357 46.2731C92.2464 46.3986 91.857 46.536 91.4766 46.6853C91.1202 46.8257 90.7669 46.981 90.4195 47.1452C88.7454 47.9427 87.182 49.03 85.99 50.4576C85.5318 51.0042 85.1335 51.5927 84.789 52.2109L84.8459 52.196C85.5767 51.9809 86.3193 51.7927 87.0711 51.6494L87.4125 51.5896C88.1523 50.8848 88.9189 50.2008 89.7695 49.5855L89.7755 49.5884C89.3652 50.5562 88.8771 51.4612 88.353 52.3394L88.3441 52.5753Z" fill="white"/>
</svg>
