<svg width="300" height="300" viewBox="0 0 300 300" fill="none" xmlns="http://www.w3.org/2000/svg">
<path fill-rule="evenodd" clip-rule="evenodd" d="M150.239 18.3583C165.508 18.3583 177.901 30.8806 177.901 46.3277C177.901 61.7765 165.506 74.2988 150.239 74.2988C134.945 74.2988 122.551 61.7765 122.551 46.3277C122.551 30.8806 134.945 18.3583 150.239 18.3583ZM214.651 0C229.948 0 242.334 12.524 242.334 27.9711C242.335 43.4198 229.948 55.9438 214.65 55.9438C199.378 55.9438 186.984 43.4198 186.984 27.9711C186.984 12.524 199.38 0 214.651 0ZM91.2077 46.9763C106.494 46.9763 118.885 59.5037 118.885 74.9576C118.885 90.4013 106.494 102.927 91.2077 102.927C75.9231 102.927 63.5305 90.4013 63.5305 74.9576C63.5305 59.5037 75.9231 46.9763 91.2077 46.9763ZM149.644 221.953L150.066 177.754C151.899 177.666 170.352 176.94 181.696 182.657C185.85 184.749 186.277 187.445 186.27 190.298C186.264 203.568 150.421 222.514 146.897 224.31C101.509 247.47 37.502 251.408 37.502 251.408L38.1035 299.996C65.4892 296.201 114.897 290.616 174.521 258.312C204.011 242.333 235.928 216.031 229.974 178.382C224.222 142.062 186.183 131.828 150.361 133.396L149.939 177.597C148.124 177.686 129.659 178.415 118.314 172.699C114.158 170.607 113.739 167.913 113.739 165.056C113.743 151.785 149.582 132.839 153.109 131.047C198.502 107.882 262.499 103.945 262.499 103.945L261.899 55.3545C234.505 59.1582 185.104 64.7386 125.485 97.0401C95.9898 113.017 64.0834 139.322 70.0418 176.97C75.7924 213.299 113.831 223.525 149.644 221.953Z" fill="white"/>
</svg>
