<svg width="300" height="300" viewBox="0 0 300 300" fill="none" xmlns="http://www.w3.org/2000/svg">
<path d="M222.713 42.2884L214.424 37.3141L150.24 0L21.874 74.6281V223.882L68.4376 251.586L140.607 208.236L94.6967 181.545V116.964L222.713 42.2884Z" fill="white"/>
<path d="M77.2817 257.708L85.5721 262.682L149.754 299.996L278.121 225.369V76.1145L231.558 48.4103L159.389 91.7605L205.299 118.451V183.033L77.2817 257.708Z" fill="white"/>
<path d="M193.747 149.998C193.747 174.095 174.094 193.748 149.997 193.748C125.901 193.748 106.248 174.095 106.248 149.998C106.248 125.902 125.901 106.249 149.997 106.249C174.094 106.249 193.747 125.902 193.747 149.998Z" fill="white"/>
</svg>
