<svg width="300" height="300" viewBox="0 0 300 300" fill="none" xmlns="http://www.w3.org/2000/svg">
<path fill-rule="evenodd" clip-rule="evenodd" d="M234.349 299.996C219.543 288.488 203.749 280.704 184.547 271.912L95.8056 232.283C73.5103 222.256 58.7267 208.886 58.7267 186.388C58.7267 164.519 69.2154 153.931 82.8496 145.233L87.777 142.114C84.387 145.841 82.2383 149.583 82.2383 156.73C82.2383 170.512 93.9544 175.176 106.366 180.774L209.607 226.693C227.567 234.475 244.001 247.863 244.001 270.66C244.001 283.192 239.277 294.406 234.349 299.996ZM90.8245 239.798L53.5293 262.272C54.4512 281.344 70.4285 297.145 89.6176 297.145C97.0331 297.145 104.097 294.41 111.885 289.728L148.961 266.036L90.8245 239.798ZM86.8751 47.4944C70.7597 57.4343 60.5492 70.931 60.5492 91.557C60.5492 113.958 74.4634 126.779 96.7475 136.726L207.097 185.771C220.125 191.666 224.208 198.633 224.208 207.359C224.208 212.333 221.405 217.327 217.408 220.755L223.879 216.659C237.76 207.943 246.476 196.108 246.476 177.357C246.476 153.313 230.663 140.129 211.155 131.413L103.768 83.6965C93.2732 79.0315 82.8171 73.7716 82.8171 61.0011C82.8171 55.6337 84.4045 51.2181 86.8751 47.4944ZM179.757 176.863C188.652 180.827 197.53 184.826 206.381 188.886C207.108 189.228 207.831 189.578 208.544 189.949C209.203 190.291 209.854 190.649 210.495 191.025C214.45 193.339 218.23 196.443 219.952 200.819C220.468 202.131 220.787 203.513 220.947 204.912C221.092 206.195 221.154 207.518 220.979 208.8C220.77 210.335 220.248 211.819 219.533 213.189C218.625 214.926 217.405 216.459 215.997 217.817C215.434 218.335 214.867 218.85 214.297 219.362L158.832 194.517L168.815 188.871C177.187 184.206 179.893 181.35 179.893 178.243C179.893 177.758 179.85 177.3 179.757 176.863ZM90.7401 143.479L146.547 168.279L131.958 176.693C127.95 179.183 125.158 181.435 125.158 184.553C125.158 184.987 125.221 185.411 125.343 185.825C118.668 182.854 111.998 179.874 105.334 176.879C103.844 176.207 102.352 175.536 100.877 174.832C100 174.415 99.1275 173.987 98.2644 173.542C97.6031 173.2 96.9469 172.849 96.2988 172.484C92.6569 170.432 89.0214 167.849 87.0339 164.06C86.6995 163.422 86.4158 162.759 86.1851 162.076C85.7776 160.872 85.5376 159.616 85.4326 158.35C85.2727 156.416 85.3633 154.421 85.7064 152.509C85.9458 151.181 86.3414 149.881 86.932 148.664C87.3708 147.76 87.9151 146.922 88.5095 146.113C88.837 145.686 89.1757 145.269 89.5251 144.859C89.9288 144.398 90.3338 143.938 90.7401 143.479ZM224.428 56.2406L156.091 97.7569L214.885 123.995L222.015 119.899C235.283 112.349 242.746 101.796 242.746 86.4645C242.746 72.1453 233.661 61.6161 224.428 56.2406ZM93.1263 43.6395L163.879 0C173.11 5.28243 182.087 16.0086 182.087 30.3346C182.087 45.6676 174.416 55.9068 161.465 63.7692L132.946 81.1502C130.42 82.6908 127.022 85.1852 127.022 89.0108C127.022 89.6501 127.163 90.2676 127.423 90.8645C119.305 87.257 111.196 83.629 103.102 79.9665C102.154 79.5303 101.207 79.0915 100.271 78.6315C99.3594 78.184 98.4594 77.7172 97.5675 77.2322C96.8556 76.8459 96.1556 76.4366 95.4675 76.0091C92.2144 73.9903 89.1301 71.4222 87.4308 67.9148C87.072 67.1729 86.7783 66.3998 86.5533 65.6073C86.1264 64.108 85.9501 62.5517 85.9464 60.9955C85.9414 59.208 86.1508 57.4149 86.5895 55.6812C87.1433 53.4912 88.0795 51.4419 89.2807 49.5344L93.1263 43.6395Z" fill="white"/>
</svg>
