<svg width="300" height="300" viewBox="0 0 300 300" fill="none" xmlns="http://www.w3.org/2000/svg">
<path fill-rule="evenodd" clip-rule="evenodd" d="M268.232 116.195C275.831 132.698 280.069 151.06 280.069 170.404C280.069 185.85 277.367 200.67 272.409 214.418C270.407 214.097 268.353 213.93 266.26 213.93C244.973 213.93 227.69 231.2 227.69 252.471C227.69 259.16 229.399 265.452 232.404 270.937C212.376 287.353 187.361 297.915 159.99 299.996V265.643C208.192 260.645 245.827 219.882 245.827 170.404C245.827 157.291 243.184 144.79 238.4 133.406L268.232 116.195ZM31.3639 117.089L61.2262 134.317C56.6816 145.456 54.1767 157.64 54.1767 170.404C54.1767 219.21 90.7982 259.537 138.057 265.419V299.833C111.451 297.408 87.1506 286.961 67.6002 270.937C70.6048 265.452 72.3136 259.16 72.3136 252.471C72.3136 231.2 55.031 213.93 33.7437 213.93C31.651 213.93 29.597 214.097 27.5943 214.418C22.6369 200.67 19.935 185.85 19.935 170.404C19.935 151.409 24.0211 133.36 31.3639 117.089ZM33.7437 223.44C49.7785 223.44 62.7967 236.448 62.7967 252.471C62.7967 268.494 49.7785 281.502 33.7437 281.502C17.7096 281.502 4.69141 268.494 4.69141 252.471C4.69141 236.448 17.7096 223.44 33.7437 223.44ZM266.26 223.44C282.295 223.44 295.313 236.448 295.313 252.471C295.313 268.494 282.295 281.502 266.26 281.502C250.225 281.502 237.208 268.494 237.208 252.471C237.208 236.448 250.225 223.44 266.26 223.44ZM109.71 218.234C112.288 223.153 115.285 227.855 118.677 232.255C122.609 237.353 127.072 242.046 132.002 246.19C134.405 248.209 136.92 250.098 139.532 251.837C121.243 249.508 104.825 241.161 92.3293 228.848C97.6094 224.705 103.382 221.187 109.462 218.347L109.71 218.234ZM190.446 218.304L190.542 218.347C196.622 221.187 202.394 224.705 207.674 228.848C195.233 241.109 178.9 249.438 160.706 251.807C163.301 250.075 165.801 248.198 168.189 246.19C173.675 241.579 178.581 236.29 182.822 230.518C185.667 226.647 188.213 222.557 190.446 218.304ZM152.526 209.531C156.116 209.633 159.695 209.899 163.257 210.381C171.06 211.437 178.736 213.445 186.037 216.391C183.474 221.23 180.481 225.845 177.086 230.143C173.313 234.92 169.042 239.306 164.333 243.166C160.648 246.186 156.695 248.881 152.526 251.185V209.531ZM147.478 209.531V251.08C143.378 248.799 139.488 246.14 135.859 243.166C131.15 239.306 126.879 234.92 123.106 230.143C119.696 225.826 116.693 221.191 114.121 216.329C121.377 213.417 128.998 211.429 136.747 210.381C140.309 209.899 143.888 209.633 147.478 209.531ZM232.119 172.925C231.508 193.136 223.571 211.52 210.874 225.513C205.222 221.032 199.027 217.234 192.49 214.182C198.508 201.275 201.684 187.134 202.02 172.925H232.119ZM67.8841 172.925H98.1723C98.5069 187.106 101.672 201.22 107.672 214.109L107.513 214.182C100.977 217.234 94.7817 221.032 89.1295 225.513C76.4328 211.52 68.4958 193.136 67.8841 172.925ZM197.229 172.925C196.894 186.477 193.85 199.961 188.095 212.262C180.339 209.1 172.176 206.947 163.875 205.824C160.108 205.314 156.323 205.035 152.526 204.931V172.925H197.229ZM147.478 172.925V204.931C143.681 205.035 139.896 205.314 136.129 205.824C127.885 206.94 119.776 209.071 112.067 212.198C106.331 199.914 103.297 186.454 102.963 172.925H147.478ZM67.8841 167.882C68.4958 147.67 76.4334 129.286 89.1308 115.292C94.8293 119.808 101.076 123.625 107.674 126.694C101.677 139.582 98.5082 153.697 98.173 167.882H67.8841ZM102.963 167.882C103.299 154.35 106.335 140.889 112.069 128.607C114.919 129.765 117.825 130.786 120.771 131.669C129.433 134.265 138.44 135.661 147.478 135.88V167.882H102.963ZM202.021 167.882C201.686 153.671 198.508 139.53 192.486 126.621C199.026 123.565 205.219 119.773 210.873 115.292C223.571 129.286 231.508 147.67 232.119 167.882H202.021ZM152.526 135.88C161.564 135.661 170.572 134.265 179.233 131.669C182.233 130.77 185.192 129.727 188.094 128.542C193.847 140.841 196.893 154.326 197.229 167.882H152.526V135.88ZM147.478 89.7251V131.28C138.887 131.063 130.326 129.732 122.093 127.264C119.396 126.457 116.735 125.526 114.122 124.476C114.26 124.215 114.399 123.955 114.54 123.695C116.853 119.419 119.504 115.324 122.473 111.473C126.603 106.117 131.352 101.233 136.638 97.0094C140.042 94.2882 143.67 91.8432 147.478 89.7251ZM152.526 89.6214C156.403 91.7632 160.094 94.2432 163.555 97.0094C168.84 101.233 173.589 106.117 177.719 111.473C180.688 115.324 183.339 119.419 185.653 123.695C185.781 123.933 185.91 124.173 186.037 124.413C183.373 125.489 180.66 126.44 177.911 127.264C169.678 129.732 161.116 131.063 152.526 131.28V89.6214ZM139.529 88.9708C137.211 90.5133 134.972 92.1726 132.82 93.937C127.284 98.4744 122.321 103.699 118.019 109.414C114.935 113.511 112.19 117.86 109.801 122.397L109.711 122.569C103.536 119.706 97.682 116.154 92.3312 111.957C104.825 99.6456 121.242 91.2995 139.529 88.9708ZM160.711 89.0014C178.903 91.3714 195.232 99.6988 207.672 111.957C202.365 116.12 196.564 119.648 190.444 122.498C187.875 117.605 184.891 112.928 181.515 108.551C177.583 103.452 173.12 98.7594 168.189 94.6157C165.802 92.6089 163.305 90.732 160.711 89.0014ZM42.0391 97.94C59.0996 72.6197 84.842 53.6168 114.988 45.2044C121.111 58.4061 134.494 67.5723 150.002 67.5723C165.511 67.5723 178.893 58.4061 185.017 45.2044C214.839 53.5268 240.353 72.2141 257.414 97.1288L227.644 114.304C210.227 90.2839 181.927 74.6491 150.002 74.6491C117.724 74.6491 89.152 90.6307 71.7863 115.102L42.0391 97.94ZM150.002 0C166.037 0 179.055 13.0086 179.055 29.0309C179.055 45.0538 166.037 58.0624 150.002 58.0624C133.968 58.0624 120.949 45.0538 120.949 29.0309C120.949 13.0086 133.968 0 150.002 0Z" fill="white"/>
</svg>
