<svg width="300" height="300" viewBox="0 0 300 300" fill="none" xmlns="http://www.w3.org/2000/svg">
<path fill-rule="evenodd" clip-rule="evenodd" d="M260.711 299.996H45.0826V266.084L49.3025 261.135C38.062 250.943 28.3728 239.071 20.6316 225.918L76.3916 257.847H82.5527L15.1517 215.726C12.9936 211.311 11.0461 206.775 9.32238 202.13L89.412 257.847H93.6495L6.06992 192.338C4.46494 186.881 3.16184 181.296 2.1806 175.603L99.9125 257.847H104.341L0.471869 161.961C0.158748 158.015 0 154.025 0 149.998C0 149.114 0.00749991 148.231 0.0237497 147.351L108.587 257.847H111.661L0.663742 135.815C1.18811 130.232 2.01935 124.738 3.13996 119.35L115.733 257.847H118.539L6.17367 107.304C7.56553 102.614 9.18114 98.0207 11.008 93.5338L121.623 257.847H124.24L16.5092 81.5627C18.9285 76.8572 21.5897 72.2954 24.4766 67.8935L127.204 257.847H129.6L103.224 203.349C102.942 203.214 102.662 203.075 102.384 202.933C101.015 202.204 99.7075 201.373 98.5863 200.292C97.5275 199.271 96.6619 198.072 95.9388 196.795C95.0138 195.163 94.3076 193.418 93.4926 191.731C93.2382 191.232 92.9807 190.74 92.7013 190.256C92.5414 189.989 92.4045 189.787 92.1726 189.583C91.8089 189.289 91.4214 189.027 91.0564 188.735C90.7076 188.433 90.357 188.111 90.1183 187.711C89.9239 187.386 89.8045 187.031 89.6776 186.675L89.6689 186.672C89.4058 186.523 89.1876 186.376 89.0151 186.12C88.8533 185.88 88.7608 185.596 88.7495 185.307C88.7401 185.06 88.7839 185.065 88.7951 184.82C88.7976 184.757 88.7795 184.695 88.7826 184.633C88.7951 184.357 88.8201 184.336 88.9014 184.077C88.9551 183.69 89.0164 183.306 89.0876 182.921C89.1664 182.556 89.2533 182.216 89.4339 181.888C89.9495 180.95 90.9426 180.38 91.8907 179.932L75.7203 146.521C75.5872 146.479 75.4628 146.439 75.1972 146.354C73.5503 145.784 71.8135 145.051 70.7216 143.622C70.446 143.261 70.2079 142.882 70.0141 142.471C69.7841 141.983 69.6223 141.466 69.5129 140.939C69.3835 140.316 69.3366 139.681 69.3179 139.045C69.2991 138.428 69.3385 137.803 69.2598 137.188C69.2516 137.14 69.2566 137.14 69.2285 137.1C69.1198 136.953 69.0041 136.82 68.8848 136.68C68.3641 136.108 67.8254 135.553 67.311 134.975C66.8992 134.486 66.5079 133.981 66.1954 133.421C65.7098 132.55 65.4254 131.573 65.4579 130.572C65.4729 130.123 65.5661 129.691 65.6936 129.263C65.9286 128.602 66.1761 127.947 66.4117 127.287L32.3733 56.9549C35.4446 53.0787 38.7026 49.3575 42.1351 45.8051L51.8862 68.7841C51.9025 68.0623 51.9431 67.3254 52.0812 66.6179C52.5337 64.2911 54.2724 62.3505 56.4805 61.5299C57.2993 61.2255 58.2487 61.043 59.1161 61.2317C59.7424 61.368 60.3261 61.6117 60.8986 61.8986C61.4217 62.1611 61.9211 62.4648 62.3967 62.8017L52.5106 36.0339C56.0493 33.0033 59.7305 30.1353 63.543 27.4403L76.7478 69.0704C77.1747 68.7035 77.5884 68.3229 78.0022 67.941C79.4453 66.5692 80.829 65.1386 82.2627 63.7567C83.2533 62.8323 84.3071 61.8505 85.5302 61.2161L74.5053 20.381C78.9946 17.7585 83.6321 15.3629 88.4027 13.2092L101.378 73.6216C101.481 73.521 101.583 73.4197 101.685 73.3166C102.029 72.946 102.357 72.5641 102.636 72.1416C102.871 71.7872 103.079 71.411 103.231 71.0135C103.574 70.116 103.609 69.1504 103.589 68.2004C103.537 67.0704 103.399 65.9479 103.328 64.8192C103.286 63.8048 103.287 62.7442 103.701 61.7961C104.319 60.3767 105.846 59.6405 107.254 59.2205C107.536 59.1361 107.823 59.0636 108.111 58.9999C108.558 58.9005 109.011 58.8243 109.465 58.7636L109.574 58.7493L101.097 8.1649C105.429 6.66992 109.849 5.36806 114.348 4.26995L120.872 58.3918C121.683 58.3568 122.152 58.3411 123.27 58.3005C124.911 58.2505 126.552 58.2055 128.194 58.183C129.337 58.1668 130.495 58.1924 131.637 58.1543C131.845 58.1399 132.051 58.123 132.258 58.1049L128.113 1.58811C132.913 0.884989 137.786 0.409995 142.721 0.174373L144.438 70.8729C144.569 71.0066 144.691 71.151 144.804 71.3079C145.094 71.711 145.274 72.2016 145.432 72.6666C145.823 73.8166 145.993 75.0309 146.089 76.2372C146.131 76.7615 146.159 77.2872 146.178 77.8128C146.21 78.6509 146.231 79.4896 146.276 80.3278C146.313 80.8546 146.359 81.3802 146.411 81.9065C146.559 83.2821 146.718 84.6558 146.851 86.0333C146.879 86.3664 146.906 86.6989 146.931 87.032L146.962 87.0202C147.228 86.9039 147.484 86.7739 147.738 86.632C148.794 86.0108 149.739 85.2258 150.663 84.4258C151.507 83.6952 152.337 82.9496 153.189 82.2284C153.646 81.8521 153.644 81.854 154.109 81.4852C154.589 81.1221 155.079 80.7702 155.583 80.4459L157.624 0.191248C162.44 0.43312 167.197 0.901864 171.883 1.58811L166.284 77.9372C168.564 77.7215 170.859 77.5759 173.148 77.7134C174.348 77.7853 175.563 77.9315 176.731 78.2434L185.648 4.26995C190.148 5.36868 194.569 6.67054 198.899 8.1649L186.072 84.7102C187.062 84.6439 188.053 84.5877 189.043 84.5389C189.941 84.5033 190.328 84.4833 191.228 84.4652C192.443 84.4408 193.663 84.4364 194.876 84.5227C195.329 84.5552 195.791 84.5952 196.246 84.6702L211.594 13.2092C216.364 15.3629 221.001 17.7585 225.491 20.381L206.457 90.8814C206.609 90.9476 206.759 91.0182 206.909 91.0901C207.623 91.4307 208.314 91.8114 208.987 92.2282C210.989 93.4688 212.751 95.1738 213.872 97.2582C213.966 97.4325 214.055 97.6088 214.139 97.7875L236.453 27.4403C240.266 30.1353 243.947 33.004 247.486 36.0339L211.995 132.129C212.339 132.757 212.558 133.449 212.609 134.174C212.642 134.648 212.582 135.1 212.521 135.568C212.475 135.926 212.439 136.285 212.404 136.643C212.342 137.426 212.342 137.423 212.297 138.205C212.118 142.706 212.445 147.198 212.939 151.669L257.861 45.8051C261.293 49.3569 264.552 53.0781 267.623 56.9549L220.534 154.252C221.926 154.843 223.174 155.712 224.04 156.994C224.353 157.459 224.606 157.964 224.787 158.496C224.983 159.074 225.092 159.679 225.098 160.289C225.102 160.618 225.076 160.946 225.022 161.269L275.52 67.8935C278.406 72.2947 281.067 76.8565 283.487 81.5627L221.317 183.295C221.76 183.656 222.228 183.988 222.705 184.308C223.803 185.021 224.94 185.672 226.044 186.376C226.146 186.443 226.248 186.511 226.35 186.58L288.988 93.5338C290.815 98.02 292.43 102.614 293.823 107.304L230.795 191.747C230.913 192.081 231.011 192.423 231.093 192.769C231.43 194.194 231.432 195.651 231.561 197.103C232.045 197.337 232.56 197.511 233.056 197.717L233.123 197.748L296.856 119.35C297.977 124.738 298.808 130.233 299.333 135.815L222.627 220.146C222.616 220.404 222.608 220.662 222.604 220.92C222.592 221.658 222.607 222.397 222.656 223.132L222.853 223.112C223.473 223.063 223.47 223.063 224.092 223.026C224.725 223.002 224.723 222.997 225.355 222.997C225.451 222.997 225.548 223 225.645 223.003L299.973 147.351L299.983 148.011C299.992 148.673 299.996 149.335 299.996 149.998C299.996 154.025 299.838 158.015 299.524 161.961L230.465 225.713C230.438 225.898 230.407 226.08 230.38 226.255C230.322 226.75 230.31 227.875 230.292 228.365C230.253 229.365 230.221 230.364 230.184 231.364C230.153 231.812 230.102 232.208 229.923 232.62C229.89 232.696 229.85 232.768 229.805 232.836L297.816 175.603L297.628 176.669C296.671 181.995 295.431 187.223 293.926 192.338L206.347 257.847H210.584L290.674 202.13L290.348 202.999C288.706 207.341 286.868 211.587 284.845 215.726L217.444 257.847H223.605L279.365 225.918L279.058 226.437C272.124 238.111 263.652 248.766 253.922 258.121L260.711 266.084V299.996ZM256.961 269.834H48.8325V296.246H256.961V269.834ZM193.502 287.972C193.502 288.778 193.149 289.88 192.443 291.278C191.764 292.622 191.069 293.65 190.357 294.362C189.893 294.362 189.272 294.201 188.492 293.878C187.713 293.556 187.155 293.23 186.819 292.901C188.035 292.343 189.121 291.695 190.075 290.955C191.197 290.088 191.862 289.306 192.071 288.607C191.768 287.767 191.146 287.031 190.206 286.4L191.597 283.708C192.094 284.138 192.536 284.79 192.922 285.663C193.309 286.537 193.502 287.306 193.502 287.972ZM253.447 291.651L251.824 293.183L250.231 291.59L251.884 290.078L253.447 291.651ZM207.189 291.51L205.567 293.042L203.974 291.449L205.627 289.937L207.189 291.51ZM77.7003 275.645H79.889V285.016C79.889 286.241 79.8096 287.184 79.6515 287.843C79.439 288.705 79.0534 289.397 78.494 289.919C77.9353 290.44 77.1984 290.701 76.2834 290.701C75.2103 290.701 74.3841 290.293 73.8053 289.475C73.2266 288.656 72.9353 287.456 72.9303 285.875L74.9997 285.551C75.0247 286.4 75.1159 286.999 75.2747 287.349C75.5122 287.881 75.8728 288.146 76.3578 288.146C76.8472 288.146 77.1934 287.956 77.3965 287.576C77.599 287.196 77.7003 286.406 77.7003 285.208V275.645ZM92.0339 290.449H89.6445L88.6951 287.086H84.3477L83.4502 290.449H81.1202L85.3564 275.645H87.6789L92.0339 290.449ZM71.706 278.15H65.8379V281.432H71.2979V283.926H65.8379V287.955H71.9135V290.449H63.6417V275.645H71.706V278.15ZM95.4019 290.449H93.2057V275.645H97.8275C98.99 275.645 99.8344 275.778 100.361 276.044C100.888 276.31 101.31 276.783 101.626 277.463C101.942 278.143 102.101 278.92 102.101 279.796C102.101 280.907 101.861 281.823 101.381 282.547C100.902 283.271 100.184 283.727 99.23 283.916C99.705 284.293 100.097 284.706 100.406 285.158C100.715 285.608 101.132 286.41 101.656 287.561L102.984 290.449H100.358L98.77 287.228C98.2063 286.076 97.8207 285.351 97.6125 285.051C97.405 284.752 97.185 284.546 96.9525 284.436C96.72 284.325 96.3513 284.269 95.8469 284.269H95.4019V290.449ZM113.979 290.449H111.59L110.64 287.086H106.292L105.395 290.449H103.066L107.302 275.645H109.624L113.979 290.449ZM121.88 278.15H118.66V290.449H116.464V278.15H113.237V275.645H121.88V278.15ZM131.227 290.449H127.525V275.645H131.873C132.733 275.645 133.375 275.694 133.798 275.792C134.221 275.89 134.599 276.093 134.933 276.403C135.267 276.712 135.545 277.125 135.768 277.64C135.99 278.155 136.101 278.732 136.101 279.372C136.101 280.065 135.965 280.701 135.69 281.28C135.415 281.859 135.043 282.293 134.573 282.583C135.236 282.845 135.745 283.293 136.101 283.926C136.458 284.558 136.636 285.302 136.636 286.157C136.636 286.83 136.521 287.485 136.291 288.121C136.061 288.758 135.746 289.266 135.348 289.646C134.95 290.026 134.46 290.26 133.876 290.348C133.51 290.402 132.627 290.435 131.227 290.449ZM148.298 290.449H145.909L144.959 287.086H140.612L139.715 290.449H137.385L141.621 275.645H143.943L148.298 290.449ZM151.526 290.449H149.485V275.645H151.622L156.073 285.531V275.645H158.113V290.449H155.91L151.526 280.795V290.449ZM162.661 290.449H160.465V275.645H162.661V282.219L167.097 275.645H170.05L165.955 281.412L170.273 290.449H167.431L164.442 283.501L162.661 285.975V290.449ZM62.2249 278.15H59.0049V290.449H56.8093V278.15H53.5818V275.645H62.2249V278.15ZM239.164 288.415H238.509C237.763 288.415 237.055 288.153 236.382 287.629C236.013 287.34 235.536 286.82 234.951 286.067C234.366 285.314 233.9 284.8 233.55 284.525C233.59 284.766 233.61 285.018 233.61 285.281C233.61 285.623 233.573 285.986 233.5 286.369C232.901 287.23 231.931 287.814 230.586 288.123C229.74 288.318 228.578 288.415 227.099 288.415C225.09 288.415 223.736 288.274 223.037 287.992C222.016 287.582 221.505 286.715 221.505 285.391C221.505 284.202 221.918 282.959 222.745 281.662C223.061 281.635 223.262 281.746 223.35 281.995C222.96 282.633 222.765 283.248 222.765 283.839C222.765 284.686 223.245 285.227 224.207 285.462C224.751 285.596 225.883 285.663 227.603 285.663C229.189 285.663 230.348 285.603 231.08 285.482C231.739 285.375 232.3 285.156 232.764 284.827C231.985 283.523 230.627 282.431 228.692 281.551C228.732 280.187 228.84 279.042 229.014 278.114C231.924 276.475 234.716 275.366 237.39 274.788L236.181 277.388C235.24 277.617 234.024 278.037 232.532 278.648C231.343 279.132 230.483 279.518 229.952 279.808C231.006 280.204 232.216 280.93 233.58 281.985C234.091 282.381 234.719 282.962 235.465 283.728C236.137 284.42 236.628 284.877 236.936 285.099C237.447 285.469 237.981 285.653 238.54 285.653H239.568C241.026 285.653 241.754 285.435 241.754 284.998C241.754 284.696 241.375 284.031 240.616 283.003L242.168 280.886C242.934 281.907 243.317 282.976 243.317 284.091C243.082 285.516 242.759 286.483 242.349 286.994C241.59 287.941 240.528 288.415 239.164 288.415ZM249.384 288.415H248.729C247.446 288.415 246.609 287.885 246.219 286.823C245.958 286.104 245.783 284.501 245.696 282.015C245.655 280.785 245.605 279.932 245.544 279.455C245.43 278.527 245.215 277.704 244.899 276.985L246.744 275.05C247.053 275.54 247.244 276.297 247.318 277.318C247.345 277.687 247.359 278.47 247.359 279.667V282.64C247.359 283.526 247.423 284.172 247.55 284.575C247.779 285.294 248.236 285.653 248.921 285.653H249.788C251.246 285.653 251.975 285.435 251.975 284.998C251.975 284.696 251.596 284.031 250.836 283.003L252.388 280.886C253.154 281.907 253.537 282.976 253.537 284.091C253.302 285.516 252.979 286.483 252.57 286.994C251.811 287.941 250.749 288.415 249.384 288.415ZM186.053 283.668C186.053 283.984 185.861 284.551 185.478 285.371C185.096 286.191 184.783 286.698 184.541 286.893C184.246 287.128 183.321 287.424 181.77 287.78C179.922 288.203 178.212 288.415 176.639 288.415C174.529 288.415 173.078 288.002 172.285 287.175C171.781 286.651 171.528 285.875 171.528 284.847C171.528 283.45 171.928 282.133 172.728 280.896C172.762 280.89 172.798 280.886 172.839 280.886C173.135 280.886 173.34 281 173.454 281.228C173.044 282.196 172.839 282.935 172.839 283.446C172.839 284.931 174.438 285.674 177.637 285.674C180.54 285.674 182.814 285.328 184.461 284.635C184.178 283.903 183.809 283.231 183.352 282.62L184.884 280.543C185.193 280.927 185.472 281.481 185.72 282.207C185.942 282.851 186.053 283.338 186.053 283.668ZM200.285 288.415H198.904C197.621 288.415 196.784 287.885 196.394 286.823C196.133 286.104 195.958 284.501 195.871 282.015C195.83 280.785 195.779 279.932 195.719 279.455C195.605 278.527 195.39 277.704 195.074 276.985L196.919 275.05C197.228 275.54 197.419 276.297 197.493 277.318C197.52 277.687 197.534 278.47 197.534 279.667V282.64C197.534 283.526 197.598 284.172 197.725 284.575C197.953 285.294 198.411 285.653 199.096 285.653H200.729C201.824 285.653 202.721 285.543 203.42 285.321C203.897 285.173 204.794 284.77 206.111 284.111C203.551 283.103 202.106 282.6 201.777 282.6C201.481 282.6 201.242 282.693 201.061 282.881C200.9 283.043 200.678 283.392 200.396 283.93C200.289 283.977 200.191 284 200.104 284C199.923 284 199.778 283.91 199.67 283.728C200.128 282.539 200.477 281.719 200.719 281.269C201.169 280.422 201.602 279.999 202.019 279.999C202.287 279.999 203.21 280.352 204.786 281.057C206.361 281.763 207.509 282.116 208.227 282.116C209.021 282.116 210.257 281.955 211.937 281.632L210.869 284.071C209.988 284.165 209.262 284.273 208.691 284.393C209.094 285.233 209.874 285.653 211.03 285.653H213.167C214.625 285.653 215.354 285.435 215.354 284.998C215.354 284.696 214.974 284.031 214.215 283.003L215.767 280.886C216.533 281.907 216.916 282.976 216.916 284.091C216.681 285.516 216.359 286.483 215.949 286.994C215.189 287.941 214.127 288.415 212.764 288.415H211.927C210.791 288.415 209.887 288.076 209.216 287.397C208.678 286.853 208.211 285.98 207.814 284.776C205.664 286.295 204.384 287.169 203.974 287.397C202.758 288.076 201.528 288.415 200.285 288.415ZM131.495 283.996H129.722V287.955H131.754C132.545 287.955 133.048 287.925 133.26 287.864C133.586 287.783 133.853 287.586 134.058 287.273C134.263 286.96 134.366 286.541 134.366 286.016C134.366 285.571 134.286 285.195 134.128 284.885C133.97 284.575 133.741 284.35 133.442 284.208C133.143 284.067 132.494 283.996 131.495 283.996ZM144.255 284.592L142.756 279.099L141.288 284.592H144.255ZM87.9902 284.592L86.492 279.099L85.0227 284.592H87.9902ZM109.936 284.592L108.437 279.099L106.968 284.592H109.936ZM97.1157 278.15H95.4019V281.906H97.0263C98.08 281.906 98.7375 281.845 99 281.725C99.2619 281.603 99.4675 281.395 99.6156 281.098C99.7644 280.802 99.8381 280.432 99.8381 279.988C99.8381 279.489 99.7406 279.087 99.545 278.781C99.35 278.475 99.0744 278.281 98.7181 278.2C98.54 278.167 98.0057 278.15 97.1157 278.15ZM130.983 278.109H129.722V281.533H131.161C132.016 281.533 132.548 281.516 132.756 281.482C133.131 281.422 133.427 281.245 133.642 280.952C133.857 280.659 133.965 280.273 133.965 279.796C133.965 279.338 133.872 278.966 133.686 278.68C133.501 278.393 133.225 278.22 132.86 278.16C132.642 278.126 132.016 278.109 130.983 278.109ZM178.595 279.475L177.103 280.886L175.641 279.404L177.163 278.043L178.595 279.475ZM182.283 279.283L180.791 280.685L179.33 279.213L180.862 277.842L182.283 279.283ZM243.468 277.902L241.845 279.435L240.253 277.842L241.906 276.33L243.468 277.902ZM218.347 277.983L216.957 279.374L215.545 278.134L214.255 279.435L212.774 278.134L214.164 276.713L215.575 277.973L216.865 276.653L218.347 277.983ZM134.431 257.847L126.613 236.677L126.432 236.647L125.872 236.541C125.598 236.465 125.364 236.381 125.145 236.193C124.653 235.772 124.471 235.07 124.696 234.463C124.796 234.193 124.96 234.005 125.161 233.805L125.46 233.556L122.885 226.583C122.637 226.748 122.369 226.88 122.085 226.991C121.714 227.135 121.328 227.238 120.938 227.311C120.737 227.348 120.537 227.376 120.333 227.395C119.967 227.43 119.579 227.436 119.193 227.4L132.113 257.847H134.431ZM136.628 257.847H138.618L133.08 237.333C132.069 237.284 131.061 237.216 130.054 237.121L136.628 257.847ZM140.946 257.847H142.936L139.521 237.47L138.603 237.464L136.563 237.444L140.946 257.847ZM144.917 257.847H146.907L145.416 237.514L145.085 237.516C144.211 237.506 143.337 237.498 142.463 237.491L144.917 257.847ZM151.07 257.847L151.593 237.295C150.863 237.759 150.048 237.625 149.233 237.496C149.053 237.476 148.871 237.484 148.689 237.482L148.481 237.481L148.975 257.847H151.07ZM155.079 257.847L158.478 229.655C158.424 229.802 158.368 229.948 158.309 230.093C158.166 230.407 158.017 230.715 157.826 231.001C157.184 231.961 156.265 232.73 155.351 233.418C155.187 233.535 155.022 233.65 154.856 233.764L153.089 257.847H155.079ZM159.051 257.847L166.67 222.373C166.494 222.754 166.319 223.135 166.137 223.515C165.915 223.958 165.915 223.957 165.683 224.392C164.915 225.72 163.945 227.135 162.375 227.542C162.294 227.563 162.212 227.581 162.13 227.595L157.061 257.847H159.051ZM161.378 257.847H163.368L172.066 230.426C171.927 230.323 171.8 230.207 171.691 230.07C171.475 229.8 171.339 229.467 171.241 229.139C171.019 228.389 171.041 227.597 171.152 226.83C171.179 226.648 171.221 226.408 171.257 226.228C171.338 225.821 171.428 225.416 171.502 225.008C171.629 224.165 171.723 223.317 171.813 222.47C171.916 221.412 171.993 220.353 171.987 219.289C171.985 219.063 171.98 218.837 171.972 218.61L161.378 257.847ZM165.565 257.847H167.884L177.986 234.04C177.814 234.008 177.645 233.963 177.48 233.896C176.78 233.618 176.245 233.04 176.02 232.321C175.91 231.973 175.883 231.612 175.872 231.249L175.868 231.135C175.728 231.117 175.588 231.101 175.447 231.089L165.565 257.847ZM170.397 257.847H172.792L184.708 235.813C183.9 235.79 183.094 235.724 182.297 235.57C181.962 235.506 181.621 235.437 181.297 235.325L170.397 257.847ZM178.373 257.847L193.32 235.644C191.977 235.665 190.634 235.666 189.291 235.7L175.756 257.847H178.373ZM184.263 257.847L202.647 235.234L202.539 235.241C201.078 235.328 199.616 235.41 198.153 235.479L181.458 257.847H184.263ZM191.409 257.847L214.396 234.451C213.527 234.508 212.658 234.56 211.789 234.619L209.309 234.788L188.335 257.847H191.409ZM200.084 257.847L229.143 233.393C228.695 233.615 228.152 233.701 227.689 233.734C227.577 233.742 227.463 233.747 227.35 233.75C227.133 233.755 226.909 233.751 226.693 233.742C226.378 233.73 226.102 233.707 225.78 233.682C225.396 233.651 225.014 233.614 224.628 233.604C223.997 233.615 223.366 233.671 222.737 233.718C222.39 233.746 222.043 233.776 221.697 233.807L195.656 257.847H200.084ZM123.105 222.627C123.143 222.623 123.181 222.62 123.22 222.618C123.476 222.621 123.474 222.62 123.731 222.642C123.804 222.652 123.877 222.664 123.95 222.678L123.97 222.682C124.039 222.695 124.108 222.71 124.176 222.725L124.206 222.732C124.272 222.748 124.338 222.765 124.403 222.782L124.477 222.803L124.549 222.825L124.645 222.853L124.72 222.877L124.784 222.9L124.867 222.927L124.958 222.96L125.085 223.009L125.195 223.053L125.302 223.098L125.427 223.153L125.515 223.193L125.657 223.26C126.172 223.509 126.666 223.81 127.142 224.13C127.995 224.702 128.836 225.335 129.483 226.14C130.838 227.828 131.191 230.054 130.597 232.116C130.407 232.776 130.147 233.396 129.741 233.952L129.734 233.96C130.563 234.046 131.393 234.111 132.223 234.161L132.336 234.168L133.06 234.207L133.262 234.216L134.014 234.249L134.906 234.28L135.815 234.303L136.491 234.318C137.326 234.328 138.161 234.335 138.997 234.341L142.086 234.363C143.091 234.37 144.095 234.379 145.099 234.391L145.991 234.384L147.601 234.363L147.664 234.362C148.019 234.358 148.373 234.356 148.728 234.357C149.188 234.367 149.186 234.348 149.643 234.396L149.756 234.415C149.819 234.213 149.89 234.019 149.971 233.823C150.156 233.453 150.377 233.136 150.694 232.866C151.033 232.61 151.375 232.36 151.723 232.116L152.616 231.513L153.06 231.209L153.501 230.9C153.759 230.705 154.009 230.506 154.256 230.297L154.508 230.064L154.632 229.947L154.756 229.825L154.877 229.7L154.931 229.64L154.992 229.57L155.044 229.508L155.101 229.437L155.181 229.332L155.227 229.264C155.389 229.022 155.493 228.738 155.591 228.465C155.712 228.129 155.829 227.792 155.957 227.458C156.08 227.162 156.079 227.165 156.216 226.875C156.426 226.49 156.651 226.127 156.956 225.81C157.532 225.213 158.274 224.848 159.076 224.69L159.216 224.665C159.268 224.655 159.322 224.647 159.376 224.64C160.069 224.548 160.772 224.633 161.463 224.541C161.56 224.524 161.66 224.507 161.744 224.453L161.85 224.368L161.953 224.277L161.987 224.245L162.084 224.147L162.176 224.047L162.265 223.941L162.352 223.831L162.382 223.792L162.464 223.678L162.539 223.568L162.657 223.382L162.744 223.238L162.831 223.087L162.89 222.983C162.977 222.826 163.06 222.668 163.142 222.517C163.61 221.583 164.024 220.624 164.484 219.686C164.752 219.172 165.052 218.677 165.323 218.164C165.646 217.553 165.956 216.935 166.29 216.33C166.48 216.007 166.674 215.689 166.886 215.38C167.124 215.051 167.372 214.734 167.651 214.439C167.891 214.185 168.147 213.947 168.419 213.728L168.549 213.627L168.639 213.557L168.739 213.483L168.865 213.393L168.934 213.346L169.097 213.237L169.114 213.226C169.186 213.179 169.259 213.132 169.333 213.087C170.35 212.462 171.599 211.841 172.797 212.314C173.067 212.42 173.319 212.595 173.537 212.784L173.543 212.789C173.768 212.985 173.963 213.214 174.127 213.462C174.375 213.84 174.548 214.265 174.67 214.699C174.899 215.517 174.935 216.369 175.007 217.21C175.079 218.067 175.121 218.92 175.11 219.78C175.1 220.525 175.058 221.268 174.995 222.01L174.993 222.035L174.991 222.059C174.977 222.224 174.962 222.389 174.947 222.553C174.927 222.755 174.906 222.958 174.884 223.16L174.862 223.351L174.83 223.643L174.812 223.793L174.801 223.885L174.785 224.011L174.765 224.178L174.73 224.448L174.716 224.567L174.626 225.247C174.535 225.931 174.355 226.599 174.245 227.28C174.22 227.47 174.202 227.655 174.195 227.847L174.196 227.879C174.661 227.922 175.13 227.932 175.595 227.962L175.837 227.985L176.006 228.003L176.211 228.028L176.318 228.044L176.415 228.059L176.557 228.085C176.78 228.127 176.999 228.183 177.213 228.262C177.975 228.542 178.577 229.11 178.832 229.887C178.948 230.242 178.98 230.61 178.99 230.98L179.287 230.975L179.345 230.974L179.492 230.973L179.698 230.976C180.342 231.023 180.919 231.191 181.437 231.584C181.59 231.7 181.731 231.83 181.868 231.964C182.003 232.097 182.133 232.256 182.293 232.363L182.39 232.393L182.488 232.419L182.682 232.463C182.821 232.491 182.963 232.515 183.101 232.54C184.229 232.715 185.37 232.728 186.511 232.692L186.771 232.684L187.16 232.668L188.739 232.595L189.145 232.578C189.277 232.574 189.41 232.57 189.542 232.566L189.551 232.566C190.751 232.554 191.951 232.547 193.152 232.528C193.982 232.506 194.811 232.481 195.641 232.45L196.558 232.415L196.835 232.404L198.002 232.354L198.117 232.348L199.194 232.297L199.436 232.285L200.816 232.213C202.322 232.123 203.828 232.028 205.334 231.929L208.722 231.704L215.282 231.262C216.134 231.198 216.985 231.122 217.836 231.04C218.691 230.958 219.545 230.872 220.4 230.791L220.692 230.763L221.06 230.729L221.305 230.705L221.593 230.68L221.684 230.671C221.954 230.648 222.225 230.624 222.495 230.602C223.122 230.557 223.748 230.517 224.376 230.483L224.543 230.482H224.6L224.712 230.484L224.824 230.487L225.047 230.495L225.271 230.508C225.865 230.544 226.458 230.61 227.054 230.626H227.078C227.097 229.473 227.166 228.319 227.21 227.167L227.258 226.067C226.963 226.085 226.669 226.108 226.373 226.123L226.078 226.137C225.864 226.135 225.65 226.132 225.437 226.129L225.116 226.127C225.009 226.126 224.902 226.126 224.795 226.127L224.481 226.14L224.178 226.157L223.567 226.197L223.268 226.222L222.921 226.25L222.593 226.281C221.597 226.375 220.604 226.492 219.607 226.588C218.994 226.639 218.997 226.639 218.382 226.679C217.86 226.701 217.339 226.717 216.816 226.712L216.659 226.708L216.567 226.706L216.547 226.705C216.491 226.703 216.429 226.7 216.316 226.693C215.722 226.632 215.163 226.467 214.618 226.225C213.989 225.946 213.404 225.579 212.774 225.303C212.6 225.235 212.435 225.187 212.254 225.14L212.098 225.111L211.941 225.085L211.88 225.075L211.784 225.062L211.627 225.041L211.509 225.027L211.309 225.005L210.989 224.976C210.572 224.94 210.155 224.913 209.741 224.867C209.387 224.816 209.39 224.816 209.04 224.752C208.661 224.662 208.29 224.563 207.93 224.412C207.549 224.251 207.184 224.062 206.828 223.857L206.803 223.843C206.704 223.786 206.605 223.727 206.506 223.667L206.495 223.66L206.296 223.537L206.215 223.487L206.185 223.468L206.147 223.443L206.071 223.395L205.986 223.34L205.869 223.265L205.677 223.138L205.627 223.106L205.57 223.068L205.554 223.058L205.076 222.742L204.817 222.573L204.659 222.471L204.579 222.42L204.291 222.24C204.002 222.075 203.711 221.918 203.406 221.784L203.269 221.731L203.233 221.718L203.161 221.693L203.016 221.646L202.963 221.629C202.541 221.503 202.11 221.43 201.666 221.364C201.174 221.29 200.679 221.231 200.184 221.184C199.558 221.124 198.928 221.078 198.295 221.051L198.244 221.049L197.888 221.037L197.808 221.035L197.524 221.029L197.428 221.028L197.136 221.026L197.062 221.025L196.698 221.029L196.64 221.03L196.342 221.037L196.224 221.042L195.981 221.052L195.854 221.058L195.494 221.08L195.139 221.108L194.731 221.148L194.61 221.162L194.306 221.198L194.193 221.212L193.795 221.265L193.189 221.354C192.641 221.437 192.095 221.523 191.547 221.595C191.058 221.651 191.06 221.65 190.568 221.697C189.615 221.762 188.665 221.782 187.715 221.659C186.967 221.562 186.278 221.393 185.621 221.009L185.513 220.944L185.486 220.927L185.47 220.917L185.448 220.904L185.407 220.877L185.378 220.857L185.321 220.821L185.225 220.753L185.199 220.737L185.19 220.73C185.13 220.687 185.07 220.644 185.01 220.599L184.997 220.589L184.967 220.565L184.894 220.51L184.825 220.455L184.799 220.435L184.782 220.42L184.756 220.4L184.711 220.362L184.605 220.276L184.52 220.203L184.485 220.174L184.451 220.145L184.414 220.114L184.338 220.047L184.218 219.943L184.036 219.782C183.831 219.602 183.626 219.421 183.417 219.248C182.587 218.602 181.693 218.044 180.848 217.419C180.757 217.347 180.666 217.275 180.577 217.202L180.503 217.142L180.433 217.084L180.417 217.07C180.355 217.02 180.295 216.969 180.235 216.917L180.2 216.886L180.068 216.77L180.05 216.754L180.032 216.737L179.905 216.62L179.868 216.586L179.837 216.557L179.8 216.522L179.744 216.468L179.688 216.412L179.648 216.372L179.622 216.346L179.587 216.31L179.463 216.181L179.45 216.167C179.394 216.107 179.339 216.045 179.284 215.983C179.232 215.922 179.18 215.861 179.128 215.799L179.115 215.783L179.08 215.74L179.01 215.654L178.977 215.609L178.952 215.579L178.923 215.54L178.88 215.484L178.827 215.412L178.795 215.369L178.777 215.344L178.753 215.311L178.645 215.155L178.638 215.147C178.594 215.08 178.55 215.014 178.507 214.947L178.501 214.938L178.475 214.895L178.4 214.777L178.38 214.742L178.363 214.716L178.336 214.668L178.291 214.593L178.257 214.532L178.232 214.49L178.213 214.454L178.187 214.407L178.137 214.313L178.108 214.26L178.098 214.24L178.087 214.219L177.999 214.045L177.99 214.028L177.982 214.01L177.899 213.835L177.89 213.814L177.88 213.792L177.854 213.732L177.813 213.64L177.793 213.594L177.775 213.552L177.755 213.502L177.73 213.442L177.702 213.369L177.678 213.31L177.665 213.275L177.653 213.243L177.613 213.133L177.588 213.065L177.583 213.049L177.58 213.042C177.497 212.804 177.423 212.56 177.359 212.314C177.057 211.153 176.96 209.953 176.768 208.771C176.718 208.503 176.663 208.239 176.596 207.975C176.483 207.605 176.357 207.234 176.107 206.932C175.884 206.662 175.583 206.487 175.26 206.368L175.11 206.317L175.099 206.314L174.953 206.273L174.927 206.266L174.786 206.233L174.595 206.195C174.337 206.149 174.076 206.121 173.815 206.115L173.658 206.114C173.553 206.115 173.448 206.12 173.343 206.128C172.278 206.212 171.285 206.642 170.344 207.119L169.901 207.357C168.932 207.886 167.99 208.462 167.021 208.991C166.396 209.316 165.755 209.603 165.102 209.859L165.094 209.862L165.077 209.869L164.993 209.901L164.835 209.961L164.791 209.977L164.745 209.995L164.665 210.024L164.567 210.06L164.482 210.09L164.411 210.116L164.355 210.136L164.299 210.156L164.16 210.202L164.075 210.232L164.049 210.241C163.95 210.274 163.85 210.307 163.752 210.339L163.738 210.343L163.66 210.367L163.484 210.423L163.442 210.436L163.399 210.449L163.315 210.474L163.21 210.506L163.13 210.53L163.059 210.551L162.997 210.569L162.936 210.586L162.809 210.622L162.717 210.648L162.682 210.657L162.66 210.664L162.424 210.727L162.373 210.741L162.27 210.767L162.107 210.81L162.077 210.817L162.029 210.83L161.922 210.856L161.829 210.879L161.795 210.887C161.622 210.929 161.45 210.97 161.277 211.009L161.271 211.011L161.257 211.014L160.988 211.073L160.711 211.132L160.639 211.147C159.256 211.434 157.856 211.643 156.465 211.82C156.334 211.837 156.202 211.854 156.072 211.87C155.606 211.929 155.139 211.984 154.672 212.04C154.465 212.064 154.256 212.089 154.046 212.111L154.031 212.112L153.929 212.123L153.763 212.14L153.737 212.142L153.708 212.145L153.603 212.154L153.457 212.167L153.423 212.17L153.384 212.173L153.281 212.18L153.151 212.19L153.107 212.192L153.059 212.195L152.959 212.2L152.844 212.206L152.792 212.208L152.734 212.21L152.639 212.213L152.537 212.216L152.477 212.217L152.409 212.218L152.321 212.217L152.231 212.218C151.317 212.213 150.413 212.085 149.559 211.716C148.918 211.438 148.351 211.062 147.829 210.628L147.804 210.607L147.729 210.544L147.651 210.475L147.626 210.455L147.612 210.442C147.489 210.334 147.369 210.223 147.251 210.109L147.234 210.092L147.208 210.067L147.148 210.009L147.066 209.928L147.008 209.869L146.968 209.829L146.854 209.713L146.768 209.622L146.732 209.584L146.706 209.556C146.627 209.472 146.549 209.388 146.471 209.304L146.461 209.293L146.426 209.253L146.305 209.121L146.255 209.064L146.194 208.997L145.969 208.742L145.947 208.717L145.937 208.706L145.931 208.699L145.527 208.239L145.308 207.991L145.179 207.846L145.117 207.777L144.877 207.514C144.676 207.308 144.471 207.109 144.256 206.918L144.121 206.809L144.075 206.774L143.984 206.706L143.926 206.664L143.845 206.606L143.779 206.562L143.703 206.511L143.63 206.466L143.559 206.421L143.478 206.372L143.413 206.334L143.322 206.284L143.264 206.252L143.161 206.198C141.93 205.561 140.506 205.295 139.156 205.039L138.253 204.867L138.163 204.85C137.893 204.799 137.623 204.746 137.352 204.692C136.829 204.578 136.31 204.458 135.793 204.318C135.7 204.291 135.607 204.264 135.515 204.235L135.493 204.228L135.427 204.207L135.296 204.165L135.24 204.146L135.197 204.132L135.137 204.112L135.05 204.082L134.963 204.051L134.903 204.031L134.86 204.015L134.806 203.996L134.681 203.949L134.611 203.924L134.588 203.914L134.564 203.906L134.356 203.824L134.323 203.811L134.278 203.793L134.085 203.714L134.065 203.705L134.036 203.693L133.848 203.612C132.965 203.226 132.118 202.761 131.304 202.228C130.341 201.597 129.435 200.888 128.553 200.149L128.53 200.13L128.483 200.091L128.284 199.923L128.206 199.857L128.184 199.838L128.145 199.806L127.861 199.562L127.847 199.55L127.328 199.101L127.174 198.967L127.145 198.943L127.14 198.938L126.485 198.367L125.802 197.778L125.239 197.309L125.036 197.141L124.678 196.847L123.492 195.873L123.19 195.625L122.514 195.069L122.409 194.982L122.335 194.921L121.968 194.616L121.883 194.545L121.76 194.443L121.587 194.296L121.423 194.159L121.187 193.96C120.154 193.068 119.137 192.158 118.172 191.192C117.589 190.61 116.999 190.026 116.524 189.351C115.711 188.196 115.183 186.858 114.797 185.506C114.285 183.719 114.01 181.865 113.84 180.015C113.782 179.375 113.782 178.73 113.737 178.089C113.71 177.82 113.68 177.553 113.625 177.289C113.564 177.039 113.492 176.762 113.301 176.577C113.231 176.519 113.158 176.483 113.071 176.461C112.807 176.412 112.53 176.46 112.269 176.505C111.868 176.573 111.47 176.657 111.068 176.72C110.92 176.737 110.775 176.752 110.63 176.762L110.601 176.764L110.532 176.768L110.492 176.771L110.475 176.772C110.416 176.775 110.357 176.778 110.298 176.779C109.999 176.775 109.704 176.757 109.41 176.697C109.021 176.617 108.633 176.468 108.262 176.34C107.287 176.002 106.321 175.533 105.684 174.691C105.288 174.166 105.107 173.519 104.833 172.93L104.794 172.852C104.627 172.785 104.457 172.728 104.279 172.705L104.206 172.698L104.187 172.697L104.121 172.695L104.052 172.698L103.959 172.708L103.867 172.728L103.839 172.735L103.772 172.755L103.749 172.762L103.663 172.795L103.644 172.804L103.578 172.835L103.55 172.849L103.489 172.882L103.466 172.895L103.392 172.941L103.272 173.023L103.256 173.036L103.141 173.124C103.024 173.218 102.913 173.32 102.806 173.417C102.337 173.884 101.916 174.392 101.464 174.873C100.823 175.523 100.148 176.14 99.5256 176.808C99.38 176.972 99.24 177.138 99.105 177.311C98.89 177.61 98.6906 177.918 98.495 178.23L98.3963 178.39L98.2863 178.567L98.1075 178.856L98.015 179.004L97.9607 179.092L97.9413 179.122L97.9125 179.168L97.8063 179.333L97.7382 179.44L97.7225 179.463L97.7132 179.477L97.6988 179.498L97.6238 179.612L97.5075 179.782C97.3357 180.018 97.1594 180.248 96.9738 180.473C96.7269 180.754 96.4807 181.027 96.1819 181.254C95.7069 181.615 95.1607 181.876 94.6207 182.125C94.3588 182.246 94.0951 182.363 93.8326 182.482L93.6763 182.553L93.287 182.734L93.2545 182.749C93.1057 182.82 92.9576 182.893 92.8107 182.968C92.6238 183.073 92.4432 183.181 92.2732 183.311C92.2264 183.351 92.227 183.35 92.1832 183.393C92.1364 183.609 92.0995 183.826 92.0632 184.045L92.0289 184.275C92.1439 184.467 92.2395 184.665 92.3326 184.868C92.4964 185.263 92.6151 185.677 92.7838 186.07C92.8951 186.207 93.0363 186.317 93.1732 186.426C93.5113 186.683 93.8576 186.927 94.1876 187.194C94.3988 187.38 94.3969 187.378 94.5994 187.575C94.8119 187.808 94.8101 187.807 95.0063 188.055C95.2144 188.365 95.4026 188.683 95.5888 189.007C96.5069 190.664 97.2369 192.411 98.0582 194.116C98.3013 194.593 98.5475 195.064 98.8156 195.528C99.3494 196.412 99.9525 197.247 100.685 197.972L100.833 198.114L100.874 198.154L101.021 198.288C102.159 199.306 103.521 200.055 104.902 200.689L105.437 200.93L105.604 201.004L105.917 201.141L106.698 201.479L107.621 201.874L107.649 201.886C107.932 202.007 108.216 202.13 108.499 202.254L108.527 202.266C108.888 202.424 109.247 202.584 109.604 202.749C110.008 202.942 110.409 203.141 110.807 203.346C111.42 203.677 112.035 204.011 112.592 204.434C113.767 205.329 114.758 206.471 115.654 207.636C115.81 207.838 115.964 208.042 116.114 208.25L116.204 208.372L116.259 208.451L116.326 208.544L116.406 208.659L116.469 208.748L116.549 208.864C116.611 208.957 116.673 209.05 116.734 209.144L116.85 209.324L116.945 209.475C117.001 209.566 117.056 209.657 117.11 209.749L117.207 209.916L117.318 210.117L117.386 210.244L117.47 210.405L117.539 210.542C117.569 210.605 117.599 210.667 117.629 210.731C118.011 211.548 118.284 212.412 118.477 213.292C118.5 213.395 118.521 213.499 118.542 213.602L118.59 213.858L118.608 213.958L118.639 214.142L118.663 214.293L118.683 214.427L118.712 214.628L118.757 214.984L118.792 215.301L118.818 215.571C118.914 216.607 118.945 217.649 118.974 218.688C119 219.629 119.059 220.566 119.093 221.505C119.118 222.202 119.087 222.899 119.12 223.596C119.137 223.814 119.15 224.034 119.198 224.248C119.707 224.39 120.304 224.268 120.795 224.132C120.877 224.105 120.874 224.106 120.955 224.077L121 224.058C121.042 223.952 121.089 223.847 121.143 223.746C121.254 223.572 121.362 223.4 121.52 223.263C121.555 223.232 121.59 223.203 121.627 223.176L121.715 223.11L121.805 223.048L121.903 222.988L122.003 222.933L122.105 222.883L122.208 222.837L122.314 222.797L122.421 222.76L122.53 222.729L122.641 222.701L122.785 222.671L122.892 222.653L123 222.638L123.105 222.627ZM127.32 228.502L127.738 229.818C127.692 229.356 127.554 228.909 127.32 228.502ZM96.3313 79.5334C95.8888 79.3471 95.4057 79.239 94.9507 79.1646L94.6413 79.119L94.5401 79.1065L94.3288 79.0821L94.2107 79.0703L94.0138 79.0528L93.892 79.0434L93.6932 79.0309L93.5763 79.0246L93.3563 79.0165L93.2613 79.0134L92.9507 79.009H92.8713L92.6376 79.0109L92.5089 79.0134L92.3245 79.019L92.1807 79.024L92.0126 79.0321L91.8601 79.0403L91.542 79.0609L91.4164 79.0709C91.1664 79.0909 90.917 79.1146 90.6683 79.1421L90.3795 79.1753C90.1145 79.2071 89.8501 79.2421 89.5883 79.2796L89.3214 79.3221C89.4245 78.5403 89.5164 77.7578 89.6039 76.9734L89.652 76.4809L89.7008 75.9647L89.7608 75.3047L89.7995 74.8522L89.8208 74.5966L89.877 73.8753C89.922 73.1697 89.9645 72.4647 89.9901 71.7579C90.007 71.2829 90.0189 70.8022 90.022 70.3272C90.0251 69.8648 90.0208 69.3941 90.0064 68.9316C89.9901 68.4173 89.9714 68.1254 89.9326 67.6148C89.8583 66.6548 89.7308 65.6342 89.3408 64.7448C89.1358 64.2786 88.8277 63.8286 88.3114 63.7005C88.1502 63.6767 88.0095 63.6742 87.8477 63.688L87.7389 63.7105L87.7039 63.7186L87.632 63.7367L87.5908 63.7486L87.5264 63.7673L87.4839 63.7811L87.4214 63.8023L87.3795 63.8173L87.317 63.8411L87.2777 63.8567L87.2114 63.8842L87.177 63.8992L87.0877 63.9405L87.0783 63.9448L86.9114 64.0298L86.8902 64.0417L86.7477 64.123L86.6245 64.1986L86.5608 64.2386L86.3958 64.3486L86.3796 64.3598L86.1908 64.4948C85.5583 64.9567 84.9846 65.4911 84.4127 66.0248C83.1665 67.2254 81.9584 68.4641 80.7178 69.671C80.1353 70.2248 79.5484 70.7716 78.9446 71.3029C78.444 71.7435 77.9265 72.1666 77.3953 72.5697C76.9797 72.8853 76.5534 73.1878 76.1153 73.4716C75.7947 73.6791 75.4684 73.8766 75.1341 74.0609C74.0835 74.6397 72.9497 75.0972 71.7585 75.2791C71.5304 75.3141 71.3004 75.3391 71.071 75.3503L70.841 75.3559C70.5354 75.3566 70.2298 75.3284 69.9279 75.2584C69.4266 75.1422 68.9566 74.9228 68.5298 74.6378C67.5754 74.0016 66.836 73.0772 66.1686 72.1597L65.8792 71.7554L65.8492 71.7129L65.8329 71.6897L65.7729 71.6029C65.1429 70.7035 64.5467 69.7791 63.9148 68.881C63.5673 68.4054 63.2123 67.941 62.8411 67.4835C61.9561 66.4435 60.9655 65.4904 59.7593 64.8298C59.498 64.6867 59.2293 64.5579 58.9536 64.4448C58.8118 64.3867 58.6637 64.3167 58.5087 64.2986C58.1937 64.2611 57.8624 64.3504 57.5699 64.4592C56.9355 64.6954 56.3574 65.1048 55.9212 65.6211C55.5818 66.0223 55.3287 66.4948 55.1974 67.0048C55.1187 67.3098 55.0881 67.6248 55.0612 67.9379C55.0118 68.5148 54.9987 69.0948 55.0056 69.6741C55.0287 71.5635 55.2531 73.4516 55.5674 75.3128C55.8074 76.7303 56.1037 78.1403 56.4655 79.5328L56.4968 79.649L56.6449 80.1977L56.6656 80.2727L56.8218 80.8202L56.8437 80.8952L56.9812 81.3521L57.0243 81.4921L57.1912 82.0171C57.5437 83.1008 57.9418 84.1727 58.423 85.2058L58.588 85.5502L58.6436 85.6614L58.7599 85.8921L58.9005 86.1564L58.9249 86.2002L59.0843 86.482L59.1793 86.642L59.2161 86.7014C59.2955 86.8314 59.378 86.9602 59.4636 87.0858L59.5836 87.2589L59.6911 87.4064L59.7993 87.5495L59.9068 87.6858C59.9724 87.7677 60.0393 87.8477 60.108 87.9258L60.2861 89.8364L60.3418 90.4151L60.3718 90.7307L60.4618 91.6251C60.7374 93.9882 61.0661 96.4625 62.1692 98.6069C62.4417 99.1356 62.7748 99.6256 63.1273 100.104C63.6073 100.755 64.1042 101.391 64.6136 102.019L65.2529 102.801L65.3829 102.959L65.7167 103.361L66.731 104.582L66.866 104.744L67.2092 105.157L67.4385 105.434C67.6504 105.691 67.861 105.948 68.071 106.206C68.6735 106.962 69.2635 107.724 69.8429 108.497C70.2279 109.027 70.6085 109.561 70.9722 110.106C71.336 110.651 71.7022 111.179 71.9054 111.805C72.1491 112.56 72.231 113.364 72.2554 114.152C72.2847 115.084 72.2272 116.018 72.1254 116.944L72.1191 117.003L72.1185 117.012L72.1166 117.026L72.0685 117.434C71.6904 120.46 70.9304 123.443 70.0185 126.35C69.7454 127.22 69.4548 128.086 69.1448 128.944C68.9698 129.428 68.7373 129.908 68.6173 130.41C68.6017 130.498 68.5904 130.585 68.5841 130.675C68.5891 131.563 69.1248 132.277 69.6748 132.93C70.2791 133.61 70.9222 134.253 71.5129 134.946C71.7191 135.206 71.9279 135.471 72.0747 135.771C72.3172 136.267 72.3766 136.822 72.4116 137.365C72.441 138.047 72.4316 138.73 72.4616 139.411L72.4803 139.631L72.4847 139.674L72.5079 139.883C72.5522 140.243 72.6247 140.598 72.7578 140.939C72.9385 141.404 73.2253 141.779 73.576 142.089C73.7085 142.206 73.8503 142.314 73.9991 142.415L74.1603 142.519L74.3266 142.617L74.4947 142.709L74.6472 142.787L74.6891 142.807L74.8766 142.894L74.9391 142.923L75.1584 143.016L75.3903 143.108L75.4503 143.131L75.5622 143.172L75.7959 143.256L75.8859 143.288L76.1853 143.389C76.5472 143.51 76.714 143.557 77.0815 143.668C78.4465 144.059 79.8228 144.408 81.1871 144.8C81.3427 144.846 81.4984 144.893 81.6534 144.941L82.0665 145.069L82.1715 145.103L82.504 145.211L82.6609 145.263L82.7796 145.303L82.939 145.357L83.0452 145.394L83.1471 145.429L83.2508 145.466L83.3727 145.509L83.5033 145.558L83.6315 145.604L83.7158 145.636L83.8033 145.668L83.9577 145.728L84.1115 145.788L84.2446 145.841C84.5183 145.95 84.7908 146.065 85.0608 146.187C85.8914 146.561 86.6989 146.988 87.4627 147.486C87.8945 147.767 88.312 148.07 88.7114 148.396C89.0326 148.658 89.352 148.927 89.6089 149.256C90.4701 150.358 90.6295 151.853 90.6595 153.204C90.6664 153.524 90.6639 153.847 90.6576 154.167C90.6476 154.674 90.6264 155.093 90.6058 155.622C90.5783 156.329 90.5751 156.327 90.5589 157.034C90.5564 157.474 90.5645 157.909 90.5883 158.347C90.6658 159.263 90.8376 160.299 91.5864 160.921C91.8557 161.145 92.1826 161.252 92.4795 161.429C92.6332 161.541 92.6307 161.539 92.7745 161.664C93.3257 162.227 93.6601 162.937 93.912 163.677C94.1688 164.433 94.347 165.22 94.4757 166.007C94.7751 167.833 94.912 169.682 94.952 171.534L94.9619 172.075L94.9638 172.248V172.395L94.9663 172.685L94.9657 172.845L94.9663 172.945L94.9651 173.087L94.9644 173.294L94.9613 173.642L94.9594 173.758L94.9582 173.903L94.9526 174.175L94.9501 174.338L94.9482 174.42L94.9463 174.513L94.9369 174.868L94.9332 175.034L94.9313 175.076C94.9257 175.293 94.9182 175.512 94.9107 175.729L94.8826 176.317L95.6763 176.867L96.0419 176.28C96.1651 176.084 96.2888 175.89 96.4163 175.697L96.5588 175.503L96.7044 175.313L96.8269 175.158C96.885 175.085 96.945 175.012 97.0063 174.939C97.7532 174.098 98.6007 173.359 99.3688 172.54C99.6925 172.177 100.012 171.813 100.344 171.459C100.656 171.148 100.969 170.843 101.32 170.577C101.546 170.406 101.783 170.251 102.031 170.117L102.136 170.062L102.243 170.009L102.354 169.956L102.461 169.91L102.571 169.865L102.678 169.824L102.835 169.77L102.909 169.747L103.009 169.718L103.166 169.678L103.255 169.657L103.349 169.639L103.504 169.612L103.61 169.597L103.696 169.589C103.747 169.583 103.799 169.579 103.851 169.575C103.92 169.571 103.99 169.568 104.059 169.567L104.269 169.57C104.408 169.575 104.547 169.587 104.686 169.605C105.07 169.655 105.447 169.755 105.81 169.892C106.201 170.039 106.578 170.212 106.891 170.492C107.332 170.887 107.605 171.44 107.829 171.977C107.946 172.254 108.037 172.558 108.19 172.82C108.261 172.901 108.35 172.96 108.439 173.018C108.711 173.175 109.001 173.288 109.297 173.391C109.394 173.424 109.506 173.467 109.623 173.509L109.748 173.552L109.905 173.6C109.966 173.617 110.027 173.632 110.087 173.642C110.204 173.655 110.319 173.654 110.436 173.647C110.991 173.585 111.535 173.457 112.087 173.371C112.347 173.343 112.596 173.321 112.856 173.315C113.237 173.324 113.611 173.36 113.979 173.467C114.224 173.538 114.462 173.634 114.686 173.755C114.937 173.892 115.172 174.055 115.385 174.245C116.31 175.071 116.647 176.245 116.812 177.43C116.889 178.199 116.895 178.97 116.954 179.74C117.13 181.489 117.369 183.245 117.885 184.93C118.209 185.99 118.643 187.025 119.342 187.893C119.52 188.094 119.704 188.289 119.89 188.481L120.381 188.982L120.813 189.401L121.25 189.813L121.427 189.976L121.692 190.221L121.88 190.39L122.139 190.624L122.33 190.793L122.592 191.024L122.778 191.187L123.049 191.422L123.226 191.574L123.514 191.82L123.67 191.953L123.939 192.179L124.315 192.493L124.948 193.021L125.107 193.151C126.01 193.898 126.92 194.639 127.82 195.392C128.816 196.243 129.797 197.111 130.8 197.952C131.57 198.578 132.361 199.188 133.196 199.725L133.516 199.926L133.84 200.119L134.168 200.303L134.332 200.391L134.499 200.478L134.667 200.561L134.836 200.642L135.007 200.721L135.179 200.797L135.352 200.87L135.527 200.941L135.703 201.007L135.88 201.072L136.175 201.171L136.471 201.264L136.591 201.299L136.77 201.349L136.9 201.384L137.069 201.429L137.207 201.464L137.366 201.503L137.516 201.538L137.658 201.571L137.828 201.609L138.145 201.676C139.082 201.869 140.03 202.021 140.961 202.212C141.379 202.308 141.794 202.406 142.209 202.516C142.484 202.595 142.757 202.678 143.028 202.77L143.163 202.816L143.398 202.899L143.632 202.987L143.864 203.079L144.027 203.148L144.216 203.231L144.32 203.279L144.403 203.318L144.544 203.387L144.589 203.409L144.769 203.502C144.837 203.538 144.904 203.575 144.969 203.612L145.132 203.706L145.199 203.747L145.308 203.814L145.411 203.88L145.482 203.927L145.618 204.02L145.653 204.044L145.821 204.167L145.953 204.268L146.067 204.359C146.137 204.416 146.206 204.473 146.273 204.532L146.333 204.583L146.407 204.65L146.516 204.747L146.577 204.803L146.645 204.868L146.736 204.954L146.814 205.03L146.873 205.089L146.95 205.166L147.046 205.263L147.16 205.381L147.273 205.501L147.367 205.601L147.57 205.824L147.716 205.988C148.203 206.534 148.675 207.097 149.176 207.628C149.373 207.826 149.575 208.016 149.788 208.199C150.142 208.484 150.522 208.756 150.955 208.908C151.369 209.054 151.817 209.092 152.254 209.096L152.557 209.093L152.805 209.083L153.054 209.067L153.304 209.047L153.554 209.022L153.804 208.996L154.307 208.936C154.766 208.882 155.224 208.827 155.682 208.77L156.231 208.699L156.698 208.636C158.025 208.454 159.347 208.232 160.652 207.936C160.805 207.901 160.957 207.866 161.109 207.829L161.403 207.756L161.634 207.696L161.908 207.622L162.185 207.546L162.46 207.465L162.729 207.382L163.011 207.292L163.292 207.197L163.417 207.153L163.572 207.097L163.695 207.052L163.85 206.994L163.971 206.947L164.127 206.886L164.246 206.838L164.404 206.772L164.519 206.724L164.682 206.652L164.789 206.604L165.058 206.48L165.324 206.351C166.54 205.718 167.697 204.979 168.911 204.342C169.556 204.015 170.216 203.716 170.899 203.483L171.037 203.436L171.258 203.367L171.48 203.302L171.703 203.243L171.928 203.189L172.163 203.141C172.236 203.126 172.31 203.112 172.385 203.1L172.572 203.071L172.761 203.046L172.952 203.026L173.067 203.015L173.145 203.009L173.317 202.998C173.461 202.991 173.606 202.986 173.752 202.986H173.768L173.925 202.987L174.122 202.994L174.24 203L174.319 203.005L174.49 203.019C174.639 203.032 174.787 203.049 174.934 203.071L175.103 203.098L175.297 203.134L175.489 203.175L175.647 203.214C175.798 203.251 175.947 203.294 176.093 203.343C176.888 203.604 177.621 204.016 178.212 204.606C178.523 204.916 178.788 205.27 179.005 205.651C179.271 206.116 179.46 206.608 179.603 207.116L179.635 207.231L179.673 207.378C179.692 207.45 179.708 207.522 179.725 207.594C179.747 207.691 179.767 207.789 179.787 207.886L179.835 208.132L179.852 208.232L179.878 208.387L179.913 208.607L179.959 208.911L180.028 209.414L180.057 209.625L180.123 210.109L180.16 210.369L180.187 210.543L180.202 210.636L180.253 210.939C180.313 211.232 180.382 211.52 180.462 211.808L180.515 211.963L180.57 212.116L180.63 212.267L180.693 212.417L180.76 212.565L180.83 212.71L180.904 212.854L180.982 212.996L181.063 213.135L181.149 213.273L181.238 213.408L181.331 213.54L181.428 213.67L181.529 213.797L181.633 213.922L181.747 214.049C182.05 214.377 182.392 214.658 182.743 214.934C183.538 215.522 184.368 216.064 185.166 216.649L185.391 216.83L185.613 217.017L185.723 217.112C185.888 217.255 186.051 217.4 186.216 217.543L186.282 217.6L186.501 217.787L186.718 217.966L186.938 218.138C187.101 218.251 187.265 218.361 187.451 218.434C187.663 218.507 187.896 218.531 188.118 218.56L188.282 218.579L188.446 218.595L188.61 218.608L188.773 218.617L188.934 218.624L189.077 218.627L189.378 218.628L189.492 218.626C191.131 218.592 192.751 218.246 194.373 218.044C194.879 217.993 194.877 217.994 195.385 217.956C195.561 217.947 195.738 217.94 195.914 217.934L196.013 217.93C196.183 217.925 196.353 217.92 196.523 217.918L196.802 217.914L197.149 217.912C197.327 217.912 197.506 217.914 197.684 217.917L197.773 217.919C197.948 217.922 198.123 217.926 198.297 217.932L198.368 217.934C198.737 217.947 199.106 217.966 199.474 217.991L199.516 217.994C199.706 218.007 199.896 218.021 200.085 218.037C200.404 218.064 200.724 218.095 201.044 218.132C202.172 218.259 203.327 218.399 204.393 218.812L204.654 218.919L204.909 219.034L205.011 219.083L205.081 219.116L205.161 219.156L205.318 219.237L205.409 219.285L205.552 219.364L205.654 219.421L205.783 219.495L205.896 219.562L206.012 219.632L206.135 219.707L206.239 219.772L206.464 219.914L206.705 220.07L206.842 220.16L207.314 220.471L207.793 220.784L208.021 220.93L208.254 221.074L208.479 221.2L208.717 221.327C208.855 221.399 208.996 221.467 209.139 221.53C209.461 221.658 209.795 221.717 210.137 221.767C210.835 221.845 211.536 221.88 212.234 221.965C212.63 222.027 213.02 222.103 213.401 222.217L213.544 222.26L213.617 222.283L213.756 222.332L213.772 222.338C213.837 222.362 213.902 222.387 213.967 222.414C214.628 222.687 215.238 223.067 215.886 223.368C216.028 223.428 216.169 223.483 216.315 223.528C216.4 223.549 216.482 223.569 216.568 223.578C216.751 223.588 216.935 223.591 217.119 223.59L217.67 223.582C218.299 223.555 218.925 223.507 219.552 223.449C219.35 220.559 219.564 217.639 220.125 214.797C220.149 214.679 220.172 214.563 220.197 214.446L220.264 214.135L220.337 213.806L220.372 213.657C220.49 213.159 220.619 212.664 220.762 212.172C220.989 211.393 221.24 210.626 221.605 209.9C222.394 208.33 223.563 206.993 224.739 205.704C225.122 205.283 225.509 204.866 225.889 204.442C226.055 204.258 226.21 204.063 226.392 203.894C226.479 203.823 226.568 203.765 226.667 203.712C227.235 203.456 227.868 203.551 228.459 203.671L228.502 203.68C229.181 203.836 229.846 204.051 230.527 204.202C230.756 204.247 231.015 204.299 231.267 204.296L231.35 204.294C231.516 204.283 231.677 204.246 231.82 204.162C232.05 204.027 232.242 203.81 232.392 203.592C232.738 203.089 232.924 202.442 232.871 201.832C232.847 201.562 232.772 201.284 232.601 201.069C232.498 200.939 232.371 200.866 232.23 200.782C231.853 200.592 231.464 200.441 231.072 200.286C230.803 200.179 230.537 200.068 230.273 199.951C230.018 199.828 229.775 199.699 229.533 199.551C229.291 199.385 229.059 199.202 228.891 198.959C228.626 198.577 228.545 198.1 228.479 197.65C228.385 196.871 228.361 196.086 228.304 195.303L228.288 195.105L228.267 194.86L228.233 194.522C228.127 193.739 227.967 192.964 227.627 192.246L227.561 192.112L227.538 192.069L227.491 191.98L227.463 191.93L227.417 191.85L227.387 191.799L227.338 191.721L227.308 191.673L227.255 191.592L227.226 191.549L227.157 191.45L227.142 191.429L227.054 191.311L227.027 191.275L226.963 191.195L226.927 191.151L226.87 191.081L226.83 191.034L226.773 190.968L226.732 190.923L226.697 190.883L226.529 190.705L226.521 190.697L226.346 190.524L226.327 190.506L226.147 190.34L226.119 190.315L226.01 190.22L225.877 190.107L225.775 190.023L225.647 189.92L225.538 189.835L225.412 189.74L225.297 189.655L225.182 189.571C224.992 189.433 224.799 189.301 224.605 189.172L224.552 189.136C224.376 189.02 224.2 188.907 224.026 188.796C223.011 188.17 221.982 187.565 220.982 186.915C220.453 186.56 219.934 186.189 219.439 185.791L219.416 185.773L219.37 185.736L219.266 185.651L219.2 185.596L219.16 185.563L219.124 185.532L219.062 185.481L218.957 185.389L218.908 185.347L218.889 185.33C218.813 185.263 218.737 185.195 218.662 185.126L218.655 185.12L218.47 184.946L218.442 184.918L218.42 184.898L218.374 184.852L218.279 184.76L218.223 184.702L218.184 184.664L218.148 184.626L218.092 184.57L218.001 184.472L217.954 184.423L217.935 184.402C217.866 184.328 217.798 184.252 217.731 184.175C217.059 183.405 216.475 182.55 216.03 181.629C215.988 181.541 215.947 181.454 215.908 181.366L215.9 181.35L215.897 181.343C215.86 181.258 215.824 181.174 215.79 181.089L215.781 181.069L215.775 181.056C215.742 180.972 215.709 180.888 215.677 180.803L215.67 180.786L215.665 180.77L215.645 180.718L215.609 180.612L215.569 180.5L215.555 180.459L215.539 180.41L215.505 180.301L215.476 180.213L215.463 180.168L215.442 180.1L215.41 179.986L215.392 179.924L215.381 179.881L215.355 179.788L215.325 179.667L215.317 179.633L215.309 179.603L215.277 179.473L215.249 179.341L215.209 179.157C214.697 176.62 215.029 173.925 215.445 171.387C215.554 170.725 215.605 170.455 215.742 169.692C215.782 169.5 215.828 169.314 215.883 169.125C216.251 168.026 216.917 167.091 217.679 166.225C218.502 165.289 219.416 164.438 220.268 163.529C220.527 163.242 220.525 163.245 220.774 162.953C221.503 162.039 222.222 160.932 221.889 159.709C221.814 159.433 221.705 159.169 221.561 158.922C221.383 158.618 221.155 158.346 220.895 158.107C220.509 157.753 220.056 157.475 219.584 157.251C219.507 157.214 219.431 157.179 219.354 157.146L219.17 157.069L218.992 156.999L218.948 156.982L218.787 156.923L218.722 156.901L218.572 156.849L218.495 156.824L218.351 156.78L218.265 156.754L218.127 156.714L218.032 156.689L217.899 156.653L217.674 156.597L217.445 156.546L217.341 156.524L217.209 156.497L217.104 156.477L216.971 156.452L216.866 156.433L216.732 156.411L216.629 156.394L216.491 156.372L216.392 156.357L216.248 156.337L216.155 156.324L215.684 156.267L215.377 156.235L215.275 156.226L215.069 156.207L214.76 156.183L214.63 156.174L214.45 156.163L214.318 156.156L214.14 156.147L214.006 156.141L213.83 156.135L213.695 156.131L213.519 156.126L213.384 156.123L213.205 156.121L213.073 156.12H212.773L212.6 156.122L212.472 156.123L212.17 156.13L211.965 156.136L211.87 156.139L211.652 156.148L211.576 156.151L211.338 156.163L211.291 156.166L211.024 156.181L210.821 156.194C210.713 156.202 210.605 156.21 210.497 156.218L210.381 156.229C210.002 153.688 209.706 151.134 209.486 148.575C209.261 145.953 209.112 143.321 209.114 140.69C209.114 140.287 209.119 139.885 209.128 139.482L209.138 139.068L209.157 138.528L209.164 138.367L209.174 138.141L209.182 137.988L209.189 137.866L209.197 137.698L209.212 137.448L209.224 137.255L209.252 136.867C209.264 136.701 209.277 136.536 209.291 136.37C209.325 135.968 209.371 135.567 209.422 135.167C209.451 134.947 209.486 134.739 209.494 134.519C209.49 134.392 209.477 134.273 209.455 134.148C209.186 133.081 208.156 132.41 207.286 131.855C207.103 131.737 206.919 131.622 206.734 131.506C206.369 131.275 206.005 131.045 205.646 130.802C205.392 130.622 205.394 130.623 205.147 130.435C205.094 130.39 205.039 130.345 204.986 130.298L204.967 130.283L204.936 130.255L204.861 130.19L204.822 130.153L204.789 130.125L204.736 130.074L204.722 130.062L204.717 130.057C204.676 130.017 204.636 129.978 204.597 129.937L204.588 129.928L204.578 129.917C204.525 129.862 204.474 129.805 204.424 129.747L204.399 129.717L204.394 129.711L204.38 129.694L204.355 129.662L204.341 129.643L204.331 129.63L204.308 129.6L204.291 129.576L204.285 129.568L204.273 129.552C204.147 129.375 204.044 129.185 203.974 128.974C203.806 128.47 203.897 127.936 204.035 127.435C204.369 126.218 205.086 125.115 205.812 124.102C206.133 123.655 206.468 123.218 206.809 122.787C207.171 122.327 207.511 121.912 207.889 121.448C208.501 120.697 209.114 119.946 209.711 119.182C210.054 118.731 210.39 118.276 210.717 117.813C211.472 116.692 212.207 115.507 212.554 114.186C212.919 112.79 213.102 111.354 213.157 109.913L213.17 109.438L213.172 109.283L213.175 108.961L213.175 108.778L213.172 108.483L213.169 108.291L213.16 108.001L213.154 107.809L213.14 107.511L213.13 107.331L213.109 106.997L213.099 106.853L213.06 106.383L213.047 106.253L213.012 105.911L212.989 105.717L212.955 105.439L212.927 105.226L212.891 104.968L212.858 104.746L212.819 104.501L212.782 104.271L212.74 104.037L212.697 103.799L212.656 103.589C212.612 103.362 212.564 103.136 212.514 102.91C212.437 102.565 212.354 102.221 212.264 101.879C211.902 100.511 211.451 99.14 210.647 97.9625C209.687 96.5557 208.339 95.4588 206.879 94.6044C206.451 94.3538 206.011 94.1238 205.563 93.9101C205.317 93.7926 205.071 93.6745 204.812 93.5876C204.433 93.4601 204.041 93.3876 203.646 93.3257C202.644 93.1957 201.634 93.1445 200.629 93.0326C199.941 92.9338 199.067 92.8445 198.578 92.2826C198.317 91.9826 198.173 91.6051 198.044 91.2351C197.855 90.6214 197.703 89.9983 197.511 89.3858C197.358 88.9589 197.179 88.5189 196.841 88.2033L196.771 88.1427L196.748 88.1239L196.698 88.0877L196.669 88.0677L196.623 88.0377L196.59 88.0189L196.544 87.9933L196.51 87.9758L196.462 87.9533L196.428 87.9377L196.377 87.917L196.344 87.9039L196.288 87.8839L196.259 87.8739L196.174 87.8483L196.152 87.842L196.088 87.8252L195.954 87.7958L195.845 87.7758L195.772 87.7627L195.663 87.7464L195.587 87.7358L195.416 87.7133C194.719 87.6239 194.015 87.597 193.314 87.5839C191.076 87.5408 188.836 87.6495 186.601 87.8039L185.541 87.8802L184.369 87.9695L183.941 88.0058C183.81 87.7877 183.673 87.5758 183.532 87.3639C183.262 86.9783 182.981 86.6058 182.691 86.2358C181.606 84.9171 180.37 83.7283 178.96 82.759C178.356 82.3434 177.721 81.9402 177.047 81.6465L176.887 81.5802L176.837 81.5602L176.725 81.5165L176.67 81.4965L176.553 81.4546L176.51 81.4396L176.352 81.3871L176.318 81.3765C175.773 81.2052 175.211 81.0902 174.649 81.0052C173.496 80.8302 172.325 80.7821 171.16 80.7871C169.415 80.794 167.674 80.9259 165.938 81.1096L165.712 81.134L165.006 81.2127L164.065 81.3246C163.192 81.4315 162.319 81.5502 161.444 81.6477C161.083 81.6877 160.725 81.7159 160.367 81.7684C160.137 81.8109 159.912 81.8621 159.686 81.9221C158.156 82.3852 156.84 83.2896 155.607 84.2858C154.329 85.3177 153.131 86.4427 151.872 87.4983C151.452 87.8402 151.454 87.8389 151.027 88.172C149.923 88.9939 148.789 89.7201 147.478 90.157L147.244 90.2264L147.016 90.2858L147.014 90.3408C146.98 91.2364 146.889 92.1601 146.693 93.0557C146.649 93.4363 146.604 93.817 146.559 94.1976C146.481 94.7588 146.408 95.3194 146.308 95.8776C146.242 96.2519 146.167 96.6244 146.076 96.9938C145.994 97.3244 145.901 97.6519 145.786 97.9725C145.624 98.4225 145.414 98.8738 145.126 99.2606L145.078 99.3263L145.038 99.375L145.029 99.3856L145.017 99.4L144.971 99.4569L144.939 99.4906L144.926 99.5056L144.902 99.5313L144.856 99.5813L144.833 99.6044L144.818 99.62L144.781 99.6544L144.736 99.6994L144.708 99.7238L144.698 99.7325C144.662 99.7644 144.626 99.795 144.588 99.8244L144.581 99.83L144.573 99.8356C144.536 99.865 144.498 99.8931 144.459 99.92L144.401 99.9588L144.394 99.9631L144.387 99.9681L144.353 99.9894L144.328 100.004L144.319 100.01L144.276 100.034L144.253 100.048L144.176 100.088C143.984 100.186 143.779 100.257 143.568 100.304C143.428 100.336 143.293 100.357 143.162 100.363L143.084 100.364C142.824 100.362 142.579 100.292 142.344 100.108C142.086 99.9063 141.883 99.6313 141.711 99.3563C141.63 99.2288 141.553 99.0994 141.478 98.9694C140.851 99.2206 140.204 99.4175 139.547 99.5706C137.98 99.9356 136.373 100.041 134.768 100.083C133.637 100.101 132.507 100.086 131.376 100.076C130.405 100.067 129.434 100.09 128.463 100.062C127.69 100.027 126.923 99.9538 126.154 99.8638C125.588 99.7869 125.024 99.7006 124.46 99.6106C124.379 99.6175 124.298 99.6238 124.217 99.6294C123.96 99.6475 123.701 99.6613 123.442 99.6669L123.184 99.6706C122.152 99.6731 121.129 99.5419 120.175 99.1031C120.035 99.0394 119.899 98.9706 119.765 98.8981C119.43 98.8619 119.095 98.8344 118.759 98.8231C117.976 98.7969 117.192 98.8569 116.409 98.8613C116.064 98.8544 115.726 98.8369 115.384 98.8044C114.962 98.7475 114.544 98.6631 114.157 98.4813C113.812 98.3188 113.505 98.0807 113.219 97.8313C112.814 97.4782 112.442 97.0832 112.091 96.6775C111.307 95.7732 110.571 94.8294 109.776 93.9357C109.54 93.6801 109.301 93.4313 109.053 93.1876C108.289 92.4795 107.441 91.8182 106.37 91.7307L106.234 91.727L105.531 91.5145C105.352 91.5307 105.174 91.5457 104.996 91.5595L104.921 91.5657L104.614 91.587C104.408 91.5957 104.202 91.6032 103.996 91.6051H103.789C103.514 91.6026 103.239 91.5889 102.966 91.5551C102.524 91.5007 102.085 91.3982 101.681 91.2095C101.091 90.9326 100.659 90.482 100.333 89.9489L98.2575 89.3239C97.8944 88.4708 97.4688 87.6458 97.1038 86.7939C96.965 86.4514 96.8332 86.1077 96.73 85.7527C96.5276 85.0539 96.4113 84.3221 96.3051 83.6033C96.1088 82.2821 95.9976 80.8515 96.3313 79.5334ZM110.419 206.724L115.877 219.585C115.866 219.315 115.857 219.045 115.85 218.775C115.831 218.105 115.807 217.438 115.774 216.769C115.737 216.233 115.695 215.701 115.63 215.168C115.495 214.191 115.297 213.222 114.911 212.31C114.429 211.169 113.661 210.136 112.89 209.177C112.184 208.297 111.408 207.383 110.461 206.751L110.419 206.724ZM106.786 113.212C114.433 116.52 120.582 122.418 122.182 133.488C123.617 133.567 124.866 134.063 126.033 134.97C125.312 136.458 124.731 138.01 124.298 139.609H119.456C118.41 144.193 118.41 148.954 119.456 153.539H124.298C124.893 155.736 125.768 157.847 126.9 159.821L123.477 163.245C125.979 167.226 129.346 170.593 133.327 173.095L136.751 169.672C138.725 170.804 140.836 171.678 143.033 172.273V177.116C147.618 178.161 152.379 178.161 156.963 177.116V172.273C159.16 171.678 161.271 170.804 163.245 169.672L170.952 177.378C164.98 181.45 157.765 183.832 149.998 183.832C129.435 183.832 112.74 167.137 112.74 146.574C112.74 143.727 112.994 140.763 113.13 137.641C113.25 134.911 112.349 130.305 109.861 127.815C105.498 123.449 101.076 120.554 101.076 120.554L106.786 113.212ZM193.211 179.936C185.563 176.628 179.414 170.73 177.815 159.659C176.379 159.58 175.13 159.085 173.963 158.178C174.684 156.69 175.265 155.137 175.698 153.539H180.54C181.586 148.954 181.586 144.193 180.54 139.609H175.698C175.103 137.412 174.228 135.301 173.096 133.326L176.52 129.903C174.017 125.922 170.65 122.555 166.669 120.052L163.245 123.476C161.271 122.343 159.16 121.469 156.963 120.873V116.032C152.379 114.986 147.618 114.986 143.033 116.032V120.873C140.836 121.469 138.725 122.343 136.751 123.476L129.045 115.77C135.016 111.697 142.231 109.316 149.998 109.316C170.562 109.316 187.256 126.01 187.256 146.574C187.256 149.421 187.002 152.384 186.866 155.507C186.746 158.237 187.648 162.843 190.136 165.332C194.498 169.699 198.92 172.593 198.92 172.593L193.211 179.936ZM222.768 165.437C221.965 166.336 221.066 167.167 220.263 168.025C220.038 168.275 219.819 168.528 219.608 168.79C219.31 169.185 219.024 169.587 218.865 170.06C218.743 170.48 218.687 170.969 218.617 171.368C218.55 171.753 218.509 172.022 218.447 172.407C218.379 172.86 218.31 173.322 218.252 173.789L222.768 165.437ZM155.074 121.054C151.723 120.387 148.273 120.387 144.922 121.054L145.046 125.018C142.643 125.571 140.348 126.522 138.258 127.83L135.543 124.939C132.701 126.838 130.262 129.277 128.363 132.118L131.255 134.833C129.946 136.923 128.995 139.218 128.443 141.622L124.478 141.498C123.812 144.849 123.812 148.299 124.478 151.65L128.443 151.526C128.995 153.929 129.946 156.224 131.255 158.314L128.363 161.029C130.262 163.87 132.701 166.31 135.543 168.209L138.258 165.317C140.348 166.626 142.643 167.577 145.046 168.129L144.922 172.093C148.273 172.76 151.723 172.76 155.074 172.093L154.95 168.129C157.354 167.577 159.648 166.626 161.739 165.317L164.454 168.209C167.295 166.31 169.734 163.87 171.633 161.029L168.741 158.314C170.05 156.224 171.001 153.929 171.553 151.526L175.518 151.65C176.184 148.299 176.184 144.849 175.518 141.498L171.553 141.622C171.001 139.218 170.05 136.923 168.741 134.833L171.633 132.118C169.734 129.277 167.295 126.838 164.454 124.939L161.739 127.83C159.648 126.522 157.354 125.571 154.95 125.018L155.074 121.054ZM148.871 132.393V130.043H151.126V132.385C153.722 131.898 154.892 129.896 154.859 130.062C154.433 132.073 153.443 134.25 151.126 134.793V139.619C155.763 139.093 157.845 135.575 157.789 135.85C157.066 139.212 155.329 142.868 151.126 143.442V147.829C156.827 147.324 159.384 143.278 159.316 143.591C158.438 147.408 156.313 151.563 151.126 152.112V157.414C158.412 156.886 161.677 151.561 161.591 151.966C160.425 157.195 157.482 162.92 149.998 162.949C142.498 162.972 139.558 157.206 138.446 151.943C138.375 151.564 141.589 156.924 148.871 157.42V152.122C143.647 151.618 141.519 147.423 140.68 143.573C140.624 143.28 143.151 147.369 148.871 147.838V143.453C144.637 142.917 142.899 139.226 142.208 135.834C142.161 135.576 144.219 139.132 148.871 139.627V134.805C146.535 134.281 145.544 132.081 145.137 130.052C145.109 129.896 146.266 131.921 148.871 132.393ZM86.6733 150.763L87.512 152.74C87.4958 152.475 87.4677 152.211 87.4183 151.949C87.3702 151.694 87.3064 151.424 87.1627 151.204C87.0358 151.031 86.8483 150.895 86.6733 150.763ZM115.664 95.6876C115.758 95.7019 115.852 95.7101 115.949 95.7194C116.785 95.7632 117.621 95.7013 118.457 95.6932C118.869 95.6994 118.865 95.6994 119.275 95.7207C121.52 95.9201 123.723 96.3469 125.95 96.6826C126.542 96.7632 127.132 96.8319 127.727 96.8882C128.202 96.9232 128.675 96.945 129.152 96.9507C131.002 96.9419 132.853 96.9875 134.703 96.9588C135.964 96.9257 137.227 96.8563 138.466 96.6076C139.235 96.4532 139.992 96.2301 140.705 95.9013C141.451 95.5569 142.244 95.0938 142.761 94.4401C143.159 93.9357 143.401 93.322 143.563 92.7045C143.819 91.7276 143.893 90.7051 143.904 89.6989C143.911 89.1489 143.895 88.5989 143.866 88.0495C143.837 87.4714 143.789 86.8945 143.739 86.3177C143.571 84.5715 143.348 82.8308 143.197 81.0834C143.098 79.7103 143.083 78.334 143.008 76.9597C142.975 76.4984 142.934 76.0409 142.883 75.5816C142.791 74.9353 142.684 74.2928 142.474 73.6735C142.406 73.4753 142.343 73.2122 142.203 73.0503C142.101 72.9478 141.983 72.8678 141.863 72.7885C141.721 72.7022 141.578 72.6216 141.431 72.5435C140.702 72.1804 139.957 71.8504 139.232 71.4779C138.308 70.9785 137.429 70.406 136.702 69.6379C136.038 68.9373 135.55 68.0979 135.086 67.2579C134.557 66.3023 134.106 65.3048 133.763 64.2667C133.45 63.3217 133.237 62.3548 133.05 61.3792L133.026 61.1705C132.916 61.1805 132.806 61.1905 132.696 61.2005L132.487 61.2199L132.431 61.2249L132.285 61.2386L132.227 61.243L132.106 61.253L132.047 61.258L131.799 61.2755C131.151 61.2974 130.503 61.2861 129.855 61.2905C128.435 61.3005 128.038 61.3111 126.617 61.3355L126.085 61.3486L126.003 61.3511L125.946 61.3524L125.022 61.3792L124.727 61.3886L124.603 61.3924L124.554 61.3942C124.35 61.4005 124.145 61.4074 123.941 61.4142L123.932 61.4149L123.88 61.4167L123.427 61.4324L123.321 61.4367L123.262 61.4386L122.682 61.4605L122.591 61.4636L122.513 61.4667L122.363 61.4724L121.92 61.4899L121.905 61.4905C121.686 61.4992 121.468 61.508 121.249 61.5174C120.204 61.5599 119.157 61.6055 118.111 61.6505C116.207 61.7024 114.303 61.628 112.399 61.6742C111.633 61.7011 110.857 61.7374 110.09 61.8292C109.929 61.848 109.769 61.8699 109.609 61.8942L109.598 61.8955L109.588 61.8974L109.522 61.908L109.476 61.9149L109.469 61.9161L109.456 61.9186L109.402 61.9274L109.354 61.9355L109.341 61.938L109.323 61.9411L109.278 61.9492L109.232 61.9574L109.212 61.9611L109.191 61.9649L109.152 61.9724L109.11 61.9805L109.085 61.9855L109.059 61.9905L108.989 62.0049L108.957 62.0117L108.928 62.0174L108.899 62.0236L108.867 62.0305L108.83 62.0392L108.797 62.0461L108.773 62.0517L108.746 62.058L108.702 62.068L108.666 62.0767L108.647 62.0811L108.626 62.0861L108.575 62.0992L108.536 62.1086L108.522 62.1124L108.506 62.1161L108.446 62.1317L108.397 62.1449L108.386 62.148L108.314 62.168L108.277 62.178C108.236 62.1899 108.189 62.203 108.147 62.2155C107.736 62.3386 107.327 62.4923 106.959 62.7155C106.837 62.7892 106.671 62.8723 106.59 62.9973C106.524 63.1123 106.501 63.2511 106.479 63.3805C106.403 63.9067 106.436 64.4411 106.469 64.9698L106.479 65.0911C106.51 65.4848 106.546 65.8786 106.581 66.2723C106.622 66.7323 106.662 67.1917 106.692 67.6529C106.699 67.7835 106.704 67.9148 106.707 68.046C106.749 69.531 106.632 71.0179 106.041 72.401C105.766 73.046 105.406 73.656 104.995 74.2241C104.526 74.8722 103.982 75.4522 103.409 76.0078L103.328 76.0822L103.301 76.1072L103.249 76.1547L103.106 76.2841L103.087 76.3003L102.919 76.4503L102.754 76.594L102.666 76.6697L102.591 76.7347L102.486 76.8247L102.131 77.1265C101.639 77.5434 101.146 77.9584 100.674 78.3984C100.206 78.854 99.7281 79.354 99.4706 79.9659C99.1563 80.7153 99.2275 81.6509 99.3063 82.4309C99.3544 82.9133 99.43 83.3933 99.5175 83.8702C99.5894 84.2646 99.6569 84.6627 99.7819 85.0439C99.9438 85.5371 100.17 86.0064 100.389 86.4758L100.515 86.7402L106.737 88.6145L106.541 88.6089C106.841 88.6339 106.839 88.6333 107.137 88.6739C107.424 88.7276 107.422 88.727 107.704 88.7951C108.14 88.922 108.559 89.0751 108.964 89.2795C110.304 89.957 111.368 90.9945 112.349 92.1182L112.503 92.2964L112.655 92.4751L112.805 92.6526L112.949 92.8251L113.073 92.9745C113.237 93.1732 113.4 93.3726 113.564 93.5713L113.827 93.8895L114.058 94.167L114.2 94.3351L114.354 94.5151L114.497 94.6801L114.631 94.8307C114.837 95.0538 115.046 95.2701 115.271 95.4738C115.337 95.5294 115.431 95.6351 115.52 95.6601C115.568 95.6713 115.615 95.6801 115.664 95.6876ZM142.737 0.173748C145.143 0.0581242 147.564 0 149.998 0C152.554 0 155.099 0.0643742 157.624 0.191248L142.737 0.173748Z" fill="white"/>
</svg>
