<svg width="300" height="300" viewBox="0 0 300 300" fill="none" xmlns="http://www.w3.org/2000/svg">
<path fill-rule="evenodd" clip-rule="evenodd" d="M212.129 299.996H87.867L0 212.129V87.867L87.867 0H212.129L299.996 87.867V212.129L212.129 299.996ZM194.008 256.247L256.247 194.008V105.989L194.008 43.7495H105.989L43.7495 105.989V194.008L105.989 256.247H194.008ZM105.58 149.998L178.968 223.772L149.618 253.122L76.2309 179.734L76.2241 179.741L46.8744 149.998L83.1983 114.068H141.897L105.58 149.998ZM216.798 185.928H158.099L194.416 149.998L121.028 76.2241L150.378 46.8744L223.765 120.262L223.772 120.255L253.122 149.998L216.798 185.928Z" fill="white"/>
</svg>
