<svg width="300" height="300" viewBox="0 0 300 300" fill="none" xmlns="http://www.w3.org/2000/svg">
<path d="M144.971 223.784C145.19 220.61 143.815 217.589 141.393 215.661C128.935 213.876 117.705 208.265 108.935 200.058C105.906 199.358 102.671 200.171 100.319 202.332L99.8108 202.798C89.5854 212.192 67.0911 232.858 56.7781 242.402C53.7344 245.198 53.0901 249.753 55.2394 253.283C59.3191 259.847 62.3154 265.767 64.9602 270.993C70.4891 281.917 74.4823 289.806 83.6266 294.199C92.7705 298.592 101.428 296.781 113.416 294.272C119.151 293.072 125.648 291.713 133.325 290.797C137.425 290.27 140.581 286.921 140.865 282.799C141.896 268.55 144.044 237.286 144.971 223.784Z" fill="white"/>
<path d="M199.701 202.266C197.346 200.109 194.11 199.3 191.082 200.005C182.322 208.223 171.099 213.849 158.644 215.65C156.226 217.581 154.855 220.604 155.077 223.777L155.081 223.834C156.029 237.366 158.213 268.56 159.261 282.787C159.55 286.908 162.711 290.253 166.812 290.775C174.49 291.681 180.988 293.032 186.725 294.224C198.716 296.717 207.377 298.517 216.515 294.112C225.653 289.707 229.636 281.812 235.15 270.881C237.788 265.652 240.777 259.728 244.848 253.158C246.993 249.626 246.342 245.071 243.295 242.279C232.927 232.711 210.268 211.948 200.088 202.62L199.701 202.266Z" fill="white"/>
<path d="M94.0114 194.44C96.6327 192.629 98.1389 189.665 98.1326 186.566C92.8971 177.658 89.8946 167.283 89.8946 156.214C89.8946 154.614 89.9571 153.03 90.0809 151.462C88.7359 148.672 86.0884 146.661 82.9416 146.172L82.6268 146.123C69.0817 144.02 38.4712 139.266 24.4498 137.141C20.3648 136.506 16.4005 138.844 14.9805 142.725C12.3913 150.006 9.62987 156.039 7.19233 161.364C2.09694 172.497 -1.58317 180.537 0.683214 190.422C2.95086 200.306 9.76747 205.941 19.2052 213.744C23.7201 217.476 28.8349 221.705 34.3384 227.132C37.3078 230.006 41.8952 230.385 45.2958 228.035C56.9781 220.026 82.4197 202.449 93.7138 194.645L94.0114 194.44Z" fill="white"/>
<path d="M217.004 146.084C213.858 146.577 211.214 148.591 209.872 151.382C210 152.977 210.065 154.588 210.065 156.214C210.065 167.255 207.078 177.605 201.867 186.498C201.864 189.596 203.375 192.558 205.998 194.366L206.285 194.564C217.584 202.348 243.061 219.901 254.758 227.897C258.162 230.243 262.749 229.858 265.714 226.979C271.211 221.545 276.321 217.309 280.831 213.57C290.258 205.756 297.067 200.112 299.321 190.225C301.574 180.338 297.884 172.302 292.774 161.177C290.329 155.855 287.56 149.825 284.961 142.547C283.536 138.668 279.568 136.336 275.484 136.975C261.356 139.136 230.382 143.988 217.004 146.084Z" fill="white"/>
<path d="M85.1803 136.322C88.2246 137.239 91.4752 136.573 93.8927 134.644C98.3389 123.113 106.244 113.294 116.335 106.461C117.685 103.667 117.609 100.339 116.026 97.5712L115.743 97.0767C108.879 85.0742 93.65 58.4431 86.6115 46.2371C84.5603 42.6495 80.2591 41.0096 76.3385 42.3202C69.0295 44.8379 62.5891 46.4427 56.9041 47.8593C45.0199 50.8206 36.4366 52.9594 30.1197 60.8951C23.8037 68.8303 23.6474 77.6704 23.431 89.9095C23.3275 95.7654 23.2102 102.399 22.3979 110.085C22.0017 114.198 24.5667 118.018 28.5254 119.21C42.1952 123.379 72.2148 132.418 85.1803 136.322Z" fill="white"/>
<path d="M183.857 97.5269C182.277 100.297 182.205 103.625 183.558 106.416C193.659 113.237 201.577 123.047 206.038 134.57C208.459 136.496 211.71 137.157 214.753 136.237L215.732 135.941C229.168 131.876 258.055 123.135 271.385 119.05C275.342 117.853 277.902 114.029 277.5 109.917C276.678 102.232 276.552 95.5984 276.441 89.7428C276.208 77.5036 276.04 68.6639 269.714 60.737C263.386 52.81 254.8 50.6824 242.913 47.7367C237.226 46.3275 230.783 44.7311 223.47 42.2228C219.548 40.9178 215.249 42.5633 213.202 46.1534C206.082 58.54 190.56 85.7675 183.857 97.5269Z" fill="white"/>
<path d="M125.209 93.1452C126.386 96.0963 128.93 98.2234 131.944 98.9143C137.638 97.1227 143.697 96.1569 149.979 96.1569C156.263 96.1569 162.321 97.1227 168.016 98.9143C171.029 98.2234 173.574 96.0963 174.751 93.1452C179.767 80.5738 191.381 51.4652 196.628 38.1766C198.159 34.3391 196.765 29.9537 193.298 27.7029C186.776 23.5534 181.509 19.5148 176.86 15.95C167.143 8.49888 160.125 3.11719 149.979 3.11719C139.834 3.11761 132.816 8.49936 123.098 15.9506C118.45 19.5152 113.183 23.5536 106.661 27.7029C103.194 29.9537 101.8 34.3391 103.332 38.1766C108.578 51.4652 120.192 80.5738 125.209 93.1452Z" fill="white"/>
<path d="M196.983 156.285C196.983 130.343 175.922 109.281 149.979 109.281C124.037 109.281 102.976 130.343 102.976 156.285C102.976 182.227 124.037 203.289 149.979 203.289C175.922 203.289 196.983 182.227 196.983 156.285Z" fill="white"/>
</svg>
