<svg width="300" height="300" viewBox="0 0 300 300" fill="none" xmlns="http://www.w3.org/2000/svg">
<path fill-rule="evenodd" clip-rule="evenodd" d="M103.568 6.57483L25.2973 84.8456C21.1153 89.0587 18.764 94.7513 18.7539 100.688V277.517C18.7539 283.479 21.1223 289.197 25.338 293.412C29.5537 297.628 35.2714 299.996 41.2333 299.996H178.176C184.143 299.989 189.864 297.613 194.08 293.39L272.351 215.119C274.441 213.038 276.101 210.564 277.234 207.84C278.368 205.117 278.953 202.196 278.957 199.246V22.4794C278.957 19.5221 278.374 16.5939 277.24 13.8625C276.106 11.1311 274.445 8.65018 272.351 6.56196C270.257 4.47374 267.772 2.81923 265.037 1.69322C262.302 0.567216 259.373 -0.00815041 256.415 8.72177e-05H119.441C113.49 0.0102817 107.784 2.37373 103.568 6.57483V6.57483ZM235.908 192.984L209.39 219.503C205.873 223.007 201.112 224.977 196.147 224.982H142.453C141.343 224.981 140.259 224.65 139.337 224.033C138.415 223.415 137.698 222.537 137.275 221.511C136.853 220.485 136.745 219.357 136.964 218.269C137.183 217.181 137.721 216.183 138.508 215.401L175.546 178.457C176.333 177.675 176.871 176.677 177.09 175.59C177.31 174.502 177.201 173.374 176.779 172.347C176.356 171.321 175.639 170.444 174.717 169.826C173.795 169.208 172.711 168.878 171.601 168.877H119.504C117.013 168.877 114.624 167.888 112.863 166.126C111.101 164.365 110.112 161.976 110.112 159.485V46.9625C110.112 44.4715 111.101 42.0825 112.863 40.321C114.624 38.5596 117.013 37.5701 119.504 37.5701H232.057C234.548 37.5701 236.937 38.5596 238.699 40.321C240.46 42.0825 241.45 44.4715 241.45 46.9625V179.741C241.429 184.715 239.436 189.478 235.908 192.984Z" fill="white"/>
</svg>
