<svg width="300" height="300" viewBox="0 0 300 300" fill="none" xmlns="http://www.w3.org/2000/svg">
<path fill-rule="evenodd" clip-rule="evenodd" d="M8.05544 0H91.9549C99.0546 0 102.673 8.54561 97.6893 13.5645L13.9946 97.5963C8.9429 102.683 0.273066 99.1562 0.273066 92.0349L3.72524e-07 8.00303C3.72524e-07 3.59458 3.54986 0 8.05544 0ZM292.068 299.996H208.047C200.942 299.996 197.322 291.451 202.308 286.432L285.989 202.4C291.044 197.313 299.719 200.84 299.719 207.961L299.993 291.993C300.129 296.402 296.509 299.996 292.068 299.996ZM12.4846 227.297L227.352 12.4821C243.998 -4.16071 270.938 -4.16071 287.512 12.4821C304.158 29.1242 304.158 56.0574 287.512 72.6272L72.6445 287.515C56.0713 304.157 29.0578 304.157 12.4846 287.515C-4.16154 270.872 -4.16154 243.939 12.4846 227.297Z" fill="white"/>
</svg>
