<svg width="300" height="300" viewBox="0 0 300 300" fill="none" xmlns="http://www.w3.org/2000/svg">
<path fill-rule="evenodd" clip-rule="evenodd" d="M113.766 247.291C104.955 246.224 91.9121 231.567 80.806 231.821C70.1911 232.064 73.1979 241.295 73.1979 241.295C82.6228 257.016 97.6645 254.718 113.766 247.291ZM221.614 179.702C215.715 189.064 192.241 195.953 186.608 208.606C181.225 220.699 193.232 222.23 193.232 222.23C215.974 219.987 221.402 201.808 221.614 179.702ZM113.634 168.178C131.338 166.674 158.483 138.281 180.685 139.585C201.904 140.831 195.228 159.085 195.228 159.085C175.247 189.863 145.316 184.189 113.634 168.178ZM217.412 82.5615C235.117 84.0658 262.261 112.458 284.463 111.155C305.683 109.909 299.006 91.6545 299.006 91.6545C279.025 60.8774 249.095 66.551 217.412 82.5615Z" fill="#B20C0C"/>
<path fill-rule="evenodd" clip-rule="evenodd" d="M166.784 225.515C150.239 213.005 130.29 224.998 120.883 235.099C92.4638 265.617 73.1003 240.958 73.1003 240.958C73.1003 240.958 83.0371 272.678 121.946 273.204C133.65 273.362 143.958 271.346 157.724 259.599C168.368 250.517 176.178 232.618 166.784 225.515ZM225.333 108.327C202.414 120.308 205.297 149.185 211.669 165.172C230.919 213.471 192.804 222.152 192.804 222.152C192.804 222.152 233.853 227.859 255.185 184.285C261.601 171.177 264.824 158.485 258.921 136.706C254.358 119.868 238.346 101.525 225.333 108.327ZM9.1011 120.819C43.0982 96.9763 82.1527 122.397 100.25 143.28C154.924 206.373 195.43 158.422 195.43 158.422C195.43 158.422 173.279 221.175 95.395 219.442C71.9684 218.92 51.49 214.149 24.7872 189.662C4.14117 170.729 -10.203 134.358 9.1011 120.819ZM112.879 129.908C146.876 153.751 185.931 128.33 204.028 107.447C258.703 44.3544 299.208 92.3045 299.208 92.3045C299.208 92.3045 277.057 29.5527 199.173 31.2852C175.747 31.8065 155.268 36.5777 128.565 61.0655C107.92 79.9984 93.5751 116.37 112.879 129.908Z" fill="#F04E23"/>
</svg>
