<svg width="300" height="300" viewBox="0 0 300 300" fill="none" xmlns="http://www.w3.org/2000/svg">
<path d="M42.0097 0C16.8153 0 0 16.8121 0 42.0018V257.994C0 283.184 16.8153 299.996 42.0097 299.996H257.987C283.181 299.996 299.996 283.184 299.996 257.994V42.0018C299.996 16.8121 283.181 0 257.987 0L42.0097 0Z" fill="#752D1E"/>
<path d="M12.6542 42.5717C12.6542 24.5628 24.6244 12.5948 42.6368 12.5948H257.417C275.429 12.5948 287.399 24.5628 287.399 42.5717V80.983C287.399 122.985 272.408 147.548 246.016 147.548C200.416 147.548 145.239 90.5574 99.0107 90.5574C63.6131 90.5574 33.0036 113.923 12.6542 164.93V42.5717V42.5717ZM287.456 257.368C287.456 275.377 275.486 287.344 257.474 287.344H42.6368C24.6244 287.344 12.6542 275.377 12.6542 257.368V218.956C12.6542 176.954 27.6455 152.392 54.037 152.392C99.6378 152.392 154.815 209.382 201.043 209.382C236.44 209.382 267.05 186.016 287.456 135.01V257.368ZM42.0097 0C16.8153 0 0 16.8121 0 42.0018V257.995C0 283.184 16.8153 299.996 42.0097 299.996H257.987C283.181 299.996 299.996 283.184 299.996 257.995V42.0018C299.996 16.8121 283.181 0 257.987 0H42.0097V0Z" fill="#D99D2A"/>
</svg>
