<svg width="450" height="450" viewBox="0 0 450 450" fill="none" xmlns="http://www.w3.org/2000/svg">
<path fill-rule="evenodd" clip-rule="evenodd" d="M245.644 450H209.269V422.419H192.703V388.378L119.372 388.303L119.456 301.556H102.178L102.122 293.925H80.7844V282.262H67.3969V264.881H80.7844V249.6H101.616L95.6156 240.356H60.8344C55.9969 240.356 52.8375 246.356 52.8375 246.356L46.875 244.481C47.4244 242.017 48.1969 239.606 49.1813 237.281C50.1188 234.628 52.2469 229.425 52.2469 229.425L52.5281 228.722C53.0062 227.578 53.4656 226.444 54.0375 225.337C56.85 218.59 61.8459 212.977 68.2219 209.4C69.0741 208.986 69.9544 208.632 70.8563 208.341C72.4772 207.825 74.1553 207.511 75.8531 207.403C76.3688 207.403 76.8844 207.403 77.4 207.403L77.5406 207.056L77.7562 206.55C78.3769 205.159 79.1709 203.852 80.1188 202.659C80.7347 201.924 81.4116 201.244 82.1438 200.625C85.0931 197.972 88.6828 196.133 92.5594 195.291L92.3813 162.713L109.941 162.769L109.894 139.687L127.078 139.584L127.144 124.2L137.616 124.153L125.466 103.125H109.153L136.341 75.8719L183.131 75.9281V24.3656H209.644V0H245.269V24.375H271.744V75.9375L318.534 75.8812L345.759 103.125H329.447L317.259 124.172L327.731 124.219L327.797 139.603L344.981 139.706L344.906 162.75L362.475 162.694L362.297 195.272C366.195 196.111 369.806 197.957 372.769 200.625C373.518 201.272 374.208 201.984 374.831 202.753C375.779 203.946 376.573 205.252 377.194 206.644L377.409 207.15L377.541 207.497C378.056 207.497 378.572 207.497 379.088 207.497C380.785 207.605 382.463 207.919 384.084 208.434C384.986 208.726 385.867 209.079 386.719 209.494C393.095 213.07 398.091 218.684 400.903 225.431C401.438 226.547 401.934 227.681 402.412 228.816L402.694 229.519C402.694 229.519 404.822 234.731 405.759 237.375C406.744 239.7 407.516 242.11 408.066 244.575L402.103 246.45C402.103 246.45 398.944 240.45 394.106 240.45H359.325L353.325 249.694H374.156V264.975H387.553V282.188H374.1V293.85H352.828L352.772 301.481H335.503L335.587 388.228L262.256 388.303V422.344H245.644V450Z" fill="url(#paint0_linear_3_1132)"/>
<path fill-rule="evenodd" clip-rule="evenodd" d="M238.003 442.501H216.909V414.919H200.371V388.304H216.946V403.566H237.975V388.304H254.55V414.919H238.003V442.501ZM327.721 380.804H127.2V297.366H327.712L327.721 380.804ZM294.693 370.782C294.78 371.245 294.744 371.724 294.59 372.169C294.396 372.75 294.148 373.312 293.85 373.847C293.498 374.492 293.035 375.071 292.481 375.554C292.26 375.822 291.951 376.005 291.609 376.069C291.256 375.95 290.935 375.751 290.671 375.488C290.278 375.163 289.865 374.829 289.434 374.485C289.105 374.236 288.792 373.966 288.496 373.679C288.286 373.522 288.141 373.29 288.093 373.032C288.356 372.479 288.562 372.047 288.693 371.747C289.143 370.798 289.478 370.11 289.696 369.685C290.097 369.06 290.5 368.394 290.906 367.688L291.309 367.107C291.433 367.226 291.568 367.332 291.712 367.425L292.246 367.744C292.925 368.24 293.553 368.803 294.121 369.422C294.435 369.813 294.641 370.278 294.721 370.772L294.693 370.782ZM244.481 361.482C247.505 361.49 250.523 361.199 253.49 360.61C256.119 360.097 258.706 359.396 261.234 358.51C263.52 357.688 265.683 356.559 267.665 355.154C269.538 353.862 271.229 352.322 272.69 350.579C273.091 350.06 273.715 349.245 274.565 348.132C274.968 347.569 275.259 347.194 275.437 346.969C275.615 346.744 275.662 346.791 275.709 346.838C275.762 346.911 275.786 347.001 275.775 347.091L275.709 347.804C275.665 348.191 275.566 349.02 275.409 350.288C275.264 351.401 275.185 352.522 275.175 353.644C275.119 355.318 275.402 356.986 276.009 358.547C276.492 359.784 277.731 360.57 279.056 360.479C279.993 360.479 280.909 359.782 281.803 358.388C282.864 356.559 283.611 354.566 284.015 352.491L284.184 351.657C284.241 351.401 284.275 351.14 284.287 350.879C284.287 350.447 284.175 350.232 283.95 350.232C283.725 350.232 283.621 350.429 283.518 350.813C283.415 351.197 283.303 351.544 283.218 351.844C282.731 353.175 282.171 353.841 281.54 353.841C280.804 353.862 280.079 353.659 279.459 353.26C278.383 352.362 277.829 350.978 277.987 349.585V348.582C277.987 347.806 278.056 346.657 278.193 345.132C278.343 343.438 278.543 341.75 278.793 340.069L280.2 333.3C280.262 332.97 280.328 332.638 280.396 332.307L281.962 331.247L288.225 326.504C290.018 325.348 291.806 324.179 293.587 322.997C295.131 321.973 296.65 320.916 298.143 319.829C300.556 318.066 302.365 316.723 303.571 315.797C305.177 314.548 306.318 313.648 306.993 313.097C307.668 312.547 308.327 311.944 308.971 311.288C309.778 310.519 310.549 309.722 311.287 308.897C311.948 308.136 312.553 307.328 313.096 306.479C313.64 305.741 314.071 304.925 314.371 304.06C314.461 303.903 314.506 303.725 314.503 303.544C314.503 303.619 312.827 305.038 309.478 307.8C307.734 309.275 305.969 310.732 304.181 312.169C302.262 313.695 300.297 315.172 298.284 316.604C295.434 318.591 292.575 320.566 289.706 322.529C286.938 324.492 284.286 326.614 281.765 328.885C281.166 329.4 280.645 330 280.218 330.666C280.137 330.778 280.062 330.893 279.993 331.013C279.688 331.528 279.412 332.06 279.168 332.607L278.868 333.197C278.3 334.258 277.808 335.357 277.396 336.488L276.459 340.163C275.991 341.865 275.243 343.478 274.246 344.935C272.865 346.767 271.106 348.282 269.09 349.379C263.571 352.427 257.426 354.169 251.128 354.469C249.609 354.6 247.577 354.666 245.034 354.666C241.973 355.085 238.861 354.401 236.259 352.735C235.706 352.121 235.376 351.338 235.321 350.513C235.256 349.669 235.153 349.257 235.021 349.257C234.665 349.257 234.387 349.988 234.187 351.45C233.99 352.86 233.891 354.283 233.887 355.707C233.786 357.007 234.155 358.302 234.928 359.354C236.014 360.332 237.39 360.931 238.846 361.06C240.397 361.303 241.965 361.412 243.534 361.388L244.481 361.482ZM175.631 344.063C175.588 344.93 175.474 345.792 175.293 346.641C175.068 347.841 174.843 348.894 174.618 349.8L173.812 352.96C173.362 354.16 173.006 355.041 172.743 355.604C172.413 356.29 172.044 356.956 171.637 357.6C171.359 358.052 171.007 358.455 170.596 358.791C170.026 359.197 169.421 359.552 168.787 359.85L166.378 360.788C165.861 360.948 165.335 361.077 164.803 361.172C164.285 361.299 163.758 361.387 163.228 361.435C163.003 361.435 162.871 361.36 162.825 361.21C162.788 361.019 162.836 360.82 162.956 360.666C163.423 360.039 163.994 359.497 164.643 359.063C165.562 358.376 166.469 357.71 167.362 357.066C168.387 356.16 169.146 355.451 169.64 354.938C170.408 354.137 171.082 353.25 171.646 352.294C171.874 351.87 172.066 351.429 172.218 350.972C172.462 350.31 172.853 349.226 173.39 347.719L174.196 345.394C174.284 345.05 174.419 344.632 174.6 344.138C174.778 343.65 175.003 343.397 175.275 343.397C175.442 343.579 175.559 343.802 175.612 344.044L175.631 344.063ZM224.653 351.366V351.422C225.59 350.504 226.146 349.941 226.321 349.735C227.02 348.943 227.587 348.045 228 347.072C228.541 345.719 228.934 344.31 229.171 342.872C229.452 341.542 229.618 340.19 229.668 338.832C229.668 337.707 229.668 336.525 229.668 335.288C229.668 334.05 229.746 332.801 229.903 331.538C229.903 330.366 229.968 329.663 229.968 329.344C229.968 329.288 229.968 329.232 229.968 329.185C230.109 329.11 230.287 328.997 230.493 328.866L232.471 327.516L237.262 324.272C239.137 323.066 240.987 321.847 242.812 320.616C244.412 319.547 245.974 318.441 247.5 317.297C250 315.422 251.875 314.01 253.125 313.06C254.8 311.766 255.987 310.829 256.687 310.247C257.387 309.666 258.081 309.022 258.768 308.316C259.619 307.498 260.434 306.647 261.215 305.766C261.923 304.941 262.571 304.066 263.156 303.15C263.746 302.342 264.219 301.455 264.562 300.516C264.661 300.342 264.716 300.145 264.721 299.944C264.721 300.031 262.968 301.535 259.462 304.454C257.637 306.016 255.794 307.56 253.931 309.085C251.931 310.697 249.884 312.26 247.79 313.772C244.834 315.854 241.868 317.919 238.893 319.969C236.607 321.487 234.415 323.143 232.331 324.929C231.699 325.474 231.147 326.105 230.69 326.804C230.24 327.502 229.843 328.231 229.5 328.988L229.387 329.25V329.307L227.118 334.566C226.906 335.094 226.792 335.656 226.781 336.225C226.737 336.957 226.715 337.803 226.715 338.766L226.781 342.966C226.844 344.336 226.617 345.703 226.115 346.979C225.907 347.413 225.649 347.822 225.346 348.197C225.135 348.481 224.874 348.725 224.578 348.919L224.175 349.107C223.857 349.143 223.535 349.101 223.237 348.985C223.012 349.322 222.787 349.632 222.562 349.922C222.206 350.392 221.716 350.742 221.156 350.925C220.891 351.07 220.56 351.019 220.35 350.804C220.04 351.094 219.75 351.394 219.478 351.685C219.057 352.133 218.479 352.401 217.865 352.435C217.26 352.438 216.655 352.395 216.056 352.304C215.069 352.972 214.106 353.641 213.168 354.31C212.37 354.823 211.436 355.083 210.487 355.06C208.894 355.199 207.347 354.452 206.465 353.119C205.931 352.141 205.678 351.035 205.734 349.922C205.734 349.416 205.734 348.61 205.865 347.475C205.978 346.132 206.134 344.794 206.334 343.463L207.478 335.813L207.75 334.182C207.828 333.854 207.851 333.514 207.815 333.179L207.543 333.3C207.143 334.095 206.609 335.263 205.94 336.807C205.272 338.351 204.916 339.207 204.871 339.376C204.559 341.426 204.156 344.382 203.662 348.244C203.168 352.107 202.921 354.294 202.921 354.807C202.932 355.384 202.976 355.96 203.053 356.532C203.099 357.077 203.208 357.615 203.381 358.135C203.849 360.081 205.607 361.461 207.609 361.454C209.461 361.365 211.139 360.32 212.034 358.697C213.284 356.86 214.291 355.941 215.053 355.941L215.99 356.035C216.245 356.069 216.504 356.069 216.759 356.035C217.242 355.849 217.684 355.572 218.062 355.219C218.445 354.881 218.848 354.568 219.271 354.282C219.559 354.121 219.88 354.025 220.209 354C220.494 353.981 220.771 353.895 221.015 353.747C221.371 353.41 221.671 353.147 221.953 352.96C222.18 352.782 222.429 352.634 222.693 352.519C222.937 352.416 223.443 352.172 224.203 351.797L224.606 351.479L224.653 351.366ZM169.2 326.11C169.246 325.967 169.222 325.81 169.134 325.688C169.006 325.533 168.846 325.409 168.665 325.322C167.837 325.502 167.045 325.819 166.321 326.26C165.46 326.699 164.629 327.196 163.837 327.75C162.987 328.338 162.293 328.854 161.756 329.297C160.54 330.374 159.397 331.53 158.334 332.757C156.91 334.356 155.714 336.145 154.781 338.072C154.046 339.453 153.611 340.974 153.506 342.535C153.468 343.185 153.657 343.828 154.04 344.354C154.456 344.839 154.983 345.216 155.578 345.45C155.879 345.59 156.193 345.7 156.515 345.779C156.784 345.841 157.231 345.963 157.856 346.144C158.481 346.325 158.793 346.597 158.793 346.96C158.751 347.699 158.507 348.412 158.09 349.022C157.514 349.922 156.827 350.748 156.046 351.479C155.068 352.405 153.935 353.154 152.7 353.691C150.956 354.494 149.059 354.91 147.14 354.91C145.237 355.027 143.346 354.526 141.75 353.485C140.524 352.592 139.82 351.147 139.875 349.632C140.1 347.224 140.757 344.878 141.815 342.704L142.621 341.007C143.159 339.875 143.562 339.066 143.831 338.579C144.318 337.641 144.646 336.985 144.768 336.6C144.89 336.216 145.134 335.719 145.406 335.11C145.504 334.903 145.549 334.674 145.537 334.444C145.537 334.079 145.378 333.901 145.068 333.901C144.937 333.901 144.768 334.06 144.562 334.388C144.356 334.716 144.168 335.035 143.99 335.326L142.453 338.307L140.512 342.132C139.702 343.721 139.006 345.365 138.431 347.054C138.082 348.076 137.812 349.122 137.625 350.185C137.443 351.238 137.352 352.304 137.353 353.372C137.363 354.286 137.498 355.195 137.756 356.072C138.042 357.056 138.52 357.974 139.162 358.772C140.702 360.582 143.03 361.533 145.396 361.322C147.677 361.369 149.926 360.781 151.893 359.626C152.887 359.049 153.81 358.357 154.64 357.563C155.437 356.81 156.177 355.998 156.853 355.135C158.176 353.252 159.195 351.174 159.871 348.975C160.572 346.95 160.958 344.828 161.015 342.685C161.154 341.67 160.747 340.652 159.946 340.013C159.732 339.856 159.495 339.734 159.243 339.647L158.409 339.347L157.2 338.794C156.926 338.517 156.76 338.151 156.731 337.763C156.902 337.163 157.225 336.617 157.668 336.179C158.473 335.209 159.381 334.333 160.378 333.563C161.202 332.829 162.127 332.217 163.125 331.744C163.792 331.4 164.522 331.193 165.271 331.135C165.426 331.142 165.576 331.195 165.703 331.285L166.209 331.622C166.481 331.622 166.79 331.379 167.146 330.891C167.24 330.769 167.493 330.291 167.915 329.466C168.26 328.835 168.573 328.188 168.853 327.526C169.032 327.064 169.167 326.587 169.256 326.1L169.2 326.11ZM197.184 352.154L196.246 354.535C195.848 355.388 195.364 356.198 194.803 356.954C194.427 357.516 193.966 358.016 193.434 358.435C192.797 358.796 192.125 359.087 191.428 359.307L190.021 359.822C189.302 360.047 188.587 360.285 187.875 360.535C187.179 360.769 186.459 360.92 185.728 360.985L185.456 360.854C185.456 360.554 186.259 359.91 187.865 358.922L190.481 357.122C190.924 356.822 191.416 356.457 191.953 356.025C192.576 355.518 193.162 354.967 193.706 354.375C194.26 353.808 194.683 353.127 194.943 352.379C194.95 352.248 194.972 352.12 195.009 351.994L193.265 352.126C192.526 352.153 191.804 351.886 191.259 351.385C190.763 350.994 190.507 350.37 190.584 349.744C190.65 349.323 190.762 348.911 190.921 348.516C191.1 348.047 191.503 347.185 192.131 345.938C192.477 345.219 192.882 344.529 193.34 343.875C193.921 343.097 194.484 342.713 195.018 342.713C195.922 342.719 196.779 343.12 197.362 343.81C198.029 344.526 198.389 345.476 198.365 346.454C198.365 346.972 198.321 347.49 198.234 348L198 349.35C197.934 349.735 197.831 350.204 197.7 350.738C197.587 351.214 197.43 351.678 197.231 352.126L197.184 352.154ZM187.087 343.557C187.043 344.424 186.931 345.285 186.75 346.135C186.525 347.335 186.3 348.388 186.075 349.294L185.268 352.5C184.818 353.707 184.462 354.588 184.2 355.144C183.87 355.83 183.5 356.497 183.093 357.141C182.813 357.591 182.461 357.993 182.053 358.332C181.482 358.738 180.876 359.092 180.243 359.391L177.834 360.329C177.317 360.489 176.791 360.617 176.259 360.713C175.741 360.84 175.215 360.928 174.684 360.975C174.459 360.975 174.328 360.9 174.281 360.75C174.244 360.559 174.292 360.36 174.412 360.207C174.883 359.574 175.46 359.028 176.118 358.594C177.037 357.907 177.944 357.241 178.837 356.597C179.862 355.697 180.621 354.988 181.115 354.469C181.883 353.668 182.557 352.781 183.121 351.825C183.349 351.402 183.541 350.96 183.693 350.504C183.937 349.835 184.328 348.75 184.865 347.25L185.671 344.925C185.765 344.579 185.896 344.166 186.075 343.669C186.253 343.172 186.478 342.929 186.75 342.929C186.914 343.106 187.03 343.322 187.087 343.557ZM290.868 348.657C290.868 348.141 290.868 347.307 291 346.144C291.112 344.763 291.269 343.388 291.468 342.019L292.612 334.154L292.884 332.476C292.965 332.138 292.987 331.789 292.95 331.444L292.678 331.575C292.277 332.394 291.74 333.598 291.065 335.185C290.39 336.772 290.034 337.653 289.996 337.829C289.684 339.935 289.281 342.975 288.787 346.95C288.293 350.925 288.046 353.163 288.046 353.663C287.991 355.336 288.274 357.005 288.881 358.566C289.364 359.803 290.603 360.588 291.928 360.497C292.865 360.497 293.781 359.801 294.675 358.407C295.736 356.578 296.483 354.585 296.887 352.51L297.056 351.676C297.113 351.42 297.147 351.159 297.159 350.897C297.159 350.466 297.046 350.251 296.821 350.251C296.596 350.251 296.503 350.447 296.39 350.832L296.09 351.863C295.596 353.194 295.037 353.86 294.412 353.86C293.676 353.88 292.951 353.678 292.331 353.279C291.255 352.38 290.701 350.997 290.859 349.604V348.666L290.868 348.657ZM178.706 329.466C178.792 329.93 178.756 330.407 178.603 330.854C178.407 331.434 178.159 331.996 177.862 332.532C177.511 333.177 177.047 333.755 176.493 334.238C176.272 334.507 175.964 334.69 175.621 334.754C175.268 334.636 174.946 334.437 174.684 334.172C174.271 333.828 173.847 333.495 173.409 333.169C173.08 332.921 172.767 332.652 172.471 332.363C172.261 332.206 172.116 331.975 172.068 331.716C172.337 331.16 172.537 330.732 172.668 330.432C173.118 329.494 173.446 328.801 173.671 328.369C174.075 327.722 174.478 327.057 174.881 326.372L175.284 325.791C175.408 325.913 175.543 326.023 175.687 326.119L176.221 326.438C176.901 326.933 177.529 327.496 178.096 328.116C178.412 328.506 178.622 328.971 178.706 329.466ZM213.834 320.897C213.753 320.403 213.546 319.938 213.234 319.547C212.666 318.927 212.038 318.365 211.359 317.869L210.825 317.55C210.68 317.458 210.545 317.351 210.421 317.232L210.018 317.813C209.618 318.5 209.215 319.166 208.809 319.81C208.584 320.241 208.249 320.928 207.806 321.872C207.675 322.172 207.468 322.604 207.206 323.157C207.255 323.415 207.398 323.646 207.609 323.804C207.904 324.091 208.217 324.361 208.546 324.61C208.978 324.929 209.402 325.26 209.821 325.604C210.083 325.869 210.405 326.069 210.759 326.185C211.101 326.121 211.411 325.939 211.631 325.669C212.188 325.186 212.654 324.609 213.009 323.963C213.307 323.428 213.555 322.866 213.75 322.285C213.903 321.84 213.939 321.36 213.853 320.897H213.834ZM220.734 320.513C220.82 320.977 220.785 321.454 220.631 321.9C220.436 322.482 220.188 323.043 219.89 323.579C219.54 324.225 219.076 324.803 218.521 325.285C218.301 325.555 217.992 325.737 217.65 325.8C217.296 325.681 216.976 325.483 216.712 325.219C216.3 324.875 215.875 324.541 215.437 324.216C215.108 323.968 214.795 323.699 214.5 323.41C214.289 323.252 214.145 323.022 214.096 322.763C214.368 322.21 214.565 321.769 214.696 321.479C215.022 320.785 215.356 320.098 215.7 319.416C216.044 318.735 216.447 318.069 216.909 317.419L217.312 316.838C217.435 316.958 217.57 317.065 217.715 317.157L218.25 317.485C218.928 317.981 219.556 318.543 220.125 319.163C220.443 319.552 220.657 320.017 220.743 320.513H220.734ZM282.3 320.035C282.385 320.499 282.349 320.976 282.196 321.422C282.002 322.004 281.754 322.565 281.456 323.101C281.103 323.746 280.64 324.323 280.087 324.807C279.866 325.076 279.557 325.259 279.215 325.322C278.862 325.204 278.541 325.005 278.278 324.741C277.865 324.397 277.441 324.063 277.003 323.738C276.673 323.491 276.36 323.221 276.065 322.932C275.854 322.775 275.71 322.544 275.662 322.285C275.931 321.729 276.131 321.3 276.262 321C276.712 320.063 277.04 319.369 277.265 318.938C277.668 318.291 278.071 317.625 278.475 316.941L278.878 316.36C279.001 316.482 279.136 316.591 279.281 316.688L279.815 317.007C280.495 317.502 281.124 318.063 281.69 318.685C282.011 319.073 282.214 319.539 282.3 320.035ZM217.246 312.535C217.163 312.04 216.953 311.575 216.637 311.185C216.071 310.562 215.443 310.001 214.762 309.507L214.228 309.188C214.082 309.096 213.947 308.989 213.825 308.869L213.421 309.45C213.018 310.135 212.615 310.801 212.212 311.447C211.987 311.879 211.65 312.563 211.209 313.51C211.078 313.81 210.871 314.241 210.6 314.794C210.647 315.053 210.792 315.285 211.003 315.441C211.275 315.704 211.593 315.975 211.94 316.285L213.215 317.288C213.482 317.538 213.803 317.725 214.153 317.832C214.495 317.768 214.803 317.585 215.025 317.316C215.579 316.833 216.042 316.255 216.393 315.61C216.691 315.075 216.939 314.512 217.134 313.932C217.288 313.485 217.322 313.008 217.237 312.544L217.246 312.535ZM185.681 82.9599L197.596 103.585V201.375L223.706 220.369V289.904H193.303V225.854L163.303 195.854V123.563L145.771 93.1974H129.759L140.071 82.8849L185.681 82.9599ZM159.59 202.754L185.84 229.004V289.941H161.184L124.068 232.866H59.1465C64.3215 219.394 72.834 211.304 83.5215 216.694C83.634 208.125 86.7277 202.791 101.184 202.791L159.59 202.754ZM119.99 240.329L152.231 289.904H136.893L104.728 240.329H119.99ZM261.609 289.904H231.206V220.369L257.315 201.385V103.594L269.231 82.9692H314.812L325.125 93.2817H309.112L291.581 123.647V195.938L261.581 225.938L261.609 289.904ZM330.843 232.829L293.728 289.904H269.109V228.966L295.359 202.716H353.737C368.193 202.716 371.296 208.05 371.4 216.619C382.115 211.2 390.628 219.319 395.775 232.791L330.843 232.829ZM302.718 289.904L334.959 240.329H350.231L318.018 289.904H302.718ZM119.25 276.488H101.212V267.957H113.709L119.25 276.488ZM353.709 276.488H335.662L341.203 267.957H353.7L353.709 276.488ZM237.571 31.8755H264.018L264.103 76.8755L249.815 101.625V197.597L231.206 211.097V188.841L237.881 183.985V45.338H217.031V183.975L223.706 188.832V211.088L205.096 197.55V101.588L190.809 76.8755L190.893 31.8755H217.34V7.50049H237.581L237.571 31.8755ZM133.162 195.254H140.662V172.894H133.162V195.254ZM148.35 195.254H155.85V125.625L141.487 100.744H132.984L148.35 127.36V195.254ZM314.287 195.254H321.787V172.894H314.287V195.254ZM306.6 195.254H299.1V125.625L313.462 100.744H321.965L306.6 127.36V195.254Z" fill="#1F261A"/>
<defs>
<linearGradient id="paint0_linear_3_1132" x1="408.066" y1="0" x2="46.875" y2="0" gradientUnits="userSpaceOnUse">
<stop stop-color="#D8AC4E"/>
<stop offset="1" stop-color="#ECE482"/>
</linearGradient>
</defs>
</svg>
