<svg width="300" height="300" viewBox="0 0 300 300" fill="none" xmlns="http://www.w3.org/2000/svg">
<path fill-rule="evenodd" clip-rule="evenodd" d="M160.442 295.67C157.672 298.44 153.915 299.997 149.998 299.996C146.081 299.996 142.324 298.44 139.555 295.67C128.441 284.557 112.442 268.558 112.442 268.558C112.442 268.558 129.575 268.558 140.603 268.558C146.424 268.558 152.007 266.245 156.123 262.129C174.308 243.944 224.807 193.445 224.807 193.445L225.111 231.002C225.111 231.002 181.08 275.032 160.442 295.67ZM59.5324 227.202C63.6411 231.31 69.2135 233.618 75.0241 233.618C100.727 233.618 172.174 233.618 172.174 233.618L145.833 260.389H39.6076V207.276C39.6076 207.276 51.735 219.404 59.5324 227.202ZM260.389 260.389H207.276C207.276 260.389 219.404 248.261 227.202 240.464C231.31 236.355 233.618 230.783 233.618 224.972C233.618 199.269 233.618 127.822 233.618 127.822L260.389 154.164V260.389ZM4.3262 160.442C1.55623 157.672 -0.000624804 153.915 1.88102e-07 149.998C0.00062518 146.081 1.55623 142.324 4.3262 139.555C15.4392 128.441 31.4384 112.442 31.4384 112.442C31.4384 112.442 31.4384 129.575 31.4384 140.603C31.4384 146.424 33.7508 152.007 37.867 156.123C56.0518 174.308 106.551 224.807 106.551 224.807L68.9948 225.111C68.9948 225.111 24.9647 181.08 4.3262 160.442ZM149.998 81.1452C188 81.1452 218.851 111.997 218.851 149.998C218.851 188 188 218.851 149.998 218.851C111.997 218.851 81.1452 188 81.1452 149.998C81.1452 111.997 111.997 81.1452 149.998 81.1452ZM295.67 139.555C298.44 142.324 299.996 146.081 299.996 149.998C299.996 153.916 298.44 157.672 295.67 160.442C284.557 171.555 268.558 187.555 268.558 187.555C268.558 187.555 268.558 170.421 268.558 159.393C268.558 153.572 266.245 147.989 262.129 143.873C243.944 125.688 193.445 75.1891 193.445 75.1891L231.002 74.8853C231.002 74.8853 275.032 118.916 295.67 139.555ZM39.6076 39.6076H92.7201C92.7201 39.6076 80.5927 51.735 72.7947 59.5324C68.6866 63.6411 66.3785 69.2135 66.3785 75.0241C66.3785 100.727 66.3785 172.174 66.3785 172.174L39.6076 145.833V39.6076ZM187.555 31.4384C187.555 31.4384 170.421 31.4384 159.393 31.4384C153.572 31.4384 147.989 33.7508 143.873 37.867C125.688 56.0518 75.1891 106.551 75.1891 106.551L74.8853 68.9948C74.8853 68.9948 118.916 24.9647 139.555 4.3262C142.324 1.55623 146.081 0 149.998 0C153.916 0 157.672 1.55623 160.442 4.3262C171.555 15.4392 187.555 31.4384 187.555 31.4384ZM260.389 39.6076V92.7201C260.389 92.7201 248.261 80.5927 240.464 72.7947C236.355 68.6866 230.783 66.3785 224.972 66.3785C199.269 66.3785 127.822 66.3785 127.822 66.3785L154.164 39.6076H260.389Z" fill="#00194A"/>
</svg>
