<svg width="450" height="450" viewBox="0 0 450 450" fill="none" xmlns="http://www.w3.org/2000/svg">
<path fill-rule="evenodd" clip-rule="evenodd" d="M190.109 35.1562C239.956 35.1562 285.325 54.3228 319.234 85.6833C265.693 137.907 238.539 197.579 232.825 213.377C231.971 215.98 229.521 216.214 228.081 213.767C207.761 164.827 155.104 128.042 104.561 129.386C102.37 129.464 101.469 131.802 103.043 133.482C141.829 188.973 120.381 309.334 226.868 362.339C231.11 364.512 233.177 362.613 233.435 359.642C248.472 229.729 342.623 95.7121 445.243 62.1082C445.853 61.8737 447.795 61.6079 449.086 62.9601C450.386 64.3202 450.041 66.251 449.618 66.9779C423.725 108.836 410.754 185.557 387.96 253.601C357.174 345.486 292.518 414.844 190.109 414.844C85.1332 414.844 0 329.83 0 225C0 120.17 85.1332 35.1562 190.109 35.1562Z" fill="#7EC242"/>
</svg>
