<svg width="450" height="450" viewBox="0 0 450 450" fill="none" xmlns="http://www.w3.org/2000/svg">
<path d="M293.237 69.4123C293.237 107.644 262.792 138.825 225.461 138.825C188.13 138.825 157.684 107.644 157.684 69.4123C157.684 31.1807 188.13 0 225.461 0C262.792 0 293.237 31.1807 293.237 69.4123Z" fill="#324C88"/>
<path d="M156.763 155.353C156.763 183.699 134.186 206.821 106.507 206.821C78.827 206.821 56.25 183.699 56.25 155.353C56.25 127.004 78.827 103.882 106.507 103.882C134.186 103.882 156.763 127.004 156.763 155.353Z" fill="#324C88"/>
<path d="M393.75 156.297C393.75 184.643 371.175 207.765 343.495 207.765C315.814 207.765 293.237 184.643 293.237 156.297C293.237 127.948 315.814 104.827 343.495 104.827C371.175 104.827 393.75 127.948 393.75 156.297Z" fill="#324C88"/>
<path d="M225.461 275.761C253.141 275.761 275.716 252.639 275.716 224.293C275.716 195.945 253.141 172.823 225.461 172.823C197.78 172.823 175.206 195.945 175.206 224.293C175.206 252.639 197.78 275.761 225.461 275.761Z" fill="#324C88"/>
<path d="M124.027 309.759C142.057 309.759 156.763 294.699 156.763 276.233C156.763 257.768 142.057 242.707 124.027 242.707C105.996 242.707 91.2905 257.768 91.2905 276.233C91.2905 294.699 105.996 309.759 124.027 309.759Z" fill="#324C88"/>
<path d="M360.092 276.233C360.092 294.699 345.387 309.759 327.359 309.759C309.328 309.759 294.623 294.699 294.623 276.233C294.623 257.768 309.328 242.707 327.359 242.707C345.387 242.707 360.092 257.768 360.092 276.233Z" fill="#324C88"/>
<path d="M225 379.644C243.03 379.644 257.736 364.583 257.736 346.118C257.736 327.652 243.03 312.591 225 312.591C206.97 312.591 192.264 327.652 192.264 346.118C192.264 364.583 206.97 379.644 225 379.644Z" fill="#324C88"/>
<path d="M158.606 398.058C158.606 407.68 150.944 415.53 141.548 415.53C132.152 415.53 124.487 407.68 124.487 398.058C124.487 388.435 132.152 380.588 141.548 380.588C150.944 380.588 158.606 388.435 158.606 398.058Z" fill="#324C88"/>
<path d="M310.759 415.53C320.155 415.53 327.817 407.68 327.817 398.058C327.817 388.435 320.155 380.588 310.759 380.588C301.363 380.588 293.701 388.435 293.701 398.058C293.701 407.68 301.363 415.53 310.759 415.53Z" fill="#324C88"/>
<path d="M242.982 432.528C242.982 442.15 235.317 450 225.922 450C216.526 450 208.864 442.15 208.864 432.528C208.864 422.905 216.526 415.058 225.922 415.058C235.317 415.058 242.982 422.905 242.982 432.528Z" fill="#324C88"/>
</svg>
