<svg width="450" height="450" viewBox="0 0 450 450" fill="none" xmlns="http://www.w3.org/2000/svg">
<path fill-rule="evenodd" clip-rule="evenodd" d="M154.097 78.5711L154.095 78.5693C171.573 52.9118 196.478 27.0705 223.537 2.74426C239.203 21.5271 252.899 45.064 257.807 72.2308C277.198 61.0886 299.042 51.8205 322.071 44.0965C337.231 39.0124 352.872 34.6043 368.625 30.7596C366.676 65.9833 359.996 103.39 344.722 136.974V136.975L344.723 136.974C380.722 137.715 416.992 148.286 450 162.667C423.639 196.548 394.07 228.268 362.71 250.834L362.709 250.836L362.711 250.835C385.223 269.43 400.769 295.426 411.244 321.51C375.766 336.408 340.073 348.195 308.417 352.308L308.412 352.31L308.418 352.309C312.496 374.913 308.418 398.96 301.541 420.125C290.256 419.188 279.108 417.896 268.385 416.151C251.968 413.495 236.493 409.749 222.946 404.522L222.933 404.518L222.946 404.523C215.278 421.353 201.983 435.871 188.431 447.256C170.65 436.196 153.698 423.486 141.665 409.541L141.661 409.538L141.666 409.543C129.259 418.44 113.885 423.661 99.6159 426.62C90.7922 412.515 82.9294 397.053 79.0866 382.055C70.9125 383.107 62.3259 382.647 53.985 381.275C48.9028 380.451 43.8797 379.295 39.0759 377.94C37.1166 363.395 36.4256 347.7 38.9325 333.723V333.717L38.9316 333.722C26.9719 329.138 15.4631 320.631 5.55562 311.554C9.29625 297.8 14.7056 283.352 22.5572 271.816L22.5581 271.815C13.3706 261.139 5.91187 246.671 0 232.133C9.16781 220.502 20.4703 208.93 32.9841 201.701L32.8838 201.303C28.6641 184.418 27.6253 164.06 28.1859 143.95C33.72 141.253 39.5325 138.827 45.5297 136.802C55.4053 133.506 65.64 131.431 75.5681 131.606H75.57C79.7203 108.645 89.235 82.8555 100.622 57.6649C119.278 60.1005 138.958 66.0471 154.094 78.5693L154.097 78.5711Z" fill="#7DCDF1"/>
<path fill-rule="evenodd" clip-rule="evenodd" d="M184.71 135.603V135.602C195.973 122.18 209.48 108.477 225.236 95.0305C234.981 86.607 245.965 79.078 257.806 72.2305C259.716 82.8402 260.263 93.8586 259.039 105.132C257.03 123.753 253.004 141.716 247.409 158.451V158.451C264.679 151.183 283.963 145.045 304.866 140.564C317.897 137.795 331.245 136.681 344.721 136.974C338.946 149.641 331.985 161.634 323.721 172.624C310.399 190.355 296.301 205.81 282.12 218.912C299.072 221.54 316.54 226.282 333.808 233.348C344.407 237.696 354.021 243.662 362.71 250.835C351.103 259.162 339.266 266.241 327.196 271.752C307.899 280.559 289.508 286.989 272.438 291.368V291.369L272.439 291.368C282.659 301.538 291.854 313.4 299.358 326.715C303.859 334.655 306.785 343.315 308.417 352.308C296.632 353.848 285.332 354.338 274.682 353.535C257.447 352.267 241.821 349.565 227.918 345.773C229.959 357.8 230.386 370.401 229.029 383.038C228.222 390.459 226.059 397.666 222.944 404.524C214.5 401.257 206.732 397.445 199.901 392.887C188.633 385.385 178.9 377.283 170.729 368.882L170.666 368.829L170.728 368.893C166.77 378.672 161.526 388.027 155.031 396.621C151.314 401.601 146.746 405.869 141.664 409.541C136.975 404.137 132.979 398.475 129.907 392.567C124.72 382.7 120.867 372.77 118.191 363.032V363.031C111.047 368.914 103.138 373.889 94.6424 377.735C89.7571 379.987 84.5137 381.336 79.0865 382.055C77.5574 376.079 76.6546 370.136 76.5712 364.304C76.4052 354.403 77.3146 344.803 79.1427 335.72V335.719L79.1418 335.72C70.8908 337.325 62.3483 337.84 53.7674 337.205C48.7808 336.84 43.8083 335.611 38.9315 333.721C39.9721 328.064 41.5218 322.627 43.7258 317.656C47.549 309.094 52.2196 301.192 57.5877 294.11V294.109C49.7305 291.414 41.9858 287.612 34.5937 282.679C30.2549 279.78 26.2537 276.095 22.5562 271.817C25.7868 267.088 29.4055 262.842 33.4949 259.324C40.5787 253.246 48.2005 248.251 56.1168 244.36L56.1187 244.358L56.1168 244.359C50.0924 237.344 44.5705 229.22 39.7733 220.006C36.9224 214.546 34.6837 208.369 32.983 201.688C38.1674 198.725 43.5271 196.489 48.9927 195.323C58.4737 193.295 67.978 192.714 77.2143 193.475C74.8321 182.362 73.4643 170.109 73.2618 156.852C73.1071 148.865 73.9621 140.397 75.568 131.605C82.0865 131.74 88.4033 132.877 94.3068 135.302C104.417 139.416 113.671 145.146 121.87 152.114L121.874 152.116L121.871 152.113C125.497 138.095 130.711 123.103 137.736 107.418C142.041 97.7755 147.583 88.1483 154.093 78.5689C160.2 83.5911 165.476 89.6436 169.533 96.8314C176.391 108.962 181.426 122.117 184.709 135.602L184.71 135.603Z" fill="#00AAE7"/>
<path fill-rule="evenodd" clip-rule="evenodd" d="M149.921 189.763C149.706 190.249 150.136 190.256 149.921 189.763L149.928 189.746L149.921 189.73C157.483 172.582 169.117 154.164 184.71 135.602C189.418 155.201 190.318 175.192 187.695 193.751C187.346 194.043 187.323 194.393 187.544 194.8C187.596 194.451 187.647 194.102 187.696 193.751C203.517 180.588 223.684 168.413 247.409 158.45C239.532 181.987 228.71 202.801 216.25 219.631L216.247 219.632H216.25C220.047 218.877 223.922 218.263 227.917 217.765C244.691 215.696 263.023 215.947 282.12 218.919C262.587 236.923 242.792 250.483 224.231 259.359C241.126 265.977 257.753 276.793 272.441 291.368C253.467 296.224 235.905 298.523 220.33 298.576C216.605 298.583 212.986 298.459 209.495 298.22L209.494 298.219V298.219L209.495 298.22C218.492 311.622 224.909 327.936 227.917 345.769C208.485 340.435 192.103 332.848 179.312 323.756V323.747L179.311 323.754C179.618 338.542 176.712 354.063 170.728 368.881C158.99 356.845 150.203 343.962 144.594 331.073V331.073V331.073C144.76 330.762 144.369 330.554 144.594 331.073V331.073V331.073C138.163 343.09 129.131 354.048 118.191 363.031C114.283 348.662 112.944 334.48 114.109 321.314L114.11 321.313H114.109V321.314C103.743 328.362 91.7769 333.285 79.1412 335.72C81.9087 322.058 86.8128 309.41 93.5122 298.623C93.9191 298.587 93.8037 298.153 93.5131 298.623C91.1328 298.837 88.7628 298.952 86.3581 298.952C76.8087 298.975 67.0906 297.378 57.5872 294.109C65.7341 283.293 75.4278 274.346 85.9953 267.896C75.2413 262.704 65.0778 254.729 56.1172 244.359C65.8137 239.586 75.9228 236.523 85.8978 235.292C88.3812 234.972 90.8806 234.796 93.3762 234.724C93.6519 235.154 93.9031 234.708 93.3753 234.724C86.1884 223.557 80.6431 209.594 77.2353 193.476C91.2584 194.657 104.47 198.961 115.708 205.952V205.952C115.735 206.432 116.125 206.211 115.708 205.952V205.952V205.952C114.799 190.153 116.777 171.904 121.871 152.114C134.107 162.53 143.698 175.529 149.921 189.73L149.913 189.747L149.921 189.763Z" fill="#006FBA"/>
<path fill-rule="evenodd" clip-rule="evenodd" d="M187.724 193.536C187.714 193.608 187.705 193.68 187.695 193.751C174.992 204.33 164.923 215.696 157.899 227.291C157.979 214.712 155.238 201.907 149.92 189.763C143.734 203.817 140.142 217.266 139.316 229.566C133.643 220.071 125.508 212.046 115.708 205.953C116.445 219.194 119.228 230.973 123.97 240.729C114.76 236.342 104.314 234.387 93.3747 234.725C93.2509 234.532 93.0062 234.558 92.6697 234.748C92.905 234.74 93.1403 234.731 93.3756 234.725C99.5097 244.294 106.957 251.974 115.425 257.229C105.394 258.416 95.3659 262.164 85.9956 267.896C95.3659 272.447 105.287 274.867 115.187 274.819C106.742 280.91 99.4065 289.086 93.5125 298.624V298.624C103.931 297.683 113.995 294.642 123.004 289.521C118.104 299.052 115.145 309.868 114.109 321.313C123.375 315.04 131.268 307.162 137.19 298.031C137.269 308.915 139.828 320.086 144.593 331.073C150.273 320.442 153.78 309.152 154.733 297.971C160.406 307.507 168.75 316.237 179.311 323.754L179.312 323.753C179.055 310.939 176.389 298.9 171.323 288.574C181.86 293.926 194.756 297.202 209.493 298.22C201.895 286.92 192.585 277.862 182.18 271.748C195.102 270.65 209.355 266.479 224.229 259.359C210.407 253.95 196.505 251.452 183.443 251.961C195.015 244.197 206.163 233.25 216.249 219.632L216.248 219.631C200.324 222.781 186.126 228.137 174.336 235.418C180.981 223.315 185.526 209.134 187.696 193.751C187.752 193.704 187.758 193.632 187.724 193.536Z" fill="white"/>
</svg>
