<svg width="450" height="450" viewBox="0 0 450 450" fill="none" xmlns="http://www.w3.org/2000/svg">
<path fill-rule="evenodd" clip-rule="evenodd" d="M225 309.375C256.045 309.375 281.25 334.58 281.25 365.625C281.25 396.67 256.045 421.875 225 421.875C193.955 421.875 168.75 396.67 168.75 365.625C168.75 334.58 193.955 309.375 225 309.375ZM406.582 295.026H43.4193C16.1243 264.571 0 227.008 0 186.388C0 148.108 14.32 112.543 38.8143 83.0829H163.376C118.769 102.416 88.1564 142.07 88.1564 187.802C88.1564 225.39 108.836 258.871 140.968 280.339H309.032C341.165 258.87 361.843 225.39 361.843 187.802C361.843 142.07 331.231 102.416 286.624 83.0829H411.186C435.679 112.543 450 148.108 450 186.388C450 227.007 433.875 264.57 406.582 295.026ZM238.352 240.068H112.241C160.162 221.815 193.615 180.651 193.615 132.845C193.615 87.1118 163.002 47.4571 118.396 28.125H242.957C267.451 57.5857 281.771 93.1504 281.771 131.43C281.771 172.049 265.648 209.611 238.352 240.068Z" fill="#173576"/>
</svg>
