<svg width="450" height="450" viewBox="0 0 450 450" fill="none" xmlns="http://www.w3.org/2000/svg">
<path fill-rule="evenodd" clip-rule="evenodd" d="M40.4091 292.972L112.5 417.836H166.255L94.4456 294.037L108.144 270.31L193.318 417.836H337.5L364.412 371.224L221.092 371.283L135.471 222.981L166.644 168.985H111.993L40.4091 292.972ZM377.909 347.845L450 222.981L423.123 176.427L351.814 300.516H324.417L409.591 152.99L337.5 28.125H283.677L355.387 152.213L269.765 300.516H207.416L234.742 347.845H377.909ZM242.438 98.1159L228.741 74.3888L85.6228 74.6784L112.5 28.125H256.682L328.266 152.111L300.939 199.441L269.765 145.446H98.52L26.9119 269.593L0 222.981L72.0909 98.1159H242.438Z" fill="#B11116"/>
<path fill-rule="evenodd" clip-rule="evenodd" d="M225 169.171C255.158 169.171 279.644 193.657 279.644 223.815C279.644 253.973 255.158 278.459 225 278.459C194.841 278.459 170.355 253.973 170.355 223.815C170.355 193.657 194.841 169.171 225 169.171Z" fill="#00A1BF"/>
</svg>
