<svg width="450" height="450" viewBox="0 0 450 450" fill="none" xmlns="http://www.w3.org/2000/svg">
<path fill-rule="evenodd" clip-rule="evenodd" d="M348.51 356.959C317.463 386.83 276.014 403.533 232.93 403.533C164.127 403.533 102.084 360.936 77.3617 296.729C76.892 295.46 75.8055 294.515 74.4845 294.228C73.173 293.896 71.7789 294.255 70.7927 295.18L1.33422 358.567C0.510153 359.299 0.0282778 360.343 0.00390282 361.444C-0.0448472 362.544 0.36484 363.616 1.13547 364.401C45.7577 411.517 107.869 438.24 172.762 438.24C244.544 438.24 312.553 405.542 357.381 349.477C357.47 349.372 357.519 349.238 357.519 349.1C357.519 348.78 357.255 348.516 356.935 348.516C356.763 348.516 356.599 348.592 356.488 348.723C353.935 351.502 351.275 354.247 348.51 356.959ZM260.139 136.714C331.246 157.27 380.545 222.84 380.545 296.859C380.545 334.992 367.461 371.995 343.489 401.651C342.62 402.692 342.342 404.11 342.755 405.402C343.124 406.705 344.137 407.733 345.434 408.121L435.056 436.56C435.453 436.683 435.866 436.746 436.282 436.746C438.09 436.746 439.695 435.553 440.216 433.82C446.705 411.972 450 389.299 450 366.508C450 250.187 364.159 150.281 249.164 132.766C248.872 132.714 248.586 132.896 248.509 133.182C248.495 133.233 248.488 133.285 248.488 133.338C248.488 133.612 248.679 133.852 248.946 133.916C252.703 134.71 256.434 135.643 260.139 136.714ZM113.6 323.381C110.367 310.298 108.733 296.871 108.733 283.395C108.733 191.945 183.985 116.693 275.435 116.693C284.102 116.693 292.756 117.369 301.317 118.714C301.517 118.744 301.719 118.758 301.919 118.758C304.184 118.758 306.047 116.896 306.047 114.631C306.047 114.349 306.019 114.069 305.962 113.793L285.778 21.9681C285.553 20.8928 284.892 19.9581 283.953 19.3881C283.026 18.7872 281.889 18.5997 280.817 18.8725C174.803 44.2103 99.4014 139.756 99.4014 248.757C99.4014 278.201 104.904 307.388 115.624 334.812C115.734 335.086 116.032 335.239 116.319 335.169C116.572 335.103 116.75 334.874 116.75 334.612C116.75 334.545 116.739 334.478 116.715 334.415C115.564 330.803 114.512 327.092 113.6 323.381Z" fill="#832D6A"/>
<path d="M298.242 108.576L280.52 28.0038C280.393 27.3822 280.012 26.8422 279.468 26.516C278.931 26.1757 278.273 26.081 277.662 26.2572C178.806 52.0507 108.438 140.778 105.84 242.911C105.828 243.213 106.056 243.475 106.356 243.506C106.649 243.554 106.932 243.36 106.992 243.069C127.38 158.148 208.942 101.239 295.681 111.414C295.773 111.425 295.865 111.431 295.957 111.431C297.241 111.431 298.299 110.373 298.299 109.089C298.299 108.917 298.279 108.745 298.242 108.576Z" fill="url(#paint0_radial_3_1159)"/>
<path d="M353.829 404.033L432.457 428.978C432.685 429.05 432.923 429.086 433.162 429.086C434.214 429.086 435.146 428.383 435.433 427.371C462.46 328.882 420.809 223.636 333.705 170.313C333.619 170.267 333.523 170.242 333.425 170.242C333.099 170.242 332.83 170.511 332.83 170.839C332.83 170.99 332.888 171.136 332.991 171.245C396.321 231.373 404.82 330.445 352.658 400.48C352.205 401.09 352.079 401.884 352.32 402.604C352.568 403.293 353.128 403.823 353.829 404.033Z" fill="url(#paint1_radial_3_1159)"/>
<path d="M70.1771 304.447L9.25178 360.015C8.76709 360.434 8.48584 361.041 8.47697 361.682C8.46522 362.317 8.70897 362.932 9.1524 363.389C80.9349 436.082 192.947 452.651 282.702 403.853C282.975 403.713 283.089 403.377 282.96 403.099C282.85 402.827 282.548 402.679 282.266 402.762C198.524 427.565 108.455 385.388 73.8887 305.181C73.6018 304.484 72.9812 303.976 72.2415 303.832C71.4933 303.66 70.7087 303.894 70.1771 304.447Z" fill="url(#paint2_radial_3_1159)"/>
<path fill-rule="evenodd" clip-rule="evenodd" d="M227.48 191.002C272.386 183.681 314.787 214.194 322.109 259.101C329.43 304.006 298.916 346.408 254.011 353.729C209.105 361.051 166.703 330.537 159.382 285.631C152.06 240.726 182.574 198.324 227.48 191.002Z" fill="#FAA61A"/>
<path fill-rule="evenodd" clip-rule="evenodd" d="M312.134 245.934C297.571 206.523 253.751 186.349 214.34 200.912C174.928 215.475 154.755 259.296 169.318 298.706C183.881 338.118 227.701 358.291 267.113 343.728C306.523 329.165 326.697 285.345 312.134 245.934Z" fill="url(#paint3_radial_3_1159)"/>
<defs>
<radialGradient id="paint0_radial_3_1159" cx="0" cy="0" r="1" gradientTransform="matrix(117.188 -60.9375 80.2544 118.788 173.438 115.972)" gradientUnits="userSpaceOnUse">
<stop stop-color="#EC008C" stop-opacity="0.407843"/>
<stop offset="1" stop-color="#621A4F"/>
</radialGradient>
<radialGradient id="paint1_radial_3_1159" cx="0" cy="0" r="1" gradientTransform="matrix(-4.6875 -98.4375 521.326 68.3393 431.25 322.219)" gradientUnits="userSpaceOnUse">
<stop stop-color="#EC008C" stop-opacity="0.407843"/>
<stop offset="1" stop-color="#621A4F"/>
</radialGradient>
<radialGradient id="paint2_radial_3_1159" cx="0" cy="0" r="1" gradientUnits="userSpaceOnUse" gradientTransform="translate(121.874 411.28) rotate(19.179) scale(114.148 107.419)">
<stop stop-color="#EC008C" stop-opacity="0.407843"/>
<stop offset="1" stop-color="#621A4F"/>
</radialGradient>
<radialGradient id="paint3_radial_3_1159" cx="0" cy="0" r="1" gradientUnits="userSpaceOnUse" gradientTransform="translate(205.973 232.426) rotate(180) scale(111.591)">
<stop stop-color="#FFE293"/>
<stop offset="1" stop-color="#FAA61A"/>
</radialGradient>
</defs>
</svg>
