<svg width="450" height="450" viewBox="0 0 450 450" fill="none" xmlns="http://www.w3.org/2000/svg">
<path fill-rule="evenodd" clip-rule="evenodd" d="M28.125 450H421.875V445.848H28.125V450ZM28.125 444.003H421.875V434.12H28.125V444.003ZM263.167 108.286L235.012 286.41C235.012 286.41 233.07 317.85 249.32 335.639C257.177 344.241 266.798 346.629 275.731 351.763C283.615 356.294 292.59 364.519 293.975 374.268C296.153 389.606 279.914 391.658 271.28 388.384C262.095 384.9 255.12 383.635 245.94 384.022C225.508 384.884 220.901 399.652 220.969 405.041C221.2 423.458 238.593 430.254 238.593 430.254C238.593 430.254 221.452 430.349 208.162 430.469C129.94 431.177 103.136 377.515 93.1453 315.587L59.7 108.286H263.167ZM397.605 430.055H260.837C260.837 430.055 231.661 429.494 232.015 408.669C232.303 391.794 250.869 386.361 272.621 393.627C278.52 395.598 287.978 395.633 299.62 397.154C311.418 398.694 325.499 396.605 343.245 404.405C344.637 405.017 347.826 404.372 351.588 404.491C354.998 404.599 359.024 405.517 359.936 405.204C365.054 403.45 367.672 400.728 372.672 400.839C374.62 400.882 376.334 402.524 377.483 403.927C378.934 402.739 379.838 401.84 381.657 401.832C385.905 401.812 387.562 408.107 390.205 412.04C397.42 413.662 402.742 422.501 403.911 427.087C404.149 428.02 401.734 429.311 400.993 428.695C397.594 425.872 383.692 407.57 381.584 407.585C380.653 407.591 383.031 412.474 383.516 414.113C379.804 411.732 373.139 402.468 370.465 405.182C367.174 408.524 378.657 416.603 373.856 418.24C371.26 419.125 365.663 413.863 358.903 411.701C353.308 409.912 341.932 410.95 340.347 409.975C327.464 402.047 295.195 403.171 271.45 401.348C267.413 401.038 262.647 398.643 256.777 398.137C248.88 397.456 240.709 400.253 240.796 409.487C240.838 414.056 245.051 422.797 257.421 423.172C287.883 424.091 339.368 422.751 339.368 422.751L332.827 417.958C332.827 417.958 274.154 417.584 260.836 417.002C254.645 416.731 253.028 409.986 253.688 407.978C255.168 403.472 262.263 404.739 262.263 404.739C262.263 404.739 269.876 405.682 273.781 405.885C285.968 406.519 319.479 409.186 335.056 413.816C339.516 415.142 347.448 414.611 352.919 415.61C362.925 417.437 367.043 419.659 374.545 425.475L380.461 425.437C380.461 425.437 379.553 420.125 380.338 418.9C381.122 417.675 382.424 418.024 383.827 418.547C385.229 419.069 386.656 420.982 387.796 421.302C388.936 421.623 389.337 420.062 390.598 420.314C393.217 420.837 395.288 424.321 396.768 426.676C397.431 427.73 397.602 430.023 397.605 430.055ZM197.492 398.467C195.809 404.001 198.062 407.56 202.688 409.557L176.288 417.263C172.778 418.287 169.102 416.273 168.077 412.762C167.227 409.852 168.892 406.814 171.793 405.967L197.492 398.467ZM220.658 391.828C220.071 396.717 219.258 401.009 218.573 404.921L207.817 408.061C204.66 407.438 201.377 405.912 200.898 402.291C200.581 399.898 202.036 398.006 203.921 396.59L220.658 391.828ZM197.648 383.466C194.212 388.168 195.86 392.462 201.665 394.901L175.335 402.587C171.824 403.612 168.147 401.596 167.122 398.086C166.273 395.175 167.938 392.138 170.839 391.291L197.648 383.466ZM297.031 214.984C283.133 221.465 263.303 241.793 255.243 257.82C254.67 258.958 253.361 261.458 252.333 263.378C250.358 267.061 246.665 275.715 245.766 278.767C243.414 286.753 242.853 289.036 241.971 294.188C239.317 309.682 241.631 321.979 248.703 329.973C253.923 335.874 258.16 338.33 276.53 346.094C278.873 347.085 280.658 347.976 284.635 350.138C299.214 358.07 305.231 374.752 299.331 389.723C298.385 392.122 297.897 392.224 310.261 393.254C324.4 394.432 335.202 396.304 339.044 398.215C337.432 377.78 333.382 322.658 332.018 309.938C331.834 308.211 330.929 307.987 329.986 307.972C326.906 307.922 321.393 307.847 318.109 306.106C319.476 304.381 320.82 303.214 323.062 301.835L316.94 301.584C307.944 300.696 305.853 296.593 314.187 292.32C314.187 292.32 302.577 293.722 302.595 283.812C302.598 281.919 302.858 281.22 304.535 281.648C306.116 282.051 309.794 281.981 309.777 281.547C309.739 280.509 307.589 280.001 306.48 279.562C303.895 278.54 302.705 276.631 301.939 274.334C301.178 272.057 302.126 271.499 305.479 269.982C309.958 267.956 310.114 266.115 306.2 266.115C298.058 266.115 298.181 253.493 305.728 246.932C309.505 243.649 309.746 242.538 307.162 241.695C303.308 240.437 297.947 233.934 298.218 227.936C298.612 219.203 318.467 214.615 321.689 222.608C322.539 224.717 326.276 225.134 326.175 222.488C326.123 221.136 328.633 218.781 331.526 217.557C332.806 217.016 329.4 214.779 326.922 213.56C322.79 211.524 313.918 210.889 307.384 212.103C301.059 213.278 299.799 213.693 297.031 214.984ZM221.428 376.525C221.529 381.203 221.315 385.421 220.936 389.276L207.329 393.248C200.181 392.417 197.684 387.541 201.638 382.301L221.428 376.525ZM225.959 389.302C225.959 389.302 228.114 352.737 216.154 327.385C203.305 300.151 174.025 271.127 157.21 251.954C155.481 249.981 153.054 244.515 153.41 240.361C154.948 222.389 180.434 226.552 180.434 226.552C180.434 226.552 181.111 232.39 182.189 235.087C190.597 256.123 216.614 282.264 228.922 306.553C241.479 331.335 254.788 381.441 254.788 381.441C240.631 379.75 230.902 382.258 225.959 389.302ZM195.257 369.164C193.359 375.829 196.384 378.534 199.993 380.39L173.732 388.055C170.222 389.079 166.545 387.064 165.52 383.554C164.671 380.644 166.336 377.606 169.237 376.759L195.257 369.164ZM220.159 361.897C220.814 366.303 221.187 370.374 221.351 374.155L207.028 378.337C203.889 378.26 201.385 377.247 200.045 375.455C198.472 373.351 198.498 370.087 201.321 367.395L220.159 361.897ZM192.124 355.169C189.223 359.387 191.441 364.415 196.823 366.405L169.937 374.253C168.251 374.745 166.439 374.547 164.899 373.702C163.359 372.859 162.217 371.438 161.725 369.752L161.723 369.743C160.876 366.842 162.541 363.803 165.442 362.957L192.124 355.169ZM217.322 347.814C218.378 352.024 219.195 355.976 219.812 359.695L202.436 364.767C195.492 364.163 193.916 359.964 196.242 353.967L217.322 347.814ZM187.299 341.622C185.209 349.466 188.901 351.281 193.138 352.526L165.67 360.544C162.16 361.568 158.483 359.553 157.459 356.042C156.609 353.132 158.274 350.094 161.175 349.248L187.299 341.622ZM213.277 334.041C214.634 338.106 215.786 341.964 216.758 345.632L197.027 351.391C193.709 350.545 191.533 347.621 191.027 345.77C190.345 343.282 191.303 341.399 192.52 340.099L213.277 334.041ZM181.621 328.769C179.318 333.374 181.448 338.317 186.817 339.416L159.63 347.352C157.954 347.841 156.152 347.645 154.62 346.805C153.089 345.966 151.954 344.552 151.464 342.876C151.054 341.467 151.223 339.967 151.929 338.698C152.635 337.428 153.822 336.494 155.222 336.105L181.621 328.769ZM207.614 320.804C209.576 324.438 211.251 328.139 212.552 331.905L191.535 338.039C188.791 337.74 185.543 336.459 184.732 332.231C184.361 330.571 185.289 328.728 186.491 327.308L207.614 320.804ZM173.93 316.352C172.171 322.238 175.21 325.47 179.544 326.585L152.192 334.568C148.848 335.544 145.342 333.649 144.326 330.316C143.915 328.966 144.063 327.515 144.735 326.283C145.406 325.051 146.545 324.14 147.895 323.756L173.93 316.352ZM199.638 308.267C202.12 311.686 204.421 315.174 206.459 318.728L184.475 325.146C179.562 324.722 176.063 320.541 178.006 315.101L199.638 308.267ZM163.173 304.564C164.773 310.578 166.65 313.642 169.067 314.688L143.495 322.152C141.899 322.618 140.184 322.431 138.727 321.632C137.27 320.833 136.189 319.488 135.724 317.892C135.343 316.588 135.495 315.193 136.145 314.008C136.794 312.822 137.888 311.944 139.187 311.565L163.173 304.564ZM190.377 296.623C193.059 299.752 195.665 302.948 198.117 306.209L174.968 312.966C170.875 312.158 166.817 307.591 169.738 302.647L190.377 296.623ZM152.357 292.962C152.844 293.196 153.298 293.449 153.628 293.705C156.241 295.726 152.786 299.416 160.442 302.573L133.267 310.505C129.915 311.483 126.404 309.559 125.426 306.207C125.041 304.887 125.195 303.474 125.853 302.273C126.511 301.073 127.619 300.183 128.933 299.799L152.357 292.962ZM312.101 262.716C313.82 262.387 313.822 264.965 312.278 268.907C310.615 273.157 305.053 273.556 305.578 274.415C307.878 278.18 315.182 276.687 317.142 277.325C318.563 277.787 316.377 282.773 311.713 285.833C308.304 288.07 309.43 289.121 313.926 289.443C315.985 289.59 318.887 287.547 321.644 287.574C322.624 287.584 322.407 292.782 319.596 294.909C313.014 299.891 318.365 299.685 326.607 297.36C331.208 296.062 330.38 297.5 328.618 300.859C327.552 302.892 325.388 303.948 326.033 304.579C326.896 305.422 333.795 306.508 338.938 300.007C339.893 298.799 340.148 297.045 337.588 295.134C328.582 288.413 324.907 280.369 321.891 268.264C320.877 264.192 320.333 247.958 321.155 244.311C321.667 242.042 321.082 242.11 315.389 244.987C301.656 251.931 299.312 265.167 312.101 262.716ZM349.553 271.85C330.572 272.017 325.567 284.618 340.195 293.505C342.494 294.9 341.996 295.328 341.997 297.255C341.998 299.995 344.685 301.68 346.929 301.876C351.938 302.312 354.676 300.486 355.597 294.251C356.047 291.196 356.908 289.601 360.018 285.426C361.494 283.443 362.167 282.151 361.772 282.007C361.038 281.737 359.111 282.181 357.586 284.762C352.468 293.425 339.367 291.426 336.426 285.168C334.379 280.815 338.021 274.877 351.155 274.828C360.408 274.795 360.749 275.169 361.603 278.291C362.285 280.785 363.878 279.771 367.23 274.707C372.755 266.361 372.031 264.922 366.39 267.995C361.047 270.905 356.405 271.789 349.553 271.85ZM179.837 284.942C182.718 288.018 185.616 291.172 188.447 294.399L166.046 300.938C163.89 300.405 161.844 299.133 160.304 297.096C159.008 295.383 159.097 292.622 161 290.44L179.837 284.942ZM145.317 280.299C143.832 285.853 145.447 288.326 150.883 290.086L123.601 298.049C122.003 298.516 120.285 298.328 118.826 297.528C117.367 296.728 116.285 295.381 115.818 293.783C115.43 292.453 115.591 291.032 116.264 289.83C116.936 288.628 118.063 287.747 119.392 287.384L145.317 280.299ZM168.655 273.112C171.462 276.103 174.408 279.183 177.397 282.348L155.617 288.704C149.858 287.53 148.027 282.804 150.747 278.65L168.655 273.112ZM134.476 268.62C134.061 274.839 138.142 276.861 142.363 277.618L114.374 285.787C110.669 286.869 106.775 284.818 105.57 281.152C105.421 280.698 105.274 280.248 105.13 279.812C104.773 278.724 104.891 277.537 105.456 276.541C106.02 275.545 106.978 274.834 108.094 274.582L134.476 268.62ZM345.185 279.841C348.883 279.817 352.112 280.069 355.552 283.641C355.876 283.977 356.272 282.848 356.519 282.323C357.078 281.137 358.179 279.881 357.033 279.071C354.77 277.473 348.28 277.073 343.315 278.588C340.357 279.493 341.661 279.864 345.185 279.841ZM158.255 261.471C160.68 264.414 163.412 267.467 166.332 270.622L146.994 276.266C139.386 276.07 138.053 269.954 138.625 266.482L141.268 264.848L158.255 261.471ZM126.562 256.123C127.528 260.681 130.33 262.835 133.297 264.692L104.003 272.002C101.757 272.563 99.4069 271.618 98.1731 269.66C97.3763 268.394 96.4397 266.907 95.5359 265.472C94.7475 264.219 94.6622 262.649 95.3109 261.319C95.9597 259.989 97.2497 259.089 98.7225 258.94L126.562 256.123ZM344.92 263.204C343.978 264.769 342.595 266.877 340.312 268.851C338.733 270.215 356.697 268.701 361.305 266.061C364.539 264.208 368.108 264.537 369.023 264.773C370.362 265.12 370.133 263.149 368.913 259.568C366.417 252.253 362.084 250.055 356.077 252.133C352.184 253.48 348.855 256.667 344.92 263.204ZM344.352 247.884C342.627 249.468 340.225 251.843 338.5 253.046C331.508 257.921 328.373 262.751 331.072 265.419C335.673 269.97 344.246 262.326 344.376 253.174C344.431 249.318 347.744 245.587 356.903 244.497C359.347 244.207 360.027 243.263 357.336 243.311C354.604 243.36 352.014 243.411 351.583 243.556C348.802 244.494 347.089 245.373 344.352 247.884ZM150.362 250.088C151.852 252.942 153.881 255.928 156.307 259.041L137.441 263.658C133.538 261.736 128.096 255.61 132.669 251.579L132.675 251.541L150.362 250.088ZM354.179 248.183C356.699 247.855 360.399 247.407 362.96 248.377C368.517 250.478 372.416 255.796 372.592 259.631C372.686 261.671 373.936 262.624 374.52 260.297C374.912 258.738 376.579 254.817 376.66 251.039C376.675 250.332 376.582 249.106 375.983 248.728C375.347 248.327 372.686 248.584 371.482 248.367C369.894 248.08 367.381 247.491 366.048 246.79C363.004 245.192 356.951 245.686 353.636 246.64C352.877 246.859 351.655 248.512 354.179 248.183ZM125.512 254.276L96.1809 255.094C93.5156 255.168 91.2028 253.271 90.7528 250.643C90.5906 249.7 90.4144 248.671 90.2344 247.617C89.8209 245.206 90.5634 242.74 92.2387 240.957C93.915 239.175 96.33 238.281 98.7628 238.544C107.725 239.513 115.086 240.358 119.573 240.862C120.248 247.802 123.826 252.442 125.512 254.276ZM328.141 251.034C331.012 253.878 336.382 252.959 338.512 250.212C344.238 242.829 348.835 240.912 355.933 240.882C358.333 240.873 357.24 239.782 355.061 237.734C352.162 235.01 350.338 234.758 346.835 234.953C344.16 235.103 343.237 234.935 343.237 234.127C343.24 230.857 337.562 228.841 333.668 231.248C326.821 235.478 323.775 246.712 328.141 251.034ZM351.68 238.606C351.908 238.958 345.904 240.659 343.475 242.376C342.46 243.092 341.871 243.825 340.934 244.329C340.733 244.438 337.111 244.37 335.744 242.794C334.261 241.084 335.105 237.157 337.856 237.196C339.524 237.219 338.559 238.597 337.939 240.157C337.594 241.025 337.736 242.153 338.287 242.321C343.342 243.861 341.812 235.876 338.797 235.363C336.582 234.987 332.275 236.626 332.023 240.084C331.905 241.702 332.091 243.231 334.072 244.757C335.743 246.044 337.794 245.69 339.472 245.557C337.243 247.873 334.932 249.808 332.287 249.666C328.769 249.476 328.331 243.133 330.604 238.601C331.939 235.939 335.195 232.94 337.767 233.064C341.273 233.236 340.898 235.552 342.497 237.157C343.425 238.09 350.378 236.602 351.68 238.606ZM150.171 247.301L128.581 248.219C122.639 243.862 122.377 226.805 125.348 224.602C131.53 231.862 140.309 234.503 149.285 235.889C148.969 237.375 148.766 239.015 148.691 240.822C148.621 242.522 148.749 245.567 150.171 247.301ZM324.831 228.53C323.037 230.185 322.417 230.099 320.392 227.071C318.261 223.884 315.489 222.533 312.936 222.501C307.04 222.425 302.029 227.901 301.609 228.734C301.252 229.443 302.302 229.701 302.643 230.988C303.772 235.248 308.11 241.217 313.935 241.541C318.41 241.791 322.255 240.208 325.286 235.357C328.254 230.607 331.192 227.445 334.368 226.307C338.838 224.704 343.092 226.481 347.088 230.558C347.723 231.206 349.67 231.501 350.287 231.474C351.502 231.421 354.363 233.536 355.797 235.267C358.737 238.815 360.07 238.954 359.368 236.643C358.846 234.924 352.794 228.458 349.405 227.355C346.335 226.356 342.957 220.947 337.824 219.882C335.579 219.415 333.697 220.917 331.837 222.522C329.445 224.584 325.524 227.89 324.831 228.53ZM119.378 237.993C114.845 237.202 102.187 235.005 93.1828 233.549C91.4775 233.274 89.9531 232.332 88.9444 230.931C87.9347 229.53 87.5241 227.785 87.8034 226.081C88.0434 224.612 88.3012 223.039 88.5478 221.529C88.8422 219.728 89.9512 218.164 91.5525 217.289C93.1537 216.413 95.07 216.326 96.7444 217.051C104.811 220.541 115.001 225.1 119.396 227.073C119.025 230.47 119.231 235.449 119.378 237.993ZM149.849 233.749C141.776 232.538 136.464 230.532 127.718 223.392C122.932 217.784 133.642 203.729 138.679 207.538C141.796 218.134 147.371 222.119 153.936 226.981C152.182 228.659 150.769 230.864 149.849 233.749ZM155.404 225.751C150.135 221.095 144.834 214.368 143.094 208.319C142.703 206.96 142.544 204.711 143.125 203.762C147.089 197.283 157.151 198.102 160.722 198.612C161.419 198.712 161.84 199.457 161.778 199.956C160.862 207.308 162.178 212.915 164.07 217.673C164.193 217.982 164.694 222.284 164.02 222.397C160.864 222.926 157.883 223.935 155.404 225.751ZM119.931 224.176L96.3103 211.759C94.5834 210.85 93.2888 209.292 92.7122 207.428C92.1366 205.565 92.3259 203.547 93.24 201.824C93.3422 201.63 93.4453 201.436 93.5494 201.24C94.725 199.022 96.8428 197.456 99.3084 196.982C101.773 196.508 104.321 197.177 106.236 198.801L124.013 213.878C122.47 216.479 120.832 220.501 119.931 224.176ZM168.51 221.936C165.481 217.799 164.631 206.874 165.101 200.307C165.191 199.053 166.092 198.634 166.432 198.648C172.889 198.926 177.741 200.707 182.743 205.288C183.325 205.822 183.46 207.207 183.2 207.574C180.107 211.913 178.85 216.817 179.11 222.191C175.848 222.003 172.162 221.763 168.51 221.936ZM125.362 211.791C120.838 208.031 107.968 197.243 106.709 195.198C104.826 184.005 115.301 177.408 122.214 179.934C124.121 182.675 130.941 197.177 133.474 202.611C129.587 205.695 126.955 209.391 125.362 211.791ZM179.207 196.882C182.893 192.477 191.363 182.465 194.919 179.13C197.494 176.717 202.094 175.516 204.279 177.275C206.275 178.882 209.72 182.439 210.344 185.216C211.234 189.171 210.253 191.906 207.109 193.937C203.423 196.318 192.028 202.573 187.235 205.187C184.997 201.424 182.425 198.727 179.207 196.882ZM135.895 200.808C133.043 195.188 125.752 180.74 124.056 176.651C123.543 175.415 123.273 173.502 124.357 172.268C128.355 167.713 137.657 164.483 142.592 164.984C144.747 165.203 145.506 166.311 145.572 168.031C145.807 174.128 146.241 189.772 146.388 195.188C142.659 196.44 138.981 198.623 135.895 200.808ZM164.481 193.551C166.773 187.463 171.691 174.437 173.29 170.44C173.754 169.282 174.675 166.161 176.335 165.268C178.184 164.274 182.607 163.828 185.633 164.578C188.659 165.328 191.962 167.879 193.016 169.891C194.071 171.903 193.516 174.237 192.28 176.15C189.893 179.844 181.107 190.96 177.195 195.874C173.749 194.379 169.611 193.673 164.481 193.551ZM148.879 194.502C148.776 188.278 148.555 170.732 149.228 165.833C149.551 163.492 151.238 161.595 153.511 160.943C156.426 160.103 164.197 160.067 167.143 161.063C169.548 161.877 171.583 164.024 171.212 166.536C170.527 171.183 164.508 187.035 161.991 193.535C158.694 193.567 155.017 193.801 150.892 194.19C150.225 194.253 149.553 194.359 148.879 194.502ZM263.567 105.758H59.2922L58.8394 102.953H264.01L263.567 105.758ZM264.851 97.6322H57.9816L57.0216 91.6838C57.7219 91.5197 58.4138 91.3191 59.0953 91.0753C61.3313 90.2775 63.3956 89.0503 65.175 87.4791C66.8597 85.9913 68.2762 84.2194 69.4556 82.3097C70.335 80.8866 71.0869 79.3856 71.7394 77.8453C71.8762 77.5209 72.0009 77.19 72.1247 76.8591V71.1C71.9475 71.1459 71.7741 71.2059 71.6053 71.2781C70.6013 71.7103 69.885 72.5625 69.3994 73.5197C69.0816 74.1441 68.8678 74.8144 68.6128 75.465C68.4937 75.7669 68.3681 76.065 68.2453 76.3641C67.9359 77.0681 67.6191 77.7647 67.2741 78.4528C66.4059 80.1188 65.4075 81.7125 64.1634 83.1272C62.1319 85.4391 59.5125 87.1153 56.5303 87.9009L56.4159 87.93L44.4788 13.9425H278.079L266.32 88.3397C265.564 88.2422 264.812 88.095 264.077 87.9009C261.095 87.1153 258.476 85.4391 256.444 83.1272C255.201 81.7125 254.201 80.1188 253.333 78.4528C252.988 77.7647 252.671 77.0681 252.362 76.3641C252.239 76.065 252.113 75.7669 251.995 75.465C251.739 74.8144 251.526 74.1441 251.208 73.5197C250.722 72.5625 250.006 71.7103 249.002 71.2781C248.833 71.2059 248.66 71.1459 248.483 71.1V76.8591C248.606 77.19 248.731 77.5209 248.869 77.8453C249.521 79.3856 250.272 80.8866 251.152 82.3097C252.332 84.2194 253.747 85.9913 255.432 87.4791C257.212 89.0503 259.277 90.2775 261.513 91.0753C262.882 91.5647 264.295 91.8825 265.73 92.0766L264.851 97.6322ZM138.418 88.5019C138.418 88.5019 140.091 88.485 140.566 88.4578C141.746 88.3903 142.928 88.2019 144.071 87.9009C147.053 87.1153 149.672 85.4391 151.704 83.1272C152.947 81.7125 153.947 80.1188 154.815 78.4528C155.159 77.7647 155.476 77.0681 155.786 76.3641C155.908 76.065 156.035 75.7669 156.153 75.465C156.409 74.8144 156.623 74.1441 156.939 73.5197C157.425 72.5625 158.142 71.7103 159.145 71.2781C159.314 71.2059 159.488 71.1459 159.666 71.1V76.8591C159.542 77.19 159.417 77.5209 159.279 77.8453C158.627 79.3856 157.875 80.8866 156.996 82.3097C155.816 84.2194 154.4 85.9913 152.715 87.4791C150.937 89.0503 148.871 90.2775 146.635 91.0753C144.752 91.7484 142.79 92.0963 140.799 92.2453C140.21 92.2734 138.301 92.3006 138.301 92.3006C137.68 92.3016 136.59 92.2716 136.038 92.2453C134.047 92.0963 132.085 91.7484 130.202 91.0753C127.966 90.2775 125.901 89.0503 124.122 87.4791C122.437 85.9913 121.021 84.2194 119.842 82.3097C118.962 80.8866 118.21 79.3856 117.558 77.8453C117.42 77.5209 117.295 77.19 117.172 76.8591V71.1C117.349 71.1459 117.523 71.2059 117.692 71.2781C118.695 71.7103 119.412 72.5625 119.898 73.5197C120.215 74.1441 120.428 74.8144 120.684 75.465C120.802 75.7669 120.929 76.065 121.051 76.3641C121.361 77.0681 121.678 77.7647 122.022 78.4528C122.89 80.1188 123.89 81.7125 125.133 83.1272C127.165 85.4391 129.784 87.1153 132.766 87.9009C133.909 88.2019 135.091 88.3903 136.271 88.4578C136.778 88.4869 137.91 88.4672 138.418 88.5019ZM225.959 92.2997C225.959 92.2997 224.131 92.2716 223.578 92.2453C221.588 92.0963 219.625 91.7484 217.742 91.0753C215.506 90.2775 213.442 89.0503 211.662 87.4791C209.978 85.9913 208.561 84.2194 207.382 82.3097C206.502 80.8866 205.75 79.3856 205.098 77.8453C204.961 77.5209 204.836 77.19 204.713 76.8591V71.1C204.89 71.1459 205.063 71.2059 205.232 71.2781C206.236 71.7103 206.952 72.5625 207.438 73.5197C207.756 74.1441 207.969 74.8144 208.224 75.465C208.343 75.7669 208.469 76.065 208.592 76.3641C208.901 77.0681 209.218 77.7647 209.563 78.4528C210.431 80.1188 211.43 81.7125 212.674 83.1272C214.705 85.4391 217.325 87.1153 220.307 87.9009C221.45 88.2019 222.631 88.3903 223.811 88.4578C224.319 88.4869 225.451 88.4672 225.959 88.5019C225.959 88.5019 227.631 88.485 228.107 88.4578C229.286 88.3903 230.468 88.2019 231.611 87.9009C234.593 87.1153 237.212 85.4391 239.244 83.1272C240.487 81.7125 241.487 80.1188 242.355 78.4528C242.7 77.7647 243.017 77.0681 243.326 76.3641C243.449 76.065 243.575 75.7669 243.693 75.465C243.949 74.8144 244.162 74.1441 244.48 73.5197C244.966 72.5625 245.682 71.7103 246.686 71.2781C246.855 71.2059 247.028 71.1459 247.206 71.1V76.8591C247.082 77.19 246.957 77.5209 246.82 77.8453C246.168 79.3856 245.416 80.8866 244.537 82.3097C243.356 84.2194 241.941 85.9913 240.256 87.4791C238.477 89.0503 236.411 90.2775 234.175 91.0753C232.293 91.7484 230.33 92.0963 228.34 92.2453C227.751 92.2734 226.55 92.3063 225.959 92.2997ZM182.291 88.4962C182.836 88.47 183.861 88.485 184.337 88.4578C185.516 88.3903 186.698 88.2019 187.841 87.9009C190.823 87.1153 193.442 85.4391 195.474 83.1272C196.717 81.7125 197.717 80.1188 198.585 78.4528C198.93 77.7647 199.247 77.0681 199.556 76.3641C199.678 76.065 199.805 75.7669 199.923 75.465C200.179 74.8144 200.393 74.1441 200.709 73.5197C201.195 72.5625 201.912 71.7103 202.915 71.2781C203.084 71.2059 203.258 71.1459 203.436 71.1V76.8591C203.312 77.19 203.187 77.5209 203.049 77.8453C202.397 79.3856 201.646 80.8866 200.766 82.3097C199.586 84.2194 198.171 85.9913 196.486 87.4791C194.707 89.0503 192.641 90.2775 190.405 91.0753C188.522 91.7484 186.56 92.0963 184.57 92.2453C183.981 92.2734 182.78 92.3063 182.189 92.2997C181.598 92.3063 180.398 92.2734 179.808 92.2453C177.818 92.0963 175.855 91.7484 173.972 91.0753C171.736 90.2775 169.671 89.0503 167.892 87.4791C166.207 85.9913 164.791 84.2194 163.612 82.3097C162.732 80.8866 161.98 79.3856 161.328 77.8453C161.19 77.5209 161.065 77.19 160.942 76.8591V71.1C161.12 71.1459 161.293 71.2059 161.462 71.2781C162.466 71.7103 163.182 72.5625 163.668 73.5197C163.985 74.1441 164.199 74.8144 164.454 75.465C164.572 75.7669 164.699 76.065 164.821 76.3641C165.131 77.0681 165.448 77.7647 165.793 78.4528C166.66 80.1188 167.66 81.7125 168.903 83.1272C170.935 85.4391 173.554 87.1153 176.537 87.9009C177.679 88.2019 178.861 88.3903 180.041 88.4578C180.548 88.4869 182.291 88.4962 182.291 88.4962ZM92.5003 88.4578C93.0084 88.4869 96.3197 88.485 96.7959 88.4578C97.9763 88.3903 99.1584 88.2019 100.3 87.9009C103.283 87.1153 105.902 85.4391 107.934 83.1272C109.178 81.7125 110.177 80.1188 111.044 78.4528C111.389 77.7647 111.706 77.0681 112.016 76.3641C112.138 76.065 112.265 75.7669 112.383 75.465C112.638 74.8144 112.852 74.1441 113.169 73.5197C113.655 72.5625 114.371 71.7103 115.375 71.2781C115.544 71.2059 115.717 71.1459 115.896 71.1V76.8591C115.772 77.19 115.647 77.5209 115.509 77.8453C114.857 79.3856 114.105 80.8866 113.226 82.3097C112.046 84.2194 110.63 85.9913 108.945 87.4791C107.166 89.0503 105.101 90.2775 102.865 91.0753C100.982 91.7484 99.0197 92.0963 97.0294 92.2453C96.4397 92.2734 92.82 92.2716 92.2669 92.2453C90.2775 92.0963 88.3153 91.7484 86.4319 91.0753C84.1959 90.2775 82.1306 89.0503 80.3513 87.4791C78.6666 85.9913 77.2509 84.2194 76.0716 82.3097C75.1913 80.8866 74.4403 79.3856 73.7878 77.8453C73.65 77.5209 73.5253 77.19 73.4016 76.8591V71.1C73.5788 71.1459 73.7522 71.2059 73.9219 71.2781C74.925 71.7103 75.6422 72.5625 76.1278 73.5197C76.4447 74.1441 76.6584 74.8144 76.9144 75.465C77.0325 75.7669 77.1591 76.065 77.2809 76.3641C77.5903 77.0681 77.9072 77.7647 78.2522 78.4528C79.1203 80.1188 80.1197 81.7125 81.3628 83.1272C83.3953 85.4391 86.0138 87.1153 88.9959 87.9009C90.1388 88.2019 91.3209 88.3903 92.5003 88.4578ZM71.5359 69.3713C70.8994 69.9291 70.2188 70.5263 70.0406 70.6828C70.0116 70.7081 69.9741 70.7203 69.9356 70.7175C69.6084 70.6838 69.1547 70.5047 68.895 70.08C68.8472 69.9956 68.8678 69.8897 68.9419 69.8288C69.4481 69.3825 71.5434 67.5375 72.3984 66.7847C72.6075 66.6009 72.9206 66.6009 73.1297 66.7847C74.085 67.6266 76.5853 69.8288 76.5853 69.8288C76.6603 69.8897 76.68 69.9956 76.6331 70.08C76.3725 70.5047 75.9187 70.6838 75.5916 70.7175C75.5541 70.7203 75.5156 70.7081 75.4866 70.6828C75.195 70.4269 73.5572 68.9906 72.9722 68.4769C72.8531 68.3719 72.675 68.3719 72.555 68.4769C72.2053 68.7844 71.5359 69.3713 71.5359 69.3713ZM115.306 69.3713C114.67 69.9291 113.989 70.5263 113.811 70.6828C113.782 70.7081 113.744 70.7203 113.706 70.7175C113.379 70.6838 112.926 70.5047 112.665 70.08C112.618 69.9956 112.638 69.8897 112.712 69.8288C113.219 69.3825 115.313 67.5375 116.168 66.7847C116.378 66.6009 116.691 66.6009 116.9 66.7847C117.855 67.6266 120.355 69.8288 120.355 69.8288C120.43 69.8897 120.45 69.9956 120.403 70.08C120.143 70.5047 119.689 70.6838 119.363 70.7175C119.324 70.7203 119.286 70.7081 119.258 70.6828C118.965 70.4269 117.328 68.9906 116.742 68.4769C116.623 68.3719 116.445 68.3719 116.326 68.4769C115.975 68.7844 115.306 69.3713 115.306 69.3713ZM159.076 69.3713C158.44 69.9291 157.76 70.5263 157.581 70.6828C157.552 70.7081 157.514 70.7203 157.476 70.7175C157.149 70.6838 156.696 70.5047 156.435 70.08C156.388 69.9956 156.408 69.8897 156.483 69.8288C156.989 69.3825 159.083 67.5375 159.938 66.7847C160.148 66.6009 160.461 66.6009 160.67 66.7847C161.626 67.6266 164.125 69.8288 164.125 69.8288C164.2 69.8897 164.22 69.9956 164.173 70.08C163.912 70.5047 163.459 70.6838 163.132 70.7175C163.094 70.7203 163.057 70.7081 163.027 70.6828C162.735 70.4269 161.098 68.9906 160.512 68.4769C160.393 68.3719 160.215 68.3719 160.096 68.4769C159.745 68.7844 159.076 69.3713 159.076 69.3713ZM202.847 69.3713C202.21 69.9291 201.53 70.5263 201.351 70.6828C201.322 70.7081 201.284 70.7203 201.246 70.7175C200.919 70.6838 200.466 70.5047 200.205 70.08C200.158 69.9956 200.178 69.8897 200.253 69.8288C200.759 69.3825 202.854 67.5375 203.708 66.7847C203.918 66.6009 204.231 66.6009 204.44 66.7847C205.396 67.6266 207.896 69.8288 207.896 69.8288C207.97 69.8897 207.99 69.9956 207.943 70.08C207.682 70.5047 207.229 70.6838 206.902 70.7175C206.864 70.7203 206.827 70.7081 206.797 70.6828C206.505 70.4269 204.868 68.9906 204.282 68.4769C204.163 68.3719 203.985 68.3719 203.866 68.4769C203.515 68.7844 202.847 69.3713 202.847 69.3713ZM246.617 69.3713C245.98 69.9291 245.3 70.5263 245.122 70.6828C245.092 70.7081 245.054 70.7203 245.017 70.7175C244.689 70.6838 244.236 70.5047 243.975 70.08C243.928 69.9956 243.948 69.8897 244.023 69.8288C244.529 69.3825 246.624 67.5375 247.479 66.7847C247.687 66.6009 248.002 66.6009 248.21 66.7847C249.166 67.6266 251.666 69.8288 251.666 69.8288C251.74 69.8897 251.761 69.9956 251.713 70.08C251.453 70.5047 251 70.6838 250.672 70.7175C250.634 70.7203 250.597 70.7081 250.567 70.6828C250.276 70.4269 248.638 68.9906 248.053 68.4769C247.934 68.3719 247.755 68.3719 247.636 68.4769C247.286 68.7844 246.617 69.3713 246.617 69.3713ZM247.845 48.8428L254.03 43.1025C254.03 43.1025 261.494 35.7075 263.477 33.9609C264.613 32.9606 265.795 33.015 265.795 33.015C265.795 33.015 258.353 46.845 258.383 55.0144C258.414 63.9422 252.519 68.9166 252.519 68.9166L247.845 64.8L243.171 68.9166C243.171 68.9166 237.276 63.9422 237.308 55.0144C237.337 46.845 229.895 33.015 229.895 33.015C229.895 33.015 231.077 32.9606 232.213 33.9609C234.196 35.7075 241.66 43.1025 241.66 43.1025L247.845 48.8428ZM72.7641 48.8428L78.9487 43.1025C78.9487 43.1025 86.4131 35.7075 88.3959 33.9609C89.5322 32.9606 90.7144 33.015 90.7144 33.015C90.7144 33.015 83.2725 46.845 83.3016 55.0144C83.3334 63.9422 77.4384 68.9166 77.4384 68.9166L72.7641 64.8L68.0897 68.9166C68.0897 68.9166 62.1947 63.9422 62.2266 55.0144C62.2556 46.845 54.8138 33.015 54.8138 33.015C54.8138 33.015 55.9959 32.9606 57.1322 33.9609C59.115 35.7075 66.5794 43.1025 66.5794 43.1025L72.7641 48.8428ZM116.534 48.8428L122.719 43.1025C122.719 43.1025 130.183 35.7075 132.166 33.9609C133.302 32.9606 134.484 33.015 134.484 33.015C134.484 33.015 127.043 46.845 127.072 55.0144C127.103 63.9422 121.208 68.9166 121.208 68.9166L116.534 64.8L111.86 68.9166C111.86 68.9166 105.965 63.9422 105.997 55.0144C106.026 46.845 98.5838 33.015 98.5838 33.015C98.5838 33.015 99.7669 32.9606 100.902 33.9609C102.885 35.7075 110.349 43.1025 110.349 43.1025L116.534 48.8428ZM160.304 48.8428L166.489 43.1025C166.489 43.1025 173.953 35.7075 175.936 33.9609C177.072 32.9606 178.254 33.015 178.254 33.015C178.254 33.015 170.813 46.845 170.842 55.0144C170.873 63.9422 164.978 68.9166 164.978 68.9166L160.304 64.8L155.63 68.9166C155.63 68.9166 149.736 63.9422 149.767 55.0144C149.796 46.845 142.355 33.015 142.355 33.015C142.355 33.015 143.537 32.9606 144.673 33.9609C146.656 35.7075 154.12 43.1025 154.12 43.1025L160.304 48.8428ZM204.075 48.8428L210.259 43.1025C210.259 43.1025 217.723 35.7075 219.706 33.9609C220.842 32.9606 222.024 33.015 222.024 33.015C222.024 33.015 214.583 46.845 214.613 55.0144C214.643 63.9422 208.749 68.9166 208.749 68.9166L204.075 64.8L199.401 68.9166C199.401 68.9166 193.506 63.9422 193.538 55.0144C193.566 46.845 186.125 33.015 186.125 33.015C186.125 33.015 187.307 32.9606 188.443 33.9609C190.426 35.7075 197.89 43.1025 197.89 43.1025L204.075 48.8428ZM155.08 42.0609C151.97 39.1762 148.208 35.685 145.992 33.6244C145.479 33.1491 145.195 32.4759 145.212 31.7766C145.229 31.0772 145.546 30.4191 146.081 29.9691C146.623 29.4975 147.33 29.2987 148.025 29.4047C148.72 29.5106 149.336 29.91 149.716 30.5016L155.966 40.1869C155.558 40.74 155.253 41.3747 155.08 42.0609ZM242.62 42.0609C239.511 39.1762 235.748 35.685 233.532 33.6244C233.019 33.1491 232.735 32.4759 232.752 31.7766C232.77 31.0772 233.086 30.4191 233.622 29.9691C234.164 29.4975 234.871 29.2987 235.566 29.4047C236.26 29.5106 236.876 29.91 237.256 30.5016L243.506 40.1869C243.098 40.74 242.794 41.3747 242.62 42.0609ZM111.31 42.0609C108.2 39.1762 104.437 35.685 102.222 33.6244C101.708 33.1491 101.424 32.4759 101.442 31.7766C101.459 31.0772 101.776 30.4191 102.311 29.9691C102.853 29.4975 103.56 29.2987 104.255 29.4047C104.949 29.5106 105.565 29.91 105.946 30.5016L112.195 40.1869C111.787 40.74 111.483 41.3747 111.31 42.0609ZM198.85 42.0609C195.741 39.1762 191.978 35.685 189.762 33.6244C189.249 33.1491 188.965 32.4759 188.982 31.7766C188.999 31.0772 189.316 30.4191 189.851 29.9691C190.393 29.4975 191.1 29.2987 191.796 29.4047C192.49 29.5106 193.106 29.91 193.486 30.5016L199.736 40.1869C199.328 40.74 199.023 41.3747 198.85 42.0609ZM67.5394 42.0609C64.4297 39.1762 60.6675 35.685 58.4512 33.6244C57.9384 33.1491 57.6544 32.4759 57.6712 31.7766C57.6891 31.0772 58.005 30.4191 58.5413 29.9691C59.0831 29.4975 59.79 29.2987 60.4847 29.4047C61.1794 29.5106 61.7953 29.91 62.175 30.5016L68.4253 40.1869C68.0175 40.74 67.7128 41.3747 67.5394 42.0609ZM77.0972 40.1794C79.2947 36.7753 81.8156 32.8725 83.3475 30.5062C83.7272 29.9184 84.3403 29.5219 85.0322 29.4169C85.7241 29.3119 86.4272 29.5097 86.9634 29.9587C87.5222 30.4106 87.84 31.0725 87.8569 31.7756C87.8728 32.4778 87.5869 33.1537 87.0703 33.6309L77.9859 42.0525C77.8125 41.3662 77.5059 40.7325 77.0972 40.1794ZM252.178 40.1794C254.376 36.7753 256.897 32.8725 258.428 30.5062C258.808 29.9184 259.421 29.5219 260.113 29.4169C260.805 29.3119 261.508 29.5097 262.044 29.9587C262.603 30.4106 262.921 31.0725 262.937 31.7756C262.954 32.4778 262.668 33.1537 262.151 33.6309L253.067 42.0525C252.893 41.3662 252.587 40.7325 252.178 40.1794ZM208.407 40.1794C210.606 36.7753 213.127 32.8725 214.658 30.5062C215.037 29.9184 215.651 29.5219 216.343 29.4169C217.034 29.3119 217.738 29.5097 218.273 29.9587C218.832 30.4106 219.151 31.0725 219.167 31.7756C219.184 32.4778 218.897 33.1537 218.381 33.6309L209.297 42.0525C209.123 41.3662 208.817 40.7325 208.407 40.1794ZM164.637 40.1794C166.836 36.7753 169.357 32.8725 170.888 30.5062C171.267 29.9184 171.881 29.5219 172.572 29.4169C173.264 29.3119 173.967 29.5097 174.503 29.9587C175.062 30.4106 175.38 31.0725 175.397 31.7756C175.414 32.4778 175.127 33.1537 174.61 33.6309L165.527 42.0525C165.353 41.3662 165.047 40.7325 164.637 40.1794ZM120.867 40.1794C123.065 36.7753 125.586 32.8725 127.118 30.5062C127.497 29.9184 128.11 29.5219 128.802 29.4169C129.494 29.3119 130.197 29.5097 130.733 29.9587C131.292 30.4106 131.61 31.0725 131.627 31.7756C131.643 32.4778 131.357 33.1537 130.84 33.6309L121.757 42.0525C121.583 41.3662 121.277 40.7325 120.867 40.1794ZM200.294 39.5428C198.475 35.9944 196.42 31.9866 195.166 29.5322C194.846 28.9097 194.81 28.1803 195.065 27.5287C195.32 26.8772 195.843 26.3672 196.5 26.1272C197.17 25.8694 197.902 25.9256 198.519 26.2622C199.136 26.5997 199.578 27.1856 199.733 27.8709L202.122 38.3569C201.433 38.6259 200.813 39.0319 200.294 39.5428ZM156.524 39.5428C154.705 35.9944 152.65 31.9866 151.395 29.5322C151.076 28.9097 151.039 28.1803 151.295 27.5287C151.55 26.8772 152.072 26.3672 152.729 26.1272C153.4 25.8694 154.132 25.9256 154.749 26.2622C155.366 26.5997 155.808 27.1856 155.962 27.8709L158.352 38.3569C157.663 38.6259 157.042 39.0319 156.524 39.5428ZM112.754 39.5428C110.934 35.9944 108.88 31.9866 107.625 29.5322C107.305 28.9097 107.269 28.1803 107.525 27.5287C107.78 26.8772 108.302 26.3672 108.959 26.1272C109.63 25.8694 110.362 25.9256 110.978 26.2622C111.595 26.5997 112.038 27.1856 112.192 27.8709L114.582 38.3569C113.892 38.6259 113.272 39.0319 112.754 39.5428ZM244.065 39.5428C242.245 35.9944 240.191 31.9866 238.936 29.5322C238.616 28.9097 238.58 28.1803 238.835 27.5287C239.09 26.8772 239.613 26.3672 240.27 26.1272C240.94 25.8694 241.673 25.9256 242.289 26.2622C242.906 26.5997 243.349 27.1856 243.503 27.8709L245.892 38.3569C245.203 38.6259 244.582 39.0319 244.065 39.5428ZM68.9841 39.5428C67.1644 35.9944 65.1103 31.9866 63.855 29.5322C63.5353 28.9097 63.4988 28.1803 63.7538 27.5287C64.0097 26.8772 64.5319 26.3672 65.1891 26.1272C65.8594 25.8694 66.5916 25.9256 67.2084 26.2622C67.8253 26.5997 68.2678 27.1856 68.4225 27.8709L70.8113 38.3569C70.1222 38.6259 69.5016 39.0319 68.9841 39.5428ZM118.477 38.3531C119.335 34.5909 120.281 30.4481 120.872 27.8728C121.027 27.1903 121.468 26.6081 122.082 26.2734C122.696 25.9388 123.425 25.8834 124.083 26.1225L124.102 26.115C124.763 26.3559 125.288 26.8688 125.543 27.5231C125.799 28.1784 125.761 28.9116 125.438 29.5359L120.307 39.5353C119.788 39.0263 119.167 38.6203 118.477 38.3531ZM249.788 38.3531C250.646 34.5909 251.592 30.4481 252.183 27.8728C252.338 27.1903 252.779 26.6081 253.393 26.2734C254.007 25.9388 254.736 25.8834 255.393 26.1225L255.413 26.115C256.073 26.3559 256.598 26.8688 256.853 27.5231C257.109 28.1784 257.072 28.9116 256.749 29.5359L251.618 39.5353C251.099 39.0263 250.478 38.6203 249.788 38.3531ZM74.7066 38.3531C75.5653 34.5909 76.5113 30.4481 77.1019 27.8728C77.2575 27.1903 77.6981 26.6081 78.3122 26.2734C78.9263 25.9388 79.6547 25.8834 80.3119 26.1225L80.3316 26.115C80.9916 26.3559 81.5166 26.8688 81.7725 27.5231C82.0284 28.1784 81.9909 28.9116 81.6684 29.5359L76.5375 39.5353C76.0181 39.0263 75.3966 38.6203 74.7066 38.3531ZM162.248 38.3531C163.105 34.5909 164.051 30.4481 164.642 27.8728C164.798 27.1903 165.238 26.6081 165.853 26.2734C166.467 25.9388 167.196 25.8834 167.853 26.1225L167.872 26.115C168.532 26.3559 169.057 26.8688 169.313 27.5231C169.569 28.1784 169.531 28.9116 169.209 29.5359L164.078 39.5353C163.559 39.0263 162.938 38.6203 162.248 38.3531ZM206.017 38.3531C206.876 34.5909 207.822 30.4481 208.413 27.8728C208.567 27.1903 209.009 26.6081 209.623 26.2734C210.237 25.9388 210.966 25.8834 211.623 26.1225L211.642 26.115C212.302 26.3559 212.827 26.8688 213.083 27.5231C213.339 28.1784 213.301 28.9116 212.979 29.5359L207.847 39.5353C207.329 39.0263 206.707 38.6203 206.017 38.3531ZM246.853 38.0831C246.329 33.3872 245.722 27.9516 245.377 24.8269C245.3 24.1303 245.522 23.4319 245.99 22.9087C246.457 22.3856 247.125 22.0866 247.827 22.0856C248.556 22.0725 249.227 22.3744 249.697 22.9003C250.166 23.4262 250.388 24.1275 250.309 24.8278L248.826 38.0812C248.508 38.0222 248.18 37.9922 247.845 37.9922C247.507 37.9922 247.175 38.0231 246.853 38.0831ZM203.083 38.0831C202.559 33.3872 201.952 27.9516 201.607 24.8269C201.529 24.1303 201.752 23.4319 202.22 22.9087C202.687 22.3856 203.355 22.0866 204.057 22.0856C204.786 22.0725 205.457 22.3744 205.927 22.9003C206.395 23.4262 206.618 24.1275 206.539 24.8278L205.056 38.0812C204.738 38.0222 204.41 37.9922 204.075 37.9922C203.736 37.9922 203.405 38.0231 203.083 38.0831ZM115.543 38.0831C115.018 33.3872 114.412 27.9516 114.067 24.8269C113.989 24.1303 114.211 23.4319 114.679 22.9087C115.147 22.3856 115.815 22.0866 116.516 22.0856C117.245 22.0725 117.917 22.3744 118.386 22.9003C118.855 23.4262 119.077 24.1275 118.998 24.8278L117.515 38.0812C117.197 38.0222 116.869 37.9922 116.534 37.9922C116.196 37.9922 115.864 38.0231 115.543 38.0831ZM71.7722 38.0831C71.2481 33.3872 70.6416 27.9516 70.2966 24.8269C70.2188 24.1303 70.4409 23.4319 70.9088 22.9087C71.3766 22.3856 72.0441 22.0866 72.7463 22.0856C73.4747 22.0725 74.1459 22.3744 74.6156 22.9003C75.0853 23.4262 75.3075 24.1275 75.2278 24.8278L73.7447 38.0812C73.4269 38.0222 73.0987 37.9922 72.7641 37.9922C72.4256 37.9922 72.0937 38.0231 71.7722 38.0831ZM159.313 38.0831C158.788 33.3872 158.183 27.9516 157.837 24.8269C157.759 24.1303 157.982 23.4319 158.449 22.9087C158.917 22.3856 159.585 22.0866 160.286 22.0856C161.016 22.0725 161.687 22.3744 162.156 22.9003C162.625 23.4262 162.848 24.1275 162.769 24.8278L161.286 38.0812C160.967 38.0222 160.64 37.9922 160.304 37.9922C159.966 37.9922 159.635 38.0231 159.313 38.0831ZM278.92 8.62125H43.62L42.2297 0H280.283L278.92 8.62125Z" fill="#FECC09"/>
</svg>
