<svg width="450" height="450" viewBox="0 0 450 450" fill="none" xmlns="http://www.w3.org/2000/svg">
<path d="M132.992 153.9V285.281C217.17 283.689 301.348 251.489 385.532 150.981L385.172 0.624847C308.914 92.3039 226.296 150.888 132.992 153.9Z" fill="#1F1F48"/>
<path d="M312.064 393.478C312.064 424.609 286.672 450.001 255.538 450.001C224.406 450.001 199.015 424.609 199.015 393.478C199.015 362.343 224.406 336.952 255.538 336.952C286.672 336.952 312.064 362.343 312.064 393.478Z" fill="#1F1F48"/>
<path fill-rule="evenodd" clip-rule="evenodd" d="M309.628 165.344V296.725C216.326 299.737 133.706 358.321 57.4479 450L57.0879 299.644C141.272 199.136 225.45 166.936 309.628 165.344Z" fill="#AFB2AE"/>
</svg>
