<svg width="300" height="300" viewBox="0 0 300 300" fill="none" xmlns="http://www.w3.org/2000/svg">
<path d="M295.081 75.987L296.56 75.6106L296.872 229.09L252.741 158.891C248.199 151.772 245.414 143.641 244.617 135.189C243.808 126.735 245.022 118.209 248.13 110.334C251.158 102.465 256.011 95.4644 262.274 89.9324C268.526 84.4005 276.014 80.503 284.069 78.5748L295.081 75.987ZM264.031 0.235268C268.33 0.246896 272.571 1.13527 276.534 2.8482C280.486 4.56114 284.069 7.06409 287.061 10.2101C293.221 16.5887 296.653 25.2013 296.606 34.1588V65.6358L282.092 69.1647L273.749 71.1879C266.192 73.052 258.322 73.1178 250.742 71.38C243.161 69.6423 236.077 66.1476 230.022 61.166C224.429 56.6025 219.818 50.9003 216.479 44.4209C213.151 37.9413 211.175 30.8259 210.678 23.5254C210.678 22.302 210.678 21.1258 210.678 19.8554V0L264.031 0.235268ZM3.31086 33.9707C3.27388 25.069 6.69783 16.5164 12.8316 10.1911C18.9643 3.86581 27.3052 0.285058 36.0217 0.235268H201.191V19.5732C201.098 20.9674 201.098 22.3664 201.191 23.7606C200.671 31.0629 198.683 38.1776 195.355 44.6561C192.015 51.1347 187.393 56.8362 181.788 61.4012C175.768 66.3626 168.707 69.8497 161.161 71.595C153.615 73.3404 145.782 73.2976 138.253 71.4702L3.12598 39.3345L3.31086 33.9707ZM36.0217 299.996C27.3052 299.946 18.9643 296.366 12.8316 290.04C6.69783 283.715 3.27388 275.161 3.31086 266.26V49.3092L126.643 78.763C134.726 80.757 142.224 84.7013 148.508 90.265C154.794 95.8288 159.671 102.85 162.756 110.74C165.83 118.629 167.009 127.157 166.2 135.609C165.379 144.061 162.594 152.189 158.064 159.314L154.471 165.007L69.5612 299.901L36.0217 299.996ZM296.872 266.448C296.838 275.318 293.382 283.816 287.246 290.096C281.11 296.376 272.802 299.934 264.123 299.996H80.8489L109.827 253.886L162.398 170.371C167.02 162.977 173.399 156.891 180.933 152.673C188.468 148.456 196.927 146.24 205.512 146.233C214.179 146.246 222.707 148.505 230.276 152.802C237.857 157.097 244.236 163.289 248.823 170.795L296.826 247.063L296.872 266.448Z" fill="#F68E1E"/>
</svg>
