<svg width="450" height="450" viewBox="0 0 450 450" fill="none" xmlns="http://www.w3.org/2000/svg">
<path fill-rule="evenodd" clip-rule="evenodd" d="M217.352 2.40888L107.784 65.3443L107.172 65.6904C96.54 71.9249 89.4056 83.4294 89.4056 96.5951V318.258L148.494 284.322L148.151 283.551L148.133 283.496L147.757 282.605L147.404 281.728L147.353 281.599L147.001 280.699L146.662 279.795L146.653 279.758L146.643 279.748L146.309 278.825L145.985 277.879L145.976 277.852L145.66 276.915L145.349 275.941L145.345 275.923L145.335 275.904L145.252 275.632L145.168 275.369C145.034 274.917 144.899 274.451 144.769 273.989L144.76 273.975L144.491 273.002L144.227 272.01L144.217 271.977V271.963L144.078 271.405L143.934 270.851C143.702 269.91 143.494 268.959 143.294 268.004L143.29 267.99L143.09 266.98L142.909 266.006V265.978L142.9 265.941V265.918L142.719 264.917L142.561 263.915C142.348 262.522 142.167 261.137 142.033 259.767L142.028 259.725L141.93 258.728L141.842 257.667L141.768 256.61L141.712 255.604L141.708 255.567V255.553L141.657 254.487L141.624 253.454V253.431L141.606 252.351L141.596 251.289L141.606 250.26L141.624 249.236L141.648 248.544L141.657 248.345L141.699 247.182L141.74 246.472L141.754 246.315L141.763 246.195L141.828 245.157L142 243.135L142.102 242.185L142.227 241.1L142.343 240.21L142.496 239.111L142.64 238.193L142.821 237.104L142.979 236.241L143.188 235.138L143.364 234.252C143.466 233.754 143.535 233.444 143.605 233.144L143.786 232.355L144.064 231.225L144.278 230.385L144.528 229.462L144.607 229.167L144.783 228.53L144.96 227.93L145.15 227.316L145.414 226.449L145.688 225.586L145.966 224.746L146.082 224.418C146.249 223.938 146.416 223.463 146.616 222.914L146.88 222.217L146.885 222.198L146.931 222.074C147.033 221.811 147.14 221.52 147.316 221.072L147.673 220.191L148.017 219.351L148.522 218.188L148.819 217.514L149.232 216.61L149.612 215.793L150.062 214.87L150.494 214.016L150.948 213.13L151.356 212.355L151.616 211.88L151.867 211.414L152.294 210.662L152.331 210.592C152.47 210.348 152.604 210.103 152.827 209.734L153.249 209.019L153.254 209.005L153.333 208.871L153.801 208.105L154.237 207.408L154.868 206.411L155.026 206.181L155.555 205.378L156.097 204.584C157.02 203.232 157.985 201.917 158.978 200.643L159.651 199.78L160.101 199.236L160.411 198.848L160.829 198.34L161.26 197.833L161.659 197.367L162.03 196.937L162.415 196.508L162.94 195.922L163.343 195.479L163.747 195.041L164.197 194.561L164.656 194.076L165.12 193.596L165.44 193.273L165.973 192.733L166.511 192.203L166.715 192.004L167.268 191.474L167.829 190.948L168.121 190.675L168.687 190.149L169.271 189.623L169.369 189.54L170.009 188.968L170.672 188.4L170.742 188.34L170.756 188.331C171.173 187.971 171.577 187.634 171.929 187.348C172.277 187.062 172.676 186.744 173.122 186.388C175.186 184.759 177.315 183.227 179.523 181.806L179.611 181.741L180.349 181.275L181.082 180.814L181.184 180.754L181.907 180.315L182.622 179.886L182.84 179.761L183.039 179.646L183.243 179.531C183.601 179.323 183.939 179.129 184.241 178.963L184.477 178.834L185.164 178.456L185.864 178.082L186.184 177.916L186.908 177.542L187.622 177.177L187.738 177.122L188.55 176.725L189.353 176.337L189.381 176.328C190.086 175.996 190.8 175.668 191.519 175.359C192.206 175.059 192.934 174.754 193.699 174.45C197.452 172.941 201.335 171.69 205.324 170.74L205.394 170.721L206.275 170.514L207.147 170.32L207.296 170.287L208.191 170.103L209.105 169.928L209.156 169.918L210.032 169.752L210.928 169.6L211.16 169.558L212.022 169.42L212.899 169.295L213.011 169.272L213.915 169.152L214.801 169.037L214.875 169.028L215.696 168.922L215.692 168.1V79.2484C215.692 77.7163 216.007 76.4935 216.522 75.5751C216.967 74.786 217.566 74.1999 218.266 73.8215C218.976 73.4385 219.792 73.2447 220.651 73.2447C221.773 73.2447 222.965 73.5723 224.088 74.1907L360.538 152.655V96.5951C360.538 83.8308 353.821 72.6171 343.708 66.2673L232.786 2.56578C229.868 0.904483 227.446 0.0369177 225.011 0C224.955 0 224.9 0 224.844 0C222.46 0 220.117 0.798345 217.352 2.40888ZM234.326 168.631L235.17 168.723L235.23 168.732L236.186 168.857L237.132 168.986L237.267 169.014L238.227 169.157L239.187 169.314L239.22 169.323L240.208 169.498L241.191 169.688L241.219 169.692L242.193 169.895L243.19 170.107L243.232 170.121L243.51 170.186L243.78 170.246C244.248 170.352 244.717 170.472 245.185 170.587H245.199L246.187 170.841L247.18 171.109L247.212 171.118L247.222 171.127L247.783 171.28L248.33 171.437C249.263 171.713 250.2 172.004 251.127 172.309L251.155 172.318L252.125 172.646L253.066 172.978L253.09 172.987L253.127 173.006L253.145 173.01L254.105 173.361L255.056 173.721L255.066 173.725C256.388 174.238 257.673 174.778 258.93 175.336L258.972 175.35L259.89 175.774L260.855 176.227L261.81 176.693L262.715 177.145L262.752 177.159L262.766 177.168L263.717 177.657L264.631 178.151L264.649 178.16L265.605 178.682L266.533 179.203L267.419 179.725L268.305 180.255L269.066 180.726L270.054 181.354L270.657 181.741L270.782 181.824L270.875 181.893L271 181.972L271.751 182.47L272.521 182.996L273.426 183.629L274.205 184.192L275.087 184.847L275.801 185.387L276.682 186.074L277.411 186.656L278.269 187.353L278.942 187.92L279.795 188.649L280.477 189.249C280.857 189.586 281.094 189.798 281.321 190.011L281.92 190.555L282.764 191.367L283.39 191.967L284.063 192.641L284.754 193.329L285.19 193.781L285.621 194.252L286.252 194.912L286.86 195.581L287.454 196.241L287.681 196.508C288.015 196.891 288.349 197.27 288.725 197.717L289.198 198.294L289.212 198.303L289.295 198.41C289.481 198.631 289.671 198.866 289.977 199.24L290.566 199.988L291.123 200.708L291.772 201.575L291.884 201.723L292.324 202.314L292.904 203.121L293.424 203.859L293.999 204.704L294.532 205.507L295.075 206.338L295.544 207.081L295.836 207.542L296.11 207.99L296.55 208.733L296.592 208.802C296.736 209.042 296.88 209.282 297.093 209.656L297.506 210.38L297.511 210.389L297.589 210.523L298.025 211.308L298.41 212.037L298.689 212.554L298.967 213.08L299.083 213.32L299.088 213.329L299.097 213.333L299.519 214.183L299.941 215.05C300.656 216.527 301.319 218.013 301.931 219.503L302.089 219.882L302.344 220.519L302.599 221.169L303.008 222.249L303.235 222.877L303.439 223.449L303.629 223.984L303.815 224.533L304.061 225.276L304.246 225.849L304.427 226.416L304.807 227.671L304.993 228.317L305.118 228.751L305.512 230.209L305.582 230.486L305.772 231.234L305.944 231.972L306.037 232.355L306.213 233.112L306.375 233.883L306.398 234.007L306.575 234.847L306.742 235.696L306.76 235.789V235.807C306.862 236.347 306.955 236.864 307.029 237.307C307.104 237.75 307.187 238.253 307.266 238.816C307.651 241.405 307.92 244.012 308.064 246.619L308.068 246.73L308.11 247.602L308.138 248.461L308.143 248.581L308.161 249.425L308.175 250.251V250.962C308.18 251.377 308.175 251.765 308.17 252.106L308.152 253.154L308.124 253.948L308.115 254.303L308.031 255.913L308.027 256.038L307.966 256.942L307.901 257.819V257.852C307.832 258.627 307.758 259.402 307.669 260.182C307.586 260.925 307.484 261.7 307.373 262.512C306.807 266.5 305.953 270.468 304.793 274.382L304.77 274.451L304.506 275.309L304.241 276.163L304.195 276.306L303.907 277.169L303.606 278.046L303.592 278.092L303.295 278.927L302.975 279.781L302.896 279.998L302.585 280.814L302.261 281.631L302.224 281.742L301.876 282.573L301.532 283.403L301.505 283.468L301.184 284.229L301.903 284.64L379.255 329.061C380.591 329.827 381.491 330.704 382.038 331.618C382.502 332.388 382.706 333.201 382.688 333.994C382.674 334.793 382.423 335.591 381.997 336.334C381.431 337.303 380.559 338.166 379.459 338.826L244.345 416.33L242.921 417.142L244.345 417.964L291.726 445.172C302.845 451.563 315.959 451.379 326.545 445.841L437.458 382.13C440.366 380.446 442.333 378.794 443.581 376.713C444.834 374.627 445.339 372.172 445.311 368.909V242.346C445.2 230.071 438.752 218.165 427.294 211.585L234.326 100.753V168.631ZM22.6813 211.603C11.5668 217.99 5.16529 229.383 4.6875 241.266L4.70142 368.678C4.71533 372.024 5.16993 374.548 6.35282 376.662C7.54035 378.785 9.42833 380.441 12.2812 382.057L121.854 444.987L122.457 445.338C133.2 451.379 146.792 451.776 158.25 445.195L349.799 335.18L351.214 334.359L292.862 300.847L292.125 300.427L291.624 301.105L291.619 301.115L291.587 301.151L290.998 301.917L290.413 302.66L290.325 302.767L289.717 303.523L289.1 304.266L289.077 304.294L289.073 304.303L288.432 305.055L287.774 305.808L287.755 305.831L287.097 306.574L286.405 307.326L286.387 307.335L286.373 307.354L286.183 307.561L285.992 307.764C285.668 308.11 285.334 308.452 284.995 308.803L284.981 308.812L284.276 309.532L283.539 310.256L283.515 310.279L283.506 310.284L283.093 310.69L282.68 311.087C281.975 311.756 281.256 312.411 280.519 313.062L280.509 313.071L279.73 313.75L278.969 314.396L278.951 314.41L278.918 314.433L278.904 314.446L278.116 315.102L277.327 315.743C276.223 316.625 275.101 317.464 273.983 318.267L273.955 318.29L273.124 318.877L272.248 319.481L271.362 320.076L270.517 320.626L270.49 320.649L270.476 320.653L269.571 321.23L268.685 321.775L268.667 321.784L267.739 322.347L266.82 322.882L265.92 323.394L265.016 323.888L264.404 324.211L264.232 324.303L263.188 324.848L262.548 325.166L262.409 325.231L262.307 325.282L262.172 325.351L261.365 325.748L259.519 326.611L258.642 327.003L256.805 327.778L255.762 328.194L254.894 328.531L253.855 328.923L253.029 329.218L251.962 329.587L251.104 329.878C250.617 330.04 250.316 330.127 250.014 330.224L249.244 330.464L248.117 330.792L247.282 331.022L246.354 331.272L246.057 331.35L245.412 331.516L244.8 331.664L244.174 331.807L243.283 332.019L242.393 332.208L241.525 332.388L241.182 332.453C240.685 332.555 240.185 332.647 239.605 332.744L238.867 332.864L238.853 332.868L238.719 332.891C238.436 332.938 238.134 332.993 237.656 333.062L236.705 333.201L235.801 333.321L234.725 333.45L234.539 333.468L233.802 333.547L232.809 333.648L231.909 333.727L230.884 333.796L229.919 333.856L228.926 333.907L228.04 333.944L226.969 333.971L226.101 333.985L226.022 333.981C225.735 333.985 225.456 333.99 225.03 333.99L224.195 333.981H224.023L223.123 333.962L222.302 333.934L221.11 333.888L220.85 333.865H220.836L220.827 333.87L219.871 333.814L218.906 333.741C217.269 333.621 215.641 333.45 214.036 333.233L213.632 333.178L212.95 333.081L212.254 332.97L211.758 332.896L211.109 332.785L210.45 332.67L209.847 332.559L209.29 332.448L208.72 332.338L207.95 332.181L206.771 331.922L206.127 331.779L205.486 331.622L204.832 331.461L204.392 331.35L203.654 331.156L202.926 330.958L202.647 330.884L201.905 330.672L201.172 330.459L200.792 330.34L200.045 330.113L199.298 329.873L199.178 329.836L198.357 329.56L197.536 329.278L197.443 329.25L197.429 329.246C196.905 329.061 196.413 328.881 195.991 328.72C195.564 328.567 195.091 328.383 194.557 328.171C192.108 327.215 189.71 326.14 187.367 324.954L187.265 324.903L186.495 324.506L185.725 324.105L185.619 324.045L184.876 323.644L184.148 323.237L183.93 323.108L183.726 322.997L183.531 322.882C183.165 322.679 182.826 322.481 182.534 322.31L182.302 322.171L181.629 321.765L180.957 321.35L179.964 320.722L179.287 320.284L179.185 320.215L178.428 319.712L177.691 319.213L177.668 319.2C177.023 318.757 176.387 318.3 175.756 317.838C175.153 317.395 174.523 316.92 173.873 316.417C170.682 313.939 167.657 311.216 164.832 308.258L164.786 308.203L164.164 307.547L163.556 306.892L163.45 306.781L162.847 306.098L162.239 305.406L162.202 305.365L161.617 304.691L161.038 303.999L160.889 303.814L160.337 303.14L159.785 302.448L159.716 302.365L159.154 301.645L158.612 300.935L158.57 300.884L158.064 300.228L79.9981 345.07C78.6668 345.831 77.4514 346.173 76.3891 346.191C75.4846 346.2 74.6728 345.974 73.9863 345.559C73.3043 345.148 72.7338 344.539 72.2977 343.796C71.7364 342.831 71.421 341.641 71.3978 340.363L71.4813 183.573L22.6813 211.603Z" fill="#BA0B22"/>
<path fill-rule="evenodd" clip-rule="evenodd" d="M159.375 250.467C159.375 286.703 188.761 316.092 224.995 316.092C261.239 316.092 290.625 286.703 290.625 250.467C290.625 214.231 261.239 184.842 224.995 184.842C188.761 184.842 159.375 214.231 159.375 250.467Z" fill="#FFC730"/>
</svg>
