<svg width="450" height="450" viewBox="0 0 450 450" fill="none" xmlns="http://www.w3.org/2000/svg">
<path d="M398.127 91.6963L449.968 72.2582V39.6056L395.861 66.6753L449.968 23.1949V0H428.366L379.914 52.5224L412.113 0H381.654L354.239 50.0152C373.728 57.9229 389.35 72.9688 398.127 91.6963Z" fill="#F29200"/>
<path d="M449.968 180.387L399.344 159.125C402.766 151.067 404.956 142.328 405.664 133.12C406.675 120.021 404.57 107.399 399.985 95.9787L449.968 83.8905V105.712L420.147 113.794L449.968 119.503V141.384L426.414 142.304L449.968 151.024V180.387Z" fill="#F29200"/>
<path d="M0 242.259L242.825 147.144C247.738 166.488 259.512 183.293 275.585 194.58L125.167 449.968H61.7789L196.693 254.331L0 450V351.892L168.484 220.024L0 304.773V242.259Z" fill="#F29200"/>
<path d="M174.013 449.968L280.291 197.653C291.02 204.145 303.389 208.296 316.746 209.323C325.412 209.99 333.87 209.296 341.912 207.421L405.9 449.968H356.271L322.154 286.416L319.915 449.968H269.23L280.996 289.722L235.422 449.968H174.013Z" fill="#F29200"/>
<path d="M348.181 205.695L449.539 448.968L449.968 449.968V337.018L395.558 243.203L449.968 293.68V254.94L415.924 209.374L449.968 226.302V196.481L396.751 164.654C386.687 184.184 369.142 199.023 348.181 205.695Z" fill="#F29200"/>
<path d="M368.944 0L350.332 48.5457C343.738 46.2531 336.75 44.7621 329.464 44.2017C317.499 43.2793 305.931 44.9525 295.315 48.7442L283.546 0H307.699L313.289 20.7628L314.07 0H336.259L334.648 26.7157L342.923 0H368.944Z" fill="#F29200"/>
<path d="M291.119 50.3665L271.394 0H242.758L253.251 23.5408L234.306 0H196.478L227.747 34.2078L179.518 0H104.988L252.009 84.29C261.086 69.1262 274.834 57.2043 291.119 50.3665Z" fill="#F29200"/>
<path d="M53.8417 0L249.577 88.634C244.598 98.2257 241.425 108.952 240.543 120.404C239.972 127.816 240.401 135.072 241.707 142.047L0 207.057V149.662L157.929 128.395L0 118.31V70.9255L168.964 92.8735L0 44.2017V0H53.8417Z" fill="#F29200"/>
</svg>
