<svg width="450" height="450" viewBox="0 0 450 450" fill="none" xmlns="http://www.w3.org/2000/svg">
<path fill-rule="evenodd" clip-rule="evenodd" d="M318.198 450H131.802L0 318.198V131.802L131.802 0H318.198L450 131.802V318.198L318.198 450ZM291.015 384.375L384.375 291.015V158.985L291.015 65.625H158.985L65.625 158.985V291.015L158.985 384.375H291.015ZM158.372 225L268.455 335.663L224.43 379.688L114.348 269.604L114.338 269.615L70.3125 225L124.799 171.104H212.848L158.372 225ZM325.201 278.896H237.152L291.628 225L181.545 114.338L225.57 70.3125L335.652 180.396L335.663 180.385L379.688 225L325.201 278.896Z" fill="#006D08"/>
</svg>
