<svg width="450" height="450" viewBox="0 0 450 450" fill="none" xmlns="http://www.w3.org/2000/svg">
<path d="M321.64 55.9718L334.075 63.4334L142.048 175.448V272.322L210.914 312.357L102.659 377.384L32.8125 335.827V111.944L225.364 0L321.64 55.9718Z" fill="#243873"/>
<path d="M128.361 394.028L115.925 386.567L307.953 274.552V177.678L239.088 137.643L347.342 72.6164L417.188 114.173V338.058L224.636 450L128.361 394.028Z" fill="#243873"/>
<path fill-rule="evenodd" clip-rule="evenodd" d="M224.999 290.625C261.145 290.625 290.625 261.145 290.625 225C290.625 188.855 261.145 159.375 224.999 159.375C188.855 159.375 159.375 188.855 159.375 225C159.375 261.145 188.855 290.625 224.999 290.625" fill="#DBAF2E"/>
</svg>
