<svg width="450" height="450" viewBox="0 0 450 450" fill="none" xmlns="http://www.w3.org/2000/svg">
<path fill-rule="evenodd" clip-rule="evenodd" d="M293.137 234.395C293.137 196.581 262.413 165.856 225.071 165.856C187.256 165.856 156.532 196.107 156.532 233.922C156.532 271.737 187.256 301.988 224.598 302.461C262.886 302.934 293.137 272.21 293.137 234.395Z" fill="#CDCCCC"/>
<path d="M203.329 147.421C197.185 149.312 191.039 145.53 188.676 139.858L154.643 54.3026C153.224 50.5207 154.643 46.2663 157.951 43.9029L200.965 12.7057C215.619 1.83443 235.471 1.83443 249.652 12.7057L292.666 44.3754C295.975 46.2663 296.92 50.5207 295.975 54.3026L261.941 139.858C259.578 146.003 253.434 149.312 246.816 147.893C240.198 146.003 232.635 145.057 225.072 145.057C217.982 145.057 210.419 146.003 203.329 147.421Z" fill="#51B5D1"/>
<path d="M278.959 163.492C290.775 172.473 300.229 184.29 305.902 197.525C308.738 203.197 316.3 206.507 321.972 204.616L409.42 178.145C413.2 177.2 415.564 172.946 415.564 169.164L413.673 115.751C412.728 97.7894 400.438 82.6629 383.422 77.936L331.899 63.7554C327.645 62.8104 323.863 64.2288 321.972 67.5372L275.65 147.421C273.286 151.675 274.232 159.71 278.959 163.492Z" fill="#51B5D1"/>
<path d="M127.7 205.088L39.7802 179.563C35.9992 177.673 33.6358 174.363 34.1083 170.583L35.9992 117.169C36.4717 99.2069 48.7614 84.0813 65.3055 78.8819L116.828 64.2288C120.61 63.2829 124.39 64.7013 126.754 68.0097L173.078 147.421C176.386 152.62 174.968 160.183 170.241 163.965C158.425 172.946 149.443 184.763 143.298 198.47C140.462 204.143 133.372 206.979 127.7 205.088Z" fill="#51B5D1"/>
<path d="M446.289 258.029L425.018 209.343C423.6 205.561 419.818 203.197 416.036 204.143L325.282 218.796C318.664 219.741 313.937 225.414 314.41 232.031V234.867C314.41 249.048 311.101 262.756 304.956 274.573C302.12 280.245 304.011 287.335 309.21 290.644L385.313 342.167C388.621 344.53 393.348 344.058 396.184 341.222L435.89 305.77C449.597 293.48 453.851 274.573 446.289 258.029Z" fill="#51B5D1"/>
<path d="M135.263 234.394C135.263 248.575 139.044 262.283 145.189 274.1C147.552 280.245 146.134 287.335 140.462 291.117L64.833 342.639C61.0511 345.003 57.2702 344.53 53.9608 341.694L14.2558 306.715C0.547675 294.898 -3.7067 275.518 3.38361 258.974L24.6546 210.288C26.073 206.979 29.8539 205.088 33.6358 205.088L124.39 219.269C131.008 220.214 135.735 225.887 135.263 232.503V234.394Z" fill="#51B5D1"/>
<path d="M299.756 302.461C295.03 298.207 287.939 298.207 282.74 301.988C271.869 311.442 258.633 318.06 243.98 321.368C237.835 322.314 233.109 328.458 233.581 335.076L241.144 426.777C241.616 430.559 244.925 433.867 248.707 434.34L301.647 443.321C319.136 446.629 336.625 437.649 345.134 421.578L369.714 374.309C371.605 371 371.132 366.273 368.296 363.438L299.756 302.461Z" fill="#51B5D1"/>
<path d="M206.638 321.842C191.984 318.532 178.277 311.914 167.405 302.934C162.678 298.68 155.115 299.625 150.861 303.407L82.7946 366.273C79.9586 369.109 79.4861 373.364 81.3771 376.672L106.429 423.941C114.937 439.539 132.899 448.048 150.388 444.739L203.329 435.286C207.111 434.34 209.947 431.031 210.419 427.249L217.037 335.549C217.51 328.931 212.783 322.787 206.638 321.842Z" fill="#51B5D1"/>
</svg>
