<svg width="450" height="450" viewBox="0 0 450 450" fill="none" xmlns="http://www.w3.org/2000/svg">
<path d="M96.4718 69.5475H346.875L270.185 0H35.9523C13.8579 0 9.375 30.9992 9.375 30.9992V251.367C9.375 251.367 15.2989 356.25 159.713 356.25C304.127 356.25 286.516 258.755 286.516 258.755C286.516 258.755 273.227 317.862 193.655 317.862C114.083 317.862 96.4718 249.921 96.4718 249.921V69.5475Z" fill="#007D3D"/>
<path d="M353.528 380.453H103.125L179.815 450H414.048C436.142 450 440.625 419.001 440.625 419.001V198.794C440.625 198.794 434.701 93.75 290.287 93.75C145.873 93.75 163.484 191.245 163.484 191.245C163.484 191.245 176.773 132.138 256.345 132.138C335.917 132.138 353.528 200.079 353.528 200.079V380.453Z" fill="#007D3D"/>
<path d="M228.796 307.716C274.719 307.716 311.948 270.394 311.948 224.354C311.948 178.314 274.719 140.991 228.796 140.991C182.873 140.991 145.645 178.314 145.645 224.354C145.645 270.394 182.873 307.716 228.796 307.716Z" fill="#FFF400"/>
</svg>
