<svg width="450" height="450" viewBox="0 0 450 450" fill="none" xmlns="http://www.w3.org/2000/svg">
<path fill-rule="evenodd" clip-rule="evenodd" d="M71.7179 327.782C42.3777 293.924 24.3227 250.255 23.4691 202.428C21.5149 92.9792 110.393 2.00725 221.442 0.0314473L225.705 0L228.558 0.0314473C339.602 2.00725 428.485 92.9792 426.531 202.428C425.677 250.255 407.622 293.924 378.282 327.777C383.305 330.842 387.653 335.618 390.982 342.226C394.765 349.677 394.558 358.521 390.506 365.68C383.727 377.853 376.099 393.834 369.504 407.275C364.98 416.487 360.869 424.6 356.786 430.147C352.235 436.321 347.167 440.102 342.194 441.876C329.768 447.163 317.387 449.833 305.055 449.999C304.242 450.008 303.433 449.959 302.634 449.842C284.435 447.266 274.053 439.345 269.597 428.498C255.046 422.759 240.229 419.645 225.04 419.632C225.04 419.632 224.591 419.632 224.605 419.632C209.51 419.699 194.824 422.808 180.404 428.494C175.947 439.345 165.565 447.266 147.366 449.842C146.562 449.959 145.753 450.008 144.945 449.999C132.613 449.833 120.232 447.163 107.806 441.876C102.833 440.102 97.7607 436.321 93.2143 430.147C89.1262 424.6 85.0157 416.487 80.4963 407.275C73.9014 393.834 66.2731 377.853 59.5479 365.779C55.4328 358.507 55.2398 349.663 58.991 342.275C62.3334 335.64 66.6908 330.851 71.7179 327.782ZM83.349 330.559C51.1742 296.966 31.0928 251.957 30.2078 202.307C28.3165 96.5365 114.248 8.65598 221.563 6.75186L225.755 6.72041L228.437 6.75186C335.752 8.65598 421.684 96.5365 419.792 202.307C418.907 251.957 398.821 296.966 366.647 330.564C374.194 331.72 380.605 336.599 384.971 345.264C387.734 350.703 387.59 357.159 384.612 362.419C377.783 374.681 370.092 390.779 363.448 404.323C359.135 413.108 355.254 420.873 351.354 426.168C347.707 431.119 343.731 434.242 339.741 435.613C328.101 440.59 316.511 443.126 304.965 443.279C304.503 443.283 304.04 443.256 303.582 443.189C287.081 440.855 277.966 433.736 274.938 423.409C258.662 416.608 242.076 412.925 225.022 412.911H224.573C207.646 412.987 191.199 416.666 175.058 423.409C172.03 433.736 162.919 440.855 146.418 443.189C145.96 443.256 145.497 443.283 145.035 443.279C133.484 443.126 121.894 440.59 110.254 435.613C106.269 434.242 102.293 431.119 98.6456 426.168C94.7462 420.873 90.8648 413.108 86.5475 404.318C79.9032 390.779 72.2122 374.681 65.4152 362.472C62.4097 357.163 62.266 350.707 65.0154 345.295C69.391 336.603 75.8062 331.72 83.349 330.559Z" fill="#E95B00"/>
<path fill-rule="evenodd" clip-rule="evenodd" d="M224.535 403.957C204.872 404.047 185.815 408.644 167.131 417.085C166.304 426.614 158.982 432.367 145.154 434.329C134.624 434.186 124.058 431.825 113.442 427.237C106.798 425.234 101.348 414.101 94.6187 400.391C87.907 386.713 80.1349 370.458 73.239 358.075C71.7116 355.373 71.6352 352.089 73.0413 349.325C77.1519 341.162 83.8951 337.905 91.7569 339.889C93.7919 340.4 95.5127 341.758 96.4785 343.617C97.6331 345.844 99.1199 348.711 99.1199 348.711C107.53 351.466 116.106 353.688 125.041 354.768L126.147 353.85C125.904 353.711 125.675 353.545 125.446 353.406C74.5959 321.462 40.3275 265.817 39.1909 202.157C37.3849 101.292 119.385 17.5379 221.719 15.7189L225.816 15.6876C226.633 15.692 227.455 15.7054 228.273 15.7189C330.611 17.5379 412.611 101.292 410.805 202.157C409.669 265.817 375.4 321.462 324.55 353.406C324.321 353.545 324.092 353.711 323.85 353.85L324.955 354.768C333.89 353.688 342.466 351.466 350.876 348.711C350.876 348.711 352.363 345.844 353.518 343.617C354.484 341.758 356.204 340.4 358.239 339.889C366.101 337.905 372.844 341.162 376.955 349.325C378.361 352.089 378.285 355.373 376.757 358.075C369.861 370.458 362.089 386.713 355.378 400.391C348.648 414.101 343.199 425.234 336.554 427.237C325.939 431.825 315.373 434.186 304.842 434.329C291.015 432.367 283.692 426.614 282.865 417.085C264.033 408.576 244.823 403.975 224.998 403.957H224.535ZM101.829 355.933C101.829 355.933 106.753 369.473 109.399 376.175C112.826 384.84 122.377 407.927 122.377 407.927C124.614 413.393 129.161 417.524 117.449 423.666C117.593 424.078 117.732 424.481 117.885 425.023C125.064 427.367 131.551 429.58 138.281 429.459C139.089 429.033 139.911 428.742 140.599 428.455L108.514 362.479C105.14 355.539 104.232 355.171 101.829 355.933ZM348.167 355.933C348.167 355.933 343.244 369.473 340.598 376.175C337.17 384.84 327.619 407.927 327.619 407.927C325.382 413.393 320.835 417.524 332.547 423.666C332.403 424.078 332.264 424.481 332.111 425.023C324.932 427.367 318.445 429.58 311.716 429.459C310.907 429.033 310.085 428.742 309.397 428.455L341.483 362.479C344.856 355.539 345.764 355.171 348.167 355.933ZM304.582 348.509C282.039 336.31 253.601 331.498 224.998 332.3L224.028 332.277C183.048 331.305 142.539 341.905 119.363 369.307C118.923 372.9 139.988 412.882 144.399 418.675C146.354 420.561 147.045 420.821 148.703 421.063C168.133 404.629 196.507 397.671 224.998 398.066L225.667 398.057C253.934 397.783 282.012 404.755 301.293 421.063C302.951 420.821 303.643 420.561 305.597 418.675C310.008 412.882 331.073 372.9 330.633 369.307C323.589 360.974 314.941 354.199 305.166 348.827C305.009 349.056 304.685 349.41 304.191 349.88C302.901 351.095 301.477 352.223 299.919 353.245C298.346 354.284 296.747 355.109 295.112 355.745L291.046 357.416C289.676 357.828 288.279 358.25 286.877 358.666C285.48 359.101 284.078 359.459 282.672 359.755C282.569 359.782 282.474 359.809 282.384 359.831L280.871 362.085C280.206 363.142 279.559 364.199 278.925 365.27L277.892 367.152C277.142 368.456 276.473 369.8 275.898 371.206C275.318 372.609 274.783 374.007 274.28 375.404L274.271 375.422C273.633 377.183 273.386 378.572 273.521 379.598C273.66 380.628 274.24 381.327 275.268 381.699C275.637 381.834 275.987 381.843 276.311 381.731C276.63 381.619 276.931 381.444 277.205 381.211C277.483 380.978 277.739 380.713 277.969 380.413C278.202 380.109 278.4 379.831 278.561 379.576C278.858 379.154 279.082 378.989 279.24 379.083C279.401 379.172 279.415 379.405 279.28 379.777C278.916 380.593 278.431 381.52 277.825 382.564C277.218 383.608 276.54 384.562 275.785 385.431C275.035 386.296 274.244 386.968 273.422 387.443C272.6 387.918 271.787 388.012 270.978 387.721C270.111 387.407 269.514 386.919 269.19 386.26C268.867 385.602 268.701 384.867 268.692 384.06C268.687 383.254 268.799 382.443 269.02 381.632C269.244 380.817 269.464 380.118 269.675 379.526L269.684 379.522C270.048 378.599 270.466 377.649 270.929 376.646C271.396 375.637 271.85 374.656 272.272 373.68C272.488 373.272 272.586 372.99 272.568 372.842C272.546 372.694 272.259 372.828 271.697 373.218C270.165 374.347 268.651 375.31 267.164 376.135C265.682 376.946 264.087 377.586 262.411 378.066C259.927 378.787 257.384 379.145 254.77 379.132C252.159 379.123 249.536 378.832 246.89 378.267C244.841 377.837 242.766 377.282 240.686 376.583C238.597 375.888 236.458 375.019 234.271 373.993C233.305 373.541 232.464 373.052 231.728 372.551C231.004 372.04 230.416 371.453 229.985 370.767C229.549 370.082 229.261 369.28 229.14 368.362C229.019 367.443 229.113 366.359 229.423 365.104C229.634 364.307 229.935 363.491 230.313 362.658C230.672 361.834 231.085 361.045 231.539 360.297C231.943 359.629 232.271 359.347 232.505 359.428C232.73 359.513 232.739 359.961 232.523 360.749C232.334 361.489 232.28 362.17 232.361 362.797C232.446 363.424 232.712 364.007 233.152 364.558C234.257 365.866 235.582 366.883 237.128 367.609C238.678 368.339 240.236 369.007 241.809 369.607C247.501 371.834 253.795 373.043 260.672 373.24C262.065 373.285 263.435 373.218 264.774 373.039C266.126 372.855 267.434 372.506 268.718 371.986C270.682 371.215 272.326 370.154 273.638 368.796C274.954 367.425 275.286 367.161 276.374 365.346C276.603 364.912 276.859 364.54 277.146 364.231L279.936 361.377C280.412 360.897 280.911 360.427 281.428 359.965C281.338 359.898 281.527 359.629 281.994 359.15C282.6 358.63 283.207 358.097 283.809 357.546C284.415 356.995 285.093 356.547 285.835 356.22C286.464 355.96 287.29 355.629 288.333 355.23C289.245 354.88 293.773 353.276 295.121 352.739C297.821 351.65 300.489 350.454 303.144 349.137L304.582 348.509ZM334.205 420.167C332.633 419.423 330.305 418.155 330.359 415.418C333.814 414.387 338.203 414.19 339.897 419.688C338.208 420.929 335.449 420.754 334.205 420.167ZM115.791 420.167C117.364 419.423 119.691 418.155 119.633 415.418C116.182 414.387 111.793 414.19 110.1 419.688C111.789 420.929 114.547 420.754 115.791 420.167ZM90.6294 344.083C82.6822 341.578 76.7028 347.806 78.2976 354.137L108.136 415.552C111.11 411.905 114.048 411.533 116.959 411.359L90.6294 344.083ZM359.367 344.083C367.314 341.578 373.294 347.806 371.699 354.137L341.86 415.552C338.886 411.905 335.948 411.533 333.037 411.359L359.367 344.083ZM277.681 399.468C277.852 399.002 278.588 398.182 279.891 397.004C281.194 395.825 281.971 395.283 282.218 395.373C283.027 395.664 283.669 396.323 284.141 397.349C284.608 398.379 284.712 399.262 284.442 400.006C284.195 400.687 283.535 401.421 282.461 402.21C281.383 402.994 280.646 403.317 280.242 403.173C280.053 403.106 279.554 402.501 278.732 401.368C278.449 400.987 278.166 400.606 277.883 400.221C277.672 399.938 277.605 399.683 277.681 399.468ZM163.6 400.234C163.578 400.068 163.892 399.163 164.548 397.506C165.204 395.852 165.63 395.01 165.828 394.979C166.381 394.889 167.086 395.127 167.949 395.691C168.811 396.291 169.292 396.896 169.391 397.515C169.508 398.231 169.274 399.204 168.699 400.427C168.119 401.619 167.666 402.241 167.342 402.295C167.176 402.317 166.911 402.219 166.542 401.995C166.17 401.771 165.801 401.533 165.428 401.296C164.997 401.13 164.597 400.969 164.22 400.812C163.843 400.651 163.636 400.458 163.6 400.234ZM159.058 394.697C159.018 394.437 159.355 393.415 160.078 391.632C160.797 389.853 161.255 388.944 161.448 388.912C161.875 388.85 162.54 389.042 163.452 389.499C164.328 389.961 164.952 390.431 165.33 390.906C165.671 390.118 166.03 389.325 166.408 388.532C166.933 387.412 167.261 386.847 167.392 386.825C167.98 386.731 168.753 386.977 169.714 387.559C170.689 388.205 171.228 388.868 171.336 389.553C171.462 390.333 171.174 391.363 170.473 392.64C169.79 393.818 169.269 394.432 168.91 394.49C168.65 394.531 168.2 394.351 167.571 393.953C166.673 393.361 165.936 392.94 165.366 392.698C164.458 395.212 163.631 396.524 162.881 396.645C162.751 396.663 162.086 396.368 160.882 395.758C159.683 395.149 159.072 394.795 159.058 394.697ZM294.348 364.84C294.388 364.804 294.429 364.764 294.469 364.728C294.631 364.576 294.761 364.481 294.86 364.446C294.959 364.414 295.004 364.464 294.99 364.598C294.977 364.737 294.842 365.001 294.595 365.4C293.077 367.94 291.657 370.552 290.332 373.245C286.774 380.472 289.361 375.172 287.528 379.697V379.701C286.886 381.466 286.639 382.864 286.774 383.895C286.913 384.921 287.492 385.624 288.521 385.991C288.89 386.126 289.24 386.135 289.559 386.023C289.883 385.911 290.183 385.74 290.457 385.508C290.736 385.275 290.992 385.006 291.226 384.705C291.455 384.401 291.652 384.123 291.814 383.868C292.106 383.447 292.335 383.281 292.492 383.375C292.654 383.469 292.668 383.697 292.533 384.074C292.169 384.885 291.684 385.817 291.077 386.856C290.471 387.9 289.793 388.859 289.038 389.723C288.283 390.588 287.497 391.26 286.675 391.74C285.853 392.21 285.04 392.304 284.231 392.013C283.359 391.699 282.766 391.215 282.443 390.557C282.119 389.894 281.953 389.163 281.949 388.352C281.94 387.546 282.048 386.735 282.272 385.924C282.497 385.113 282.713 384.41 282.928 383.823L283.004 383.751C283.543 382.277 284.388 380.413 285.529 378.164C288.108 373.079 284.276 380.409 289.321 370.808C289.757 369.983 290.287 369.195 290.916 368.438C291.279 368.012 291.724 367.51 292.241 366.946L294.348 364.84ZM186.646 369.065C189.432 368.693 192.132 368.218 194.751 367.636C197.37 367.058 199.948 366.233 202.487 365.162C204.742 364.204 206.916 363.084 209.005 361.807C211.09 360.525 213.093 359.168 215.003 357.73C217.693 355.705 220.209 353.581 222.55 351.359C224.886 349.137 227.285 346.901 229.733 344.647C230.461 343.962 231.193 343.312 231.934 342.698C232.671 342.08 233.466 341.502 234.32 340.969C235.111 340.476 235.672 340.328 236.005 340.525C236.337 340.723 236.351 341.215 236.041 342C235.834 342.595 235.614 343.214 235.38 343.854C235.146 344.491 234.872 345.082 234.558 345.633C234.405 345.924 234.234 346.162 234.046 346.341C233.857 346.52 233.61 346.699 233.305 346.883C232.869 347.116 232.262 347.6 231.472 348.321C230.685 349.047 229.684 349.992 228.462 351.148C227.038 352.51 225.618 353.895 224.203 355.301C222.788 356.708 221.346 358.097 219.872 359.464C218.399 360.83 216.903 362.161 215.389 363.447C213.87 364.741 212.298 365.947 210.667 367.071C203.834 371.856 196.206 374.912 187.787 376.242L182.239 376.995C180.694 377.188 179.386 377.255 178.304 377.192C177.118 377.111 175.945 376.982 174.777 376.798C173.614 376.614 172.477 376.327 171.381 375.933C170.954 375.767 170.613 375.637 170.365 375.543C170.114 375.449 169.889 375.4 169.687 375.4C169.489 375.4 169.301 375.481 169.126 375.637C168.95 375.799 168.726 376.072 168.452 376.444C168.205 376.784 167.949 377.174 167.684 377.618C167.419 378.061 167.104 378.594 166.736 379.217C166.035 380.297 165.154 381.112 164.085 381.663C163.02 382.214 161.835 382.394 160.532 382.201C159.813 382.08 159.157 381.95 158.564 381.811C157.975 381.672 157.306 381.695 156.569 381.878C155.891 382.049 155.244 382.286 154.624 382.582C154 382.882 153.402 383.312 152.818 383.872C151.942 384.674 151.367 385.042 151.088 384.97C150.81 384.898 150.954 384.334 151.52 383.276C152.162 382.04 152.912 380.839 153.779 379.665C154.651 378.496 155.63 377.438 156.718 376.502C157.275 376.009 157.881 375.557 158.533 375.136C159.184 374.719 159.889 374.481 160.653 374.428C161.282 374.396 161.911 374.459 162.54 374.629C163.169 374.795 163.807 374.912 164.454 374.974C165.168 375.064 165.801 374.983 166.345 374.728C166.889 374.477 167.374 374.101 167.796 373.599C168.286 373.088 168.717 372.551 169.099 371.991C169.476 371.43 169.853 370.87 170.235 370.31C170.783 369.558 171.305 369.051 171.799 368.787C172.293 368.527 173.039 368.5 174.045 368.706C176.318 369.114 178.438 369.356 180.406 369.428C182.374 369.499 184.458 369.378 186.646 369.065ZM282.928 364.598C283.085 364.163 283.818 363.357 285.12 362.179C286.423 361.005 287.2 360.458 287.452 360.548C288.261 360.839 288.898 361.498 289.37 362.528C289.842 363.554 289.941 364.437 289.671 365.18C289.424 365.866 288.768 366.592 287.699 367.362C286.63 368.133 285.893 368.447 285.489 368.299C285.3 368.236 284.797 367.631 283.979 366.498C283.683 366.148 283.395 365.781 283.112 365.395C282.91 365.082 282.852 364.813 282.928 364.598ZM305.067 342.958C308.872 344.576 319.119 350.7 318.131 350.4C318.652 350.073 320.049 349.181 320.584 348.85C370.189 318.017 403.685 263.953 404.786 202.049C406.538 104.451 327.192 23.416 228.165 21.6553L224.998 21.6284C223.942 21.6284 222.887 21.6374 221.831 21.6553C122.804 23.416 43.4587 104.451 45.2062 202.049C46.3114 263.953 79.8071 318.017 129.413 348.85C129.947 349.181 131.102 349.921 131.627 350.248C131.519 349.912 141.529 344.15 143.433 343.68C142.018 343.384 140.626 342.981 139.269 342.466C134.48 340.651 130.275 337.51 126.789 333.796C126.021 332.976 125.279 332.125 124.578 331.242C123.864 330.346 123.186 329.423 122.561 328.465L121.843 327.291C120.217 326.784 118.639 326.148 117.126 325.36C113.037 323.232 109.551 320.073 106.712 316.471C106.245 315.875 105.791 315.266 105.355 314.643C104.632 313.612 103.954 312.546 103.325 311.453C102.826 310.584 102.359 309.697 101.941 308.783L101.209 307.103C101.514 307.04 101.811 306.982 102.116 306.919C99.596 305.754 97.2243 304.284 95.1218 302.474C91.6267 299.468 88.9627 295.597 87.0264 291.44C86.7075 290.754 86.4062 290.055 86.1232 289.352C85.656 288.182 85.2427 286.991 84.8833 285.781C84.5958 284.822 84.3442 283.85 84.1465 282.869L83.8233 281.063L85.948 281.135C82.5877 278.993 79.5465 276.323 77.2105 273.088C74.515 269.356 72.8211 264.975 71.9091 260.481C71.7609 259.742 71.6307 258.993 71.5184 258.245C71.3387 256.995 71.213 255.741 71.1411 254.482C71.0872 253.483 71.0691 252.479 71.1096 251.475L71.213 249.648C71.7655 249.8 72.3226 249.948 72.8751 250.1C73.7871 250.355 74.6855 250.669 75.5705 251.01C76.3522 251.31 77.1295 251.637 77.8932 251.986C77.5967 251.794 77.3047 251.596 77.0171 251.395C76.3927 250.965 75.7816 250.517 75.1841 250.051C71.5632 247.228 68.3872 243.765 66.2398 239.688C64.097 235.615 63.0367 231.041 62.7671 226.462C62.7222 225.709 62.6998 224.952 62.6953 224.195C62.6908 222.932 62.7446 221.673 62.8524 220.418C62.9423 219.419 63.0637 218.425 63.2434 217.434L63.6073 215.638C64.1329 215.866 64.663 216.09 65.1886 216.319C66.0556 216.7 66.9002 217.139 67.7268 217.6C68.7601 218.174 70.6064 219.325 70.539 219.258C69.9909 218.734 69.4565 218.191 68.9399 217.636C65.8131 214.28 63.23 210.355 61.7565 205.992C60.2874 201.632 59.9728 196.946 60.431 192.39C60.5074 191.637 60.6062 190.884 60.723 190.136C60.9207 188.891 61.1723 187.654 61.4823 186.431C61.7249 185.459 62.0036 184.495 62.3405 183.55L62.9827 181.834C63.4678 182.139 63.9532 182.448 64.4384 182.753C65.2335 183.268 65.9971 183.832 66.7383 184.419C67.7536 185.217 68.7287 186.068 69.6676 186.955C70.0494 187.327 70.4313 187.699 70.8041 188.084L70.8535 187.968C70.1347 187.036 69.4519 186.072 68.814 185.082C68.4052 184.446 68.0098 183.796 67.6369 183.138C65.3727 179.15 63.7644 174.737 63.3421 170.154C62.9243 165.571 63.7017 160.943 65.2067 156.615C65.4538 155.898 65.7231 155.19 66.0106 154.487C66.4868 153.322 67.0214 152.175 67.601 151.059C68.0682 150.168 68.5624 149.294 69.106 148.452L70.1258 146.928C70.5301 147.34 70.9299 147.748 71.3298 148.16C71.9857 148.841 72.5967 149.567 73.1852 150.311C73.2616 150.405 73.3378 150.504 73.4142 150.602C72.3315 147 71.7925 143.232 72.0531 139.478C72.3721 134.885 73.877 130.441 76.0558 126.404C76.4152 125.737 76.7925 125.078 77.1924 124.433C77.8483 123.358 78.558 122.314 79.3127 121.301C79.9102 120.499 80.5393 119.711 81.2132 118.967L82.4665 117.627C82.7945 118.093 83.1268 118.564 83.4547 119.034C83.9938 119.814 84.4835 120.625 84.9417 121.449L84.9598 121.48C84.7846 117.986 85.108 114.464 86.1098 111.104C87.4216 106.695 89.8657 102.681 92.8756 99.2134C93.3698 98.6444 93.8863 98.0842 94.4119 97.5376C95.2924 96.6326 96.2088 95.768 97.1657 94.9437C97.9294 94.2895 98.7157 93.6577 99.5334 93.0798L101.047 92.0404L101.923 94.1865C102.381 91.4714 103.168 88.8191 104.349 86.3281C106.321 82.1659 109.354 78.5772 112.853 75.6067C113.433 75.1184 114.026 74.6435 114.632 74.1866C115.639 73.4249 116.681 72.708 117.75 72.0405C118.604 71.5073 119.475 71.0056 120.374 70.5575L122.031 69.7645C122.166 70.3201 122.306 70.8755 122.44 71.4311C122.656 72.354 122.813 73.2905 122.943 74.2224C123.114 75.4993 123.231 76.7895 123.285 78.0754C123.307 78.6085 123.321 79.1416 123.321 79.6748L123.572 79.5718C124.291 77.7752 125.225 76.0683 126.411 74.5315C126.753 74.0835 127.121 73.6489 127.503 73.2367C129.709 70.8577 132.499 69.07 135.473 67.7976C136.933 67.1748 138.447 66.6597 139.992 66.3103L141.884 65.9248C141.875 66.5252 141.861 67.1256 141.848 67.7259C141.825 68.4069 141.762 69.088 141.677 69.7645C141.574 70.6113 141.425 71.4535 141.246 72.2869C140.464 75.8263 139.004 79.2761 136.663 82.0763C135.113 83.9311 133.209 85.4589 131.124 86.6821L131.093 86.7895C131.587 86.7402 132.077 86.7 132.571 86.6641C133.33 86.6149 134.094 86.5879 134.857 86.579C135.172 86.5745 135.172 86.5744 135.482 86.5744C136.587 86.5834 137.688 86.6238 138.788 86.7403L140.612 86.9597C140.414 87.5377 140.221 88.1156 140.015 88.6936C139.673 89.6344 139.273 90.5574 138.847 91.4624C138.334 92.5422 137.773 93.6041 137.171 94.6345C136.794 95.2842 136.398 95.9249 135.98 96.5521C133.415 100.437 130.154 103.927 126.178 106.409C124.718 107.318 123.173 108.084 121.573 108.72C121.425 109.37 121.254 110.015 121.07 110.656C120.711 111.892 120.293 113.116 119.821 114.316C119.547 115.015 119.251 115.71 118.941 116.391C116.924 120.79 114.093 124.881 110.338 127.981C109.017 129.074 107.593 130.038 106.106 130.875C106.097 131.068 106.083 131.256 106.074 131.444C105.993 132.73 105.854 134.016 105.656 135.289C105.54 136.032 105.405 136.771 105.248 137.502C104.241 142.237 102.372 146.843 99.385 150.687C98.199 152.21 96.8558 153.604 95.3957 154.863C95.4991 155.512 95.5799 156.162 95.6428 156.816C95.7731 158.098 95.8404 159.388 95.8449 160.678C95.8494 161.426 95.8361 162.179 95.8002 162.927C95.5621 167.761 94.4523 172.605 92.1207 176.87C91.1324 178.684 89.9373 180.374 88.5896 181.942L89.0568 182.936C89.4522 183.796 89.7892 184.683 90.0947 185.58C90.517 186.798 90.8808 188.035 91.1863 189.289C91.366 190.02 91.5233 190.754 91.6625 191.489C92.552 196.247 92.5925 201.216 91.3121 205.907C90.7551 207.95 89.9553 209.921 88.976 211.794L89.5287 212.609C90.0544 213.398 90.5259 214.217 90.9751 215.051C91.5816 216.189 92.1388 217.354 92.642 218.545C92.934 219.235 93.208 219.934 93.4596 220.642C95.0949 225.199 95.9258 230.096 95.4092 234.93C94.9375 239.321 93.3876 243.545 91.2312 247.381L89.9957 249.437C90.1799 249.612 90.3597 249.786 90.5394 249.966C90.6607 249.688 90.7775 249.415 90.9033 249.146C91.4244 247.999 91.995 246.874 92.6195 245.777C93.1137 244.903 93.6436 244.047 94.2186 243.227L95.2924 241.74C95.6787 242.165 96.065 242.591 96.4514 243.017C97.0803 243.72 97.6644 244.468 98.226 245.23C98.9897 246.269 99.704 247.349 100.369 248.456C100.755 249.097 101.128 249.751 101.479 250.418C103.738 254.697 105.252 259.428 105.418 264.289C105.463 265.553 105.418 266.811 105.293 268.066L105.405 267.797C105.877 268.12 106.353 268.442 106.825 268.765C107.602 269.307 108.347 269.898 109.071 270.512C110.055 271.345 111.002 272.228 111.905 273.151C112.431 273.684 112.943 274.235 113.437 274.804C116.636 278.442 119.21 282.694 120.504 287.38C120.747 288.25 120.94 289.123 121.097 290.006C121.865 290.324 122.615 290.682 123.357 291.063C124.511 291.65 125.634 292.291 126.726 292.981C127.359 293.384 127.984 293.805 128.599 294.24C132.472 297 135.9 300.467 138.236 304.63C138.716 305.494 139.152 306.377 139.543 307.286C140.114 307.452 140.68 307.636 141.241 307.833C142.463 308.254 143.667 308.738 144.844 309.276C145.527 309.585 146.205 309.916 146.87 310.266C151.169 312.51 155.109 315.552 158.011 319.459C160.689 323.066 162.436 327.295 163.452 331.646C163.622 332.38 163.771 333.115 163.901 333.854C163.959 334.172 164.009 334.491 164.058 334.809L164.152 334.777C180.667 328.85 197.046 326.247 221.472 326.211C222.644 326.166 223.821 326.135 224.998 326.121L228.525 326.211C255.906 326.251 273.175 329.517 291.85 337.071C291.625 336.319 291.437 335.557 291.28 334.786C290.565 331.332 290.48 327.694 291.414 324.275C292.349 320.853 294.276 317.761 296.653 315.149C297.713 313.98 298.872 312.887 300.13 311.928L301.688 310.794C301.927 311.346 302.169 311.897 302.407 312.443C302.668 313.075 302.897 313.716 303.104 314.365C303.36 315.181 303.575 316 303.759 316.834C304.056 318.196 304.254 319.589 304.33 320.991C304.77 320.741 305.215 320.508 305.669 320.288C305.013 316.928 304.959 313.402 305.871 310.082C306.805 306.664 308.728 303.568 311.105 300.956C312.169 299.786 313.329 298.693 314.586 297.734L316.145 296.601C316.383 297.152 316.621 297.703 316.859 298.254C317.125 298.881 317.354 299.526 317.556 300.176C317.812 300.987 318.032 301.811 318.212 302.645C318.508 304.007 318.706 305.4 318.782 306.798C318.85 306.758 318.921 306.722 318.989 306.681C318.391 303.429 318.373 300.033 319.249 296.829C320.188 293.406 322.111 290.315 324.488 287.703C325.552 286.534 326.707 285.44 327.965 284.482L329.524 283.348L330.494 285.633C330.553 284.979 330.642 284.325 330.772 283.68C331.455 280.199 333.149 276.977 335.328 274.195C336.303 272.954 337.381 271.78 338.562 270.732L340.036 269.491L341.087 271.525C341.074 271.059 341.078 270.588 341.101 270.118C341.271 266.579 342.48 263.142 344.232 260.078C345.014 258.707 345.908 257.389 346.927 256.184L348.203 254.742C348.558 255.225 348.909 255.714 349.263 256.198C349.659 256.753 350.018 257.331 350.36 257.923C350.787 258.657 351.177 259.419 351.537 260.19C352.121 261.458 352.619 262.775 352.997 264.123C353.248 263.895 353.509 263.675 353.769 263.456C352.008 260.768 350.696 257.739 350.238 254.544C349.735 251.032 350.265 247.434 351.406 244.096C351.914 242.6 352.543 241.14 353.316 239.76L354.295 238.102C354.731 238.514 355.171 238.922 355.607 239.334C356.101 239.804 356.568 240.306 357.013 240.821C357.57 241.462 358.1 242.134 358.599 242.824C359.412 243.958 360.149 245.158 360.778 246.413L361.119 245.974C358.981 243.496 357.264 240.615 356.393 237.448C355.454 234.029 355.53 230.391 356.24 226.937C356.559 225.391 356.999 223.864 357.592 222.399L358.352 220.633C358.841 220.983 359.327 221.337 359.812 221.691C360.36 222.094 360.885 222.533 361.393 222.99C362.031 223.559 362.638 224.155 363.217 224.782C363.437 225.015 363.805 225.432 363.832 225.463C363.837 225.467 363.832 225.467 363.832 225.463C362.795 224.182 361.905 222.788 361.209 221.292C359.722 218.071 359.201 214.468 359.336 210.942C359.394 209.365 359.574 207.788 359.924 206.247L360.382 204.379C360.921 204.648 361.461 204.916 362 205.185C362.548 205.468 363.087 205.777 363.612 206.108C363.298 205.718 363.001 205.32 362.723 204.903C360.737 201.964 359.645 198.492 359.21 194.993C359.017 193.425 358.945 191.839 359.039 190.262L359.192 188.344C359.767 188.523 360.342 188.702 360.917 188.882C361.568 189.092 362.202 189.339 362.831 189.607C363.612 189.943 364.38 190.32 365.131 190.727C366.362 191.391 367.548 192.152 368.662 193.008C368.702 192.811 368.747 192.609 368.792 192.412C366.425 191.131 364.255 189.473 362.525 187.412C360.243 184.693 358.796 181.35 358.001 177.914C357.646 176.377 357.408 174.805 357.336 173.227L357.296 171.306C357.884 171.422 358.473 171.543 359.061 171.659C359.6 171.776 360.135 171.915 360.661 172.072C360.526 171.951 360.391 171.83 360.257 171.704C357.673 169.271 355.845 166.122 354.65 162.802C354.115 161.314 353.697 159.782 353.441 158.223L353.172 156.319C353.769 156.368 354.371 156.418 354.969 156.467C355.647 156.53 356.326 156.633 356.995 156.758C357.139 156.785 357.282 156.812 357.422 156.839C357.193 156.691 356.968 156.534 356.743 156.373C353.868 154.289 351.649 151.395 350.041 148.254C349.322 146.848 348.711 145.383 348.257 143.868L347.745 142.013C348.387 141.986 349.03 141.951 349.672 141.928L351.191 141.942C350.98 141.857 350.768 141.767 350.562 141.673C347.327 140.194 344.582 137.797 342.381 135.033C341.397 133.797 340.508 132.479 339.762 131.086L338.895 129.37C339.519 129.213 340.139 129.052 340.764 128.904C341.473 128.743 342.754 128.47 342.754 128.47C342.282 128.304 341.815 128.12 341.357 127.914C338.342 126.574 335.714 124.455 333.544 121.996C332.498 120.813 331.541 119.54 330.723 118.187L329.771 116.516C330.386 116.328 330.997 116.135 331.617 115.956C331.869 115.884 332.12 115.817 332.376 115.759C329.259 114.375 326.568 112.148 324.366 109.572C323.342 108.371 322.403 107.085 321.612 105.714L320.687 104.03L322.066 103.631C318.872 102.17 316.145 99.8136 313.953 97.0941C312.96 95.8665 312.061 94.5539 311.307 93.165L310.431 91.4536C310.557 91.4177 310.507 91.4311 310.606 91.4042C308.207 90.1676 306.06 88.4517 304.213 86.4983C303.126 85.3469 302.124 84.1103 301.266 82.7841L300.255 81.1443C300.862 80.9382 301.468 80.7232 302.079 80.526C303.032 80.2259 304.002 79.9885 304.982 79.8048C306.473 79.5226 307.987 79.3613 309.501 79.3254H310.655C310.125 78.1875 309.685 77.0046 309.326 75.8084C308.872 74.2941 308.531 72.7439 308.36 71.1713L308.189 69.2582C308.787 69.3389 309.38 69.4196 309.977 69.4957C310.651 69.5988 311.325 69.7331 311.985 69.8944C312.816 70.096 313.638 70.338 314.447 70.6113C316.082 71.1713 317.682 71.8792 319.178 72.7573C319.222 71.0683 319.447 69.3837 319.82 67.7395C320.166 66.1982 320.638 64.6793 321.258 63.2277L322.057 61.476C322.538 61.8389 323.014 62.2017 323.495 62.5646C324.034 62.9813 324.551 63.4294 325.049 63.8909C325.674 64.4733 326.271 65.0826 326.837 65.7188C329.335 68.51 331.325 71.8388 332.179 75.5036C332.228 75.7232 332.381 76.0279 332.381 76.0279L332.835 75.1229L333.711 73.5459C334.16 73.9446 334.609 74.3433 335.058 74.7421C335.562 75.1991 336.042 75.6874 336.505 76.1892C337.08 76.8164 337.628 77.475 338.145 78.1515C340.211 80.8621 341.824 83.9849 342.52 87.3316L343.468 85.4902C343.927 85.8755 344.389 86.2608 344.847 86.6461C345.368 87.0941 345.858 87.5647 346.335 88.053C346.928 88.6668 347.493 89.3074 348.028 89.9705C349.861 92.2465 351.37 94.8316 352.26 97.6183L353.63 98.7295C354.156 99.1641 354.654 99.63 355.14 100.109C355.742 100.71 356.317 101.342 356.865 101.996C359.264 104.872 361.137 108.264 361.865 111.955C361.887 112.058 361.905 112.161 361.923 112.264L362.291 111.615C362.736 112.014 363.186 112.412 363.63 112.815C364.133 113.277 364.61 113.765 365.068 114.272C365.638 114.903 366.182 115.562 366.694 116.243C368.945 119.236 370.643 122.721 371.182 126.445C371.519 128.779 371.402 131.158 370.962 133.47L370.966 133.456C371.564 132.488 372.224 131.556 372.943 130.678L374.201 129.222C374.56 129.702 374.92 130.185 375.279 130.665C375.679 131.216 376.047 131.789 376.398 132.376C376.833 133.107 377.233 133.859 377.602 134.63C379.21 138.008 380.189 141.754 379.978 145.512C379.924 146.444 379.803 147.363 379.619 148.272L381.043 146.991C381.339 147.515 381.636 148.035 381.928 148.559C382.256 149.159 382.548 149.773 382.817 150.4C383.154 151.18 383.46 151.977 383.725 152.788C384.893 156.341 385.383 160.181 384.691 163.882C384.498 164.908 384.224 165.916 383.869 166.897L384.601 166.337L386.074 165.302C386.308 165.853 386.537 166.409 386.766 166.96C387.023 167.596 387.243 168.241 387.436 168.891C387.678 169.711 387.885 170.535 388.056 171.368C388.797 175.037 388.828 178.909 387.71 182.502C387.22 184.07 386.524 185.566 385.675 186.969L386.87 186.225L388.442 185.342C388.617 185.92 388.788 186.494 388.959 187.067C389.147 187.721 389.3 188.389 389.426 189.056C389.583 189.894 389.7 190.736 389.781 191.583C390.136 195.306 389.767 199.164 388.28 202.623C387.368 204.742 386.07 206.668 384.525 208.384L384.583 208.353C385.657 207.739 386.775 207.197 387.926 206.744L389.736 206.081C389.817 206.677 389.893 207.273 389.969 207.864C390.05 208.541 390.091 209.222 390.109 209.903C390.131 210.754 390.113 211.606 390.059 212.457C389.812 216.189 388.828 219.934 386.802 223.111C385.522 225.123 383.864 226.865 381.995 228.348C383.024 227.985 384.071 227.681 385.136 227.457L387.031 227.098C387.009 227.699 386.991 228.299 386.969 228.895C386.937 229.576 386.865 230.257 386.771 230.929C386.654 231.771 386.497 232.609 386.304 233.438C385.446 237.08 383.864 240.62 381.344 243.42C379.057 245.969 376.092 247.846 372.939 249.141C372.175 249.455 371.402 249.742 370.612 249.984C370.612 250.27 370.603 250.557 370.594 250.844C372.107 250.087 373.707 249.5 375.338 249.056C376.865 248.644 378.433 248.344 380.01 248.214L381.937 248.093C381.838 248.684 381.744 249.276 381.645 249.872C381.528 250.539 381.375 251.207 381.196 251.861C380.971 252.685 380.711 253.496 380.414 254.294C379.111 257.797 377.094 261.108 374.246 263.577C371.658 265.821 368.478 267.318 365.185 268.209C364.169 268.487 363.132 268.711 362.089 268.868C362.004 269.356 361.905 269.84 361.793 270.324C363.419 269.872 365.104 269.594 366.789 269.468C367.373 269.423 367.961 269.401 368.549 269.392C368.77 269.388 368.99 269.388 369.21 269.388L371.658 269.536L373.451 269.764C373.231 270.369 373.015 270.974 372.786 271.574C372.206 273.044 371.474 274.455 370.643 275.794C368.774 278.792 366.326 281.489 363.284 283.33C360.243 285.172 356.712 286.09 353.185 286.359C352.588 286.404 351.981 286.431 351.379 286.44C351.326 286.587 351.267 286.731 351.209 286.879H351.218C352.125 286.762 353.042 286.704 353.958 286.686L355.728 286.717C356.716 286.767 357.705 286.87 358.684 287.026L361.092 287.524L362.826 288.012C362.521 288.577 362.22 289.141 361.905 289.701C361.123 291.072 360.189 292.362 359.169 293.572C356.887 296.265 354.07 298.581 350.795 299.961C348.275 301.018 345.553 301.502 342.821 301.556C343.881 301.646 344.933 301.794 345.975 302C347.026 302.21 348.073 302.474 349.093 302.819L350.908 303.474C350.562 304.011 350.22 304.558 349.865 305.091C348.98 306.404 347.961 307.622 346.855 308.751C344.385 311.274 341.406 313.38 338.037 314.518C336.581 315.01 335.076 315.315 333.553 315.463C333.504 315.449 334.955 315.817 335.71 316.072L337.525 316.726C337.179 317.268 336.837 317.81 336.482 318.348C335.597 319.656 334.578 320.875 333.473 322.004C330.997 324.526 328.023 326.632 324.654 327.77C321.284 328.908 317.637 329.047 314.137 328.545C313.4 328.438 312.663 328.308 311.936 328.142C311.819 328.415 311.693 328.68 311.567 328.944L313.059 328.913C314.766 328.93 316.464 329.114 318.14 329.446C319.191 329.656 320.238 329.921 321.258 330.261L323.072 330.915C322.722 331.457 322.385 332 322.03 332.537C321.145 333.85 320.125 335.068 319.016 336.198C316.545 338.72 313.567 340.821 310.202 341.964C308.54 342.524 306.814 342.842 305.067 342.958ZM150.253 340.467C146.911 339.468 143.707 337.994 140.882 335.942C137.616 333.572 134.929 330.494 132.782 327.094C130.428 327.259 128.087 327.645 125.805 328.232L125.724 328.25C126.775 329.697 127.934 331.063 129.174 332.345C129.633 332.824 130.109 333.285 130.589 333.738C133.64 336.578 137.207 338.931 141.178 340.257C143.348 340.978 145.608 341.395 147.881 341.56C147.701 341.646 149.287 340.906 150.253 340.467ZM298.755 339.818C299.357 339.939 299.959 340.033 300.565 340.109C303.647 340.49 306.85 340.315 309.775 339.222C312.237 338.303 314.438 336.793 316.343 335.001C316.761 334.607 317.165 334.199 317.556 333.778L318.764 332.376C318.239 332.241 317.704 332.129 317.17 332.031C315.808 331.784 314.425 331.65 313.036 331.632C312.942 331.632 312.843 331.632 312.749 331.632C311.783 331.641 310.817 331.708 309.865 331.852C309.353 332.586 308.786 333.29 308.171 333.949C305.83 336.444 302.825 338.259 299.645 339.491L298.755 339.818ZM159.57 336.502C158.483 334.11 157.167 331.82 155.59 329.715C154.026 327.618 152.207 325.709 150.118 324.128C147.701 322.3 144.952 320.951 142.081 320.001C140.603 319.513 139.089 319.128 137.562 318.836C135.576 318.46 133.559 318.241 131.537 318.169H131.461C131.47 318.191 131.475 318.218 131.484 318.245C132.153 320.078 132.953 321.861 133.883 323.577C134.619 324.934 135.441 326.247 136.349 327.497C138.119 329.934 140.23 332.138 142.692 333.886C144.956 335.494 147.49 336.699 150.127 337.573C151.497 338.026 152.895 338.388 154.31 338.671L155.99 337.958C154.274 336.798 152.593 335.584 150.922 334.361C149.035 332.945 147.162 331.507 145.347 329.992C143.523 328.482 141.735 326.928 140.037 325.234L140.046 325.225C142.239 326.198 144.332 327.313 146.394 328.474C148.46 329.629 150.477 330.862 152.477 332.112C154.458 333.388 156.43 334.679 158.348 336.045C158.631 336.247 158.914 336.448 159.197 336.65L159.57 336.502ZM298.822 336.887C298.921 336.847 299.02 336.807 299.123 336.767C301.994 335.593 304.699 333.872 306.711 331.489C308.4 329.486 309.577 327.089 310.35 324.603C310.521 324.051 310.673 323.496 310.808 322.94L311.168 321.121L309.397 321.681C308.854 321.874 308.319 322.085 307.789 322.313C305.247 323.42 302.857 324.961 300.992 327.031C299.132 329.101 297.861 331.641 297.034 334.28C297.007 334.378 296.976 334.477 296.945 334.576C297.713 333.675 298.512 332.806 299.325 331.941C300.417 330.817 301.527 329.71 302.708 328.662C303.885 327.604 305.107 326.592 306.455 325.682L306.464 325.691C305.781 327.165 304.972 328.527 304.119 329.854C303.265 331.184 302.349 332.457 301.41 333.711C300.57 334.791 299.721 335.861 298.822 336.887ZM301.63 322.761C301.661 321.381 301.549 319.997 301.325 318.644C301.23 318.075 301.118 317.51 300.983 316.955L300.493 315.167L299.159 316.457C298.764 316.87 298.378 317.3 298.009 317.739C296.23 319.862 294.784 322.309 294.052 324.992C293.319 327.672 293.319 330.512 293.768 333.241C293.854 333.747 294.078 334.692 294.078 334.692C294.092 334.647 294.105 334.598 294.114 334.553C295.026 331.144 296.585 327.855 298.962 325.212C299.757 324.325 300.637 323.523 301.581 322.797L301.63 322.761ZM160.999 333.214C160.635 331.431 160.141 329.674 159.503 327.967C158.591 325.521 157.378 323.178 155.814 321.081C154.013 318.653 151.753 316.583 149.26 314.871C147.926 313.953 146.524 313.133 145.073 312.403C143.325 311.525 141.515 310.781 139.655 310.172L139.579 310.145C139.583 310.176 139.583 310.198 139.583 310.225C139.709 312.174 139.974 314.11 140.388 316.018C140.437 316.251 140.491 316.484 140.545 316.713C143.95 317.591 147.238 318.931 150.185 320.848C150.882 321.301 151.556 321.784 152.203 322.295C154.058 323.76 155.716 325.458 157.18 327.304C158.64 329.146 159.907 331.135 160.999 333.214ZM313.207 325.629C313.809 325.745 314.411 325.839 315.018 325.915C318.1 326.296 321.302 326.121 324.232 325.028C326.689 324.114 328.895 322.6 330.795 320.812C331.213 320.418 331.617 320.006 332.008 319.585L333.216 318.182C332.619 318.03 332.012 317.905 331.401 317.802C330.108 317.578 328.801 317.457 327.489 317.443H327.201C326.235 317.448 325.274 317.519 324.321 317.663C323.805 318.397 323.243 319.096 322.623 319.755C320.283 322.255 317.282 324.069 314.097 325.297C313.805 325.414 313.508 325.521 313.207 325.629ZM125.67 325.454C126.466 325.261 128.24 324.916 128.393 324.889C124.997 323.411 121.811 321.426 119.134 318.859C116.223 316.068 113.985 312.649 112.328 308.984C111.793 308.948 111.259 308.926 110.729 308.913C110.351 308.904 109.974 308.899 109.601 308.899C108.226 308.908 106.856 308.984 105.486 309.128L105.176 309.164C105.306 309.401 105.436 309.638 105.567 309.871C107.247 312.828 109.291 315.593 111.712 317.994C113.626 319.889 115.787 321.556 118.168 322.828C120.518 324.083 123.065 324.934 125.67 325.454L125.657 325.458L125.67 325.454ZM135.095 315.705C133.59 312.739 131.645 309.988 129.188 307.73C127.099 305.803 124.678 304.253 122.112 303.034C119.084 301.601 115.845 300.606 112.552 300.015L112.242 299.966C112.251 299.988 112.256 300.015 112.26 300.042C112.669 301.95 113.213 303.828 113.9 305.651C114.444 307.098 115.077 308.509 115.805 309.871C117.18 312.457 118.909 314.867 121.025 316.897C123.146 318.926 125.625 320.557 128.267 321.834C128.972 322.174 129.691 322.488 130.419 322.784C130.015 321.919 129.637 321.045 129.287 320.158C128.972 319.347 128.455 317.793 128.473 317.842C127.081 316.449 125.706 315.033 124.376 313.572C122.777 311.829 121.218 310.042 119.772 308.138L119.781 308.124C121.816 309.392 123.739 310.781 125.621 312.215C127.009 313.263 128.361 314.347 129.7 315.449L130.751 315.431C132.202 315.445 133.653 315.539 135.095 315.705ZM313.688 322.528C316.518 321.354 319.178 319.647 321.163 317.295C322.852 315.297 324.029 312.9 324.807 310.409C324.977 309.862 325.126 309.307 325.26 308.747L325.624 306.932L323.85 307.488C323.311 307.681 322.771 307.891 322.246 308.12C319.703 309.226 317.309 310.768 315.449 312.837C314.065 314.374 313.005 316.175 312.214 318.079L313.701 317.828L313.778 317.752C314.869 316.623 315.979 315.517 317.165 314.468C318.342 313.415 319.564 312.398 320.907 311.489L320.921 311.498C320.238 312.972 319.425 314.334 318.571 315.66C317.722 316.995 316.801 318.267 315.862 319.517C315.179 320.4 314.488 321.274 313.769 322.125C313.742 322.259 313.715 322.394 313.688 322.528ZM308.989 318.94C309.932 316.045 311.374 313.29 313.414 311.018C314.227 310.118 315.121 309.302 316.082 308.568C316.114 307.188 316.002 305.808 315.777 304.45C315.687 303.881 315.57 303.321 315.44 302.761L314.946 300.978L313.616 302.264C313.216 302.681 312.83 303.106 312.461 303.55C310.682 305.669 309.236 308.12 308.504 310.799C307.771 313.482 307.771 316.319 308.221 319.052L308.248 319.199L308.989 318.94ZM136.811 307.86C136.452 307.062 136.048 306.283 135.603 305.526C134.121 303.008 132.184 300.772 130.001 298.832C127.44 296.556 124.538 294.665 121.465 293.16L121.393 293.129C121.389 293.155 121.389 293.182 121.384 293.209C121.236 295.216 121.236 297.237 121.398 299.249C121.412 299.419 121.429 299.594 121.443 299.764C125.293 301.341 128.896 303.55 131.838 306.493C134.008 308.662 135.792 311.184 137.225 313.886L136.937 311.453C136.848 310.454 136.811 307.86 136.811 307.86ZM326.999 312.452C327.462 312.533 327.933 312.604 328.401 312.663C331.483 313.044 334.685 312.869 337.615 311.776C340.072 310.862 342.278 309.347 344.178 307.56C344.596 307.165 345 306.753 345.391 306.332L346.599 304.93C346.002 304.777 345.395 304.652 344.784 304.549C343.491 304.325 342.183 304.204 340.872 304.19C340.777 304.19 340.678 304.19 340.584 304.19C339.618 304.195 338.657 304.267 337.704 304.405C337.188 305.145 336.626 305.844 336.006 306.502C333.666 309.002 330.665 310.817 327.48 312.044C327.349 312.094 327.219 312.147 327.089 312.192C327.057 312.277 327.026 312.363 326.999 312.452ZM327.969 303.671C328.805 302.828 329.654 302.004 330.548 301.216C331.72 300.163 332.942 299.146 334.29 298.236L334.304 298.245C333.616 299.719 332.808 301.081 331.954 302.407C331.105 303.738 330.184 305.01 329.245 306.265C328.931 306.668 328.621 307.067 328.302 307.466C328.225 307.931 328.135 308.388 328.037 308.85C330.503 307.703 332.79 306.126 334.546 304.043C336.235 302.04 337.412 299.647 338.19 297.156C338.356 296.605 338.509 296.054 338.643 295.494L339.003 293.68L337.233 294.235C336.689 294.428 336.154 294.638 335.629 294.867C333.082 295.974 330.692 297.515 328.832 299.585C327.637 300.911 326.689 302.43 325.939 304.043L327.969 303.671ZM108.527 306.193C104.619 303.698 101.097 300.508 98.5674 296.601C96.3795 293.218 94.9825 289.379 94.2098 285.432C92.031 284.764 89.7847 284.294 87.5205 284.016L87.2104 283.98C87.2194 284.002 87.2239 284.029 87.2329 284.056C87.7405 285.938 88.3921 287.784 89.1783 289.571C89.7983 290.983 90.5081 292.358 91.3077 293.68C92.8217 296.184 94.6814 298.496 96.9052 300.409C99.075 302.277 101.568 303.742 104.196 304.863C105.423 305.382 108.029 306.211 108.029 306.211C108.195 306.202 108.361 306.198 108.527 306.193ZM322.587 305.051C323.531 302.389 324.905 299.871 326.797 297.766C327.605 296.865 328.504 296.05 329.465 295.315C329.497 293.935 329.384 292.555 329.16 291.198C329.065 290.629 328.953 290.069 328.823 289.509L328.329 287.721L326.999 289.011C326.599 289.428 326.213 289.854 325.844 290.293C324.065 292.416 322.619 294.863 321.887 297.546C321.181 300.118 321.154 302.833 321.55 305.458L322.587 305.051ZM114.956 297.725C114.83 297.17 114.695 296.623 114.543 296.077C113.837 293.563 112.831 291.126 111.456 288.899C109.861 286.328 107.786 284.078 105.45 282.161C104.196 281.135 102.867 280.199 101.488 279.347C99.8209 278.326 98.0776 277.43 96.2762 276.664L96.2043 276.637C96.2043 276.664 96.2043 276.686 96.2043 276.713C96.1594 278.666 96.2582 280.615 96.5098 282.551C96.7075 284.083 96.9997 285.602 97.3905 287.094C98.1632 290.001 99.3356 292.819 100.998 295.333C102.575 297.707 104.56 299.791 106.775 301.583C107.966 302.551 110.504 304.146 110.504 304.146C110.248 303.317 110.023 302.479 109.821 301.637C109.718 301.202 109.619 300.763 109.529 300.324C109.187 299.795 108.846 299.262 108.505 298.733C107.26 296.735 106.034 294.719 104.884 292.654C103.729 290.593 102.624 288.496 101.654 286.31L101.663 286.301C103.352 288.003 104.906 289.791 106.411 291.614C107.871 293.375 109.259 295.181 110.625 297.004L109.021 296.865L110.737 297.013C111.681 297.103 112.62 297.251 113.55 297.43C114.021 297.519 114.489 297.618 114.956 297.725ZM340.777 298.03L340.53 298.774C340.705 298.787 340.876 298.796 341.051 298.805C344.151 298.962 347.332 298.559 350.171 297.255C352.556 296.166 354.645 294.495 356.411 292.573C356.802 292.152 357.175 291.713 357.534 291.265L358.639 289.777C357.372 289.553 356.092 289.441 354.812 289.41C354.587 289.406 354.363 289.406 354.138 289.406C352.655 289.423 351.168 289.576 349.726 289.898C349.263 290.669 348.756 291.413 348.19 292.112C346.204 294.562 343.621 296.475 340.813 297.905L340.777 298.03ZM118.693 292.631C118.55 291.104 118.28 289.585 117.871 288.106C117.049 285.118 115.639 282.318 113.878 279.777C112.997 278.505 112.027 277.295 110.989 276.153C109.677 274.706 108.258 273.357 106.744 272.121L106.681 272.071C106.672 272.098 106.663 272.125 106.654 272.148C106.065 274.007 105.616 275.911 105.311 277.837C105.275 278.075 105.239 278.308 105.207 278.545C108.59 280.96 111.591 283.931 113.779 287.47C115.863 290.835 117.18 294.625 117.903 298.505C118.145 298.581 118.384 298.653 118.626 298.733C118.604 298.433 118.59 298.138 118.577 297.837C118.527 296.578 118.532 295.315 118.595 294.061C118.617 293.581 118.648 293.106 118.693 292.631ZM341.941 292.098L341.676 294.271C343.549 293.066 345.238 291.57 346.55 289.764C348.091 287.645 349.088 285.172 349.681 282.631C349.812 282.071 349.924 281.511 350.014 280.942L350.243 279.105L348.518 279.791C347.992 280.019 347.471 280.27 346.959 280.535C344.506 281.82 342.228 283.532 340.526 285.732C339.25 287.376 338.324 289.253 337.673 291.225C338.163 291.077 338.661 290.942 339.156 290.826L339.218 290.754C340.225 289.553 341.254 288.366 342.359 287.233C343.45 286.099 344.596 284.997 345.876 283.993L345.885 284.002C345.31 285.521 344.6 286.937 343.846 288.321C343.257 289.41 342.624 290.467 341.972 291.507L341.941 292.098ZM334.506 292.385C335.229 289.397 336.473 286.507 338.365 284.065C339.097 283.124 339.915 282.259 340.8 281.466L340.845 281.426C340.782 280.051 340.566 278.68 340.243 277.34C340.108 276.785 339.955 276.229 339.78 275.682L339.16 273.94C339.155 273.944 339.155 273.944 339.151 273.949C338.729 274.392 338.32 274.849 337.925 275.319C337.561 275.763 337.206 276.216 336.869 276.682C335.251 278.931 333.989 281.475 333.45 284.199C332.915 286.928 333.122 289.764 333.774 292.452C333.792 292.533 333.81 292.609 333.832 292.69C334.052 292.587 334.277 292.484 334.506 292.385ZM240.268 262.842C252.361 267.255 265.295 269.249 278.319 268.617C263.022 273.572 247.37 274.159 232.689 271.077L232.568 274.096L224.998 284.486L217.428 274.096L217.307 271.077C202.626 274.159 186.97 273.572 171.677 268.617C184.696 269.249 197.635 267.255 209.728 262.842C189.921 252.497 173.996 234.71 166.534 211.83C155.478 177.923 165.932 140.71 193.043 117.457C163.582 160.92 174.189 219.625 216.454 250.221L213.516 177.771V120.777C218.093 118.586 222.047 115.275 224.998 111.158C227.95 115.275 231.903 118.586 236.476 120.777V177.771L233.543 250.221C275.803 219.625 286.414 160.92 256.953 117.457C284.065 140.71 294.518 177.923 283.463 211.83C276.001 234.71 260.075 252.497 240.268 262.842ZM352.233 283.689C352.651 283.671 353.064 283.639 353.477 283.599C356.568 283.308 359.654 282.443 362.278 280.745C364.479 279.32 366.299 277.367 367.768 275.207C368.091 274.733 368.397 274.249 368.689 273.751L369.565 272.121C369.304 272.112 369.048 272.112 368.788 272.112C368.271 272.116 367.754 272.13 367.238 272.165C365.036 272.309 362.826 272.734 360.764 273.527L360.742 273.581C360.405 274.392 360.014 275.185 359.565 275.942C357.821 278.886 355.283 281.31 352.444 283.196L352.336 283.268C352.305 283.406 352.269 283.55 352.233 283.689ZM80.2965 256.305C80.0629 256.166 79.825 256.032 79.5869 255.898C77.7675 254.88 75.8626 254.011 73.9039 253.295L73.8274 253.268C73.8274 253.294 73.8276 253.321 73.8321 253.348C73.886 255.297 74.0882 257.242 74.4386 259.159C74.7126 260.678 75.0811 262.183 75.5483 263.653C76.4423 266.44 77.7089 269.119 79.4295 271.498C81.1007 273.814 83.1854 275.817 85.481 277.515C86.8512 278.527 88.3022 279.437 89.8027 280.243C89.632 280.069 89.4568 279.889 89.2861 279.715C86.1099 276.399 83.4638 272.515 81.9318 268.174C80.5886 264.379 80.1258 260.32 80.2965 256.305ZM97.5745 274.258C97.7587 270.436 97.332 266.57 96.0157 262.963C95.0139 260.221 93.5134 257.672 91.7209 255.369C89.614 252.672 87.1028 250.288 84.3489 248.254L84.2858 248.209C84.2813 248.232 84.2723 248.259 84.2633 248.286C83.7692 250.172 83.4144 252.094 83.2033 254.034C83.0416 255.566 82.9697 257.112 83.0056 258.657C83.073 261.578 83.5311 264.509 84.506 267.268C85.4854 270.033 86.9679 272.6 88.7514 274.921C89.6544 276.095 90.6337 277.206 91.676 278.259C92.278 278.863 92.8935 279.446 93.5315 280.01L93.4865 279.029C92.6284 276.892 91.8557 274.724 91.101 272.551C90.3507 270.315 89.632 268.075 88.9941 265.799C88.3516 263.527 87.7632 261.234 87.3319 258.881L87.3409 258.877C88.5898 260.92 89.6858 263.021 90.719 265.145C91.7658 267.264 92.7271 269.415 93.657 271.578C93.8637 272.067 94.0661 272.555 94.2682 273.044L95.4182 273.42C96.146 273.666 96.8647 273.949 97.5745 274.258ZM353.055 277.318L352.956 279.428C354.834 277.878 356.469 276.018 357.602 273.859C358.814 271.538 359.443 268.944 359.659 266.346C359.708 265.777 359.735 265.199 359.744 264.625L359.699 262.779L358.096 263.702C357.606 264.007 357.13 264.329 356.662 264.67C354.421 266.296 352.417 268.317 351.052 270.741C350.023 272.569 349.376 274.585 349.021 276.65L350.301 276.216L350.49 275.898C351.308 274.562 352.157 273.241 353.082 271.959C354.003 270.678 354.973 269.424 356.092 268.245L356.101 268.25C355.755 269.836 355.261 271.341 354.713 272.824C354.214 274.2 353.644 275.539 353.046 276.87L353.055 277.318ZM346.092 277.923C346.397 274.948 347.201 272.013 348.67 269.406C349.268 268.348 349.964 267.358 350.746 266.435C350.477 265.082 350.067 263.756 349.551 262.479C349.34 261.946 349.106 261.422 348.855 260.907L347.988 259.271L346.963 260.812C346.667 261.305 346.384 261.807 346.119 262.318C344.843 264.773 343.962 267.475 343.832 270.248C343.697 273.008 344.308 275.763 345.328 278.317L346.092 277.923ZM100.674 275.745C101.115 274.567 101.497 273.362 101.802 272.143C102.462 269.531 102.799 266.829 102.678 264.132C102.548 261.198 101.869 258.303 100.823 255.566C99.5782 252.3 97.826 249.235 95.7281 246.444L95.5394 246.198C95.5259 246.22 95.5126 246.243 95.4991 246.265C94.4928 247.936 93.6076 249.683 92.8619 251.485C92.772 251.704 92.6824 251.928 92.597 252.152C95.3239 255.284 97.5477 258.868 98.855 262.82C100.203 266.892 100.557 271.247 100.23 275.512C100.171 275.481 100.472 275.638 100.674 275.745ZM363.167 265.897C363.769 265.772 364.363 265.62 364.951 265.445C367.93 264.576 370.796 263.142 373.046 260.983C374.938 259.168 376.357 256.906 377.391 254.509C377.615 253.984 377.822 253.447 378.015 252.905L378.563 251.14L376.744 251.507C376.187 251.641 375.63 251.798 375.082 251.968C373.374 252.506 371.712 253.236 370.189 254.182C370.01 255.06 369.771 255.929 369.47 256.78C368.32 259.997 366.285 262.855 363.859 265.243C363.63 265.467 363.406 265.687 363.167 265.897ZM360.167 259.536C360.292 259.173 360.423 258.81 360.553 258.447C361.106 256.982 361.685 255.521 362.35 254.092C363.01 252.658 363.729 251.243 364.601 249.876L364.614 249.881C364.574 251.502 364.371 253.075 364.115 254.63C363.868 256.189 363.532 257.721 363.172 259.244C362.925 260.203 362.673 261.157 362.395 262.107L362.44 262.802C364.538 260.615 366.272 258.017 367.148 255.1C367.903 252.596 368.024 249.93 367.745 247.336C367.683 246.767 367.602 246.198 367.498 245.633L367.107 243.823L365.706 245.037C365.283 245.427 364.875 245.835 364.484 246.256C362.588 248.277 361.007 250.638 360.126 253.277C359.412 255.418 359.174 257.69 359.268 259.943L360.257 259.5L360.167 259.536ZM356.631 261.404C356.348 258.384 356.573 255.297 357.534 252.412C357.92 251.265 358.419 250.163 359.008 249.105C358.486 247.829 357.83 246.605 357.085 245.45C356.775 244.966 356.447 244.491 356.101 244.034L354.937 242.591L354.228 244.303C354.03 244.84 353.846 245.382 353.684 245.933C352.898 248.586 352.547 251.408 352.943 254.159C353.338 256.906 354.47 259.509 355.971 261.834L356.631 261.404ZM285.309 251.431C285.255 251.507 285.201 251.583 285.147 251.646C320.673 231.171 332.83 185.862 312.291 150.445C302.219 133.075 285.529 120.517 266.005 115.647C308.948 147.829 317.592 208.626 285.309 251.431ZM137.701 150.445C117.166 185.862 129.323 231.171 164.849 251.646C164.795 251.583 164.741 251.507 164.687 251.431C132.404 208.626 141.044 147.829 183.987 115.647C164.467 120.517 147.773 133.075 137.701 150.445ZM84.268 244.899C84.8161 245.239 85.7865 245.924 85.7415 245.898C86.8961 241.395 87.2465 236.619 86.2313 232.058C85.6293 229.361 84.5691 226.776 83.2123 224.374C81.5277 221.399 79.3936 218.675 76.9722 216.265L76.752 216.046C76.743 216.072 76.7297 216.095 76.7207 216.122C75.966 217.918 75.3416 219.773 74.8609 221.664C74.479 223.16 74.1915 224.679 74.0073 226.211C73.6659 229.114 73.7063 232.08 74.2859 234.952C74.8609 237.824 75.9658 240.575 77.4079 243.124C78.1671 244.468 79.0208 245.759 79.9508 246.995C80.3955 247.587 80.8581 248.165 81.3388 248.734L81.5365 247.932C80.9794 245.669 80.5123 243.389 80.0676 241.104C79.6408 238.787 79.2409 236.467 78.9354 234.123C78.6165 231.785 78.3603 229.428 78.2614 227.04L78.2752 227.036C79.2231 229.235 80.0091 231.467 80.7369 233.716C81.4737 235.96 82.1161 238.227 82.7361 240.499C83.091 241.861 83.4369 243.223 83.7649 244.589L84.268 244.899ZM71.6621 223.505C69.8786 222.08 67.9605 220.826 65.9569 219.737L65.6827 219.589C65.6827 219.616 65.6781 219.643 65.6736 219.67C65.449 221.673 65.3771 223.693 65.4625 225.709C65.5254 227.183 65.6783 228.657 65.9253 230.114C66.4285 233.079 67.345 235.987 68.7781 238.644C70.0944 241.086 71.8285 243.286 73.8052 245.23C75.0182 246.426 76.3252 247.528 77.6999 248.536C77.5516 248.339 77.4036 248.142 77.2598 247.941C74.5823 244.217 72.5158 239.997 71.6083 235.485C70.8132 231.538 70.9298 227.457 71.6621 223.505ZM370.648 247.103C371.227 246.901 371.798 246.677 372.355 246.431C375.203 245.194 377.871 243.42 379.83 240.996C381.479 238.958 382.602 236.538 383.325 234.034C383.482 233.483 383.626 232.923 383.747 232.363L384.071 230.539L382.31 231.135C381.771 231.337 381.241 231.561 380.715 231.798C379.093 232.546 377.534 233.474 376.142 234.603C376.079 235.499 375.948 236.39 375.755 237.269C375.019 240.606 373.356 243.698 371.249 246.368C371.052 246.614 370.854 246.861 370.648 247.103ZM88.2617 247.067C89.2006 245.508 90.0319 243.881 90.7237 242.197C91.7435 239.706 92.4576 237.076 92.7182 234.392C93.0012 231.467 92.7361 228.51 92.0892 225.647C91.3165 222.242 90.0093 218.958 88.3291 215.902L88.1764 215.633C88.1584 215.651 88.1405 215.674 88.127 215.692C86.8961 217.21 85.773 218.81 84.7802 220.494C84.6589 220.7 84.5419 220.907 84.4251 221.113C86.6848 224.598 88.383 228.46 89.1153 232.551C89.9104 236.968 89.5916 241.529 88.5584 245.884C88.464 246.278 88.365 246.673 88.2617 247.067ZM363.563 243.308C362.929 240.396 362.781 237.358 363.365 234.428C363.603 233.241 363.958 232.08 364.412 230.96C363.734 229.76 362.934 228.626 362.049 227.573C361.676 227.13 361.29 226.704 360.894 226.292L359.556 225.002L359.07 226.789C358.936 227.349 358.823 227.914 358.733 228.478C358.284 231.207 358.289 234.047 359.025 236.726C359.758 239.383 361.191 241.807 362.948 243.913L363.563 243.308ZM369.875 243.648C371.519 241.332 372.768 238.707 373.24 235.898C373.675 233.312 373.46 230.656 372.858 228.12C372.723 227.56 372.57 227.004 372.399 226.458L371.784 224.71L370.544 226.09C370.176 226.529 369.825 226.982 369.484 227.448C367.862 229.692 366.591 232.233 366.047 234.957C365.629 237.031 365.647 239.168 365.962 241.26L367.009 240.512C367.045 240.355 367.08 240.194 367.116 240.037C367.48 238.514 367.871 236.995 368.356 235.494C368.828 233.989 369.363 232.493 370.059 231.028L370.073 231.032C370.234 232.645 370.234 234.231 370.176 235.804C370.126 237.381 369.983 238.944 369.816 240.499C369.736 241.14 369.65 241.785 369.556 242.421L369.875 243.648ZM376.856 228.492C377.391 228.196 377.916 227.882 378.433 227.551C381.034 225.866 383.375 223.675 384.911 220.965C386.205 218.689 386.915 216.117 387.22 213.528C387.283 212.954 387.332 212.381 387.359 211.807L387.377 209.957L385.742 210.83C385.243 211.122 384.754 211.426 384.278 211.749C382.8 212.752 381.411 213.922 380.225 215.261C380.306 216.157 380.329 217.054 380.279 217.954C380.1 221.368 378.968 224.683 377.328 227.667C377.175 227.945 377.018 228.218 376.856 228.492ZM364.416 226.153C364.915 226.771 365.391 227.407 365.832 228.066C365.885 227.976 365.939 227.882 365.993 227.793C365.441 227.273 364.915 226.726 364.416 226.153ZM372.332 220.548C372.422 219.504 372.534 218.456 372.687 217.407C372.912 215.848 373.19 214.285 373.639 212.726H373.648C374.075 214.289 374.336 215.857 374.533 217.421C374.745 218.985 374.861 220.548 374.951 222.112C374.996 223.308 375.032 224.504 375.023 225.701C375.055 225.804 375.086 225.907 375.117 226.014L375.167 225.916C376.609 223.178 377.57 220.123 377.575 217.009C377.579 214.392 376.933 211.803 375.922 209.401C375.697 208.868 375.459 208.348 375.198 207.833L374.304 206.211L373.307 207.775C373.019 208.272 372.741 208.774 372.485 209.289C371.25 211.767 370.414 214.482 370.324 217.26C370.275 218.805 370.454 220.347 370.814 221.847C370.939 221.731 372.332 220.548 372.332 220.548ZM368.617 224.146C367.903 221.892 367.516 219.536 367.593 217.17C367.633 215.96 367.795 214.76 368.055 213.581C367.193 212.506 366.213 211.516 365.167 210.624C364.731 210.248 364.277 209.89 363.815 209.549L362.291 208.496L362.098 210.338C362.062 210.911 362.044 211.485 362.044 212.058C362.049 214.827 362.521 217.627 363.689 220.149C364.619 222.157 365.966 223.94 367.539 225.494L368.617 224.146ZM82.3229 216.762C82.7092 216.305 83.0821 215.844 83.446 215.369C85.9842 212.067 87.9878 208.299 88.9222 204.227C89.5377 201.534 89.6904 198.743 89.4972 195.992C89.2546 192.582 88.4998 189.213 87.3497 186.001L87.2419 185.71C87.224 185.728 87.2015 185.745 87.1835 185.763C85.7235 187.063 84.3624 188.469 83.118 189.975C82.9653 190.158 82.817 190.342 82.6642 190.53C84.3444 194.325 85.4047 198.407 85.481 202.564C85.5619 207.049 84.5195 211.507 82.8079 215.638C82.6552 216.014 82.4936 216.391 82.3229 216.762ZM64.4068 186.063L64.3844 186.14C63.8587 188.017 63.4769 189.934 63.2388 191.87C63.0501 193.402 62.9558 194.948 62.9692 196.489C62.9962 199.415 63.4095 202.349 64.3484 205.127C65.2829 207.905 66.725 210.494 68.477 212.838C69.4025 214.079 70.4134 215.253 71.4915 216.359C71.5454 216.417 71.6487 216.516 71.6487 216.516C71.5408 216.305 71.4332 216.095 71.3254 215.884C69.2768 211.785 67.902 207.291 67.7268 202.694C67.5696 198.671 68.3333 194.657 69.681 190.875L69.6854 190.871C68.149 189.186 66.4554 187.641 64.6539 186.252L64.4068 186.063ZM79.9417 215.405C80.665 213.77 81.2714 212.08 81.7342 210.355C82.4395 207.757 82.8215 205.06 82.7451 202.367C82.6598 199.428 82.0307 196.525 81.0289 193.765C80.4988 192.305 79.8653 190.884 79.1466 189.504C78.2166 187.717 77.1429 186.001 75.9434 184.379L75.8984 184.312C75.8805 184.334 75.8672 184.357 75.8537 184.379C74.7845 186.09 73.8501 187.882 73.0594 189.737C72.4484 191.166 71.9272 192.636 71.5094 194.133C70.7277 196.96 70.3189 199.903 70.4671 202.838C70.6064 205.678 71.249 208.483 72.2374 211.148C72.7675 212.573 73.3916 213.962 74.097 215.311L75.072 213.192L75.31 212.739C75.2606 211.686 75.2201 210.629 75.1841 209.576C75.1347 207.219 75.1079 204.867 75.1798 202.506C75.2382 200.145 75.3549 197.779 75.6379 195.405H75.6514C76.2399 197.721 76.6576 200.055 77.0215 202.39C77.3899 204.719 77.6686 207.058 77.9157 209.401C78.055 210.848 78.1852 212.295 78.293 213.743L79.9417 215.405ZM379.322 209.513C379.807 209.141 380.275 208.747 380.728 208.335C383.029 206.261 384.987 203.725 386.07 200.804C386.977 198.348 387.27 195.696 387.153 193.093C387.126 192.52 387.081 191.946 387.014 191.377L386.739 189.545L385.261 190.669C384.817 191.032 384.385 191.413 383.963 191.807C382.665 193.03 381.483 194.406 380.526 195.92C380.751 196.789 380.917 197.672 381.012 198.572C381.385 201.969 380.8 205.423 379.655 208.626C379.552 208.926 379.439 209.222 379.322 209.513ZM370.67 206.888C369.511 204.679 368.684 202.296 368.365 199.818C368.208 198.617 368.172 197.407 368.244 196.202C367.22 195.279 366.092 194.46 364.915 193.743C364.426 193.443 363.922 193.16 363.41 192.896L361.735 192.103L361.842 193.949C361.896 194.522 361.972 195.091 362.067 195.66C362.516 198.389 363.433 201.077 364.987 203.384C366.294 205.32 368.028 206.937 369.951 208.259L370.67 206.888ZM376.685 204.881C376.977 205.369 377.256 205.871 377.521 206.377C378.307 203.689 378.639 200.844 378.19 198.071C377.777 195.486 376.721 193.03 375.338 190.822C375.032 190.333 374.713 189.858 374.372 189.392L373.231 187.932L372.498 189.634C372.292 190.167 372.098 190.709 371.928 191.261C371.106 193.899 370.715 196.713 371.074 199.473C371.281 201.099 371.752 202.676 372.399 204.182L373.603 202.672C373.514 201.534 373.446 200.391 373.433 199.24C373.397 197.667 373.424 196.081 373.617 194.468H373.631C374.3 195.942 374.808 197.448 375.257 198.958C375.715 200.468 376.079 201.995 376.416 203.523C376.51 203.976 376.6 204.424 376.685 204.881ZM379.516 190.284C379.956 189.863 380.383 189.419 380.791 188.967C382.862 186.664 384.547 183.94 385.32 180.925C385.971 178.389 385.985 175.718 385.594 173.142C385.513 172.573 385.405 172.009 385.279 171.449L384.817 169.657L383.464 170.925C383.06 171.332 382.669 171.758 382.292 172.193C381.124 173.546 380.095 175.037 379.3 176.641C379.614 177.479 379.87 178.344 380.059 179.222C380.782 182.564 380.558 186.063 379.754 189.365C379.682 189.675 379.601 189.979 379.516 190.284ZM370.239 187.941C369.048 186.032 368.127 183.962 367.606 181.776C367.332 180.615 367.175 179.433 367.116 178.25L367.112 178.187C365.998 177.376 364.794 176.677 363.549 176.086C363.028 175.839 362.498 175.611 361.963 175.4L360.212 174.782L360.512 176.61C360.625 177.17 360.76 177.73 360.912 178.286C361.645 180.951 362.831 183.532 364.619 185.665C365.998 187.309 367.705 188.649 369.56 189.719L370.239 187.941ZM371.209 169.464C371.007 170.042 370.823 170.624 370.661 171.216C370.508 171.767 370.378 172.327 370.266 172.891C369.722 175.602 369.623 178.443 370.266 181.149C370.585 182.484 371.079 183.77 371.699 184.993L372.647 183.434L373.078 183.846C372.885 182.797 372.714 181.74 372.588 180.674C372.395 179.11 372.256 177.529 372.278 175.907L372.287 175.902C373.109 177.305 373.77 178.747 374.372 180.203C374.987 181.659 375.508 183.138 376.002 184.625C376.411 185.925 376.811 187.233 377.144 188.554C377.166 188.451 377.188 188.348 377.215 188.241C377.885 185.221 378.011 182.022 377.202 179.016C376.519 176.489 375.216 174.159 373.608 172.103C373.253 171.65 372.885 171.207 372.503 170.781L371.213 169.446L371.209 169.464ZM92.889 156.749C92.889 156.749 90.5259 158.411 89.277 159.101C88.6301 159.46 87.9741 159.805 87.3047 160.127C88.0235 164.141 88.0955 168.286 87.2195 172.278C86.2581 176.659 84.214 180.754 81.5949 184.383C81.3568 184.715 81.1098 185.042 80.8628 185.365C81.3434 185.011 81.8152 184.648 82.2779 184.267C85.5079 181.637 88.3292 178.434 90.1846 174.684C91.4066 172.206 92.2015 169.531 92.6507 166.807C93.1943 163.487 93.2484 160.091 92.889 156.749ZM78.7602 183.622L78.7917 183.581C81.6759 179.8 83.9132 175.432 84.7443 170.723C85.234 167.927 85.2338 165.06 84.8699 162.251C84.4431 158.935 83.5268 155.683 82.242 152.6L82.1205 152.314C82.1025 152.331 82.0846 152.349 82.0621 152.367C80.6739 153.743 79.3892 155.217 78.2211 156.78C77.2957 158.021 76.4465 159.316 75.6873 160.66C74.2587 163.214 73.1627 165.969 72.5922 168.846C72.0261 171.718 71.9946 174.679 72.3495 177.582C72.5337 179.115 72.8303 180.633 73.2121 182.13C73.293 182.439 73.3782 182.748 73.4636 183.053L74.7169 181.193C74.982 179.702 75.2785 178.214 75.5795 176.731C76.0737 174.428 76.595 172.13 77.2105 169.849C77.8124 167.569 78.4773 165.293 79.3039 163.048H79.3174C79.3488 165.441 79.2184 167.806 79.0297 170.159C78.8501 172.515 78.576 174.854 78.2795 177.188C78.0549 178.792 77.8213 180.396 77.5562 181.991L78.7602 183.622ZM70.5346 151.373L70.4943 151.44C69.5509 153.151 68.7331 154.926 68.0548 156.754C67.5157 158.201 67.0663 159.684 66.7249 161.189C66.069 164.038 65.7951 166.991 66.0646 169.908C66.3297 172.824 67.1384 175.678 68.2974 178.362C68.9084 179.782 69.6227 181.153 70.4134 182.484C70.4448 182.533 70.4763 182.587 70.5077 182.641L70.539 182.69C70.4806 182.452 70.4222 182.215 70.3638 181.977C69.2766 177.336 69.0028 172.452 70.0271 167.775C70.8492 164.02 72.4619 160.481 74.5554 157.264C73.4188 155.203 72.0799 153.25 70.5839 151.435L70.5346 151.373ZM367.853 171.167C366.505 169.455 365.391 167.56 364.641 165.508C364.232 164.388 363.936 163.236 363.738 162.067L363.729 162.009C362.525 161.328 361.249 160.777 359.942 160.333C359.398 160.15 358.846 159.984 358.289 159.84L356.478 159.428L356.99 161.211C357.17 161.753 357.368 162.296 357.583 162.829C358.621 165.392 360.108 167.815 362.134 169.724C363.675 171.175 365.499 172.296 367.44 173.142L367.853 171.167ZM377.471 172.569C377.858 172.098 378.226 171.61 378.581 171.113C380.365 168.582 381.717 165.683 382.13 162.596C382.476 160.002 382.18 157.349 381.492 154.836C381.34 154.28 381.169 153.734 380.98 153.187L380.306 151.462L379.116 152.883C378.761 153.335 378.419 153.801 378.1 154.276C377.099 155.759 376.249 157.358 375.652 159.043C376.061 159.84 376.416 160.669 376.708 161.52C377.817 164.755 378.006 168.254 377.602 171.633C377.561 171.946 377.521 172.255 377.471 172.569ZM375.041 169.54C375.167 166.861 374.848 164.146 373.846 161.651C372.871 159.222 371.303 157.058 369.466 155.203C369.062 154.796 368.639 154.401 368.208 154.021L366.775 152.847L366.434 154.666C366.348 155.235 366.281 155.804 366.236 156.377C366.016 159.137 366.254 161.964 367.206 164.576C367.638 165.745 368.204 166.857 368.873 167.9L369.394 166.664L370.167 165.038L369.915 165.566C369.753 164.993 369.601 164.415 369.461 163.837C369.08 162.305 368.761 160.75 368.59 159.137L368.603 159.133C369.583 160.427 370.405 161.785 371.178 163.16C371.955 164.536 372.647 165.943 373.316 167.358C373.401 167.555 373.491 167.753 373.581 167.95L375.041 169.54ZM363.716 154.379C362.368 152.972 361.2 151.404 360.301 149.67C359.749 148.613 359.309 147.506 358.963 146.373L358.945 146.315C357.664 145.795 356.33 145.409 354.978 145.136C354.412 145.024 353.841 144.93 353.271 144.854L351.424 144.679L352.161 146.377C352.408 146.897 352.673 147.408 352.956 147.909C354.313 150.32 356.097 152.538 358.352 154.173C359.902 155.297 361.649 156.126 363.473 156.709L363.626 155.042C363.653 154.823 363.684 154.598 363.716 154.379ZM93.4234 152.963C94.8835 151.722 96.2177 150.342 97.3768 148.819C99.1603 146.48 100.49 143.824 101.447 141.046C102.579 137.744 103.199 134.267 103.374 130.786L103.388 130.472C103.361 130.481 103.338 130.49 103.312 130.499C101.465 131.144 99.6679 131.924 97.9384 132.838C97.7272 132.95 97.5161 133.062 97.305 133.178C97.3948 137.327 96.8108 141.503 95.2789 145.369C93.7605 149.218 91.3706 152.681 88.5224 155.674L90.5394 154.442C91.411 153.944 93.4234 152.963 93.4234 152.963ZM373.923 155.047C374.25 154.527 374.551 153.998 374.839 153.461C376.29 150.723 377.26 147.672 377.274 144.558C377.287 141.942 376.649 139.348 375.648 136.942C375.423 136.413 375.185 135.889 374.929 135.378L374.039 133.752L373.037 135.311C372.745 135.804 372.471 136.31 372.211 136.821C371.407 138.416 370.769 140.109 370.391 141.861C370.904 142.6 371.362 143.375 371.757 144.182C373.271 147.251 373.909 150.696 373.931 154.097C373.936 154.41 373.932 154.728 373.923 155.047ZM85.8674 154.495C86.9231 153.438 87.9159 152.323 88.8279 151.14C90.4766 149.007 91.8647 146.659 92.8306 144.142C93.8818 141.395 94.4164 138.474 94.5512 135.539C94.7084 132.054 94.3267 128.546 93.518 125.15L93.4415 124.849C93.4191 124.867 93.4012 124.881 93.3787 124.899C91.7884 126.032 90.2789 127.282 88.8772 128.644C87.7676 129.72 86.7207 130.862 85.7594 132.072C83.886 134.428 82.3273 137.049 81.3075 139.89C80.3461 142.569 79.8654 145.405 79.7531 148.241C79.7171 149.106 79.7172 149.966 79.7487 150.826C80.2923 150.275 80.8582 149.742 81.4377 149.227L82.9831 147.936L83.0325 148.03L83.0774 147.914C83.9355 145.719 84.8161 143.537 85.7865 141.382C86.7479 139.222 87.7677 137.085 88.9447 134.997L88.9535 135.002C88.6076 137.367 88.1 139.684 87.534 141.978C86.9814 144.271 86.3391 146.538 85.6697 148.797C85.3822 149.737 85.0856 150.674 84.7846 151.606C84.8475 151.749 84.9058 151.892 84.9642 152.04C85.2921 152.847 85.5934 153.667 85.8674 154.495ZM371.173 153.053C371.025 150.145 370.364 147.229 368.936 144.675C367.655 142.39 365.827 140.441 363.765 138.837C363.311 138.483 362.844 138.147 362.368 137.824L360.796 136.843L360.692 138.689C360.679 139.263 360.688 139.84 360.715 140.414C360.845 143.174 361.443 145.952 362.727 148.42C363.204 149.343 363.774 150.217 364.416 151.032L365.216 148.586L365.378 148.689C365.203 148.259 365.028 147.833 364.866 147.399C364.291 145.929 363.774 144.433 363.401 142.851L363.41 142.847C364.551 144.003 365.54 145.244 366.483 146.512C367.431 147.775 368.298 149.083 369.138 150.405C369.489 150.974 369.834 151.538 370.171 152.116L371.173 153.053ZM85.1844 128.537C84.4162 126.391 83.4459 124.321 82.3138 122.345L82.1564 122.076C82.1384 122.099 82.125 122.121 82.1071 122.139C80.8627 123.729 79.735 125.41 78.7512 127.17C78.0279 128.461 77.3767 129.791 76.8241 131.162C75.7235 133.873 74.9775 136.745 74.7753 139.666C74.5732 142.587 74.9146 145.53 75.6289 148.366C76.0063 149.863 76.4872 151.337 77.0577 152.771C77.0892 152.847 77.1159 152.918 77.1474 152.995C77.1519 153.03 77.1114 152.542 77.089 152.269C76.7565 147.511 77.2687 142.65 79.0297 138.192C80.4404 134.616 82.6012 131.382 85.1844 128.537ZM357.952 138.971C355.98 137.735 354.178 136.216 352.718 134.401C351.968 133.47 351.317 132.475 350.75 131.431C350.75 131.431 349.731 131.211 349.232 131.153C348.536 131.073 347.835 131.032 347.129 131.01C346.869 131.005 346.604 131.005 346.339 131.005C345.849 131.014 345.364 131.032 344.874 131.064L343.028 131.256C343.576 132.116 344.182 132.941 344.834 133.729C346.815 136.113 349.264 138.178 352.139 139.388C353.999 140.172 355.989 140.593 357.997 140.745L357.952 138.971ZM362.359 117.811C362.238 118.147 361.07 124.065 361.061 124.751C361.707 125.378 362.309 126.05 362.862 126.763C364.955 129.473 366.258 132.721 366.959 136.05C367.026 136.359 367.085 136.668 367.139 136.982C367.355 136.409 367.548 135.831 367.723 135.248C368.599 132.278 368.945 129.097 368.343 126.041C367.835 123.474 366.699 121.059 365.238 118.9C364.915 118.42 364.578 117.959 364.223 117.502L363.028 116.086L362.359 117.811ZM364.075 135.687C363.361 132.824 362.125 130.056 360.189 127.802C358.486 125.813 356.303 124.263 353.967 123.098C353.45 122.838 352.929 122.6 352.395 122.381L350.661 121.727L350.921 123.559C351.025 124.124 351.146 124.684 351.285 125.244C351.964 127.923 353.1 130.53 354.848 132.694C355.804 133.882 356.928 134.921 358.158 135.822L358.495 133.855C357.889 133.013 357.3 132.157 356.743 131.274C355.89 129.944 355.086 128.577 354.403 127.103L354.416 127.094C355.759 128.008 356.977 129.025 358.149 130.087C359.331 131.135 360.441 132.246 361.528 133.375C362.022 133.909 362.512 134.442 362.997 134.984C363.361 135.208 363.72 135.445 364.075 135.687ZM96.2943 125.033C96.5458 126.135 96.9817 128.326 96.9817 128.326C100.454 126.014 103.567 123.098 105.773 119.54C107.229 117.193 108.276 114.603 108.985 111.937C109.861 108.631 110.239 105.199 110.189 101.789L110.185 101.476C110.158 101.489 110.136 101.498 110.109 101.507C108.307 102.273 106.564 103.165 104.897 104.186C103.581 104.993 102.31 105.88 101.106 106.852C98.8279 108.694 96.7838 110.844 95.189 113.308C93.5897 115.768 92.4577 118.505 91.7075 121.332C91.5593 121.897 91.4244 122.461 91.3031 123.03L93.2663 121.695L94.9959 120.665L95.2474 121.404C96.4918 119.563 97.7588 117.735 99.102 115.947C100.508 114.048 101.973 112.184 103.572 110.405L103.585 110.41C102.727 112.645 101.726 114.791 100.674 116.906C99.632 119.03 98.5089 121.1 97.3634 123.16C97.0085 123.779 96.6535 124.401 96.2896 125.02L96.2943 125.033ZM106.052 126.892C106.079 127.466 106.088 127.708 106.088 127.708C107.238 126.973 108.33 126.149 109.349 125.235C111.519 123.286 113.325 120.956 114.799 118.447C116.492 115.562 117.768 112.43 118.64 109.2L118.657 109.124C118.635 109.128 118.608 109.133 118.581 109.133C116.573 109.37 114.583 109.76 112.633 110.302C112.467 110.347 112.301 110.396 112.135 110.445C111.317 114.509 109.83 118.461 107.494 121.901C105.895 124.254 103.94 126.341 101.757 128.16C102.584 127.86 103.424 127.582 104.273 127.35L106.052 126.892ZM348.338 124.572C346.671 123.541 345.14 122.3 343.832 120.84C343.028 119.935 342.314 118.958 341.689 117.923C340.858 117.811 340.022 117.748 339.182 117.73C338.998 117.73 338.81 117.726 338.625 117.726C337.076 117.739 335.53 117.901 334.007 118.187L333.994 118.192C334.587 119.021 335.234 119.814 335.925 120.566C338.023 122.847 340.575 124.787 343.509 125.849C345.243 126.476 347.067 126.798 348.904 126.888L348.9 126.866C348.702 126.189 348.338 124.572 348.338 124.572ZM101.317 103.281C101.267 102.878 101.209 102.479 101.146 102.081C100.841 100.154 100.387 98.2546 99.7982 96.3953L99.7714 96.3191C99.7534 96.3371 99.7309 96.3504 99.713 96.3684C97.0624 98.5368 94.6768 101.046 92.7091 103.841C90.9841 106.301 89.587 108.998 88.7289 111.879C87.8933 114.688 87.5788 117.636 87.6552 120.557C87.7001 122.103 87.8485 123.644 88.0911 125.168C88.1046 125.248 88.118 125.329 88.1314 125.409L88.2348 124.679C88.9177 120.15 90.3866 115.692 92.8934 111.825C95.0902 108.447 98.0283 105.602 101.317 103.281ZM359.345 118.268C359.614 116.077 359.551 113.846 359.012 111.7C358.374 109.16 357.116 106.807 355.544 104.72C355.198 104.263 354.834 103.815 354.461 103.38L353.194 102.022L352.615 103.779C352.453 104.33 352.309 104.89 352.183 105.45C351.802 107.193 351.608 108.994 351.676 110.781L351.716 110.817C352.377 111.4 352.997 112.022 353.572 112.695C355.8 115.293 357.274 118.474 358.141 121.763C358.208 122.013 358.271 122.264 358.329 122.511L358.405 122.569C358.441 122.457 358.522 122.134 358.522 122.134C358.693 120.826 358.976 119.531 359.345 118.268ZM341.132 108.299C341.231 108.904 341.348 109.505 341.487 110.1C341.617 110.66 341.766 111.216 341.936 111.767C342.75 114.41 344.021 116.951 345.872 119.03C346.478 119.706 347.143 120.329 347.848 120.898L347.812 118.192L348.253 118.29C348.064 118.035 347.875 117.775 347.691 117.511C346.775 116.229 345.899 114.903 345.144 113.465L345.153 113.456C346.541 114.303 347.812 115.257 349.039 116.252C350.27 117.242 351.433 118.295 352.579 119.37L352.835 119.616C353.203 119.76 353.567 119.912 353.931 120.069C354.255 120.217 354.578 120.365 354.902 120.521C354.034 118.075 352.754 115.759 350.957 113.868C349.151 111.969 346.896 110.535 344.502 109.487C343.976 109.254 343.441 109.043 342.898 108.85L341.128 108.286L341.132 108.299ZM328.971 105.392C328.378 105.401 327.785 105.427 327.192 105.477L324.883 105.777C325.463 106.615 326.096 107.421 326.774 108.183C328.832 110.499 331.352 112.479 334.272 113.595C336.132 114.303 338.113 114.657 340.103 114.751L339.313 112.524C337.588 111.44 336.011 110.132 334.677 108.591C333.895 107.686 333.212 106.713 332.61 105.687L332.583 105.638C332.188 105.575 330.13 105.248 328.971 105.392ZM244.554 110.298C238.215 114.742 229.455 113.228 224.998 106.902C220.542 113.228 211.781 114.742 205.442 110.298C200.123 106.574 198.071 99.6927 200.483 93.6668C201.84 100.844 208.776 105.571 215.973 104.209C219.765 103.501 223.066 101.171 224.998 97.8379C226.93 101.171 230.232 103.501 234.019 104.209C241.22 105.571 248.157 100.844 249.513 93.6668C251.926 99.6927 249.873 106.574 244.554 110.298ZM350.355 101.861C350.288 101.135 350.176 100.419 350.009 99.7061C349.416 97.1569 348.194 94.7823 346.662 92.6721C346.321 92.2061 345.971 91.7537 345.598 91.3146L344.358 89.9347L343.747 91.682C343.576 92.2331 343.423 92.7842 343.288 93.3442C342.88 95.0826 342.651 96.8791 342.687 98.6667C343.351 99.2671 343.98 99.9167 344.555 100.611C346.474 102.932 347.799 105.692 348.648 108.568C348.756 108.635 348.864 108.703 348.971 108.77C349.066 107.085 349.353 105.405 349.78 103.779C349.942 103.156 350.355 101.861 350.355 101.861ZM332.192 96.0055C332.278 96.6148 332.385 97.2151 332.516 97.8155C332.632 98.3755 332.776 98.9311 332.933 99.4822C333.706 102.143 334.928 104.706 336.748 106.812C337.255 107.403 337.808 107.95 338.392 108.461C338.311 107.919 338.248 107.367 338.208 106.821L338.104 104.899L338.324 104.939C337.525 103.761 336.77 102.547 336.114 101.238L336.123 101.229C337.498 102.099 338.751 103.075 339.96 104.092C340.553 104.59 341.132 105.096 341.703 105.62L344.308 106.467C344.578 106.57 344.847 106.673 345.112 106.785C344.326 104.944 343.28 103.219 341.918 101.74C340.148 99.8092 337.916 98.3352 335.539 97.2509C335.018 97.009 334.483 96.7895 333.944 96.5834L332.188 95.9921L332.192 96.0055ZM120.208 106.265L120.387 106.261C121.744 105.732 123.056 105.1 124.305 104.357C126.906 102.806 129.192 100.768 131.147 98.4651C132.153 97.2823 133.074 96.0278 133.918 94.7196C135.01 93.026 135.967 91.243 136.785 89.4016L136.821 89.3299L134.889 89.2985C134.175 89.3119 133.46 89.3344 132.75 89.3836C131.888 89.4374 131.025 89.5225 130.167 89.6345C128.739 93.5324 126.663 97.2062 123.828 100.253C121.187 103.089 117.961 105.329 114.493 107.045L117.211 106.565C118.204 106.422 119.206 106.315 120.208 106.265ZM112.853 104.814C113.828 104.348 114.785 103.837 115.71 103.281C117.952 101.937 120.041 100.316 121.825 98.4024C123.887 96.1892 125.509 93.5906 126.739 90.8353C127.373 89.4195 127.903 87.9544 128.343 86.467C128.918 84.5315 129.336 82.5557 129.606 80.5575L129.615 80.4768C129.588 80.4858 129.561 80.4903 129.538 80.4993C127.642 80.9786 125.778 81.5924 123.977 82.3496C122.548 82.9499 121.16 83.6309 119.821 84.4105C117.287 85.88 114.938 87.6946 112.984 89.8854C111.079 92.018 109.569 94.4777 108.406 97.0807C108.015 97.9633 107.66 98.8549 107.341 99.7644C107.584 99.6479 107.826 99.5359 108.073 99.4239C108.985 99.0117 109.92 98.6264 110.868 98.2994L111.676 98.0351C113.226 96.3594 114.803 94.6972 116.443 93.0888C118.127 91.4311 119.857 89.8092 121.717 88.2949L121.726 88.3039C120.536 90.3783 119.215 92.3495 117.854 94.2805C116.497 96.216 115.073 98.0932 113.622 99.9525C113.379 100.257 113.141 100.557 112.898 100.862C112.916 101.332 112.925 101.803 112.925 102.273C112.93 103.12 112.903 103.967 112.853 104.814ZM330.755 101.633C328.302 100.298 326.051 98.5636 324.286 96.3997C323.517 95.4588 322.848 94.4464 322.273 93.3846C321.779 93.295 321.28 93.2232 320.777 93.1695C320.081 93.0933 319.38 93.0574 318.674 93.044L316.653 93.0933L314.573 93.3173C315.13 94.173 315.741 94.9929 316.397 95.7725C318.392 98.147 320.853 100.195 323.737 101.391C325.445 102.094 327.255 102.497 329.092 102.668L331.173 102.735C331.024 102.372 330.885 102.004 330.755 101.633ZM120.576 80.907C120.643 78.631 120.495 76.3505 120.163 74.1014L120.118 73.7967C120.095 73.8102 120.073 73.8236 120.05 73.8371C118.365 74.8272 116.753 75.9428 115.234 77.1749C114.035 78.1471 112.894 79.1954 111.829 80.3155C109.758 82.5019 107.974 84.9795 106.712 87.7169C105.517 90.3021 104.789 93.0888 104.43 95.9069C104.223 97.5198 104.133 99.1506 104.151 100.777L104.367 100.069C105.796 95.5171 108.051 91.1757 111.317 87.6632C113.941 84.8496 117.13 82.6184 120.576 80.907ZM334.313 93.8191C333.634 92.354 332.776 90.9741 331.716 89.7465C329.995 87.7707 327.807 86.2384 325.462 85.0825C324.946 84.8316 324.42 84.5942 323.886 84.3746L322.147 83.7385L322.421 85.5664C322.524 86.1309 322.65 86.6909 322.794 87.2465C323.49 89.9257 324.645 92.5242 326.402 94.6792C327.363 95.8531 328.486 96.8792 329.717 97.7663C329.524 96.7806 329.385 95.777 329.313 94.7734V94.7689C328.962 94.2671 328.621 93.7609 328.288 93.2456C327.426 91.9195 326.613 90.5574 325.925 89.0879L325.934 89.0789C327.282 89.9839 328.508 90.9965 329.69 92.0449C329.973 92.2958 330.247 92.5467 330.521 92.7976C330.521 92.7976 330.404 92.7751 330.997 92.8871C331.667 93.0216 332.327 93.1918 332.983 93.3889C333.428 93.5189 333.872 93.6667 334.313 93.8191ZM352.26 97.6183L352.228 97.5915L352.26 97.6228V97.6183ZM339.524 96.2922C340.207 93.5682 340.418 90.7009 339.856 87.9365C339.335 85.3738 338.181 82.9679 336.703 80.8129C336.379 80.3425 336.038 79.8764 335.678 79.4284L334.479 78.0171L333.819 79.7466C333.63 80.2887 333.464 80.8397 333.315 81.3952C332.857 83.1201 332.579 84.9078 332.57 86.6955C332.57 86.6955 333.832 87.9991 334.38 88.6936C335.93 90.6739 337.058 92.9499 337.83 95.3378C338.405 95.6335 338.971 95.9517 339.524 96.2922ZM320.561 89.3522C318.297 88.2545 316.199 86.8119 314.456 84.9929C313.634 84.1282 312.897 83.1919 312.246 82.1973L312.214 82.1479L310.417 82.045C310.273 82.0405 310.13 82.0404 309.986 82.0404C308.158 82.0539 306.334 82.2734 304.546 82.6766H304.532C305.152 83.4876 305.83 84.2581 306.545 84.9884C308.719 87.1972 311.334 89.0476 314.303 90.0108C314.811 90.1721 315.323 90.3111 315.84 90.4276C316.505 90.3693 317.174 90.3334 317.839 90.32C318.131 90.3155 318.427 90.3155 318.719 90.32C319.461 90.3334 320.202 90.3738 320.943 90.45L320.561 89.3522ZM324.218 81.579C323.432 80.1946 322.479 78.9042 321.343 77.7841C319.474 75.9472 317.17 74.5897 314.739 73.622C314.205 73.4114 313.661 73.2143 313.113 73.0396L311.329 72.5378L311.747 74.3389C311.895 74.8944 312.062 75.4454 312.25 75.9875C313.158 78.604 314.51 81.0996 316.433 83.1113C317.403 84.1238 318.495 84.9974 319.676 85.7456L319.663 85.674C319.51 84.8003 319.398 83.9177 319.335 83.0306V82.9679C318.949 82.4974 318.567 82.0225 318.198 81.5341C317.237 80.2841 316.32 78.9894 315.516 77.5781L315.525 77.5692C316.945 78.3667 318.243 79.2761 319.501 80.2304L319.569 80.2842L321.037 80.5978C321.707 80.7502 322.363 80.9428 323.01 81.1534C323.419 81.2878 323.818 81.4267 324.218 81.579ZM329.533 84.2806C330.103 81.337 330.148 78.2457 329.317 75.3424C328.594 72.829 327.25 70.5172 325.611 68.4876C325.251 68.0396 324.874 67.6049 324.483 67.1838L323.176 65.8711L322.65 67.6498C322.506 68.2008 322.385 68.7654 322.282 69.3299C321.959 71.0861 321.824 72.8917 321.954 74.6748C322.646 75.2438 323.306 75.8577 323.913 76.5253C325.741 78.5145 327.107 80.88 328.086 83.389C328.576 83.6712 329.061 83.967 329.533 84.2806ZM132.512 78.8639C132.458 79.8092 132.346 80.7502 132.202 81.6821C132.148 82.0495 132.086 82.4167 132.023 82.7841C133.074 81.9552 134.04 81.0145 134.871 79.9571C136.493 77.8917 137.589 75.45 138.276 72.9276C138.429 72.372 138.559 71.8075 138.671 71.243L138.972 69.406C138.963 69.4105 138.959 69.4105 138.95 69.4105C138.366 69.5987 137.782 69.8048 137.211 70.0288C136.677 70.2394 136.147 70.4723 135.626 70.7187C133.114 71.915 130.769 73.5458 128.981 75.6874C128.294 76.5073 127.696 77.3899 127.18 78.3174L127.265 78.2949C128.361 77.9724 129.475 77.69 130.603 77.475L131.115 77.3854C132.225 76.3281 133.375 75.3021 134.651 74.3792L134.66 74.3836C134.044 75.8352 133.312 77.1928 132.526 78.51L132.512 78.8639Z" fill="#4E4E4E"/>
</svg>
