<svg width="450" height="450" viewBox="0 0 450 450" fill="none" xmlns="http://www.w3.org/2000/svg">
<path fill-rule="evenodd" clip-rule="evenodd" d="M55.9952 385.673C38.9487 381.545 22.5171 370.682 9.72211 348.74C-12.8163 310.088 8.8718 271.942 24.0368 245.828C-22.4135 342.698 40.3606 372.339 114.686 307.098C114.686 307.098 205.699 215.975 231.132 190.51C242.891 178.737 260.411 170.933 277.841 172.963C303.853 175.994 321.337 190.829 331.856 195.339C338.756 198.298 345.016 193.973 342.641 188.239C340.222 182.402 335.073 176.174 325.325 166.413C296.411 137.457 260.927 103.693 260.927 103.693C240.295 83.8372 232.076 65.7594 233.203 47.9943C234.991 19.8394 261.145 3.08447 278.791 2.34375C268.071 15.105 268.998 26.0065 275.278 33.9497C275.278 33.9497 374.372 133.182 376.817 135.63C389.353 148.184 405.473 200.549 359.636 214.23C354.116 215.878 348.614 215.772 342.357 213.962C326.051 209.242 301.363 204.754 284.537 221.302C254.175 251.163 156.788 349.625 148.301 357.728C139.815 365.832 114.218 385.963 77.6281 387.629C86.3918 418.653 128.773 414.572 178.459 370.96C178.459 370.96 269.472 279.836 294.905 254.373C306.665 242.598 324.069 236.561 341.613 236.826C354.478 237.02 363.845 240.446 370.99 245.597C385.498 256.058 390.674 266.02 392.762 277.128C375.879 267.33 365.137 268.616 348.311 285.164C323.955 309.118 259.828 373.598 235.408 398.173C235.54 400.755 236.381 403.077 238.503 404.7C245.994 410.428 263.224 410.539 271.362 402.391C300.311 373.408 344.235 329.43 360.695 312.951C372.454 301.176 387.714 294.212 405.259 294.477C418.123 294.671 422.942 297.583 430.087 302.734C444.596 313.195 447.912 326.79 450 337.898C434.762 327.135 426.397 331.648 414.1 343.742C396.31 361.239 357.299 400.359 328.044 429.755C317.868 439.98 291.348 453.141 261.36 442.517C244.466 436.532 233.04 418.55 225.752 407.99C223.727 415.289 125.727 492.643 69.1484 409.298C63.6146 401.147 59.6397 393.66 55.9952 385.673ZM91.818 200.165C88.9887 195 87.379 189.072 87.379 182.77C87.379 162.764 103.599 146.522 123.577 146.522C143.555 146.522 159.775 162.764 159.775 182.77C159.775 202.776 143.555 219.018 123.577 219.018C117.284 219.018 111.364 217.406 106.206 214.573C109.035 219.738 110.645 225.667 110.645 231.968C110.645 251.974 94.4252 268.217 74.4471 268.217C54.469 268.217 38.2493 251.974 38.2493 231.968C38.2493 211.962 54.469 195.72 74.4471 195.72C80.7405 195.72 86.6599 197.332 91.818 200.165Z" fill="#00BBE6"/>
</svg>
