<svg width="450" height="450" viewBox="0 0 450 450" fill="none" xmlns="http://www.w3.org/2000/svg">
<path d="M63.0154 0C25.2233 0 0 25.2185 0 63.0034V386.997C0 424.782 25.2233 450 63.0154 450H386.985C424.777 450 450 424.782 450 386.997V63.0034C450 25.2185 424.777 0 386.985 0L63.0154 0Z" fill="#752D1E"/>
<path d="M18.9816 63.8583C18.9816 36.8446 36.9371 18.8925 63.9559 18.8925H386.13C413.148 18.8925 431.104 36.8446 431.104 63.8583V121.476C431.104 184.479 408.617 221.324 369.029 221.324C300.627 221.324 217.861 135.838 148.518 135.838C95.4209 135.838 49.506 170.887 18.9816 247.397V63.8583V63.8583ZM431.189 386.056C431.189 413.07 413.234 431.022 386.215 431.022H63.9559C36.9371 431.022 18.9816 413.07 18.9816 386.056V328.438C18.9816 265.435 41.4687 228.59 81.0564 228.59C149.458 228.59 232.225 314.077 301.568 314.077C354.665 314.077 400.58 279.027 431.189 202.517V386.056ZM63.0154 0C25.2233 0 0 25.2185 0 63.0034V386.997C0 424.782 25.2233 450 63.0154 450H386.985C424.777 450 450 424.782 450 386.997V63.0034C450 25.2185 424.777 0 386.985 0H63.0154V0Z" fill="#D99D2A"/>
</svg>
