<svg width="450" height="450" viewBox="0 0 450 450" fill="none" xmlns="http://www.w3.org/2000/svg">
<path fill-rule="evenodd" clip-rule="evenodd" d="M420.4 450H232.118V265.862C234.638 236.185 239.102 208.853 250.051 189.344C256.56 192.997 268.176 209.147 271.641 240.397C280.135 225.059 290.478 207.864 309.245 196.959C310.51 230.807 308.495 243.686 299.01 267.249C285.693 300.33 249.047 308.032 249.047 308.032V433.071H403.47C403.47 331.304 405.39 229.519 403.455 127.77C403.422 126.749 403.365 125.732 403.28 124.714C402.812 119.8 401.651 114.989 399.726 110.439C394.991 99.2437 385.941 90.1181 374.828 85.2515L374.813 85.2449C378.167 80.1065 381.596 75.4818 384.988 71.3371C391.061 74.4253 396.641 78.4715 401.463 83.294C408.278 90.1078 413.542 98.4346 416.745 107.526C419.178 114.436 420.354 121.691 420.4 129.01V450ZM217.883 450H29.6011V129.01C29.647 121.691 30.8226 114.436 33.2564 107.526C36.4589 98.4346 41.723 90.1078 48.5376 83.294C53.3601 78.4715 58.9401 74.4253 65.0133 71.3371C68.4051 75.4818 71.8336 80.1065 75.1879 85.2449L75.1729 85.2515C64.0598 90.1181 55.0101 99.2437 50.2748 110.439C48.3501 114.989 47.1886 119.8 46.7208 124.714C46.6364 125.732 46.5792 126.749 46.5464 127.77C44.6104 229.519 46.5304 331.304 46.5304 433.071H200.954V308.032C200.954 308.032 164.308 300.33 150.991 267.249C141.506 243.686 139.491 230.807 140.756 196.959C159.523 207.864 169.866 225.059 178.36 240.397C181.825 209.147 193.441 192.997 199.95 189.344C210.899 208.853 215.363 236.185 217.883 265.862V450ZM296.153 11.5181C295.997 13.0584 295.786 14.594 295.517 16.1231C295.14 18.2653 294.658 20.3868 294.077 22.4821C289.302 39.7284 278.202 54.3993 266.159 67.2928C263.923 69.6862 261.638 72.0337 259.332 74.3587C257.16 76.5478 254.966 78.7162 252.775 80.8856C256.355 91.3912 260.487 101.707 265.123 111.79C267.013 115.9 268.991 119.966 271.042 123.996C276.859 114.997 283.29 106.395 290.249 98.2631C295.552 92.0662 301.172 86.129 307.095 80.5115C302.608 71.9906 300.034 62.5528 298.396 53.0868C296.027 39.3862 295.567 25.4071 296.153 11.5181ZM153.848 11.5181C154.004 13.0584 154.215 14.594 154.484 16.1231C154.86 18.2653 155.343 20.3868 155.924 22.4821C160.699 39.7284 171.799 54.3993 183.842 67.2928C186.078 69.6862 188.363 72.0337 190.669 74.3587C192.841 76.5478 195.035 78.7162 197.226 80.8856C193.646 91.3912 189.514 101.707 184.878 111.79C182.988 115.9 181.01 119.966 178.959 123.996C173.142 114.997 166.71 106.395 159.752 98.2631C154.449 92.0662 148.829 86.129 142.905 80.5115C147.393 71.9906 149.967 62.5528 151.605 53.0868C153.974 39.3862 154.434 25.4071 153.848 11.5181Z" fill="#B27D53"/>
<path fill-rule="evenodd" clip-rule="evenodd" d="M402.952 42.7049C373.211 64.138 338.423 110.977 334.323 160.266C330.985 200.412 324.125 217.954 319.003 225.465C321.272 211.929 321.258 193.523 318.717 178.684C313.032 181.199 303.599 186.996 294.962 195.583C293.889 192.071 285.075 174.03 256.042 182.031C257.439 177.535 258.979 173.089 260.693 168.7C264.793 158.203 269.756 148.045 275.465 138.321C275.503 138.259 275.54 138.196 275.576 138.132C281.722 127.686 288.729 117.744 296.449 108.422C303.014 100.492 310.117 92.9896 317.721 86.038C317.949 85.8618 318.163 85.6659 318.364 85.4521C323.904 80.429 329.708 75.6984 335.76 71.309C352.708 59.0193 371.844 49.2187 392.35 44.5818C395.857 43.7896 399.392 43.1727 402.952 42.7049ZM47.0469 42.7049C76.7881 64.138 111.576 110.977 115.676 160.266C119.014 200.412 125.874 217.954 130.996 225.465C128.727 211.929 128.741 193.523 131.282 178.684C136.966 181.199 146.399 186.996 155.037 195.583C156.11 192.071 164.923 174.03 193.957 182.031C192.56 177.535 191.02 173.089 189.306 168.7C185.206 158.203 180.243 148.045 174.534 138.321C174.495 138.259 174.459 138.196 174.423 138.132C168.277 127.686 161.27 117.744 153.55 108.422C146.984 100.492 139.882 92.9896 132.278 86.038C132.05 85.8618 131.835 85.6659 131.635 85.4521C126.095 80.429 120.291 75.6984 114.238 71.309C97.2912 59.0193 78.155 49.2187 57.6491 44.5818C54.1419 43.7896 50.6066 43.1727 47.0469 42.7049ZM242.979 186.432C239.723 184.052 234.571 179.775 224.88 179.805C215.188 179.836 210.162 184.135 207.02 186.432C204.601 171.207 194.601 152.944 185.815 135.286C189.76 127.828 201.554 101.897 204.702 92.0793C213.059 66.0102 220.352 34.0546 224.999 16.8243C229.466 34.1024 236.763 67.1596 245.297 92.0793C248.637 101.833 260.239 127.828 264.184 135.286C255.398 152.944 245.397 171.207 242.979 186.432ZM308.725 30.2568C310.974 12.4049 331.141 11.0877 343.577 15.2521C361.448 21.2371 367.612 37.9302 353.258 47.2002C346.331 51.674 338.889 55.3237 332.153 60.0243C326.495 63.973 321.038 68.2049 315.79 72.6843L315.705 72.4996C309.661 53.069 307.468 40.2252 308.725 30.2568ZM141.274 30.2568C139.025 12.4049 118.858 11.0877 106.422 15.2521C88.5509 21.2371 82.3869 37.9302 96.7409 47.2002C103.668 51.674 111.11 55.3237 117.846 60.0243C123.504 63.973 128.961 68.2049 134.209 72.6843L134.293 72.4996C140.338 53.069 142.53 40.2252 141.274 30.2568ZM238.669 21.9262C236.598 7.82429 251.357 -1.3754 261.914 0.168665C268.853 1.18304 287.683 5.99148 282.39 22.1427C280.327 28.4399 277.257 34.3921 273.653 39.9459C267.343 49.6677 259.432 58.1859 251.319 66.4087C250.522 67.2074 249.723 68.0043 248.924 68.8002C245.787 58.2224 243.198 47.4834 241.137 36.644C240.207 31.7549 239.392 26.848 238.669 21.9262ZM211.33 21.9262C213.401 7.82429 198.642 -1.3754 188.084 0.168665C181.146 1.18304 162.315 5.99148 167.608 22.1427C169.672 28.4399 172.742 34.3921 176.346 39.9459C182.655 49.6677 190.567 58.1859 198.68 66.4087C199.477 67.2074 200.276 68.0043 201.074 68.8002C204.212 58.2224 206.801 47.4834 208.862 36.644C209.792 31.7549 210.607 26.848 211.33 21.9262Z" fill="black"/>
</svg>
