<svg width="450" height="450" viewBox="0 0 450 450" fill="none" xmlns="http://www.w3.org/2000/svg">
<path fill-rule="evenodd" clip-rule="evenodd" d="M240.666 443.511C236.511 447.666 230.875 450.001 225 450C219.124 449.999 213.489 447.666 209.334 443.511C192.664 426.841 168.665 402.842 168.665 402.842C168.665 402.842 194.365 402.842 210.907 402.842C219.639 402.842 228.013 399.373 234.187 393.199C261.466 365.921 337.215 290.171 337.215 290.171L337.671 346.507C337.671 346.507 271.624 412.553 240.666 443.511ZM89.2997 340.807C95.4628 346.969 103.822 350.431 112.537 350.431C151.093 350.431 258.264 350.431 258.264 350.431L218.752 390.588H59.4122V310.918C59.4122 310.918 77.6034 329.109 89.2997 340.807ZM390.588 390.588H310.918C310.918 390.588 329.109 372.397 340.807 360.7C346.969 354.537 350.431 346.178 350.431 337.462C350.431 298.907 350.431 191.736 350.431 191.736L390.588 231.248V390.588ZM6.48938 240.666C2.33438 236.511 -0.000937218 230.875 2.82157e-07 225C0.000937782 219.124 2.33438 213.489 6.48938 209.334C23.1591 192.664 47.1581 168.665 47.1581 168.665C47.1581 168.665 47.1581 194.365 47.1581 210.907C47.1581 219.639 50.6269 228.013 56.8013 234.187C84.0788 261.466 159.829 337.215 159.829 337.215L103.493 337.671C103.493 337.671 37.4475 271.624 6.48938 240.666ZM225 121.719C282.003 121.719 328.281 167.997 328.281 225C328.281 282.003 282.003 328.281 225 328.281C167.997 328.281 121.719 282.003 121.719 225C121.719 167.997 167.997 121.719 225 121.719ZM443.511 209.334C447.666 213.489 450 219.125 450 225C450 230.876 447.666 236.511 443.511 240.666C426.841 257.336 402.842 281.335 402.842 281.335C402.842 281.335 402.842 255.635 402.842 239.093C402.842 230.361 399.373 221.987 393.199 215.813C365.921 188.534 290.171 112.785 290.171 112.785L346.507 112.329C346.507 112.329 412.553 178.376 443.511 209.334ZM59.4122 59.4122H139.082C139.082 59.4122 120.891 77.6034 109.193 89.2997C103.031 95.4628 99.5691 103.822 99.5691 112.537C99.5691 151.093 99.5691 258.264 99.5691 258.264L59.4122 218.752V59.4122ZM281.335 47.1581C281.335 47.1581 255.635 47.1581 239.093 47.1581C230.361 47.1581 221.987 50.6269 215.813 56.8013C188.534 84.0788 112.785 159.829 112.785 159.829L112.329 103.493C112.329 103.493 178.376 37.4475 209.334 6.48938C213.489 2.33438 219.125 0 225 0C230.876 0 236.511 2.33438 240.666 6.48938C257.336 23.1591 281.335 47.1581 281.335 47.1581ZM390.588 59.4122V139.082C390.588 139.082 372.397 120.891 360.7 109.193C354.537 103.031 346.178 99.5691 337.462 99.5691C298.907 99.5691 191.736 99.5691 191.736 99.5691L231.248 59.4122H390.588Z" fill="#00194A"/>
</svg>
