<svg width="450" height="450" viewBox="0 0 450 450" fill="none" xmlns="http://www.w3.org/2000/svg">
<path d="M225.527 0L275.169 49.6989L150.656 174.86C114.058 211.664 51.6744 196.461 28.0245 142.747C29.6376 142.891 31.248 143.042 32.8549 143.192C55.9334 145.354 78.2789 147.447 97.456 127.897L225.527 0Z" fill="#029A4C"/>
<path d="M49.6426 175.404L0 225.111L127.752 353.319C147.283 372.528 145.188 394.904 143.026 418.004C142.876 419.608 142.725 421.216 142.582 422.826C196.243 399.156 211.428 336.709 174.662 300.059L49.6426 175.404Z" fill="#029A4C"/>
<path d="M175.146 400.305L224.796 450L352.855 322.107C372.045 302.551 394.399 304.648 417.476 306.813C419.075 306.963 420.678 307.113 422.283 307.257C398.644 253.539 336.26 238.336 299.655 275.14L175.146 400.305Z" fill="#029A4C"/>
<path d="M400.357 274.487L450 224.78L322.248 96.5757C302.719 77.3686 304.811 54.9925 306.97 31.898C307.121 30.2916 307.271 28.6818 307.415 27.0693C253.761 50.7347 238.576 113.19 275.338 149.836L400.357 274.487Z" fill="#029A4C"/>
<path fill-rule="evenodd" clip-rule="evenodd" d="M154.688 225.015C154.688 186.187 186.171 154.688 225.005 154.688C263.825 154.688 295.312 186.187 295.312 225.015C295.312 263.853 263.825 295.312 225.002 295.312C186.171 295.312 154.688 263.835 154.688 225.015" fill="#EB8C30"/>
</svg>
