<svg width="450" height="450" viewBox="0 0 450 450" fill="none" xmlns="http://www.w3.org/2000/svg">
<path fill-rule="evenodd" clip-rule="evenodd" d="M0.0903311 213.483C2.79271 190.536 50.5024 136.195 102.634 89.626C156.547 41.4669 235.957 0.207515 259.241 0.00055855C281.67 -0.198053 327.222 52.6026 373.925 107.351C386.72 122.35 404.528 143.725 421.056 163.967C435.49 181.642 449.6 198.158 449.986 212.648C450.697 239.182 423.897 241.991 300.073 348.896C260.002 383.491 221.077 419.702 196.886 441.494C190.17 447.562 181.247 450.603 172.215 449.9C163.183 449.198 154.838 444.813 149.146 437.78C127.639 411.283 95.4161 371.369 76.2536 346.599C45.3151 306.603 -2.35285 234.242 0.0903311 213.483ZM149.467 423.56C149.467 423.56 150.036 423.907 150.989 424.492C163.248 431.992 178.916 430.956 190.075 421.905C206.939 408.199 231.457 388.341 246.85 376.171C285.899 345.297 405.787 251.796 405.787 251.796C374.029 276.548 243.977 394.508 187.638 437.592C181.774 441.293 174.641 442.417 167.921 440.701C161.198 438.985 155.482 434.581 152.119 428.524C151.225 426.907 150.34 425.251 149.467 423.56ZM145.173 403.459C145.173 403.459 146.067 404.006 147.497 404.881C159.379 412.153 174.509 411.422 185.631 403.038C237.228 364.154 379.315 257.069 379.315 257.069C347.768 281.657 236.032 378.989 183.454 417.789C177.6 421.471 170.484 422.587 163.78 420.878C157.074 419.169 151.368 414.785 147.997 408.753C147.047 407.029 146.104 405.263 145.173 403.459ZM140.413 383.372C140.413 383.372 141.546 384.065 143.296 385.136C154.899 392.236 169.631 391.719 180.705 383.825C228.451 349.79 353.286 260.807 353.286 260.807C321.971 285.213 227.532 363.504 178.799 398.034C172.952 401.688 165.862 402.791 159.18 401.089C152.496 399.385 146.803 395.025 143.427 389.022C142.418 387.181 141.408 385.3 140.413 383.372ZM136.699 364.503C136.699 364.503 137.969 365.279 139.897 366.459C151.338 373.462 165.844 373.063 176.884 365.444C219.308 336.166 321.336 265.753 321.336 265.753C290.14 290.065 217.62 348.917 174.665 378.372C168.926 381.949 161.989 383.075 155.412 381.498C148.835 379.921 143.168 375.772 139.684 369.984C138.701 368.223 137.684 366.412 136.699 364.503ZM17.3565 186.722C17.3565 186.722 15.8748 190.382 14.1056 194.753C10.3647 203.988 10.8948 214.399 15.5521 223.21C21.6224 234.634 30.8165 251.698 40.6611 269.056C57.541 298.819 112.405 379.218 112.405 379.218C92.4328 352.838 71.792 326.309 52.163 298.048C37.1845 276.481 22.8198 253.137 7.99011 226.087C5.3797 221.317 4.38471 215.834 5.15228 210.454C5.98005 204.482 7.44997 198.912 17.3565 186.722ZM133.151 344.48C133.151 344.48 135.117 345.518 137.873 346.975C148.526 352.603 161.374 352.16 171.613 345.81C207.66 323.457 290.121 272.322 290.121 272.322C259.355 296.3 208.337 334.704 171.206 358.749C165.491 362.274 158.603 363.378 152.069 361.814C145.534 360.252 139.895 356.153 136.4 350.424C135.331 348.518 134.224 346.557 133.151 344.48ZM28.6743 179.479C28.6743 179.479 27.0941 183.843 25.3148 188.757C22.1559 197.482 22.7261 207.121 26.8917 215.414C32.7079 226.86 41.8434 244.354 51.979 261.812C65.9073 285.801 103.655 346.132 103.655 346.132C83.6835 319.752 83.1099 319.064 63.4809 290.803C48.4271 269.127 35.1895 246.778 20.4702 219.732C18.1658 215.497 17.1274 210.692 17.4769 205.885C17.9401 198.916 17.925 192.705 28.6743 179.479ZM128.014 323.884C128.014 323.884 129.316 324.759 131.261 326.064C141.75 333.102 155.292 333.729 166.39 327.693C197.396 310.822 257.459 278.145 257.459 278.145C227.577 300.228 197.429 320.488 167.111 339.589C161.36 343.201 154.394 344.348 147.786 342.769C141.178 341.19 135.487 337.019 131.999 331.199C130.657 328.809 129.301 326.379 128.014 323.884ZM41.9003 172.265C41.9003 172.265 40.32 176.63 38.5424 181.543C35.3818 190.269 35.952 199.907 40.1193 208.2C45.9355 219.648 53.3352 236.63 63.4708 254.086C77.3991 278.075 110.06 335.752 110.06 335.752C90.6017 309.04 86.5682 301.569 68.4475 272.322C54.5192 249.839 48.295 241.217 34.1594 215.07C31.6426 210.42 29.5657 201.888 30.2463 196.648C31.0456 190.22 31.7296 184.781 41.9003 172.265ZM123.723 303.858C123.723 303.858 124.992 304.727 126.861 306.007C136.223 312.416 148.178 313.721 158.706 309.482C183.58 299.47 227.199 281.91 227.199 281.91C227.199 281.91 187.096 305.702 162.502 320.292C150.586 327.364 135.186 323.52 128.005 311.685C126.562 309.133 125.104 306.533 123.723 303.858ZM55.5008 164.738C55.5008 164.738 53.5426 168.982 52.1412 174.016C49.2867 184.272 49.5325 192.624 52.7433 200.147C57.7835 211.956 62.4775 220.828 72.0395 239.327C85.0196 264.441 112.405 319.014 112.405 319.014C92.9462 292.301 61.8939 233.688 47.7599 207.541C45.2432 202.893 43.1662 194.361 43.8451 189.12C44.6445 182.693 45.3301 177.252 55.5008 164.738ZM276.777 94.6798C275.723 90.322 272.858 86.6202 268.902 84.4989C264.945 82.3792 260.271 82.0421 256.049 83.5726C221.906 95.9516 144.38 124.058 113.435 135.277C105.828 138.035 101.261 145.801 102.555 153.776C107.344 183.25 118.634 252.739 124.406 288.268C125.289 293.705 128.512 298.487 133.226 301.354C137.938 304.221 143.673 304.889 148.922 303.18C186.16 291.06 263.091 266.018 297.235 254.904C306.81 251.786 312.376 241.844 310.011 232.072C302.029 199.073 284.723 127.531 276.777 94.6798ZM70.088 156.017C68.0411 160.213 66.4241 164.938 65.2886 170.037C63.5645 177.779 63.9742 184.711 67.1849 192.235C72.2251 204.043 75.2971 210.769 84.0062 229.682C95.7522 255.191 110.06 287.266 110.06 287.266C88.9812 255.223 76.8239 228.721 62.6882 202.574C60.1715 197.924 57.6079 186.45 58.2868 181.208C59.0878 174.78 59.9173 168.532 70.088 156.017ZM85.1634 147.858C83.1183 152.053 81.4995 156.778 80.3641 161.879C78.6399 169.621 79.9811 176.221 82.2621 184.077C86.0966 197.288 108.43 260.807 108.43 260.807C88.7271 222.287 87.5665 217.268 76.9175 193.785C74.7352 188.97 72.1465 178.437 72.8255 173.196C73.6248 166.767 74.9927 160.373 85.1634 147.858ZM309.851 254.086C309.851 254.086 310.724 252.82 312.004 250.954C318.426 241.61 320.752 228.674 317.147 217.931C308.001 190.683 298.397 156.017 298.397 156.017C298.397 156.017 322.145 207.114 325.483 216.522C330.144 229.66 329.552 242.645 317.694 249.812C315.137 251.252 312.531 252.708 309.851 254.086ZM328.174 251.796C328.174 251.796 329.047 250.53 330.327 248.665C336.749 239.321 339.555 226.005 335.052 215.606C323.57 189.087 290.121 115.606 290.121 115.606C290.121 115.606 340.492 204.098 343.895 213.483C349.9 230.049 347.876 240.355 336.017 247.522C333.46 248.962 330.854 250.418 328.174 251.796ZM346.935 249.438C346.935 249.438 347.806 248.171 349.089 246.305C355.51 236.962 358.216 222.364 353.813 213.246C339.202 182.998 290.121 92.7621 290.121 92.7621C290.121 92.7621 358.619 198.275 362.656 211.125C367.935 227.935 365.554 236.77 354.778 245.164C352.463 246.966 349.615 248.06 346.935 249.438ZM366.371 247.387C366.371 247.387 367.243 246.119 368.525 244.254C374.947 234.911 377.738 219.633 373.25 211.195C356.049 178.858 285.469 66.265 285.469 66.265C285.469 66.265 377.643 195.416 382.897 208.905C389.293 225.323 384.991 234.719 374.214 243.113C371.9 244.915 369.052 246.008 366.371 247.387ZM383.979 245.211C383.979 245.211 384.85 243.944 386.131 242.078C392.552 232.735 395.845 217.171 390.855 209.018C365.214 167.128 285.469 49.3063 285.469 49.3063C296.646 61.2463 384.072 174.475 400.502 206.728C408.503 222.432 402.596 232.543 391.82 240.936C389.506 242.739 386.659 243.832 383.979 245.211ZM404.496 242.318C404.496 242.318 405.367 241.05 406.648 239.185C413.071 229.841 415.598 210.664 409.966 202.938C377.668 158.636 285.469 35.2549 285.469 35.2549C302.931 52.439 398.703 171.007 421.021 203.834C427.265 213.02 423.113 229.65 412.337 238.042C410.023 239.845 407.176 240.94 404.496 242.318ZM282.417 20.4692C282.181 20.2856 281.952 20.1104 281.731 19.9451C281.802 19.9318 282.034 20.1104 282.417 20.4692C308.377 40.6525 419.593 166.991 439.769 200.843C445.664 210.736 441.863 226.66 431.086 235.051C428.772 236.854 425.924 237.949 423.244 239.327C423.244 239.327 424.115 238.059 425.397 236.195C431.819 226.85 435.351 211.523 429.504 202.267C401.522 157.957 292.25 29.6821 282.417 20.4692ZM100.323 140.032C98.2773 144.227 96.7907 147.769 95.6552 152.87C93.9311 160.61 94.1301 166.265 95.6452 174.301C99.2004 193.161 103.655 221.641 103.655 221.641C95.5114 195.715 94.9964 194.166 91.8542 183.701C90.3341 178.639 86.9243 169.979 87.6033 164.738C88.4026 158.309 88.9277 152.703 100.323 140.032ZM58.1765 141.676C114.928 73.3099 227.115 3.06319 257.459 4.13135C266.636 4.45514 273.501 13.4677 273.501 13.4677C273.501 13.4677 265.074 9.86104 257.459 9.82098C225.314 9.65408 116.962 79.4218 58.1765 141.676ZM76.6349 132.618C127.271 77.9197 227.115 13.1022 257.459 14.1704C266.636 14.4942 272.327 22.5121 272.327 22.5121C272.327 22.5121 265.074 19.9001 257.459 19.86C225.314 19.6931 137.959 77.8562 76.6349 132.618ZM87.5147 131.196C137.44 81.9887 230.067 23.2498 257.459 23.9107C267.909 24.1627 271.173 32.1172 271.173 32.1172C271.173 32.1172 265.074 29.6421 257.459 29.6003C228.105 29.4368 148.773 82.0855 87.5147 131.196ZM103.655 125.84C151.032 81.8652 233.216 33.1336 257.949 34.7843C268.378 35.4802 271.663 42.9908 271.663 42.9908C271.663 42.9908 265.562 40.6024 257.949 40.4739C233.304 40.0533 166.802 80.2312 103.655 125.84ZM123.723 118.775C174.855 79.3417 238.6 44.4645 257.949 45.2456C268.394 45.6662 271.663 53.4504 271.663 53.4504C271.663 53.4504 265.546 51.4576 257.949 50.9335C244.052 49.9755 185.998 78.4838 123.723 118.775ZM149.467 111.268C194.56 80.984 238.6 57.0004 257.949 57.7815C268.394 58.2037 271.663 64.8797 271.663 64.8797C271.663 64.8797 266.154 63.6697 257.459 63.5345C243.53 63.3192 207.444 79.6705 149.467 111.268ZM174.481 105.562C205.53 85.1798 241.141 70.1605 257.949 70.1605C268.402 70.1605 271.663 77.2571 271.663 77.2571C271.663 77.2571 266.131 75.2443 257.459 75.9135C240.199 77.2471 210.458 89.6527 174.481 105.562Z" fill="url(#paint0_linear_3_1128)"/>
<defs>
<linearGradient id="paint0_linear_3_1128" x1="450.001" y1="213.648" x2="0.00171661" y2="213.648" gradientUnits="userSpaceOnUse">
<stop stop-color="#007773"/>
<stop offset="1" stop-color="#0ED068"/>
</linearGradient>
</defs>
</svg>
