<svg width="300" height="300" viewBox="0 0 300 300" fill="none" xmlns="http://www.w3.org/2000/svg">
<path d="M71.315 80.0225C77.8796 80.0225 83.2013 74.7009 83.2013 68.1363C83.2013 61.5717 77.8796 56.25 71.315 56.25C64.7504 56.25 59.4287 61.5717 59.4287 68.1363C59.4287 74.7009 64.7504 80.0225 71.315 80.0225Z" fill="black"/>
<path d="M225.839 132.916V189.376C225.839 201.856 235.09 211.366 247.234 211.366C259.258 211.366 268.63 201.854 268.627 189.74L268.629 132.916C268.63 124.711 275.282 118.059 283.488 118.058H298.345V188.187C298.345 216.415 275.462 239.298 247.234 239.298C219.007 239.298 196.123 216.415 196.123 188.187V118.058H210.981C219.187 118.058 225.839 124.711 225.839 132.916Z" fill="#4E91E6"/>
<path fill-rule="evenodd" clip-rule="evenodd" d="M157.493 72.8906H172.351V224.441C172.351 232.646 165.699 239.298 157.493 239.298H142.635V87.7485C142.635 79.5427 149.287 72.8906 157.493 72.8906Z" fill="#4E91E6"/>
<path d="M29.7157 72.8906L29.715 129.31C39.1209 120.789 51.118 115.681 64.1859 115.681C94.3831 115.681 118.863 142.955 118.863 176.598C118.863 176.855 118.861 177.111 118.858 177.367C118.861 177.606 118.863 177.845 118.863 178.084C118.858 212.851 92.2544 239.298 59.4314 239.298C27.1876 239.298 0.941071 212.851 0.0247479 179.868L0 179.867V87.7485C0 79.492 6.72905 72.8906 14.8578 72.8906H29.7157ZM58.837 143.02C41.7691 143.02 27.9327 158.319 27.9327 177.193C27.9327 196.066 41.7691 211.366 58.837 211.366C75.905 211.366 89.7413 196.066 89.7413 177.193C89.7413 158.319 75.905 143.02 58.837 143.02Z" fill="#4E91E6"/>
</svg>
