<svg width="300" height="300" viewBox="0 0 300 300" fill="none" xmlns="http://www.w3.org/2000/svg">
<path fill-rule="evenodd" clip-rule="evenodd" d="M196.941 114.814H194.925C194.488 117.742 192.961 120.737 190.346 123.8C189.471 123.8 188.423 123.602 187.204 123.207C186.027 122.832 185.058 122.389 184.298 121.878C186.767 120.878 188.663 119.825 189.986 118.721C191.174 117.731 192.195 116.429 193.049 114.814C189.611 114.814 187.366 114.324 186.313 113.345C186.313 111.001 186.819 109.016 187.829 107.39C188.507 106.306 189.283 105.525 190.158 105.046C191.19 105.046 192.128 105.458 192.971 106.281C193.993 107.27 194.644 108.687 194.925 110.531H197.394C197.791 110.531 198.394 109.802 199.207 108.344C200.218 106.531 201.036 105.306 201.661 104.671C203.766 104.671 205.277 105.181 206.194 106.203C207.048 107.171 207.475 108.724 207.475 110.86C206.558 113.1 205.61 114.579 204.631 115.298C202.911 115.298 201.197 114.454 199.489 112.766C198.739 114.131 197.889 114.814 196.941 114.814ZM80.737 102.676L78.7814 106.915C78.1677 106.692 77.5908 106.581 77.0521 106.581C75.2421 106.581 73.7878 107.867 72.689 110.439C72.7428 110.82 73.3515 111.175 74.5152 111.502L77.6827 112.392C78.8139 112.826 79.3796 113.36 79.3796 113.995C79.3796 115.487 78.9214 117.445 78.0058 119.869C74.0628 122.176 70.0166 123.33 65.8685 123.33C63.951 123.33 62.4423 122.901 61.3435 122.044C60.1479 121.102 59.5498 119.71 59.5498 117.869C59.5498 116.694 59.8404 115.276 60.4223 113.614C60.9073 112.217 61.4729 110.984 62.1191 109.915C62.6685 109.873 63.0729 110.064 63.3316 110.487C62.4698 112.064 62.0385 113.625 62.0385 115.17C62.0385 117.731 63.746 119.012 67.1616 119.012C68.5728 119.012 70.329 118.768 72.4303 118.281C74.6927 117.752 76.3627 117.154 77.4402 116.487C76.5352 115.863 75.1559 115.35 73.3028 114.947C71.7947 114.619 70.8034 114.106 70.329 113.408C70.329 112.836 70.5503 111.778 70.9922 110.232C72.5328 104.835 74.9409 102.136 78.2158 102.136C79.0133 102.136 79.8539 102.316 80.737 102.676ZM89.8013 113.674C89.8013 114.944 89.2357 116.68 88.1038 118.881C87.0157 120.998 85.9007 122.617 84.7589 123.739C84.0151 123.739 83.0189 123.485 81.7689 122.977C80.5189 122.469 79.6246 121.956 79.0858 121.437C81.0364 120.559 82.7764 119.537 84.3064 118.373C86.1057 117.008 87.172 115.775 87.5063 114.674C87.0213 113.352 86.0245 112.192 84.5164 111.198L86.7463 106.959C87.5438 107.636 88.2519 108.663 88.8719 110.039C89.4913 111.415 89.8013 112.627 89.8013 113.674ZM102.321 119.9L99.7193 122.314L97.1656 119.805L99.8162 117.424L102.321 119.9ZM112.939 114.805C112.067 114.805 111.253 114.429 110.499 113.677C109.799 112.979 109.362 112.191 109.19 111.312C109.06 112.127 108.602 112.905 107.816 113.646C106.997 114.419 106.179 114.805 105.359 114.805H104.067C103.194 114.805 102.381 114.429 101.626 113.677C100.926 112.979 100.489 112.191 100.317 111.312C100.188 112.127 99.7299 112.905 98.9437 113.646C98.1243 114.419 97.3056 114.805 96.4868 114.805H96.0181C93.9606 114.805 92.6188 113.969 91.9944 112.296C91.5738 111.164 91.2938 108.64 91.1538 104.724C91.0888 102.788 91.0082 101.443 90.9113 100.692C90.7282 99.2313 90.3832 97.9351 89.8769 96.8026L92.8344 93.7545C93.33 94.527 93.6369 95.7176 93.7556 97.3264C93.7988 97.9082 93.8206 99.1413 93.8206 101.025V105.708C93.8206 107.106 93.9225 108.121 94.1275 108.756C94.4937 109.889 95.2262 110.455 96.3256 110.455C97.4137 110.455 98.2699 109.979 98.8949 109.026C99.4012 108.254 99.6543 107.381 99.6543 106.407H101.028C101.028 107.539 101.271 108.466 101.756 109.185C102.316 110.032 103.146 110.455 104.244 110.455H105.198C106.286 110.455 107.142 109.979 107.767 109.026C108.274 108.254 108.527 107.381 108.527 106.407H109.901C109.901 107.539 110.143 108.466 110.628 109.185C111.189 110.032 112.018 110.455 113.117 110.455H114.313C114.603 110.455 115.202 110.407 116.107 110.312C114.814 109.539 114.167 108.428 114.167 106.978C114.167 105.518 114.965 104.094 116.559 102.708C118.025 101.428 119.339 100.787 120.503 100.787C122.345 100.787 123.853 101.771 125.028 103.74C125.221 104.068 125.238 104.232 125.076 104.232C124.99 104.232 124.845 104.195 124.64 104.121C124.015 103.899 123.239 103.788 122.313 103.788C120.341 103.788 118.768 104.227 117.593 105.105C117.82 107.169 119.032 108.661 121.23 109.582L127.323 108.026L125.448 112.027C123.325 112.492 120.513 113.159 117.012 114.027C114.911 114.546 113.554 114.805 112.939 114.805ZM113.44 100.152L111.21 102.343L108.947 100.39L106.879 102.438L104.503 100.39L106.733 98.152L108.996 100.136L111.064 98.0564L113.44 100.152ZM130.407 93.7383C130.687 95.0933 130.827 97.0351 130.827 99.5645C130.827 103.734 130.44 108.301 129.663 113.265L128.031 115.678L128.015 109.709C128.015 104.163 127.536 99.9301 126.576 97.0089L130.407 93.7383ZM165.385 114.814H164.555C163.68 114.814 162.889 114.439 162.18 113.689C161.534 112.991 161.133 112.188 160.977 111.282C160.799 112.167 160.388 112.949 159.742 113.626C158.981 114.418 158.08 114.814 157.038 114.814C155.371 114.814 154.308 113.761 153.85 111.657C152.996 113.751 151.818 114.798 150.317 114.798C149.432 114.798 148.677 114.439 148.051 113.72C147.593 113.189 147.265 112.558 147.067 111.829C146.212 113.819 144.972 114.814 143.347 114.814H142.519C140.706 114.814 139.471 113.303 138.814 110.281C138.481 111.511 138.012 112.542 137.408 113.376C134.126 113.376 131.953 112.641 130.891 111.172C131.318 109.578 131.693 108.328 132.016 107.421C133.287 106.286 135.111 105.275 137.486 104.389C137.403 103.993 137.226 103.431 136.954 102.701L138.814 99.9195C139.367 100.722 139.784 102.097 140.065 104.046C140.44 106.629 140.679 108.104 140.784 108.469C141.179 109.844 141.836 110.531 142.753 110.531H143.003V110.547H143.613C144.571 110.547 145.327 110.094 145.879 109.187C146.337 108.437 146.567 107.609 146.567 106.702H147.973C147.973 109.266 148.802 110.547 150.458 110.547C151.563 110.547 152.371 110.047 152.881 109.047C153.235 108.359 153.412 107.577 153.412 106.702H154.819C154.819 107.89 154.934 108.755 155.162 109.297C155.517 110.141 156.199 110.562 157.21 110.562C158.356 110.562 159.215 110.057 159.789 109.047C160.195 108.328 160.399 107.536 160.399 106.671H161.805C161.805 109.266 162.706 110.562 164.509 110.562H164.977L164.104 110.531H165.682C166.734 110.531 167.51 110.016 168.01 108.984C168.355 108.276 168.527 107.51 168.527 106.687H169.917C169.917 109.261 170.876 110.547 172.793 110.547C174.064 110.547 174.981 110.052 175.544 109.062C175.929 108.385 176.122 107.593 176.122 106.687H177.528C177.528 109.25 178.367 110.531 180.045 110.531C181.285 110.531 182.275 110.214 183.015 109.578C183.015 109.297 182.348 108.192 181.014 106.265L183.421 103.108C183.796 103.504 184.171 104.165 184.546 105.093C184.963 106.114 185.171 106.968 185.171 107.656C185.171 108.052 184.989 108.807 184.624 109.922C184.458 110.432 184.171 111.182 183.765 112.172C183.4 112.891 182.863 113.501 182.155 114.001C181.394 114.543 180.633 114.814 179.873 114.814C179.05 114.814 178.326 114.481 177.701 113.814C177.106 113.199 176.742 112.469 176.606 111.626C176.023 113.751 174.731 114.814 172.73 114.814C171.262 114.814 170.105 113.756 169.261 111.641C168.188 113.756 166.896 114.814 165.385 114.814ZM138.674 109.672L137.986 106.203C136.381 106.546 134.881 107.348 133.485 108.609C134.1 109.37 135.376 109.75 137.314 109.75C137.804 109.75 138.257 109.724 138.674 109.672ZM192.737 111.094C192.445 110.459 192.06 109.886 191.581 109.375C190.986 108.739 190.403 108.422 189.83 108.422C189.538 108.422 189.221 108.682 188.877 109.203C188.585 109.641 188.403 110.037 188.329 110.391C188.444 110.735 188.856 111.006 189.564 111.204C190.085 111.349 190.601 111.422 191.111 111.422C191.768 111.422 192.31 111.313 192.737 111.094ZM205.099 112.172C205.121 111.964 205.131 111.766 205.131 111.579C205.131 109.609 204.079 108.401 201.974 107.952C201.38 108.359 200.974 108.963 200.754 109.766C201.567 110.891 203.016 111.693 205.099 112.172Z" fill="#313C4C"/>
<path fill-rule="evenodd" clip-rule="evenodd" d="M103.322 192.05H93.5251C89.6301 192.05 86.4727 188.892 86.4727 184.997V184.989C86.4727 184.21 87.1039 183.579 87.8826 183.579C92.1682 183.579 105.014 183.579 109.49 183.579C110.352 183.579 111.049 184.277 111.049 185.137C111.049 186.661 111.049 199.784 111.049 199.784C111.05 200.567 110.415 201.201 109.632 201.202H109.62C106.142 201.201 103.322 198.383 103.322 194.905V192.05ZM171.98 162.268C171.734 168.904 175.772 171.621 179.537 169.493C182.953 167.562 186.4 155.878 189.058 145.944C190.27 141.411 191.358 137.244 192.061 134.53C192.547 132.651 194.243 131.338 196.184 131.338C198.644 131.337 201.974 131.337 204.342 131.337C205.026 131.337 205.669 131.665 206.072 132.219C206.474 132.772 206.587 133.485 206.375 134.135C204.162 140.902 198.306 158.373 193.449 168.959C189.489 177.591 184.679 178.955 178.793 178.861C178.295 178.853 174.55 178.519 172.583 175.812C170.617 173.105 169.482 169.083 170.517 165.9C170.558 165.77 170.601 165.639 170.642 165.507C170.129 166.717 169.62 167.874 169.123 168.959C165.162 177.591 160.353 178.955 154.467 178.861C153.969 178.853 150.224 178.519 148.257 175.812C146.783 173.782 145.776 171.014 145.8 168.414C145.711 168.598 145.622 168.78 145.533 168.959C141.982 176.133 136.763 178.955 130.877 178.861C130.38 178.853 124.737 179.487 120.617 175.662C118.22 173.439 116.081 168.207 115.587 164.379C114.912 166.001 114.244 167.542 113.594 168.959C109.633 177.591 104.824 178.955 98.9375 178.861C98.4394 178.853 94.9563 178.308 92.7276 175.812C90.7607 173.609 89.5501 169.746 89.1233 166.325C88.7289 167.241 88.3383 168.121 87.9539 168.959C83.9933 177.591 79.184 178.955 73.2978 178.861C72.7997 178.853 69.3166 178.308 67.0879 175.812C64.7804 173.227 63.5136 168.358 63.3329 164.599C62.6848 166.151 62.043 167.628 61.418 168.989C57.458 177.621 54.3443 183.167 44.9407 189.638C24.3172 203.826 2.2687 193.242 0.145602 174.671C-0.985009 164.778 4.55867 150.591 13.6486 138.414C15.3923 136.077 21.0841 137.427 21.0841 137.427C20.3691 142.841 0.472473 161.314 8.58362 179.396C11.1023 185.011 23.2697 186.379 32.2771 182.412C37.8014 179.979 42.6638 175.113 46.2563 169.196C48.5381 165.436 53.0962 155.908 55.7537 145.974C56.9661 141.442 58.0543 137.274 58.7574 134.561C59.243 132.681 60.9386 131.368 62.8798 131.368C65.6698 131.368 69.6297 131.368 72.311 131.368C72.9953 131.367 73.6384 131.695 74.0409 132.249C74.4434 132.802 74.5559 133.515 74.3441 134.166C72.7885 138.922 69.4322 148.97 65.8885 158.196C65.1367 168.009 70.0629 171.741 74.0422 169.493C77.4578 167.562 80.9046 155.878 83.5621 145.944C84.7746 141.411 85.8627 137.244 86.5658 134.53C87.052 132.651 88.747 131.338 90.6889 131.338C93.1488 131.337 96.4782 131.337 98.8469 131.337C99.5312 131.337 100.174 131.665 100.576 132.219C100.979 132.772 101.091 133.485 100.879 134.135C99.1825 139.323 95.345 150.803 91.4576 160.648C91.6376 168.621 96.0532 171.543 99.6819 169.493C103.097 167.562 106.544 155.878 109.202 145.944C110.415 141.411 111.503 137.244 112.206 134.53C112.692 132.651 114.387 131.338 116.329 131.338C118.789 131.337 122.118 131.337 124.487 131.337C125.171 131.337 125.814 131.665 126.217 132.219C126.618 132.772 126.732 133.485 126.52 134.135C124.914 139.043 121.393 149.581 117.727 159.04C117.565 166.134 121.674 171.602 130.165 169.351C135.105 168.04 138.484 155.878 141.142 145.944C142.354 141.411 143.443 137.244 144.146 134.53C144.631 132.651 146.327 131.338 148.268 131.338C150.744 131.337 154.101 131.337 156.472 131.337C157.152 131.337 157.791 131.659 158.194 132.205C158.598 132.752 158.717 133.458 158.516 134.107C156.695 139.937 152.226 153.805 147.713 164.226C148.252 169.421 151.841 171.397 155.211 169.493C158.627 167.562 162.074 155.878 164.731 145.944C165.944 141.411 167.032 137.244 167.735 134.53C168.221 132.651 169.917 131.338 171.858 131.338C174.318 131.337 177.648 131.337 180.016 131.337C180.7 131.337 181.343 131.665 181.745 132.219C182.148 132.772 182.26 133.485 182.048 134.135C180.258 139.61 176.082 152.094 171.98 162.268ZM83.2827 185.137C83.2827 184.277 82.5852 183.579 81.724 183.579C77.0178 183.579 62.9973 183.579 58.493 183.579C58.1186 183.579 57.7599 183.727 57.4955 183.992C57.2305 184.257 57.0824 184.615 57.0824 184.989V184.997C57.0824 188.892 60.2399 192.05 64.1348 192.05C70.1491 192.05 78.3415 192.05 81.724 192.05C82.5852 192.05 83.2827 191.352 83.2827 190.492C83.2827 188.968 83.2827 186.661 83.2827 185.137ZM292.283 113.226C294.044 113.691 295.911 113.039 297.001 111.579C298.733 108.885 299.647 105.578 299.986 101.691C300.048 101.026 299.829 100.365 299.384 99.8665C298.94 99.3678 298.308 99.0765 297.64 99.0615C292.299 98.9428 279.6 98.974 271.995 101.401C261.986 104.596 248.839 109.436 240.071 118.297C234.541 123.886 230.359 130.141 227.012 137.165C226.623 138 226.705 138.98 227.229 139.739C227.753 140.497 228.64 140.922 229.559 140.853C237.968 139.892 255.859 139.185 260.029 148.452C261.967 152.761 252.827 166.766 235.604 167.066C222.803 167.29 217.127 155.895 218.862 144.402C220.667 132.437 231.145 115.338 244.179 100.072C244.509 99.6902 244.589 99.1521 244.384 98.6909C244.179 98.229 243.726 97.9278 243.221 97.9171C240.433 97.8565 236.086 97.764 232.768 97.6934C229.846 97.629 227.112 99.1303 225.597 101.63C218.148 113.819 214.439 121.504 211.017 131.734C207.178 143.214 203.842 154.688 207.602 166.469C211.3 178.056 225.155 179.454 227.287 179.433C235.303 179.353 249.77 176.496 259.101 161.802C265.98 150.968 272.436 127.079 239.009 130.579C244.136 123.202 252.932 116.659 265.328 114.354C276.29 112.314 286.696 112.294 292.283 113.226ZM49.0981 135.474C49.4856 134.409 49.3294 133.222 48.6794 132.294C48.0294 131.365 46.9675 130.812 45.8344 130.812C44.3076 130.812 42.6001 130.812 40.9751 130.812C36.9326 130.812 33.3221 133.341 31.9396 137.14C31.4027 138.614 30.8258 140.199 30.2721 141.722C29.6415 143.454 29.8959 145.386 30.9533 146.896C32.0108 148.407 33.7389 149.306 35.5827 149.306C36.2908 149.306 37.0008 149.306 37.6926 149.306C41.5182 149.306 44.935 146.913 46.2432 143.318C47.1694 140.774 48.2325 137.852 49.0981 135.474Z" fill="#FDB816"/>
</svg>
