<svg width="300" height="300" viewBox="0 0 300 300" fill="none" xmlns="http://www.w3.org/2000/svg">
<path fill-rule="evenodd" clip-rule="evenodd" d="M0 115.393C47.8825 106.14 100.772 104.535 161.745 111.584C212.95 166.405 237.4 212.585 254.798 258.086C190.983 190.056 110.971 137.724 0 115.393Z" fill="#4DA2E7"/>
<path fill-rule="evenodd" clip-rule="evenodd" d="M60.7402 68.2067C109.695 61.4605 141.981 63.3324 191.333 70.6954C220.053 95.4376 265.808 144.686 283.206 190.187C219.391 122.157 176.731 87.8652 60.7402 68.2067Z" fill="#82BEEE"/>
<path fill-rule="evenodd" clip-rule="evenodd" d="M91.4434 37.5039C141.317 38.5876 169.918 41.9732 219.271 49.3363C242.58 70.6241 266.747 94.5126 296.158 134.173C219.86 68.0042 207.435 57.1618 91.4434 37.5039Z" fill="#A6D0F3"/>
</svg>
