<svg width="300" height="300" viewBox="0 0 300 300" fill="none" xmlns="http://www.w3.org/2000/svg">
<path fill-rule="evenodd" clip-rule="evenodd" d="M26.939 196.644L74.9991 279.886H110.835L62.963 197.354L72.0954 181.537L128.877 279.886H224.997L242.938 248.812L147.393 248.851L90.3126 149.984L111.095 113.988H74.6609L26.939 196.644ZM251.936 233.226L299.996 149.984L282.078 118.949L234.54 201.674H216.275L273.057 103.324L224.997 20.082H189.116L236.922 102.807L179.841 201.674H138.276L156.493 233.226H251.936ZM161.624 66.7421L152.492 50.9242L57.0812 51.1173L74.9991 20.082H171.119L218.841 102.739L200.624 134.291L179.841 98.2948H65.6792L17.941 181.059L0 149.984L48.06 66.7421H161.624Z" fill="#B11116"/>
<path fill-rule="evenodd" clip-rule="evenodd" d="M149.994 114.145C170.1 114.145 186.423 130.468 186.423 150.573C186.423 170.679 170.1 187.002 149.994 187.002C129.889 187.002 113.565 170.679 113.565 150.573C113.565 130.468 129.889 114.145 149.994 114.145Z" fill="#00A1BF"/>
</svg>
