<svg width="300" height="300" viewBox="0 0 300 300" fill="none" xmlns="http://www.w3.org/2000/svg">
<path d="M58.0638 46.3644H224.997L173.871 0H17.718C2.98858 0 0 20.6659 0 20.6659V167.576C0 167.576 3.94919 237.497 100.224 237.497C196.499 237.497 184.758 172.501 184.758 172.501C184.758 172.501 175.899 211.906 122.852 211.906C69.8046 211.906 58.0638 166.612 58.0638 166.612V46.3644Z" fill="#007D3D"/>
<path d="M229.433 253.632H62.4992L113.625 299.996H269.778C284.508 299.996 287.496 279.33 287.496 279.33V132.528C287.496 132.528 283.547 62.4992 187.272 62.4992C90.9975 62.4992 102.738 127.495 102.738 127.495C102.738 127.495 111.597 88.0907 164.645 88.0907C217.692 88.0907 229.433 133.384 229.433 133.384V253.632Z" fill="#007D3D"/>
<path d="M146.275 205.141C176.89 205.141 201.708 180.259 201.708 149.567C201.708 118.874 176.89 93.9922 146.275 93.9922C115.659 93.9922 90.8408 118.874 90.8408 149.567C90.8408 180.259 115.659 205.141 146.275 205.141Z" fill="#FFF400"/>
</svg>
