<svg width="300" height="300" viewBox="0 0 300 300" fill="none" xmlns="http://www.w3.org/2000/svg">
<path d="M195.486 46.2743C195.486 71.7617 175.189 92.5486 150.302 92.5486C125.415 92.5486 105.118 71.7617 105.118 46.2743C105.118 20.7869 125.415 0 150.302 0C175.189 0 195.486 20.7869 195.486 46.2743Z" fill="#324C88"/>
<path d="M104.504 103.567C104.504 122.464 89.4525 137.879 71.0007 137.879C52.5472 137.879 37.4961 122.464 37.4961 103.567C37.4961 84.6685 52.5472 69.2541 71.0007 69.2541C89.4525 69.2541 104.504 84.6685 104.504 103.567Z" fill="#324C88"/>
<path d="M262.493 104.197C262.493 123.094 247.444 138.508 228.99 138.508C210.537 138.508 195.486 123.094 195.486 104.197C195.486 85.2979 210.537 69.8835 228.99 69.8835C247.444 69.8835 262.493 85.2979 262.493 104.197Z" fill="#324C88"/>
<path d="M150.302 183.838C168.755 183.838 183.805 168.424 183.805 149.527C183.805 130.628 168.755 115.214 150.302 115.214C131.849 115.214 116.799 130.628 116.799 149.527C116.799 168.424 131.849 183.838 150.302 183.838Z" fill="#324C88"/>
<path d="M82.6799 206.504C94.7 206.504 104.504 196.463 104.504 184.153C104.504 171.843 94.7 161.803 82.6799 161.803C70.6598 161.803 60.8562 171.843 60.8562 184.153C60.8562 196.463 70.6598 206.504 82.6799 206.504Z" fill="#324C88"/>
<path d="M240.055 184.153C240.055 196.463 230.251 206.504 218.233 206.504C206.213 206.504 196.409 196.463 196.409 184.153C196.409 171.843 206.213 161.803 218.233 161.803C230.251 161.803 240.055 171.843 240.055 184.153Z" fill="#324C88"/>
<path d="M149.995 253.093C162.015 253.093 171.818 243.052 171.818 230.742C171.818 218.432 162.015 208.392 149.995 208.392C137.975 208.392 128.171 218.432 128.171 230.742C128.171 243.052 137.975 253.093 149.995 253.093Z" fill="#324C88"/>
<path d="M105.733 265.368C105.733 271.783 100.624 277.016 94.3607 277.016C88.097 277.016 82.9872 271.783 82.9872 265.368C82.9872 258.954 88.097 253.722 94.3607 253.722C100.624 253.722 105.733 258.954 105.733 265.368Z" fill="#324C88"/>
<path d="M207.167 277.016C213.43 277.016 218.539 271.783 218.539 265.368C218.539 258.954 213.43 253.722 207.167 253.722C200.903 253.722 195.795 258.954 195.795 265.368C195.795 271.783 200.903 277.016 207.167 277.016Z" fill="#324C88"/>
<path d="M161.983 288.348C161.983 294.763 156.873 299.996 150.609 299.996C144.346 299.996 139.237 294.763 139.237 288.348C139.237 281.933 144.346 276.702 150.609 276.702C156.873 276.702 161.983 281.933 161.983 288.348Z" fill="#324C88"/>
</svg>
