<svg width="300" height="301" viewBox="0 0 300 301" fill="none" xmlns="http://www.w3.org/2000/svg">
<path fill-rule="evenodd" clip-rule="evenodd" d="M149.998 300.024C67.1567 300.024 0 232.862 0 150.013C0 67.1629 67.1567 0 149.998 0C232.84 0 299.996 67.1629 299.996 150.013C299.996 232.862 232.84 300.024 149.998 300.024ZM96.9338 93.3607H82.8752C77.6334 93.3607 73.3847 97.61 73.3847 102.851C73.3847 108.093 77.6334 112.343 82.8752 112.343H96.9338C102.174 112.343 106.423 108.093 106.423 102.851C106.423 97.61 102.174 93.3607 96.9338 93.3607ZM96.9338 150.308H82.8752C77.6334 150.308 73.3847 154.557 73.3847 159.798C73.3847 165.039 77.6334 169.29 82.8752 169.29H96.9338C102.174 169.29 106.423 165.039 106.423 159.798C106.423 154.557 102.174 150.308 96.9338 150.308ZM96.9338 207.254H82.8752C77.6334 207.254 73.3847 211.503 73.3847 216.745C73.3847 221.986 77.6334 226.237 82.8752 226.237H96.9338C102.174 226.237 106.423 221.986 106.423 216.745C106.423 211.503 102.174 207.254 96.9338 207.254ZM221.009 93.3501H126.458C121.218 93.3501 116.969 97.5988 116.969 102.84C116.969 108.082 121.218 112.332 126.458 112.332H221.009C226.25 112.332 230.499 108.082 230.499 102.84C230.499 97.5988 226.25 93.3501 221.009 93.3501ZM221.009 150.296H126.458C121.218 150.296 116.969 154.546 116.969 159.787C116.969 165.028 121.218 169.279 126.458 169.279H221.009C226.25 169.279 230.499 165.028 230.499 159.787C230.499 154.546 226.25 150.296 221.009 150.296Z" fill="#00BBBC"/>
</svg>
