<svg width="300" height="300" viewBox="0 0 300 300" fill="none" xmlns="http://www.w3.org/2000/svg">
<path d="M296.696 100.267H59.0448L61.1453 77.3654C62.0455 70.4346 66.5464 65.6133 73.4479 65.6133H290.094C295.195 65.6133 299.996 69.832 299.996 74.9547L298.496 95.1442C298.44 95.7616 298.405 96.3267 298.373 96.8377C298.235 99.0694 298.16 100.267 296.696 100.267Z" fill="#1471EA"/>
<path fill-rule="evenodd" clip-rule="evenodd" d="M89.3513 168.67C96.5529 168.67 101.354 164.451 101.354 156.918C101.354 153.001 98.6533 150.289 95.9527 148.782C92.4931 147.293 75.195 147.621 59.4027 147.92C46.4309 148.165 34.4749 148.392 32.0391 147.577C29.3385 146.974 27.2381 143.358 28.4383 139.44C29.0384 136.728 32.0391 134.016 35.9399 134.016H294.895C294.895 135.336 294.824 136.371 294.751 137.432C294.674 138.552 294.595 139.702 294.595 141.248C294.479 143.34 294.185 145.744 293.868 148.342C293.361 152.48 292.795 157.112 292.795 161.739C292.795 163.849 292.495 166.561 292.195 168.971C291.895 171.081 291.594 174.094 291.594 175.902C290.838 181.826 290.311 189.28 289.781 196.761C289.261 204.121 288.738 211.509 287.994 217.486C287.741 219.179 287.63 220.539 287.535 221.707C287.291 224.695 287.151 226.422 284.993 229.238C283.193 231.95 279.892 234.361 275.391 234.361H58.7448C55.4441 234.361 53.0436 233.156 51.2432 231.649C47.6508 228.763 48.0725 223.957 48.5417 218.611C48.6604 217.259 48.7821 215.872 48.8427 214.473L51.5433 184.339H6.83371C-2.76834 184.339 -1.86815 169.574 7.13377 168.971C29.5047 167.914 55.8 168.248 79.5405 168.549L79.5544 168.549L79.5633 168.549C82.8819 168.592 86.1504 168.633 89.3513 168.67ZM240.284 174.094H260.388L261.888 153.603H242.084L240.284 174.094Z" fill="#1471EA"/>
<path d="M8.03396 100.267H38.9406C41.3411 100.267 43.1415 99.0615 44.3417 98.1575C49.1427 93.9388 46.7422 86.1041 41.6411 86.1041H7.7339C0.532361 86.7068 -1.86815 100.267 8.03396 100.267Z" fill="#1471EA"/>
</svg>
