<svg width="300" height="300" viewBox="0 0 300 300" fill="none" xmlns="http://www.w3.org/2000/svg">
<path fill-rule="evenodd" clip-rule="evenodd" d="M196.993 216.034C62.2596 330.126 -71.5003 156.897 43.8302 40.1564C-9.87407 166.724 88.9139 262.508 196.993 216.034ZM215.563 101.218C331.583 234.387 161.059 371.363 42.7192 257.689C169.832 309.42 263.706 208.792 215.563 101.218ZM102.51 83.2117C236.505 -31.7498 371.379 140.608 256.803 258.095C309.69 131.181 210.287 36.0396 102.51 83.2117ZM80.1004 191.271C-22.8055 47.6738 159.902 -72.4779 266.96 51.9324C145.311 -11.6472 42.3446 79.6058 80.1004 191.271Z" fill="#4C2A93"/>
<path fill-rule="evenodd" clip-rule="evenodd" d="M149.997 206.237C180.978 206.237 206.247 180.969 206.247 149.988C206.247 119.007 180.978 93.7383 149.997 93.7383C119.016 93.7383 93.748 119.007 93.748 149.988C93.748 180.969 119.016 206.237 149.997 206.237Z" fill="#F10B7C"/>
</svg>
