<svg width="300" height="300" viewBox="0 0 300 300" fill="none" xmlns="http://www.w3.org/2000/svg">
<path fill-rule="evenodd" clip-rule="evenodd" d="M0.06022 142.32C1.86178 127.022 33.6679 90.7953 68.4216 59.75C104.364 27.6443 157.302 0.138342 172.825 0.000372362C187.777 -0.132034 218.145 35.0679 249.28 71.5664C257.81 81.5658 269.682 95.8156 280.701 109.31C290.323 121.093 299.73 132.104 299.987 141.764C300.461 159.453 282.595 161.325 200.046 232.594C173.333 255.657 147.383 279.798 131.256 294.325C126.778 298.371 120.83 300.398 114.808 299.93C108.787 299.461 103.224 296.539 99.4294 291.85C85.0916 274.185 63.6099 247.576 50.8351 231.063C30.2097 204.4 -1.56855 156.159 0.06022 142.32ZM99.6435 282.37C99.6435 282.37 100.023 282.601 100.658 282.991C108.831 287.991 119.276 287.3 126.715 281.266C137.958 272.129 154.302 258.891 164.564 250.777C190.597 230.195 270.521 167.862 270.521 167.862C249.349 184.363 162.649 263.002 125.091 291.724C121.181 294.192 116.426 294.941 111.946 293.797C107.464 292.653 103.654 289.717 101.412 285.679C100.815 284.601 100.225 283.497 99.6435 282.37ZM96.7806 268.969C96.7806 268.969 97.377 269.334 98.3302 269.917C106.251 274.765 116.338 274.278 123.753 268.689C158.15 242.766 252.873 171.377 252.873 171.377C231.842 187.769 157.353 252.657 122.301 278.522C118.398 280.977 113.655 281.721 109.185 280.582C104.715 279.443 100.911 276.52 98.6635 272.499C98.0303 271.349 97.4015 270.172 96.7806 268.969ZM93.6078 255.578C93.6078 255.578 94.3625 256.04 95.5297 256.754C103.264 261.488 113.086 261.143 120.468 255.88C152.299 233.191 235.521 173.869 235.521 173.869C214.645 190.14 151.686 242.333 119.198 265.353C115.3 267.789 110.573 268.524 106.118 267.389C101.662 266.253 97.8675 263.347 95.6167 259.345C94.9445 258.117 94.2711 256.863 93.6078 255.578ZM91.1317 242.999C91.1317 242.999 91.9779 243.516 93.2633 244.303C100.891 248.971 110.561 248.706 117.921 243.626C146.203 224.108 214.221 177.166 214.221 177.166C193.424 193.374 145.078 232.609 116.442 252.245C112.616 254.629 107.991 255.38 103.607 254.329C99.2221 253.277 95.4439 250.511 93.1217 246.653C92.4662 245.479 91.7884 244.272 91.1317 242.999ZM11.5708 124.48C11.5708 124.48 10.5831 126.92 9.4036 129.834C6.90973 135.99 7.26313 142.931 10.3679 148.805C14.4148 156.421 20.5441 167.797 27.1071 179.368C38.3602 199.21 74.9355 252.809 74.9355 252.809C61.6211 235.222 47.8608 217.537 34.7749 198.696C24.7894 184.318 15.213 168.756 5.32667 150.723C3.58642 147.543 2.9231 143.888 3.43481 140.301C3.98665 136.32 4.96658 132.607 11.5708 124.48ZM88.7661 229.65C88.7661 229.65 90.0771 230.342 91.9144 231.314C99.0158 235.065 107.581 234.771 114.407 230.537C138.438 215.635 193.412 181.546 193.412 181.546C172.901 197.531 138.89 223.133 114.136 239.163C110.326 241.513 105.734 242.249 101.378 241.206C97.0214 240.165 93.2622 237.432 90.9322 233.613C90.2198 232.343 89.4818 231.035 88.7661 229.65ZM19.116 119.651C19.116 119.651 18.0625 122.56 16.8763 125.836C14.7704 131.653 15.1506 138.079 17.9276 143.607C21.805 151.238 27.8953 162.901 34.6523 174.539C43.9377 190.531 69.1027 230.752 69.1027 230.752C55.7883 213.165 55.4059 212.707 42.3201 193.866C32.2844 179.416 23.4594 164.516 13.6466 146.486C12.1104 143.663 11.4181 140.46 11.6511 137.255C11.9599 132.609 11.9499 128.469 19.116 119.651ZM85.3413 215.92C85.3413 215.92 86.2098 216.503 87.5063 217.373C94.4985 222.065 103.526 222.484 110.926 218.459C131.596 207.212 171.637 185.428 171.637 185.428C151.716 200.149 131.618 213.656 111.406 226.39C107.572 228.798 102.928 229.562 98.5231 228.51C94.1172 227.457 90.3235 224.677 87.998 220.797C87.1039 219.203 86.1997 217.583 85.3413 215.92ZM27.9332 114.842C27.9332 114.842 26.8797 117.752 25.6946 121.027C23.5876 126.844 23.9677 133.27 26.7459 138.799C30.6233 146.43 35.5564 157.752 42.3134 169.389C51.5988 185.381 73.3725 223.832 73.3725 223.832C60.4004 206.024 57.7114 201.044 45.6311 181.546C36.3457 166.557 32.1963 160.809 22.7726 143.378C21.0948 140.278 19.7102 134.59 20.1639 131.097C20.6968 126.812 21.1528 123.186 27.9332 114.842ZM82.4807 202.569C82.4807 202.569 83.3268 203.149 84.5732 204.002C90.814 208.275 98.7839 209.145 105.803 206.319C122.385 199.644 151.464 187.938 151.464 187.938C151.464 187.938 124.729 203.799 108.334 213.526C100.389 218.24 90.1228 215.677 85.3357 207.788C84.3736 206.086 83.4015 204.353 82.4807 202.569ZM37.0001 109.824C37.0001 109.824 35.6946 112.653 34.7604 116.009C32.8574 122.846 33.0213 128.414 35.1617 133.43C38.5218 141.302 41.6512 147.217 48.0257 159.55C56.6791 176.292 74.9355 212.673 74.9355 212.673C61.9633 194.865 41.2621 155.79 31.8395 138.359C30.1617 135.26 28.7771 129.572 29.2297 126.079C29.7626 121.794 30.2197 118.167 37.0001 109.824ZM184.515 63.1191C183.813 60.2139 181.903 57.7461 179.266 56.3319C176.628 54.9188 173.512 54.694 170.697 55.7143C147.936 63.9669 96.2522 82.704 75.6222 90.1833C70.5509 92.0225 67.5063 97.1997 68.3692 102.516C71.562 122.165 79.0882 168.491 82.9366 192.176C83.5253 195.801 85.6735 198.989 88.8162 200.9C91.9578 202.812 95.7806 203.257 99.28 202.118C124.105 194.037 175.392 177.343 198.154 169.934C204.538 167.856 208.248 161.227 206.672 154.713C201.35 132.713 189.813 85.0195 184.515 63.1191ZM46.7247 104.01C45.3602 106.807 44.2822 109.957 43.5252 113.357C42.3758 118.518 42.6489 123.139 44.7894 128.155C48.1495 136.027 50.1974 140.511 56.0035 153.12C63.834 170.125 73.3725 191.508 73.3725 191.508C59.3201 170.146 51.2153 152.479 41.7916 135.048C40.1138 131.948 38.4048 124.298 38.8574 120.804C39.3914 116.519 39.9443 112.353 46.7247 104.01ZM56.7749 98.5705C55.4115 101.368 54.3323 104.518 53.5754 107.918C52.426 113.08 53.3201 117.479 54.8407 122.716C57.397 131.524 72.2856 173.869 72.2856 173.869C59.1506 148.189 58.3769 144.844 51.2777 129.189C49.8229 125.979 48.0971 118.957 48.5497 115.463C49.0826 111.177 49.9945 106.914 56.7749 98.5705ZM206.565 169.389C206.565 169.389 207.146 168.544 208 167.3C212.281 161.072 213.832 152.447 211.428 145.285C205.331 127.12 198.929 104.01 198.929 104.01C198.929 104.01 214.761 138.074 216.986 144.346C220.093 153.105 219.698 161.762 211.793 166.539C210.088 167.499 208.352 168.47 206.565 169.389ZM218.78 167.862C218.78 167.862 219.362 167.018 220.216 165.775C224.497 159.545 226.367 150.668 223.365 143.735C215.711 126.056 193.412 77.0696 193.412 77.0696C193.412 77.0696 226.992 136.064 229.26 142.32C233.264 153.364 231.915 160.235 224.008 165.013C222.304 165.973 220.567 166.943 218.78 167.862ZM231.287 166.29C231.287 166.29 231.868 165.446 232.723 164.202C237.004 157.973 238.808 148.241 235.872 142.162C226.132 121.997 193.412 61.8406 193.412 61.8406C193.412 61.8406 239.076 132.182 241.767 140.748C245.287 151.955 243.699 157.845 236.515 163.441C234.973 164.642 233.074 165.371 231.287 166.29ZM244.245 164.923C244.245 164.923 244.825 164.077 245.681 162.834C249.961 156.605 251.822 146.42 248.83 140.795C237.363 119.237 190.31 44.1761 190.31 44.1761C190.31 44.1761 251.759 130.276 255.261 139.268C259.526 150.213 256.657 156.478 249.473 162.073C247.93 163.275 246.032 164.004 244.245 164.923ZM255.983 163.472C255.983 163.472 256.563 162.627 257.417 161.383C261.698 155.155 263.893 144.779 260.567 139.344C243.473 111.417 190.31 32.8704 190.31 32.8704C197.762 40.8304 256.045 116.315 266.998 137.817C272.332 148.286 268.394 155.027 261.21 160.622C259.667 161.824 257.77 162.553 255.983 163.472ZM269.661 161.543C269.661 161.543 270.241 160.698 271.095 159.455C275.377 153.225 277.062 140.441 273.307 135.29C251.775 105.756 190.31 23.503 190.31 23.503C201.951 34.9589 265.799 114.003 280.677 135.888C284.84 142.012 282.072 153.098 274.888 158.693C273.345 159.894 271.448 160.624 269.661 161.543ZM188.276 13.646C188.119 13.5236 187.966 13.4068 187.819 13.2966C187.865 13.2877 188.02 13.4068 188.276 13.646C205.582 27.1013 279.725 111.326 293.176 133.894C297.105 140.489 294.571 151.105 287.387 156.699C285.844 157.901 283.946 158.63 282.159 159.55C282.159 159.55 282.74 158.704 283.595 157.461C287.876 151.231 290.23 141.014 286.333 134.843C267.678 105.303 194.831 19.7878 188.276 13.646ZM66.8809 93.3533C65.5174 96.1505 64.5263 98.5115 63.7694 101.912C62.62 107.072 62.7526 110.842 63.7627 116.199C66.1328 128.772 69.1027 147.759 69.1027 147.759C63.6735 130.475 63.3301 129.442 61.2354 122.466C60.222 119.091 57.9488 113.318 58.4015 109.824C58.9343 105.538 59.2844 101.801 66.8809 93.3533ZM38.7838 94.4492C76.6178 48.8727 151.408 2.0421 171.637 2.7542C177.755 2.97006 182.331 8.97839 182.331 8.97839C182.331 8.97839 176.714 6.57394 171.637 6.54724C150.208 6.43597 77.9734 52.9472 38.7838 94.4492ZM51.0893 88.4108C84.8463 51.9458 151.408 8.73472 171.637 9.44682C177.755 9.66268 181.549 15.0079 181.549 15.0079C181.549 15.0079 176.714 13.2666 171.637 13.2399C150.208 13.1286 91.9712 51.9035 51.0893 88.4108ZM58.3424 87.4629C91.6256 54.6585 153.376 15.4997 171.637 15.9403C178.603 16.1083 180.78 21.4112 180.78 21.4112C180.78 21.4112 176.714 19.7611 171.637 19.7333C152.068 19.6243 99.1808 54.723 58.3424 87.4629ZM69.1027 83.8924C100.687 54.5761 155.475 22.0888 171.964 23.1892C178.917 23.6532 181.106 28.6602 181.106 28.6602C181.106 28.6602 177.039 27.0679 171.964 26.9823C155.534 26.7019 111.2 53.4868 69.1027 83.8924ZM82.4807 79.1825C116.569 52.8938 159.065 29.6426 171.964 30.1633C178.927 30.4437 181.106 35.6332 181.106 35.6332C181.106 35.6332 177.028 34.3046 171.964 33.9553C162.699 33.3166 123.997 52.3219 82.4807 79.1825ZM99.6435 74.1778C129.705 53.9886 159.065 37.9998 171.964 38.5205C178.927 38.802 181.106 43.2526 181.106 43.2526C181.106 43.2526 177.434 42.4459 171.637 42.3558C162.352 42.2123 138.295 53.113 99.6435 74.1778ZM116.319 70.3736C137.018 56.7858 160.758 46.7731 171.964 46.7731C178.932 46.7731 181.106 51.5041 181.106 51.5041C181.106 51.5041 177.418 50.1622 171.637 50.6084C160.131 51.4974 140.304 59.7678 116.319 70.3736Z" fill="url(#paint0_linear_58589_211414)"/>
<defs>
<linearGradient id="paint0_linear_58589_211414" x1="299.997" y1="142.43" x2="0.00114439" y2="142.43" gradientUnits="userSpaceOnUse">
<stop stop-color="#007773"/>
<stop offset="1" stop-color="#0ED068"/>
</linearGradient>
</defs>
</svg>
