<svg width="300" height="300" viewBox="0 0 300 300" fill="none" xmlns="http://www.w3.org/2000/svg">
<path fill-rule="evenodd" clip-rule="evenodd" d="M162.121 299.996H137.872V281.609H126.828V258.916L77.941 258.866L77.9973 201.035H66.4786L66.4411 195.948H52.2163V188.173H43.2914V176.585H52.2163V166.398H66.1037L62.1037 160.236H38.9165C35.6915 160.236 33.5853 164.235 33.5853 164.235L29.6104 162.985C29.9766 161.342 30.4916 159.736 31.1478 158.186C31.7728 156.417 33.1916 152.948 33.1916 152.948L33.3791 152.479C33.6978 151.717 34.004 150.961 34.3853 150.223C36.2603 145.725 39.5909 141.983 43.8414 139.598C44.4095 139.322 44.9964 139.086 45.5977 138.892C46.6783 138.548 47.797 138.339 48.9289 138.267C49.2726 138.267 49.6164 138.267 49.9601 138.267L50.0538 138.036L50.1976 137.698C50.6113 136.771 51.1407 135.9 51.7726 135.105C52.1832 134.615 52.6344 134.161 53.1226 133.748C55.0888 131.98 57.4819 130.754 60.0662 130.192L59.9475 108.474L71.6536 108.511L71.6223 93.1238L83.0784 93.0551L83.1222 82.799L90.1034 82.7677L82.0035 68.7491H71.1286L89.2534 50.5806L120.447 50.6181V16.2435H138.122V0H161.871V16.2498H179.521V50.6244L210.714 50.5869L228.864 68.7491H217.989L209.864 82.7802L216.846 82.8115L216.889 93.0676L228.345 93.1363L228.295 108.499L240.008 108.461L239.889 130.18C242.488 130.739 244.895 131.97 246.87 133.748C247.37 134.18 247.83 134.655 248.245 135.167C248.877 135.962 249.406 136.833 249.82 137.761L249.964 138.098L250.051 138.33C250.395 138.33 250.739 138.33 251.083 138.33C252.214 138.401 253.333 138.611 254.414 138.955C255.015 139.149 255.602 139.385 256.17 139.661C260.421 142.045 263.751 145.788 265.626 150.286C265.982 151.029 266.314 151.786 266.632 152.542L266.82 153.011C266.82 153.011 268.239 156.486 268.864 158.248C269.52 159.798 270.035 161.405 270.401 163.048L266.426 164.298C266.426 164.298 264.32 160.298 261.095 160.298H237.908L233.908 166.46H247.795V176.648H256.726V188.123H247.758V195.898H233.577L233.539 200.985H222.027L222.083 258.816L173.196 258.866V281.559H162.121V299.996Z" fill="url(#paint0_linear_58589_211419)"/>
<path fill-rule="evenodd" clip-rule="evenodd" d="M157.027 295.012H142.965V276.625H131.94V258.881H142.99V269.056H157.008V258.881H168.058V276.625H157.027V295.012ZM216.839 253.881H83.1592V198.257H216.833L216.839 253.881ZM194.82 247.2C194.878 247.509 194.854 247.828 194.752 248.125C194.622 248.513 194.457 248.887 194.258 249.244C194.023 249.674 193.715 250.059 193.345 250.381C193.198 250.56 192.992 250.682 192.764 250.725C192.528 250.646 192.315 250.513 192.139 250.338C191.877 250.121 191.602 249.898 191.314 249.669C191.095 249.503 190.886 249.323 190.689 249.131C190.548 249.027 190.452 248.873 190.42 248.7C190.595 248.331 190.733 248.044 190.82 247.844C191.12 247.211 191.343 246.752 191.489 246.469C191.756 246.052 192.025 245.608 192.295 245.138L192.564 244.75C192.647 244.83 192.737 244.9 192.833 244.963L193.189 245.175C193.642 245.506 194.06 245.881 194.439 246.294C194.648 246.554 194.785 246.864 194.839 247.194L194.82 247.2ZM161.346 241C163.362 241.006 165.374 240.811 167.352 240.419C169.104 240.077 170.829 239.61 172.514 239.019C174.038 238.471 175.481 237.718 176.802 236.781C178.051 235.92 179.177 234.894 180.152 233.732C180.419 233.386 180.835 232.842 181.402 232.1C181.67 231.725 181.864 231.475 181.983 231.325C182.102 231.175 182.133 231.207 182.164 231.238C182.2 231.287 182.215 231.347 182.208 231.407L182.164 231.882C182.135 232.14 182.069 232.692 181.964 233.538C181.867 234.28 181.815 235.027 181.808 235.775C181.771 236.891 181.96 238.003 182.364 239.044C182.686 239.868 183.512 240.392 184.395 240.331C185.02 240.331 185.631 239.867 186.227 238.938C186.934 237.718 187.432 236.39 187.702 235.007L187.814 234.45C187.852 234.28 187.875 234.106 187.883 233.932C187.883 233.644 187.808 233.5 187.658 233.5C187.508 233.5 187.439 233.632 187.37 233.888C187.302 234.144 187.227 234.375 187.17 234.575C186.845 235.463 186.472 235.907 186.052 235.907C185.561 235.92 185.077 235.785 184.664 235.519C183.947 234.92 183.577 233.998 183.683 233.069V232.4C183.683 231.883 183.729 231.117 183.82 230.1C183.92 228.971 184.054 227.846 184.22 226.725L185.158 222.213C185.2 221.992 185.244 221.771 185.289 221.55L186.333 220.844L190.508 217.682C191.703 216.911 192.895 216.132 194.083 215.344C195.112 214.661 196.125 213.957 197.12 213.232C198.728 212.057 199.935 211.161 200.739 210.544C201.81 209.711 202.57 209.111 203.02 208.744C203.47 208.377 203.91 207.976 204.339 207.538C204.876 207.026 205.391 206.494 205.883 205.944C206.323 205.437 206.726 204.898 207.089 204.332C207.451 203.84 207.738 203.296 207.939 202.719C207.999 202.615 208.029 202.496 208.026 202.376C208.026 202.426 206.91 203.371 204.676 205.213C203.514 206.196 202.337 207.167 201.145 208.126C199.866 209.142 198.556 210.127 197.214 211.082C195.314 212.407 193.408 213.724 191.495 215.032C189.65 216.341 187.882 217.755 186.202 219.269C185.802 219.613 185.455 220.013 185.17 220.457C185.116 220.531 185.066 220.608 185.02 220.688C184.817 221.031 184.633 221.386 184.47 221.75L184.27 222.144C183.892 222.851 183.564 223.584 183.289 224.338L182.664 226.788C182.352 227.923 181.854 228.998 181.189 229.969C180.268 231.19 179.096 232.2 177.752 232.932C174.072 234.964 169.976 236.125 165.777 236.325C164.764 236.413 163.41 236.456 161.714 236.456C159.674 236.736 157.599 236.28 155.865 235.169C155.496 234.76 155.276 234.238 155.24 233.688C155.196 233.125 155.127 232.85 155.04 232.85C154.802 232.85 154.616 233.338 154.483 234.313C154.352 235.253 154.286 236.201 154.283 237.15C154.216 238.017 154.462 238.88 154.977 239.581C155.701 240.234 156.618 240.633 157.59 240.719C158.623 240.881 159.668 240.954 160.715 240.938L161.346 241ZM115.446 229.388C115.418 229.966 115.342 230.54 115.221 231.107C115.071 231.907 114.921 232.608 114.771 233.213L114.234 235.319C113.934 236.119 113.696 236.706 113.521 237.081C113.301 237.539 113.055 237.983 112.784 238.413C112.598 238.714 112.364 238.982 112.09 239.206C111.71 239.477 111.306 239.714 110.884 239.913L109.278 240.538C108.933 240.645 108.583 240.73 108.228 240.794C107.883 240.878 107.531 240.937 107.178 240.969C107.028 240.969 106.94 240.919 106.909 240.819C106.885 240.691 106.916 240.559 106.996 240.456C107.308 240.038 107.688 239.677 108.121 239.388C108.734 238.93 109.338 238.486 109.934 238.056C110.617 237.452 111.123 236.98 111.453 236.638C111.964 236.104 112.414 235.512 112.79 234.875C112.942 234.593 113.07 234.298 113.171 233.994C113.334 233.552 113.594 232.83 113.953 231.825L114.49 230.275C114.548 230.046 114.638 229.767 114.759 229.438C114.878 229.113 115.028 228.944 115.209 228.944C115.321 229.065 115.398 229.214 115.434 229.375L115.446 229.388ZM148.127 234.257V234.294C148.752 233.682 149.123 233.307 149.24 233.169C149.705 232.641 150.083 232.042 150.358 231.394C150.72 230.492 150.981 229.553 151.14 228.594C151.326 227.707 151.437 226.806 151.471 225.9C151.471 225.15 151.471 224.363 151.471 223.538C151.471 222.713 151.523 221.88 151.627 221.038C151.627 220.257 151.671 219.788 151.671 219.575C151.671 219.538 151.671 219.5 151.671 219.469C151.765 219.419 151.883 219.344 152.021 219.257L153.34 218.357L156.533 216.194C157.783 215.39 159.016 214.577 160.233 213.757C161.3 213.044 162.341 212.307 163.358 211.544C165.025 210.294 166.275 209.352 167.108 208.719C168.225 207.857 169.016 207.232 169.483 206.844C169.95 206.457 170.412 206.028 170.871 205.557C171.437 205.011 171.981 204.444 172.502 203.857C172.974 203.307 173.406 202.724 173.796 202.113C174.189 201.574 174.504 200.983 174.733 200.357C174.799 200.241 174.836 200.109 174.839 199.976C174.839 200.034 173.671 201.036 171.333 202.982C170.116 204.024 168.888 205.053 167.646 206.069C166.313 207.144 164.948 208.186 163.552 209.194C161.581 210.582 159.604 211.959 157.621 213.326C156.096 214.337 154.635 215.441 153.246 216.632C152.825 216.995 152.456 217.416 152.152 217.882C151.852 218.347 151.587 218.834 151.358 219.338L151.283 219.513V219.55L149.771 223.057C149.63 223.409 149.553 223.784 149.546 224.163C149.517 224.65 149.502 225.215 149.502 225.857L149.546 228.657C149.588 229.57 149.437 230.481 149.102 231.332C148.963 231.621 148.792 231.894 148.59 232.144C148.448 232.333 148.275 232.496 148.077 232.625L147.808 232.75C147.597 232.775 147.382 232.747 147.183 232.669C147.033 232.894 146.883 233.1 146.733 233.294C146.496 233.607 146.169 233.84 145.796 233.963C145.619 234.059 145.398 234.025 145.258 233.882C145.052 234.075 144.858 234.275 144.677 234.469C144.397 234.768 144.012 234.947 143.602 234.969C143.198 234.971 142.795 234.942 142.396 234.882C141.738 235.327 141.096 235.773 140.471 236.219C139.939 236.561 139.316 236.735 138.684 236.719C137.622 236.812 136.59 236.314 136.002 235.425C135.646 234.773 135.477 234.036 135.515 233.294C135.515 232.957 135.515 232.419 135.602 231.663C135.677 230.767 135.782 229.875 135.915 228.988L136.677 223.888L136.859 222.8C136.911 222.582 136.926 222.355 136.902 222.132L136.721 222.213C136.454 222.742 136.098 223.521 135.652 224.55C135.207 225.58 134.969 226.15 134.94 226.263C134.732 227.63 134.463 229.6 134.134 232.175C133.804 234.75 133.64 236.208 133.64 236.55C133.647 236.935 133.676 237.319 133.727 237.7C133.758 238.064 133.831 238.423 133.946 238.769C134.258 240.066 135.43 240.986 136.765 240.981C137.999 240.923 139.118 240.226 139.715 239.144C140.548 237.919 141.219 237.306 141.727 237.306L142.352 237.369C142.522 237.391 142.695 237.391 142.865 237.369C143.187 237.245 143.482 237.06 143.733 236.825C143.988 236.6 144.257 236.391 144.54 236.2C144.732 236.093 144.945 236.029 145.165 236.013C145.355 236 145.539 235.942 145.702 235.844C145.94 235.619 146.14 235.444 146.327 235.319C146.478 235.2 146.645 235.102 146.821 235.025C146.983 234.957 147.321 234.794 147.827 234.544L148.096 234.332L148.127 234.257ZM111.159 217.419C111.19 217.324 111.174 217.219 111.115 217.138C111.03 217.035 110.923 216.952 110.803 216.894C110.251 217.014 109.723 217.225 109.24 217.519C108.666 217.812 108.112 218.144 107.584 218.513C107.017 218.905 106.555 219.249 106.196 219.544C105.386 220.262 104.624 221.032 103.915 221.85C102.966 222.917 102.168 224.109 101.546 225.394C101.056 226.315 100.766 227.328 100.696 228.369C100.671 228.802 100.797 229.231 101.053 229.582C101.33 229.905 101.681 230.157 102.078 230.313C102.278 230.406 102.488 230.479 102.703 230.532C102.882 230.573 103.18 230.655 103.596 230.775C104.013 230.896 104.221 231.077 104.221 231.319C104.193 231.812 104.031 232.287 103.753 232.694C103.368 233.294 102.911 233.845 102.39 234.332C101.738 234.949 100.983 235.448 100.159 235.807C98.9965 236.342 97.7321 236.619 96.4528 236.619C95.1841 236.697 93.9234 236.363 92.8591 235.669C92.0422 235.074 91.5729 234.11 91.6091 233.1C91.7591 231.495 92.1972 229.931 92.9028 228.482L93.4403 227.35C93.7984 226.596 94.0672 226.057 94.2466 225.732C94.5716 225.107 94.7903 224.669 94.8716 224.413C94.9528 224.157 95.1153 223.825 95.2966 223.419C95.3622 223.281 95.3922 223.129 95.3841 222.975C95.3841 222.732 95.2778 222.613 95.0716 222.613C94.9841 222.613 94.8716 222.719 94.7341 222.938C94.5966 223.157 94.4716 223.369 94.3528 223.563L93.3278 225.55L92.0341 228.1C91.4941 229.16 91.0304 230.256 90.6466 231.382C90.4141 232.063 90.2341 232.76 90.1091 233.469C89.9879 234.171 89.9272 234.882 89.9279 235.594C89.9347 236.203 90.0247 236.809 90.1966 237.394C90.3872 238.05 90.706 238.661 91.1341 239.194C92.161 240.4 93.7128 241.035 95.2903 240.894C96.8109 240.925 98.3103 240.533 99.6215 239.763C100.284 239.378 100.899 238.917 101.453 238.388C101.984 237.886 102.477 237.345 102.928 236.769C103.81 235.514 104.489 234.128 104.94 232.663C105.407 231.312 105.665 229.898 105.703 228.469C105.795 227.792 105.524 227.114 104.99 226.688C104.847 226.584 104.689 226.502 104.521 226.444L103.965 226.244L103.159 225.875C102.976 225.69 102.866 225.447 102.846 225.188C102.961 224.788 103.176 224.424 103.471 224.132C104.008 223.485 104.613 222.901 105.278 222.388C105.827 221.899 106.444 221.49 107.109 221.175C107.554 220.946 108.041 220.808 108.54 220.769C108.643 220.774 108.743 220.809 108.828 220.869L109.165 221.094C109.346 221.094 109.553 220.932 109.79 220.607C109.853 220.525 110.021 220.207 110.303 219.657C110.533 219.236 110.741 218.805 110.928 218.363C111.047 218.055 111.137 217.737 111.196 217.413L111.159 217.419ZM129.815 234.782L129.19 236.369C128.924 236.938 128.602 237.478 128.227 237.981C127.977 238.356 127.669 238.69 127.315 238.969C126.891 239.21 126.442 239.404 125.977 239.55L125.04 239.894C124.561 240.044 124.084 240.202 123.609 240.369C123.145 240.525 122.665 240.626 122.177 240.669L121.996 240.581C121.996 240.381 122.532 239.952 123.602 239.294L125.346 238.094C125.642 237.894 125.969 237.65 126.327 237.363C126.743 237.025 127.134 236.657 127.496 236.263C127.866 235.885 128.147 235.43 128.321 234.932C128.326 234.845 128.341 234.759 128.365 234.675L127.202 234.763C126.709 234.781 126.228 234.603 125.865 234.269C125.534 234.008 125.364 233.593 125.415 233.175C125.459 232.895 125.534 232.62 125.64 232.357C125.759 232.044 126.027 231.469 126.446 230.638C126.677 230.158 126.947 229.698 127.252 229.263C127.64 228.744 128.015 228.488 128.371 228.488C128.974 228.492 129.545 228.759 129.934 229.219C130.378 229.697 130.618 230.33 130.602 230.982C130.602 231.327 130.573 231.672 130.515 232.013L130.359 232.913C130.315 233.169 130.246 233.482 130.159 233.838C130.084 234.155 129.979 234.465 129.846 234.763L129.815 234.782ZM123.084 229.05C123.054 229.628 122.979 230.203 122.859 230.769C122.709 231.569 122.559 232.271 122.409 232.875L121.871 235.013C121.571 235.817 121.334 236.405 121.159 236.775C120.939 237.233 120.692 237.677 120.421 238.106C120.234 238.406 120 238.675 119.728 238.9C119.347 239.171 118.943 239.407 118.521 239.606L116.915 240.231C116.571 240.338 116.22 240.424 115.865 240.488C115.52 240.572 115.169 240.631 114.815 240.663C114.665 240.663 114.578 240.613 114.546 240.513C114.522 240.385 114.554 240.253 114.634 240.15C114.948 239.728 115.333 239.365 115.771 239.075C116.384 238.617 116.988 238.173 117.584 237.744C118.267 237.144 118.773 236.671 119.103 236.325C119.614 235.791 120.064 235.2 120.44 234.563C120.592 234.28 120.719 233.986 120.821 233.682C120.984 233.236 121.244 232.513 121.602 231.513L122.14 229.963C122.202 229.732 122.29 229.457 122.409 229.125C122.527 228.794 122.677 228.632 122.859 228.632C122.968 228.75 123.046 228.894 123.084 229.05ZM192.27 232.45C192.27 232.107 192.27 231.55 192.358 230.775C192.433 229.855 192.537 228.938 192.67 228.025L193.433 222.782L193.614 221.663C193.668 221.438 193.683 221.205 193.658 220.975L193.477 221.063C193.21 221.609 192.852 222.411 192.402 223.469C191.952 224.527 191.714 225.115 191.689 225.232C191.481 226.636 191.212 228.663 190.883 231.313C190.554 233.963 190.389 235.455 190.389 235.788C190.352 236.903 190.541 238.016 190.945 239.056C191.267 239.881 192.093 240.405 192.977 240.344C193.602 240.344 194.212 239.88 194.808 238.95C195.515 237.731 196.013 236.402 196.283 235.019L196.395 234.463C196.433 234.292 196.456 234.118 196.464 233.944C196.464 233.657 196.389 233.513 196.239 233.513C196.089 233.513 196.027 233.644 195.952 233.9L195.752 234.588C195.422 235.475 195.05 235.919 194.633 235.919C194.142 235.933 193.658 235.798 193.245 235.532C192.528 234.933 192.158 234.01 192.264 233.082V232.457L192.27 232.45ZM117.496 219.657C117.554 219.966 117.53 220.284 117.428 220.582C117.297 220.969 117.132 221.344 116.934 221.7C116.699 222.13 116.391 222.516 116.021 222.838C115.874 223.017 115.668 223.139 115.44 223.182C115.204 223.103 114.99 222.97 114.815 222.794C114.54 222.565 114.257 222.342 113.965 222.125C113.746 221.96 113.537 221.78 113.34 221.588C113.199 221.484 113.103 221.329 113.071 221.157C113.251 220.786 113.384 220.5 113.471 220.3C113.771 219.675 113.99 219.213 114.14 218.925C114.409 218.494 114.678 218.05 114.946 217.594L115.215 217.207C115.298 217.288 115.388 217.361 115.484 217.425L115.84 217.638C116.293 217.968 116.712 218.343 117.09 218.757C117.301 219.017 117.441 219.327 117.496 219.657ZM140.915 213.944C140.861 213.615 140.723 213.305 140.515 213.044C140.136 212.631 139.717 212.256 139.265 211.926L138.909 211.713C138.812 211.651 138.722 211.58 138.64 211.501L138.371 211.888C138.104 212.346 137.835 212.79 137.565 213.219C137.415 213.507 137.192 213.965 136.896 214.594C136.809 214.794 136.671 215.082 136.496 215.45C136.529 215.623 136.624 215.777 136.765 215.882C136.962 216.074 137.17 216.254 137.39 216.419C137.677 216.632 137.96 216.852 138.24 217.082C138.414 217.259 138.629 217.392 138.865 217.469C139.093 217.427 139.299 217.305 139.446 217.125C139.817 216.804 140.128 216.419 140.365 215.988C140.563 215.631 140.728 215.257 140.858 214.869C140.961 214.572 140.985 214.253 140.927 213.944H140.915ZM145.515 213.688C145.572 213.997 145.548 214.316 145.446 214.613C145.316 215.001 145.151 215.375 144.952 215.732C144.718 216.162 144.41 216.548 144.04 216.869C143.893 217.049 143.687 217.17 143.458 217.213C143.223 217.134 143.009 217.001 142.833 216.825C142.558 216.596 142.275 216.374 141.983 216.157C141.764 215.991 141.555 215.812 141.358 215.619C141.218 215.514 141.122 215.36 141.09 215.188C141.271 214.819 141.402 214.526 141.49 214.332C141.707 213.869 141.929 213.411 142.158 212.957C142.388 212.502 142.657 212.059 142.965 211.626L143.233 211.238C143.315 211.318 143.405 211.389 143.502 211.451L143.858 211.669C144.311 212 144.73 212.375 145.108 212.788C145.321 213.047 145.463 213.357 145.521 213.688H145.515ZM186.558 213.369C186.615 213.679 186.591 213.997 186.489 214.294C186.36 214.682 186.194 215.056 185.995 215.413C185.76 215.843 185.452 216.228 185.083 216.55C184.935 216.73 184.73 216.852 184.502 216.894C184.266 216.815 184.052 216.682 183.877 216.507C183.602 216.277 183.319 216.055 183.027 215.838C182.807 215.673 182.598 215.494 182.402 215.301C182.261 215.196 182.165 215.042 182.133 214.869C182.312 214.499 182.445 214.213 182.533 214.013C182.833 213.388 183.052 212.926 183.202 212.638C183.47 212.207 183.739 211.763 184.008 211.307L184.277 210.919C184.359 211.001 184.449 211.074 184.545 211.138L184.902 211.351C185.355 211.681 185.774 212.055 186.152 212.469C186.365 212.728 186.501 213.039 186.558 213.369ZM143.19 208.369C143.134 208.039 142.994 207.729 142.783 207.469C142.406 207.054 141.987 206.68 141.533 206.351L141.177 206.138C141.08 206.077 140.99 206.006 140.908 205.926L140.64 206.313C140.371 206.769 140.102 207.213 139.834 207.644C139.684 207.932 139.459 208.388 139.165 209.019C139.077 209.219 138.94 209.507 138.759 209.876C138.79 210.048 138.887 210.202 139.027 210.307C139.209 210.482 139.421 210.663 139.652 210.869L140.502 211.538C140.68 211.705 140.894 211.829 141.127 211.901C141.355 211.858 141.561 211.736 141.708 211.557C142.078 211.235 142.387 210.849 142.621 210.419C142.819 210.062 142.985 209.687 143.115 209.301C143.217 209.003 143.24 208.685 143.183 208.376L143.19 208.369ZM122.146 55.3213L130.09 69.0711V134.264L147.496 146.926V193.282H127.227V150.583L107.228 130.583V82.3897L95.5403 62.1462H84.8654L91.7403 55.2713L122.146 55.3213ZM104.753 135.183L122.252 152.683V193.307H105.815L81.0717 155.258H37.791C41.241 146.276 46.9159 140.883 54.0408 144.476C54.1158 138.764 56.1783 135.208 65.8157 135.208L104.753 135.183ZM78.353 160.232L99.8465 193.282H89.6216L68.1781 160.232H78.353ZM172.764 193.282H152.496V146.926L169.902 134.27V69.0773L177.846 55.3275H208.233L215.108 62.2024H204.433L192.745 82.4459V130.639L172.746 150.639L172.764 193.282ZM218.92 155.233L194.177 193.282H177.764V152.658L195.264 135.158H234.182C243.82 135.158 245.888 138.714 245.957 144.426C253.101 140.814 258.776 146.226 262.207 155.208L218.92 155.233ZM200.17 193.282L221.664 160.232H231.845L210.37 193.282H200.17ZM77.8593 184.338H65.8344V178.651H74.1656L77.8593 184.338ZM234.164 184.338H222.132L225.826 178.651H234.157L234.164 184.338ZM156.74 21.2654H174.371L174.427 51.2651L164.902 67.7648V131.745L152.496 140.745V125.908L156.946 122.67V30.2403H143.046V122.664L147.496 125.902V140.739L135.09 131.714V67.7398L125.565 51.2651L125.621 21.2654H143.252V5.01562H156.746L156.74 21.2654ZM87.1342 130.183H92.1341V115.277H87.1342V130.183ZM97.259 130.183H102.259V83.7646L92.6841 67.1774H87.0154L97.259 84.9209V130.183ZM207.883 130.183H212.883V115.277H207.883V130.183ZM202.758 130.183H197.758V83.7646L207.333 67.1774H213.001L202.758 84.9209V130.183Z" fill="#1F261A"/>
<defs>
<linearGradient id="paint0_linear_58589_211419" x1="270.401" y1="0" x2="29.6104" y2="0" gradientUnits="userSpaceOnUse">
<stop stop-color="#D8AC4E"/>
<stop offset="1" stop-color="#ECE482"/>
</linearGradient>
</defs>
</svg>
