<svg width="300" height="300" viewBox="0 0 300 300" fill="none" xmlns="http://www.w3.org/2000/svg">
<path fill-rule="evenodd" clip-rule="evenodd" d="M232.337 235.642C211.639 255.556 184.007 266.69 155.285 266.69C109.417 266.69 68.0549 238.293 51.5738 195.489C51.2607 194.643 50.5363 194.013 49.6557 193.821C48.7814 193.6 47.852 193.839 47.1945 194.456L0.889466 236.714C0.340098 237.202 0.0188516 237.898 0.00260185 238.632C-0.0298977 239.365 0.243224 240.079 0.756967 240.603C30.5047 272.013 71.9117 289.828 115.173 289.828C163.027 289.828 208.366 268.03 238.251 230.654C238.31 230.584 238.343 230.495 238.343 230.403C238.343 230.189 238.167 230.013 237.953 230.013C237.839 230.013 237.73 230.064 237.656 230.151C235.953 232.004 234.18 233.834 232.337 235.642ZM173.424 88.8138C220.828 102.517 253.694 146.23 253.694 195.576C253.694 220.997 244.971 245.666 228.99 265.436C228.41 266.13 228.225 267.075 228.5 267.937C228.747 268.805 229.422 269.49 230.287 269.749L290.034 288.708C290.298 288.791 290.574 288.833 290.851 288.833C292.056 288.833 293.126 288.037 293.474 286.882C297.8 272.317 299.996 257.202 299.996 242.008C299.996 164.461 242.77 97.8581 166.107 86.1814C165.912 86.147 165.722 86.2682 165.671 86.4589C165.661 86.4926 165.657 86.5276 165.657 86.5626C165.657 86.7457 165.784 86.9057 165.962 86.9482C168.467 87.4776 170.954 88.0995 173.424 88.8138ZM75.7323 213.257C73.5773 204.535 72.4879 195.584 72.4879 186.6C72.4879 125.634 122.655 75.4665 183.621 75.4665C189.399 75.4665 195.168 75.9171 200.876 76.814C201.009 76.834 201.143 76.8434 201.277 76.8434C202.787 76.8434 204.029 75.6015 204.029 74.0915C204.029 73.904 204.01 73.7171 203.972 73.5334L190.516 12.3173C190.366 11.6004 189.926 10.9773 189.3 10.5973C188.682 10.1967 187.923 10.0717 187.209 10.2535C116.534 27.1452 66.2668 90.8413 66.2668 163.508C66.2668 183.137 69.9349 202.595 77.0816 220.877C77.1548 221.06 77.3535 221.162 77.5448 221.115C77.7135 221.072 77.8323 220.918 77.8323 220.744C77.8323 220.699 77.8248 220.655 77.8091 220.613C77.0416 218.205 76.3404 215.73 75.7323 213.257Z" fill="#832D6A"/>
<path d="M198.822 70.0733L187.008 16.359C186.924 15.9446 186.669 15.5846 186.307 15.3671C185.949 15.1403 185.51 15.0771 185.102 15.1946C119.199 32.3901 72.2881 91.5406 70.556 159.628C70.5481 159.83 70.7 160.005 70.9 160.025C71.0956 160.057 71.2838 159.928 71.3238 159.734C84.9161 103.12 139.29 65.1821 197.115 71.9652C197.177 71.9727 197.238 71.9764 197.299 71.9764C198.155 71.9764 198.86 71.2714 198.86 70.4152C198.86 70.3002 198.847 70.1858 198.822 70.0733Z" fill="url(#paint0_radial_58589_211542)"/>
<path d="M235.883 267.046L288.301 283.676C288.453 283.724 288.612 283.748 288.771 283.748C289.472 283.748 290.094 283.279 290.285 282.605C308.303 216.946 280.536 146.783 222.468 111.234C222.41 111.204 222.346 111.188 222.281 111.188C222.063 111.188 221.884 111.367 221.884 111.585C221.884 111.686 221.923 111.783 221.991 111.856C264.211 151.941 269.877 217.988 235.102 264.677C234.8 265.084 234.717 265.614 234.877 266.093C235.042 266.552 235.416 266.906 235.883 267.046Z" fill="url(#paint1_radial_58589_211542)"/>
<path d="M46.7836 200.631L6.1672 237.675C5.84407 237.955 5.65658 238.36 5.65066 238.787C5.64283 239.21 5.80533 239.62 6.10095 239.925C53.9554 288.386 128.629 299.432 188.465 266.901C188.647 266.807 188.723 266.583 188.637 266.398C188.564 266.216 188.362 266.118 188.174 266.173C132.347 282.708 72.302 254.591 49.2579 201.12C49.0667 200.655 48.6529 200.316 48.1598 200.221C47.6611 200.106 47.1379 200.262 46.7836 200.631Z" fill="url(#paint2_radial_58589_211542)"/>
<path fill-rule="evenodd" clip-rule="evenodd" d="M151.65 125.012C181.587 120.132 209.854 140.474 214.735 170.411C219.616 200.347 199.274 228.615 169.337 233.496C139.4 238.377 111.132 218.035 106.252 188.098C101.37 158.161 121.713 129.893 151.65 125.012Z" fill="#FAA61A"/>
<path fill-rule="evenodd" clip-rule="evenodd" d="M208.086 161.642C198.377 135.368 169.165 121.919 142.891 131.628C116.617 141.337 103.168 170.55 112.877 196.823C122.585 223.097 151.798 236.546 178.072 226.837C204.345 217.129 217.795 187.916 208.086 161.642Z" fill="url(#paint3_radial_58589_211542)"/>
<defs>
<radialGradient id="paint0_radial_58589_211542" cx="0" cy="0" r="1" gradientTransform="matrix(78.124 -40.6245 53.5023 79.1908 115.621 75.0035)" gradientUnits="userSpaceOnUse">
<stop stop-color="#EC008C" stop-opacity="0.407843"/>
<stop offset="1" stop-color="#621A4F"/>
</radialGradient>
<radialGradient id="paint1_radial_58589_211542" cx="0" cy="0" r="1" gradientTransform="matrix(-3.12496 -65.6242 347.546 45.559 287.497 212.504)" gradientUnits="userSpaceOnUse">
<stop stop-color="#EC008C" stop-opacity="0.407843"/>
<stop offset="1" stop-color="#621A4F"/>
</radialGradient>
<radialGradient id="paint2_radial_58589_211542" cx="0" cy="0" r="1" gradientUnits="userSpaceOnUse" gradientTransform="translate(81.248 271.852) rotate(19.179) scale(76.0978 71.6116)">
<stop stop-color="#EC008C" stop-opacity="0.407843"/>
<stop offset="1" stop-color="#621A4F"/>
</radialGradient>
<radialGradient id="paint3_radial_58589_211542" cx="0" cy="0" r="1" gradientUnits="userSpaceOnUse" gradientTransform="translate(137.312 152.637) rotate(180) scale(74.3932)">
<stop stop-color="#FFE293"/>
<stop offset="1" stop-color="#FAA61A"/>
</radialGradient>
</defs>
</svg>
