<svg width="300" height="300" viewBox="0 0 300 300" fill="none" xmlns="http://www.w3.org/2000/svg">
<path d="M150.349 0L183.444 33.1322L100.436 116.572C76.038 141.108 34.4492 130.973 18.6828 95.1635C19.7582 95.2594 20.8318 95.36 21.903 95.4603C37.2885 96.9013 52.1853 98.2966 64.9698 85.2636L150.349 0Z" fill="#029A4C"/>
<path d="M33.0947 116.935L0 150.072L85.167 235.543C98.1875 248.349 96.791 263.266 95.3493 278.666C95.2492 279.735 95.1489 280.807 95.0532 281.88C130.827 266.101 140.95 224.47 116.44 200.037L33.0947 116.935Z" fill="#029A4C"/>
<path d="M116.762 266.867L149.862 299.996L235.234 214.735C248.027 201.698 262.93 203.096 278.314 204.539C279.38 204.639 280.448 204.74 281.518 204.835C265.76 169.024 224.171 158.889 199.768 183.424L116.762 266.867Z" fill="#029A4C"/>
<path d="M266.902 182.989L299.996 149.852L214.829 64.383C201.81 51.5785 203.205 36.6612 204.644 21.2651C204.745 20.1942 204.845 19.1209 204.941 18.046C169.172 33.8227 159.048 75.4588 183.556 99.8895L266.902 182.989Z" fill="#029A4C"/>
<path fill-rule="evenodd" clip-rule="evenodd" d="M103.125 150.009C103.125 124.124 124.114 103.125 150.003 103.125C175.882 103.125 196.874 124.124 196.874 150.009C196.874 175.901 175.882 196.874 150.001 196.874C124.114 196.874 103.125 175.889 103.125 150.009" fill="#EB8C30"/>
</svg>
