<svg width="300" height="300" viewBox="0 0 300 300" fill="none" xmlns="http://www.w3.org/2000/svg">
<path fill-rule="evenodd" clip-rule="evenodd" d="M101.716 66.0405C97.5307 70.699 96.264 73.4525 96.0411 78.3658C95.7864 84.0252 96.1101 84.8956 102.336 95.336C107.289 103.644 108.331 104.349 111.967 101.866C112.844 101.268 114.797 99.9293 116.306 98.893C122.945 94.3351 131.828 90.8629 140.363 89.493C147.751 88.3067 147.83 88.0877 144.966 76.5439C142.518 66.6624 141.971 65.4207 138.557 61.9643C133.926 57.2791 127.355 55.4622 118.988 56.5608C112.204 57.4516 106.738 60.4522 101.716 66.0405ZM155.291 75.9773C152.201 87.9277 152.323 88.2968 159.772 89.493C169.678 91.084 179.386 95.2412 187.167 101.224C190.243 103.591 192.761 103.5 194.439 100.966C204.853 85.2193 206.539 77.8368 201.499 70.0358C194.932 59.8733 184.661 55.0936 172.596 56.5844C162.746 57.806 158.862 62.1557 155.291 75.9773ZM58.5369 133.822C61.2699 139.62 64.9244 141.888 76.0931 144.711C87.7987 147.669 88.5603 147.468 89.4128 141.215C90.729 131.562 94.7604 121.789 100.848 113.498C104.739 108.198 104.449 107.606 95.2557 102.108C83.9587 95.3518 80.3141 94.4003 73.9856 96.5558C60.3701 101.197 52.3172 120.622 58.5369 133.822ZM204.879 102.108C195.725 107.584 195.388 108.257 199.21 113.429C205.242 121.591 209.268 131.355 210.736 141.396C211.622 147.452 212.346 147.634 223.939 144.728C236.868 141.487 241.117 138.133 242.979 129.704C247.039 111.343 232.031 92.3415 216.502 96.1806C213.97 96.8044 212.447 97.5822 204.879 102.108ZM62.1066 161.434C46.4091 177.207 64.9993 210.459 85.4525 203.187C87.9348 202.303 101.464 194.381 102.271 193.337C103.662 191.537 103.277 189.701 100.82 186.4C94.94 178.508 90.652 168.064 89.3871 158.556C88.5801 152.492 87.629 152.235 76.5629 155.085C66.432 157.695 65.3585 158.165 62.1066 161.434ZM210.762 158.303C209.291 168.544 205.335 178.202 199.165 186.613C195.352 191.811 195.652 192.379 205.207 198.074C219.497 206.588 225.401 206.501 234.709 197.638C247.249 185.694 246.614 163.844 233.559 158.021C232.047 157.348 215.515 152.92 214.714 152.975C214.612 152.981 214.071 153.186 213.514 153.429C211.843 154.158 211.192 155.312 210.762 158.303ZM99.1529 209.936C93.7283 219.379 94.8412 227.022 102.821 235.098C114.911 247.336 135.98 246.424 142.052 233.4C142.928 231.517 146.944 216.156 146.942 214.691C146.938 212.458 145.3 211.3 141.231 210.65C130.988 209.012 121.522 205.113 113.692 199.304C110.764 197.133 108.889 196.59 107.229 197.431C106.519 197.792 102.999 203.242 99.1529 209.936ZM159.44 210.542C152.412 211.582 152.268 212.02 155.182 223.552C157.655 233.331 158.324 234.837 161.662 238.149C175.031 251.408 204.175 239.32 204.22 220.496C204.232 215.753 202.43 211.75 194.914 199.817C192.753 196.385 190.656 196.091 187.202 198.737C179.438 204.691 169.011 209.124 159.44 210.542Z" fill="#FF7F31"/>
<path d="M149.998 0C111.483 0 79.5794 28.5284 74.2836 65.5888C94.3313 47.385 120.887 36.2947 149.998 36.2947C179.109 36.2947 205.665 47.385 225.713 65.5888C220.417 28.5284 188.513 0 149.998 0Z" fill="#37389A"/>
<path d="M65.6963 74.268C47.818 94.3817 36.9437 120.923 36.9437 149.998C36.9437 179.074 47.818 205.615 65.6963 225.728C28.5836 220.479 0 188.55 0 149.998C0 111.446 28.5836 79.5173 65.6963 74.268Z" fill="#37389A"/>
<path d="M299.996 149.998C299.996 111.446 271.413 79.5173 234.3 74.268C252.179 94.3817 263.054 120.923 263.054 149.998C263.054 179.074 252.179 205.615 234.3 225.728C271.413 220.479 299.996 188.55 299.996 149.998Z" fill="#37389A"/>
<path fill-rule="evenodd" clip-rule="evenodd" d="M145.119 93.9193C109.859 96.5524 85.7593 132.36 96.2057 166.592C110.208 212.468 172.304 220.665 197.584 179.975C222.07 140.559 191.524 90.4526 145.119 93.9193ZM145.551 180.165C145.848 180.942 145.772 193.944 145.467 194.133C144.587 194.679 134.159 180.864 134.739 179.92C135.064 179.395 145.346 179.629 145.551 180.165ZM185.706 179.999C186.499 181.283 176.368 189.164 169.855 192.331C164.759 194.808 164.524 194.72 167.004 191.268C169.347 188.003 171.846 183.888 172.958 181.453L173.771 179.674H179.639C183.385 179.674 185.579 179.791 185.706 179.999ZM124.455 179.674H119.395C115.317 179.674 114.334 179.756 114.334 180.1C114.334 182.086 129.534 193.378 132.207 193.378C132.62 193.378 132.183 192.595 129.692 188.857C128.22 186.648 126.438 183.678 125.735 182.258L124.455 179.674ZM158.936 179.674H154.447V186.048C154.447 191.031 154.531 192.387 154.835 192.255C156.014 191.745 163.97 180.552 163.591 179.937C163.502 179.791 161.407 179.674 158.936 179.674ZM145.589 154.833C145.682 155.218 145.719 158.967 145.673 163.164L145.585 170.797L130.215 170.963L129.426 168.367C127.989 163.654 126.474 155.179 126.933 154.435C127.047 154.25 130.687 154.132 136.267 154.132H145.417L145.589 154.833ZM114.468 170.952C117.985 170.952 120.862 170.847 120.862 170.718C120.862 170.589 120.448 168.847 119.944 166.848C119.117 163.574 118.216 158.281 117.992 155.379L117.908 154.287L110.891 154.205C107.033 154.158 103.779 154.216 103.661 154.334C102.77 155.229 104.779 163.786 107.035 168.694L108.074 170.952H114.468ZM168.049 170.952L169.043 167.545C170.323 163.155 171.185 158.866 171.303 156.313L171.394 154.287L163.132 154.205C158.589 154.16 154.776 154.218 154.658 154.334C154.542 154.452 154.447 158.238 154.447 162.749V170.952H168.049ZM192.011 170.952L193.126 168.281C194.848 164.16 196.923 155.698 196.5 154.521C196.343 154.085 180.723 153.934 180.465 154.365C180.389 154.495 180.23 155.509 180.113 156.623C179.741 160.155 178.693 166.158 178.064 168.358C177.73 169.526 177.458 170.587 177.458 170.716C177.458 170.847 180.732 170.952 184.734 170.952H192.011ZM145.551 128.149C145.654 128.42 145.74 132.263 145.74 136.69C145.74 141.115 145.654 144.958 145.551 145.229C145.327 145.814 127.287 145.993 126.929 145.416C126.183 144.205 129.709 128.667 130.905 127.904C131.719 127.387 145.346 127.615 145.551 128.149ZM114.813 127.656H108.742L107.533 130.07C105.374 134.38 102.934 143.616 103.538 145.195C103.727 145.688 104.352 145.726 110.816 145.649L117.89 145.567L118.252 142.296C118.683 138.398 119.39 134.81 120.44 131.179C120.864 129.714 121.138 128.321 121.046 128.086C120.916 127.742 119.681 127.656 114.813 127.656ZM167.883 128.902C169.282 131.769 171.926 143.978 171.429 145.277C171.28 145.664 170.002 145.72 162.929 145.649L154.602 145.567L154.52 137.006C154.473 132.296 154.505 128.263 154.589 128.045C154.708 127.733 156.138 127.661 161.047 127.729L167.351 127.813L167.883 128.902ZM196.582 145.567L196.481 144.32C196.175 140.57 194.24 133.769 192.449 130.145L191.296 127.813L177.075 127.645L177.245 128.506C177.338 128.981 177.777 130.771 178.217 132.485C178.956 135.348 179.583 138.933 180.182 143.698L180.415 145.567H196.582ZM145.74 112.075C145.74 115.478 145.654 118.484 145.551 118.754C145.335 119.317 135.678 119.51 135.336 118.956C134.829 118.136 144.682 105.235 145.451 105.712C145.613 105.811 145.74 108.601 145.74 112.075ZM179.029 119.246C182.695 119.246 184.645 119.132 184.783 118.908C185.492 117.758 175.334 109.892 170.138 107.566L169.934 107.474C167.099 106.204 165.738 105.594 165.499 105.891C165.277 106.165 166.011 107.21 167.422 109.22L167.532 109.377C168.875 111.292 170.765 114.297 171.732 116.054L173.485 119.246H179.029ZM124.897 119.246L126.028 116.988C127.054 114.944 130.892 108.911 131.943 107.698C132.178 107.427 132.368 107.042 132.368 106.841C132.368 106.28 132.148 106.362 128.418 108.315C123.188 111.053 114.531 117.996 115.132 118.969C115.225 119.123 117.461 119.246 120.1 119.246H124.897ZM156.727 109.582C159.442 112.886 163.243 118.659 162.918 118.984C162.763 119.139 160.828 119.227 158.619 119.179L154.602 119.091L154.51 112.708C154.459 109.288 154.438 107.837 154.832 107.714C155.122 107.623 155.637 108.252 156.532 109.345L156.727 109.582Z" fill="#37389A"/>
<path d="M225.713 234.407C220.417 271.468 188.513 299.996 149.998 299.996C111.483 299.996 79.5794 271.468 74.2836 234.407C94.3313 252.612 120.887 263.702 149.998 263.702C179.109 263.702 205.665 252.612 225.713 234.407Z" fill="#37389A"/>
</svg>
