<svg width="450" height="450" viewBox="0 0 450 450" fill="none" xmlns="http://www.w3.org/2000/svg">
<path fill-rule="evenodd" clip-rule="evenodd" d="M152.581 99.0609C146.303 106.049 144.403 110.179 144.068 117.549C143.686 126.038 144.172 127.344 153.51 143.005C160.94 155.467 162.503 156.524 167.958 152.8C169.272 151.902 172.203 149.895 174.467 148.34C184.424 141.503 197.75 136.295 210.552 134.24C221.634 132.461 221.752 132.132 217.457 114.816C213.784 99.9937 212.964 98.1313 207.843 92.9466C200.896 85.9186 191.04 83.1932 178.489 84.8412C168.313 86.1774 160.114 90.6784 152.581 99.0609ZM232.944 113.966C228.309 131.892 228.492 132.446 239.666 134.24C254.525 136.627 269.088 142.863 280.759 151.837C285.373 155.387 289.15 155.251 291.666 151.449C307.289 127.83 309.817 116.756 302.257 105.054C292.406 89.8101 277 82.6403 258.903 84.8767C244.126 86.709 238.301 93.2337 232.944 113.966ZM87.8113 200.735C91.9108 209.431 97.3927 212.833 114.146 217.067C131.705 221.506 132.847 221.204 134.126 211.824C136.1 197.344 142.147 182.685 151.278 170.248C157.115 162.298 156.681 161.41 142.89 153.164C125.944 143.028 120.477 141.601 110.985 144.835C90.5611 151.796 78.4815 180.934 87.8113 200.735ZM307.327 153.164C293.596 161.377 293.09 162.387 298.824 170.145C307.872 182.388 313.91 197.033 316.112 212.096C317.442 221.18 318.528 221.453 335.917 217.094C355.311 212.232 361.685 207.201 364.478 194.558C370.568 167.015 348.056 138.513 324.762 144.272C320.964 145.207 318.679 146.374 307.327 153.164ZM93.1659 242.153C69.6193 265.813 97.505 315.691 128.185 304.783C131.909 303.457 152.202 291.574 153.413 290.008C155.5 287.307 154.922 284.554 151.237 279.603C142.417 267.765 135.984 252.098 134.087 237.836C132.877 228.739 131.45 228.354 114.851 232.63C99.654 236.544 98.0438 237.249 93.1659 242.153ZM316.151 237.456C313.946 252.818 308.011 267.306 298.756 279.923C293.037 287.719 293.487 288.572 307.819 297.114C329.255 309.885 338.111 309.754 352.073 296.46C370.883 278.543 369.93 245.768 350.347 237.033C348.08 236.023 323.281 229.382 322.08 229.465C321.926 229.474 321.115 229.782 320.28 230.146C317.773 231.239 316.796 232.971 316.151 237.456ZM148.736 314.906C140.599 329.072 142.268 340.536 154.238 352.65C172.374 371.008 203.978 369.64 213.085 350.103C214.4 347.279 220.423 324.236 220.42 322.039C220.414 318.691 217.958 316.952 211.854 315.978C196.489 313.521 182.29 307.673 170.545 298.959C166.152 295.702 163.34 294.887 160.851 296.149C159.786 296.69 154.505 304.866 148.736 314.906ZM239.168 315.816C228.625 317.376 228.409 318.033 232.781 335.331C236.49 350 237.493 352.259 242.501 357.227C262.555 377.116 306.271 358.984 306.339 330.748C306.357 323.632 303.654 317.628 292.38 299.728C289.138 294.58 285.992 294.138 280.812 298.109C269.165 307.039 253.524 313.689 239.168 315.816Z" fill="#FF7F31"/>
<path d="M225 0C167.227 0 119.371 42.7932 111.427 98.3844C141.499 71.0784 181.333 54.4428 225 54.4428C268.667 54.4428 308.501 71.0784 338.573 98.3844C330.629 42.7932 282.773 0 225 0Z" fill="#37389A"/>
<path d="M98.5457 111.403C71.7278 141.574 55.4162 181.386 55.4162 225C55.4162 268.614 71.7278 308.426 98.5457 338.597C42.876 330.723 0 282.829 0 225C0 167.171 42.876 119.277 98.5457 111.403Z" fill="#37389A"/>
<path d="M450 225C450 167.171 407.124 119.277 351.454 111.403C378.274 141.574 394.585 181.386 394.585 225C394.585 268.614 378.274 308.426 351.454 338.597C407.124 330.723 450 282.829 450 225Z" fill="#37389A"/>
<path fill-rule="evenodd" clip-rule="evenodd" d="M217.681 140.881C164.791 144.83 128.641 198.542 144.31 249.89C165.315 318.706 258.46 331.002 296.379 269.965C333.109 210.84 287.289 135.681 217.681 140.881ZM218.33 270.251C218.775 271.417 218.66 290.92 218.204 291.203C216.883 292.022 201.241 271.299 202.112 269.884C202.599 269.096 218.022 269.446 218.33 270.251ZM278.563 270.001C279.752 271.927 264.555 283.749 254.785 288.501C247.142 292.215 246.79 292.083 250.509 286.906C254.024 282.008 257.772 275.835 259.44 272.182L260.66 269.514H269.461C275.081 269.514 278.373 269.69 278.563 270.001ZM186.685 269.514H179.095C172.977 269.514 171.502 269.637 171.502 270.153C171.502 273.133 194.303 290.071 198.314 290.071C198.932 290.071 198.277 288.896 194.541 283.289C192.333 279.976 189.66 275.521 188.605 273.391L186.685 269.514ZM238.408 269.514H231.674V279.076C231.674 286.549 231.8 288.585 232.256 288.386C234.025 287.62 245.958 270.831 245.39 269.909C245.256 269.69 242.114 269.514 238.408 269.514ZM218.386 232.252C218.526 232.83 218.582 238.453 218.512 244.749L218.38 256.198L195.325 256.448L194.141 252.554C191.986 245.484 189.713 232.771 190.402 231.655C190.573 231.377 196.033 231.201 204.404 231.201H218.128L218.386 232.252ZM171.704 256.431C176.98 256.431 181.295 256.274 181.295 256.08C181.295 255.887 180.674 253.274 179.918 250.275C178.678 245.363 177.326 237.424 176.991 233.071L176.865 231.433L166.339 231.31C160.551 231.24 155.67 231.327 155.494 231.503C154.156 232.846 157.17 245.683 160.554 253.044L162.113 256.431H171.704ZM252.076 256.431L253.568 251.32C255.488 244.735 256.781 238.302 256.957 234.472L257.094 231.433L244.702 231.31C237.887 231.243 232.166 231.33 231.99 231.503C231.816 231.68 231.674 237.36 231.674 244.127V256.431H252.076ZM288.019 256.431L289.693 252.425C292.276 246.243 295.388 233.55 294.753 231.784C294.518 231.131 271.087 230.903 270.701 231.551C270.587 231.745 270.349 233.267 270.172 234.938C269.616 240.236 268.043 249.24 267.099 252.54C266.598 254.292 266.19 255.884 266.19 256.077C266.19 256.274 271.101 256.431 277.105 256.431H288.019ZM218.33 192.226C218.484 192.633 218.613 198.396 218.613 205.037C218.613 211.676 218.484 217.439 218.33 217.846C217.994 218.723 190.934 218.992 190.396 218.126C189.277 216.309 194.566 193.003 196.36 191.859C197.58 191.082 218.022 191.424 218.33 192.226ZM172.222 191.486H163.115L161.301 195.108C158.063 201.572 154.402 215.427 155.309 217.795C155.592 218.535 156.529 218.591 166.227 218.476L176.836 218.353L177.38 213.447C178.026 207.6 179.087 202.217 180.662 196.771C181.298 194.573 181.709 192.484 181.572 192.131C181.376 191.615 179.524 191.486 172.222 191.486ZM251.827 193.356C253.926 197.656 257.892 215.97 257.147 217.919C256.923 218.499 255.006 218.583 244.397 218.476L231.906 218.353L231.783 205.511C231.713 198.447 231.76 192.397 231.887 192.069C232.065 191.601 234.209 191.494 241.573 191.595L251.029 191.722L251.827 193.356ZM294.876 218.353L294.725 216.483C294.266 210.857 291.364 200.656 288.677 195.22L286.948 191.722L265.616 191.469L265.871 192.762C266.011 193.474 266.668 196.159 267.329 198.73C268.437 203.025 269.378 208.401 270.276 215.55L270.626 218.353H294.876ZM218.613 168.115C218.613 173.22 218.484 177.728 218.33 178.134C218.005 178.978 203.519 179.267 203.007 178.437C202.246 177.206 217.026 157.855 218.179 158.569C218.422 158.718 218.613 162.904 218.613 168.115ZM268.546 178.871C274.046 178.871 276.97 178.7 277.177 178.364C278.241 176.64 263.005 164.841 255.211 161.35L254.904 161.213C250.651 159.308 248.61 158.394 248.251 158.838C247.919 159.249 249.02 160.817 251.136 163.833L251.301 164.067C253.316 166.94 256.151 171.448 257.601 174.083L260.231 178.871H268.546ZM187.348 178.871L189.044 175.485C190.584 172.418 196.341 163.369 197.916 161.549C198.269 161.143 198.554 160.566 198.554 160.263C198.554 159.422 198.224 159.545 192.63 162.475C184.785 166.582 171.799 176.996 172.7 178.456C172.84 178.686 176.193 178.871 180.153 178.871H187.348ZM235.094 164.375C239.166 169.332 244.867 177.991 244.38 178.479C244.147 178.711 241.245 178.843 237.932 178.77L231.906 178.639L231.768 169.064C231.692 163.934 231.66 161.757 232.25 161.572C232.686 161.436 233.459 162.38 234.802 164.019L235.094 164.375Z" fill="#37389A"/>
<path d="M338.573 351.616C330.629 407.207 282.773 450 225 450C167.227 450 119.371 407.207 111.427 351.616C141.499 378.923 181.333 395.558 225 395.558C268.667 395.558 308.501 378.923 338.573 351.616Z" fill="#37389A"/>
</svg>
