<svg width="300" height="300" viewBox="0 0 300 300" fill="none" xmlns="http://www.w3.org/2000/svg">
<path fill-rule="evenodd" clip-rule="evenodd" d="M144.901 1.6059L71.8564 43.5623L71.4482 43.7931C64.3602 47.9493 59.604 55.6189 59.604 64.396V212.169L98.996 189.545L98.7672 189.032L98.7548 188.995L98.5043 188.401L98.2693 187.816L98.2353 187.73L98.0002 187.13L97.7745 186.527L97.7683 186.503L97.7621 186.497L97.5395 185.881L97.323 185.251L97.3168 185.232L97.1065 184.608L96.8993 183.959L96.8962 183.946L96.89 183.934L96.8344 183.752L96.7787 183.577C96.689 183.276 96.5993 182.965 96.5128 182.657L96.5066 182.648L96.3272 181.999L96.1509 181.337L96.1448 181.316V181.307L96.052 180.934L95.9561 180.565C95.8015 179.938 95.6623 179.304 95.5293 178.667L95.5263 178.658L95.3933 177.984L95.2727 177.335V177.317L95.2665 177.292V177.277L95.1459 176.609L95.0407 175.941C94.8985 175.012 94.7779 174.089 94.6882 173.176L94.6851 173.148L94.6202 172.483L94.5614 171.776L94.5119 171.071L94.4748 170.401L94.4717 170.376V170.367L94.4377 169.656L94.4161 168.967V168.952L94.4037 168.232L94.3975 167.524L94.4037 166.838L94.4161 166.155L94.4315 165.694L94.4377 165.561L94.4655 164.786L94.4934 164.312L94.5026 164.208L94.5088 164.128L94.5521 163.436L94.6665 162.088L94.7346 161.454L94.8181 160.731L94.8954 160.138L94.9974 159.406L95.0933 158.793L95.2139 158.067L95.3191 157.492L95.4582 156.757L95.5757 156.166C95.6438 155.834 95.6902 155.628 95.7365 155.428L95.8572 154.902L96.0427 154.148L96.185 153.588L96.352 152.973L96.4045 152.776L96.522 152.351L96.6396 151.951L96.7663 151.542L96.9426 150.964L97.1251 150.388L97.3106 149.829L97.3879 149.61C97.4993 149.29 97.6106 148.973 97.7436 148.607L97.9198 148.143L97.9229 148.13L97.9539 148.047C98.0219 147.872 98.093 147.678 98.2105 147.38L98.4487 146.792L98.6775 146.232L99.0146 145.457L99.2125 145.008L99.4877 144.405L99.7413 143.86L100.041 143.245L100.329 142.676L100.632 142.085L100.904 141.568L101.077 141.251L101.244 140.941L101.529 140.439L101.554 140.393C101.646 140.23 101.736 140.067 101.884 139.821L102.166 139.344L102.169 139.335L102.221 139.246L102.534 138.735L102.825 138.27L103.245 137.606L103.35 137.452L103.703 136.917L104.065 136.388C104.68 135.486 105.323 134.609 105.985 133.76L106.433 133.185L106.733 132.822L106.941 132.564L107.219 132.225L107.507 131.887L107.772 131.576L108.02 131.29L108.277 131.004L108.626 130.613L108.895 130.318L109.164 130.026L109.464 129.706L109.77 129.383L110.079 129.063L110.293 128.847L110.648 128.487L111.007 128.134L111.143 128.001L111.511 127.647L111.885 127.297L112.08 127.115L112.458 126.765L112.847 126.414L112.912 126.358L113.339 125.977L113.781 125.599L113.828 125.559L113.837 125.552C114.115 125.312 114.384 125.088 114.619 124.897C114.851 124.706 115.117 124.494 115.414 124.257C116.79 123.171 118.21 122.15 119.682 121.202L119.74 121.159L120.232 120.849L120.721 120.541L120.789 120.501L121.271 120.209L121.747 119.923L121.893 119.839L122.026 119.763L122.162 119.686C122.4 119.547 122.626 119.418 122.827 119.307L122.984 119.221L123.442 118.969L123.909 118.72L124.122 118.609L124.605 118.36L125.081 118.117L125.158 118.08L125.7 117.815L126.235 117.557L126.253 117.551C126.723 117.329 127.199 117.111 127.679 116.905C128.136 116.705 128.622 116.502 129.132 116.299C131.634 115.293 134.222 114.459 136.882 113.825L136.928 113.813L137.516 113.674L138.097 113.545L138.196 113.524L138.793 113.401L139.402 113.284L139.436 113.277L140.021 113.167L140.618 113.065L140.772 113.037L141.348 112.945L141.932 112.862L142.006 112.847L142.609 112.767L143.2 112.69L143.249 112.684L143.797 112.613L143.794 112.065V52.8316C143.794 51.8103 144.004 50.995 144.347 50.3828C144.644 49.8567 145.043 49.466 145.51 49.2137C145.983 48.9584 146.527 48.8292 147.1 48.8292C147.848 48.8292 148.643 49.0476 149.391 49.4599L240.356 101.769V64.396C240.356 55.8865 235.879 48.4108 229.137 44.1776L155.19 1.7105C153.244 0.602981 151.63 0.0246115 150.007 0C149.969 0 149.932 0 149.895 0C148.306 0 146.744 0.532223 144.901 1.6059ZM156.216 112.419L156.779 112.481L156.819 112.487L157.456 112.57L158.087 112.656L158.177 112.674L158.817 112.77L159.457 112.874L159.479 112.881L160.137 112.997L160.793 113.124L160.812 113.127L161.461 113.262L162.126 113.404L162.154 113.413L162.339 113.456L162.519 113.496C162.831 113.567 163.143 113.647 163.456 113.724H163.465L164.124 113.893L164.785 114.071L164.807 114.077L164.813 114.083L165.188 114.185L165.552 114.29C166.174 114.474 166.799 114.668 167.417 114.871L167.436 114.877L168.082 115.096L168.71 115.317L168.725 115.323L168.75 115.336L168.762 115.339L169.403 115.572L170.037 115.812L170.043 115.816C170.924 116.157 171.781 116.517 172.619 116.889L172.647 116.898L173.259 117.181L173.902 117.483L174.539 117.794L175.142 118.095L175.167 118.104L175.176 118.111L175.81 118.437L176.419 118.766L176.432 118.772L177.069 119.12L177.687 119.467L178.278 119.815L178.869 120.169L179.376 120.482L180.035 120.901L180.437 121.159L180.52 121.215L180.582 121.261L180.665 121.313L181.166 121.645L181.68 121.996L182.283 122.418L182.802 122.793L183.39 123.23L183.866 123.59L184.454 124.048L184.939 124.436L185.511 124.9L185.96 125.279L186.529 125.765L186.983 126.165C187.237 126.389 187.395 126.531 187.546 126.672L187.945 127.035L188.508 127.577L188.925 127.977L189.374 128.426L189.835 128.884L190.125 129.186L190.413 129.499L190.833 129.939L191.239 130.386L191.634 130.825L191.786 131.004C192.009 131.259 192.231 131.511 192.482 131.81L192.797 132.194L192.806 132.201L192.862 132.271C192.986 132.419 193.113 132.576 193.317 132.825L193.709 133.324L194.081 133.803L194.514 134.382L194.588 134.48L194.882 134.874L195.268 135.412L195.614 135.905L195.998 136.468L196.354 137.003L196.715 137.557L197.028 138.052L197.223 138.36L197.405 138.658L197.699 139.153L197.727 139.199C197.822 139.359 197.918 139.519 198.061 139.769L198.336 140.252L198.339 140.258L198.391 140.347L198.682 140.87L198.939 141.356L199.124 141.701L199.31 142.051L199.387 142.211L199.39 142.217L199.397 142.221L199.678 142.787L199.959 143.365C200.436 144.349 200.878 145.34 201.286 146.334L201.391 146.586L201.561 147.011L201.731 147.444L202.004 148.164L202.155 148.583L202.291 148.964L202.418 149.321L202.542 149.687L202.705 150.182L202.829 150.564L202.95 150.942L203.203 151.779L203.327 152.21L203.411 152.499L203.673 153.471L203.72 153.656L203.847 154.154L203.961 154.646L204.023 154.902L204.14 155.406L204.249 155.92L204.264 156.003L204.382 156.563L204.493 157.129L204.505 157.19V157.203C204.573 157.563 204.635 157.907 204.685 158.203C204.734 158.498 204.79 158.833 204.842 159.209C205.099 160.935 205.278 162.673 205.374 164.411L205.377 164.485L205.405 165.066L205.424 165.638L205.427 165.718L205.439 166.281L205.449 166.832V167.306C205.452 167.583 205.449 167.841 205.445 168.069L205.433 168.767L205.415 169.296L205.408 169.533L205.353 170.607L205.35 170.69L205.309 171.293L205.266 171.877V171.899C205.22 172.416 205.17 172.933 205.111 173.453C205.056 173.948 204.988 174.465 204.914 175.006C204.536 177.664 203.967 180.31 203.194 182.919L203.179 182.965L203.002 183.537L202.826 184.106L202.795 184.202L202.603 184.777L202.402 185.361L202.393 185.392L202.195 185.949L201.982 186.518L201.929 186.663L201.722 187.207L201.506 187.752L201.481 187.826L201.249 188.379L201.02 188.933L201.002 188.976L200.788 189.484L201.267 189.758L252.835 219.371C253.725 219.882 254.325 220.467 254.69 221.076C254.999 221.59 255.135 222.131 255.123 222.66C255.114 223.192 254.947 223.725 254.662 224.22C254.285 224.866 253.704 225.441 252.971 225.881L162.896 277.55L161.947 278.091L162.896 278.639L194.483 296.778C201.895 301.038 210.638 300.915 217.695 297.224L291.636 254.75C293.575 253.628 294.886 252.526 295.718 251.139C296.553 249.748 296.89 248.111 296.872 245.936V161.562C296.797 153.379 292.499 145.442 284.86 141.055L156.216 67.1678V112.419ZM15.1217 141.067C7.71213 145.325 3.4445 152.92 3.12598 160.842L3.13525 245.783C3.14453 248.013 3.44759 249.696 4.23618 251.105C5.02785 252.52 6.28649 253.624 8.18837 254.701L81.2359 296.655L81.6379 296.888C88.8001 300.915 97.8611 301.18 105.5 296.793L233.197 223.451L234.141 222.903L195.24 200.562L194.749 200.282L194.415 200.734L194.411 200.741L194.39 200.765L193.997 201.276L193.607 201.771L193.549 201.842L193.144 202.346L192.732 202.842L192.717 202.86L192.714 202.866L192.287 203.368L191.848 203.869L191.835 203.885L191.396 204.38L190.936 204.881L190.923 204.888L190.914 204.9L190.787 205.038L190.66 205.174C190.444 205.404 190.221 205.632 189.995 205.866L189.986 205.872L189.516 206.352L189.024 206.835L189.009 206.85L189.003 206.853L188.727 207.124L188.452 207.389C187.982 207.835 187.503 208.272 187.011 208.705L187.005 208.712L186.485 209.164L185.978 209.595L185.966 209.604L185.944 209.619L185.935 209.628L185.409 210.065L184.884 210.493C184.148 211.08 183.399 211.64 182.654 212.176L182.635 212.191L182.082 212.582L181.497 212.985L180.907 213.382L180.344 213.748L180.325 213.763L180.316 213.766L179.713 214.151L179.122 214.514L179.11 214.52L178.491 214.895L177.879 215.252L177.279 215.594L176.676 215.923L176.268 216.138L176.153 216.2L175.458 216.563L175.031 216.775L174.938 216.818L174.87 216.852L174.78 216.898L174.242 217.163L173.011 217.738L172.427 217.999L171.202 218.516L170.507 218.793L169.928 219.018L169.236 219.279L168.685 219.476L167.974 219.722L167.402 219.916C167.077 220.024 166.876 220.082 166.675 220.147L166.162 220.307L165.41 220.525L164.854 220.679L164.235 220.845L164.037 220.897L163.607 221.008L163.199 221.107L162.782 221.202L162.188 221.343L161.594 221.47L161.016 221.59L160.787 221.633C160.456 221.7 160.122 221.762 159.735 221.826L159.244 221.906L159.234 221.909L159.145 221.925C158.956 221.956 158.755 221.993 158.437 222.039L157.803 222.131L157.2 222.211L156.482 222.297L156.358 222.309L155.867 222.362L155.205 222.429L154.605 222.482L153.922 222.528L153.278 222.568L152.617 222.602L152.026 222.626L151.312 222.645L150.733 222.654L150.681 222.651C150.489 222.654 150.303 222.657 150.019 222.657L149.462 222.651H149.348L148.748 222.639L148.201 222.62L147.406 222.589L147.233 222.574H147.223L147.217 222.577L146.58 222.54L145.937 222.491C144.845 222.411 143.76 222.297 142.69 222.153L142.421 222.116L141.966 222.051L141.502 221.977L141.171 221.928L140.738 221.854L140.299 221.777L139.897 221.703L139.526 221.63L139.146 221.556L138.632 221.451L137.847 221.279L137.417 221.183L136.99 221.079L136.554 220.971L136.26 220.897L135.769 220.768L135.283 220.636L135.098 220.587L134.603 220.445L134.114 220.304L133.861 220.224L133.363 220.073L132.865 219.913L132.784 219.888L132.237 219.704L131.69 219.516L131.628 219.498L131.619 219.494C131.269 219.371 130.941 219.251 130.66 219.144C130.375 219.042 130.06 218.919 129.704 218.778C128.072 218.141 126.473 217.424 124.911 216.633L124.843 216.6L124.33 216.335L123.816 216.067L123.745 216.027L123.25 215.76L122.765 215.489L122.619 215.403L122.483 215.329L122.354 215.252C122.109 215.117 121.883 214.984 121.689 214.871L121.534 214.778L121.086 214.508L120.637 214.231L119.975 213.812L119.524 213.52L119.456 213.474L118.952 213.139L118.46 212.806L118.445 212.797C118.015 212.502 117.591 212.197 117.171 211.89C116.769 211.594 116.348 211.277 115.915 210.942C113.787 209.29 111.771 207.475 109.888 205.503L109.857 205.466L109.442 205.029L109.037 204.592L108.966 204.518L108.564 204.063L108.159 203.602L108.134 203.574L107.745 203.125L107.358 202.663L107.259 202.54L106.891 202.091L106.523 201.63L106.477 201.574L106.103 201.094L105.741 200.621L105.713 200.587L105.376 200.15L53.3324 230.044C52.4449 230.551 51.6347 230.779 50.9265 230.791C50.3234 230.797 49.7823 230.647 49.3246 230.37C48.87 230.096 48.4896 229.69 48.1989 229.194C47.8247 228.551 47.6144 227.758 47.599 226.906L47.6546 122.381L15.1217 141.067Z" fill="#BA0B22"/>
<path fill-rule="evenodd" clip-rule="evenodd" d="M106.246 166.968C106.246 191.125 125.836 210.718 149.992 210.718C174.155 210.718 193.745 191.125 193.745 166.968C193.745 142.811 174.155 123.219 149.992 123.219C125.836 123.219 106.246 142.811 106.246 166.968Z" fill="#FFC730"/>
</svg>
