<svg width="300" height="300" viewBox="0 0 300 300" fill="none" xmlns="http://www.w3.org/2000/svg">
<path fill-rule="evenodd" clip-rule="evenodd" d="M29.7376 290.151C16.632 277.045 16.6213 255.8 29.7382 242.683L77.9787 194.443C90.8938 181.528 90.8823 160.596 77.9672 147.681L29.7267 99.4406C16.6211 86.335 16.6211 65.0791 29.7267 51.9735L29.7382 51.962C42.8438 38.8564 64.0996 38.8564 77.2052 51.962L172.924 147.681C185.828 160.585 185.828 181.528 172.913 194.443L77.2052 290.15C64.0884 303.267 42.8432 303.256 29.7376 290.151ZM9.99526 216.483C7.59611 214.084 6.26247 210.822 6.26247 207.436C6.25126 204.039 7.5964 200.788 10.0068 198.377C15.6795 192.705 22.9664 185.418 28.5831 179.801C33.4151 174.969 33.4145 167.144 28.5826 162.312C22.9659 156.695 15.679 149.408 10.0062 143.735C7.60707 141.336 6.26219 138.085 6.25098 134.688C6.25098 131.302 7.60761 128.04 10.0068 125.641C12.4059 123.242 15.6569 121.896 19.0538 121.885C22.4507 121.896 25.7017 123.242 28.1009 125.641C38.2804 135.82 54.716 152.256 64.7834 162.323C69.6041 167.144 69.6044 174.969 64.7725 179.801L28.1014 216.472C25.6911 218.882 22.4395 220.227 19.0538 220.227C15.6681 220.227 12.3944 218.882 9.99526 216.483Z" fill="#148C9B"/>
<path fill-rule="evenodd" clip-rule="evenodd" d="M124.981 99.6328L173.009 147.66C185.924 160.575 185.924 181.518 173.009 194.433L156.843 210.6L108.804 162.56C95.8997 149.657 95.8995 128.715 108.814 115.799L124.981 99.6328Z" fill="#0D7186"/>
<path fill-rule="evenodd" clip-rule="evenodd" d="M262.251 9.83315C275.356 22.9388 275.367 44.1839 262.25 57.3008L214.01 105.541C201.095 118.456 201.106 139.388 214.021 152.303L262.262 200.543C275.367 213.649 275.367 234.905 262.262 248.01L262.25 248.022C249.145 261.128 227.889 261.128 214.783 248.022L119.064 152.303C106.16 139.399 106.16 118.456 119.076 105.541L214.783 9.8337C227.9 -3.28314 249.145 -3.27247 262.251 9.83315ZM291.309 83.5119C293.708 85.911 295.054 89.1623 295.054 92.548C295.065 95.9449 293.709 99.2074 291.31 101.607C285.637 107.279 278.35 114.566 272.733 120.183C267.901 125.015 267.901 132.84 272.722 137.661C278.35 143.289 285.626 150.565 291.31 156.249C293.709 158.648 295.054 161.899 295.065 165.296C295.054 168.693 293.709 171.944 291.31 174.343C288.91 176.742 285.659 178.088 282.262 178.099C278.866 178.088 275.614 176.743 273.215 174.344C263.024 164.153 246.589 147.717 236.532 137.661C231.7 132.829 231.701 125.004 236.533 120.172L273.204 83.5009C275.603 81.1018 278.876 79.7561 282.262 79.7561C285.648 79.7561 288.899 81.1018 291.298 83.5009L291.309 83.5119Z" fill="#303366"/>
</svg>
