<svg width="450" height="450" viewBox="0 0 450 450" fill="none" xmlns="http://www.w3.org/2000/svg">
<path fill-rule="evenodd" clip-rule="evenodd" d="M296.453 429.773C296.453 427.322 295.48 424.971 293.75 423.238C292.018 421.504 289.67 420.531 287.222 420.531C262.177 420.531 193.152 420.531 168.108 420.531C165.66 420.531 163.312 421.504 161.581 423.238C159.85 424.971 158.878 427.322 158.878 429.773C158.878 433.274 158.878 437.257 158.878 440.757C158.878 443.208 159.85 445.559 161.581 447.293C163.312 449.027 165.66 450.001 168.108 450C193.152 450 262.177 450 287.222 450C289.67 450.001 292.018 449.027 293.75 447.293C295.48 445.559 296.453 443.208 296.453 440.757C296.453 437.257 296.453 433.274 296.453 429.773ZM231.84 290.563C231.84 290.563 275.29 241.604 316.469 218.47C365.06 191.174 438.281 197.513 438.281 197.513C438.281 197.513 380.047 215.066 344.926 266.55C313.459 312.678 293.939 408.09 293.939 408.09C293.939 408.09 264.542 336.462 231.84 290.563ZM276.969 407.065H159.153C159.153 407.065 142.749 385.426 136.709 355.642C130.169 323.389 119.522 285.086 103.059 263.987C71.8956 224.049 11.7188 199.21 11.7188 199.21C11.7188 199.21 125.033 180.449 194.2 267.649C227.753 309.95 276.927 406.976 276.969 407.065Z" fill="#002263"/>
<path fill-rule="evenodd" clip-rule="evenodd" d="M225 138.495C256.125 138.495 281.394 164.177 281.394 195.81C281.394 227.443 256.125 253.125 225 253.125C193.875 253.125 168.606 227.443 168.606 195.81C168.606 164.177 193.875 138.495 225 138.495ZM291.84 173.616C313.486 160.763 358.637 134.966 383.008 128.351C385.057 127.794 387.115 127.532 389.14 127.537L389.285 127.538C399.546 127.631 408.913 134.605 411.697 145.13C415.043 157.782 407.621 170.805 395.133 174.195C373.078 180.182 328.527 181.185 301.666 181.198H300.735C298.262 181.197 295.947 181.189 293.824 181.175C293.297 178.601 292.632 176.079 291.84 173.616ZM156.176 181.175C131.092 181.341 79.2412 180.811 54.8666 174.195C42.3782 170.805 34.9566 157.782 38.3026 145.13C41.6486 132.48 54.5038 124.961 66.9922 128.351C91.3618 134.966 136.513 160.763 158.16 173.616C157.368 176.079 156.704 178.601 156.176 181.175ZM164.438 159.522C140.62 151.505 91.7286 134.126 70.758 119.929C60.0099 112.652 57.1142 97.903 64.2973 87.0133C71.4814 76.1236 86.0402 73.1911 96.7894 80.4681C117.756 94.6629 152.299 133.764 168.727 152.995C167.185 155.085 165.751 157.264 164.438 159.522ZM280.852 152.43C297.218 133.179 331.713 93.9404 352.666 79.6837C363.398 72.3819 377.963 75.2803 385.172 86.1524C392.381 97.0256 389.519 111.781 378.787 119.084C357.848 133.331 308.993 150.826 285.195 158.9C283.862 156.66 282.411 154.5 280.852 152.43ZM179.287 141.541C159.308 126.113 118.682 93.64 103.406 73.3346C95.5688 62.9177 97.5545 48.0148 107.837 40.0761C118.12 32.1365 132.83 34.1482 140.666 44.5652C155.936 64.8623 176.062 113.124 185.455 136.74C183.312 138.226 181.252 139.83 179.287 141.541ZM264.213 136.511C273.58 112.983 293.817 64.4907 309.149 44.1378C316.993 33.7261 331.704 31.7246 341.982 39.6705C352.259 47.6163 354.236 62.5203 346.392 72.932C331.065 93.2777 290.256 125.833 270.321 141.203C268.373 139.531 266.334 137.964 264.213 136.511ZM198.837 129.477C184.783 108.342 156.644 64.4587 148.615 40.2908C144.491 27.8776 151.091 14.4074 163.344 10.2301C175.597 6.05178 188.893 12.7373 193.016 25.1505C201.044 49.3133 204.824 101.484 206.246 126.934C203.717 127.644 201.245 128.495 198.837 129.477ZM243.742 126.929C245.159 101.48 248.929 49.3092 256.953 25.1454C261.075 12.7311 274.37 6.04352 286.624 10.2188C298.877 14.395 305.479 27.8632 301.358 40.2774C293.332 64.4474 265.202 108.334 251.151 129.473C248.744 128.491 246.271 127.641 243.742 126.929ZM221.085 124.468C214.419 99.8869 201.575 49.2245 201.575 23.7313C201.575 10.6337 212.071 0 225 0C237.929 0 248.424 10.6337 248.424 23.7313C248.424 49.2245 235.581 99.8869 228.915 124.468C227.619 124.395 226.313 124.358 225 124.358C223.687 124.358 222.382 124.395 221.085 124.468Z" fill="#0BBBB9"/>
</svg>
