<svg width="300" height="300" viewBox="0 0 300 300" fill="none" xmlns="http://www.w3.org/2000/svg">
<path fill-rule="evenodd" clip-rule="evenodd" d="M197.632 286.506C197.632 284.872 196.983 283.305 195.83 282.149C194.676 280.993 193.11 280.344 191.478 280.344C174.782 280.344 128.766 280.344 112.07 280.344C110.438 280.344 108.873 280.993 107.718 282.149C106.564 283.305 105.916 284.872 105.916 286.506C105.916 288.84 105.916 291.495 105.916 293.828C105.916 295.462 106.564 297.03 107.718 298.185C108.873 299.341 110.438 299.991 112.07 299.99C128.766 299.99 174.782 299.99 191.478 299.99C193.11 299.991 194.676 299.341 195.83 298.185C196.983 297.03 197.632 295.462 197.632 293.828C197.632 291.495 197.632 288.84 197.632 286.506ZM154.557 193.7C154.557 193.7 183.523 161.061 210.976 145.639C243.369 127.442 292.183 131.667 292.183 131.667C292.183 131.667 253.36 143.369 229.947 177.691C208.969 208.443 195.956 272.051 195.956 272.051C195.956 272.051 176.358 224.299 154.557 193.7ZM184.643 271.367H106.1C106.1 271.367 95.164 256.941 91.1374 237.086C86.7773 215.584 79.6794 190.049 68.7043 175.983C47.9289 149.358 7.81152 132.799 7.81152 132.799C7.81152 132.799 83.3533 120.292 129.464 178.424C151.833 206.625 184.615 271.308 184.643 271.367Z" fill="#002263"/>
<path fill-rule="evenodd" clip-rule="evenodd" d="M149.998 92.329C170.748 92.329 187.594 109.45 187.594 130.538C187.594 151.627 170.748 168.748 149.998 168.748C129.249 168.748 112.403 151.627 112.403 130.538C112.403 109.45 129.249 92.329 149.998 92.329ZM194.558 115.742C208.988 107.174 239.089 89.9763 255.336 85.5661C256.702 85.1952 258.074 85.0204 259.424 85.0239L259.521 85.0246C266.361 85.0865 272.605 89.7355 274.462 96.7523C276.692 105.187 271.744 113.869 263.419 116.128C248.716 120.12 219.016 120.788 201.108 120.797H200.488C198.839 120.797 197.296 120.791 195.881 120.782C195.529 119.066 195.086 117.384 194.558 115.742ZM104.116 120.782C87.3939 120.892 52.8271 120.539 36.5776 116.128C28.2521 113.869 23.3045 105.187 25.5351 96.7523C27.7657 88.3186 36.3358 83.3063 44.6613 85.5661C60.9074 89.9763 91.0081 107.174 105.439 115.742C104.911 117.384 104.468 119.066 104.116 120.782ZM109.624 106.347C93.7455 101.002 61.152 89.4162 47.1717 79.9517C40.0064 75.1004 38.076 65.2678 42.8647 58.0081C47.654 50.7484 57.3597 48.7935 64.5258 53.6447C78.5032 63.1078 101.532 89.1746 112.484 101.995C111.455 103.389 110.5 104.841 109.624 106.347ZM187.233 101.619C198.143 88.7852 221.14 62.6261 235.108 53.1218C242.263 48.254 251.973 50.1862 256.778 57.4342C261.584 64.6829 259.677 74.5197 252.522 79.3881C238.562 88.8863 205.993 100.549 190.128 105.932C189.239 104.439 188.272 102.999 187.233 101.619ZM119.524 94.3596C106.204 84.0743 79.1207 62.4259 68.9368 48.8891C63.712 41.9446 65.0359 32.0094 71.8908 26.7171C78.7457 21.424 88.5527 22.7652 93.7767 29.7097C103.957 43.241 117.374 75.4149 123.636 91.1592C122.207 92.1494 120.834 93.2187 119.524 94.3596ZM176.14 91.0064C182.385 75.3213 195.876 42.9933 206.097 29.4249C211.326 22.4838 221.134 21.1495 227.985 26.4467C234.837 31.7438 236.155 41.6797 230.926 48.6208C220.708 62.1844 193.502 83.8878 180.212 94.1339C178.913 93.0192 177.554 91.9746 176.14 91.0064ZM132.557 86.3169C123.187 72.2268 104.429 42.9719 99.0755 26.8602C96.3266 18.5848 100.726 9.60483 108.895 6.81999C117.063 4.03447 125.927 8.49145 128.676 16.7668C134.028 32.8751 136.548 67.6549 137.496 84.6213C135.81 85.0948 134.162 85.6625 132.557 86.3169ZM162.493 84.6186C163.437 67.6522 165.951 32.8724 171.3 16.7634C174.048 8.48732 182.911 4.02896 191.081 6.81242C199.249 9.59657 203.651 18.5752 200.903 26.8513C195.553 42.9644 176.799 72.222 167.432 86.3141C165.828 85.6597 164.179 85.0927 162.493 84.6186ZM147.389 82.9774C142.945 66.5904 134.382 32.8159 134.382 15.8207C134.382 7.08905 141.38 0 149.998 0C158.617 0 165.614 7.08905 165.614 15.8207C165.614 32.8159 157.052 66.5904 152.608 82.9774C151.744 82.9292 150.874 82.9045 149.998 82.9045C149.123 82.9045 148.253 82.9292 147.389 82.9774Z" fill="#0BBBB9"/>
</svg>
