<svg width="300" height="300" viewBox="0 0 300 300" fill="none" xmlns="http://www.w3.org/2000/svg">
<path fill-rule="evenodd" clip-rule="evenodd" d="M280.26 300.009H154.74V177.252C156.42 157.468 159.396 139.247 166.696 126.241C171.034 128.676 178.779 139.442 181.088 160.275C186.751 150.05 193.646 138.587 206.158 131.317C207.001 153.882 205.658 162.468 199.334 178.177C190.456 200.23 166.026 205.365 166.026 205.365V288.723H268.974C268.974 220.879 270.254 153.023 268.963 85.1917C268.941 84.5111 268.903 83.833 268.847 83.1542C268.535 79.8786 267.761 76.6712 266.477 73.6381C263.321 66.1744 257.288 60.0908 249.879 56.8464L249.869 56.842C252.105 53.4165 254.391 50.3334 256.652 47.5703C260.701 49.629 264.421 52.3265 267.636 55.5414C272.179 60.0839 275.688 65.6351 277.823 71.6956C279.445 76.3024 280.229 81.1392 280.26 86.0186V300.009ZM145.25 300.009H19.7305V86.0186C19.7611 81.1392 20.5448 76.3024 22.1673 71.6956C24.3023 65.6351 27.8116 60.0839 32.3547 55.5414C35.5696 52.3265 39.2896 49.629 43.3383 47.5703C45.5995 50.3334 47.8851 53.4165 50.1213 56.842L50.1113 56.8464C42.7027 60.0908 36.6696 66.1744 33.5128 73.6381C32.2297 76.6712 31.4553 79.8786 31.1435 83.1542C31.0872 83.833 31.0491 84.5111 31.0272 85.1917C29.7366 153.023 31.0166 220.879 31.0166 288.723H133.964V205.365C133.964 205.365 109.534 200.23 100.656 178.177C94.3327 162.468 92.9896 153.882 93.8327 131.317C106.344 138.587 113.239 150.05 118.902 160.275C121.212 139.442 128.956 128.676 133.295 126.241C140.594 139.247 143.57 157.468 145.25 177.252V300.009ZM197.43 7.69141C197.326 8.71827 197.185 9.74201 197.006 10.7614C196.755 12.1895 196.433 13.6038 196.046 15.0007C192.862 26.498 185.462 36.2785 177.434 44.8741C175.943 46.4697 174.42 48.0347 172.882 49.5846C171.434 51.044 169.972 52.4896 168.511 53.9358C170.898 60.9395 173.652 67.8163 176.743 74.5387C178.003 77.2787 179.322 79.9893 180.689 82.6755C184.567 76.6768 188.855 70.9419 193.493 65.5207C197.029 61.3895 200.776 57.4314 204.724 53.6865C201.733 48.0059 200.017 41.7141 198.925 35.4036C197.346 26.2699 197.039 16.9507 197.43 7.69141ZM102.561 7.69141C102.664 8.71827 102.805 9.74201 102.984 10.7614C103.236 12.1895 103.558 13.6038 103.944 15.0007C107.128 26.498 114.528 36.2785 122.557 44.8741C124.047 46.4697 125.57 48.0347 127.108 49.5846C128.556 51.044 130.018 52.4896 131.479 53.9358C129.092 60.9395 126.338 67.8163 123.247 74.5387C121.987 77.2787 120.669 79.9893 119.301 82.6755C115.423 76.6768 111.136 70.9419 106.497 65.5207C102.961 61.3895 99.2145 57.4314 95.2658 53.6865C98.2576 48.0059 99.9732 41.7141 101.065 35.4036C102.644 26.2699 102.951 16.9507 102.561 7.69141Z" fill="#B27D53"/>
<path fill-rule="evenodd" clip-rule="evenodd" d="M268.634 28.4696C248.807 42.7582 225.615 73.984 222.882 106.842C220.657 133.606 216.084 145.301 212.669 150.308C214.182 141.284 214.172 129.014 212.478 119.121C208.689 120.798 202.4 124.662 196.642 130.387C195.926 128.046 190.051 116.019 170.695 121.352C171.627 118.355 172.654 115.391 173.796 112.465C176.529 105.467 179.838 98.6956 183.644 92.2132C183.67 92.1713 183.694 92.1294 183.718 92.0869C187.815 85.1233 192.486 78.4952 197.633 72.2803C202.01 66.9941 206.745 61.9923 211.814 57.358C211.966 57.2405 212.109 57.1099 212.243 56.9674C215.936 53.6187 219.805 50.4649 223.84 47.5387C235.138 39.3457 247.896 32.812 261.566 29.7208C263.904 29.1927 266.261 28.7815 268.634 28.4696ZM31.3672 28.4696C51.1944 42.7582 74.386 73.984 77.1191 106.842C79.3447 133.606 83.9178 145.301 87.3327 150.308C85.8196 141.284 85.829 129.014 87.5234 119.121C91.3127 120.798 97.6014 124.662 103.359 130.387C104.075 128.046 109.951 116.019 129.306 121.352C128.375 118.355 127.348 115.391 126.205 112.465C123.472 105.467 120.164 98.6956 116.357 92.2132C116.332 92.1713 116.307 92.1294 116.284 92.0869C112.186 85.1233 107.515 78.4952 102.368 72.2803C97.9914 66.9941 93.2564 61.9923 88.1871 57.358C88.0352 57.2405 87.8921 57.1099 87.7584 56.9674C84.0653 53.6187 80.196 50.4649 76.161 47.5387C64.863 39.3457 52.1057 32.812 38.4352 29.7208C36.0971 29.1927 33.7403 28.7815 31.3672 28.4696ZM161.987 124.287C159.816 122.7 156.382 119.848 149.921 119.868C143.46 119.889 140.109 122.755 138.015 124.287C136.402 114.137 129.735 101.961 123.878 90.1894C126.508 85.2176 134.371 67.9303 136.469 61.3854C142.041 44.0063 146.903 22.7028 150.001 11.2161C152.978 22.7347 157.843 44.7725 163.532 61.3854C165.759 67.8878 173.494 85.2176 176.124 90.1894C170.266 101.961 163.599 114.137 161.987 124.287ZM205.817 20.1709C207.316 8.26984 220.761 7.39173 229.052 10.1679C240.965 14.1579 245.075 25.2865 235.505 31.4664C230.887 34.4489 225.926 36.882 221.435 40.0157C217.664 42.6482 214.026 45.4694 210.527 48.4556L210.471 48.3325C206.441 35.3789 204.979 26.8165 205.817 20.1709ZM94.1845 20.1709C92.6852 8.26984 79.2403 7.39173 70.9498 10.1679C59.0362 14.1579 54.9269 25.2865 64.4962 31.4664C69.1142 34.4489 74.0754 36.882 78.566 40.0157C82.3378 42.6482 85.9759 45.4694 89.4746 48.4556L89.5308 48.3325C93.5602 35.3789 95.022 26.8165 94.1845 20.1709ZM159.114 14.6173C157.733 5.21613 167.572 -0.91692 174.61 0.112442C179.236 0.788684 191.79 3.99427 188.261 14.7616C186.885 18.9597 184.838 22.9278 182.436 26.6302C178.23 33.1114 172.955 38.7901 167.547 44.2719C167.016 44.8044 166.483 45.3356 165.951 45.8662C163.859 38.8145 162.133 31.6552 160.759 24.429C160.139 21.1697 159.596 17.8985 159.114 14.6173ZM140.888 14.6173C142.268 5.21613 132.429 -0.91692 125.391 0.112442C120.765 0.788684 108.212 3.99427 111.741 14.7616C113.116 18.9597 115.163 22.9278 117.565 26.6302C121.772 33.1114 127.046 38.7901 132.455 44.2719C132.986 44.8044 133.518 45.3356 134.051 45.8662C136.143 38.8145 137.868 31.6552 139.243 24.429C139.863 21.1697 140.406 17.8985 140.888 14.6173Z" fill="black"/>
</svg>
