<svg width="300" height="300" viewBox="0 0 300 300" fill="none" xmlns="http://www.w3.org/2000/svg">
<path fill-rule="evenodd" clip-rule="evenodd" d="M41.3726 71.1486C74.9176 43.4369 105.489 26.9333 133.087 21.6379C152.627 17.8359 172.864 20.1492 191.041 28.2628C241.041 50.7512 248.881 109.91 233.847 148.159C250.12 77.4213 217.234 47.8421 187.416 38.9899C169.848 33.7741 149.917 35.24 132.678 40.7513C101.485 50.6943 79.2699 73.5122 62.3951 87.1371C50.702 89.0121 42.3499 85.7394 41.3271 71.1486H41.3726Z" fill="#ED1C24"/>
<path fill-rule="evenodd" clip-rule="evenodd" d="M99.1173 86.043C93.2083 115.861 97.8559 142.315 117.969 154.281C133.878 163.747 156.151 163.258 172.923 156.667C188.287 150.633 200.911 139.622 216.104 128.179C226.911 126.213 230.877 132.099 230.275 138.713C211.536 153.758 192.48 165.281 172.821 170.235C158.412 173.86 144.844 173.712 130.935 168.246C93.7196 153.622 88.822 111.429 99.1173 86.043Z" fill="#D1D3D4"/>
<path fill-rule="evenodd" clip-rule="evenodd" d="M163.612 138.137C159.578 139.455 156.078 141.274 154.067 144.524C153.783 145.66 154.408 145.546 154.84 145.717L157.226 146.228C158.01 146.364 157.931 146.739 157.908 147.364C157.908 147.705 157.817 148.035 157.783 148.376C154.659 148.219 151.56 147.744 148.533 146.955V146.921C152.419 140.421 157.419 137.41 163.612 138.137ZM164.374 125.933C155.896 128.581 148.385 131.683 143.76 136.16C142.738 137.365 144.465 137.876 145.317 138.285L148.362 139.74L146.147 146.33C141.549 144.97 137.174 142.949 133.158 140.33C140.51 131.183 151.112 126.694 164.374 125.933ZM178.908 111.251C164.576 112.819 150.555 116.491 137.294 122.149C136.374 122.74 136.067 123.569 136.499 125.115L137.749 130.978L131.351 139.012C127.638 136.556 124.355 133.504 121.636 129.978L121.59 130.024C131.045 117.285 169.487 106.49 178.908 111.251ZM201.544 96.2969C176.135 94.5696 153.181 99.4218 131.022 108.888C130.306 109.217 129.885 109.888 130.113 111.308C130.34 112.728 131.249 117.831 130.113 118.74C126.39 121.353 122.92 124.309 119.749 127.569C117.354 124.174 115.374 120.504 113.852 116.638C135.033 97.9673 180.021 89.0242 201.544 96.2969ZM204.123 83.7061C179.033 78.7289 154.192 82.172 131.17 92.4219C129.192 93.2969 128.897 94.8196 128.579 96.6832C128.26 98.5468 127.885 100.365 127.533 102.206C123.158 103.808 118.295 107.206 112.704 113.251C111.261 108.921 110.599 104.37 110.749 99.8082C132.488 82.0925 185.146 71.8994 204.123 83.7061ZM154.544 70.3654C140.567 74.7971 132.863 74.0017 130.579 86.2742L110.84 97.0014C111.297 92.4198 112.234 87.8989 113.636 83.5129C126.306 76.5544 140.193 72.0913 154.544 70.3654ZM156.658 59.7518C147.953 61.8655 141.056 60.6496 137.851 69.2972C130.306 71.3653 122.59 75.5585 114.772 80.7175C116.785 75.9946 119.603 71.6574 123.101 67.8995C134.522 62.3768 145.635 60.4223 156.658 59.7518ZM172.726 52.4792C192.146 57.661 201.078 68.1267 207.066 80.0584C190.192 56.5462 164.919 49.8403 130.555 61.5173L129.681 61.8171L129.92 61.6363C140.343 53.7599 153.234 48.9536 172.726 52.4792Z" fill="#F7931E"/>
<path d="M229.538 276.894L235.549 281.769L229.538 286.633L223.578 281.819L217.629 286.633L211.669 281.819L205.709 286.633L199.697 281.769L205.709 276.894L211.669 281.718L217.629 276.894L223.578 281.718L229.538 276.894ZM213.686 242.656L213.686 267.065H221.743C222.277 267.105 222.746 266.712 222.799 266.179V257.917L229.913 252.94V271.997C229.907 274.661 227.748 276.82 225.084 276.826L213.686 276.825L213.686 276.826H205.55V248.338L213.686 242.656ZM156.062 242.656V267.065H162.766C163.298 267.099 163.763 266.709 163.823 266.179V257.917L170.936 252.94L170.936 267.065L178.694 267.065C179.174 267.038 179.575 266.668 179.63 266.179V257.917L186.743 252.94L186.743 267.065L194.501 267.065C194.981 267.038 195.381 266.668 195.436 266.179V257.917L202.55 252.94V271.997C202.525 274.654 200.377 276.802 197.72 276.826H186.629L186.631 272.997C186.155 275.173 184.228 276.805 181.914 276.826H170.789L170.789 273.155C170.26 275.254 168.367 276.81 166.107 276.826H147.925V248.338L156.062 242.656ZM144.732 252.94V271.997C144.707 274.658 142.553 276.808 139.891 276.826H128.812V267.065H136.551C137.083 267.099 137.548 266.709 137.607 266.179V257.917L144.732 252.94ZM74.6536 247.179L92.4033 262.77C95.3578 265.792 96.6192 276.826 85.6421 276.826H74.5627V267.065H82.3126C83.8694 267.61 85.858 265.781 84.5853 264.247L74.4831 255.701L74.6536 247.179ZM104.721 242.645V267.031H117.892C118.937 266.963 119.153 266.304 118.426 265.713L106.926 256.11C106.926 256.11 110.159 253.693 113.437 251.248L114.093 250.76C117.145 248.485 120.051 246.325 120.221 246.224L130.448 246.077L116.971 256.122L123.039 260.906C128.369 264.735 127.38 272.269 122.448 275.678C120.323 277.144 117.687 276.622 115.108 276.815H96.5851V248.327L104.721 242.645ZM123.142 241.838L106.983 253.781L106.915 249.156L116.903 241.906L123.142 241.838ZM206.959 228.861C207.444 228.845 207.92 228.993 208.311 229.281C208.705 229.568 208.931 230.033 208.913 230.52C208.913 231.52 208.334 232.009 207.175 232.009C206.016 232.009 205.254 231.52 205.254 230.52C205.195 230.056 205.358 229.591 205.693 229.265C206.028 228.939 206.497 228.789 206.959 228.861ZM275.606 213.338V217.27C275.606 218.509 276.594 219.145 278.583 219.179H280.787C282.049 219.179 282.685 218.52 282.685 217.191V213.338H285.378V217.361C285.353 217.968 285.598 218.555 286.049 218.963C286.497 219.375 287.088 219.595 287.696 219.577C288.98 219.577 289.628 219.009 289.628 217.884V213.338H292.276V217.361C292.261 217.968 292.515 218.55 292.969 218.952C293.421 219.366 294.015 219.589 294.628 219.577C295.901 219.577 296.537 219.009 296.537 217.884V213.338H299.219V217.531C299.261 218.677 298.939 219.807 298.299 220.759C297.639 221.667 296.568 222.184 295.446 222.134C293.975 222.124 292.589 221.442 291.685 220.281C290.91 221.367 289.687 222.048 288.355 222.134C286.842 222.026 285.466 221.214 284.64 219.94C283.758 221.048 282.459 221.743 281.049 221.861L278.583 221.906H277.515V221.804C276.767 221.687 276.097 221.279 275.651 220.668C275.727 222.698 275.128 224.696 273.947 226.35C272.742 228.005 270.788 228.948 268.742 228.861H265.208L264.765 226.122H268.526C269.64 226.133 270.718 225.727 271.549 224.986C272.401 224.267 272.885 223.203 272.867 222.088V213.338H275.606ZM95.1078 202.804L95.4828 205.532L88.3693 208.191L95.9147 216.543C96.5034 217.253 97.1748 217.89 97.9146 218.441C98.7066 218.929 99.6203 219.185 100.551 219.179H101.04C101.915 219.179 102.471 218.895 102.699 218.52C102.908 217.875 102.985 217.195 102.926 216.52V204.384H105.619V217.725C105.695 218.866 105.282 219.986 104.483 220.804C103.608 221.578 102.468 221.985 101.301 221.94H99.2214V221.85C97.8221 221.744 96.5314 221.056 95.6647 219.952C95.1306 221.27 93.8692 221.94 91.9033 221.94H83.8012C83.3784 221.935 82.9568 221.897 82.5398 221.827C82.0187 221.602 81.5416 221.287 81.1308 220.895C80.4158 221.546 79.4945 221.924 78.5285 221.963L73.6308 221.906H72.574V221.804C71.8222 221.691 71.1468 221.282 70.6991 220.668C70.7785 222.697 70.183 224.695 69.0059 226.35C67.7998 228.004 65.8469 228.946 63.8014 228.861H60.2219L59.7787 226.122H63.5514C64.666 226.137 65.7453 225.731 66.5741 224.986C67.4259 224.267 67.9098 223.203 67.8923 222.088V213.338H70.6195V217.27C70.6195 218.509 71.6195 219.145 73.5967 219.179H77.6081C78.174 219.243 78.7422 219.08 79.1876 218.725C79.5316 218.252 79.6894 217.67 79.6308 217.088V213.338H82.3694V217.088C82.2758 217.746 82.5091 218.408 82.9944 218.861C83.5628 219.122 84.1892 219.232 84.8125 219.179H91.8465C92.5624 219.179 92.9829 218.713 92.9829 217.77C92.9907 217.471 92.8805 217.181 92.6761 216.963L85.5625 209.497L85.0625 206.429L95.1078 202.804ZM52.7447 210.952C54.5628 210.781 56.2688 211.853 56.9038 213.566C57.4164 215.262 57.6317 217.034 57.5401 218.804V222.213L57.5742 222.247C57.6002 224.023 56.8488 225.72 55.5174 226.895C54.2327 228.139 52.5105 228.829 50.722 228.815H47.1766L46.8357 226.077H50.2448C51.4215 226.116 52.5697 225.71 53.4606 224.94C54.3292 224.168 54.822 223.058 54.8129 221.895C53.1077 222.012 51.4004 221.699 49.847 220.986C48.395 220.028 47.5975 218.341 47.7789 216.611C47.7789 214.338 48.3243 212.736 49.4152 211.804C50.3935 211.145 51.5698 210.843 52.7447 210.952ZM200.05 213.281V217.213C200.05 218.452 201.05 219.088 203.027 219.122H207.254C207.82 219.188 208.389 219.024 208.834 218.668C209.169 218.192 209.322 217.611 209.266 217.031V213.281H211.993V217.406C212.018 218.517 211.657 219.602 210.97 220.475C210.287 221.362 209.226 221.875 208.106 221.861L203.016 221.906H202.266V221.85C201.395 221.778 200.6 221.325 200.095 220.611C200.175 222.64 199.579 224.638 198.402 226.293C197.196 227.947 195.243 228.889 193.198 228.804H189.652L189.209 226.065H192.982C194.096 226.08 195.176 225.675 196.004 224.929C196.856 224.21 197.34 223.146 197.322 222.031V213.281H200.05ZM33.0518 225.634C34.1465 225.634 34.856 226.09 34.9315 226.983L34.937 227.128L34.9314 227.272C34.8956 227.646 34.7207 227.995 34.4381 228.247C34.1102 228.548 33.6787 228.711 33.2336 228.702C32.7591 228.716 32.294 228.568 31.9154 228.281C31.5435 228.022 31.3193 227.599 31.3132 227.145C31.3132 226.145 31.8927 225.634 33.0518 225.634ZM27.8132 225.634C28.9079 225.634 29.6174 226.09 29.6929 226.983L29.6984 227.128L29.6928 227.272C29.6571 227.646 29.4822 227.995 29.1996 228.247C28.8716 228.548 28.4401 228.711 27.995 228.702C27.5205 228.716 27.0554 228.568 26.6769 228.281C26.3049 228.022 26.0807 227.599 26.0746 227.145C26.0746 226.145 26.6541 225.634 27.8132 225.634ZM204.47 224.986C205.766 224.986 206.413 225.543 206.413 226.668C206.413 227.645 205.834 228.122 204.652 228.122C203.47 228.122 202.754 227.645 202.754 226.668C202.744 226.216 202.921 225.78 203.243 225.463C203.572 225.147 204.014 224.975 204.47 224.986ZM209.709 224.986C210.932 224.986 211.578 225.483 211.646 226.485L211.652 226.668C211.652 227.645 211.061 228.122 209.891 228.122C208.72 228.122 207.993 227.645 207.993 226.668C207.977 226.215 208.154 225.777 208.481 225.463C208.809 225.145 209.252 224.973 209.709 224.986ZM262.651 202.827L263.06 205.566L255.992 208.213L261.594 214.486C262.151 215.167 262.656 215.889 263.106 216.645C263.419 217.11 263.597 217.653 263.617 218.213C263.617 220.702 262.219 221.941 259.447 221.941L251.924 221.906H250.913C249.717 221.955 248.541 221.59 247.583 220.872C246.841 221.508 245.911 221.883 244.936 221.941H230.549C229.435 221.949 228.382 221.431 227.708 220.543C227.005 219.681 226.631 218.598 226.652 217.486V213.361H229.379V217.111C229.313 217.695 229.476 218.281 229.833 218.747C230.284 219.102 230.855 219.265 231.424 219.202H244.129C244.691 219.268 245.257 219.104 245.697 218.747C246.043 218.276 246.201 217.693 246.14 217.111V213.361H248.913V217.111C248.913 218.509 249.913 219.202 251.924 219.202H259.447C260.163 219.202 260.526 218.781 260.526 217.929C260.537 217.581 260.411 217.242 260.174 216.986L253.083 209.52L252.629 206.475L262.651 202.827ZM158.88 211.032C162.599 211.032 164.455 212.906 164.448 216.656L158.198 220.225C156.78 221.05 155.211 221.583 153.584 221.793C152.914 221.872 151.664 221.918 149.823 221.929L149.8 221.906H148.664C147.514 221.931 146.389 221.566 145.471 220.872C144.735 221.511 143.807 221.886 142.835 221.941H128.46C127.349 221.947 126.3 221.429 125.63 220.543C124.92 219.684 124.541 218.6 124.562 217.486V213.361H127.267V217.111C127.204 217.696 127.371 218.283 127.732 218.747C128.183 219.102 128.754 219.265 129.323 219.202H142.039C142.602 219.268 143.167 219.104 143.607 218.747C143.947 218.273 144.101 217.691 144.039 217.111V213.361H146.823V217.111C146.823 218.429 147.721 219.134 149.516 219.202C151.777 219.287 154.033 218.94 156.164 218.179L158.141 217.145C158.899 216.736 160.012 216.111 161.482 215.27C161.151 214.546 160.498 214.02 159.721 213.85C158.919 213.74 158.109 213.698 157.3 213.725H152.516L152.141 211.032H158.88ZM21.3133 202.793L21.6883 205.52L14.5747 208.179L22.1656 216.611L24.1201 218.577C24.7519 219.022 25.5201 219.231 26.2905 219.168H30.0518C30.6178 219.232 31.1859 219.068 31.6314 218.713C31.9754 218.241 32.1331 217.658 32.0745 217.077V213.327H34.8018V217.077C34.8018 217.986 35.0177 218.577 35.4381 218.85C35.9762 219.105 36.5717 219.214 37.1654 219.168C38.463 219.21 39.7619 219.157 41.0517 219.009C41.6653 218.781 41.9608 217.963 41.9608 216.543V213.327H44.7563V217.452C44.7629 218.579 44.3589 219.669 43.6198 220.52C42.9286 221.403 41.8664 221.915 40.7449 221.906H36.2677C35.7959 221.892 35.3255 221.85 34.8586 221.781C34.3469 221.558 33.8808 221.242 33.4836 220.85C32.7687 221.5 31.8474 221.879 30.8814 221.918H24.9951V221.804C23.7153 221.643 22.5553 220.971 21.7792 219.94C21.3019 221.247 20.1315 221.906 18.2679 221.906H3.94988C2.83035 221.921 1.76941 221.407 1.08628 220.52C0.379506 219.656 0.00470833 218.568 0.0294736 217.452V213.327H2.75671V217.077C2.70307 217.654 2.86051 218.232 3.19989 218.702C3.64647 219.064 4.2195 219.232 4.79078 219.168H18.1429C19.052 219.168 19.5065 218.85 19.5065 218.191C19.4447 217.709 19.2057 217.267 18.8361 216.952L11.7452 209.486L11.2339 206.418L21.3133 202.793ZM170.641 204.384V221.906H167.982V204.384H170.641ZM113.13 204.384V221.906H110.483V204.384H113.13ZM180.675 208.725L186.834 215.236C187.644 216.06 188.097 217.171 188.095 218.327H188.016C188.048 219.354 187.593 220.336 186.789 220.975C186.064 221.548 185.177 221.872 184.258 221.905L175.505 221.906L175.13 219.168H183.8C184.811 219.168 185.311 218.816 185.311 218.111C185.311 217.739 185.169 217.381 184.914 217.111L178.755 210.577L180.675 208.725ZM50.9493 214.577C50.6878 215.245 50.5753 215.963 50.6198 216.679C50.5019 217.652 51.0795 218.575 52.0061 218.895C52.9344 219.126 53.8918 219.218 54.847 219.168V216.361C54.847 214.588 54.1311 213.691 52.7106 213.691C51.9988 213.605 51.305 213.954 50.9493 214.577ZM292.946 208.304C294.083 208.304 294.889 208.793 294.889 209.759C294.907 210.214 294.724 210.654 294.389 210.963C294.056 211.28 293.611 211.452 293.151 211.441C292.663 211.446 292.189 211.282 291.81 210.975C291.44 210.681 291.229 210.231 291.242 209.759C291.242 208.793 291.81 208.304 292.946 208.304ZM287.742 208.304C288.901 208.304 289.605 208.793 289.605 209.759C289.61 210.208 289.429 210.64 289.105 210.952C288.782 211.271 288.344 211.448 287.89 211.441C287.405 211.449 286.934 211.283 286.56 210.975C286.19 210.681 285.979 210.231 285.992 209.759C285.992 208.793 286.583 208.304 287.742 208.304ZM40.0403 207.407C41.3585 207.407 42.0403 207.952 42.0403 209.032C42.049 209.546 41.848 210.043 41.4835 210.407C41.1317 210.768 40.647 210.969 40.1426 210.963C38.7563 210.963 38.0631 210.316 38.0631 209.032C38.0631 207.895 38.7222 207.407 40.0403 207.407ZM77.0285 207.259C78.199 207.259 78.9035 207.759 78.9035 208.77L78.8467 208.804C78.8535 209.238 78.6709 209.653 78.3467 209.941C78.0384 210.229 77.6328 210.392 77.2103 210.395C75.9263 210.395 75.2786 209.85 75.2786 208.77C75.2786 207.691 75.8581 207.259 77.0285 207.259ZM82.2103 207.259C83.3807 207.259 84.0853 207.759 84.0853 208.77V208.804C84.092 209.238 83.9095 209.653 83.5853 209.941C83.2628 210.243 82.8341 210.406 82.3921 210.395C81.108 210.395 80.4603 209.85 80.4603 208.77C80.4603 207.691 81.0398 207.259 82.2103 207.259ZM133.028 207.247C134.198 207.247 134.926 207.747 134.926 208.747V208.77C134.928 209.203 134.746 209.616 134.426 209.907C134.092 210.206 133.658 210.369 133.21 210.361C131.914 210.361 131.266 209.827 131.266 208.747C131.266 207.668 131.857 207.247 133.028 207.247ZM138.312 207.247C139.505 207.247 140.187 207.747 140.187 208.747V208.77C140.189 209.203 140.007 209.616 139.687 209.907C139.351 210.21 138.912 210.373 138.46 210.361C137.164 210.361 136.516 209.827 136.516 208.747C136.516 207.668 137.119 207.247 138.312 207.247ZM240.39 207.247C241.583 207.247 242.276 207.747 242.276 208.747V208.77C242.282 209.206 242.095 209.622 241.765 209.907C241.43 210.21 240.99 210.373 240.538 210.361C239.254 210.361 238.606 209.827 238.606 208.747C238.606 207.668 239.197 207.247 240.39 207.247ZM235.117 207.247C236.299 207.247 237.015 207.747 237.015 208.747V208.77C237.016 209.205 236.83 209.619 236.504 209.907C236.176 210.208 235.744 210.37 235.299 210.361C234.004 210.361 233.356 209.827 233.356 208.747C233.356 207.668 233.936 207.247 235.117 207.247ZM157.187 204.463C158.516 204.463 159.164 205.009 159.164 206.1C159.164 206.603 158.964 207.086 158.608 207.442C158.252 207.798 157.769 207.997 157.266 207.997C155.88 207.997 155.198 207.372 155.198 206.1C155.198 204.963 155.857 204.463 157.187 204.463ZM290.299 204.372C291.469 204.372 292.219 204.872 292.219 205.85V205.907C292.217 206.341 292.031 206.754 291.708 207.043C291.374 207.353 290.935 207.523 290.48 207.52C290.001 207.529 289.534 207.368 289.162 207.066C288.778 206.78 288.55 206.329 288.549 205.85C288.549 204.872 289.128 204.372 290.299 204.372Z" fill="#231F20"/>
</svg>
