<svg width="300" height="300" viewBox="0 0 300 300" fill="none" xmlns="http://www.w3.org/2000/svg">
<path fill-rule="evenodd" clip-rule="evenodd" d="M18.748 299.996H281.245V297.228H18.748V299.996ZM18.748 295.998H281.245V289.41H18.748V295.998ZM175.441 72.1897L156.671 190.938C156.671 190.938 155.376 211.897 166.209 223.757C171.447 229.491 177.862 231.083 183.817 234.506C189.073 237.526 195.056 243.009 195.979 249.509C197.431 259.734 186.605 261.102 180.849 258.919C174.726 256.597 170.076 255.754 163.956 256.012C150.335 256.586 147.264 266.431 147.309 270.024C147.463 282.302 159.058 286.833 159.058 286.833C159.058 286.833 147.631 286.896 138.771 286.976C86.6241 287.448 68.7549 251.674 62.0944 210.389L39.7978 72.1897H175.441ZM265.065 286.7H173.887C173.887 286.7 154.437 286.326 154.673 272.443C154.865 261.193 167.242 257.571 181.744 262.415C185.676 263.729 191.982 263.752 199.743 264.766C207.608 265.793 216.995 264.4 228.825 269.6C229.754 270.008 231.879 269.578 234.387 269.657C236.661 269.729 239.345 270.341 239.953 270.133C243.365 268.964 245.11 267.149 248.443 267.223C249.742 267.252 250.885 268.346 251.651 269.281C252.618 268.489 253.221 267.89 254.433 267.885C257.265 267.872 258.369 272.068 260.132 274.69C264.942 275.772 268.489 281.664 269.269 284.721C269.427 285.343 267.817 286.204 267.324 285.793C265.057 283.911 255.789 271.71 254.384 271.72C253.764 271.724 255.349 274.979 255.673 276.072C253.198 274.485 248.755 268.309 246.972 270.118C244.778 272.346 252.433 277.732 249.233 278.823C247.502 279.413 243.77 275.905 239.264 274.464C235.534 273.272 227.95 273.963 226.894 273.313C218.305 268.028 196.793 268.777 180.963 267.562C178.272 267.355 175.094 265.759 171.181 265.421C165.916 264.967 160.469 266.832 160.527 272.988C160.555 276.034 163.364 281.861 171.61 282.111C191.918 282.724 226.241 281.83 226.241 281.83L221.88 278.635C221.88 278.635 182.765 278.386 173.887 277.998C169.759 277.817 168.682 273.32 169.122 271.982C170.108 268.978 174.838 269.823 174.838 269.823C174.838 269.823 179.914 270.451 182.517 270.587C190.641 271.009 212.982 272.787 223.366 275.874C226.339 276.758 231.627 276.404 235.275 277.07C241.945 278.288 244.691 279.769 249.692 283.646L253.636 283.621C253.636 283.621 253.031 280.08 253.554 279.263C254.076 278.447 254.944 278.679 255.879 279.028C256.814 279.376 257.766 280.651 258.526 280.865C259.286 281.078 259.553 280.038 260.394 280.206C262.139 280.555 263.521 282.877 264.507 284.447C264.949 285.15 265.063 286.678 265.065 286.7ZM131.658 265.641C130.536 269.33 132.038 271.703 135.122 273.035L117.522 278.172C115.182 278.855 112.731 277.512 112.048 275.171C111.482 273.231 112.592 271.206 114.526 270.642L131.658 265.641ZM147.101 261.215C146.71 264.475 146.168 267.336 145.711 269.944L138.541 272.037C136.437 271.622 134.248 270.605 133.928 268.19C133.717 266.595 134.687 265.334 135.944 264.39L147.101 261.215ZM131.762 255.641C129.471 258.776 130.57 261.638 134.44 263.264L116.887 268.388C114.546 269.071 112.095 267.727 111.412 265.387C110.846 263.447 111.956 261.422 113.889 260.857L131.762 255.641ZM198.016 143.321C188.752 147.641 175.531 161.194 170.158 171.878C169.776 172.637 168.904 174.303 168.218 175.583C166.901 178.038 164.439 183.808 163.84 185.842C162.273 191.166 161.898 192.688 161.31 196.123C159.541 206.452 161.084 214.65 165.798 219.979C169.278 223.913 172.103 225.55 184.349 230.727C185.912 231.387 187.102 231.981 189.753 233.423C199.472 238.71 203.483 249.831 199.55 259.812C198.919 261.411 198.594 261.479 206.836 262.166C216.262 262.952 223.464 264.199 226.025 265.474C224.95 251.85 222.25 215.102 221.341 206.623C221.218 205.471 220.615 205.322 219.986 205.312C217.933 205.279 214.257 205.229 212.068 204.068C212.979 202.918 213.876 202.14 215.37 201.221L211.289 201.054C205.292 200.461 203.898 197.726 209.454 194.878C209.454 194.878 201.714 195.812 201.726 189.206C201.728 187.944 201.901 187.478 203.019 187.763C204.073 188.031 206.525 187.985 206.514 187.696C206.488 187.004 205.055 186.665 204.316 186.372C202.593 185.691 201.799 184.418 201.288 182.887C200.781 181.369 201.413 180.997 203.648 179.986C206.634 178.635 206.738 177.408 204.129 177.408C198.701 177.408 198.783 168.993 203.814 164.619C206.333 162.43 206.493 161.69 204.771 161.128C202.201 160.289 198.627 155.954 198.808 151.956C199.07 146.133 212.307 143.075 214.455 148.403C215.022 149.809 217.513 150.088 217.446 148.323C217.411 147.422 219.084 145.852 221.013 145.036C221.866 144.676 219.596 143.184 217.944 142.371C215.189 141.015 209.274 140.591 204.918 141.4C200.702 142.183 199.862 142.46 198.016 143.321ZM147.615 251.014C147.683 254.132 147.54 256.944 147.287 259.514L138.216 262.162C133.45 261.608 131.786 258.357 134.422 254.864L147.615 251.014ZM150.636 259.531C150.636 259.531 152.073 235.155 144.099 218.254C135.533 200.098 116.014 180.749 104.804 167.967C103.651 166.652 102.033 163.008 102.27 160.239C103.296 148.258 120.286 151.033 120.286 151.033C120.286 151.033 120.737 154.925 121.456 156.722C127.061 170.747 144.406 188.174 152.611 204.366C160.983 220.887 169.855 254.291 169.855 254.291C160.417 253.164 153.931 254.836 150.636 259.531ZM130.168 246.106C128.903 250.549 130.919 252.353 133.325 253.59L115.818 258.7C113.478 259.383 111.027 258.039 110.344 255.699C109.778 253.759 110.888 251.734 112.821 251.169L130.168 246.106ZM146.769 241.261C147.206 244.199 147.455 246.913 147.564 249.434L138.015 252.221C135.923 252.17 134.253 251.495 133.36 250.3C132.311 248.898 132.329 246.721 134.21 244.927L146.769 241.261ZM128.079 236.776C126.145 239.588 127.624 242.94 131.212 244.267L113.288 249.499C112.164 249.827 110.956 249.695 109.929 249.132C108.903 248.569 108.142 247.622 107.814 246.498L107.812 246.492C107.248 244.558 108.358 242.533 110.291 241.968L128.079 236.776ZM144.878 231.873C145.582 234.68 146.126 237.315 146.538 239.794L134.954 243.175C130.325 242.773 129.274 239.973 130.825 235.975L144.878 231.873ZM124.863 227.745C123.469 232.975 125.93 234.185 128.755 235.015L110.444 240.36C108.104 241.042 105.653 239.699 104.969 237.358C104.403 235.418 105.513 233.393 107.447 232.829L124.863 227.745ZM142.181 222.691C143.086 225.401 143.854 227.973 144.502 230.418L131.348 234.258C129.136 233.694 127.685 231.745 127.348 230.51C126.894 228.852 127.532 227.597 128.344 226.73L142.181 222.691ZM121.077 219.177C119.542 222.247 120.962 225.542 124.541 226.275L106.417 231.565C105.299 231.891 104.098 231.76 103.077 231.2C102.056 230.641 101.3 229.698 100.973 228.581C100.7 227.642 100.812 226.642 101.283 225.796C101.754 224.949 102.545 224.327 103.478 224.067L121.077 219.177ZM138.406 213.867C139.714 216.289 140.83 218.757 141.698 221.267L127.687 225.357C125.857 225.157 123.692 224.303 123.152 221.485C122.904 220.378 123.523 219.149 124.324 218.203L138.406 213.867ZM115.95 210.899C114.777 214.822 116.804 216.977 119.693 217.72L101.458 223.043C99.2289 223.693 96.8915 222.43 96.2146 220.208C95.9402 219.308 96.039 218.34 96.4871 217.519C96.9346 216.698 97.6939 216.09 98.5939 215.835L115.95 210.899ZM133.089 205.509C134.743 207.788 136.277 210.114 137.636 212.483L122.98 216.761C119.705 216.479 117.372 213.691 118.667 210.065L133.089 205.509ZM108.779 203.04C109.846 207.049 111.097 209.092 112.708 209.789L95.6602 214.765C94.5965 215.076 93.4534 214.951 92.4815 214.419C91.5103 213.886 90.7897 212.989 90.4797 211.925C90.2259 211.056 90.3272 210.126 90.7603 209.336C91.1934 208.546 91.9228 207.96 92.7884 207.707L108.779 203.04ZM126.915 197.746C128.703 199.833 130.44 201.963 132.075 204.137L116.642 208.641C113.914 208.103 111.208 205.058 113.156 201.762L126.915 197.746ZM101.568 195.306C101.893 195.461 102.196 195.63 102.416 195.801C104.158 197.148 101.855 199.608 106.958 201.713L88.8416 207.001C86.6072 207.653 84.2666 206.37 83.6147 204.136C83.3579 203.256 83.4604 202.314 83.8991 201.513C84.3379 200.713 85.0766 200.119 85.9528 199.864L101.568 195.306ZM208.063 175.142C209.209 174.922 209.21 176.641 208.181 179.269C207.073 182.102 203.364 182.368 203.714 182.941C205.248 185.451 210.117 184.456 211.424 184.881C212.371 185.189 210.914 188.513 207.804 190.553C205.532 192.044 206.283 192.745 209.279 192.959C210.653 193.058 212.587 191.696 214.425 191.714C215.078 191.72 214.934 195.186 213.059 196.604C208.672 199.925 212.239 199.788 217.734 198.238C220.801 197.373 220.249 198.331 219.074 200.57C218.364 201.926 216.921 202.629 217.351 203.05C217.926 203.612 222.526 204.336 225.954 200.002C226.591 199.197 226.761 198.028 225.054 196.754C219.05 192.273 216.601 186.91 214.589 178.84C213.914 176.126 213.551 165.303 214.099 162.872C214.44 161.359 214.05 161.405 210.255 163.323C201.1 167.952 199.537 176.776 208.063 175.142ZM233.031 181.231C220.377 181.342 217.041 189.743 226.792 195.668C228.325 196.598 227.993 196.883 227.994 198.168C227.994 199.994 229.785 201.117 231.282 201.248C234.621 201.539 236.446 200.321 237.06 196.165C237.36 194.128 237.934 193.065 240.007 190.281C240.992 188.96 241.44 188.098 241.177 188.002C240.687 187.823 239.403 188.118 238.386 189.839C234.974 195.614 226.24 194.281 224.279 190.11C222.915 187.208 225.343 183.249 234.099 183.216C240.267 183.195 240.495 183.444 241.064 185.525C241.518 187.188 242.581 186.511 244.815 183.136C248.498 177.572 248.016 176.612 244.255 178.661C240.693 180.601 237.598 181.19 233.031 181.231ZM119.888 189.959C121.809 192.009 123.74 194.112 125.628 196.264L110.694 200.623C109.257 200.268 107.893 199.419 106.866 198.061C106.003 196.919 106.062 195.079 107.33 193.624L119.888 189.959ZM96.8752 186.864C95.8852 190.566 96.9614 192.215 100.586 193.388L82.3979 198.697C81.3323 199.008 80.1873 198.883 79.2148 198.349C78.2417 197.816 77.5204 196.918 77.2092 195.853C76.9504 194.966 77.0579 194.019 77.5067 193.218C77.9548 192.416 78.706 191.829 79.5917 191.587L96.8752 186.864ZM112.434 182.073C114.305 184.066 116.269 186.12 118.261 188.23L103.742 192.467C99.9027 191.684 98.6814 188.534 100.495 185.765L112.434 182.073ZM89.6478 179.078C89.3709 183.224 92.0915 184.571 94.9058 185.076L76.2467 190.523C73.7767 191.244 71.1805 189.876 70.3774 187.432C70.278 187.13 70.1799 186.83 70.0843 186.539C69.8462 185.814 69.9249 185.022 70.3012 184.358C70.6774 183.695 71.3161 183.22 72.0599 183.052L89.6478 179.078ZM230.119 186.558C232.584 186.542 234.737 186.71 237.03 189.091C237.246 189.316 237.51 188.563 237.675 188.213C238.047 187.422 238.782 186.585 238.017 186.045C236.508 184.98 232.182 184.713 228.872 185.723C226.9 186.326 227.769 186.574 230.119 186.558ZM105.5 174.312C107.117 176.274 108.938 178.309 110.885 180.413L97.9933 184.175C92.9209 184.045 92.0328 179.967 92.414 177.653L94.1759 176.563L105.5 174.312ZM84.3722 170.747C85.016 173.785 86.8841 175.221 88.8615 176.459L69.3324 181.333C67.8356 181.706 66.2687 181.076 65.4462 179.771C64.915 178.927 64.2906 177.936 63.6881 176.979C63.1625 176.144 63.1056 175.097 63.5381 174.21C63.9706 173.324 64.8306 172.724 65.8125 172.625L84.3722 170.747ZM229.942 175.467C229.314 176.51 228.392 177.916 226.87 179.232C225.817 180.141 237.793 179.132 240.865 177.372C243.022 176.137 245.4 176.356 246.01 176.513C246.903 176.745 246.751 175.43 245.937 173.043C244.273 168.167 241.385 166.701 237.38 168.087C234.785 168.985 232.565 171.109 229.942 175.467ZM229.564 165.254C228.414 166.31 226.812 167.893 225.662 168.695C221.001 171.945 218.911 175.165 220.711 176.944C223.777 179.978 229.493 174.882 229.579 168.78C229.616 166.21 231.825 163.722 237.931 162.996C239.56 162.802 240.013 162.174 238.219 162.205C236.398 162.238 234.672 162.272 234.384 162.369C232.53 162.994 231.388 163.58 229.564 165.254ZM100.238 166.724C101.231 168.626 102.585 170.617 104.201 172.692L91.6246 175.77C89.0228 174.488 85.3947 170.405 88.4434 167.717L88.4472 167.692L100.238 166.724ZM236.115 165.454C237.795 165.235 240.262 164.936 241.968 165.582C245.673 166.984 248.273 170.529 248.39 173.085C248.453 174.445 249.286 175.08 249.675 173.529C249.936 172.49 251.048 169.876 251.102 167.357C251.112 166.886 251.05 166.069 250.651 165.817C250.226 165.549 248.453 165.72 247.65 165.576C246.591 165.385 244.916 164.992 244.027 164.525C241.998 163.459 237.963 163.789 235.753 164.425C235.247 164.57 234.432 165.672 236.115 165.454ZM83.6716 169.515L64.1181 170.06C62.3413 170.11 60.7994 168.845 60.4994 167.094C60.3913 166.465 60.2738 165.779 60.1538 165.076C59.8782 163.469 60.3732 161.825 61.49 160.636C62.6075 159.448 64.2175 158.852 65.8393 159.027C71.8143 159.673 76.7211 160.237 79.7123 160.572C80.1629 165.199 82.5479 168.293 83.6716 169.515ZM218.756 167.354C220.67 169.25 224.25 168.637 225.67 166.806C229.487 161.884 232.552 160.606 237.284 160.586C238.884 160.58 238.155 159.853 236.703 158.487C234.77 156.671 233.554 156.503 231.219 156.634C229.435 156.733 228.82 156.621 228.82 156.082C228.822 153.902 225.037 152.559 222.441 154.163C217.876 156.984 215.846 164.472 218.756 167.354ZM234.448 159.069C234.601 159.304 230.598 160.437 228.979 161.582C228.302 162.059 227.909 162.548 227.285 162.884C227.15 162.957 224.736 162.911 223.825 161.86C222.836 160.72 223.399 158.102 225.233 158.129C226.345 158.144 225.702 159.062 225.288 160.102C225.058 160.681 225.153 161.434 225.52 161.545C228.89 162.572 227.87 157.249 225.86 156.907C224.384 156.656 221.512 157.749 221.344 160.054C221.266 161.132 221.389 162.152 222.71 163.169C223.824 164.027 225.192 163.791 226.31 163.702C224.824 165.247 223.284 166.537 221.52 166.442C219.175 166.315 218.883 162.087 220.398 159.066C221.288 157.291 223.459 155.291 225.174 155.374C227.511 155.489 227.26 157.033 228.327 158.103C228.945 158.725 233.58 157.733 234.448 159.069ZM100.111 164.865L85.7178 165.477C81.7566 162.572 81.5816 151.201 83.5629 149.733C87.6841 154.572 93.5365 156.334 99.5202 157.257C99.3095 158.248 99.1745 159.341 99.1245 160.546C99.0777 161.679 99.1633 163.709 100.111 164.865ZM216.549 152.351C215.354 153.455 214.94 153.397 213.59 151.379C212.169 149.254 210.322 148.353 208.619 148.332C204.689 148.281 201.348 151.932 201.068 152.487C200.83 152.96 201.53 153.132 201.758 153.99C202.51 156.83 205.403 160.809 209.286 161.026C212.269 161.192 214.832 160.137 216.853 156.903C218.832 153.736 220.79 151.628 222.907 150.869C225.887 149.801 228.724 150.986 231.387 153.704C231.81 154.136 233.108 154.332 233.52 154.314C234.33 154.279 236.237 155.689 237.193 156.843C239.153 159.208 240.042 159.301 239.574 157.76C239.226 156.614 235.192 152.304 232.932 151.568C230.885 150.902 228.634 147.296 225.212 146.586C223.715 146.275 222.46 147.276 221.22 148.346C219.626 149.721 217.012 151.925 216.549 152.351ZM79.5829 158.66C76.5605 158.132 68.1218 156.668 62.1194 155.697C60.9825 155.514 59.9663 154.886 59.2938 153.952C58.6207 153.018 58.3469 151.855 58.5332 150.719C58.6932 149.739 58.865 148.691 59.0294 147.684C59.2257 146.484 59.965 145.441 61.0325 144.858C62.1 144.274 63.3775 144.216 64.4937 144.699C69.8712 147.026 76.6648 150.065 79.5948 151.38C79.3473 153.645 79.4848 156.964 79.5829 158.66ZM99.8964 155.831C94.5146 155.024 90.9734 153.686 85.1422 148.926C81.9516 145.188 89.0915 135.818 92.4496 138.357C94.5277 145.421 98.2446 148.078 102.621 151.319C101.451 152.437 100.51 153.907 99.8964 155.831ZM103.599 150.499C100.087 147.395 96.5533 142.91 95.3933 138.878C95.1327 137.971 95.0265 136.472 95.414 135.84C98.0564 131.52 104.764 132.066 107.145 132.406C107.609 132.473 107.89 132.97 107.849 133.302C107.238 138.204 108.116 141.941 109.377 145.113C109.459 145.319 109.793 148.188 109.344 148.263C107.239 148.616 105.253 149.288 103.599 150.499ZM79.951 149.449L64.2044 141.171C63.0531 140.565 62.19 139.526 61.8056 138.284C61.4219 137.041 61.5481 135.696 62.1575 134.548C62.2256 134.418 62.2944 134.289 62.3638 134.158C63.1475 132.68 64.5594 131.636 66.2031 131.32C67.8462 131.003 69.5449 131.45 70.8212 132.532L82.6723 142.584C81.6441 144.318 80.5517 146.999 79.951 149.449ZM112.337 147.956C110.318 145.198 109.751 137.915 110.064 133.536C110.124 132.7 110.725 132.421 110.952 132.43C115.256 132.616 118.491 133.803 121.826 136.857C122.214 137.213 122.304 138.136 122.13 138.381C120.068 141.273 119.23 144.543 119.404 148.126C117.229 148 114.771 147.84 112.337 147.956ZM83.5716 141.192C80.556 138.686 71.9761 131.494 71.1368 130.13C69.8812 122.668 76.8648 118.27 81.4735 119.955C82.7447 121.782 87.2909 131.45 88.9797 135.072C86.3885 137.128 84.6341 139.592 83.5716 141.192ZM119.468 131.253C121.926 128.317 127.572 121.642 129.943 119.419C131.659 117.81 134.726 117.009 136.183 118.182C137.513 119.253 139.81 121.625 140.226 123.476C140.819 126.112 140.165 127.936 138.069 129.29C135.612 130.877 128.015 135.047 124.82 136.79C123.328 134.281 121.614 132.483 119.468 131.253ZM90.594 133.87C88.6928 130.123 83.8316 120.492 82.701 117.766C82.3591 116.942 82.1791 115.667 82.9016 114.844C85.5672 111.807 91.7684 109.654 95.0583 109.988C96.4952 110.134 97.0008 110.872 97.0452 112.019C97.2021 116.084 97.4908 126.513 97.5889 130.124C95.1033 130.958 92.6509 132.413 90.594 133.87ZM109.651 129.032C111.179 124.974 114.457 116.29 115.524 113.625C115.833 112.853 116.447 110.772 117.554 110.177C118.786 109.515 121.735 109.217 123.752 109.717C125.769 110.217 127.972 111.918 128.674 113.259C129.377 114.6 129.007 116.157 128.184 117.432C126.592 119.895 120.735 127.305 118.127 130.581C115.829 129.585 113.071 129.114 109.651 129.032ZM99.2495 129.667C99.1808 125.517 99.0339 113.82 99.4827 110.554C99.6977 108.993 100.823 107.729 102.338 107.294C104.281 106.734 109.462 106.71 111.426 107.374C113.029 107.917 114.386 109.348 114.138 111.022C113.681 114.12 109.669 124.688 107.991 129.022C105.793 129.043 103.341 129.199 100.591 129.458C100.147 129.5 99.6989 129.571 99.2495 129.667ZM175.707 70.5041H39.5259L39.224 68.6348H176.003L175.707 70.5041ZM176.564 65.0873H38.6522L38.0122 61.1217C38.4791 61.0124 38.9403 60.8786 39.3947 60.7161C40.8853 60.1842 42.2615 59.3661 43.4477 58.3187C44.5709 57.3268 45.5152 56.1456 46.3015 54.8724C46.8877 53.9237 47.3889 52.9231 47.8239 51.8962C47.9152 51.68 47.9983 51.4594 48.0808 51.2387V47.3994C47.9627 47.43 47.8471 47.47 47.7346 47.5182C47.0652 47.8063 46.5877 48.3744 46.264 49.0125C46.0521 49.4288 45.9096 49.8756 45.7396 50.3094C45.6602 50.5106 45.5765 50.7094 45.4946 50.9087C45.2883 51.3781 45.0771 51.8425 44.8471 52.3012C44.2684 53.4118 43.6027 54.4743 42.7734 55.4174C41.419 56.9587 39.6728 58.0762 37.6847 58.5999L37.6084 58.6193L29.6504 9.29488H185.382L177.543 58.8924C177.039 58.8274 176.537 58.7293 176.047 58.5999C174.059 58.0762 172.314 56.9587 170.959 55.4174C170.13 54.4743 169.464 53.4118 168.885 52.3012C168.655 51.8425 168.444 51.3781 168.237 50.9087C168.156 50.7094 168.072 50.5106 167.993 50.3094C167.822 49.8756 167.68 49.4288 167.468 49.0125C167.144 48.3744 166.667 47.8063 165.997 47.5182C165.885 47.47 165.769 47.43 165.651 47.3994V51.2387C165.734 51.4594 165.817 51.68 165.909 51.8962C166.344 52.9231 166.844 53.9237 167.431 54.8724C168.217 56.1456 169.161 57.3268 170.284 58.3187C171.471 59.3661 172.847 60.1842 174.338 60.7161C175.251 61.0424 176.193 61.2542 177.149 61.3836L176.564 65.0873ZM92.2759 59.0005C92.2759 59.0005 93.3909 58.9893 93.7077 58.9711C94.4946 58.9261 95.2827 58.8005 96.0446 58.5999C98.0327 58.0762 99.7783 56.9587 101.133 55.4174C101.962 54.4743 102.628 53.4118 103.207 52.3012C103.436 51.8425 103.648 51.3781 103.854 50.9087C103.936 50.7094 104.02 50.5106 104.099 50.3094C104.269 49.8756 104.412 49.4288 104.623 49.0125C104.947 48.3744 105.425 47.8063 106.094 47.5182C106.206 47.47 106.323 47.43 106.441 47.3994V51.2387C106.358 51.4594 106.275 51.68 106.183 51.8962C105.748 52.9231 105.247 53.9237 104.661 54.8724C103.874 56.1456 102.93 57.3268 101.807 58.3187C100.621 59.3661 99.2445 60.1843 97.7539 60.7161C96.4983 61.1649 95.1902 61.3967 93.8634 61.4961C93.4702 61.5149 92.1978 61.533 92.1978 61.533C91.784 61.5336 91.0571 61.5136 90.689 61.4961C89.3622 61.3967 88.0541 61.1649 86.7984 60.7161C85.3078 60.1843 83.931 59.3661 82.7454 58.3187C81.6223 57.3268 80.6779 56.1456 79.8917 54.8724C79.3054 53.9237 78.8042 52.9231 78.3692 51.8962C78.2773 51.68 78.1942 51.4594 78.1117 51.2387V47.3994C78.2298 47.43 78.3461 47.47 78.4586 47.5182C79.1273 47.8063 79.6054 48.3744 79.9292 49.0125C80.1404 49.4288 80.2829 49.8756 80.4535 50.3094C80.5323 50.5106 80.6167 50.7094 80.6979 50.9087C80.9048 51.3781 81.116 51.8425 81.3454 52.3012C81.9241 53.4118 82.5904 54.4743 83.4191 55.4174C84.7741 56.9587 86.5197 58.0762 88.5078 58.5999C89.2697 58.8005 90.0578 58.9261 90.8446 58.9711C91.1828 58.9905 91.9371 58.9774 92.2759 59.0005ZM150.636 61.5324C150.636 61.5324 149.417 61.5136 149.048 61.4961C147.722 61.3967 146.413 61.1649 145.158 60.7161C143.667 60.1843 142.291 59.3661 141.105 58.3187C139.982 57.3268 139.037 56.1456 138.251 54.8724C137.665 53.9237 137.163 52.9231 136.728 51.8962C136.637 51.68 136.554 51.4594 136.472 51.2387V47.3994C136.59 47.43 136.705 47.47 136.818 47.5182C137.487 47.8063 137.965 48.3744 138.288 49.0125C138.5 49.4288 138.643 49.8756 138.813 50.3094C138.892 50.5106 138.976 50.7094 139.058 50.9087C139.264 51.3781 139.475 51.8425 139.705 52.3012C140.284 53.4118 140.95 54.4743 141.779 55.4174C143.133 56.9587 144.88 58.0762 146.868 58.5999C147.63 58.8005 148.417 58.9261 149.204 58.9711C149.543 58.9905 150.297 58.9774 150.636 59.0005C150.636 59.0005 151.75 58.9893 152.068 58.9711C152.854 58.9261 153.642 58.8005 154.404 58.5999C156.392 58.0762 158.138 56.9587 159.493 55.4174C160.321 54.4743 160.988 53.4118 161.566 52.3012C161.796 51.8425 162.008 51.3781 162.214 50.9087C162.296 50.7094 162.379 50.5106 162.458 50.3094C162.629 49.8756 162.771 49.4288 162.983 49.0125C163.307 48.3744 163.784 47.8063 164.454 47.5182C164.566 47.47 164.682 47.43 164.8 47.3994V51.2387C164.717 51.4594 164.634 51.68 164.543 51.8962C164.108 52.9231 163.607 53.9237 163.021 54.8724C162.234 56.1456 161.29 57.3268 160.167 58.3187C158.981 59.3661 157.604 60.1843 156.113 60.7161C154.858 61.1649 153.549 61.3967 152.223 61.4961C151.83 61.5149 151.03 61.5367 150.636 61.5324ZM121.524 58.9968C121.887 58.9793 122.571 58.9893 122.888 58.9711C123.674 58.9261 124.462 58.8005 125.224 58.5999C127.212 58.0762 128.958 56.9587 130.313 55.4174C131.142 54.4743 131.808 53.4118 132.387 52.3012C132.617 51.8425 132.828 51.3781 133.034 50.9087C133.115 50.7094 133.2 50.5106 133.278 50.3094C133.449 49.8756 133.592 49.4288 133.803 49.0125C134.127 48.3744 134.605 47.8063 135.273 47.5182C135.386 47.47 135.502 47.43 135.62 47.3994V51.2387C135.538 51.4594 135.455 51.68 135.363 51.8962C134.928 52.9231 134.427 53.9237 133.84 54.8724C133.054 56.1456 132.11 57.3268 130.987 58.3187C129.801 59.3661 128.424 60.1843 126.934 60.7161C125.678 61.1649 124.37 61.3967 123.044 61.4961C122.651 61.5149 121.85 61.5367 121.456 61.5324C121.062 61.5367 120.262 61.5149 119.869 61.4961C118.542 61.3967 117.234 61.1649 115.978 60.7161C114.487 60.1843 113.111 59.3661 111.925 58.3187C110.802 57.3268 109.858 56.1456 109.071 54.8724C108.485 53.9237 107.984 52.9231 107.549 51.8962C107.457 51.68 107.374 51.4594 107.291 51.2387V47.3994C107.41 47.43 107.526 47.47 107.638 47.5182C108.308 47.8063 108.785 48.3744 109.109 49.0125C109.32 49.4288 109.463 49.8756 109.633 50.3094C109.712 50.5106 109.796 50.7094 109.878 50.9087C110.084 51.3781 110.296 51.8425 110.526 52.3012C111.104 53.4118 111.77 54.4743 112.599 55.4174C113.954 56.9587 115.699 58.0762 117.688 58.5999C118.449 58.8005 119.237 58.9261 120.024 58.9711C120.362 58.9905 121.524 58.9968 121.524 58.9968ZM61.6644 58.9711C62.0031 58.9905 64.2106 58.9893 64.5281 58.9711C65.315 58.9261 66.1031 58.8005 66.8643 58.5999C68.853 58.0762 70.5987 56.9587 71.9536 55.4174C72.7824 54.4743 73.4486 53.4118 74.0267 52.3012C74.2567 51.8425 74.468 51.3781 74.6749 50.9087C74.7561 50.7094 74.8405 50.5106 74.9192 50.3094C75.0892 49.8756 75.2323 49.4288 75.4436 49.0125C75.7673 48.3744 76.2448 47.8063 76.9142 47.5182C77.0267 47.47 77.1423 47.43 77.2611 47.3994V51.2387C77.1786 51.4594 77.0954 51.68 77.0036 51.8962C76.5686 52.9231 76.0673 53.9237 75.4811 54.8724C74.6949 56.1456 73.7505 57.3268 72.6274 58.3187C71.4411 59.3661 70.0649 60.1843 68.5743 60.7161C67.3187 61.1649 66.0106 61.3967 64.6837 61.4961C64.2906 61.5149 61.8775 61.5136 61.5088 61.4961C60.1825 61.3967 58.8744 61.1649 57.6188 60.7161C56.1282 60.1843 54.7514 59.3661 53.5651 58.3187C52.442 57.3268 51.4983 56.1456 50.712 54.8724C50.1252 53.9237 49.6245 52.9231 49.1895 51.8962C49.0977 51.68 49.0145 51.4594 48.932 51.2387V47.3994C49.0502 47.43 49.1658 47.47 49.2789 47.5182C49.9477 47.8063 50.4258 48.3744 50.7495 49.0125C50.9608 49.4288 51.1033 49.8756 51.2739 50.3094C51.3526 50.5106 51.437 50.7094 51.5183 50.9087C51.7245 51.3781 51.9358 51.8425 52.1658 52.3012C52.7445 53.4118 53.4107 54.4743 54.2395 55.4174C55.5945 56.9587 57.3401 58.0762 59.3282 58.5999C60.09 58.8005 60.8781 58.9261 61.6644 58.9711ZM47.6883 46.2469C47.2639 46.6188 46.8102 47.0169 46.6915 47.1213C46.6721 47.1382 46.6471 47.1463 46.6215 47.1444C46.4033 47.1219 46.1008 47.0025 45.9277 46.7194C45.8958 46.6632 45.9096 46.5925 45.959 46.5519C46.2965 46.2544 47.6933 45.0244 48.2633 44.5226C48.4027 44.4001 48.6114 44.4001 48.7508 44.5226C49.3877 45.0838 51.0545 46.5519 51.0545 46.5519C51.1045 46.5925 51.1176 46.6632 51.0864 46.7194C50.9126 47.0025 50.6101 47.1219 50.392 47.1444C50.367 47.1463 50.3414 47.1382 50.322 47.1213C50.1277 46.9507 49.0358 45.9932 48.6458 45.6507C48.5664 45.5807 48.4477 45.5807 48.3677 45.6507C48.1346 45.8557 47.6883 46.2469 47.6883 46.2469ZM76.868 46.2469C76.4442 46.6188 75.9898 47.0169 75.8711 47.1213C75.8517 47.1382 75.8267 47.1463 75.8011 47.1444C75.5836 47.1219 75.2811 47.0025 75.1073 46.7194C75.0761 46.6632 75.0892 46.5925 75.1386 46.5519C75.4767 46.2544 76.873 45.0244 77.4429 44.5226C77.5823 44.4001 77.7911 44.4001 77.9304 44.5226C78.5673 45.0838 80.2342 46.5519 80.2342 46.5519C80.2842 46.5925 80.2973 46.6632 80.266 46.7194C80.0923 47.0025 79.7898 47.1219 79.5723 47.1444C79.5467 47.1463 79.521 47.1382 79.5023 47.1213C79.3073 46.9507 78.2161 45.9932 77.8254 45.6507C77.7461 45.5807 77.6273 45.5807 77.5479 45.6507C77.3142 45.8557 76.868 46.2469 76.868 46.2469ZM106.048 46.2469C105.624 46.6188 105.17 47.0169 105.051 47.1213C105.031 47.1382 105.006 47.1463 104.981 47.1444C104.763 47.1219 104.461 47.0025 104.287 46.7194C104.256 46.6632 104.269 46.5925 104.319 46.5519C104.656 46.2544 106.053 45.0244 106.623 44.5226C106.762 44.4001 106.971 44.4001 107.11 44.5226C107.748 45.0838 109.414 46.5519 109.414 46.5519C109.464 46.5925 109.477 46.6632 109.446 46.7194C109.272 47.0025 108.969 47.1219 108.752 47.1444C108.726 47.1463 108.701 47.1382 108.682 47.1213C108.487 46.9507 107.396 45.9932 107.005 45.6507C106.926 45.5807 106.807 45.5807 106.728 45.6507C106.494 45.8557 106.048 46.2469 106.048 46.2469ZM135.228 46.2469C134.803 46.6188 134.35 47.0169 134.23 47.1213C134.212 47.1382 134.186 47.1463 134.16 47.1444C133.943 47.1219 133.64 47.0025 133.467 46.7194C133.435 46.6632 133.448 46.5925 133.498 46.5519C133.836 46.2544 135.233 45.0244 135.802 44.5226C135.942 44.4001 136.15 44.4001 136.29 44.5226C136.927 45.0838 138.594 46.5519 138.594 46.5519C138.643 46.5925 138.657 46.6632 138.625 46.7194C138.452 47.0025 138.149 47.1219 137.932 47.1444C137.906 47.1463 137.881 47.1382 137.862 47.1213C137.667 46.9507 136.575 45.9932 136.185 45.6507C136.105 45.5807 135.987 45.5807 135.907 45.6507C135.673 45.8557 135.228 46.2469 135.228 46.2469ZM164.407 46.2469C163.983 46.6188 163.529 47.0169 163.411 47.1213C163.391 47.1382 163.366 47.1463 163.341 47.1444C163.122 47.1219 162.82 47.0025 162.646 46.7194C162.615 46.6632 162.628 46.5925 162.678 46.5519C163.016 46.2544 164.412 45.0244 164.982 44.5226C165.121 44.4001 165.331 44.4001 165.469 44.5226C166.107 45.0838 167.774 46.5519 167.774 46.5519C167.823 46.5925 167.837 46.6632 167.805 46.7194C167.632 47.0025 167.329 47.1219 167.111 47.1444C167.086 47.1463 167.061 47.1382 167.041 47.1213C166.847 46.9507 165.755 45.9932 165.365 45.6507C165.286 45.5807 165.166 45.5807 165.087 45.6507C164.854 45.8557 164.407 46.2469 164.407 46.2469ZM165.226 32.5615L169.349 28.7346C169.349 28.7346 174.325 23.8047 175.647 22.6403C176.405 21.9735 177.193 22.0097 177.193 22.0097C177.193 22.0097 172.232 31.2296 172.251 36.6758C172.272 42.6276 168.342 45.9438 168.342 45.9438L165.226 43.1995L162.11 45.9438C162.11 45.9438 158.18 42.6276 158.201 36.6758C158.221 31.2296 153.26 22.0097 153.26 22.0097C153.26 22.0097 154.048 21.9735 154.805 22.6403C156.127 23.8047 161.103 28.7346 161.103 28.7346L165.226 32.5615ZM48.5071 32.5615L52.6301 28.7346C52.6301 28.7346 57.6063 23.8047 58.9282 22.6403C59.6857 21.9735 60.4738 22.0097 60.4738 22.0097C60.4738 22.0097 55.5126 31.2296 55.532 36.6758C55.5532 42.6276 51.6233 45.9438 51.6233 45.9438L48.5071 43.1995L45.3908 45.9438C45.3908 45.9438 41.4609 42.6276 41.4821 36.6758C41.5015 31.2296 36.5403 22.0097 36.5403 22.0097C36.5403 22.0097 37.3284 21.9735 38.0859 22.6403C39.4078 23.8047 44.384 28.7346 44.384 28.7346L48.5071 32.5615ZM77.6867 32.5615L81.8098 28.7346C81.8098 28.7346 86.786 23.8047 88.1078 22.6403C88.8653 21.9735 89.6534 22.0097 89.6534 22.0097C89.6534 22.0097 84.6922 31.2296 84.7116 36.6758C84.7329 42.6276 80.8029 45.9438 80.8029 45.9438L77.6867 43.1995L74.5705 45.9438C74.5705 45.9438 70.6405 42.6276 70.6618 36.6758C70.6812 31.2296 65.72 22.0097 65.72 22.0097C65.72 22.0097 66.5087 21.9735 67.2656 22.6403C68.5874 23.8047 73.5636 28.7346 73.5636 28.7346L77.6867 32.5615ZM106.866 32.5615L110.989 28.7346C110.989 28.7346 115.966 23.8047 117.287 22.6403C118.045 21.9735 118.833 22.0097 118.833 22.0097C118.833 22.0097 113.872 31.2296 113.891 36.6758C113.912 42.6276 109.983 45.9438 109.983 45.9438L106.866 43.1995L103.75 45.9438C103.75 45.9438 99.8208 42.6276 99.8414 36.6758C99.8608 31.2296 94.9002 22.0097 94.9002 22.0097C94.9002 22.0097 95.6883 21.9735 96.4458 22.6403C97.7677 23.8047 102.744 28.7346 102.744 28.7346L106.866 32.5615ZM136.047 32.5615L140.169 28.7346C140.169 28.7346 145.145 23.8047 146.467 22.6403C147.225 21.9735 148.013 22.0097 148.013 22.0097C148.013 22.0097 143.052 31.2296 143.072 36.6758C143.092 42.6276 139.163 45.9438 139.163 45.9438L136.047 43.1995L132.93 45.9438C132.93 45.9438 129 42.6276 129.022 36.6758C129.04 31.2296 124.08 22.0097 124.08 22.0097C124.08 22.0097 124.868 21.9735 125.625 22.6403C126.947 23.8047 131.924 28.7346 131.924 28.7346L136.047 32.5615ZM103.384 28.0403C101.31 26.1172 98.8027 23.7897 97.3252 22.416C96.9833 22.0991 96.794 21.6504 96.8052 21.1841C96.8165 20.7179 97.0277 20.2791 97.3846 19.9791C97.7458 19.6648 98.2171 19.5323 98.6802 19.6029C99.1439 19.6735 99.5545 19.9398 99.8077 20.3341L103.974 26.7909C103.702 27.1597 103.499 27.5828 103.384 28.0403ZM161.743 28.0403C159.67 26.1172 157.162 23.7897 155.684 22.416C155.343 22.0991 155.153 21.6504 155.164 21.1841C155.176 20.7179 155.387 20.2791 155.744 19.9791C156.106 19.6648 156.577 19.5323 157.04 19.6029C157.503 19.6735 157.914 19.9398 158.167 20.3341L162.334 26.7909C162.062 27.1597 161.859 27.5828 161.743 28.0403ZM74.2042 28.0403C72.1305 26.1172 69.6224 23.7897 68.1456 22.416C67.8031 22.0991 67.6137 21.6504 67.6256 21.1841C67.6368 20.7179 67.8481 20.2791 68.2049 19.9791C68.5662 19.6648 69.0374 19.5323 69.5005 19.6029C69.9637 19.6735 70.3743 19.9398 70.628 20.3341L74.7942 26.7909C74.5224 27.1597 74.3192 27.5828 74.2042 28.0403ZM132.564 28.0403C130.49 26.1172 127.982 23.7897 126.505 22.416C126.163 22.0991 125.974 21.6504 125.985 21.1841C125.996 20.7179 126.207 20.2791 126.564 19.9791C126.925 19.6648 127.397 19.5323 127.86 19.6029C128.324 19.6735 128.734 19.9398 128.987 20.3341L133.154 26.7909C132.882 27.1597 132.678 27.5828 132.564 28.0403ZM45.024 28.0403C42.9509 26.1172 40.4428 23.7897 38.9653 22.416C38.6234 22.0991 38.4341 21.6504 38.4453 21.1841C38.4572 20.7179 38.6678 20.2791 39.0253 19.9791C39.3865 19.6648 39.8578 19.5323 40.3209 19.6029C40.784 19.6735 41.1946 19.9398 41.4478 20.3341L45.6146 26.7909C45.3427 27.1597 45.1396 27.5828 45.024 28.0403ZM51.3958 26.7859C52.8607 24.5166 54.5414 21.9147 55.5626 20.3372C55.8157 19.9454 56.2245 19.681 56.6857 19.611C57.1469 19.541 57.6157 19.6729 57.9732 19.9723C58.3457 20.2735 58.5576 20.7147 58.5688 21.1835C58.5794 21.6516 58.3888 22.1022 58.0444 22.4203L51.9883 28.0347C51.8726 27.5772 51.6683 27.1547 51.3958 26.7859ZM168.115 26.7859C169.58 24.5166 171.261 21.9147 172.282 20.3372C172.535 19.9454 172.944 19.681 173.405 19.611C173.866 19.541 174.335 19.6729 174.692 19.9723C175.065 20.2735 175.277 20.7147 175.287 21.1835C175.299 21.6516 175.108 22.1022 174.764 22.4203L168.707 28.0347C168.592 27.5772 168.387 27.1547 168.115 26.7859ZM138.935 26.7859C140.4 24.5166 142.081 21.9147 143.102 20.3372C143.355 19.9454 143.764 19.681 144.225 19.611C144.686 19.541 145.155 19.6729 145.512 19.9723C145.885 20.2735 146.097 20.7147 146.108 21.1835C146.119 21.6516 145.928 22.1022 145.584 22.4203L139.528 28.0347C139.412 27.5772 139.208 27.1547 138.935 26.7859ZM109.755 26.7859C111.221 24.5166 112.901 21.9147 113.922 20.3372C114.175 19.9454 114.584 19.681 115.045 19.611C115.506 19.541 115.975 19.6729 116.332 19.9723C116.705 20.2735 116.917 20.7147 116.928 21.1835C116.939 21.6516 116.748 22.1022 116.404 22.4203L110.348 28.0347C110.232 27.5772 110.028 27.1547 109.755 26.7859ZM80.5754 26.7859C82.0404 24.5166 83.721 21.9147 84.7422 20.3372C84.9953 19.9454 85.4041 19.681 85.8653 19.611C86.3266 19.541 86.7953 19.6729 87.1528 19.9723C87.5253 20.2735 87.7372 20.7147 87.7484 21.1835C87.7591 21.6516 87.5684 22.1022 87.2241 22.4203L81.1685 28.0347C81.0523 27.5772 80.8485 27.1547 80.5754 26.7859ZM133.526 26.3615C132.314 23.996 130.944 21.3241 130.107 19.6879C129.894 19.2729 129.87 18.7866 130.04 18.3523C130.21 17.9179 130.559 17.5779 130.997 17.4179C131.444 17.246 131.932 17.2835 132.343 17.5079C132.754 17.7329 133.048 18.1235 133.152 18.5804L134.745 25.5709C134.285 25.7503 133.872 26.0209 133.526 26.3615ZM104.346 26.3615C103.134 23.996 101.764 21.3241 100.927 19.6879C100.715 19.2729 100.69 18.7866 100.86 18.3523C101.03 17.9179 101.378 17.5779 101.816 17.4179C102.264 17.246 102.752 17.2835 103.163 17.5079C103.574 17.7329 103.869 18.1235 103.972 18.5804L105.565 25.5709C105.106 25.7503 104.692 26.0209 104.346 26.3615ZM75.1667 26.3615C73.9536 23.996 72.5842 21.3241 71.7474 19.6879C71.5343 19.2729 71.5099 18.7866 71.6805 18.3523C71.8505 17.9179 72.1986 17.5779 72.6367 17.4179C73.0842 17.246 73.5717 17.2835 73.983 17.5079C74.3942 17.7329 74.6892 18.1235 74.7923 18.5804L76.3855 25.5709C75.9255 25.7503 75.5117 26.0209 75.1667 26.3615ZM162.706 26.3615C161.493 23.996 160.124 21.3241 159.287 19.6879C159.074 19.2729 159.049 18.7866 159.219 18.3523C159.389 17.9179 159.738 17.5779 160.176 17.4179C160.623 17.246 161.111 17.2835 161.523 17.5079C161.934 17.7329 162.229 18.1235 162.332 18.5804L163.924 25.5709C163.465 25.7503 163.051 26.0209 162.706 26.3615ZM45.9871 26.3615C44.774 23.996 43.4046 21.3241 42.5678 19.6879C42.3546 19.2729 42.3303 18.7866 42.5003 18.3523C42.6709 17.9179 43.019 17.5779 43.4571 17.4179C43.904 17.246 44.3921 17.2835 44.8033 17.5079C45.2146 17.7329 45.5096 18.1235 45.6127 18.5804L47.2052 25.5709C46.7458 25.7503 46.3321 26.0209 45.9871 26.3615ZM78.9823 25.5684C79.5542 23.0603 80.1848 20.2985 80.5785 18.5816C80.6823 18.1267 80.976 17.7385 81.3854 17.5154C81.7948 17.2923 82.2804 17.2554 82.7191 17.4148L82.7316 17.4098C83.1722 17.5704 83.5222 17.9123 83.6929 18.3485C83.8635 18.7854 83.8379 19.2741 83.6229 19.6904L80.2023 26.3565C79.856 26.0172 79.4423 25.7466 78.9823 25.5684ZM166.521 25.5684C167.094 23.0603 167.724 20.2985 168.118 18.5816C168.222 18.1267 168.516 17.7385 168.925 17.5154C169.334 17.2923 169.82 17.2554 170.258 17.4148L170.271 17.4098C170.711 17.5704 171.061 17.9123 171.232 18.3485C171.402 18.7854 171.377 19.2741 171.162 19.6904L167.742 26.3565C167.396 26.0172 166.981 25.7466 166.521 25.5684ZM49.802 25.5684C50.3745 23.0603 51.0051 20.2985 51.3989 18.5816C51.5026 18.1267 51.7964 17.7385 52.2058 17.5154C52.6151 17.2923 53.1007 17.2554 53.5389 17.4148L53.552 17.4098C53.992 17.5704 54.342 17.9123 54.5126 18.3485C54.6832 18.7854 54.6582 19.2741 54.4432 19.6904L51.0226 26.3565C50.6764 26.0172 50.262 25.7466 49.802 25.5684ZM108.162 25.5684C108.734 23.0603 109.364 20.2985 109.758 18.5816C109.862 18.1267 110.156 17.7385 110.566 17.5154C110.975 17.2923 111.461 17.2554 111.899 17.4148L111.911 17.4098C112.352 17.5704 112.702 17.9123 112.872 18.3485C113.043 18.7854 113.017 19.2741 112.803 19.6904L109.382 26.3565C109.036 26.0172 108.622 25.7466 108.162 25.5684ZM137.342 25.5684C137.914 23.0603 138.545 20.2985 138.938 18.5816C139.042 18.1267 139.336 17.7385 139.745 17.5154C140.155 17.2923 140.64 17.2554 141.078 17.4148L141.092 17.4098C141.532 17.5704 141.882 17.9123 142.052 18.3485C142.223 18.7854 142.197 19.2741 141.983 19.6904L138.562 26.3565C138.216 26.0172 137.802 25.7466 137.342 25.5684ZM164.565 25.3884C164.216 22.2578 163.811 18.6341 163.581 16.551C163.529 16.0867 163.677 15.6211 163.989 15.2723C164.301 14.9236 164.746 14.7242 165.214 14.7236C165.7 14.7148 166.147 14.9161 166.461 15.2667C166.774 15.6173 166.922 16.0848 166.869 16.5517L165.88 25.3872C165.668 25.3478 165.449 25.3278 165.226 25.3278C165.001 25.3278 164.779 25.3484 164.565 25.3884ZM135.385 25.3884C135.036 22.2578 134.632 18.6341 134.402 16.551C134.349 16.0867 134.498 15.6211 134.81 15.2723C135.121 14.9236 135.567 14.7242 136.035 14.7236C136.52 14.7148 136.968 14.9161 137.281 15.2667C137.593 15.6173 137.742 16.0848 137.689 16.5517L136.7 25.3872C136.488 25.3478 136.27 25.3278 136.047 25.3278C135.82 25.3278 135.6 25.3484 135.385 25.3884ZM77.0261 25.3884C76.6761 22.2578 76.2723 18.6341 76.0417 16.551C75.9898 16.0867 76.138 15.6211 76.4498 15.2723C76.7617 14.9236 77.2073 14.7242 77.6748 14.7236C78.1604 14.7148 78.6086 14.9161 78.921 15.2667C79.2342 15.6173 79.3823 16.0848 79.3292 16.5517L78.3404 25.3872C78.1286 25.3478 77.9098 25.3278 77.6867 25.3278C77.4611 25.3278 77.2398 25.3484 77.0261 25.3884ZM47.8458 25.3884C47.4964 22.2578 47.0921 18.6341 46.8621 16.551C46.8102 16.0867 46.9583 15.6211 47.2702 15.2723C47.5821 14.9236 48.0271 14.7242 48.4952 14.7236C48.9808 14.7148 49.4283 14.9161 49.7414 15.2667C50.0545 15.6173 50.2027 16.0848 50.1495 16.5517L49.1608 25.3872C48.9489 25.3478 48.7302 25.3278 48.5071 25.3278C48.2814 25.3278 48.0602 25.3484 47.8458 25.3884ZM106.206 25.3884C105.856 22.2578 105.452 18.6341 105.221 16.551C105.169 16.0867 105.318 15.6211 105.629 15.2723C105.941 14.9236 106.387 14.7242 106.854 14.7236C107.341 14.7148 107.788 14.9161 108.101 15.2667C108.414 15.6173 108.563 16.0848 108.509 16.5517L107.521 25.3872C107.308 25.3478 107.09 25.3278 106.866 25.3278C106.641 25.3278 106.42 25.3484 106.206 25.3884ZM185.943 5.74743H29.0779L28.1511 0H186.852L185.943 5.74743Z" fill="#FECC09"/>
</svg>
