<svg width="300" height="300" viewBox="0 0 300 300" fill="none" xmlns="http://www.w3.org/2000/svg">
<path fill-rule="evenodd" clip-rule="evenodd" d="M200.49 172.82C207.002 172.82 212.29 178.107 212.29 184.62C212.29 191.132 207.002 196.419 200.49 196.419C193.977 196.419 188.69 191.132 188.69 184.62C188.69 178.107 193.977 172.82 200.49 172.82Z" fill="#FF9700"/>
<path fill-rule="evenodd" clip-rule="evenodd" d="M157.036 220.491H133.141L151.231 185.806L130.75 108.381H154.796L164.557 157.498L189.52 108.381H213.579L157.036 220.491ZM22.9228 196.422H0C0 196.422 6.37055 140.179 9.50113 112.365C10.7799 101 23.8472 78.035 50.1281 78.5262C94.017 79.3474 86.4889 113.175 86.1458 120.596C84.9433 146.58 59.468 154.677 52.6512 155.918C43.6113 157.565 27.1965 157.25 27.1965 157.25L22.9228 196.422ZM243.824 196.422H221.845C221.845 196.422 224.692 143.993 225.905 121.659C226.206 116.116 230.788 111.776 236.34 111.776C242.189 111.776 248.463 111.776 248.463 111.776L243.824 196.422ZM272.698 196.422H250.719C250.719 196.422 252.939 155.545 254.294 130.604C254.867 120.044 263.596 111.776 274.171 111.776C286.373 111.776 299.996 111.776 299.996 111.776L299.717 129.549C299.717 129.549 291.239 129.661 284.495 129.749C279.908 129.809 276.151 133.413 275.9 137.994L272.698 196.422ZM92.587 108.482L92.5976 122.127C92.5976 122.127 110.279 123.433 109.149 144.315C63.103 149.413 59.5899 162.096 58.8836 170.043C57.5493 185.052 68.4485 195.63 86.842 195.55C123.742 195.388 131.908 158.51 131.927 143.627C131.976 104.693 92.587 108.482 92.587 108.482ZM105.932 159.128C71.0572 163.133 79.9284 175.215 81.4734 176.867C84.8314 180.456 101.943 180.012 105.932 159.128ZM30.6121 136.747C30.6121 136.747 28.9596 99.1953 48.8919 99.7672C61.5411 100.13 61.2011 111.151 61.0855 117.231C60.8636 128.948 54.3781 132.815 50.88 135.007C45.7644 138.213 30.6121 136.747 30.6121 136.747ZM239.545 75.0156C246.402 75.0156 251.969 80.5831 251.969 87.4405C251.969 94.2973 246.402 99.8647 239.545 99.8647C232.688 99.8647 227.12 94.2973 227.12 87.4405C227.12 80.5831 232.688 75.0156 239.545 75.0156Z" fill="#4073B5"/>
</svg>
