<svg width="450" height="450" viewBox="0 0 450 450" fill="none" xmlns="http://www.w3.org/2000/svg">
<path fill-rule="evenodd" clip-rule="evenodd" d="M253.338 1.94434C363.561 15.8969 449.27 110.391 449.27 224.254C449.27 347.675 348.568 448.339 225.099 448.339C101.632 448.339 0.929199 347.675 0.929199 224.254C0.929199 192.165 7.73682 161.613 19.9822 133.97L31.5691 148.864L32.2431 149.694C32.2431 149.694 34.4457 152.292 37.064 154.555C39.4583 156.597 42.5267 158.437 44.6874 159.326C46.3374 159.989 47.976 160.56 49.6982 160.893C57.2836 162.381 65.0665 162.292 70.7001 162.035C75.1811 161.833 78.3748 161.583 78.3748 161.583C107.667 160.216 118.873 173.416 126.492 182.399C133.478 190.612 201.836 281.656 201.836 281.656L235.824 247.637C235.824 247.637 207.286 211.265 194.625 194.959C180.472 176.74 170.218 163.644 163.962 158.361C150.295 146.845 120.069 145.48 113.15 144.29C113.15 144.29 87.6349 141.173 72.4089 125.563C68.8241 121.887 66.3387 118.64 66.3387 118.64L44.4734 91.7936C50.0731 84.1894 56.1407 76.9488 62.6331 70.1151L86.2146 100.478C90.8153 106.345 93.3273 109.748 97.9754 114.381C109.814 126.192 126.54 127.79 126.54 127.79C161.425 134.067 180.475 135.722 191.532 148.528C204.8 163.884 207.363 167.397 218.452 181.69C222.538 186.955 254.602 228.864 254.602 228.864L287.536 195.872C287.536 195.872 266.45 168.715 254.203 152.621C248.211 144.739 238.717 132.435 231.718 127.414C217.286 117.082 204.441 118.616 191.353 117.23C180.111 116.029 169.74 115.801 156.255 109.383C156.255 109.383 150.424 108.086 138.388 92.5877C126.337 77.1024 122.959 72.6119 122.959 72.6119L97.1249 40.4446C104.73 35.1333 112.678 30.2806 120.927 25.9274L146.384 58.9361L159.098 75.501C177.415 98.8802 189.257 99.1487 201.464 100.584C220.831 102.879 239.067 101.654 254.837 113.541C263.965 120.416 268.734 127.71 275.3 136.164C285.213 148.921 306.582 176.709 306.582 176.709L339.544 143.706C339.544 143.706 320.568 119.187 313.195 109.871C310.749 106.791 306.548 102.889 300.325 98.8518C290.49 92.4554 280.672 90.489 255.485 86.7718C230.306 83.0583 222.12 78.6888 210.223 65.6804C204.536 59.4579 201.386 55.043 197.556 50.1081L164.584 8.48715C174.866 5.59507 185.443 3.4206 196.257 2.02164L218.723 33.0232C226.263 42.1669 232.989 54.0711 252.132 62.5966C275.169 72.8539 292.569 70.4489 308.34 74.5234C308.34 74.5234 312.637 75.569 317.368 77.6451C322.387 79.8592 325.653 83.1642 328.791 86.7056C334.005 92.5877 338.572 98.3224 339.616 99.6724C339.83 99.939 359.169 124.04 359.169 124.04L391.746 91.44C391.746 91.44 384.225 81.8331 378.259 74.2928C374.566 69.6283 372.958 67.9474 369.859 66.0547C367.408 64.5629 364.334 63.0768 360.185 62.0955C355.448 60.9913 348.982 60.1726 337.829 59.7226C308.458 58.5541 297.606 56.219 278.915 33.8438L265.047 17.0274L253.338 1.94434Z" fill="#14763E"/>
</svg>
