<svg width="300" height="300" viewBox="0 0 300 300" fill="none" xmlns="http://www.w3.org/2000/svg">
<path fill-rule="evenodd" clip-rule="evenodd" d="M168.896 1.29297C242.377 10.5946 299.515 73.5899 299.515 149.498C299.515 231.777 232.382 298.886 150.07 298.886C67.7596 298.886 0.625 231.777 0.625 149.498C0.625 128.105 5.16336 107.738 13.3268 89.3089L21.0513 99.2383L21.5007 99.7917C21.5007 99.7917 22.969 101.524 24.7146 103.032C26.3108 104.394 28.3563 105.62 29.7968 106.213C30.8968 106.655 31.9892 107.036 33.1373 107.258C38.1942 108.25 43.3827 108.19 47.1383 108.019C50.1257 107.884 52.2547 107.718 52.2547 107.718C71.7823 106.806 79.2531 115.606 84.3328 121.594C88.9897 127.07 134.561 187.765 134.561 187.765L157.219 165.086C157.219 165.086 138.194 140.838 129.754 129.968C120.318 117.822 113.483 109.092 109.312 105.57C100.201 97.8921 80.0506 96.9821 75.438 96.1892C75.438 96.1892 58.4281 94.1107 48.2776 83.7041C45.8877 81.2537 44.2308 79.0894 44.2308 79.0894L29.6541 61.1918C33.3872 56.1223 37.4322 51.2953 41.7604 46.7396L57.4813 66.9812C60.5483 70.8925 62.223 73.1613 65.3217 76.2495C73.214 84.1238 84.3645 85.1889 84.3645 85.1889C107.621 89.3737 120.321 90.4767 127.692 99.014C136.537 109.252 138.246 111.594 145.638 121.122C148.362 124.632 169.738 152.571 169.738 152.571L191.694 130.577C191.694 130.577 177.637 112.472 169.472 101.743C165.477 96.4879 159.148 88.2859 154.483 84.9381C144.861 78.0508 136.298 79.073 127.573 78.1491C120.078 77.3487 113.164 77.1962 104.174 72.9181C104.174 72.9181 100.287 72.0534 92.2631 61.7212C84.229 51.3977 81.9772 48.4041 81.9772 48.4041L64.7547 26.9595C69.8247 23.4187 75.123 20.1836 80.6222 17.2815L97.5934 39.287L106.069 50.3301C118.28 65.9161 126.175 66.0951 134.313 67.0518C147.224 68.582 159.381 67.7652 169.895 75.6899C175.98 80.273 179.159 85.136 183.537 90.7716C190.145 99.2761 204.391 117.802 204.391 117.802L226.365 95.7997C226.365 95.7997 213.715 79.4537 208.8 73.2433C207.169 71.1899 204.368 68.5883 200.22 65.8972C193.663 61.6329 187.118 60.322 170.327 57.8439C153.541 55.3683 148.084 52.4553 140.152 43.7831C136.361 39.6349 134.261 36.6916 131.708 33.4018L109.727 5.65479C116.581 3.72676 123.632 2.27713 130.842 1.34451L145.819 22.012C150.846 28.1077 155.329 36.0437 168.091 41.7273C183.449 48.5654 195.049 46.9621 205.563 49.6784C205.563 49.6784 208.427 50.3755 211.582 51.7595C214.927 53.2355 217.105 55.4389 219.197 57.7998C222.673 61.7212 225.717 65.5442 226.413 66.4442C226.556 66.6219 239.449 82.6894 239.449 82.6894L261.166 60.956C261.166 60.956 256.152 54.5515 252.175 49.5247C249.713 46.415 248.641 45.2945 246.575 44.0327C244.941 43.0382 242.892 42.0474 240.126 41.3933C236.968 40.6571 232.658 40.1113 225.222 39.8113C205.641 39.0324 198.407 37.4757 185.947 22.559L176.701 11.3482L168.896 1.29297Z" fill="#14763E"/>
</svg>
