<svg width="300" height="300" viewBox="0 0 300 300" fill="none" xmlns="http://www.w3.org/2000/svg">
<path fill-rule="evenodd" clip-rule="evenodd" d="M149.998 206.24C170.695 206.24 187.498 223.043 187.498 243.74C187.498 264.436 170.695 281.239 149.998 281.239C129.302 281.239 112.499 264.436 112.499 243.74C112.499 223.043 129.302 206.24 149.998 206.24ZM271.051 196.674H28.9458C10.7494 176.371 0 151.329 0 124.249C0 98.73 9.54655 75.0201 25.8759 55.3803H108.916C79.1783 68.269 58.7702 94.7046 58.7702 125.193C58.7702 150.251 72.5562 172.571 93.9774 186.883H206.019C227.441 172.571 241.226 150.25 241.226 125.193C241.226 94.7046 220.818 68.269 191.08 55.3803H274.12C290.449 75.0201 299.996 98.73 299.996 124.249C299.996 151.328 289.246 176.37 271.051 196.674ZM158.899 160.036H74.8264C106.774 147.867 129.075 120.425 129.075 88.5544C129.075 58.0662 108.667 31.6301 78.9295 18.7422H161.969C178.299 38.3824 187.845 62.0919 187.845 87.6111C187.845 114.69 177.096 139.732 158.899 160.036Z" fill="#173576"/>
</svg>
