<svg width="300" height="300" viewBox="0 0 300 300" fill="none" xmlns="http://www.w3.org/2000/svg">
<path fill-rule="evenodd" clip-rule="evenodd" d="M62.1507 73.2113C12.1971 106.341 10.1231 143.441 6.25098 173.044C54.1891 192.558 66.5812 203.169 90.2385 223.198C99.8872 203.894 100.98 189.644 98.9972 167.843C110.442 184.314 110.388 258.849 58.8706 284.415C87.6142 289.121 117.157 301.343 146.957 299.875C142.716 210.519 126.802 154.65 62.1507 73.2113ZM115.266 0.7368C208.208 -5.11022 229.063 25.0182 259.799 49.5136C225.923 109.673 217.702 145.814 209.603 186.36C183.529 174.213 170.383 161.933 154.384 137.524C156.087 164.221 218.771 234.588 293.747 218.524C267.639 247.293 238.148 273.519 205.819 296.718C147.827 216.094 115.266 139.42 115.266 0.7368Z" fill="#FDB913"/>
</svg>
