<svg width="300" height="300" viewBox="0 0 300 300" fill="none" xmlns="http://www.w3.org/2000/svg">
<path d="M198.813 299.991H296.872V50.7718C262.585 -30.2563 140.834 2.23733 132.135 35.1066C162.247 18.2886 187.308 14.8882 198.813 41.5766V299.991Z" fill="#2D2A68"/>
<path d="M101.185 0.00437362H3.12598V249.224C37.4131 330.253 159.165 297.759 167.862 264.89C137.75 281.708 112.69 285.108 101.185 258.419V0.00437362Z" fill="#2D2A68"/>
<path d="M198.028 149.998C198.028 176.274 176.453 197.705 149.999 197.705C123.546 197.705 101.97 176.274 101.97 149.998C101.97 123.722 123.546 102.29 149.999 102.29C176.453 102.29 198.028 123.722 198.028 149.998Z" fill="#2D2A68"/>
</svg>
