<svg width="300" height="300" viewBox="0 0 300 300" fill="none" xmlns="http://www.w3.org/2000/svg">
<path fill-rule="evenodd" clip-rule="evenodd" d="M102.73 52.3748L102.729 52.3736C114.38 35.2688 130.984 18.0415 149.023 1.82422C159.467 14.3459 168.597 30.037 171.869 48.148C184.796 40.72 199.359 34.5413 214.711 29.392C224.818 26.0027 235.245 23.064 245.747 20.5009C244.448 43.9831 239.995 68.9203 229.812 91.3094V91.31L229.812 91.3094C253.811 91.8037 277.992 98.8505 299.996 108.438C282.423 131.025 262.71 152.172 241.804 167.215L241.803 167.217L241.805 167.216C256.812 179.613 267.176 196.943 274.159 214.332C250.508 224.264 226.713 232.122 205.609 234.864L205.606 234.865L205.609 234.864C208.328 249.934 205.609 265.965 201.025 280.075C193.501 279.45 186.07 278.588 178.921 277.425C167.977 275.655 157.66 273.157 148.629 269.673L148.62 269.67L148.629 269.673C143.517 280.893 134.653 290.572 125.619 298.162C113.765 290.788 102.464 282.315 94.442 273.019L94.4395 273.016L94.4426 273.02C86.1714 278.951 75.9222 282.432 66.4098 284.404C60.5274 275.001 55.2856 264.693 52.7237 254.695C47.2744 255.396 41.5501 255.09 35.9896 254.175C32.6015 253.625 29.2528 252.855 26.0503 251.952C24.7441 242.255 24.2834 231.792 25.9547 222.474V222.47L25.9541 222.473C17.981 219.417 10.3086 213.746 3.7037 207.695C6.19742 198.526 9.80363 188.894 15.0379 181.203L15.0386 181.203C8.91364 174.085 3.9412 164.44 0 154.748C6.1118 146.994 13.6467 139.279 21.9891 134.461L21.9222 134.195C19.1091 122.938 18.4166 109.367 18.7904 95.9599C22.4797 94.1625 26.3547 92.545 30.3527 91.195C36.9364 88.9975 43.7595 87.6144 50.3781 87.7313H50.3794C53.1462 72.424 59.4893 55.2311 67.0804 38.4375C79.5178 40.0612 92.6376 44.0256 102.728 52.3736L102.73 52.3748Z" fill="#7DCDF1"/>
<path fill-rule="evenodd" clip-rule="evenodd" d="M123.14 90.3882V90.3876C130.649 81.4396 139.653 72.3047 150.157 63.3404C156.654 57.7249 163.977 52.7056 171.87 48.1406C173.144 55.2137 173.508 62.5592 172.692 70.0747C171.353 82.4883 168.669 94.4638 164.939 105.621V105.621C176.452 100.775 189.308 96.6831 203.243 93.6957C211.93 91.8495 220.829 91.107 229.813 91.3026C225.963 99.7469 221.322 107.742 215.813 115.069C206.932 126.889 197.533 137.193 188.079 145.927C199.381 147.679 211.026 150.841 222.538 155.551C229.604 158.45 236.013 162.427 241.806 167.209C234.068 172.76 226.176 177.48 218.13 181.153C205.265 187.025 193.005 191.311 181.625 194.231V194.231L181.626 194.231C188.439 201.011 194.569 208.919 199.571 217.795C202.572 223.088 204.522 228.862 205.61 234.856C197.754 235.883 190.221 236.21 183.121 235.675C171.631 234.83 161.214 233.028 151.945 230.5C153.306 238.518 153.59 246.919 152.686 255.343C152.148 260.29 150.706 265.095 148.629 269.667C143 267.489 137.821 264.948 133.268 261.909C125.756 256.908 119.267 251.506 113.82 245.906L113.778 245.871L113.819 245.913C111.18 252.432 107.684 258.669 103.355 264.399C100.877 267.719 97.8312 270.563 94.4431 273.012C91.3175 269.409 88.6532 265.634 86.6057 261.695C83.1476 255.118 80.5789 248.498 78.7945 242.006V242.005C74.0321 245.927 68.7596 249.244 63.096 251.807C59.8391 253.309 56.3436 254.209 52.7255 254.687C51.7061 250.704 51.1042 246.742 51.0486 242.854C50.938 236.253 51.5442 229.853 52.763 223.798V223.797L52.7623 223.798C47.2618 224.868 41.5669 225.212 35.8463 224.788C32.522 224.545 29.207 223.725 25.9558 222.465C26.6495 218.694 27.6827 215.07 29.152 211.755C31.7007 206.047 34.8144 200.78 38.3931 196.058V196.058C33.1551 194.261 27.992 191.726 23.064 188.438C20.1715 186.505 17.504 184.049 15.0391 181.196C17.1928 178.044 19.6053 175.213 22.3315 172.868C27.0539 168.816 32.1351 165.486 37.4125 162.892L37.4138 162.891L37.4125 162.892C33.3963 158.215 29.7151 152.799 26.517 146.656C24.6164 143.016 23.124 138.898 21.9902 134.445C25.4464 132.47 29.0195 130.978 32.6632 130.201C38.9838 128.849 45.3199 128.462 51.4774 128.969C49.8893 121.561 48.9774 113.392 48.8424 104.554C48.7393 99.23 49.3093 93.5844 50.3799 87.7233C54.7254 87.8133 58.9366 88.5714 62.8722 90.1876C69.6121 92.9307 75.7814 96.7506 81.2476 101.396L81.2501 101.397L81.2482 101.395C83.6657 92.0501 87.1413 82.0552 91.8244 71.5985C94.695 65.1704 98.3893 58.7524 102.729 52.3662C106.8 55.7143 110.318 59.7492 113.022 64.541C117.594 72.6278 120.951 81.3977 123.14 90.3876L123.14 90.3882Z" fill="#00AAE7"/>
<path fill-rule="evenodd" clip-rule="evenodd" d="M99.9382 126.517C99.795 126.842 100.082 126.846 99.9382 126.517L99.9432 126.506L99.9382 126.495C104.979 115.064 112.736 102.785 123.131 90.4102C126.269 103.476 126.87 116.804 125.121 129.176C124.888 129.37 124.873 129.604 125.02 129.875C125.055 129.643 125.088 129.41 125.122 129.176C135.668 120.401 149.113 112.284 164.93 105.642C159.678 121.334 152.464 135.209 144.157 146.429L144.155 146.429H144.157C146.688 145.926 149.272 145.517 151.935 145.185C163.117 143.806 175.338 143.973 188.07 145.954C175.048 157.957 161.852 166.997 149.478 172.914C160.741 177.326 171.825 184.536 181.617 194.253C168.968 197.491 157.261 199.023 146.877 199.058C144.394 199.063 141.981 198.981 139.654 198.821L139.653 198.821V198.821L139.654 198.821C145.652 207.756 149.93 218.632 151.935 230.52C138.981 226.964 128.059 221.906 119.532 215.845V215.839L119.532 215.844C119.736 225.702 117.799 236.05 113.81 245.928C105.984 237.904 100.126 229.315 96.387 220.723V220.723V220.723C96.4976 220.515 96.237 220.377 96.387 220.723V220.723V220.723C92.1001 228.734 86.0783 236.04 78.7853 242.028C76.1797 232.448 75.2872 222.994 76.0641 214.217L76.0647 214.216H76.0641V214.217C69.1535 218.915 61.1761 222.197 52.7525 223.821C54.5975 214.713 57.8668 206.281 62.333 199.09C62.6043 199.066 62.5274 198.776 62.3336 199.09C60.7468 199.233 59.1668 199.309 57.5637 199.309C51.1975 199.324 44.7189 198.26 38.3833 196.081C43.8145 188.87 50.2769 182.905 57.3218 178.605C50.1525 175.144 43.377 169.827 37.4033 162.914C43.8676 159.732 50.6069 157.691 57.2568 156.869C58.9124 156.656 60.5787 156.539 62.2424 156.491C62.4261 156.777 62.5936 156.481 62.2418 156.491C57.4506 149.046 53.7537 139.738 51.4819 128.993C60.8305 129.78 69.6379 132.649 77.1303 137.31V137.31C77.1478 137.63 77.4078 137.483 77.1303 137.31V137.31V137.31C76.5241 126.777 77.8428 114.612 81.2384 101.418C89.3958 108.362 95.7901 117.028 99.9382 126.495L99.9332 126.507L99.9382 126.517Z" fill="#006FBA"/>
<path fill-rule="evenodd" clip-rule="evenodd" d="M125.144 129.023C125.138 129.071 125.132 129.119 125.125 129.167C116.656 136.219 109.944 143.796 105.261 151.526C105.314 143.14 103.487 134.604 99.9419 126.508C95.8182 135.877 93.4232 144.843 92.8726 153.043C89.0908 146.713 83.6677 141.363 77.1341 137.301C77.6253 146.128 79.4809 153.981 82.6421 160.485C76.5022 157.56 69.5385 156.257 62.2455 156.482C62.163 156.354 61.9999 156.371 61.7755 156.497C61.9324 156.492 62.0892 156.486 62.2461 156.482C66.3354 162.861 71.3004 167.981 76.9453 171.485C70.2585 172.276 63.573 174.775 57.3262 178.596C63.573 181.63 70.1873 183.243 76.7866 183.211C71.1572 187.271 66.2667 192.722 62.3374 199.081V199.081C69.2829 198.454 75.9922 196.426 81.9984 193.013C78.7315 199.366 76.7591 206.577 76.0684 214.207C82.2452 210.025 87.5077 204.773 91.4551 198.686C91.5082 205.941 93.2139 213.389 96.3907 220.714C100.178 213.626 102.515 206.099 103.151 198.646C106.932 205.003 112.495 210.823 119.535 215.834L119.536 215.834C119.365 207.291 117.588 199.265 114.21 192.381C121.235 195.949 129.832 198.133 139.657 198.811C134.591 191.278 128.385 185.24 121.448 181.164C130.063 180.432 139.565 177.651 149.481 172.905C140.266 169.299 130.998 167.634 122.29 167.973C130.005 162.797 137.437 155.499 144.161 146.42L144.16 146.419C133.544 148.519 124.079 152.09 116.219 156.944C120.649 148.876 123.679 139.421 125.125 129.167C125.163 129.135 125.167 129.087 125.144 129.023Z" fill="white"/>
</svg>
