<svg width="300" height="300" viewBox="0 0 300 300" fill="none" xmlns="http://www.w3.org/2000/svg">
<path fill-rule="evenodd" clip-rule="evenodd" d="M227.947 110.992C230.157 112.674 231.812 114.996 232.879 117.546C236.099 117.535 239.316 117.538 242.535 117.546C242.552 129.532 242.532 141.521 242.546 153.51C244.887 153.491 247.231 153.48 249.575 153.515C249.581 156.658 249.581 159.804 249.578 162.949C247.229 162.966 244.882 162.949 242.535 162.96C242.538 166.767 242.557 170.571 242.527 174.375C239.049 174.38 235.575 174.383 232.097 174.375C232.083 170.695 232.097 167.014 232.092 163.336C220.18 163.331 208.27 163.339 196.358 163.331C196.872 158.67 198.702 154.185 201.532 150.455C204.747 146.194 208.63 142.554 212.498 138.901L213.181 138.256C215.113 136.428 217.031 134.586 218.851 132.653C220.932 130.518 222.639 127.861 223.001 124.847C223.234 122.616 222.902 120.137 221.354 118.411C219.823 116.701 217.391 116.146 215.179 116.286C213.271 116.404 211.328 117.162 210.118 118.691C208.704 120.461 208.394 122.794 208.152 124.973C204.647 124.581 201.131 124.287 197.626 123.895C198.049 119.531 199.446 114.95 202.811 111.939C206.382 108.752 211.287 107.44 215.997 107.462C220.193 107.424 224.585 108.351 227.947 110.992ZM232.111 130.861C230.76 133.655 229.031 136.262 226.965 138.576C224.873 140.834 222.619 142.926 220.358 145.011L219.453 145.845C218.398 146.818 217.346 147.794 216.312 148.789C214.88 150.156 213.59 151.674 212.536 153.354C219.071 153.367 225.609 153.4 232.146 153.362C232.14 151.112 232.142 148.862 232.145 146.612L232.152 142.112C232.157 138.362 232.153 134.611 232.111 130.861Z" fill="#6D7170"/>
<path fill-rule="evenodd" clip-rule="evenodd" d="M217.112 60.0447C218.935 58.7766 220.771 57.525 222.607 56.2734C224.421 57.5086 226.2 58.7986 228.003 60.0474C226.214 63.0529 224.419 66.0528 222.613 69.05C220.782 66.0446 218.973 63.0282 217.112 60.0447Z" fill="#E5BFB2"/>
<path fill-rule="evenodd" clip-rule="evenodd" d="M237.432 60.9824C239.8 60.1864 242.175 59.4124 244.54 58.6055C246.088 60.546 247.667 62.459 249.215 64.4023C246.333 67.0948 243.454 69.7874 240.583 72.4909C239.504 68.6621 238.444 64.8277 237.432 60.9824Z" fill="#D09CA0"/>
<path fill-rule="evenodd" clip-rule="evenodd" d="M257.614 68.4291C260.444 68.355 263.277 68.4813 266.104 68.2617C267.232 70.8911 268.22 73.5809 269.222 76.2625C265.151 78.1563 261.095 80.0859 257.035 82.0044C257.189 77.4784 257.422 72.9551 257.614 68.4291Z" fill="#A26769"/>
<path fill-rule="evenodd" clip-rule="evenodd" d="M276.676 83.7227C279.67 84.7464 282.623 85.8937 285.607 86.9559C285.629 90.0959 285.651 93.2385 285.648 96.3812C280.688 96.7435 275.729 97.1388 270.774 97.5669C272.731 92.9504 274.732 88.3475 276.676 83.7227Z" fill="#8D4B41"/>
<path fill-rule="evenodd" clip-rule="evenodd" d="M279.094 117.99C282.906 114.128 286.823 110.371 290.663 106.539C293.166 108.88 295.735 111.156 298.241 113.497C296.951 116.609 295.699 119.736 294.461 122.87C289.326 121.278 284.235 119.557 279.094 117.99Z" fill="#7E3633"/>
<path fill-rule="evenodd" clip-rule="evenodd" d="M278.811 141.37C284.248 139.108 289.658 136.778 295.089 134.5C296.722 137.854 298.375 141.2 299.98 144.568C297.398 147.194 294.938 149.936 292.356 152.557C287.868 148.794 283.26 145.174 278.811 141.37Z" fill="#682321"/>
<path fill-rule="evenodd" clip-rule="evenodd" d="M267.712 162.508C274.478 162.524 281.238 162.727 288.001 162.867C288.078 167.138 288.341 171.401 288.391 175.674C284.482 177.255 280.604 178.913 276.687 180.48C273.72 174.477 270.726 168.489 267.712 162.508Z" fill="#551517"/>
<path fill-rule="evenodd" clip-rule="evenodd" d="M248.177 190.469C248.278 186.442 248.21 182.408 248.492 178.387C254.855 181.952 261.239 185.482 267.604 189.042C265.595 193.161 263.575 197.276 261.582 201.406C257.02 201.135 252.483 200.564 247.93 200.16C248.015 196.93 247.96 193.694 248.177 190.469Z" fill="#43050A"/>
<path fill-rule="evenodd" clip-rule="evenodd" d="M209.503 203.375C213.768 196.085 218.237 188.896 222.584 181.645C226.992 188.959 231.444 196.249 235.786 203.602C231.562 206.432 227.357 209.295 223.163 212.169C222.845 212.358 222.436 212.786 222.093 212.375C217.913 209.355 213.614 206.473 209.503 203.375Z" fill="#580002"/>
<path fill-rule="evenodd" clip-rule="evenodd" d="M10.3908 174.569C12.1529 173.04 13.9095 171.5 15.6524 169.949C16.2782 170.671 16.9095 171.39 17.5463 172.104C16.4127 173.089 15.2682 174.066 14.1291 175.052C15.0486 176.402 15.8994 177.799 16.8217 179.149C17.6423 180.675 19.7585 180.357 21.1199 179.847C21.054 179.13 20.9579 178.419 20.8591 177.708C21.7594 177.478 22.6596 177.253 23.5709 177.066C23.7795 177.988 23.6807 179.084 24.3229 179.849C25.4785 180.445 26.8673 180.269 28.1134 180.116C28.4318 179.158 28.1024 178.183 27.8718 177.247C28.7639 177.061 29.6532 176.877 30.5424 176.685C30.9349 178.035 31.3851 179.446 31.1243 180.865C30.8059 182.259 29.3567 183.069 28.0091 183.129C26.3211 183.148 24.4821 183.39 23 182.396C20.6423 183.555 17.7137 183.434 15.3807 182.267C14.4228 182.709 13.4319 183.148 12.3533 183.14C9.51251 183.159 6.67174 183.14 3.83097 183.148C2.60409 183.121 1.1192 182.943 0.416556 181.793C-0.305302 180.503 0.186001 178.974 0.449492 177.623C1.38269 177.791 2.3104 177.972 3.24909 178.112C3.22439 178.664 3.15852 179.218 3.19145 179.775C3.63061 180.275 4.32502 180.231 4.92885 180.239C7.314 180.231 9.69641 180.234 12.0788 180.239C12.6058 180.217 13.2508 180.297 13.5829 179.783C12.9681 177.81 11.4585 176.3 10.3908 174.569ZM56.8367 174.56C58.6125 173.037 60.3691 171.491 62.1285 169.952C62.7653 170.635 63.424 171.305 63.951 172.081C62.9437 173.174 61.6976 174.014 60.6299 175.046C61.7387 176.764 62.5923 178.74 64.2117 180.055C65.0351 180.513 66.6545 180.085 66.5392 178.932C66.5255 176.478 65.853 174.093 65.3974 171.697C66.3361 171.521 67.2748 171.36 68.2217 171.247C68.7954 174.241 69.6078 177.23 69.6051 180.299C69.6627 181.29 68.9518 182.152 68.0872 182.547C66.1056 183.483 63.7286 183.332 61.8348 182.264C60.026 183.181 57.9593 183.302 55.9721 183.077C55.3765 182.959 54.8413 182.668 54.3116 182.388C52.791 183.17 50.8724 183.499 49.2695 182.808C49.4068 184.682 48.0509 186.211 46.5221 187.084C45.3913 187.707 44.2659 188.363 43.0665 188.846C42.4874 188.121 42.169 187.227 41.7628 186.401C43.4206 185.492 45.6026 184.957 46.4507 183.085C46.8048 181.702 46.0116 180.392 45.5642 179.13C46.437 178.798 47.3181 178.479 48.2019 178.169C48.5669 178.795 48.6959 179.681 49.3876 180.047C50.3729 180.376 51.4626 180.239 52.415 179.857C52.3628 179.138 52.2668 178.424 52.1652 177.711C53.0682 177.475 53.974 177.255 54.888 177.066C55.1322 178.092 54.9127 179.676 56.1478 180.088C57.4295 180.326 58.758 180.263 60.0425 180.074C59.9904 179.632 59.919 179.182 59.6747 178.8C58.8294 177.324 57.7836 175.971 56.8367 174.56ZM71.7788 171.309C72.7175 171.306 73.6562 171.306 74.5949 171.309C74.5976 175.253 74.6004 179.2 74.5949 183.146C73.6562 183.146 72.7175 183.146 71.7788 183.146C71.7734 179.2 71.7734 175.253 71.7788 171.309ZM102.777 171.335C103.626 171.33 104.474 171.33 105.325 171.335C105.327 172.202 105.327 173.067 105.325 173.937C104.477 173.937 103.626 173.937 102.777 173.934C102.775 173.067 102.775 172.202 102.777 171.335ZM111.761 171.308C112.697 171.306 113.636 171.306 114.574 171.311C114.577 175.255 114.58 179.199 114.572 183.144C113.636 183.146 112.697 183.146 111.761 183.146C111.756 179.199 111.758 175.252 111.761 171.308ZM27.7731 171.909C28.6184 171.903 29.4611 171.903 30.3064 171.909C30.3092 172.768 30.3092 173.63 30.3064 174.491C29.4611 174.494 28.6184 174.494 27.7731 174.494C27.7703 173.632 27.7703 172.768 27.7731 171.909ZM50.3262 172.518C51.1551 172.513 51.9868 172.513 52.8157 172.518C52.8212 173.344 52.8212 174.171 52.8184 174.997C51.9868 175.002 51.1551 175.002 50.3262 175C50.3207 174.171 50.3207 173.344 50.3262 172.518ZM53.5842 172.516C54.4021 172.513 55.2227 172.513 56.0406 172.524C56.0406 173.345 56.0406 174.168 56.0406 174.991C55.22 175.002 54.4021 175.002 53.5814 175C53.5787 174.171 53.5787 173.345 53.5842 172.516ZM85.7579 172.447C86.6142 172.442 87.4678 172.442 88.3241 172.444C88.3241 173.306 88.3241 174.168 88.3241 175.033C87.4678 175.033 86.6142 175.033 85.7579 175.03C85.7551 174.168 85.7551 173.306 85.7579 172.447ZM89.271 172.444C90.1218 172.442 90.9699 172.442 91.8207 172.447C91.8235 173.306 91.8235 174.168 91.8207 175.03C90.9699 175.033 90.1218 175.033 89.271 175.033C89.2682 174.168 89.2682 173.306 89.271 172.444ZM118.916 175.271C119.732 174.739 120.555 174.223 121.384 173.71C122.556 175.719 124.233 177.621 124.433 180.031C124.543 181.639 123.102 182.893 121.595 183.072C119.896 183.245 118.184 183.105 116.479 183.146C116.474 182.166 116.471 181.186 116.487 180.209C118.175 180.289 119.979 180.678 121.573 179.913C120.783 178.313 119.841 176.795 118.916 175.271ZM100.091 174.808C103.126 175.505 106.143 176.287 109.178 176.99C109.252 177.829 109.335 178.675 109.25 179.517C108.967 179.976 108.338 180.05 107.899 180.316C106.214 181.022 104.836 182.364 103.038 182.814C101.554 183.146 100.022 183.187 98.5069 183.14C97.7713 183.143 97.1098 182.789 96.495 182.432C95.688 182.866 94.796 183.171 93.8683 183.146C90.6652 183.146 87.4621 183.151 84.259 183.146C82.7823 183.127 81.0916 182.386 80.6332 180.868C80.3258 179.688 80.776 178.505 80.9434 177.344C81.9205 177.478 82.8921 177.659 83.8693 177.808C83.7704 178.376 83.6305 178.938 83.5975 179.517C83.9379 180.132 84.7201 180.204 85.3514 180.228C87.5527 180.25 89.7567 180.223 91.958 180.239C92.721 180.231 93.5718 180.27 94.2004 179.756C94.4776 179.133 94.1922 178.442 94.1647 177.799C95.1034 177.646 96.0366 177.462 96.9753 177.313C97.1674 178.307 96.9314 180.009 98.29 180.195C100.744 180.349 103.2 179.811 105.467 178.889C104.328 178.593 103.184 178.321 102.034 178.085C101.995 178.225 101.921 178.505 101.886 178.647C100.983 178.422 100.088 178.17 99.1958 177.912C99.5005 176.877 99.7804 175.84 100.091 174.808ZM33.4135 178.329C34.4318 177.05 35.6312 175.692 37.2835 175.294C38.859 175.099 40.116 176.628 40.2121 178.093C40.2807 179.754 40.245 181.42 40.2341 183.083C40.2203 184.606 39.0264 185.781 37.8324 186.563C36.5616 187.335 35.2085 187.955 33.8499 188.553C33.4327 187.738 33.0237 186.92 32.6532 186.083C34.3055 185.287 36.0868 184.648 37.44 183.358C36.1582 183.091 34.7364 183.089 33.6248 182.326C32.3952 181.381 32.4583 179.449 33.4135 178.329ZM136.438 177.253C137.333 177.067 138.225 176.864 139.134 176.754C139.504 178.423 140.33 180.412 139.139 181.941C137.709 183.509 135.256 183.316 133.378 182.866C133.471 184.291 132.7 185.608 131.589 186.448C130.224 187.475 128.635 188.139 127.126 188.921C126.717 188.076 126.283 187.241 125.871 186.396C127.422 185.573 129.3 185.059 130.345 183.55C131.204 182.114 130.181 180.514 129.681 179.136C130.559 178.801 131.443 178.483 132.327 178.162C132.739 178.897 132.917 180.116 133.966 180.163C134.896 180.201 136.051 180.473 136.812 179.778C136.891 178.917 136.578 178.088 136.438 177.253ZM35.1316 180.118C35.8287 179.301 36.6769 178.62 37.6403 178.142C37.6869 179.034 37.6842 179.932 37.6787 180.829C36.8114 180.665 35.944 180.47 35.1316 180.118ZM19.4127 185.707C20.2306 185.701 21.0513 185.701 21.8719 185.704C21.8774 186.544 21.8774 187.384 21.8747 188.224C21.054 188.224 20.2306 188.224 19.4072 188.218C19.4072 187.378 19.4072 186.544 19.4127 185.707ZM22.6296 188.224C22.6268 187.381 22.6268 186.544 22.635 185.704C23.4584 185.701 24.2818 185.701 25.108 185.707C25.1135 186.544 25.1135 187.381 25.1107 188.221C24.2846 188.224 23.4557 188.224 22.6296 188.224ZM134.99 185.709C135.807 185.701 136.628 185.701 137.449 185.704C137.454 186.544 137.454 187.384 137.454 188.223C136.625 188.223 135.796 188.223 134.97 188.212C134.979 187.378 134.987 186.544 134.99 185.709ZM138.234 185.704C139.057 185.701 139.883 185.701 140.709 185.707C140.715 186.544 140.706 187.384 140.69 188.224C139.869 188.224 139.049 188.224 138.231 188.221C138.228 187.381 138.228 186.541 138.234 185.704ZM136.634 188.909C137.457 188.896 138.283 188.893 139.109 188.898C139.109 189.741 139.101 190.584 139.093 191.429C138.267 191.429 137.443 191.426 136.617 191.421C136.617 190.581 136.625 189.744 136.634 188.909Z" fill="#890100"/>
<path fill-rule="evenodd" clip-rule="evenodd" d="M222.291 69.8954C222.678 69.5029 223.106 69.986 223.463 70.1836C227.429 73.0052 231.447 75.7581 235.399 78.5989C231.161 85.6747 226.907 92.7423 222.694 99.8319C218.292 92.7698 214.004 85.6336 209.692 78.5138C213.9 75.6511 218.077 72.7499 222.291 69.8954Z" fill="#000153"/>
<path fill-rule="evenodd" clip-rule="evenodd" d="M182.524 80.4648C187.25 80.6542 191.963 81.055 196.681 81.3706C196.703 88.8774 196.73 96.3842 196.749 103.891C190.222 100.496 183.696 97.1033 177.169 93.7081C176.507 93.5626 176.927 92.9039 177.07 92.5059C178.898 88.4959 180.726 84.4858 182.524 80.4648Z" fill="#15159F"/>
<path fill-rule="evenodd" clip-rule="evenodd" d="M156.932 106.176C160.89 104.614 164.842 103.025 168.813 101.496C171.748 107.589 174.673 113.688 177.607 119.781C174.026 119.721 170.452 119.493 166.873 119.435C163.64 119.191 160.39 119.301 157.159 119.013C157.14 114.731 157.017 110.455 156.932 106.176Z" fill="#0A07E8"/>
<path fill-rule="evenodd" clip-rule="evenodd" d="M145.475 137.55C148.134 134.833 150.654 131.984 153.346 129.297C157.988 133.161 162.698 136.944 167.361 140.783C161.742 143.136 156.152 145.554 150.536 147.914C148.842 144.461 147.149 141.009 145.475 137.55Z" fill="#3A39EB"/>
<path fill-rule="evenodd" clip-rule="evenodd" d="M150.946 159.16C156.087 160.694 161.192 162.358 166.333 163.9C162.551 167.784 158.689 171.588 154.852 175.414C152.348 173.1 149.779 170.855 147.26 168.561C148.506 165.434 149.725 162.297 150.946 159.16Z" fill="#4035FE"/>
<path fill-rule="evenodd" clip-rule="evenodd" d="M159.984 185.369C164.691 185.059 169.412 184.952 174.117 184.625C172.19 188.962 170.123 193.235 168.161 197.556C165.375 196.496 162.633 195.327 159.85 194.262C159.844 191.297 159.954 188.333 159.984 185.369Z" fill="#4E45F6"/>
<path fill-rule="evenodd" clip-rule="evenodd" d="M176.16 205.55C180.192 203.785 184.213 201.998 188.24 200.223C187.946 204.675 187.677 209.126 187.315 213.573C184.521 213.496 181.724 213.403 178.927 213.397C178.016 210.779 177.03 208.182 176.16 205.55Z" fill="#6861EB"/>
<path fill-rule="evenodd" clip-rule="evenodd" d="M196.116 217.695C198.99 214.956 201.757 212.104 204.6 209.332C205.745 213.169 206.98 216.984 208.061 220.841C205.69 221.68 203.34 222.583 200.958 223.399C199.352 221.488 197.719 219.603 196.116 217.695Z" fill="#8D81FF"/>
<path fill-rule="evenodd" clip-rule="evenodd" d="M217.828 221.783C219.48 219.2 220.985 216.524 222.694 213.977C224.262 216.639 225.887 219.271 227.404 221.964C225.769 223.015 224.166 224.11 222.555 225.197C220.971 224.066 219.384 222.946 217.828 221.783Z" fill="#B4A6FE"/>
<path fill-rule="evenodd" clip-rule="evenodd" d="M23.2486 194.411C24.577 194.4 25.9054 194.4 27.2339 194.411C27.2339 195.714 27.2339 197.015 27.2339 198.319C25.9054 198.333 24.577 198.33 23.2486 198.322C23.2486 197.018 23.2486 195.714 23.2486 194.411ZM49.392 203.089C52.1532 200.717 54.9391 198.371 57.6893 195.985C58.6746 197.012 59.5804 198.11 60.5355 199.164C58.724 200.665 56.9125 202.164 55.1038 203.665C56.553 205.916 58.6582 207.983 58.8942 210.782C59.122 212.789 57.703 214.589 55.9327 215.358C53.5585 216.538 50.8358 216.093 48.2832 216.159C46.9355 216.219 45.7306 215.585 44.5696 214.993C42.4644 216.178 39.9667 216.359 37.609 216.079C36.5496 215.953 35.6054 215.445 34.6585 215.001C32.6301 216.088 30.234 216.48 27.9806 215.972C27.2972 215.83 26.7537 215.374 26.2322 214.943C24.9422 216.033 23.1472 216.464 21.536 215.849C21.9917 217.619 22.4308 219.398 22.7766 221.193C19.4583 222.326 16.236 223.737 12.8573 224.676C10.6725 225.315 8.36144 225.659 6.09706 225.304C3.09435 224.75 0.533543 222.132 0.319456 219.041C-0.0318659 215.089 1.55457 211.339 2.64422 207.62C4.04128 208.161 5.45206 208.671 6.86283 209.182C6.16293 211.982 4.81803 214.693 4.99095 217.647C4.99095 218.964 5.86925 220.219 7.10986 220.666C8.75943 221.308 10.549 220.825 12.1903 220.413C14.1116 219.826 15.9478 219.003 17.8279 218.297C17.01 215.012 16.1427 211.743 15.3248 208.46C16.8481 208.059 18.3824 207.703 19.9084 207.313C20.3037 208.559 20.3915 209.951 21.1655 211.046C21.6211 211.715 22.7766 212.086 23.3256 211.328C24.1078 210.263 24.1847 208.886 24.3823 207.626C25.8864 207.889 27.3987 208.098 28.8973 208.392C28.6256 209.382 28.4719 210.42 28.6531 211.446C29.6219 211.792 31.2166 212.089 31.6475 210.84C31.6695 209.786 31.2605 208.79 31.0272 207.774C32.3831 207.381 33.728 206.945 35.0729 206.514C35.4435 207.782 35.5038 209.152 36.0939 210.349C36.9311 211.822 38.8908 211.91 40.3702 211.603C40.8368 211.452 41.6026 211.35 41.6492 210.744C41.6684 209.75 41.3583 208.79 41.2156 207.818C42.6154 207.5 44.0124 207.176 45.404 206.822C45.7196 208.079 45.7279 209.432 46.2658 210.628C46.952 211.8 48.5 211.688 49.6775 211.735C51.253 211.677 52.9876 212.058 54.3709 211.09C54.1514 209.901 53.435 208.91 52.7872 207.925C51.7031 206.281 50.5311 204.697 49.392 203.089ZM87.7465 197.937C89.2177 197.926 90.6888 197.932 92.1627 197.932C92.1655 202.507 92.1572 207.085 92.1655 211.663C92.9203 211.693 93.6806 211.79 94.4326 211.674C95.289 211.435 95.9724 210.807 96.5131 210.129C97.5561 208.776 98.3822 207.264 99.4499 205.932C100.649 204.48 102.793 203.66 104.588 204.45C105.705 204.909 106.26 206.083 106.545 207.189C107.053 209.091 107.668 210.994 107.783 212.973C107.959 215.407 105.571 217.564 103.177 217.298C101.132 217.117 99.6531 215.525 98.0282 214.449C97.1609 215.38 96.0245 216.099 94.7235 216.143C92.385 216.261 90.063 215.824 87.7465 215.577C87.7465 209.695 87.7465 203.816 87.7465 197.937ZM110.97 197.932C112.443 197.929 113.92 197.929 115.397 197.932C115.402 202.51 115.386 207.086 115.405 211.664C116.687 211.672 118.067 211.977 119.272 211.412C120.354 210.802 119.753 209.391 119.558 208.447C120.974 208.162 122.396 207.904 123.815 207.629C124.051 208.875 124.128 210.248 124.915 211.305C125.385 211.991 126.463 211.832 126.87 211.156C127.559 210.094 127.526 208.768 127.789 207.569C129.178 207.824 130.561 208.099 131.961 208.307C131.884 209.315 131.461 210.322 131.64 211.337C132.702 212.059 134.363 211.845 135.123 210.775C135.112 209.52 134.596 208.335 134.313 207.127C135.724 206.798 137.14 206.493 138.559 206.202C138.916 208.088 139.624 209.943 139.547 211.884C139.314 214.159 137.072 215.531 135.03 215.995C133.158 216.355 130.907 216.341 129.513 214.832C128.692 215.567 127.693 216.196 126.554 216.174C125.064 216.305 123.697 215.512 122.717 214.455C121.523 215.935 119.528 216.207 117.746 216.179C115.474 216.196 113.22 215.836 110.967 215.584C110.97 209.699 110.967 203.814 110.97 197.932ZM20.5341 199.62C21.8735 199.598 23.2156 199.606 24.5578 199.609C24.5578 200.926 24.5578 202.243 24.5578 203.561C23.2156 203.564 21.8735 203.572 20.5341 203.55C20.5341 202.241 20.5341 200.929 20.5341 199.62ZM26.0126 199.617C27.3383 199.601 28.6668 199.603 29.9952 199.614C29.9952 200.926 29.9952 202.241 29.9952 203.556C28.6668 203.567 27.3383 203.57 26.0126 203.556C26.0099 202.241 26.0099 200.929 26.0126 199.617ZM70.5921 209.298C70.5921 207.95 70.5783 206.6 70.6085 205.252C71.915 205.252 73.2214 205.235 74.5279 205.279C74.5471 206.619 74.5361 207.958 74.5361 209.298C73.2214 209.3 71.9067 209.3 70.5921 209.298ZM76.9817 206.523C78.3952 206.196 79.817 205.902 81.2469 205.639C82.268 210.209 83.3631 214.765 84.4226 219.33C80.193 220.798 76.054 222.637 71.624 223.416C69.2087 223.842 66.5244 223.554 64.5537 221.984C62.7833 220.663 61.7596 218.462 61.809 216.264C61.6937 212.759 63.2362 209.534 64.2243 206.251C65.657 206.599 67.0953 206.929 68.517 207.321C67.6689 210.247 66.2993 213.181 66.6342 216.299C66.9635 218.19 69.0166 219.231 70.8034 219.069C73.8335 218.808 76.6386 217.548 79.4876 216.579C78.634 213.231 77.849 209.866 76.9817 206.523ZM100.18 211.367C100.907 210.294 101.583 209.136 102.639 208.348C103.175 208.705 103.358 209.352 103.534 209.934C103.852 211.073 104.154 212.284 103.866 213.467C102.543 212.943 101.36 212.144 100.18 211.367ZM39.0279 220.186C40.2768 220.186 41.5257 220.186 42.7745 220.188C42.7718 221.476 42.7827 222.763 42.7718 224.05C41.5256 224.05 40.2768 224.05 39.0307 224.05C39.0225 222.763 39.0252 221.473 39.0279 220.186ZM44.0287 220.188C45.3078 220.186 46.5841 220.183 47.8631 220.191C47.8631 221.476 47.8658 222.76 47.8603 224.047C46.5841 224.05 45.3078 224.05 44.0342 224.05C44.026 222.76 44.0287 221.473 44.0287 220.188ZM62.067 233.723C61.798 232.587 61.057 231.585 61.0268 230.394C62.5968 232.076 63.7001 234.242 63.8319 236.564C64.0817 239.415 63.1457 242.525 60.9499 244.438C61.1558 243.346 61.6416 242.336 61.927 241.268C62.6654 238.831 62.6901 236.188 62.067 233.723ZM2.87748 244.487C-0.962358 240.845 -0.962358 234.019 2.8967 230.396C2.67712 231.738 2.02663 232.957 1.73843 234.285C1.17302 236.486 1.2087 238.814 1.75764 241.015C2.0376 242.201 2.78142 243.252 2.87748 244.487ZM18.9723 233.715C19.4938 233.709 20.0153 233.709 20.5368 233.712C20.5395 235.383 20.5368 237.058 20.5395 238.729C22.0683 238.781 23.6465 238.674 25.0354 237.963C23.8716 237.631 22.6475 237.909 21.4974 237.513C21.6566 236.923 21.8213 236.339 21.9778 235.751C23.7563 236.078 25.5047 236.553 27.2613 236.978C27.2558 237.472 27.2531 237.969 27.2476 238.468C25.9603 238.946 24.8926 239.907 23.5587 240.258C22.0436 240.373 20.5148 240.313 18.997 240.255C18.8159 238.079 18.9174 235.894 18.9723 233.715ZM23.5204 233.764C24.0254 233.761 24.5304 233.764 25.0355 233.767C25.0327 234.263 25.0327 234.763 25.0327 235.265C24.5304 235.265 24.0281 235.265 23.5259 235.268C23.5231 234.763 23.5204 234.263 23.5204 233.764ZM45.6949 240.219C45.6894 238.048 45.6894 235.88 45.6949 233.711C46.2438 233.709 46.7927 233.709 47.3417 233.711C47.3527 235.394 47.3362 237.076 47.3527 238.762C47.9263 238.742 48.4999 238.718 49.0736 238.665C48.9473 237.993 48.7881 237.329 48.6289 236.665C49.1477 236.538 49.6719 236.423 50.1989 236.327C50.402 237.192 50.6079 238.064 50.6326 238.959C51.3544 238.827 52.0791 238.726 52.8037 238.608C52.7817 238.257 52.7597 237.908 52.735 237.562C53.2263 237.463 53.7176 237.359 54.2089 237.26C54.3352 237.724 54.456 238.188 54.5822 238.657C54.821 238.676 55.0598 238.701 55.2986 238.731C55.4468 238.24 55.5813 237.749 55.7076 237.255C56.2071 237.343 56.7039 237.441 57.2034 237.535C57.176 237.938 57.1513 238.344 57.1321 238.753C57.5493 238.712 57.9637 238.665 58.3809 238.616C58.2794 238.1 58.1723 237.59 58.0543 237.085C58.5785 236.969 59.1028 236.851 59.627 236.736C59.7643 237.675 60.3763 238.825 59.616 239.643C58.7954 240.579 57.3764 240.521 56.3087 240.098C55.5072 240.493 54.5987 240.439 53.8494 239.958C52.9985 240.384 52.0379 240.447 51.1074 240.562C50.9894 241.111 51.1596 241.633 51.456 242.094C51.0498 242.426 50.6408 242.755 50.2319 243.084C49.51 242.349 49.2355 241.344 49.3426 240.334C48.1267 240.466 46.9053 240.364 45.6949 240.219ZM11.397 238.194C12.8846 237.134 14.4765 235.66 16.4308 235.844C18.5799 236.38 18.0255 240.143 15.923 240.335C14.5561 240.431 13.1783 240.392 11.8114 240.305C11.9651 240.952 12.1216 241.605 12.2698 242.261C10.5818 242.824 8.93499 243.587 7.15093 243.799C5.83347 243.974 4.37603 243.151 4.09333 241.8C3.77494 240.302 4.46112 238.85 4.88929 237.45C5.43549 237.574 5.97894 237.703 6.52514 237.837C6.19577 238.858 5.76211 239.882 5.80054 240.977C5.76211 241.671 6.48671 242.146 7.12074 242.141C8.26528 242.069 9.32474 241.589 10.3924 241.219C10.1399 239.994 9.83251 238.784 9.52236 237.576C10.0576 237.442 10.5928 237.307 11.128 237.181C11.2186 237.516 11.3064 237.853 11.397 238.194ZM42.1212 236.165C42.7031 235.975 43.5951 235.921 43.897 236.585C44.2593 237.359 44.4295 238.212 44.5475 239.058C44.7699 240.134 43.5512 241.152 42.5274 240.768C42.0279 240.545 41.5915 240.21 41.1029 239.969C40.4332 240.194 39.7607 240.414 39.0471 240.455C39.0965 240.866 39.1487 241.284 39.1953 241.704C37.8998 242.546 36.4204 243.243 34.8312 243.114C33.5193 243.169 32.1634 242.379 31.7544 241.1C31.3702 239.744 31.7544 238.33 32.3692 237.109C32.8852 237.293 33.3985 237.485 33.9118 237.677C33.533 238.693 32.7288 240.114 33.6949 241.039C35.0234 242.016 36.7498 241.207 38.0069 240.493C37.4195 240.18 36.8047 239.903 36.2859 239.486C36.2091 238.931 36.6482 238.495 36.8568 238.023C37.7598 238.597 38.8879 238.964 39.9446 238.63C40.8312 237.957 41.1358 236.722 42.1212 236.165ZM13.2086 238.696C14.1061 238.177 15.0064 237.593 16.0549 237.45C16.0576 237.84 16.0494 238.235 16.0357 238.63C15.0997 238.789 14.15 238.775 13.2086 238.696ZM41.7479 238.619C42.0855 238.221 42.4341 237.834 42.8046 237.469C42.9583 238.117 43.1038 238.767 43.2191 239.426C42.7195 239.173 42.2255 238.907 41.7479 238.619Z" fill="#002B98"/>
</svg>
