<svg width="300" height="300" viewBox="0 0 300 300" fill="none" xmlns="http://www.w3.org/2000/svg">
<path d="M88.6572 102.6V190.186C144.775 189.125 200.893 167.658 257.015 100.654L256.775 0.417969C205.937 61.5366 150.86 100.592 88.6572 102.6Z" fill="#1F1F48"/>
<path d="M208.037 262.317C208.037 283.071 191.11 299.998 170.354 299.998C149.6 299.998 132.672 283.071 132.672 262.317C132.672 241.561 149.6 224.633 170.354 224.633C191.11 224.633 208.037 241.561 208.037 262.317Z" fill="#1F1F48"/>
<path fill-rule="evenodd" clip-rule="evenodd" d="M206.416 110.215V197.801C144.215 199.809 89.1357 238.865 38.2976 299.983L38.0576 199.747C94.1794 132.743 150.297 111.276 206.416 110.215Z" fill="#AFB2AE"/>
</svg>
