<svg width="300" height="300" viewBox="0 0 300 300" fill="none" xmlns="http://www.w3.org/2000/svg">
<path fill-rule="evenodd" clip-rule="evenodd" d="M47.8086 218.518C28.2487 195.947 16.2122 166.834 15.6431 134.95C14.3404 61.9854 73.5919 1.33815 147.623 0.0209646L150.466 0L152.367 0.0209646C226.396 1.33815 285.65 61.9854 284.348 134.95C283.779 166.834 271.742 195.947 252.182 218.515C255.531 220.558 258.43 223.742 260.649 228.148C263.171 233.115 263.033 239.011 260.331 243.784C255.812 251.899 250.727 262.553 246.33 271.513C243.314 277.654 240.574 283.063 237.851 286.761C234.818 290.877 231.439 293.398 228.124 294.581C219.84 298.105 211.586 299.885 203.365 299.996C202.823 300.002 202.284 299.969 201.751 299.891C189.618 298.174 182.697 292.893 179.726 285.662C170.026 281.836 160.148 279.76 150.022 279.751C150.022 279.751 149.723 279.751 149.732 279.751C139.669 279.796 129.879 281.869 120.265 285.659C117.294 292.893 110.373 298.174 98.2402 299.891C97.7041 299.969 97.165 300.002 96.626 299.996C88.4049 299.885 80.1508 298.105 71.8669 294.581C68.5515 293.398 65.1702 290.877 62.1394 286.761C59.414 283.063 56.6737 277.654 53.6608 271.513C49.2642 262.553 44.1788 251.899 39.6954 243.849C36.952 239.002 36.8234 233.106 39.3241 228.181C41.5524 223.757 44.4573 220.564 47.8086 218.518ZM55.5626 220.37C34.113 197.975 20.7255 167.969 20.1355 134.87C18.8747 64.3569 76.1616 5.77058 147.704 4.50119L150.499 4.48022L152.286 4.50119C223.829 5.77058 281.116 64.3569 279.855 134.87C279.265 167.969 265.875 197.975 244.425 220.373C249.457 221.144 253.73 224.396 256.642 230.173C258.483 233.799 258.388 238.103 256.402 241.609C251.85 249.784 246.722 260.516 242.293 269.545C239.418 275.402 236.83 280.578 234.231 284.109C231.799 287.409 229.148 289.491 226.489 290.405C218.729 293.723 211.002 295.414 203.305 295.515C202.997 295.518 202.688 295.5 202.383 295.456C191.382 293.9 185.306 289.153 183.287 282.269C172.436 277.735 161.379 275.28 150.01 275.271H149.711C138.426 275.322 127.462 277.774 116.701 282.269C114.682 289.153 108.609 293.9 97.6083 295.456C97.3028 295.5 96.9942 295.518 96.6857 295.515C88.9858 295.414 81.2589 293.723 73.499 290.405C70.8425 289.491 68.1921 287.409 65.7602 284.109C63.1606 280.578 60.573 275.402 57.6949 269.542C53.2654 260.516 48.1382 249.784 43.6068 241.645C41.6032 238.106 41.5074 233.802 43.3403 230.194C46.2574 224.399 50.5341 221.144 55.5626 220.37Z" fill="#E95B00"/>
<path fill-rule="evenodd" clip-rule="evenodd" d="M149.684 269.289C136.576 269.348 123.871 272.413 111.415 278.04C110.864 284.393 105.983 288.228 96.7642 289.536C89.7441 289.441 82.7001 287.867 75.6231 284.808C71.1937 283.473 67.5608 276.051 63.0744 266.911C58.6 257.792 53.4187 246.956 48.8215 238.701C47.8032 236.9 47.7523 234.71 48.6897 232.867C51.43 227.425 55.9255 225.254 61.1666 226.577C62.5233 226.918 63.6704 227.823 64.3143 229.062C65.084 230.547 66.0752 232.458 66.0752 232.458C71.6817 234.295 77.399 235.776 83.3559 236.496L84.0928 235.884C83.9311 235.791 83.7783 235.681 83.6256 235.588C49.726 214.292 26.8807 177.196 26.123 134.756C24.9191 67.5144 79.5854 11.6788 147.807 10.4662L150.538 10.4453C151.083 10.4483 151.631 10.4572 152.176 10.4662C220.401 11.6788 275.067 67.5144 273.863 134.756C273.105 177.196 250.26 214.292 216.36 235.588C216.208 235.681 216.055 235.791 215.893 235.884L216.63 236.496C222.587 235.776 228.304 234.295 233.911 232.458C233.911 232.458 234.902 230.547 235.672 229.062C236.316 227.823 237.463 226.918 238.819 226.577C244.06 225.254 248.556 227.425 251.296 232.867C252.234 234.71 252.183 236.9 251.164 238.701C246.567 246.956 241.386 257.792 236.912 266.911C232.425 276.051 228.792 283.473 224.363 284.808C217.286 287.867 210.242 289.441 203.222 289.536C194.003 288.228 189.122 284.393 188.571 278.04C176.016 272.368 163.21 269.3 149.993 269.289H149.684ZM67.8812 237.273C67.8812 237.273 71.1636 246.299 72.9276 250.767C75.2128 256.544 81.5799 271.935 81.5799 271.935C83.0714 275.579 86.1023 278.333 78.2945 282.428C78.3904 282.702 78.4832 282.971 78.585 283.333C83.3709 284.895 87.6957 286.37 92.182 286.29C92.7211 286.006 93.2692 285.812 93.7274 285.621L72.3376 241.637C70.0884 237.01 69.4835 236.765 67.8812 237.273ZM232.105 237.273C232.105 237.273 228.822 246.299 227.058 250.767C224.773 256.544 218.406 271.935 218.406 271.935C216.915 275.579 213.884 278.333 221.691 282.428C221.596 282.702 221.503 282.971 221.401 283.333C216.615 284.895 212.29 286.37 207.804 286.29C207.265 286.006 206.717 285.812 206.259 285.621L227.648 241.637C229.898 237.01 230.502 236.765 232.105 237.273ZM203.048 232.324C188.02 224.191 169.062 220.983 149.993 221.517L149.346 221.503C122.026 220.854 95.0212 227.921 79.5704 246.189C79.2769 248.584 93.3201 275.238 96.2611 279.1C97.5639 280.358 98.0252 280.531 99.1303 280.692C112.083 269.737 130.999 265.098 149.993 265.361L150.439 265.355C169.283 265.173 188.002 269.82 200.856 280.692C201.961 280.531 202.422 280.358 203.725 279.1C206.666 275.238 220.709 248.584 220.415 246.189C215.719 240.633 209.954 236.117 203.437 232.536C203.333 232.688 203.117 232.924 202.787 233.238C201.928 234.047 200.979 234.8 199.939 235.481C198.891 236.174 197.825 236.723 196.735 237.147L194.024 238.262C193.111 238.536 192.179 238.817 191.245 239.095C190.314 239.385 189.379 239.624 188.442 239.821C188.373 239.839 188.31 239.856 188.25 239.871L187.241 241.374C186.798 242.079 186.366 242.784 185.944 243.497L185.255 244.752C184.755 245.621 184.309 246.517 183.925 247.455C183.539 248.39 183.183 249.322 182.847 250.254L182.841 250.266C182.416 251.439 182.251 252.365 182.341 253.049C182.434 253.736 182.82 254.202 183.506 254.45C183.752 254.54 183.985 254.546 184.201 254.471C184.414 254.396 184.614 254.28 184.797 254.125C184.983 253.969 185.153 253.793 185.306 253.593C185.462 253.39 185.594 253.205 185.701 253.034C185.899 252.754 186.049 252.643 186.154 252.706C186.261 252.765 186.27 252.921 186.181 253.169C185.938 253.712 185.615 254.331 185.21 255.027C184.806 255.722 184.354 256.359 183.851 256.938C183.35 257.515 182.823 257.963 182.275 258.279C181.727 258.596 181.185 258.659 180.646 258.464C180.068 258.255 179.67 257.93 179.454 257.491C179.238 257.052 179.128 256.562 179.122 256.024C179.119 255.487 179.193 254.946 179.34 254.405C179.49 253.862 179.637 253.396 179.777 253.001L179.784 252.999C180.026 252.383 180.305 251.75 180.613 251.081C180.925 250.409 181.227 249.755 181.509 249.104C181.652 248.832 181.718 248.644 181.706 248.545C181.691 248.447 181.5 248.536 181.125 248.796C180.104 249.549 179.095 250.191 178.103 250.74C177.115 251.281 176.052 251.708 174.935 252.028C173.278 252.509 171.583 252.748 169.84 252.739C168.1 252.733 166.351 252.539 164.587 252.162C163.221 251.875 161.838 251.505 160.451 251.039C159.059 250.576 157.633 249.997 156.175 249.313C155.531 249.011 154.97 248.686 154.479 248.351C153.997 248.011 153.605 247.619 153.317 247.162C153.027 246.705 152.835 246.171 152.754 245.558C152.673 244.946 152.736 244.223 152.943 243.387C153.084 242.855 153.284 242.312 153.536 241.756C153.776 241.207 154.051 240.681 154.354 240.182C154.623 239.737 154.842 239.549 154.998 239.603C155.147 239.659 155.153 239.958 155.009 240.484C154.884 240.977 154.848 241.431 154.902 241.849C154.958 242.267 155.135 242.655 155.429 243.023C156.166 243.895 157.049 244.573 158.079 245.057C159.113 245.543 160.152 245.988 161.2 246.389C164.995 247.873 169.19 248.68 173.776 248.811C174.704 248.841 175.618 248.796 176.51 248.677C177.411 248.554 178.283 248.321 179.14 247.975C180.448 247.461 181.545 246.753 182.419 245.848C183.297 244.934 183.518 244.758 184.243 243.548C184.396 243.259 184.566 243.011 184.758 242.804L186.618 240.902C186.935 240.582 187.268 240.269 187.612 239.961C187.552 239.916 187.678 239.737 187.99 239.417C188.394 239.071 188.798 238.716 189.2 238.348C189.604 237.981 190.056 237.682 190.55 237.464C190.969 237.291 191.521 237.07 192.215 236.804C192.823 236.571 195.842 235.502 196.741 235.143C198.541 234.418 200.32 233.62 202.09 232.742L203.048 232.324ZM222.797 280.095C221.748 279.599 220.197 278.754 220.233 276.929C222.536 276.242 225.462 276.11 226.591 279.775C225.465 280.603 223.626 280.486 222.797 280.095ZM77.1893 280.095C78.2376 279.599 79.7891 278.754 79.7501 276.929C77.45 276.242 74.524 276.11 73.3949 279.775C74.521 280.603 76.3597 280.486 77.1893 280.095ZM60.4149 229.373C55.1169 227.703 51.1307 231.855 52.1939 236.075L72.0861 277.018C74.0687 274.587 76.0273 274.339 77.968 274.223L60.4149 229.373ZM239.571 229.373C244.869 227.703 248.855 231.855 247.792 236.075L227.9 277.018C225.917 274.587 223.959 274.339 222.018 274.223L239.571 229.373ZM185.114 266.296C185.228 265.985 185.719 265.439 186.588 264.653C187.456 263.867 187.975 263.506 188.139 263.566C188.678 263.76 189.107 264.199 189.421 264.883C189.733 265.57 189.801 266.158 189.622 266.654C189.457 267.108 189.017 267.598 188.301 268.124C187.582 268.646 187.091 268.861 186.822 268.766C186.696 268.721 186.363 268.318 185.815 267.562C185.627 267.308 185.438 267.054 185.249 266.798C185.108 266.609 185.063 266.439 185.114 266.296ZM109.061 266.807C109.046 266.696 109.256 266.093 109.693 264.988C110.131 263.885 110.415 263.324 110.547 263.303C110.915 263.243 111.386 263.402 111.961 263.778C112.536 264.178 112.856 264.581 112.922 264.994C113 265.471 112.844 266.12 112.461 266.935C112.074 267.729 111.772 268.145 111.556 268.18C111.445 268.195 111.269 268.13 111.023 267.98C110.774 267.831 110.529 267.673 110.28 267.514C109.993 267.404 109.726 267.296 109.475 267.192C109.223 267.084 109.085 266.956 109.061 266.807ZM106.034 263.115C106.007 262.942 106.231 262.261 106.713 261.072C107.193 259.886 107.498 259.28 107.627 259.259C107.911 259.217 108.355 259.345 108.962 259.65C109.547 259.958 109.963 260.271 110.214 260.588C110.442 260.062 110.682 259.534 110.933 259.005C111.284 258.258 111.502 257.882 111.589 257.867C111.981 257.804 112.497 257.969 113.138 258.357C113.787 258.787 114.147 259.229 114.219 259.686C114.302 260.206 114.111 260.893 113.644 261.744C113.188 262.529 112.841 262.939 112.601 262.977C112.428 263.004 112.128 262.885 111.709 262.619C111.11 262.225 110.619 261.944 110.238 261.783C109.633 263.458 109.082 264.333 108.582 264.414C108.495 264.426 108.052 264.229 107.25 263.823C106.45 263.417 106.043 263.181 106.034 263.115ZM196.226 243.211C196.253 243.187 196.279 243.16 196.306 243.136C196.414 243.035 196.501 242.972 196.567 242.948C196.633 242.927 196.663 242.96 196.654 243.049C196.645 243.142 196.555 243.318 196.39 243.584C195.378 245.278 194.432 247.019 193.548 248.814C191.176 253.632 192.901 250.098 191.679 253.115V253.118C191.251 254.295 191.086 255.227 191.176 255.914C191.269 256.598 191.655 257.067 192.341 257.311C192.587 257.401 192.82 257.407 193.033 257.332C193.249 257.258 193.449 257.144 193.632 256.989C193.818 256.834 193.988 256.654 194.144 256.454C194.297 256.251 194.429 256.066 194.536 255.896C194.731 255.615 194.884 255.504 194.989 255.567C195.096 255.63 195.106 255.782 195.016 256.033C194.773 256.574 194.45 257.195 194.045 257.888C193.641 258.584 193.189 259.223 192.686 259.799C192.182 260.376 191.658 260.824 191.11 261.144C190.562 261.457 190.02 261.52 189.481 261.326C188.9 261.117 188.505 260.794 188.289 260.355C188.073 259.913 187.963 259.426 187.96 258.885C187.954 258.348 188.026 257.807 188.175 257.267C188.325 256.726 188.469 256.257 188.613 255.866L188.663 255.818C189.023 254.835 189.586 253.593 190.347 252.093C192.066 248.703 189.511 253.59 192.874 247.189C193.165 246.64 193.518 246.114 193.937 245.609C194.18 245.325 194.477 244.991 194.821 244.615L196.226 243.211ZM124.425 246.027C126.282 245.779 128.082 245.463 129.828 245.074C131.574 244.689 133.293 244.14 134.985 243.426C136.489 242.787 137.938 242.04 139.331 241.189C140.721 240.334 142.056 239.429 143.329 238.471C145.123 237.121 146.8 235.705 148.361 234.223C149.918 232.742 151.517 231.252 153.15 229.749C153.635 229.292 154.123 228.859 154.617 228.45C155.108 228.038 155.638 227.652 156.207 227.297C156.735 226.968 157.109 226.87 157.331 227.001C157.552 227.133 157.561 227.461 157.355 227.984C157.217 228.381 157.07 228.793 156.914 229.221C156.758 229.645 156.576 230.039 156.366 230.406C156.264 230.6 156.15 230.759 156.025 230.878C155.899 230.998 155.734 231.117 155.531 231.24C155.24 231.395 154.836 231.717 154.309 232.198C153.784 232.682 153.117 233.312 152.302 234.083C151.353 234.991 150.406 235.914 149.463 236.852C148.519 237.79 147.558 238.716 146.576 239.627C145.593 240.537 144.596 241.425 143.587 242.282C142.575 243.145 141.526 243.948 140.439 244.698C135.884 247.888 130.798 249.925 125.186 250.812L121.487 251.314C120.457 251.442 119.586 251.487 118.864 251.445C118.073 251.392 117.291 251.305 116.513 251.183C115.737 251.06 114.979 250.869 114.249 250.606C113.964 250.496 113.736 250.409 113.572 250.346C113.404 250.284 113.254 250.251 113.119 250.251C112.988 250.251 112.862 250.304 112.745 250.409C112.628 250.516 112.479 250.699 112.296 250.947C112.131 251.174 111.96 251.433 111.784 251.729C111.607 252.025 111.397 252.38 111.152 252.795C110.685 253.515 110.098 254.059 109.385 254.426C108.675 254.794 107.884 254.913 107.016 254.785C106.537 254.704 106.099 254.617 105.704 254.525C105.312 254.432 104.865 254.447 104.374 254.57C103.922 254.683 103.491 254.841 103.078 255.038C102.661 255.239 102.263 255.525 101.874 255.899C101.289 256.433 100.906 256.678 100.72 256.631C100.535 256.583 100.631 256.206 101.008 255.501C101.436 254.677 101.936 253.877 102.514 253.094C103.095 252.314 103.748 251.61 104.473 250.985C104.845 250.657 105.249 250.355 105.683 250.074C106.117 249.797 106.588 249.638 107.097 249.602C107.516 249.582 107.935 249.623 108.355 249.737C108.774 249.847 109.199 249.925 109.63 249.967C110.107 250.027 110.529 249.973 110.891 249.803C111.254 249.635 111.577 249.384 111.859 249.05C112.185 248.709 112.473 248.351 112.727 247.978C112.979 247.604 113.23 247.231 113.485 246.858C113.85 246.356 114.198 246.018 114.527 245.842C114.857 245.669 115.354 245.651 116.025 245.788C117.54 246.06 118.954 246.221 120.265 246.269C121.577 246.317 122.967 246.236 124.425 246.027ZM188.613 243.049C188.717 242.76 189.205 242.222 190.074 241.437C190.943 240.654 191.461 240.29 191.628 240.349C192.167 240.543 192.593 240.983 192.907 241.67C193.222 242.354 193.288 242.942 193.108 243.438C192.943 243.895 192.506 244.379 191.793 244.892C191.08 245.406 190.589 245.615 190.32 245.517C190.194 245.475 189.858 245.071 189.313 244.316C189.116 244.083 188.924 243.838 188.735 243.581C188.6 243.372 188.562 243.193 188.613 243.049ZM203.371 228.623C205.908 229.701 212.74 233.784 212.081 233.584C212.428 233.366 213.359 232.772 213.716 232.551C246.786 211.996 269.116 175.954 269.85 134.685C271.018 69.6201 218.122 15.5976 152.104 14.4238L149.993 14.4058C149.289 14.4058 148.585 14.4118 147.881 14.4238C81.8644 15.5976 28.9682 69.6201 30.1332 134.685C30.8699 175.954 53.2001 211.996 86.2701 232.551C86.6265 232.772 87.3961 233.265 87.7465 233.483C87.6746 233.259 94.3473 229.418 95.6171 229.104C94.6737 228.907 93.7453 228.638 92.8408 228.295C89.6483 227.085 86.845 224.991 84.5209 222.515C84.0088 221.968 83.5146 221.401 83.0474 220.813C82.5712 220.215 82.119 219.6 81.7027 218.961L81.2236 218.178C80.1395 217.841 79.0881 217.417 78.0788 216.891C75.3534 215.472 73.0294 213.366 71.1366 210.965C70.8251 210.568 70.5226 210.162 70.2321 209.746C69.75 209.059 69.2978 208.349 68.8785 207.62C68.5461 207.04 68.2347 206.449 67.9562 205.84L67.4679 204.72C67.6716 204.678 67.8691 204.639 68.0728 204.597C66.3926 203.821 64.8115 202.841 63.4098 201.634C61.0798 199.63 59.3038 197.05 58.013 194.278C57.8003 193.821 57.5995 193.355 57.4109 192.886C57.0994 192.106 56.8239 191.312 56.5843 190.505C56.3926 189.866 56.2249 189.218 56.0931 188.564L55.8776 187.36L57.2941 187.408C55.0539 185.98 53.0264 184.2 51.4691 182.044C49.6721 179.556 48.5429 176.635 47.9349 173.639C47.8361 173.146 47.7493 172.647 47.6744 172.148C47.5546 171.315 47.4708 170.479 47.4229 169.64C47.387 168.973 47.3749 168.304 47.4019 167.635L47.4708 166.417C47.8392 166.518 48.2105 166.617 48.5789 166.718C49.1869 166.889 49.7858 167.098 50.3758 167.325C50.8969 167.525 51.4151 167.743 51.9243 167.976C51.7266 167.847 51.5319 167.716 51.3402 167.582C50.9239 167.295 50.5166 166.996 50.1182 166.686C47.7043 164.804 45.587 162.495 44.1554 159.777C42.7269 157.062 42.02 154.012 41.8403 150.96C41.8104 150.458 41.7954 149.953 41.7924 149.449C41.7894 148.606 41.8253 147.767 41.8972 146.931C41.9571 146.265 42.0381 145.602 42.1579 144.942L42.4004 143.744C42.7508 143.896 43.1042 144.046 43.4546 144.198C44.0326 144.452 44.5957 144.744 45.1467 145.052C45.8356 145.434 47.0664 146.202 47.0215 146.157C46.6561 145.808 46.2998 145.446 45.9554 145.076C43.871 142.839 42.1489 140.222 41.1666 137.313C40.1872 134.407 39.9774 131.283 40.2829 128.245C40.3338 127.743 40.3997 127.242 40.4776 126.743C40.6094 125.913 40.7771 125.088 40.9838 124.273C41.1455 123.625 41.3313 122.983 41.5559 122.352L41.984 121.208C42.3075 121.411 42.631 121.618 42.9545 121.821C43.4846 122.164 43.9936 122.54 44.4878 122.932C45.1646 123.463 45.8146 124.031 46.4406 124.622C46.6951 124.87 46.9497 125.118 47.1983 125.375L47.2312 125.297C46.752 124.676 46.2968 124.034 45.8715 123.374C45.599 122.95 45.3354 122.517 45.0868 122.077C43.5773 119.419 42.5052 116.477 42.2237 113.422C41.9451 110.366 42.4634 107.281 43.4667 104.396C43.6314 103.918 43.811 103.446 44.0026 102.977C44.3201 102.2 44.6765 101.436 45.0628 100.692C45.3743 100.098 45.7038 99.5151 46.0662 98.9536L46.746 97.9381C47.0156 98.2128 47.2821 98.4846 47.5487 98.7594C47.9859 99.2134 48.3933 99.6973 48.7857 100.193C48.8366 100.256 48.8874 100.322 48.9383 100.387C48.2165 97.9859 47.8572 95.4739 48.0309 92.971C48.2435 89.9095 49.2468 86.9466 50.6993 84.2555C50.9389 83.8104 51.1905 83.3714 51.457 82.9413C51.8943 82.2244 52.3674 81.5285 52.8706 80.8535C53.2689 80.3188 53.6883 79.7932 54.1375 79.2974L54.9731 78.4043C55.1917 78.7149 55.4133 79.0285 55.6319 79.3421C55.9913 79.8618 56.3177 80.4024 56.6232 80.952L56.6353 80.973C56.5185 78.6433 56.734 76.2956 57.4019 74.0555C58.2764 71.1165 59.9058 68.4403 61.9124 66.1285C62.2418 65.7492 62.5862 65.3758 62.9366 65.0114C63.5236 64.408 64.1345 63.8316 64.7724 63.2821C65.2815 62.846 65.8058 62.4248 66.3508 62.0395L67.3601 61.3466L67.9441 62.7773C68.2496 60.9673 68.7736 59.1991 69.5613 57.5384C70.8761 54.7637 72.8976 52.3712 75.2307 50.3909C75.617 50.0654 76.0123 49.7488 76.4167 49.4442C77.0875 48.9364 77.7824 48.4585 78.4952 48.0135C79.0643 47.658 79.6452 47.3235 80.2442 47.0249L81.3494 46.4962C81.4392 46.8665 81.5321 47.2368 81.6219 47.6072C81.7657 48.2225 81.8705 48.8468 81.9574 49.468C82.0712 50.3193 82.149 51.1794 82.185 52.0367C82.1999 52.3921 82.2089 52.7475 82.2089 53.1029L82.3765 53.0343C82.8557 51.8366 83.4787 50.6986 84.2694 49.6741C84.497 49.3755 84.7425 49.0857 84.9971 48.8109C86.4676 47.2249 88.3276 46.0331 90.3102 45.1849C91.2836 44.7697 92.2928 44.4263 93.3231 44.1934L94.584 43.9364C94.578 44.3366 94.569 44.7369 94.56 45.1371C94.5451 45.5911 94.5031 46.0452 94.4462 46.4962C94.3773 47.0607 94.2784 47.6222 94.1586 48.1777C93.6375 50.5373 92.6641 52.8371 91.1037 54.7039C90.0705 55.9404 88.8007 56.959 87.4111 57.7744L87.3901 57.846C87.7195 57.8132 88.0461 57.7863 88.3755 57.7625C88.8817 57.7296 89.3907 57.7116 89.8998 57.7057C90.1095 57.7027 90.1094 57.7027 90.3161 57.7027C91.0528 57.7086 91.7866 57.7356 92.5204 57.8132L93.7364 57.9595C93.6046 58.3448 93.4758 58.7301 93.338 59.1154C93.1104 59.7426 92.8439 60.3579 92.5593 60.9613C92.2179 61.6811 91.8436 62.389 91.4423 63.076C91.1907 63.5091 90.9271 63.9362 90.6486 64.3544C88.9385 66.9439 86.7641 69.2706 84.1136 70.9253C83.1403 71.5316 82.1101 72.0423 81.0439 72.4665C80.9451 72.8995 80.8313 73.3297 80.7085 73.7568C80.4689 74.5811 80.1904 75.3966 79.8759 76.1971C79.6932 76.663 79.4956 77.1259 79.2889 77.5799C77.9442 80.513 76.0573 83.2399 73.5535 85.3068C72.673 86.0356 71.7236 86.6777 70.7323 87.2363C70.7263 87.3647 70.7174 87.4902 70.7114 87.6156C70.6575 88.4729 70.5646 89.3301 70.4328 90.1783C70.355 90.6741 70.2651 91.1669 70.1603 91.6538C69.4894 94.8108 68.2436 97.8813 66.2519 100.444C65.4613 101.459 64.5658 102.388 63.5925 103.228C63.6613 103.661 63.7152 104.094 63.7572 104.53C63.844 105.384 63.8889 106.244 63.8919 107.105C63.8949 107.603 63.886 108.105 63.8621 108.604C63.7033 111.827 62.9635 115.055 61.4091 117.899C60.7503 119.109 59.9536 120.235 59.0551 121.28L59.3666 121.943C59.6301 122.517 59.8548 123.108 60.0585 123.705C60.34 124.518 60.5825 125.342 60.7862 126.178C60.906 126.665 61.0109 127.155 61.1037 127.645C61.6967 130.817 61.7236 134.129 60.8701 137.256C60.4987 138.618 59.9656 139.933 59.3127 141.181L59.6812 141.725C60.0316 142.25 60.3459 142.797 60.6454 143.353C61.0497 144.111 61.4212 144.888 61.7566 145.682C61.9513 146.142 62.134 146.608 62.3017 147.08C63.3919 150.118 63.9458 153.382 63.6014 156.605C63.2869 159.532 62.2537 162.349 60.8162 164.905L59.9925 166.276C60.1153 166.393 60.2352 166.509 60.355 166.629C60.4358 166.444 60.5137 166.261 60.5975 166.082C60.9449 165.318 61.3254 164.568 61.7417 163.836C62.0711 163.254 62.4244 162.683 62.8077 162.137L63.5235 161.145C63.7811 161.429 64.0387 161.712 64.2962 161.996C64.7155 162.465 65.1049 162.964 65.4793 163.472C65.9884 164.165 66.4646 164.885 66.9078 165.622C67.1654 166.049 67.414 166.485 67.6476 166.93C69.154 169.783 70.1634 172.937 70.2742 176.178C70.3041 177.02 70.2741 177.859 70.1903 178.696L70.2652 178.516C70.5797 178.731 70.8971 178.946 71.2116 179.161C71.7297 179.523 72.2268 179.917 72.709 180.326C73.3649 180.882 73.9968 181.47 74.5988 182.086C74.9492 182.441 75.2906 182.808 75.62 183.188C77.7524 185.613 79.4685 188.447 80.331 191.572C80.4928 192.151 80.6216 192.734 80.7264 193.322C81.2386 193.534 81.7387 193.773 82.2329 194.027C83.0025 194.418 83.7513 194.845 84.479 195.305C84.9013 195.574 85.3176 195.855 85.7279 196.145C88.3095 197.984 90.5947 200.296 92.1521 203.071C92.4725 203.647 92.7631 204.236 93.0236 204.842C93.404 204.953 93.7813 205.075 94.1557 205.206C94.9703 205.487 95.773 205.81 96.5576 206.168C97.0129 206.374 97.4651 206.595 97.9083 206.828C100.774 208.325 103.401 210.353 105.336 212.957C107.121 215.362 108.286 218.181 108.962 221.081C109.076 221.571 109.175 222.061 109.262 222.554C109.301 222.766 109.334 222.978 109.367 223.19L109.43 223.169C120.439 219.218 131.359 217.482 147.642 217.458C148.424 217.429 149.208 217.408 149.993 217.399L152.344 217.458C170.598 217.485 182.11 219.663 194.56 224.698C194.411 224.197 194.285 223.689 194.18 223.175C193.704 220.872 193.647 218.447 194.27 216.168C194.893 213.886 196.178 211.825 197.762 210.084C198.469 209.304 199.241 208.576 200.08 207.936L201.119 207.181C201.278 207.548 201.44 207.916 201.599 208.28C201.772 208.701 201.925 209.128 202.063 209.561C202.233 210.105 202.377 210.651 202.5 211.207C202.698 212.115 202.829 213.044 202.88 213.979C203.174 213.811 203.47 213.656 203.773 213.51C203.336 211.27 203.3 208.919 203.908 206.706C204.531 204.427 205.812 202.363 207.397 200.622C208.106 199.842 208.879 199.113 209.718 198.474L210.757 197.718C210.916 198.086 211.074 198.453 211.233 198.821C211.41 199.239 211.563 199.669 211.697 200.102C211.868 200.643 212.015 201.192 212.135 201.748C212.332 202.656 212.464 203.585 212.515 204.516C212.56 204.49 212.608 204.466 212.653 204.439C212.254 202.27 212.242 200.006 212.826 197.871C213.452 195.589 214.734 193.528 216.319 191.787C217.028 191.007 217.798 190.278 218.637 189.639L219.676 188.884L220.323 190.407C220.362 189.971 220.422 189.535 220.508 189.105C220.964 186.784 222.093 184.636 223.545 182.782C224.195 181.954 224.914 181.172 225.702 180.473L226.684 179.645L227.385 181.001C227.376 180.691 227.379 180.377 227.394 180.063C227.508 177.704 228.313 175.413 229.481 173.37C230.002 172.456 230.598 171.578 231.278 170.774L232.129 169.813C232.365 170.135 232.599 170.461 232.836 170.783C233.099 171.154 233.339 171.539 233.566 171.933C233.851 172.423 234.111 172.931 234.351 173.445C234.74 174.29 235.073 175.168 235.324 176.067C235.492 175.915 235.666 175.768 235.839 175.622C234.665 173.83 233.791 171.811 233.485 169.681C233.15 167.34 233.503 164.941 234.264 162.716C234.603 161.718 235.022 160.745 235.537 159.825L236.19 158.72C236.48 158.995 236.774 159.266 237.064 159.541C237.394 159.855 237.705 160.189 238.002 160.533C238.373 160.96 238.727 161.408 239.059 161.868C239.601 162.623 240.092 163.424 240.511 164.26L240.739 163.968C239.313 162.316 238.169 160.395 237.588 158.284C236.962 156.005 237.013 153.579 237.487 151.277C237.699 150.246 237.993 149.228 238.388 148.251L238.894 147.074C239.221 147.307 239.544 147.543 239.868 147.779C240.233 148.048 240.583 148.341 240.922 148.645C241.347 149.024 241.751 149.422 242.138 149.84C242.285 149.995 242.53 150.273 242.548 150.294C242.551 150.297 242.548 150.297 242.548 150.294C241.856 149.44 241.263 148.511 240.799 147.513C239.808 145.366 239.46 142.964 239.55 140.614C239.589 139.562 239.709 138.511 239.942 137.483L240.248 136.238C240.607 136.417 240.967 136.596 241.326 136.776C241.692 136.964 242.051 137.17 242.401 137.391C242.192 137.131 241.994 136.865 241.808 136.587C240.484 134.628 239.757 132.313 239.466 129.981C239.337 128.935 239.289 127.878 239.352 126.827L239.454 125.548C239.838 125.668 240.221 125.787 240.604 125.907C241.039 126.047 241.461 126.211 241.88 126.39C242.401 126.614 242.913 126.865 243.414 127.137C244.234 127.579 245.025 128.087 245.768 128.657C245.795 128.526 245.824 128.392 245.854 128.26C244.276 127.406 242.829 126.301 241.676 124.927C240.155 123.114 239.191 120.886 238.661 118.595C238.424 117.57 238.265 116.522 238.217 115.471L238.19 114.189C238.583 114.267 238.975 114.348 239.367 114.425C239.727 114.503 240.083 114.596 240.434 114.7C240.344 114.619 240.254 114.539 240.164 114.455C238.442 112.833 237.223 110.734 236.426 108.52C236.07 107.529 235.792 106.507 235.621 105.468L235.441 104.198C235.839 104.231 236.241 104.264 236.639 104.297C237.091 104.339 237.544 104.407 237.99 104.491C238.086 104.509 238.181 104.527 238.274 104.545C238.122 104.446 237.972 104.342 237.822 104.234C235.905 102.845 234.426 100.916 233.354 98.8221C232.874 97.8843 232.467 96.9076 232.165 95.898L231.823 94.6615C232.251 94.6436 232.68 94.6197 233.108 94.6048L234.12 94.6137C233.98 94.557 233.839 94.4972 233.701 94.4345C231.545 93.4489 229.715 91.8509 228.247 90.0081C227.591 89.1837 226.998 88.3055 226.501 87.3766L225.923 86.2327C226.34 86.1282 226.753 86.0206 227.169 85.9221C227.642 85.8145 228.496 85.6324 228.496 85.6324C228.181 85.5219 227.87 85.3994 227.564 85.2621C225.555 84.369 223.803 82.9562 222.356 81.3164C221.658 80.5279 221.021 79.6796 220.475 78.7776L219.841 77.6636C220.251 77.5381 220.658 77.4097 221.072 77.2902C221.239 77.2424 221.407 77.1976 221.578 77.1588C219.499 76.2359 217.705 74.7514 216.238 73.034C215.555 72.2335 214.929 71.3763 214.402 70.4623L213.785 69.3393L214.704 69.0735C212.575 68.0998 210.757 66.5287 209.295 64.7157C208.634 63.8973 208.034 63.0222 207.531 62.0963L206.947 60.9554C207.031 60.9315 206.998 60.9404 207.064 60.9225C205.465 60.0981 204.033 58.9541 202.802 57.6519C202.078 56.8843 201.41 56.0599 200.838 55.1758L200.164 54.0826C200.568 53.9452 200.973 53.8019 201.38 53.6704C202.015 53.4703 202.662 53.3121 203.315 53.1896C204.309 53.0015 205.318 52.8939 206.327 52.87H207.097C206.744 52.1114 206.45 51.3229 206.211 50.5254C205.908 49.5158 205.681 48.4824 205.567 47.434L205.453 46.1586C205.851 46.2124 206.247 46.2662 206.645 46.317C207.094 46.3857 207.543 46.4752 207.984 46.5828C208.538 46.7172 209.086 46.8785 209.625 47.0607C210.715 47.434 211.781 47.906 212.778 48.4914C212.808 47.3653 212.958 46.2423 213.207 45.1462C213.437 44.1187 213.752 43.1061 214.165 42.1384L214.698 40.9706C215.019 41.2125 215.336 41.4544 215.657 41.6963C216.016 41.9741 216.36 42.2728 216.693 42.5805C217.109 42.9687 217.508 43.3749 217.885 43.799C219.55 45.6598 220.877 47.879 221.446 50.3222C221.479 50.4686 221.581 50.6717 221.581 50.6717L221.883 50.0684L222.467 49.017C222.767 49.2829 223.066 49.5487 223.366 49.8145C223.701 50.1192 224.021 50.4447 224.33 50.7792C224.713 51.1974 225.079 51.6364 225.423 52.0874C226.801 53.8945 227.876 55.9763 228.34 58.2074L228.972 56.9798C229.278 57.2367 229.586 57.4936 229.891 57.7504C230.239 58.0491 230.565 58.3628 230.883 58.6884C231.278 59.0976 231.655 59.5246 232.012 59.9666C233.234 61.484 234.24 63.2073 234.833 65.0651L235.747 65.8059C236.097 66.0956 236.429 66.4062 236.753 66.7258C237.154 67.126 237.538 67.5472 237.903 67.9833C239.502 69.9009 240.751 72.1618 241.236 74.623C241.251 74.6917 241.263 74.7604 241.275 74.8291L241.521 74.396C241.817 74.6618 242.117 74.9276 242.413 75.1964C242.749 75.5041 243.066 75.8297 243.372 76.1672C243.752 76.5883 244.114 77.0274 244.456 77.4814C245.956 79.4766 247.088 81.8003 247.448 84.2824C247.672 85.8385 247.595 87.4245 247.301 88.9657L247.304 88.9567C247.702 88.3116 248.143 87.6903 248.622 87.1048L249.46 86.1342C249.7 86.4538 249.94 86.7763 250.179 87.0959C250.446 87.4633 250.691 87.8456 250.925 88.2368C251.215 88.7237 251.482 89.2255 251.727 89.7393C252.8 91.9913 253.453 94.4883 253.312 96.9942C253.276 97.6154 253.195 98.2277 253.072 98.8341L254.022 97.9799C254.219 98.3293 254.417 98.6757 254.612 99.0252C254.83 99.4254 255.025 99.8347 255.205 100.253C255.429 100.773 255.633 101.304 255.81 101.845C256.588 104.213 256.915 106.773 256.453 109.24C256.325 109.924 256.142 110.596 255.905 111.25L256.393 110.877L257.376 110.187C257.532 110.554 257.684 110.925 257.837 111.292C258.008 111.716 258.155 112.146 258.283 112.579C258.445 113.126 258.583 113.676 258.697 114.231C259.191 116.677 259.212 119.258 258.466 121.653C258.14 122.699 257.675 123.696 257.109 124.631L257.906 124.135L258.954 123.547C259.071 123.932 259.185 124.315 259.299 124.697C259.424 125.133 259.526 125.578 259.61 126.023C259.715 126.582 259.793 127.143 259.847 127.708C260.083 130.19 259.838 132.761 258.846 135.067C258.238 136.48 257.373 137.764 256.343 138.908L256.382 138.887C257.097 138.478 257.843 138.117 258.61 137.815L259.817 137.373C259.871 137.77 259.922 138.167 259.972 138.562C260.026 139.013 260.053 139.467 260.065 139.921C260.08 140.488 260.068 141.056 260.032 141.623C259.868 144.111 259.212 146.608 257.861 148.726C257.008 150.067 255.902 151.229 254.657 152.217C255.342 151.976 256.04 151.772 256.75 151.623L258.014 151.384C257.999 151.784 257.987 152.185 257.972 152.582C257.951 153.036 257.903 153.49 257.84 153.938C257.762 154.499 257.657 155.058 257.529 155.61C256.957 158.039 255.902 160.398 254.222 162.265C252.698 163.965 250.721 165.216 248.619 166.079C248.11 166.288 247.595 166.479 247.067 166.641C247.067 166.832 247.061 167.023 247.055 167.214C248.065 166.709 249.131 166.318 250.218 166.022C251.236 165.748 252.282 165.548 253.333 165.461L254.618 165.38C254.552 165.775 254.489 166.169 254.423 166.566C254.345 167.011 254.243 167.456 254.123 167.892C253.974 168.442 253.8 168.982 253.602 169.514C252.734 171.85 251.389 174.057 249.49 175.703C247.765 177.199 245.645 178.197 243.45 178.791C242.773 178.976 242.081 179.126 241.386 179.23C241.329 179.556 241.263 179.878 241.188 180.201C242.273 179.899 243.396 179.714 244.519 179.63C244.908 179.6 245.3 179.586 245.693 179.58C245.839 179.577 245.986 179.577 246.133 179.577L247.765 179.675L248.96 179.828C248.813 180.231 248.67 180.634 248.517 181.034C248.13 182.014 247.642 182.955 247.088 183.848C245.842 185.846 244.21 187.644 242.183 188.872C240.155 190.099 237.801 190.711 235.45 190.891C235.052 190.921 234.647 190.939 234.246 190.944C234.21 191.043 234.171 191.139 234.132 191.237H234.138C234.743 191.16 235.354 191.121 235.965 191.109L237.145 191.13C237.804 191.162 238.463 191.231 239.116 191.336L240.721 191.667L241.877 191.993C241.674 192.369 241.473 192.746 241.263 193.119C240.742 194.033 240.119 194.893 239.439 195.699C237.918 197.495 236.04 199.039 233.857 199.959C232.177 200.663 230.362 200.986 228.541 201.022C229.248 201.082 229.948 201.18 230.643 201.318C231.344 201.458 232.042 201.634 232.722 201.864L233.932 202.3C233.701 202.659 233.473 203.023 233.237 203.379C232.647 204.254 231.967 205.066 231.23 205.819C229.583 207.5 227.597 208.904 225.351 209.663C224.381 209.991 223.378 210.194 222.362 210.293C222.329 210.284 223.297 210.529 223.8 210.699L225.01 211.135C224.779 211.497 224.551 211.858 224.315 212.217C223.725 213.089 223.045 213.901 222.308 214.654C220.658 216.335 218.675 217.739 216.429 218.498C214.183 219.256 211.751 219.349 209.418 219.014C208.927 218.943 208.436 218.856 207.951 218.746C207.873 218.928 207.789 219.104 207.705 219.28L208.699 219.259C209.837 219.271 210.97 219.394 212.087 219.615C212.788 219.755 213.485 219.931 214.165 220.158L215.375 220.595C215.141 220.956 214.917 221.317 214.68 221.676C214.09 222.551 213.41 223.363 212.671 224.116C211.023 225.798 209.038 227.198 206.795 227.96C205.687 228.333 204.536 228.545 203.371 228.623ZM100.163 226.962C97.9352 226.296 95.7999 225.314 93.916 223.946C91.7387 222.366 89.9478 220.314 88.5163 218.047C86.9469 218.157 85.3865 218.414 83.865 218.805L83.8111 218.817C84.5119 219.782 85.2846 220.693 86.1112 221.547C86.4167 221.867 86.7342 222.175 87.0546 222.476C89.0882 224.37 91.4661 225.938 94.1136 226.822C95.5602 227.303 97.0667 227.581 98.5821 227.691C98.4623 227.748 99.5195 227.255 100.163 226.962ZM199.164 226.529C199.565 226.61 199.966 226.673 200.371 226.724C202.425 226.977 204.561 226.861 206.51 226.132C208.151 225.52 209.619 224.513 210.889 223.319C211.167 223.056 211.437 222.784 211.697 222.503L212.503 221.568C212.153 221.479 211.796 221.404 211.44 221.338C210.532 221.174 209.61 221.084 208.684 221.072C208.622 221.072 208.556 221.072 208.493 221.072C207.849 221.078 207.205 221.123 206.57 221.219C206.229 221.709 205.851 222.178 205.441 222.617C203.881 224.28 201.877 225.49 199.757 226.311L199.164 226.529ZM106.375 224.319C105.65 222.724 104.773 221.198 103.721 219.794C102.679 218.396 101.466 217.124 100.074 216.07C98.4624 214.851 96.6295 213.952 94.7158 213.319C93.7304 212.993 92.721 212.736 91.7028 212.542C90.379 212.291 89.0343 212.145 87.6866 212.097H87.6357C87.6417 212.112 87.6447 212.13 87.6507 212.148C88.097 213.369 88.6301 214.558 89.25 215.702C89.7412 216.607 90.2893 217.482 90.8943 218.316C92.0743 219.94 93.4818 221.41 95.123 222.575C96.6325 223.647 98.3215 224.451 100.08 225.033C100.993 225.335 101.925 225.577 102.868 225.765L103.988 225.29C102.844 224.516 101.724 223.707 100.61 222.891C99.3518 221.948 98.103 220.989 96.8931 219.979C95.6771 218.973 94.4851 217.936 93.353 216.807L93.3591 216.801C94.8206 217.449 96.2161 218.193 97.5908 218.967C98.9684 219.737 100.313 220.559 101.646 221.392C102.967 222.243 104.281 223.103 105.56 224.014C105.749 224.149 105.938 224.283 106.126 224.418L106.375 224.319ZM199.208 224.576C199.274 224.549 199.34 224.522 199.409 224.495C201.323 223.713 203.126 222.566 204.468 220.977C205.594 219.642 206.378 218.044 206.894 216.386C207.007 216.019 207.109 215.648 207.199 215.278L207.439 214.065L206.259 214.439C205.896 214.567 205.54 214.708 205.186 214.86C203.491 215.598 201.898 216.625 200.655 218.005C199.415 219.385 198.568 221.078 198.016 222.838C197.998 222.903 197.978 222.969 197.957 223.035C198.469 222.434 199.002 221.855 199.544 221.278C200.272 220.529 201.011 219.791 201.799 219.092C202.584 218.387 203.398 217.712 204.297 217.106L204.303 217.112C203.848 218.095 203.309 219.003 202.74 219.887C202.17 220.774 201.56 221.622 200.934 222.458C200.374 223.178 199.807 223.892 199.208 224.576ZM201.08 215.159C201.101 214.239 201.026 213.316 200.877 212.414C200.814 212.034 200.739 211.658 200.649 211.288L200.323 210.096L199.433 210.956C199.17 211.231 198.912 211.518 198.666 211.81C197.48 213.226 196.516 214.857 196.028 216.646C195.54 218.432 195.54 220.326 195.839 222.145C195.896 222.482 196.046 223.112 196.046 223.112C196.055 223.083 196.064 223.05 196.07 223.02C196.678 220.747 197.717 218.555 199.301 216.792C199.831 216.201 200.418 215.666 201.047 215.182L201.08 215.159ZM107.327 222.127C107.085 220.938 106.755 219.767 106.33 218.629C105.722 216.998 104.913 215.436 103.871 214.039C102.67 212.42 101.164 211.04 99.5015 209.899C98.6121 209.286 97.6776 208.74 96.7103 208.253C95.5452 207.668 94.3383 207.172 93.0984 206.766L93.0476 206.748C93.0506 206.769 93.0505 206.784 93.0505 206.801C93.1344 208.101 93.3111 209.391 93.5866 210.663C93.6196 210.819 93.6555 210.974 93.6914 211.126C95.9615 211.712 98.1538 212.605 100.118 213.883C100.583 214.185 101.032 214.507 101.463 214.848C102.7 215.825 103.805 216.957 104.782 218.187C105.755 219.415 106.6 220.741 107.327 222.127ZM208.798 217.07C209.2 217.148 209.601 217.211 210.005 217.261C212.06 217.515 214.195 217.399 216.148 216.67C217.786 216.061 219.256 215.051 220.523 213.859C220.802 213.596 221.071 213.322 221.332 213.041L222.138 212.106C221.739 212.004 221.335 211.921 220.928 211.852C220.065 211.703 219.194 211.622 218.319 211.613H218.127C217.484 211.616 216.843 211.664 216.208 211.76C215.863 212.249 215.489 212.715 215.076 213.154C213.515 214.821 211.515 216.031 209.391 216.849C209.197 216.927 208.999 216.998 208.798 217.07ZM83.7753 216.954C84.3054 216.825 85.4884 216.595 85.5903 216.577C83.3261 215.592 81.2026 214.268 79.4176 212.557C77.4769 210.696 75.9854 208.417 74.8803 205.974C74.5239 205.95 74.1676 205.935 73.8142 205.926C73.5626 205.92 73.3109 205.917 73.0624 205.917C72.1459 205.923 71.2324 205.974 70.319 206.07L70.1124 206.094C70.1993 206.252 70.286 206.41 70.3729 206.565C71.493 208.537 72.8558 210.38 74.4701 211.981C75.7459 213.244 77.1865 214.355 78.7738 215.203C80.3402 216.04 82.0382 216.607 83.7753 216.954L83.7663 216.957L83.7753 216.954ZM90.0585 210.454C89.0552 208.477 87.7584 206.643 86.1202 205.138C84.7275 203.853 83.1134 202.82 81.4033 202.008C79.3847 201.052 77.2254 200.389 75.0302 199.995L74.8234 199.962C74.8294 199.977 74.8325 199.994 74.8355 200.012C75.108 201.285 75.4704 202.536 75.9286 203.752C76.291 204.717 76.7133 205.657 77.1985 206.565C78.1149 208.289 79.2679 209.896 80.6785 211.249C82.0921 212.602 83.7453 213.689 85.5064 214.54C85.9766 214.767 86.4558 214.976 86.9409 215.174C86.6714 214.597 86.4198 214.015 86.1862 213.423C85.9765 212.883 85.632 211.846 85.644 211.879C84.7156 210.95 83.7992 210.006 82.9127 209.033C81.8465 207.871 80.8073 206.679 79.843 205.41L79.8488 205.401C81.2055 206.246 82.4875 207.172 83.7424 208.128C84.6678 208.827 85.5692 209.549 86.4616 210.284L87.1625 210.272C88.1298 210.281 89.0971 210.344 90.0585 210.454ZM209.119 215.003C211.006 214.221 212.779 213.083 214.102 211.515C215.228 210.183 216.013 208.585 216.531 206.924C216.645 206.559 216.744 206.189 216.834 205.816L217.076 204.606L215.893 204.977C215.534 205.105 215.174 205.245 214.824 205.398C213.129 206.135 211.533 207.163 210.293 208.543C209.37 209.567 208.663 210.768 208.136 212.037L209.128 211.87L209.179 211.819C209.906 211.067 210.646 210.329 211.437 209.63C212.221 208.928 213.036 208.25 213.932 207.644L213.941 207.65C213.485 208.632 212.943 209.54 212.374 210.424C211.808 211.315 211.194 212.163 210.568 212.996C210.113 213.585 209.652 214.167 209.173 214.734C209.155 214.824 209.137 214.914 209.119 215.003ZM205.986 212.611C206.615 210.681 207.576 208.844 208.936 207.33C209.478 206.73 210.074 206.186 210.715 205.696C210.736 204.776 210.661 203.856 210.511 202.951C210.452 202.572 210.374 202.199 210.287 201.825L209.957 200.637L209.071 201.494C208.804 201.772 208.547 202.055 208.301 202.351C207.115 203.764 206.151 205.398 205.663 207.184C205.174 208.973 205.174 210.864 205.474 212.685L205.492 212.784L205.986 212.611ZM91.2026 205.224C90.963 204.693 90.6935 204.173 90.397 203.668C89.4087 201.99 88.1179 200.499 86.6624 199.206C84.9552 197.689 83.0205 196.428 80.9719 195.425L80.924 195.404C80.921 195.422 80.921 195.44 80.918 195.458C80.8192 196.796 80.8193 198.143 80.9271 199.484C80.9361 199.597 80.948 199.714 80.9569 199.827C83.5236 200.879 85.9256 202.351 87.8873 204.313C89.3338 205.759 90.5227 207.441 91.4781 209.242L91.2865 207.62C91.2266 206.954 91.2026 205.224 91.2026 205.224ZM217.993 208.286C218.301 208.34 218.616 208.387 218.927 208.426C220.982 208.68 223.117 208.564 225.07 207.835C226.708 207.226 228.178 206.216 229.445 205.024C229.724 204.761 229.993 204.487 230.254 204.206L231.059 203.271C230.661 203.169 230.257 203.086 229.85 203.017C228.987 202.868 228.116 202.787 227.241 202.778C227.178 202.778 227.112 202.778 227.049 202.778C226.405 202.781 225.765 202.829 225.13 202.922C224.785 203.414 224.411 203.88 223.998 204.319C222.437 205.986 220.437 207.196 218.313 208.014C218.226 208.047 218.139 208.083 218.052 208.113C218.032 208.169 218.011 208.226 217.993 208.286ZM218.64 202.432C219.197 201.87 219.763 201.321 220.359 200.795C221.14 200.093 221.955 199.415 222.853 198.809L222.862 198.815C222.404 199.797 221.865 200.705 221.296 201.589C220.73 202.477 220.116 203.325 219.49 204.161C219.281 204.43 219.074 204.696 218.861 204.962C218.81 205.272 218.75 205.577 218.684 205.884C220.329 205.12 221.853 204.068 223.024 202.68C224.15 201.345 224.935 199.75 225.453 198.089C225.564 197.722 225.666 197.354 225.756 196.981L225.995 195.771L224.815 196.142C224.453 196.27 224.096 196.41 223.746 196.563C222.048 197.3 220.454 198.328 219.215 199.708C218.418 200.592 217.786 201.604 217.286 202.68L218.64 202.432ZM72.3465 204.113C69.741 202.45 67.393 200.323 65.7069 197.718C64.2483 195.463 63.317 192.904 62.8019 190.272C61.3493 189.827 59.8518 189.514 58.3424 189.329L58.1356 189.305C58.1416 189.32 58.1446 189.338 58.1506 189.355C58.4891 190.61 58.9235 191.84 59.4476 193.032C59.8609 193.973 60.3341 194.89 60.8672 195.771C61.8764 197.441 63.1163 198.982 64.5987 200.257C66.0453 201.503 67.7074 202.48 69.4595 203.226C70.2771 203.573 72.0142 204.125 72.0142 204.125C72.125 204.119 72.2357 204.116 72.3465 204.113ZM215.052 203.352C215.681 201.578 216.597 199.899 217.858 198.495C218.397 197.895 218.996 197.351 219.637 196.861C219.658 195.941 219.583 195.021 219.433 194.116C219.37 193.737 219.296 193.364 219.209 192.99L218.879 191.799L217.993 192.659C217.726 192.937 217.469 193.22 217.223 193.513C216.037 194.929 215.073 196.56 214.585 198.349C214.114 200.063 214.096 201.873 214.36 203.623L215.052 203.352ZM76.6324 198.468C76.5485 198.098 76.4587 197.734 76.3569 197.369C75.8867 195.694 75.2158 194.069 74.2993 192.584C73.2361 190.87 71.8524 189.37 70.295 188.092C69.4594 187.408 68.5731 186.784 67.6536 186.216C66.5425 185.535 65.3804 184.938 64.1794 184.427L64.1315 184.409C64.1315 184.427 64.1315 184.442 64.1315 184.46C64.1016 185.762 64.1674 187.062 64.3352 188.352C64.4669 189.373 64.6617 190.386 64.9223 191.381C65.4374 193.319 66.219 195.198 67.3272 196.873C68.3784 198.456 69.7022 199.845 71.1787 201.04C71.9723 201.685 73.6643 202.748 73.6643 202.748C73.4936 202.196 73.3439 201.637 73.2091 201.076C73.1403 200.786 73.0744 200.493 73.0145 200.201C72.7869 199.848 72.5593 199.493 72.3317 199.14C71.5021 197.808 70.6844 196.464 69.9177 195.087C69.148 193.713 68.4113 192.315 67.7644 190.858L67.7704 190.852C68.8965 191.987 69.9328 193.179 70.9361 194.394C71.9094 195.568 72.8348 196.772 73.7453 197.987L72.6761 197.895L73.82 197.993C74.449 198.053 75.075 198.152 75.695 198.271C76.0095 198.331 76.3209 198.397 76.6324 198.468ZM227.178 198.671L227.013 199.167C227.13 199.176 227.244 199.182 227.361 199.188C229.427 199.293 231.548 199.024 233.44 198.155C235.031 197.429 236.423 196.315 237.6 195.033C237.861 194.753 238.11 194.46 238.349 194.161L239.086 193.17C238.241 193.02 237.388 192.946 236.534 192.925C236.384 192.922 236.235 192.922 236.085 192.922C235.097 192.934 234.105 193.035 233.144 193.25C232.835 193.764 232.497 194.26 232.12 194.726C230.796 196.36 229.074 197.635 227.202 198.588L227.178 198.671ZM79.124 195.072C79.0282 194.054 78.8486 193.041 78.576 192.056C78.028 190.063 77.0876 188.197 75.9136 186.503C75.3266 185.655 74.6797 184.848 73.9879 184.087C73.1133 183.122 72.1669 182.223 71.1576 181.399L71.1158 181.366C71.1098 181.384 71.1037 181.402 71.0977 181.417C70.7053 182.656 70.406 183.925 70.2023 185.21C70.1784 185.368 70.1544 185.523 70.1334 185.682C72.3886 187.292 74.3891 189.272 75.8476 191.631C77.2373 193.874 78.1149 196.401 78.597 198.988C78.7588 199.039 78.9175 199.086 79.0793 199.14C79.0643 198.94 79.0552 198.743 79.0462 198.543C79.0132 197.704 79.0163 196.861 79.0582 196.025C79.0732 195.705 79.0941 195.389 79.124 195.072ZM227.954 194.717L227.777 196.165C229.026 195.362 230.152 194.364 231.027 193.161C232.054 191.748 232.719 190.099 233.114 188.406C233.201 188.032 233.276 187.659 233.336 187.28L233.488 186.055L232.338 186.512C231.988 186.664 231.641 186.832 231.299 187.008C229.664 187.865 228.145 189.006 227.01 190.473C226.16 191.569 225.543 192.82 225.109 194.134C225.435 194.036 225.768 193.946 226.097 193.869L226.139 193.821C226.81 193.02 227.496 192.229 228.232 191.473C228.96 190.717 229.724 189.983 230.577 189.314L230.583 189.32C230.2 190.332 229.727 191.276 229.224 192.199C228.831 192.925 228.409 193.63 227.975 194.323L227.954 194.717ZM222.997 194.908C223.479 192.916 224.309 190.989 225.57 189.361C226.058 188.734 226.603 188.158 227.193 187.629L227.223 187.602C227.181 186.685 227.037 185.771 226.822 184.878C226.732 184.508 226.63 184.138 226.513 183.773L226.1 182.611C226.097 182.614 226.097 182.614 226.094 182.617C225.812 182.913 225.54 183.218 225.276 183.531C225.034 183.827 224.797 184.129 224.572 184.439C223.494 185.939 222.653 187.635 222.293 189.451C221.937 191.27 222.075 193.161 222.509 194.953C222.521 195.006 222.533 195.057 222.548 195.111C222.695 195.042 222.844 194.974 222.997 194.908ZM160.173 175.213C168.235 178.155 176.857 179.484 185.54 179.063C175.342 182.366 164.908 182.758 155.12 180.703L155.039 182.716L149.993 189.642L144.947 182.716L144.866 180.703C135.078 182.758 124.641 182.366 114.446 179.063C123.125 179.484 131.751 178.155 139.813 175.213C126.609 168.316 115.992 156.459 111.017 141.205C103.647 118.601 110.616 93.7923 128.69 78.2908C109.049 107.266 116.12 146.402 144.297 166.799L142.338 118.499V80.504C145.39 79.0435 148.025 76.8362 149.993 74.0913C151.961 76.8362 154.596 79.0435 157.645 80.504V118.499L155.689 166.799C183.862 146.402 190.936 107.266 171.296 78.2908C189.37 93.7923 196.339 118.601 188.969 141.205C183.994 156.459 173.377 168.316 160.173 175.213ZM234.815 189.111C235.094 189.099 235.369 189.078 235.645 189.051C237.705 188.857 239.763 188.28 241.512 187.148C242.979 186.198 244.192 184.896 245.172 183.456C245.387 183.14 245.591 182.817 245.786 182.486L246.37 181.399C246.196 181.393 246.025 181.393 245.851 181.393C245.507 181.396 245.163 181.405 244.818 181.428C243.351 181.524 241.877 181.808 240.503 182.336L240.488 182.372C240.263 182.913 240.002 183.442 239.703 183.946C238.541 185.909 236.849 187.525 234.956 188.782L234.884 188.83C234.863 188.922 234.839 189.018 234.815 189.111ZM53.5265 170.855C53.3707 170.763 53.2121 170.673 53.0534 170.583C51.8404 169.905 50.5705 169.326 49.2648 168.848L49.2138 168.83C49.2138 168.848 49.2139 168.866 49.2169 168.884C49.2528 170.183 49.3876 171.479 49.6212 172.758C49.8039 173.77 50.0495 174.774 50.361 175.754C50.957 177.611 51.8014 179.397 52.9485 180.983C54.0626 182.528 55.4523 183.863 56.9828 184.995C57.8962 185.67 58.8635 186.276 59.8638 186.814C59.75 186.697 59.6332 186.578 59.5194 186.461C57.402 184.251 55.6379 181.661 54.6166 178.767C53.7212 176.237 53.4126 173.531 53.5265 170.855ZM65.0449 182.823C65.1677 180.276 64.8833 177.698 64.0058 175.294C63.3379 173.466 62.3376 171.766 61.1426 170.231C59.738 168.433 58.0639 166.844 56.228 165.488L56.1859 165.458C56.183 165.473 56.1769 165.491 56.171 165.509C55.8415 166.766 55.605 168.048 55.4643 169.341C55.3565 170.362 55.3085 171.393 55.3325 172.423C55.3774 174.371 55.6828 176.324 56.3327 178.164C56.9856 180.007 57.974 181.718 59.163 183.265C59.7649 184.048 60.4178 184.789 61.1127 185.49C61.514 185.894 61.9244 186.282 62.3496 186.658L62.3197 186.004C61.7476 184.58 61.2325 183.134 60.7293 181.685C60.2292 180.195 59.75 178.701 59.3247 177.184C58.8965 175.67 58.5041 174.141 58.2166 172.573L58.2227 172.57C59.0552 173.932 59.7859 175.332 60.4747 176.748C61.1725 178.161 61.8134 179.595 62.4333 181.037C62.5711 181.363 62.706 181.688 62.8408 182.014L63.6074 182.265C64.0926 182.429 64.5718 182.617 65.0449 182.823ZM235.363 184.863L235.297 186.27C236.549 185.237 237.639 183.997 238.394 182.557C239.203 181.01 239.622 179.281 239.766 177.549C239.799 177.169 239.817 176.784 239.823 176.402L239.793 175.171L238.724 175.786C238.397 175.989 238.08 176.205 237.768 176.432C236.274 177.516 234.938 178.863 234.028 180.479C233.342 181.697 232.91 183.041 232.674 184.418L233.527 184.129L233.653 183.917C234.198 183.026 234.764 182.145 235.381 181.291C235.995 180.437 236.642 179.601 237.388 178.815L237.394 178.818C237.163 179.875 236.834 180.879 236.468 181.868C236.136 182.784 235.756 183.678 235.357 184.565L235.363 184.863ZM230.721 185.267C230.925 183.283 231.461 181.327 232.44 179.589C232.838 178.884 233.303 178.224 233.824 177.608C233.644 176.706 233.372 175.822 233.027 174.971C232.886 174.615 232.731 174.266 232.563 173.923L231.985 172.832L231.302 173.86C231.104 174.188 230.916 174.523 230.739 174.863C229.888 176.5 229.302 178.301 229.215 180.15C229.125 181.99 229.532 183.827 230.212 185.529L230.721 185.267ZM67.1115 183.815C67.405 183.029 67.6596 182.226 67.8633 181.414C68.3035 179.672 68.528 177.871 68.4471 176.073C68.3603 174.117 67.9082 172.187 67.2103 170.362C66.3808 168.185 65.2126 166.142 63.814 164.281L63.6882 164.117C63.6793 164.132 63.6704 164.147 63.6614 164.162C62.9905 165.276 62.4004 166.441 61.9032 167.641C61.8433 167.788 61.7836 167.937 61.7267 168.086C63.5446 170.174 65.0271 172.564 65.8986 175.198C66.7971 177.913 67.0336 180.816 66.815 183.66C66.776 183.639 66.9767 183.743 67.1115 183.815ZM242.105 177.25C242.506 177.166 242.901 177.065 243.294 176.948C245.279 176.369 247.19 175.413 248.691 173.973C249.952 172.764 250.898 171.255 251.587 169.657C251.736 169.308 251.874 168.95 252.003 168.588L252.368 167.411L251.155 167.656C250.784 167.746 250.413 167.85 250.047 167.964C248.909 168.322 247.801 168.809 246.786 169.439C246.666 170.025 246.507 170.604 246.307 171.172C245.54 173.316 244.183 175.222 242.566 176.814C242.413 176.963 242.263 177.109 242.105 177.25ZM240.104 173.009C240.188 172.767 240.275 172.525 240.362 172.283C240.73 171.306 241.116 170.332 241.56 169.38C242 168.424 242.479 167.48 243.06 166.569L243.069 166.572C243.042 167.653 242.907 168.702 242.737 169.738C242.572 170.777 242.347 171.799 242.108 172.814C241.943 173.454 241.775 174.09 241.59 174.723L241.62 175.186C243.018 173.728 244.174 171.996 244.758 170.052C245.262 168.382 245.342 166.605 245.157 164.876C245.115 164.496 245.061 164.117 244.992 163.741L244.731 162.534L243.797 163.343C243.515 163.603 243.243 163.875 242.982 164.156C241.718 165.503 240.664 167.077 240.077 168.836C239.601 170.264 239.442 171.778 239.505 173.28L240.164 172.985L240.104 173.009ZM237.747 174.254C237.559 172.241 237.708 170.183 238.349 168.26C238.607 167.495 238.939 166.76 239.332 166.055C238.984 165.204 238.547 164.389 238.05 163.618C237.843 163.295 237.624 162.979 237.394 162.674L236.618 161.712L236.145 162.853C236.013 163.212 235.89 163.573 235.783 163.941C235.258 165.709 235.025 167.591 235.288 169.424C235.552 171.255 236.307 172.991 237.307 174.541L237.747 174.254ZM190.2 167.606C190.164 167.656 190.128 167.707 190.092 167.749C213.776 154.099 221.88 123.893 208.187 100.283C201.473 88.7028 190.347 80.3308 177.331 77.0841C205.959 98.5384 211.721 139.07 190.2 167.606ZM91.7956 100.283C78.1058 123.893 86.2102 154.099 109.894 167.749C109.858 167.707 109.822 167.656 109.786 167.606C88.2647 139.07 94.024 98.5384 122.652 77.0841C109.639 80.3308 98.5102 88.7028 91.7956 100.283ZM56.1741 163.251C56.5394 163.478 57.1864 163.935 57.1564 163.917C57.9261 160.915 58.1597 157.731 57.4829 154.691C57.0816 152.892 56.3748 151.169 55.4703 149.568C54.3472 147.585 52.9245 145.769 51.3102 144.162L51.1635 144.016C51.1575 144.034 51.1486 144.048 51.1426 144.066C50.6395 145.264 50.2232 146.501 49.9027 147.761C49.6481 148.759 49.4565 149.771 49.3337 150.793C49.1061 152.728 49.133 154.705 49.5194 156.62C49.9027 158.535 50.6393 160.368 51.6007 162.068C52.1068 162.964 52.676 163.824 53.2959 164.649C53.5924 165.043 53.9008 165.428 54.2213 165.807L54.3531 165.273C53.9817 163.764 53.6703 162.244 53.3738 160.721C53.0893 159.177 52.8227 157.63 52.6191 156.067C52.4064 154.508 52.2356 152.937 52.1697 151.345L52.1789 151.342C52.8108 152.809 53.3348 154.296 53.82 155.796C54.3112 157.292 54.7395 158.803 55.1528 160.318C55.3894 161.226 55.62 162.134 55.8386 163.045L56.1741 163.251ZM47.7702 148.989C46.5812 148.039 45.3025 147.203 43.9668 146.477L43.784 146.378C43.784 146.396 43.781 146.414 43.778 146.432C43.6282 147.767 43.5803 149.114 43.6372 150.458C43.6791 151.441 43.7811 152.423 43.9458 153.394C44.2812 155.371 44.8922 157.31 45.8476 159.081C46.7251 160.709 47.8812 162.175 49.199 163.472C50.0076 164.269 50.8789 165.004 51.7954 165.676C51.6965 165.545 51.5978 165.413 51.502 165.279C49.717 162.797 48.3394 159.983 47.7344 156.975C47.2043 154.344 47.2821 151.623 47.7702 148.989ZM247.091 164.72C247.478 164.586 247.858 164.436 248.229 164.272C250.128 163.448 251.907 162.265 253.213 160.649C254.312 159.29 255.061 157.677 255.543 156.008C255.648 155.64 255.744 155.267 255.824 154.894L256.04 153.678L254.866 154.075C254.507 154.21 254.153 154.359 253.803 154.517C252.722 155.016 251.682 155.634 250.754 156.387C250.712 156.984 250.625 157.579 250.497 158.164C250.005 160.389 248.897 162.45 247.493 164.23C247.361 164.395 247.229 164.559 247.091 164.72ZM58.8365 164.696C59.4624 163.657 60.0166 162.573 60.4778 161.45C61.1577 159.789 61.6338 158.036 61.8075 156.247C61.9961 154.296 61.8194 152.325 61.3881 150.416C60.873 148.146 60.0016 145.957 58.8814 143.92L58.7796 143.741C58.7677 143.753 58.7557 143.768 58.7467 143.78C57.9261 144.792 57.1774 145.858 56.5155 146.981C56.4347 147.119 56.3567 147.256 56.2788 147.394C57.7853 149.717 58.9174 152.292 59.4055 155.019C59.9356 157.964 59.7231 161.005 59.0343 163.908C58.9714 164.171 58.9054 164.433 58.8365 164.696ZM242.368 162.19C241.946 160.249 241.847 158.224 242.237 156.271C242.395 155.479 242.632 154.705 242.934 153.959C242.482 153.158 241.949 152.403 241.359 151.701C241.111 151.405 240.853 151.121 240.589 150.846L239.697 149.986L239.373 151.178C239.284 151.551 239.209 151.928 239.149 152.304C238.849 154.123 238.852 156.017 239.343 157.803C239.832 159.574 240.787 161.19 241.958 162.594L242.368 162.19ZM246.576 162.417C247.672 160.873 248.505 159.123 248.819 157.25C249.11 155.527 248.966 153.756 248.565 152.065C248.475 151.692 248.373 151.321 248.259 150.957L247.849 149.792L247.022 150.712C246.777 151.005 246.543 151.306 246.316 151.617C245.234 153.113 244.387 154.807 244.024 156.623C243.746 158.006 243.758 159.431 243.968 160.825L244.666 160.327C244.689 160.222 244.713 160.115 244.737 160.01C244.98 158.994 245.241 157.982 245.564 156.981C245.878 155.978 246.235 154.98 246.699 154.004L246.708 154.007C246.816 155.082 246.816 156.139 246.777 157.187C246.744 158.239 246.648 159.281 246.537 160.318C246.483 160.745 246.426 161.175 246.364 161.599L246.576 162.417ZM251.23 152.313C251.587 152.116 251.937 151.907 252.282 151.686C254.016 150.563 255.576 149.102 256.6 147.295C257.463 145.778 257.936 144.063 258.14 142.337C258.181 141.955 258.214 141.572 258.232 141.19L258.244 139.957L257.154 140.539C256.822 140.733 256.495 140.936 256.178 141.151C255.193 141.82 254.267 142.6 253.476 143.493C253.53 144.09 253.545 144.688 253.512 145.288C253.393 147.564 252.638 149.774 251.545 151.763C251.443 151.949 251.338 152.131 251.23 152.313ZM242.937 150.754C243.27 151.166 243.587 151.59 243.881 152.029C243.917 151.969 243.953 151.907 243.989 151.847C243.62 151.501 243.27 151.136 242.937 150.754ZM248.214 147.017C248.274 146.321 248.349 145.623 248.451 144.924C248.601 143.884 248.786 142.842 249.086 141.802H249.092C249.376 142.845 249.55 143.89 249.682 144.933C249.823 145.975 249.901 147.017 249.961 148.06C249.991 148.857 250.014 149.655 250.008 150.452C250.029 150.521 250.05 150.59 250.071 150.661L250.104 150.596C251.066 148.771 251.707 146.734 251.71 144.658C251.713 142.913 251.281 141.187 250.607 139.586C250.458 139.231 250.299 138.884 250.125 138.541L249.529 137.46L248.864 138.502C248.673 138.833 248.487 139.168 248.316 139.512C247.493 141.163 246.936 142.973 246.876 144.825C246.843 145.856 246.963 146.883 247.202 147.884C247.286 147.806 248.214 147.017 248.214 147.017ZM245.738 149.416C245.261 147.913 245.004 146.342 245.055 144.765C245.082 143.959 245.19 143.158 245.363 142.373C244.788 141.656 244.135 140.996 243.437 140.402C243.147 140.151 242.845 139.912 242.536 139.685L241.521 138.983L241.392 140.21C241.368 140.593 241.356 140.975 241.356 141.357C241.359 143.203 241.674 145.07 242.452 146.752C243.072 148.09 243.971 149.278 245.019 150.315L245.738 149.416ZM54.8773 144.494C55.1349 144.189 55.3835 143.881 55.626 143.565C57.3182 141.363 58.6539 138.851 59.2768 136.136C59.6871 134.341 59.7889 132.481 59.6602 130.647C59.4984 128.374 58.9952 126.128 58.2285 123.986L58.1567 123.792C58.1447 123.804 58.1297 123.816 58.1177 123.828C57.1444 124.694 56.237 125.632 55.4074 126.635C55.3056 126.758 55.2067 126.88 55.1049 127.006C56.225 129.536 56.9318 132.257 56.9828 135.028C57.0367 138.018 56.3417 140.99 55.2007 143.744C55.0989 143.995 54.9911 144.246 54.8773 144.494ZM42.9335 124.028L42.9185 124.079C42.5681 125.33 42.3135 126.608 42.1547 127.899C42.029 128.92 41.9661 129.951 41.9751 130.978C41.993 132.929 42.2686 134.885 42.8945 136.737C43.5175 138.589 44.4789 140.315 45.6469 141.877C46.2638 142.704 46.9377 143.487 47.6565 144.225C47.6925 144.264 47.7613 144.329 47.7613 144.329C47.6894 144.189 47.6176 144.048 47.5458 143.908C46.1801 141.175 45.2635 138.179 45.1467 135.115C45.0419 132.433 45.551 129.757 46.4495 127.236L46.4525 127.233C45.4282 126.11 44.2991 125.079 43.0982 124.153L42.9335 124.028ZM53.2899 143.589C53.7721 142.498 54.1764 141.372 54.4849 140.222C54.9551 138.49 55.2097 136.692 55.1588 134.897C55.1019 132.938 54.6826 131.002 54.0147 129.162C53.6613 128.189 53.239 127.242 52.7598 126.322C52.1399 125.13 51.424 123.986 50.6244 122.905L50.5944 122.86C50.5824 122.875 50.5736 122.89 50.5646 122.905C49.8518 124.046 49.2289 125.24 48.7018 126.477C48.2944 127.43 47.9469 128.41 47.6684 129.407C47.1473 131.292 46.8748 133.254 46.9736 135.211C47.0664 137.104 47.4948 138.974 48.1537 140.751C48.5071 141.701 48.9232 142.627 49.3934 143.526L50.0435 142.113L50.2021 141.811C50.1692 141.109 50.1422 140.405 50.1182 139.703C50.0853 138.132 50.0674 136.564 50.1153 134.989C50.1542 133.415 50.2321 131.838 50.4208 130.255H50.4297C50.822 131.8 51.1006 133.356 51.3431 134.912C51.5887 136.465 51.7745 138.024 51.9392 139.586C52.0321 140.551 52.1189 141.516 52.1908 142.48L53.2899 143.589ZM252.875 139.661C253.198 139.413 253.509 139.15 253.812 138.875C255.345 137.492 256.651 135.802 257.373 133.854C257.978 132.218 258.173 130.449 258.095 128.714C258.077 128.332 258.047 127.95 258.002 127.57L257.819 126.349L256.834 127.098C256.537 127.34 256.25 127.594 255.968 127.857C255.103 128.672 254.315 129.589 253.677 130.599C253.827 131.178 253.938 131.767 254.001 132.367C254.249 134.631 253.86 136.934 253.096 139.069C253.027 139.27 252.952 139.467 252.875 139.661ZM247.106 137.911C246.334 136.438 245.783 134.849 245.57 133.197C245.465 132.397 245.441 131.59 245.489 130.787C244.806 130.172 244.055 129.625 243.27 129.147C242.943 128.947 242.608 128.759 242.267 128.583L241.149 128.054L241.221 129.285C241.257 129.667 241.308 130.046 241.371 130.426C241.67 132.245 242.282 134.037 243.318 135.575C244.189 136.865 245.345 137.943 246.627 138.825L247.106 137.911ZM251.117 136.572C251.311 136.898 251.497 137.233 251.674 137.57C252.198 135.778 252.419 133.881 252.12 132.033C251.844 130.309 251.141 128.672 250.218 127.2C250.014 126.874 249.802 126.558 249.574 126.247L248.814 125.273L248.325 126.408C248.188 126.764 248.059 127.125 247.945 127.493C247.397 129.252 247.136 131.128 247.376 132.967C247.514 134.052 247.828 135.103 248.259 136.107L249.062 135.1C249.002 134.341 248.957 133.58 248.948 132.812C248.924 131.764 248.942 130.706 249.071 129.631H249.08C249.526 130.614 249.865 131.617 250.164 132.624C250.47 133.631 250.712 134.649 250.937 135.667C251 135.969 251.06 136.268 251.117 136.572ZM253.003 126.841C253.297 126.561 253.581 126.265 253.854 125.963C255.235 124.428 256.358 122.612 256.873 120.602C257.307 118.911 257.316 117.131 257.055 115.414C257.001 115.035 256.93 114.658 256.846 114.285L256.537 113.09L255.636 113.935C255.366 114.207 255.106 114.491 254.854 114.781C254.075 115.683 253.39 116.677 252.86 117.747C253.069 118.305 253.24 118.882 253.366 119.467C253.848 121.695 253.698 124.028 253.162 126.229C253.114 126.435 253.06 126.638 253.003 126.841ZM246.819 125.279C246.025 124.007 245.411 122.627 245.064 121.169C244.881 120.396 244.776 119.607 244.737 118.819L244.734 118.777C243.992 118.236 243.189 117.77 242.359 117.376C242.012 117.212 241.658 117.06 241.302 116.919L240.134 116.507L240.335 117.726C240.41 118.099 240.5 118.472 240.601 118.843C241.09 120.62 241.88 122.34 243.072 123.762C243.992 124.858 245.13 125.751 246.367 126.465L246.819 125.279ZM247.466 112.962C247.331 113.347 247.208 113.735 247.1 114.13C246.999 114.497 246.912 114.87 246.837 115.247C246.474 117.054 246.408 118.947 246.837 120.751C247.049 121.641 247.379 122.499 247.792 123.314L248.424 122.275L248.712 122.549C248.583 121.85 248.469 121.146 248.385 120.435C248.256 119.392 248.164 118.338 248.178 117.257L248.185 117.254C248.733 118.189 249.173 119.15 249.574 120.121C249.984 121.092 250.332 122.077 250.661 123.069C250.934 123.935 251.2 124.807 251.422 125.688C251.437 125.62 251.452 125.551 251.47 125.479C251.916 123.466 252 121.334 251.461 119.33C251.006 117.645 250.137 116.092 249.065 114.721C248.828 114.419 248.583 114.124 248.328 113.84L247.469 112.95L247.466 112.962ZM61.9213 104.485C61.9213 104.485 60.346 105.593 59.5134 106.053C59.0821 106.292 58.6448 106.522 58.1985 106.737C58.6777 109.413 58.7257 112.176 58.1417 114.837C57.5008 117.759 56.138 120.488 54.392 122.908C54.2333 123.129 54.0686 123.347 53.9039 123.562C54.2244 123.326 54.5389 123.084 54.8473 122.83C57.0007 121.077 58.8815 118.941 60.1184 116.441C60.933 114.79 61.463 113.007 61.7625 111.191C62.1249 108.977 62.1609 106.713 61.9213 104.485ZM52.5023 122.4L52.5233 122.373C54.446 119.852 55.9375 116.94 56.4916 113.801C56.818 111.937 56.8179 110.026 56.5753 108.153C56.2908 105.943 55.6799 103.774 54.8234 101.719L54.7424 101.528C54.7304 101.54 54.7184 101.552 54.7035 101.564C53.778 102.481 52.9216 103.464 52.1429 104.506C51.5259 105.333 50.9598 106.197 50.4537 107.093C49.5013 108.795 48.7706 110.632 48.3903 112.55C48.0129 114.464 47.9919 116.438 48.2285 118.374C48.3513 119.395 48.549 120.408 48.8036 121.405C48.8575 121.612 48.9143 121.818 48.9712 122.021L49.8067 120.781C49.9834 119.787 50.1812 118.795 50.3818 117.806C50.7113 116.271 51.0588 114.739 51.4691 113.219C51.8704 111.698 52.3137 110.181 52.8647 108.685H52.8737C52.8947 110.28 52.8077 111.857 52.6819 113.425C52.5621 114.996 52.3795 116.555 52.1818 118.111C52.0321 119.18 51.8763 120.25 51.6996 121.313L52.5023 122.4ZM47.0186 100.901L46.9917 100.946C46.3628 102.087 45.8176 103.269 45.3654 104.488C45.006 105.453 44.7064 106.441 44.4788 107.445C44.0415 109.345 43.8589 111.313 44.0386 113.257C44.2153 115.202 44.7545 117.104 45.5271 118.894C45.9344 119.84 46.4107 120.754 46.9378 121.641C46.9587 121.674 46.9797 121.71 47.0007 121.746L47.0215 121.779C46.9826 121.62 46.9436 121.462 46.9047 121.304C46.1799 118.21 45.9974 114.954 46.6802 111.836C47.2283 109.333 48.3034 106.973 49.6991 104.829C48.9414 103.455 48.0488 102.152 47.0515 100.943L47.0186 100.901ZM245.229 114.097C244.33 112.956 243.587 111.692 243.087 110.324C242.815 109.578 242.617 108.81 242.485 108.03L242.479 107.992C241.676 107.538 240.826 107.17 239.955 106.875C239.592 106.752 239.224 106.642 238.852 106.546L237.645 106.271L237.987 107.46C238.107 107.821 238.238 108.183 238.382 108.538C239.074 110.247 240.065 111.863 241.416 113.135C242.443 114.103 243.659 114.849 244.953 115.414L245.229 114.097ZM251.641 115.032C251.898 114.718 252.144 114.392 252.38 114.061C253.569 112.373 254.471 110.441 254.746 108.383C254.977 106.654 254.779 104.885 254.321 103.21C254.219 102.839 254.105 102.475 253.98 102.111L253.53 100.961L252.737 101.908C252.5 102.209 252.273 102.52 252.06 102.836C251.392 103.825 250.826 104.891 250.428 106.014C250.7 106.546 250.937 107.099 251.132 107.666C251.871 109.823 251.997 112.155 251.727 114.407C251.701 114.616 251.674 114.822 251.641 115.032ZM250.02 113.012C250.104 111.226 249.892 109.416 249.224 107.753C248.574 106.134 247.529 104.691 246.304 103.455C246.034 103.183 245.753 102.92 245.465 102.666L244.51 101.884L244.282 103.096C244.225 103.476 244.18 103.855 244.15 104.237C244.004 106.077 244.162 107.962 244.797 109.703C245.085 110.483 245.462 111.223 245.908 111.919L246.256 111.095L246.771 110.011L246.603 110.363C246.495 109.981 246.393 109.596 246.301 109.21C246.046 108.189 245.834 107.152 245.72 106.077L245.729 106.074C246.382 106.937 246.93 107.842 247.445 108.759C247.963 109.676 248.424 110.614 248.87 111.558C248.927 111.689 248.987 111.821 249.047 111.952L250.02 113.012ZM242.47 102.905C241.572 101.967 240.793 100.922 240.194 99.766C239.826 99.0611 239.532 98.3234 239.302 97.5677L239.29 97.5289C238.436 97.1824 237.546 96.9255 236.645 96.7433C236.268 96.6687 235.887 96.6059 235.507 96.5551L234.276 96.4386L234.767 97.5706C234.932 97.9171 235.109 98.2576 235.297 98.5921C236.202 100.199 237.391 101.678 238.894 102.768C239.928 103.517 241.092 104.07 242.308 104.458L242.41 103.347C242.428 103.201 242.449 103.051 242.47 102.905ZM62.2776 101.961C63.251 101.134 64.1405 100.214 64.9132 99.1985C66.1021 97.6394 66.9887 95.8682 67.6266 94.0164C68.3813 91.8151 68.7946 89.4973 68.9114 87.1766L68.9204 86.9675C68.9024 86.9734 68.8876 86.9795 68.8696 86.9854C67.6387 87.4155 66.4406 87.9352 65.2875 88.5446C65.1468 88.6192 65.006 88.6939 64.8653 88.7715C64.9252 91.5373 64.5359 94.321 63.5146 96.8987C62.5023 99.4643 60.9091 101.773 59.0103 103.768L60.355 102.947C60.936 102.615 62.2776 101.961 62.2776 101.961ZM249.275 103.35C249.493 103.004 249.694 102.651 249.886 102.293C250.853 100.468 251.5 98.4339 251.509 96.3581C251.518 94.6138 251.093 92.8844 250.425 91.2804C250.275 90.928 250.116 90.5785 249.946 90.238L249.353 89.1538L248.685 90.1932C248.49 90.5217 248.307 90.8593 248.134 91.1998C247.597 92.2631 247.172 93.3921 246.921 94.5599C247.262 95.0528 247.568 95.5695 247.831 96.1071C248.84 98.1531 249.266 100.45 249.281 102.717C249.284 102.926 249.281 103.138 249.275 103.35ZM57.2403 102.983C57.9441 102.278 58.606 101.534 59.214 100.746C60.3131 99.3239 61.2385 97.7588 61.8824 96.0802C62.5832 94.2493 62.9396 92.302 63.0294 90.3456C63.1343 88.0219 62.8798 85.6832 62.3407 83.4192L62.2897 83.219C62.2747 83.231 62.2628 83.24 62.2478 83.2519C61.1876 84.0076 60.1813 84.8409 59.2469 85.7489C58.5071 86.4657 57.8092 87.2273 57.1683 88.0337C55.9194 89.6048 54.8803 91.3521 54.2004 93.2457C53.5595 95.0318 53.239 96.9225 53.1642 98.8132C53.1402 99.3896 53.1403 99.9631 53.1612 100.537C53.5236 100.169 53.9009 99.8138 54.2872 99.4703L55.3175 98.6101L55.3504 98.6728L55.3804 98.5952C55.9524 97.1316 56.5395 95.677 57.1864 94.2404C57.8273 92.8007 58.5072 91.376 59.2918 89.9842L59.2977 89.9871C59.0671 91.5641 58.7287 93.1083 58.3513 94.6376C57.983 96.1668 57.5548 97.6782 57.1085 99.1835C56.9168 99.8108 56.7191 100.435 56.5185 101.056C56.5604 101.152 56.5992 101.247 56.6382 101.346C56.8568 101.884 57.0576 102.43 57.2403 102.983ZM247.442 102.021C247.343 100.083 246.903 98.1382 245.95 96.4357C245.097 94.9124 243.878 93.6131 242.503 92.5439C242.201 92.3079 241.889 92.0839 241.572 91.8688L240.524 91.2147L240.455 92.4453C240.446 92.8276 240.452 93.2129 240.47 93.5952C240.556 95.4351 240.955 97.287 241.811 98.9327C242.129 99.548 242.509 100.13 242.937 100.674L243.47 99.0432L243.578 99.1119C243.461 98.8252 243.345 98.5414 243.237 98.2517C242.854 97.272 242.509 96.2744 242.26 95.22L242.267 95.217C243.027 95.9876 243.686 96.815 244.315 97.6602C244.947 98.5025 245.525 99.3747 246.085 100.256C246.319 100.635 246.549 101.011 246.774 101.397L247.442 102.021ZM56.785 85.6771C56.2728 84.2465 55.626 82.8666 54.8713 81.5494L54.7664 81.3702C54.7544 81.3851 54.7454 81.4001 54.7335 81.412C53.9039 82.4724 53.1521 83.5924 52.4962 84.7662C52.014 85.6264 51.5799 86.5135 51.2115 87.4274C50.4778 89.2344 49.9805 91.149 49.8457 93.0964C49.7109 95.0438 49.9385 97.0061 50.4147 98.8968C50.6663 99.8944 50.9869 100.877 51.3673 101.833C51.3882 101.884 51.4061 101.931 51.427 101.982C51.43 102.006 51.4031 101.68 51.3881 101.498C51.1665 98.3263 51.5079 95.0856 52.6819 92.1137C53.6223 89.7303 55.0629 87.5738 56.785 85.6771ZM238.628 92.6335C237.313 91.8091 236.112 90.7966 235.139 89.587C234.638 88.9657 234.204 88.3025 233.827 87.6066C233.827 87.6066 233.147 87.4603 232.815 87.4215C232.35 87.3677 231.883 87.3408 231.413 87.3259C231.239 87.3229 231.063 87.3229 230.886 87.3229C230.559 87.3288 230.236 87.3408 229.91 87.3617L228.679 87.4901C229.044 88.0636 229.448 88.6132 229.882 89.1389C231.203 90.7278 232.836 92.1048 234.752 92.9112C235.992 93.4339 237.319 93.7147 238.658 93.8162L238.628 92.6335ZM241.566 78.5268C241.485 78.7508 240.706 82.6963 240.7 83.1533C241.131 83.5714 241.533 84.0195 241.901 84.4944C243.297 86.3014 244.165 88.4668 244.632 90.686C244.677 90.8921 244.716 91.0982 244.752 91.3073C244.896 90.925 245.025 90.5397 245.142 90.1514C245.726 88.1712 245.956 86.0505 245.555 84.0135C245.217 82.302 244.459 80.6922 243.485 79.2525C243.27 78.9329 243.045 78.6253 242.809 78.3207L242.012 77.3768L241.566 78.5268ZM242.71 90.4441C242.234 88.5356 241.41 86.6897 240.119 85.1873C238.984 83.8612 237.529 82.8278 235.971 82.0512C235.627 81.878 235.279 81.7196 234.923 81.5733L233.767 81.1372L233.941 82.3588C234.01 82.7352 234.09 83.1085 234.183 83.4819C234.636 85.268 235.393 87.0063 236.558 88.4489C237.196 89.2404 237.945 89.9334 238.765 90.5337L238.99 89.2225C238.586 88.661 238.193 88.0906 237.822 87.5022C237.253 86.6151 236.717 85.7041 236.262 84.7214L236.271 84.7154C237.166 85.3247 237.978 86.0027 238.759 86.7106C239.547 87.4095 240.287 88.1503 241.012 88.903C241.341 89.2584 241.668 89.6138 241.991 89.9752C242.234 90.1245 242.473 90.2828 242.71 90.4441ZM64.1915 83.3415C64.3592 84.0763 64.6497 85.5368 64.6497 85.5368C66.9648 83.9956 69.0402 82.0512 70.5107 79.6796C71.4811 78.1145 72.179 76.3882 72.6522 74.611C73.2362 72.4068 73.4878 70.1188 73.4548 67.8459L73.4517 67.6369C73.4337 67.6458 73.4189 67.6518 73.4009 67.6577C72.1999 68.1685 71.0378 68.7628 69.9267 69.4438C69.0492 69.9814 68.2016 70.5728 67.399 71.221C65.8806 72.4486 64.5178 73.8823 63.4546 75.525C62.3884 77.1648 61.6338 78.9897 61.1337 80.8743C61.0348 81.2507 60.9449 81.627 60.8641 82.0063L62.1729 81.1164L63.3259 80.4294L63.4936 80.9222C64.3232 79.6946 65.1678 78.4759 66.0633 77.2842C67.0007 76.0178 67.977 74.7753 69.0432 73.5895L69.0522 73.5925C68.4802 75.0829 67.8123 76.5137 67.1115 77.9234C66.4166 79.3392 65.6679 80.7191 64.9042 82.093C64.6676 82.5052 64.431 82.9203 64.1884 83.3325L64.1915 83.3415ZM70.6964 84.581C70.7144 84.9633 70.7204 85.1246 70.7204 85.1246C71.4871 84.6348 72.2149 84.0852 72.8947 83.4759C74.3413 82.1766 75.5453 80.6235 76.5276 78.9509C77.6567 77.0274 78.5072 74.9396 79.0882 72.7861L79.1001 72.7354C79.0851 72.7383 79.0673 72.7413 79.0493 72.7413C77.7106 72.8996 76.3837 73.1595 75.0839 73.5209C74.9731 73.5508 74.8624 73.5836 74.7516 73.6164C74.2065 76.3255 73.2151 78.9598 71.6578 81.2537C70.5916 82.8218 69.2888 84.2137 67.8333 85.4263C68.3844 85.2262 68.9444 85.041 69.5105 84.8857L70.6964 84.581ZM232.219 83.0339C231.107 82.3469 230.086 81.5195 229.215 80.5458C228.679 79.9425 228.202 79.2914 227.786 78.6014C227.232 78.5268 226.675 78.4849 226.115 78.473C225.992 78.473 225.866 78.47 225.744 78.47C224.71 78.4789 223.68 78.5865 222.665 78.7776L222.656 78.7806C223.051 79.3332 223.482 79.8618 223.944 80.3636C225.342 81.8839 227.043 83.1772 228.999 83.885C230.155 84.3032 231.371 84.5183 232.596 84.5781L232.593 84.5631C232.461 84.1121 232.219 83.0339 232.219 83.0339ZM67.5397 68.8405C67.5068 68.5717 67.468 68.3058 67.426 68.04C67.2224 66.7557 66.9198 65.4893 66.5274 64.2498L66.5095 64.199C66.4975 64.211 66.4826 64.2199 66.4706 64.2318C64.7036 65.6775 63.1132 67.3501 61.8014 69.2138C60.6514 70.8536 59.72 72.6517 59.148 74.5722C58.5909 76.4449 58.3812 78.4102 58.4321 80.3576C58.4621 81.3881 58.5611 82.4156 58.7228 83.4311C58.7318 83.4849 58.7407 83.5386 58.7497 83.5924L58.8186 83.1055C59.2738 80.0859 60.2531 77.114 61.9243 74.5364C63.3888 72.2843 65.3475 70.3877 67.5397 68.8405ZM239.556 78.8314C239.736 77.3708 239.694 75.8834 239.334 74.4527C238.909 72.7592 238.071 71.1912 237.022 69.7993C236.792 69.4947 236.549 69.1959 236.301 68.9062L235.456 68.0012L235.07 69.172C234.962 69.5394 234.866 69.9128 234.782 70.2861C234.528 71.448 234.399 72.6487 234.444 73.8405L234.471 73.8643C234.911 74.2526 235.324 74.6678 235.708 75.1158C237.193 76.8482 238.176 78.9688 238.754 81.1611C238.798 81.3284 238.84 81.4956 238.879 81.6599L238.93 81.6987C238.954 81.624 239.008 81.409 239.008 81.409C239.122 80.5369 239.311 79.6737 239.556 78.8314ZM227.415 72.1857C227.481 72.5889 227.558 72.9892 227.651 73.3864C227.738 73.7598 227.837 74.1302 227.951 74.4976C228.493 76.2598 229.34 77.9533 230.574 79.3392C230.979 79.7902 231.422 80.2053 231.892 80.5847L231.868 78.7806L232.162 78.8463C232.036 78.6761 231.91 78.5028 231.787 78.3266C231.176 77.4724 230.592 76.5883 230.089 75.6296L230.095 75.6235C231.021 76.188 231.868 76.8242 232.686 77.4873C233.506 78.1474 234.282 78.8493 235.046 79.5662L235.216 79.7304C235.462 79.826 235.705 79.9276 235.947 80.0321C236.163 80.1307 236.379 80.2292 236.594 80.3337C236.016 78.7029 235.163 77.1588 233.965 75.8984C232.761 74.632 231.257 73.6762 229.661 72.9773C229.311 72.822 228.954 72.6816 228.592 72.5531L227.412 72.1768L227.415 72.1857ZM219.307 70.2473C218.912 70.2533 218.517 70.2712 218.121 70.304L216.582 70.5042C216.968 71.0627 217.391 71.6003 217.843 72.1081C219.215 73.6522 220.895 74.9724 222.841 75.7161C224.081 76.1881 225.402 76.424 226.729 76.4867L226.202 75.0023C225.052 74.2795 224 73.4073 223.111 72.3799C222.59 71.7765 222.135 71.1284 221.733 70.4444L221.715 70.4116C221.452 70.3697 220.08 70.1517 219.307 70.2473ZM163.03 73.5179C158.804 76.4808 152.964 75.4713 149.993 71.2539C147.022 75.4713 141.182 76.4808 136.956 73.5179C133.41 71.0358 132.041 66.4481 133.65 62.4308C134.554 67.2157 139.178 70.3668 143.976 69.4588C146.504 68.9869 148.705 67.4337 149.993 65.2115C151.281 67.4337 153.482 68.9869 156.007 69.4588C160.808 70.3668 165.432 67.2157 166.336 62.4308C167.945 66.4481 166.576 71.0358 163.03 73.5179ZM233.563 67.8937C233.518 67.4099 233.444 66.9319 233.333 66.457C232.937 64.7575 232.123 63.1745 231.102 61.7677C230.874 61.4571 230.64 61.1555 230.392 60.8627L229.565 59.9428L229.158 61.1077C229.044 61.475 228.942 61.8424 228.852 62.2158C228.58 63.3747 228.427 64.5723 228.451 65.7641C228.894 66.1643 229.313 66.5974 229.697 67.0603C230.976 68.6075 231.859 70.4474 232.425 72.3649C232.497 72.4097 232.569 72.4546 232.641 72.4994C232.704 71.3763 232.895 70.2562 233.18 69.172C233.288 68.7568 233.563 67.8937 233.563 67.8937ZM221.455 63.9899C221.512 64.3961 221.584 64.7963 221.67 65.1966C221.748 65.5699 221.844 65.9403 221.949 66.3077C222.464 68.0819 223.279 69.7903 224.492 71.1941C224.83 71.5884 225.199 71.9528 225.588 72.2933C225.534 71.9319 225.492 71.5645 225.465 71.2001L225.396 69.9187L225.543 69.9456C225.01 69.1601 224.507 68.3507 224.069 67.4785L224.075 67.4725C224.992 68.052 225.827 68.7031 226.633 69.3811C227.028 69.7126 227.415 70.0502 227.795 70.3996L229.532 70.9641C229.712 71.0328 229.891 71.1016 230.068 71.1762C229.544 69.9486 228.846 68.7987 227.939 67.8131C226.759 66.5257 225.27 65.543 223.686 64.8202C223.339 64.6589 222.982 64.5126 222.623 64.3752L221.452 63.981L221.455 63.9899ZM80.1334 70.8298L80.2532 70.8268C81.1576 70.4743 82.0322 70.0531 82.8648 69.5573C84.5988 68.5239 86.1233 67.1649 87.4261 65.6296C88.0969 64.8411 88.7109 64.0048 89.274 63.1327C90.0017 62.0036 90.6396 60.815 91.1847 59.5874L91.2087 59.5396L89.9209 59.5186C89.4447 59.5276 88.9684 59.5426 88.4952 59.5754C87.9202 59.6113 87.3452 59.668 86.7731 59.7427C85.8207 62.3412 84.4371 64.7904 82.5473 66.8214C80.7862 68.7121 78.6359 70.2055 76.3238 71.3494L78.1359 71.0298C78.7977 70.9343 79.4656 70.8626 80.1334 70.8298ZM75.2307 69.862C75.8806 69.5514 76.5185 69.2109 77.1354 68.8405C78.6299 67.9445 80.0226 66.8633 81.2116 65.5879C82.5862 64.1124 83.6674 62.3801 84.488 60.5432C84.9103 59.5993 85.2637 58.6226 85.5572 57.631C85.9405 56.3407 86.2191 55.0235 86.3988 53.6914L86.4048 53.6376C86.3868 53.6436 86.3688 53.6466 86.3538 53.6526C85.0899 53.9722 83.8471 54.3813 82.6462 54.8861C81.6938 55.2863 80.7684 55.7403 79.8759 56.26C78.1868 57.2397 76.6203 58.4494 75.3175 59.91C74.0477 61.3317 73.0414 62.9714 72.2657 64.7067C72.0052 65.2951 71.7686 65.8895 71.5559 66.4958C71.7177 66.4182 71.8795 66.3435 72.0442 66.2689C72.6522 65.9941 73.2751 65.7372 73.9071 65.5192L74.4461 65.343C75.4794 64.2259 76.5305 63.1178 77.6237 62.0455C78.7468 60.9404 79.8998 59.8591 81.1397 58.8496L81.1458 58.8556C80.3521 60.2385 79.4716 61.5527 78.5641 62.84C77.6597 64.1303 76.7102 65.3817 75.7429 66.6213C75.5812 66.8244 75.4224 67.0245 75.2607 67.2276C75.2726 67.5412 75.2786 67.8548 75.2786 68.1684C75.2816 68.733 75.2636 69.2975 75.2307 69.862ZM220.496 67.7413C218.861 66.8512 217.361 65.6954 216.184 64.2527C215.672 63.6255 215.225 62.9505 214.842 62.2427C214.513 62.1829 214.18 62.1351 213.845 62.0993C213.381 62.0485 212.913 62.0246 212.443 62.0156L211.095 62.0485L209.709 62.1978C210.08 62.7683 210.487 63.3149 210.925 63.8346C212.254 65.4176 213.896 66.7826 215.818 67.5801C216.956 68.049 218.163 68.3178 219.388 68.4313L220.775 68.4761C220.676 68.2341 220.583 67.9892 220.496 67.7413ZM80.3789 53.9244C80.4239 52.4071 80.3251 50.8868 80.1035 49.3874L80.0735 49.1843C80.0585 49.1933 80.0435 49.2022 80.0285 49.2112C78.9054 49.8713 77.8304 50.615 76.8181 51.4363C76.0184 52.0845 75.2577 52.7834 74.5479 53.5301C73.1673 54.9876 71.9782 56.6394 71.1366 58.4643C70.34 60.1877 69.8548 62.0455 69.6152 63.9242C69.4774 64.9995 69.4175 66.0867 69.4295 67.1709L69.5733 66.6989C70.5257 63.6643 72.0292 60.7701 74.2065 58.4285C75.9555 56.5528 78.0818 55.0653 80.3789 53.9244ZM222.868 62.5323C222.416 61.5557 221.844 60.6357 221.137 59.8173C219.99 58.5002 218.532 57.4786 216.968 56.708C216.624 56.5408 216.274 56.3825 215.917 56.2361L214.758 55.812L214.941 57.0306C215.01 57.4069 215.094 57.7803 215.189 58.1507C215.654 59.9368 216.423 61.6691 217.594 63.1058C218.235 63.8883 218.984 64.5724 219.805 65.1638C219.676 64.5067 219.583 63.8376 219.535 63.1686V63.1656C219.302 62.831 219.074 62.4935 218.852 62.1501C218.277 61.266 217.735 60.3579 217.277 59.3783L217.283 59.3723C218.181 59.9756 218.999 60.6507 219.787 61.3496C219.975 61.5168 220.158 61.6841 220.341 61.8514C220.341 61.8514 220.263 61.8364 220.658 61.9111C221.104 62.0007 221.545 62.1142 221.982 62.2456C222.278 62.3322 222.575 62.4308 222.868 62.5323ZM234.833 65.0651L234.812 65.0473L234.833 65.0682V65.0651ZM226.342 64.1811C226.798 62.3651 226.939 60.4536 226.564 58.6107C226.217 56.9022 225.447 55.2983 224.462 53.8617C224.246 53.5481 224.019 53.2374 223.779 52.9387L222.979 51.9978L222.539 53.1508C222.413 53.5122 222.302 53.8795 222.204 54.2499C221.898 55.3998 221.712 56.5916 221.706 57.7833C221.706 57.7833 222.548 58.6524 222.913 59.1154C223.947 60.4356 224.698 61.9529 225.214 63.5448C225.597 63.742 225.974 63.9541 226.342 64.1811ZM213.701 59.5545C212.191 58.8227 210.793 57.861 209.631 56.6483C209.083 56.0719 208.592 55.4476 208.157 54.7846L208.136 54.7517L206.938 54.683C206.843 54.68 206.747 54.68 206.651 54.68C205.432 54.689 204.216 54.8353 203.024 55.1041H203.015C203.428 55.6448 203.881 56.1585 204.357 56.6453C205.806 58.1178 207.549 59.3514 209.529 59.9935C209.868 60.1011 210.209 60.1937 210.553 60.2714C210.997 60.2325 211.443 60.2086 211.886 60.1996C212.081 60.1966 212.278 60.1966 212.473 60.1996C212.967 60.2086 213.461 60.2355 213.956 60.2863L213.701 59.5545ZM216.139 54.3724C215.615 53.4495 214.98 52.5892 214.222 51.8425C212.976 50.6179 211.44 49.713 209.82 49.0678C209.463 48.9274 209.101 48.796 208.735 48.6795L207.546 48.345L207.825 49.5457C207.924 49.9161 208.035 50.2834 208.16 50.6448C208.765 52.3891 209.667 54.0528 210.949 55.3939C211.596 56.0689 212.323 56.6513 213.111 57.1501L213.102 57.1023C213 56.5199 212.925 55.9315 212.883 55.3401V55.2983C212.626 54.9847 212.371 54.6681 212.126 54.3425C211.485 53.5092 210.874 52.646 210.338 51.7051L210.344 51.6992C211.29 52.2309 212.156 52.8372 212.994 53.4734L213.039 53.5092L214.018 53.7183C214.465 53.8198 214.902 53.9483 215.333 54.0886C215.606 54.1782 215.872 54.2708 216.139 54.3724ZM219.682 56.1734C220.062 54.2111 220.092 52.1502 219.538 50.2147C219.056 48.5391 218.16 46.998 217.067 45.6449C216.828 45.3462 216.576 45.0565 216.316 44.7757L215.444 43.9006L215.094 45.0864C214.998 45.4537 214.917 45.8301 214.848 46.2064C214.632 47.3772 214.543 48.5809 214.629 49.7697C215.091 50.149 215.531 50.5583 215.935 51.0033C217.154 52.3294 218.065 53.9064 218.718 55.579C219.044 55.7672 219.367 55.9644 219.682 56.1734ZM88.3366 52.5623C88.3006 53.1925 88.2257 53.8199 88.1298 54.4411C88.0939 54.686 88.052 54.9309 88.0101 55.1758C88.7109 54.6232 89.3547 53.9961 89.9088 53.2912C90.99 51.9142 91.7207 50.2864 92.1789 48.6049C92.2808 48.2345 92.3677 47.8581 92.4425 47.4818L92.6432 46.2572C92.6373 46.2602 92.6342 46.2602 92.6283 46.2602C92.2389 46.3856 91.8495 46.523 91.4691 46.6724C91.1127 46.8128 90.7594 46.968 90.412 47.1323C88.7379 47.9298 87.1745 49.017 85.9825 50.4447C85.5243 50.9913 85.126 51.5797 84.7816 52.198L84.8384 52.183C85.5692 51.968 86.3119 51.7798 87.0636 51.6364L87.4051 51.5767C88.1448 50.8718 88.9115 50.1879 89.762 49.5726L89.768 49.5755C89.3577 50.5432 88.8696 51.4483 88.3455 52.3264L88.3366 52.5623Z" fill="#4E4E4E"/>
</svg>
