<svg width="300" height="300" viewBox="0 0 300 300" fill="none" xmlns="http://www.w3.org/2000/svg">
<path fill-rule="evenodd" clip-rule="evenodd" d="M150.233 18.3583C165.502 18.3583 177.895 30.8806 177.895 46.3277C177.895 61.7765 165.501 74.2988 150.233 74.2988C134.94 74.2988 122.545 61.7765 122.545 46.3277C122.545 30.8806 134.94 18.3583 150.233 18.3583ZM214.645 0C229.942 0 242.328 12.524 242.328 27.9711C242.329 43.4198 229.942 55.9438 214.644 55.9438C199.372 55.9438 186.978 43.4198 186.978 27.9711C186.978 12.524 199.374 0 214.645 0ZM91.2019 46.9763C106.488 46.9763 118.879 59.5037 118.879 74.9576C118.879 90.4013 106.488 102.927 91.2019 102.927C75.9172 102.927 63.5246 90.4013 63.5246 74.9576C63.5246 59.5037 75.9172 46.9763 91.2019 46.9763ZM150.06 177.754C151.893 177.666 170.346 176.94 181.69 182.657C185.844 184.749 186.271 187.445 186.264 190.298C186.258 203.568 150.415 222.514 146.892 224.31C101.503 247.47 37.4961 251.408 37.4961 251.408L38.0976 299.996C65.4833 296.201 114.891 290.616 174.515 258.312C204.005 242.333 235.922 216.031 229.969 178.382C224.216 142.062 186.177 131.828 150.355 133.396L149.933 177.597C148.118 177.686 129.653 178.415 118.308 172.699C114.152 170.607 113.733 167.913 113.733 165.056C113.737 151.785 149.576 132.839 153.103 131.047C198.496 107.882 262.493 103.945 262.493 103.945L261.893 55.3545C234.499 59.1582 185.098 64.7386 125.479 97.0401C95.984 113.017 64.0775 139.322 70.0359 176.97C75.7865 213.299 113.826 223.525 149.638 221.953L150.06 177.754Z" fill="#D8262C"/>
</svg>
