<svg width="300" height="300" viewBox="0 0 300 300" fill="none" xmlns="http://www.w3.org/2000/svg">
<path d="M153.431 243.814C153.365 243.769 153.304 243.743 153.25 243.739L153.24 243.738C153.189 243.739 153.135 243.778 153.081 243.856L151.177 247.077C151.135 247.151 151.114 247.203 151.114 247.236C151.114 247.268 151.135 247.316 151.177 247.38C151.511 247.609 151.817 247.855 152.097 248.117C152.377 248.378 152.663 248.637 152.955 248.894C152.97 248.907 152.986 248.918 153.002 248.928C153.023 248.941 153.045 248.953 153.068 248.963C153.105 248.979 153.148 248.983 153.218 248.97C153.277 248.957 153.348 248.922 153.431 248.867C153.515 248.812 153.611 248.72 153.72 248.592C153.895 248.408 154.056 248.213 154.201 248.006C154.348 247.8 154.492 247.578 154.634 247.339C154.809 247.045 154.933 246.761 155.004 246.485C155.074 246.21 155.077 245.944 155.01 245.687C154.968 245.466 154.893 245.267 154.784 245.088C154.675 244.909 154.551 244.741 154.409 244.585C154.267 244.43 154.11 244.289 153.939 244.166C153.768 244.042 153.599 243.925 153.431 243.814Z" fill="#1D93D1"/>
<path d="M233.893 243.081C233.822 243.032 233.755 243.005 233.693 243C233.631 242.995 233.569 243.042 233.506 243.14L231.37 246.743C231.326 246.832 231.301 246.898 231.296 246.943C231.292 246.987 231.321 247.034 231.383 247.083C231.757 247.339 232.1 247.615 232.411 247.91C232.723 248.205 233.039 248.496 233.359 248.781C233.404 248.84 233.475 248.852 233.573 248.818C233.671 248.783 233.773 248.727 233.88 248.648C233.987 248.569 234.089 248.486 234.187 248.397C234.285 248.308 234.357 248.235 234.401 248.176C234.552 248.008 234.697 247.834 234.835 247.651C234.973 247.469 235.104 247.265 235.229 247.039C235.433 246.704 235.574 246.384 235.649 246.079C235.725 245.774 235.727 245.478 235.656 245.193C235.602 244.947 235.516 244.723 235.396 244.521C235.275 244.319 235.136 244.132 234.975 243.96C234.815 243.788 234.641 243.628 234.454 243.48C234.268 243.333 234.08 243.199 233.893 243.081Z" fill="#1D93D1"/>
<path d="M155.17 238.531C155.099 238.485 155.035 238.459 154.977 238.455L154.967 238.455C154.912 238.456 154.856 238.495 154.798 238.572L153.115 241.254L153.096 241.108L153.021 240.846C153.012 240.819 153.002 240.792 152.99 240.764C152.977 240.737 152.963 240.709 152.946 240.681C152.871 240.525 152.796 240.397 152.721 240.296L152.645 240.199L152.432 239.952L152.157 239.704L151.957 239.539L151.706 239.36L151.455 239.209L151.418 239.181L151.392 239.167C151.326 239.149 151.276 239.158 151.205 239.236L151.167 239.291L149.251 242.499C149.209 242.572 149.188 242.629 149.188 242.671C149.188 242.712 149.213 242.755 149.263 242.801L149.527 242.988C149.61 243.047 149.693 243.114 149.777 243.187L149.864 243.269L150.052 243.426L150.24 243.593C150.366 243.708 150.486 243.82 150.603 243.931L150.729 244.04C150.796 244.114 150.867 244.178 150.942 244.233L151.03 244.316C151.08 244.371 151.138 244.399 151.205 244.399C151.246 244.408 151.301 244.399 151.367 244.371C151.384 244.362 151.399 244.355 151.412 244.35C151.424 244.345 151.438 244.334 151.455 244.316L151.602 244.206L151.794 244.013C151.827 243.976 151.858 243.944 151.887 243.916C151.917 243.889 151.944 243.857 151.969 243.82L152.119 243.641L152.319 243.366L152.407 243.228C152.432 243.201 152.462 243.159 152.495 243.105L152.564 243.001L152.664 242.822C152.673 242.806 152.682 242.792 152.693 242.778C152.698 242.772 152.703 242.766 152.708 242.76L152.858 242.499L152.959 242.278L152.974 242.228C153.253 242.419 153.513 242.621 153.754 242.833C154.051 243.094 154.354 243.354 154.665 243.611C154.7 243.638 154.74 243.661 154.785 243.68C154.823 243.695 154.869 243.7 154.944 243.687C155.006 243.673 155.081 243.638 155.17 243.583C155.259 243.528 155.361 243.436 155.476 243.308C155.662 243.124 155.833 242.93 155.988 242.723C156.143 242.517 156.296 242.294 156.447 242.055C156.633 241.762 156.764 241.477 156.839 241.202C156.914 240.926 156.917 240.66 156.846 240.403C156.802 240.183 156.722 239.983 156.606 239.804C156.491 239.625 156.358 239.458 156.208 239.302C156.057 239.146 155.891 239.006 155.709 238.882C155.527 238.758 155.348 238.641 155.17 238.531Z" fill="#1D93D1"/>
<path d="M175.459 213.866C175.519 213.556 175.523 213.355 175.474 213.261C175.386 213.204 175.308 213.237 175.239 213.359C174.916 214.045 174.654 214.647 174.454 215.169C174.253 215.69 174.016 216.283 173.742 216.95C173.497 217.55 173.311 218.2 173.184 218.9C173.068 219.535 172.9 221.085 172.68 223.548L172.655 223.624L172.658 223.795L172.611 224.314C172.553 224.651 172.386 225.13 172.112 225.75L170.859 228.153L170.82 228.2C170.302 229.223 170.042 230.11 170.042 230.861C170.032 231.49 170.167 231.962 170.446 232.276C170.725 232.59 171.09 232.828 171.54 232.987C171.726 233.062 171.971 233.137 172.274 233.212C172.577 233.287 172.871 233.372 173.155 233.466C173.438 233.56 173.681 233.672 173.881 233.804C174.082 233.935 174.177 234.095 174.168 234.282C174.168 234.695 173.979 235.202 173.602 235.803C173.225 236.404 172.69 236.986 171.995 237.549C171.3 238.112 170.502 238.586 169.601 238.971C168.398 239.497 167.15 239.76 165.858 239.76C164.302 239.76 163.105 239.431 162.269 238.774C161.432 238.117 160.969 237.23 160.881 236.113C160.773 235.052 161.038 233.602 161.674 231.762C161.958 230.936 162.318 230.07 162.753 229.164C163.188 228.258 163.622 227.364 164.052 226.482C164.14 226.266 164.197 226.116 164.221 226.031C164.245 225.947 164.243 225.891 164.199 225.863C164.111 225.825 164.008 225.895 163.891 226.074L163.744 226.313C163.196 227.233 162.66 228.195 162.136 229.199C161.613 230.204 161.145 231.232 160.735 232.283C160.323 233.335 159.985 234.4 159.721 235.479C159.457 236.559 159.31 237.633 159.281 238.704C159.281 239.295 159.364 239.917 159.531 240.57C159.697 241.222 160 241.839 160.441 242.421C161.41 243.566 162.828 244.153 164.698 244.181C166.342 244.181 167.796 243.763 169.058 242.928C169.714 242.561 170.321 242.107 170.879 241.562C171.437 241.017 171.907 240.469 172.288 239.915C173.198 238.713 173.91 237.298 174.424 235.67C174.938 234.041 175.196 232.597 175.196 231.34C175.196 230.504 174.956 229.932 174.476 229.622C174.329 229.509 173.955 229.35 173.353 229.143C172.751 228.937 172.339 228.763 172.12 228.622C171.903 228.484 171.807 228.346 171.848 228.2C171.926 227.937 172.196 227.411 172.655 226.623C172.835 226.331 172.981 226.142 173.092 226.057C173.204 226.334 173.337 226.598 173.492 226.848C174.05 227.74 174.872 228.19 175.958 228.2C176.977 228.2 177.956 227.524 178.895 226.172C179.648 225.064 180.324 224.398 180.921 224.173C181.132 224.102 181.438 224.098 181.838 224.16L181.919 224.173C182.487 224.276 182.981 224.069 183.402 223.553C183.823 223.037 184.131 222.481 184.327 221.885C184.523 221.289 184.655 220.859 184.723 220.596C184.792 220.333 184.816 220.146 184.797 220.033C184.797 219.94 184.748 219.892 184.65 219.892C184.591 219.892 184.489 220.005 184.342 220.23C183.794 221.019 183.505 221.427 183.476 221.455C183.238 221.737 182.745 221.733 181.992 221.442L181.919 221.413C181.606 221.404 181.249 221.535 180.848 221.807C180.564 222.07 180.126 222.448 179.534 222.941C178.942 223.434 178.244 223.676 177.442 223.666C175.521 223.666 174.557 222.584 174.549 220.413C174.549 219.85 174.633 218.937 174.799 217.675C174.965 216.412 175.185 215.143 175.459 213.866Z" fill="#1D93D1"/>
<path d="M215.748 208.378C215.788 207.962 215.785 207.734 215.692 207.685L215.741 207.694C215.696 207.653 215.638 207.708 215.569 207.861C215.17 208.936 214.779 210.113 214.397 211.391L214.389 211.419C214.01 212.681 213.777 213.458 213.752 214.53C213.727 215.611 213.714 216.501 213.714 217.202C213.704 217.689 213.679 218.132 213.639 218.533C213.6 218.934 213.545 219.307 213.475 219.652C213.336 220.108 213.122 220.484 212.833 220.778C212.445 221.173 211.968 221.371 211.4 221.371C210.753 221.371 210.32 221.153 210.101 220.717C209.875 220.323 209.755 219.352 209.744 217.803C209.753 217.37 209.817 216.581 209.937 215.436C210.066 214.199 210.414 212.402 210.982 210.049C211.042 209.826 211.047 209.659 210.997 209.547C210.927 209.466 210.833 209.531 210.713 209.744C210.604 209.968 210.337 210.581 209.914 211.586C209.492 212.591 209.175 213.387 208.966 213.975C208.847 214.28 208.598 215.586 208.22 217.894C208.046 218.95 207.931 219.914 207.873 220.789C207.861 220.842 207.851 220.896 207.841 220.95C207.826 221.029 207.813 221.109 207.802 221.189C207.797 221.531 207.806 221.857 207.828 222.168C207.832 222.654 207.857 223.103 207.906 223.517C207.866 223.994 207.7 224.379 207.406 224.674C207.131 224.949 206.94 225.123 206.816 225.207C206.637 225.42 206.04 225.488 205.024 225.412C204.073 225.34 203.156 225.392 202.274 225.566L202.098 225.602C201.68 225.755 201.242 225.957 200.784 226.211C200.326 226.464 199.856 226.784 199.373 227.17C198.89 227.555 198.398 228.011 197.895 228.539C197.392 229.067 196.882 229.68 196.365 230.38C196.026 230.857 195.215 232.029 193.931 233.896C192.647 235.763 191.579 237.183 190.728 238.157C189.877 239.131 189.108 239.905 188.421 240.478C187.735 241.051 186.953 241.624 186.077 242.198C185.201 242.771 184.614 243.159 184.316 243.362C184.086 243.504 183.997 243.595 184.046 243.636C184.116 243.737 184.325 243.717 184.674 243.575C184.883 243.504 185.363 243.296 186.115 242.951C186.866 242.606 187.804 242.076 188.929 241.36C190.054 240.645 191.032 239.864 191.863 239.017C192.694 238.17 193.57 237.115 194.491 235.852C195.411 234.589 196.288 233.554 197.118 232.747C197.95 231.941 198.781 231.344 199.612 230.959C200.391 230.598 201.168 230.348 201.943 230.209L202.098 230.183C202.257 230.213 202.457 230.234 202.695 230.244C202.934 230.254 203.198 230.228 203.487 230.167C203.636 230.147 203.877 230.076 204.211 229.954C204.544 229.833 204.958 229.505 205.45 228.973C205.943 228.441 206.398 227.885 206.816 227.306L206.926 227.193C207.195 226.912 207.552 226.519 207.996 226.013C208.328 225.635 208.593 225.38 208.794 225.25C209.211 225.83 209.697 226.119 210.25 226.119C210.957 226.119 211.644 225.688 212.311 224.826C212.898 224.065 213.46 223.005 213.998 221.645C214.277 220.874 214.48 220.21 214.61 219.652C214.71 219.236 214.819 218.693 214.938 218.023C215.118 217.009 215.207 216.202 215.207 215.604L215.419 211.909C215.419 211.371 215.529 210.195 215.748 208.378Z" fill="#1D93D1"/>
<path d="M295.924 220.036C295.987 219.745 295.929 219.585 295.751 219.556C295.715 219.556 295.66 219.615 295.584 219.732C295.535 219.809 295.48 219.895 295.419 219.989C295.386 220.039 295.352 220.091 295.317 220.146C295.215 220.304 295.108 220.459 294.997 220.611C294.885 220.764 294.776 220.865 294.67 220.914C294.607 220.943 294.52 220.958 294.409 220.958C294.298 220.958 294.169 220.963 294.022 220.973C293.875 220.983 293.71 221.003 293.528 221.032C293.345 221.062 293.147 221.111 292.934 221.18C292.729 221.259 292.531 221.371 292.339 221.52C292.148 221.667 291.961 221.839 291.779 222.036C291.596 222.233 291.425 222.445 291.264 222.671C291.104 222.897 290.957 223.124 290.824 223.35C290.521 223.872 290.227 224.317 289.943 224.687C289.658 225.056 289.417 225.279 289.222 225.358C289.017 225.417 288.734 225.457 288.373 225.476C288.013 225.496 287.612 225.526 287.172 225.565C286.731 225.605 286.264 225.666 285.77 225.75C285.276 225.833 284.793 225.963 284.321 226.141C283.947 226.289 283.556 226.486 283.146 226.732C282.737 226.978 282.316 227.285 281.885 227.654C281.453 228.023 281.013 228.464 280.562 228.976C280.113 229.488 279.657 230.083 279.194 230.762C278.891 231.225 278.166 232.362 277.017 234.173C275.87 235.985 274.915 237.363 274.154 238.308C273.393 239.253 272.705 240.003 272.091 240.559C271.476 241.116 270.778 241.672 269.994 242.228C269.211 242.784 268.686 243.161 268.419 243.358C268.214 243.496 268.134 243.584 268.179 243.623C268.241 243.722 268.428 243.702 268.739 243.564C268.927 243.496 269.356 243.294 270.028 242.959C270.7 242.624 271.539 242.11 272.545 241.416C273.551 240.722 274.425 239.964 275.168 239.142C275.911 238.32 276.695 237.296 277.518 236.071C278.342 234.845 279.125 233.841 279.868 233.059C280.611 232.276 281.353 231.698 282.092 231.324C282.821 230.959 283.551 230.714 284.281 230.585L284.755 230.512C284.947 230.482 285.149 230.455 285.363 230.43C285.576 230.406 285.786 230.383 285.99 230.364C286.195 230.344 286.377 230.334 286.538 230.334C286.787 230.246 287.043 230.091 287.306 229.869C287.568 229.647 287.826 229.397 288.08 229.116C288.333 228.836 288.574 228.547 288.801 228.253C289.028 227.957 289.226 227.686 289.395 227.44C289.84 226.771 290.232 226.197 290.57 225.72C290.908 225.242 291.224 224.822 291.518 224.457C291.821 224.084 292.164 223.82 292.546 223.668C292.929 223.515 293.334 223.414 293.761 223.365C293.842 223.365 293.948 223.311 294.082 223.203C294.215 223.094 294.36 222.947 294.516 222.76C294.671 222.572 294.83 222.356 294.989 222.11C295.15 221.864 295.297 221.603 295.431 221.327C295.697 220.757 295.862 220.326 295.924 220.036Z" fill="#1D93D1"/>
<path d="M175.271 238.55C175.176 238.483 175.086 238.423 174.981 238.371C174.946 238.353 174.914 238.341 174.882 238.342C174.85 238.343 174.819 238.356 174.787 238.387C174.762 238.413 174.747 238.439 174.73 238.467C174.392 239.032 174.053 239.597 173.715 240.161C173.411 240.667 173.108 241.172 172.805 241.678C172.776 241.727 172.735 241.797 172.743 241.858C172.758 241.964 172.87 242.019 172.944 242.074C172.987 242.105 173.03 242.138 173.072 242.171C173.236 242.298 173.394 242.432 173.552 242.566C173.585 242.594 173.619 242.622 173.653 242.651C173.795 242.771 173.93 242.898 174.066 243.025C174.15 243.104 174.234 243.183 174.319 243.26C174.455 243.382 174.455 243.378 174.592 243.497C174.638 243.538 174.679 243.572 174.743 243.578C174.933 243.599 175.107 243.461 175.233 243.332C175.574 242.983 175.868 242.604 176.126 242.188C176.146 242.156 176.167 242.124 176.188 242.091C176.272 241.957 176.361 241.817 176.428 241.678L176.467 241.613L176.491 241.554L176.494 241.538L176.598 241.612C176.948 241.869 177.267 242.154 177.589 242.441C177.649 242.495 177.71 242.548 177.77 242.602C177.817 242.643 177.864 242.688 177.912 242.733C178.031 242.846 178.155 242.964 178.289 243.044C178.548 243.198 178.841 242.917 179.003 242.737C179.059 242.676 179.058 242.678 179.115 242.617L179.315 242.394C179.379 242.318 179.441 242.24 179.5 242.161C179.644 241.97 179.778 241.772 179.906 241.57C180.172 241.151 180.431 240.687 180.468 240.182C180.492 239.85 180.408 239.489 180.26 239.191C179.986 238.639 179.508 238.239 179.007 237.901L178.873 237.811C178.859 237.802 178.843 237.79 178.825 237.777C178.734 237.712 178.597 237.614 178.493 237.652C178.439 237.673 178.4 237.722 178.365 237.766L176.705 240.562C176.705 240.807 176.675 241.06 176.592 241.292L176.551 241.419L176.494 241.538L176.7 240.515L176.693 240.438C176.663 240.359 176.66 240.265 176.641 240.183C176.584 239.932 176.441 239.678 176.29 239.473C176.14 239.271 175.969 239.095 175.779 238.929C175.694 238.854 175.621 238.794 175.523 238.722C175.475 238.688 175.427 238.655 175.379 238.623C175.343 238.599 175.306 238.575 175.271 238.55Z" fill="#1D93D1"/>
<path d="M231.973 219.312C232.017 219.027 232.008 218.856 231.886 218.789L231.946 218.797C231.926 218.784 231.905 218.781 231.886 218.789C231.846 218.804 231.809 218.861 231.774 218.959L230.51 223.327C230.448 223.601 230.362 224.075 230.25 224.746C230.139 225.418 230 226.543 229.831 228.122L229.758 228.817L229.698 229.033C229.698 229.139 229.7 229.243 229.704 229.347C229.614 230.228 229.561 230.815 229.546 231.107C229.523 231.519 229.486 231.857 229.433 232.122C229.291 232.661 229.011 233.137 228.595 233.549C228.195 233.931 227.754 234.085 227.271 234.012C226.788 233.939 226.467 233.872 226.307 233.814C225.987 233.715 225.739 233.666 225.562 233.666C225.11 233.666 224.613 233.814 224.064 234.118L224.059 234.107C223.261 234.608 222.561 235.25 221.957 236.034C221.354 236.819 220.965 237.432 220.787 237.873C220.645 238.245 220.621 238.471 220.714 238.55C220.807 238.628 220.907 238.623 221.013 238.535C221.944 237.907 222.959 237.642 224.065 237.729L224.073 237.741C224.347 237.799 224.724 237.878 225.203 237.976C225.682 238.074 226.214 237.976 226.799 237.682C227.322 237.417 227.877 236.976 228.462 236.358C228.923 235.779 229.313 235.137 229.632 234.431C230.138 233.255 230.426 232.667 230.496 232.667C230.527 232.667 230.558 232.652 230.588 232.624C231.087 233.408 232.691 233.807 233.594 233.816C234.517 233.816 235.403 233.109 236.254 231.698C236.937 230.541 237.549 229.844 238.09 229.609C238.281 229.536 238.558 229.531 238.92 229.596L238.994 229.609C239.243 229.727 239.495 229.754 239.753 229.69C240.01 229.627 240.262 229.516 240.511 229.359C240.759 229.202 240.998 229.023 241.229 228.823C241.349 228.718 241.463 228.619 241.571 228.526C241.671 228.441 241.765 228.361 241.854 228.285C242.023 228.276 242.204 228.224 242.399 228.131C242.594 228.038 242.781 227.923 242.958 227.786C243.135 227.648 243.302 227.499 243.457 227.337C243.612 227.175 243.743 227.021 243.849 226.874C244.275 226.648 244.629 226.349 244.913 225.977C245.197 225.604 245.434 225.19 245.625 224.734C245.815 224.278 245.968 223.797 246.084 223.292C246.199 222.787 246.305 222.29 246.403 221.799C246.394 221.662 246.336 221.579 246.23 221.549C246.123 221.52 246.044 221.574 245.991 221.711C245.92 221.878 245.853 222.067 245.791 222.278C245.729 222.488 245.658 222.694 245.578 222.895C245.498 223.096 245.408 223.277 245.305 223.439C245.203 223.601 245.082 223.716 244.94 223.785C244.869 223.824 244.784 223.851 244.687 223.866C244.59 223.881 244.51 223.844 244.448 223.755C244.404 223.736 244.364 223.744 244.328 223.778C244.293 223.812 244.244 223.898 244.182 224.035C244.11 224.212 244.047 224.378 243.989 224.535C243.931 224.692 243.862 224.832 243.783 224.954C243.703 225.077 243.601 225.184 243.477 225.278C243.352 225.371 243.188 225.437 242.985 225.476C242.799 225.506 242.647 225.486 242.532 225.418C242.452 225.398 242.397 225.393 242.366 225.403C242.335 225.412 242.297 225.432 242.253 225.461C242.058 225.795 241.863 226.094 241.668 226.359C241.473 226.624 241.282 226.834 241.096 226.991C240.918 227.119 240.757 227.204 240.61 227.249C240.464 227.293 240.311 227.3 240.151 227.271C240.027 227.251 239.91 227.215 239.799 227.16C239.688 227.106 239.584 227.05 239.486 226.991C239.425 226.954 239.366 226.919 239.31 226.886C239.277 226.867 239.245 226.848 239.214 226.83C239.14 226.787 239.075 226.755 238.994 226.726C238.71 226.717 238.387 226.854 238.023 227.138C237.766 227.413 237.369 227.808 236.833 228.322C236.297 228.837 235.664 229.089 234.937 229.08C233.243 229.08 231.468 228.005 231.416 225.861C231.425 225.62 231.435 225.383 231.448 225.15C231.461 224.906 231.519 224.072 231.62 222.651C231.722 221.229 231.84 220.116 231.973 219.312Z" fill="#1D93D1"/>
<path fill-rule="evenodd" clip-rule="evenodd" d="M101.754 212.897C103.608 210.392 103.721 208.891 103.17 209.177C102.885 209.626 101.851 210.587 100.392 211.943C98.6565 213.555 96.3205 215.726 93.9333 218.256C90.7445 221.636 88.4341 223.877 87.1865 225.088C86.9936 225.275 86.8261 225.438 86.6848 225.576L86.2792 225.98C86.3515 225.208 86.4667 224.078 86.6249 222.59C86.8117 220.834 87.0164 219.138 87.2391 217.504C87.2038 217.218 87.1233 217.184 86.9991 217.4C86.8117 217.883 86.6314 218.37 86.4583 218.862C86.2846 219.355 86.1223 219.842 85.9707 220.324C85.837 220.905 85.6991 221.668 85.557 222.613C85.4143 223.558 85.2878 224.451 85.1762 225.293C85.0652 226.134 84.9004 227.53 84.6819 229.479C84.6252 229.987 84.5757 230.442 84.5339 230.843L84.5154 231.014C84.4993 231.164 84.4844 231.318 84.4695 231.475C84.4014 232.165 84.3638 232.634 84.3566 232.884L84.3548 232.963C84.3548 234.528 84.5823 235.71 85.0359 236.507C85.4722 237.344 86.1444 237.762 87.0522 237.762C87.6306 237.762 88.1786 237.57 88.6943 237.186C89.1933 236.802 89.6428 236.296 90.0433 235.665C90.5859 234.75 91.0712 233.588 91.4985 232.181C91.8901 230.881 92.0859 229.627 92.0859 228.415C92.0859 227.264 91.7433 226.452 91.058 225.98C90.6306 225.674 90.0433 225.522 89.2954 225.522C89.1885 225.522 88.9748 225.536 88.6543 225.566C92.3045 221.836 95.2076 219.202 97.3979 217.215C99.4913 215.315 100.934 214.007 101.754 212.897ZM86.8117 230.129C87.2928 229.774 87.7822 229.597 88.2806 229.597C88.8149 229.548 89.3354 229.695 89.8427 230.04C90.3591 230.375 90.6175 230.832 90.6175 231.413C90.6175 231.974 90.3859 232.407 89.9227 232.713C89.4422 233.057 88.8417 233.229 88.1207 233.229C87.5327 233.229 87.0522 233.052 86.6786 232.698C86.2781 232.373 86.0775 231.915 86.0775 231.324C86.0775 230.881 86.3222 230.483 86.8117 230.129Z" fill="#1D93D1"/>
<path d="M131.123 221.39C130.244 221.035 129.564 220.858 129.082 220.858C128.42 220.858 127.894 221.006 127.502 221.301C127.109 221.597 126.781 221.99 126.516 222.482C126.328 222.817 126.16 223.184 126.013 223.582C125.867 223.981 125.85 224.191 125.963 224.21C126.049 224.24 126.153 224.156 126.276 223.959C126.521 223.516 126.772 223.174 127.027 222.933C127.282 222.692 127.636 222.571 128.09 222.571C128.345 222.571 128.614 222.615 128.898 222.704C129.021 222.743 129.15 222.79 129.288 222.844C129.424 222.898 129.564 222.945 129.705 222.984C130.055 223.132 130.343 223.258 130.57 223.361C130.797 223.464 131.01 223.59 131.208 223.738C131.029 223.974 130.726 224.299 130.301 224.712C130.112 224.909 129.415 225.554 128.21 226.646C127.005 227.739 125.833 228.517 124.695 228.98C123.556 229.442 122.817 229.673 122.469 229.686L122.462 229.673C122.396 229.673 122.301 229.676 122.179 229.681C122.056 229.686 121.938 229.683 121.825 229.673L122.037 229.127C122.056 229.039 122.044 228.967 122.002 228.913C121.959 228.859 121.902 228.827 121.832 228.817C121.761 228.807 121.682 228.824 121.598 228.869C121.512 228.913 121.437 228.994 121.371 229.112C121.012 229.624 120.372 230.104 119.45 230.552C118.529 231 117.322 231.426 115.829 231.829C115.016 232.055 114.135 232.257 113.185 232.434C112.235 232.612 110.181 232.852 109.118 232.902C108.055 232.951 107.004 232.966 105.964 232.946C102.487 232.907 99.9023 232.513 98.2106 231.765C97.5397 231.449 97.1291 230.972 96.9775 230.332C96.9112 230.066 96.8593 229.81 96.8217 229.564C96.7745 229.338 96.725 229.178 96.673 229.085C96.6211 228.991 96.5668 228.951 96.5101 228.966C96.4534 228.981 96.4009 229.038 96.3537 229.137C96.3065 229.235 96.2689 229.363 96.2403 229.52L96.1131 230.288C95.9997 230.967 95.9096 231.646 95.8434 232.326C95.7777 233.005 95.7443 233.527 95.7443 233.891C95.7443 234.826 96.0326 235.565 96.6092 236.106C97.2514 236.804 98.3288 237.277 99.8408 237.523C100.705 237.661 101.923 237.73 103.496 237.731L104.377 237.73C105.01 237.72 105.693 237.691 106.425 237.641C107.158 237.592 107.88 237.533 108.594 237.464C109.308 237.395 112.004 236.921 112.944 236.709C113.884 236.497 114.806 236.207 115.708 235.838C116.611 235.469 117.456 235.001 118.246 234.435C119.035 233.869 119.694 233.168 120.222 232.331C120.336 232.164 120.431 232.031 120.506 231.932C120.582 231.834 120.646 231.755 120.698 231.696C120.75 231.637 120.787 231.598 120.811 231.578C120.834 231.558 120.856 231.544 120.875 231.534C120.932 231.494 121 231.463 121.08 231.438C121.161 231.413 121.26 231.401 121.378 231.401C121.496 231.401 121.642 231.415 121.817 231.445C121.906 231.46 122.004 231.479 122.114 231.499C122.221 231.52 122.34 231.542 122.47 231.565L122.476 231.578L124.05 232.051C124.447 232.119 125.341 231.836 125.776 231.423C126.031 231.157 126.277 230.911 126.513 230.684C126.75 230.458 126.972 230.241 127.179 230.035L130.44 226.905C130.988 226.363 131.413 225.959 131.715 225.694C132.169 225.26 132.627 224.847 133.09 224.453L134.211 223.568C134.533 223.302 134.741 223.034 134.835 222.763C134.929 222.492 135 222.278 135.048 222.121C135.095 221.964 135.147 221.767 135.203 221.53C135.317 221.146 135.289 221.013 135.119 221.132C134.929 221.263 134.557 221.4 134.229 221.521C134.067 221.58 133.915 221.636 133.802 221.685C133.434 221.862 133.108 221.951 132.824 221.951C132.541 221.951 131.974 221.764 131.123 221.39Z" fill="#1D93D1"/>
<path d="M278.201 212.062C278.103 211.884 278.01 211.914 277.921 212.15L277.213 214.468L276.425 217.732L276.398 222.56C276.398 223.397 276.359 224.056 276.279 224.539C276.199 225.021 276.105 225.4 275.998 225.675C275.74 226.286 275.442 226.532 275.103 226.413C274.786 226.303 274.465 226.244 274.14 226.237L274.075 226.236C273.434 226.384 272.909 226.699 272.5 227.182C272.295 227.408 272.032 227.759 271.712 228.237C271.392 228.715 271.213 228.968 271.178 228.997C270.813 229.411 270.317 229.8 269.689 230.164C269.061 230.528 268.276 230.863 267.332 231.168C265.89 231.66 264.671 231.98 263.674 232.128C262.677 232.276 261.382 232.389 259.789 232.467C258.195 232.546 255.819 232.571 254.538 232.541C252.971 232.532 251.778 232.409 250.959 232.172C250.14 231.936 249.546 231.626 249.176 231.242C248.807 230.858 248.591 230.327 248.529 229.647C248.431 228.968 248.329 228.629 248.222 228.629C248.053 228.629 247.901 229.179 247.768 230.282C247.617 231.306 247.541 232.31 247.541 233.295C247.541 234.83 247.964 235.888 248.809 236.469C249.326 236.853 250.131 237.094 251.226 237.192C252.188 237.31 253.211 237.37 254.297 237.37C257.208 237.37 260.781 237.084 263.14 236.513C265.534 235.932 267.364 235.12 268.627 234.077C269.153 233.693 269.602 233.22 269.976 232.659L270.951 231.079C271.289 230.548 271.619 230.135 271.939 229.839C272.269 229.514 272.588 229.317 272.9 229.249C273.209 229.175 273.573 229.135 273.991 229.131L274.075 229.131C274.137 229.179 274.271 229.209 274.476 229.219C274.779 229.219 275.112 228.978 275.477 228.495C275.833 228.023 276.181 227.482 276.518 226.871C276.848 226.251 277.106 225.611 277.293 224.952C277.48 224.302 277.627 223.505 277.734 222.56C277.832 221.714 277.934 219.814 278.041 216.86C278.076 216.201 278.107 215.494 278.134 214.742C278.161 213.988 278.197 213.292 278.241 212.652C278.241 212.318 278.228 212.121 278.201 212.062Z" fill="#1D93D1"/>
<path d="M75.8431 227.645C75.8246 227.595 75.7917 227.568 75.7446 227.564C75.698 227.559 75.6652 227.566 75.6461 227.586C75.5995 227.615 75.4491 227.807 75.196 228.162C74.8588 228.605 74.4738 228.981 74.0428 229.291C73.6113 229.602 72.8843 229.985 71.8618 230.443C70.8399 230.9 69.5804 231.304 68.0846 231.654C66.5888 232.003 65.0906 232.237 63.59 232.355C62.0894 232.473 60.7344 232.532 59.5245 232.532C56.0541 232.502 53.4749 232.109 51.7869 231.351C51.1207 231.036 50.7131 230.558 50.5627 229.918C50.497 229.653 50.4457 229.397 50.4081 229.151C50.3615 228.925 50.312 228.765 50.2606 228.671C50.2087 228.577 50.155 228.538 50.0989 228.553C50.0422 228.568 49.9908 228.624 49.9437 228.723C49.8971 228.821 49.8595 228.949 49.8315 229.107L49.7049 229.874C49.5921 230.554 49.5032 231.233 49.4375 231.912C49.3718 232.591 49.339 233.113 49.339 233.477C49.339 234.413 49.6249 235.151 50.1973 235.692C50.8348 236.391 51.9039 236.863 53.4045 237.109C54.3237 237.257 55.6464 237.331 57.3721 237.331C58.8631 237.331 60.4037 237.233 61.9933 237.036C63.5828 236.839 65.053 236.551 66.4037 236.172C67.7539 235.793 68.9125 235.387 69.8783 234.954C70.8447 234.521 71.7352 234.004 72.5512 233.403C73.1236 232.97 73.6113 232.458 74.0142 231.868C74.4177 231.277 74.7788 230.65 75.0976 229.985C75.4163 229.321 75.6419 228.757 75.7732 228.294C75.8574 227.97 75.8807 227.753 75.8431 227.645Z" fill="#1D93D1"/>
<path d="M218.705 219.816C218.75 219.629 218.714 219.535 218.598 219.535C218.527 219.535 218.434 219.683 218.318 219.978L216.93 223.596C216.752 224.098 216.618 224.703 216.529 225.412C216.44 226.121 216.373 226.985 216.328 228.004C216.284 229.022 216.231 229.788 216.168 230.299C216.124 230.841 216.071 231.414 216.009 232.02C215.946 232.625 215.875 233.216 215.795 233.792C215.714 234.367 215.624 234.906 215.521 235.408C215.419 235.91 215.31 236.329 215.194 236.663C215.096 237.018 215.078 237.195 215.141 237.195C215.381 237.155 215.697 236.715 216.088 235.873C216.48 235.032 216.823 234.116 217.116 233.127C217.41 232.138 217.628 230.88 217.771 229.354C217.824 228.852 217.873 228.287 217.917 227.656C217.962 227.026 218.006 226.379 218.051 225.715C218.096 225.05 218.145 224.403 218.198 223.773C218.252 223.143 218.305 222.577 218.358 222.075C218.394 221.789 218.447 221.394 218.518 220.886C218.589 220.379 218.652 220.022 218.705 219.816Z" fill="#1D93D1"/>
<path d="M145.313 225.522C144.902 225.123 144.489 224.751 144.073 224.407C144.043 224.387 144.014 224.377 143.988 224.376C143.934 224.375 143.885 224.412 143.842 224.488C143.778 224.601 143.706 224.746 143.627 224.924L142.646 227.109L141.948 228.703C141.928 228.743 141.92 228.782 141.925 228.821C141.93 228.861 141.963 228.906 142.022 228.954C142.785 229.506 143.444 230.106 143.998 230.756C144.553 231.415 144.791 231.957 144.711 232.38C144.672 232.735 144.332 233.252 143.694 233.93C143.054 234.609 142.26 235.299 141.308 235.998C140.952 236.273 140.645 236.509 140.387 236.706C140.269 236.814 140.199 236.906 140.18 236.98C140.159 237.053 140.159 237.1 140.18 237.12C140.249 237.169 140.373 237.169 140.551 237.12C142.007 236.667 142.956 236.338 143.396 236.13C143.838 235.924 144.179 235.68 144.422 235.4C144.664 235.119 144.885 234.806 145.083 234.462C145.618 233.507 146.041 232.584 146.353 231.694C146.666 230.802 146.821 229.875 146.821 228.91C146.821 228.084 146.673 227.411 146.376 226.895C146.078 226.378 145.724 225.92 145.313 225.522Z" fill="#1D93D1"/>
<path d="M82.5266 225.981C82.6143 225.744 82.5892 225.602 82.4525 225.553C82.3308 225.525 82.1851 225.678 82.0162 226.012C81.8467 226.346 81.5602 226.986 81.1549 227.933C80.7502 228.879 80.3443 229.783 79.9378 230.645C79.5313 231.506 79.1105 232.172 78.6748 232.642C78.239 233.112 77.6087 233.635 76.7844 234.214C75.9595 234.792 75.248 235.272 74.6499 235.654C74.0512 236.035 73.6495 236.346 73.4441 236.585C73.3236 236.737 73.2776 236.838 73.3069 236.887C73.3355 236.936 73.4155 236.974 73.5462 237.003C73.6799 237.012 74.0202 236.991 74.5669 236.94C75.1137 236.888 75.8043 236.761 76.6382 236.557C77.472 236.353 78.0618 236.097 78.4068 235.788C78.7524 235.48 79.0962 235.009 79.4382 234.377C79.7802 233.745 80.1939 232.817 80.6792 231.593C81.1638 230.37 81.7798 228.499 82.5266 225.981Z" fill="#1D93D1"/>
<path d="M190.239 225.653C189.901 225.104 189.447 224.796 188.82 224.724L187.635 225.355C187.192 225.806 186.769 226.388 186.367 227.103C185.963 227.818 185.694 228.343 185.557 228.678C185.421 229.013 185.327 229.305 185.276 229.556C185.212 230.061 185.345 230.504 185.676 230.885C186.007 231.267 186.445 231.502 186.991 231.591C187.105 231.621 187.239 231.638 187.394 231.642L187.653 231.638L187.883 231.631L188.377 231.568C188.536 231.535 188.67 231.499 188.78 231.457C188.533 232.058 188.16 232.622 187.662 233.15C187.164 233.678 186.609 234.155 185.999 234.581C185.388 235.006 184.621 235.47 183.698 235.97C182.774 236.471 182.347 236.775 182.415 236.883C182.414 236.893 182.472 236.903 182.588 236.914L183.894 236.807L184.114 236.77C184.625 236.68 185.114 236.571 185.58 236.443C186.112 236.295 186.529 236.12 186.829 235.917C187.128 235.714 187.501 235.31 187.948 234.707C188.394 234.103 188.971 233.092 189.679 231.675C189.834 231.351 189.982 230.999 190.122 230.619C190.263 230.238 190.37 229.926 190.445 229.683C190.52 229.439 190.591 229.132 190.658 228.76C190.725 228.388 190.764 228.014 190.778 227.638C190.767 226.881 190.587 226.219 190.239 225.653Z" fill="#1D93D1"/>
<path d="M159.362 223.991C159.474 223.616 159.448 223.403 159.287 223.353L159.271 223.348C159.11 223.357 158.948 223.48 158.785 223.716C158.623 223.952 158.479 224.204 158.354 224.472C158.129 225.039 157.686 225.484 157.022 225.805C156.452 226.063 155.961 226.329 155.551 226.603C155.14 226.877 154.809 227.164 154.558 227.463C154.315 227.762 154.099 228.062 153.91 228.359C153.72 228.658 153.543 228.959 153.375 229.264C153.208 229.569 153.047 229.878 152.893 230.194C152.738 230.509 152.569 230.834 152.387 231.167C152.068 231.807 151.529 232.403 150.771 232.955L150.243 233.349C150.079 233.466 149.861 233.615 149.591 233.795L148.542 234.488C148.113 234.77 147.54 235.139 146.823 235.595C146.47 235.809 146.246 236.028 146.151 236.254C146.056 236.479 146.108 236.633 146.308 236.715C146.34 236.725 146.39 236.731 146.456 236.735L146.527 236.737C146.63 236.739 146.716 236.737 146.788 236.732L149.257 236.436C150.157 236.308 150.851 235.994 151.339 235.493C151.69 235.181 151.991 234.774 152.242 234.272C152.494 233.771 152.729 233.256 152.946 232.728C153.164 232.2 153.373 231.698 153.574 231.223C153.775 230.748 154 230.38 154.249 230.121C154.413 229.924 154.617 229.743 154.86 229.576C155.103 229.41 155.393 229.264 155.732 229.138C156.061 229.021 156.374 228.865 156.673 228.667C156.971 228.47 157.244 228.251 157.492 228.011C157.741 227.751 157.987 227.407 158.229 226.979C158.471 226.551 158.682 226.052 158.863 225.482C158.972 225.174 159.069 224.896 159.152 224.65C159.235 224.404 159.305 224.184 159.362 223.991Z" fill="#1D93D1"/>
<path d="M138.67 216.566C138.705 216.384 138.664 216.295 138.548 216.302C138.477 216.306 138.392 216.453 138.292 216.744L137.094 220.304C136.943 220.797 136.841 221.387 136.789 222.074C136.754 222.532 136.733 223.057 136.726 223.647L136.724 224.581C136.733 225.565 136.72 226.305 136.684 226.801C136.668 227.325 136.644 227.881 136.614 228.467C136.583 229.054 136.543 229.626 136.493 230.185C136.443 230.744 136.38 231.268 136.304 231.757C136.228 232.246 136.141 232.655 136.043 232.984C135.964 233.33 135.955 233.502 136.018 233.499C136.255 233.448 136.548 233.006 136.895 232.174C137.242 231.343 137.537 230.443 137.778 229.474C138.02 228.505 138.172 227.282 138.234 225.805C138.262 225.318 138.281 224.77 138.293 224.161L138.309 223.235L138.325 222.284C138.334 221.641 138.35 221.015 138.37 220.405C138.39 219.796 138.414 219.248 138.442 218.761C138.462 218.484 138.495 218.1 138.539 217.607C138.584 217.116 138.627 216.768 138.67 216.566Z" fill="#1D93D1"/>
<path d="M63.5631 221.104C63.495 221.057 63.4336 221.031 63.3781 221.026L63.3673 221.026C63.3154 221.027 63.2611 221.067 63.205 221.146L61.6548 223.786C61.6482 223.768 61.6447 223.747 61.6447 223.722C61.6363 223.703 61.6321 223.675 61.6321 223.637C61.6275 223.632 61.624 223.624 61.6218 223.613C61.62 223.604 61.619 223.593 61.619 223.581C61.6106 223.561 61.6065 223.547 61.6065 223.538C61.6065 223.529 61.6023 223.519 61.5939 223.51L61.5551 223.382C61.5384 223.326 61.5211 223.283 61.5044 223.255C61.4698 223.16 61.4232 223.066 61.3635 222.972L61.2483 222.802L61.0949 222.604C61.0514 222.556 61.0081 222.51 60.9648 222.466C60.9399 222.441 60.9151 222.416 60.8902 222.392C60.8215 222.326 60.7493 222.26 60.6723 222.194L60.4676 222.031L60.2121 221.854L60.1864 221.829L60.1608 221.812C60.1435 221.802 60.1267 221.793 60.0841 221.761L60.033 221.736L60.0074 221.713L59.9178 221.671C59.9089 221.661 59.9005 221.656 59.8922 221.656L59.8665 221.642C59.7985 221.623 59.7346 221.656 59.6749 221.741C59.6659 221.751 59.6618 221.76 59.6618 221.77L57.7045 225.066C57.6616 225.141 57.6401 225.198 57.6401 225.236C57.6401 225.273 57.6616 225.316 57.7045 225.363C57.7045 225.372 57.7087 225.377 57.7171 225.377C57.8878 225.5 58.0627 225.636 58.2417 225.787C58.3014 225.834 58.3611 225.886 58.4208 225.943L58.707 226.187L58.9771 226.439C59.152 226.608 59.3335 226.773 59.5209 226.933C59.5722 226.99 59.6319 227.018 59.7 227.018H59.7895L59.8665 226.99C59.9346 226.962 60.0157 226.905 60.1094 226.82L60.1733 226.764L60.3016 226.622C60.344 226.594 60.378 226.556 60.4037 226.509L60.4807 226.424C60.5064 226.405 60.5297 226.382 60.5511 226.353C60.572 226.325 60.5917 226.301 60.6084 226.283C60.6084 226.273 60.6168 226.259 60.6341 226.24L60.8388 225.957C60.8645 225.929 60.8944 225.886 60.9284 225.83C60.9457 225.811 60.9606 225.787 60.9732 225.759C60.9863 225.731 61.0012 225.707 61.0179 225.688L61.0818 225.589L61.2352 225.335C61.2352 225.325 61.2441 225.311 61.2609 225.293C61.2782 225.254 61.2997 225.219 61.3253 225.186C61.3504 225.153 61.3719 225.113 61.3892 225.066L61.4531 224.939L61.4546 224.926L61.4626 224.913C61.7264 225.106 61.9724 225.31 62.201 225.525C62.4863 225.794 62.7788 226.061 63.0772 226.325C63.1112 226.353 63.1494 226.376 63.1924 226.396C63.2294 226.412 63.2736 226.416 63.3458 226.403C63.4055 226.388 63.4783 226.353 63.5631 226.296C63.6485 226.24 63.7469 226.145 63.8574 226.014C64.037 225.825 64.2012 225.624 64.3504 225.412C64.4996 225.2 64.6465 224.971 64.7915 224.726C64.9706 224.424 65.0965 224.132 65.1688 223.849C65.2416 223.566 65.244 223.292 65.1753 223.028C65.1329 222.802 65.0559 222.597 64.9449 222.413C64.8345 222.229 64.7062 222.057 64.5611 221.896C64.4161 221.736 64.2567 221.592 64.0818 221.465C63.9069 221.337 63.7338 221.217 63.5631 221.104Z" fill="#1D93D1"/>
<path d="M260.554 220.646C260.464 220.579 260.319 220.471 260.219 220.515C260.163 220.539 260.126 220.585 260.091 220.633L258.643 223.172C258.643 223.433 258.611 223.706 258.523 223.955L258.479 224.09L258.419 224.218L258.636 223.108L258.629 223.039C258.615 223.002 258.607 222.962 258.6 222.921C258.592 222.869 258.586 222.815 258.575 222.766C258.514 222.498 258.363 222.226 258.202 222.005C258.043 221.788 257.858 221.592 257.655 221.416C257.62 221.386 257.579 221.352 257.538 221.319C257.483 221.275 257.429 221.232 257.387 221.201C257.254 221.099 257.099 220.974 256.947 220.901C256.921 220.888 256.896 220.873 256.872 220.858C256.779 220.802 256.692 220.75 256.595 220.854L256.546 220.927C255.866 222.075 255.184 223.221 254.504 224.368C254.473 224.419 254.437 224.484 254.437 224.545C254.437 224.644 254.533 224.71 254.609 224.762C254.624 224.772 254.638 224.782 254.651 224.792L254.787 224.896C254.962 225.033 255.131 225.177 255.3 225.322C255.334 225.351 255.368 225.381 255.403 225.41C255.556 225.541 255.702 225.679 255.849 225.818C255.935 225.9 256.022 225.982 256.111 226.062C256.254 226.193 256.255 226.189 256.399 226.317C256.421 226.336 256.441 226.354 256.462 226.369C256.484 226.383 256.506 226.394 256.534 226.4C256.787 226.456 257.006 226.218 257.166 226.043C257.183 226.025 257.198 226.008 257.214 225.992C257.487 225.702 257.722 225.39 257.936 225.051C258.036 224.894 258.149 224.74 258.246 224.545L258.323 224.6C258.669 224.863 258.985 225.154 259.304 225.447C259.368 225.505 259.431 225.563 259.495 225.621C259.571 225.691 259.648 225.76 259.725 225.829C259.742 225.845 259.762 225.865 259.785 225.887C259.882 225.984 260.023 226.125 260.158 226.127C260.397 226.131 260.597 225.907 260.745 225.741C260.754 225.731 260.763 225.721 260.772 225.712C260.792 225.689 260.812 225.667 260.832 225.645C260.881 225.592 260.929 225.54 260.975 225.485C261.041 225.408 261.105 225.329 261.166 225.248C261.334 225.027 261.487 224.794 261.632 224.557C261.9 224.123 262.157 223.643 262.194 223.125C262.217 222.808 262.146 222.47 262.022 222.179C261.765 221.578 261.257 221.135 260.734 220.771L260.599 220.678C260.586 220.669 260.571 220.658 260.554 220.646Z" fill="#1D93D1"/>
<path d="M109.111 219.769C109.045 219.723 108.985 219.698 108.93 219.693L108.92 219.692C108.869 219.694 108.817 219.732 108.762 219.81L107.218 222.439V222.431C107.209 222.412 107.205 222.39 107.205 222.362C107.197 222.344 107.193 222.316 107.193 222.279C107.188 222.274 107.185 222.267 107.183 222.258C107.181 222.249 107.18 222.237 107.18 222.224C107.172 222.206 107.168 222.192 107.155 222.155L107.118 222.031C107.101 221.976 107.085 221.935 107.068 221.907C107.035 221.815 106.989 221.723 106.931 221.632L106.819 221.466L106.669 221.273C106.603 221.2 106.536 221.131 106.47 221.066L106.258 220.873L106.059 220.715L105.809 220.542C105.792 220.524 105.776 220.51 105.709 220.474L105.685 220.451L105.635 220.427L105.61 220.405L105.523 220.363C105.514 220.354 105.506 220.35 105.498 220.35L105.473 220.336C105.406 220.317 105.344 220.35 105.273 220.46L103.367 223.671C103.325 223.745 103.304 223.8 103.304 223.837C103.304 223.874 103.325 223.915 103.379 223.975C103.545 224.094 103.715 224.227 103.89 224.374C103.948 224.42 104.006 224.471 104.064 224.526C104.255 224.682 104.436 224.843 104.606 225.008C104.777 225.174 104.953 225.335 105.136 225.491C105.186 225.546 105.244 225.574 105.311 225.574H105.398L105.473 225.546C105.539 225.518 105.618 225.463 105.709 225.38L105.772 225.325L105.896 225.187C105.938 225.16 105.972 225.123 105.997 225.077L106.071 224.995L106.107 224.964L106.14 224.925C106.16 224.898 106.179 224.875 106.196 224.857C106.196 224.848 106.204 224.834 106.22 224.816L106.42 224.54C106.445 224.512 106.474 224.471 106.531 224.385L106.551 224.347C106.564 224.319 106.578 224.296 106.595 224.278L106.657 224.182L106.807 223.933C106.807 223.924 106.815 223.91 106.832 223.892C106.848 223.855 106.869 223.821 106.894 223.788L106.928 223.735L107.018 223.547C107.018 223.538 107.02 223.531 107.024 223.527C107.027 223.524 107.028 223.521 107.032 223.511C107.035 223.502 107.039 223.488 107.047 223.466C107.31 223.659 107.556 223.862 107.784 224.076C108.062 224.338 108.347 224.598 108.637 224.855C108.671 224.882 108.708 224.906 108.749 224.924C108.786 224.94 108.829 224.944 108.899 224.931C108.957 224.917 109.028 224.882 109.111 224.828C109.194 224.772 109.29 224.68 109.398 224.552C109.573 224.368 109.733 224.173 109.878 223.966C110.023 223.759 110.167 223.536 110.308 223.297C110.482 223.003 110.605 222.719 110.676 222.443C110.746 222.167 110.748 221.901 110.682 221.643C110.64 221.423 110.565 221.223 110.457 221.044C110.349 220.865 110.224 220.697 110.084 220.541C109.942 220.384 109.786 220.245 109.616 220.12C109.445 219.996 109.277 219.879 109.111 219.769Z" fill="#1D93D1"/>
<path d="M250.676 212.021C250.644 212.008 250.614 212 250.586 211.998H250.575C250.521 211.998 250.464 212.039 250.405 212.12L248.893 214.625C248.889 214.614 248.886 214.6 248.884 214.584C248.883 214.572 248.883 214.56 248.883 214.546L248.844 214.416L248.753 214.157L248.727 214.1L248.611 213.87L248.533 213.755C248.464 213.649 248.391 213.554 248.313 213.467C248.236 213.381 248.15 213.295 248.054 213.209L247.912 213.079C247.8 212.993 247.688 212.909 247.575 212.827L247.239 212.591C247.222 212.591 247.205 212.581 247.187 212.562C247.153 212.543 247.131 212.533 247.122 212.533L247.097 212.518C247.019 212.499 246.95 212.543 246.89 212.648L244.91 215.998C244.866 216.075 244.845 216.134 244.845 216.178C244.845 216.221 244.871 216.266 244.922 216.314C245.095 216.439 245.272 216.578 245.453 216.731L245.544 216.803L246.307 217.493L246.437 217.622L246.748 217.896C246.765 217.915 246.784 217.932 246.805 217.946C246.827 217.96 246.855 217.972 246.89 217.982C246.942 218.001 247.004 217.997 247.077 217.967C247.15 217.939 247.239 217.877 247.343 217.781L247.407 217.723L247.757 217.335L247.964 217.076C248.015 217 248.067 216.925 248.119 216.854C248.153 216.806 248.185 216.758 248.215 216.709C248.231 216.683 248.247 216.657 248.261 216.63L248.482 216.271L248.642 215.987C248.896 216.172 249.134 216.366 249.356 216.57C249.654 216.843 249.96 217.114 250.272 217.382C250.307 217.411 250.347 217.435 250.392 217.454C250.431 217.471 250.477 217.475 250.552 217.461C250.615 217.447 250.691 217.411 250.78 217.354C250.869 217.296 250.971 217.2 251.087 217.066C251.274 216.874 251.446 216.67 251.602 216.455C251.757 216.239 251.911 216.007 252.062 215.758C252.25 215.451 252.381 215.154 252.457 214.866C252.533 214.579 252.534 214.301 252.463 214.033C252.419 213.802 252.339 213.594 252.223 213.407C252.107 213.22 251.973 213.045 251.822 212.882C251.67 212.719 251.504 212.573 251.321 212.444C251.138 212.314 250.958 212.192 250.78 212.077C250.743 212.053 250.709 212.034 250.676 212.021Z" fill="#1D93D1"/>
<path d="M30.9384 210.887C30.8549 210.824 30.7791 210.79 30.711 210.783L30.6985 210.782C30.6346 210.784 30.5684 210.837 30.4997 210.944L28.1169 215.376C28.0644 215.477 28.0381 215.55 28.0381 215.594C28.0381 215.638 28.0644 215.705 28.1169 215.793C28.5347 216.109 28.9185 216.446 29.2689 216.806C29.6193 217.166 29.9768 217.523 30.3427 217.876C30.3845 217.914 30.4317 217.946 30.4842 217.971C30.5296 217.993 30.5833 217.998 30.6722 217.98C30.745 217.961 30.834 217.914 30.9384 217.838C31.0429 217.763 31.1635 217.637 31.299 217.459C31.5186 217.207 31.7198 216.939 31.9024 216.655C32.0857 216.371 32.2659 216.064 32.4438 215.736C32.6629 215.332 32.8169 214.941 32.9058 214.561C32.9947 214.183 32.9977 213.817 32.9136 213.463C32.8616 213.16 32.7673 212.885 32.6318 212.639C32.4957 212.393 32.3388 212.163 32.1615 211.948C31.9836 211.733 31.7878 211.541 31.5735 211.37C31.3592 211.2 31.1473 211.039 30.9384 210.887Z" fill="#1D93D1"/>
<path d="M254.029 197.72C254.199 197.205 254.137 197.066 253.844 197.304C253.779 197.406 253.027 198.147 251.586 199.528C251.341 199.764 250.972 200.101 250.476 200.54L250.193 200.789C248.029 202.691 243.854 206.215 237.67 211.361C237.092 211.837 236.519 212.295 235.95 212.736C235.381 213.178 234.807 213.67 234.229 214.213C233.862 214.575 233.486 215.056 233.1 215.656C232.485 216.675 232.178 217.246 232.178 217.371C232.169 217.665 232.394 217.643 232.852 217.303C233.054 217.168 233.263 217.017 233.479 216.854C233.695 216.689 233.917 216.511 234.146 216.319C237.579 213.817 240.891 211.25 244.084 208.619C247.278 205.988 249.911 203.518 251.985 201.209C253.178 199.398 253.86 198.235 254.029 197.72Z" fill="#1D93D1"/>
<path d="M130.373 209.826C130.308 209.78 130.247 209.755 130.191 209.75C130.135 209.746 130.078 209.789 130.022 209.882L128.087 213.257C128.047 213.34 128.025 213.402 128.021 213.444C128.017 213.485 128.043 213.529 128.099 213.575C128.438 213.815 128.748 214.073 129.03 214.35C129.313 214.627 129.599 214.899 129.889 215.166C129.929 215.222 129.994 215.233 130.082 215.201C130.171 215.169 130.263 215.115 130.36 215.042C130.457 214.968 130.55 214.89 130.638 214.806C130.727 214.723 130.792 214.655 130.832 214.599C130.969 214.442 131.1 214.279 131.225 214.108C131.35 213.937 131.469 213.746 131.581 213.534C131.767 213.22 131.894 212.921 131.962 212.635C132.031 212.349 132.033 212.072 131.969 211.804C131.92 211.574 131.842 211.364 131.733 211.175C131.624 210.986 131.497 210.811 131.352 210.649C131.207 210.488 131.05 210.338 130.88 210.2C130.711 210.061 130.542 209.937 130.373 209.826Z" fill="#1D93D1"/>
<path d="M184.82 209.453C184.75 209.405 184.685 209.379 184.624 209.374C184.563 209.369 184.502 209.414 184.441 209.511L182.349 213.038C182.306 213.125 182.282 213.19 182.277 213.233C182.273 213.277 182.302 213.323 182.363 213.371C182.728 213.621 183.064 213.891 183.369 214.181C183.674 214.47 183.984 214.754 184.297 215.034C184.341 215.092 184.411 215.103 184.507 215.069C184.602 215.036 184.702 214.98 184.807 214.903C184.912 214.826 185.012 214.744 185.108 214.658C185.204 214.571 185.274 214.499 185.317 214.441C185.465 214.277 185.607 214.106 185.742 213.928C185.877 213.749 186.005 213.549 186.127 213.328C186.328 213 186.465 212.687 186.539 212.388C186.613 212.089 186.615 211.8 186.546 211.52C186.494 211.28 186.408 211.06 186.291 210.862C186.173 210.665 186.036 210.482 185.879 210.313C185.722 210.144 185.552 209.988 185.369 209.844C185.186 209.699 185.003 209.569 184.82 209.453Z" fill="#1D93D1"/>
<path d="M291.307 208.018L291.281 208.003C291.2 207.983 291.129 208.027 291.067 208.136L289.024 211.576C288.98 211.655 288.957 211.716 288.957 211.761C288.957 211.805 288.984 211.852 289.038 211.901L289.308 212.104L289.678 212.403L290.466 213.112L290.6 213.245L290.92 213.525L290.98 213.577C291.003 213.591 291.031 213.604 291.067 213.614C291.12 213.633 291.185 213.629 291.261 213.599C291.336 213.569 291.428 213.506 291.535 213.407L291.601 213.348L291.735 213.2L291.962 212.949L292.175 212.684L292.336 212.454C292.389 212.381 292.438 212.305 292.483 212.226L292.709 211.856L292.87 211.576L292.95 211.399C292.968 211.379 292.979 211.354 292.983 211.325C292.987 211.295 292.994 211.271 293.003 211.251L293.043 211.163L293.097 210.985C293.097 210.977 293.097 210.969 293.098 210.962C293.099 210.954 293.101 210.947 293.103 210.941C293.108 210.931 293.11 210.916 293.11 210.896C293.146 210.74 293.164 210.567 293.164 210.38C293.164 210.36 293.161 210.346 293.152 210.317L293.148 210.262L293.143 210.232C293.141 210.221 293.139 210.209 293.138 210.197C293.137 210.189 293.137 210.181 293.137 210.173C293.128 210.153 293.124 210.124 293.124 210.085L293.084 209.952L292.99 209.686L292.963 209.627L292.843 209.391L292.763 209.272C292.691 209.164 292.616 209.066 292.536 208.977C292.456 208.889 292.367 208.8 292.269 208.711L292.122 208.579L291.948 208.448L291.775 208.32C291.659 208.237 291.544 208.156 291.428 208.077C291.41 208.077 291.392 208.067 291.374 208.047C291.339 208.027 291.316 208.018 291.307 208.018Z" fill="#1D93D1"/>
<path d="M295.527 207.796C295.456 207.747 295.391 207.72 295.333 207.715L295.323 207.714C295.268 207.715 295.212 207.757 295.153 207.84L293.124 211.295C293.079 211.374 293.057 211.431 293.057 211.465C293.057 211.5 293.079 211.551 293.124 211.621C293.479 211.866 293.806 212.13 294.105 212.41C294.403 212.691 294.708 212.969 295.019 213.245C295.055 213.274 295.095 213.298 295.139 213.318C295.179 213.335 295.224 213.34 295.3 213.326C295.362 213.311 295.438 213.274 295.527 213.215C295.616 213.156 295.718 213.057 295.834 212.919C296.021 212.723 296.192 212.514 296.348 212.292C296.504 212.071 296.657 211.832 296.809 211.576C296.996 211.261 297.127 210.956 297.203 210.661C297.278 210.365 297.28 210.08 297.209 209.804C297.165 209.568 297.085 209.354 296.969 209.162C296.853 208.97 296.719 208.79 296.568 208.623C296.417 208.456 296.25 208.305 296.067 208.172C295.885 208.04 295.705 207.914 295.527 207.796Z" fill="#1D93D1"/>
<path d="M248.974 207.706C248.905 207.658 248.842 207.631 248.786 207.627H248.776C248.723 207.627 248.668 207.668 248.612 207.749L246.644 211.113C246.601 211.19 246.58 211.245 246.58 211.279C246.58 211.313 246.601 211.363 246.644 211.43C246.989 211.669 247.306 211.926 247.596 212.199C247.885 212.472 248.18 212.743 248.482 213.011C248.517 213.04 248.556 213.064 248.599 213.083C248.636 213.1 248.681 213.104 248.754 213.09C248.814 213.076 248.887 213.04 248.974 212.983C249.06 212.925 249.159 212.829 249.271 212.695C249.453 212.503 249.619 212.3 249.77 212.084C249.921 211.868 250.069 211.636 250.216 211.387C250.398 211.08 250.525 210.783 250.598 210.495C250.672 210.208 250.673 209.93 250.605 209.662C250.561 209.431 250.484 209.223 250.371 209.036C250.259 208.849 250.13 208.674 249.983 208.511C249.837 208.348 249.675 208.202 249.498 208.073C249.321 207.943 249.147 207.821 248.974 207.706Z" fill="#1D93D1"/>
<path d="M203.642 206.887C203.57 206.841 203.505 206.815 203.447 206.81H203.436C203.381 206.811 203.324 206.851 203.265 206.93L201.777 209.314C201.77 209.296 201.767 209.271 201.767 209.241C201.762 209.235 201.758 209.227 201.754 209.207C201.75 209.193 201.746 209.172 201.74 209.142C201.74 209.133 201.736 209.124 201.727 209.114L201.687 208.988C201.669 208.932 201.651 208.89 201.632 208.862C201.596 208.769 201.547 208.675 201.484 208.582L201.363 208.413L201.201 208.217C201.048 208.058 200.9 207.923 200.757 207.811L200.541 207.649L200.272 207.474C200.254 207.455 200.236 207.441 200.191 207.418L200.164 207.404C200.146 207.385 200.128 207.374 200.11 207.369C200.092 207.364 200.074 207.353 200.056 207.334L199.908 207.264C199.836 207.245 199.769 207.278 199.706 207.362C199.697 207.371 199.692 207.381 199.692 207.39L197.631 210.657C197.586 210.731 197.564 210.787 197.564 210.825C197.564 210.862 197.586 210.904 197.631 210.951C197.631 210.96 197.635 210.965 197.644 210.965C197.824 211.086 198.008 211.222 198.197 211.372L198.291 211.445L198.386 211.526C198.592 211.684 198.787 211.848 198.972 212.016C199.156 212.185 199.347 212.348 199.544 212.507C199.598 212.563 199.661 212.591 199.733 212.591H199.827L199.908 212.563C199.98 212.535 200.065 212.479 200.164 212.395L200.231 212.339L200.366 212.198C200.411 212.17 200.447 212.133 200.474 212.087L200.555 212.003C200.582 211.983 200.606 211.96 200.629 211.932C200.652 211.904 200.671 211.881 200.69 211.862C200.69 211.853 200.698 211.839 200.717 211.82L200.932 211.54C200.959 211.512 200.991 211.47 201.026 211.413C201.044 211.395 201.06 211.372 201.074 211.344C201.087 211.316 201.103 211.292 201.121 211.273L201.188 211.175L201.349 210.923C201.349 210.913 201.359 210.899 201.377 210.881C201.395 210.843 201.417 210.808 201.444 210.775L201.49 210.704C201.746 210.883 201.984 211.071 202.208 211.268C202.508 211.535 202.816 211.799 203.13 212.06C203.166 212.089 203.207 212.112 203.252 212.131C203.291 212.147 203.337 212.151 203.413 212.138C203.476 212.124 203.552 212.089 203.642 212.032C203.732 211.976 203.835 211.883 203.952 211.752C204.14 211.565 204.314 211.367 204.47 211.156C204.628 210.946 204.783 210.719 204.935 210.476C205.124 210.177 205.257 209.888 205.333 209.607C205.409 209.327 205.412 209.056 205.34 208.794C205.295 208.57 205.214 208.366 205.097 208.184C204.98 208.002 204.846 207.831 204.693 207.673C204.54 207.514 204.372 207.371 204.188 207.245C204.004 207.119 203.822 206.999 203.642 206.887Z" fill="#1D93D1"/>
<path d="M197.629 193.034C197.78 192.548 197.71 192.423 197.419 192.658C197.358 192.756 196.618 193.483 195.201 194.838C193.956 196.037 189.369 199.934 181.44 206.531C180.868 207.002 180.3 207.457 179.735 207.895C179.17 208.334 178.603 208.82 178.034 209.354C177.674 209.709 177.309 210.174 176.941 210.75C176.356 211.727 176.066 212.273 176.072 212.388C176.077 212.662 176.307 212.629 176.762 212.29C176.964 212.154 177.172 212.004 177.386 211.841C177.6 211.677 177.821 211.501 178.048 211.31C181.461 208.813 184.748 206.262 187.91 203.656C191.071 201.051 193.665 198.624 195.69 196.375C196.833 194.634 197.479 193.521 197.629 193.034Z" fill="#1D93D1"/>
<path d="M33.406 204.08C33.3075 204.021 33.2186 203.988 33.1386 203.982H33.1237C33.0479 203.983 32.9703 204.033 32.8891 204.134L30.7044 207.375L30.6376 207.175L30.5886 207.061C30.5695 207.023 30.5475 206.985 30.523 206.947C30.4084 206.733 30.2956 206.556 30.1845 206.417L30.0735 206.284L29.7607 205.943L29.2874 205.546C29.2146 205.483 29.1418 205.426 29.0695 205.375L28.7078 205.129L28.293 204.883L28.2572 204.864C28.1623 204.839 28.093 204.851 28.0477 204.902L27.9975 204.959L27.948 205.034L25.4386 209.448C25.3837 209.549 25.358 209.628 25.3604 209.684C25.3622 209.741 25.3998 209.801 25.4732 209.864C25.6057 209.953 25.7323 210.038 25.8529 210.12C25.9734 210.202 26.094 210.294 26.2158 210.395L26.3435 210.509C26.525 210.647 26.7064 210.796 26.8891 210.953C27.0711 211.111 27.2472 211.266 27.4179 211.418L27.6 211.569C27.6979 211.67 27.8011 211.758 27.9098 211.834L28.0375 211.948C28.1109 212.023 28.1945 212.062 28.2882 212.062C28.3473 212.074 28.4231 212.062 28.515 212.023C28.5383 212.011 28.558 212.001 28.5753 211.995C28.5926 211.989 28.6129 211.973 28.635 211.948C28.7496 211.884 28.9024 211.746 29.0928 211.531C29.1376 211.48 29.18 211.436 29.2194 211.399C29.2588 211.36 29.2952 211.316 29.328 211.266L29.5292 211.019L29.7948 210.641L29.91 210.451C29.9434 210.414 29.9822 210.357 30.0264 210.281L30.2478 209.893C30.2639 209.861 30.283 209.833 30.3057 209.807L30.5021 209.448L30.6304 209.145L30.6543 209.054C30.9307 209.242 31.1927 209.438 31.4404 209.641C31.8523 209.978 32.2737 210.313 32.7046 210.646C32.7542 210.681 32.8091 210.711 32.8706 210.735C32.9249 210.756 32.9882 210.76 33.0926 210.744C33.1786 210.726 33.283 210.681 33.406 210.61C33.529 210.539 33.671 210.42 33.831 210.254C34.0895 210.017 34.3258 209.765 34.5413 209.498C34.7568 209.231 34.9693 208.943 35.1782 208.635C35.4367 208.255 35.6181 207.888 35.7232 207.532C35.8276 207.176 35.8306 206.832 35.7321 206.5C35.6706 206.215 35.5596 205.957 35.3996 205.726C35.2397 205.495 35.0552 205.278 34.8463 205.077C34.6368 204.875 34.4058 204.694 34.1539 204.534C33.9014 204.374 33.6525 204.223 33.406 204.08Z" fill="#1D93D1"/>
<path d="M299.234 192.313C299.397 191.818 299.338 191.685 299.056 191.913C299.051 191.922 299.039 191.936 299.023 191.955C298.987 191.996 298.927 192.06 298.842 192.148L298.304 192.682C297.955 193.025 297.484 193.48 296.892 194.048C295.677 195.221 291.23 199.006 283.549 205.403C282.994 205.859 282.444 206.299 281.899 206.722C281.353 207.146 280.804 207.618 280.249 208.139C279.897 208.487 279.536 208.949 279.167 209.524C278.577 210.502 278.282 211.05 278.282 211.17C278.274 211.452 278.489 211.43 278.929 211.104C279.123 210.974 279.323 210.83 279.53 210.673C279.736 210.515 279.95 210.344 280.17 210.159C283.46 207.759 286.637 205.296 289.699 202.772C292.761 200.247 295.286 197.876 297.274 195.661C298.418 193.923 299.072 192.807 299.234 192.313Z" fill="#1D93D1"/>
<path d="M232.84 189.353C232.98 188.886 232.911 188.767 232.63 188.996C232.572 189.091 231.862 189.796 230.5 191.111C230.269 191.336 229.918 191.658 229.448 192.079L229.179 192.317C227.122 194.142 223.149 197.531 217.258 202.486C216.707 202.945 216.16 203.388 215.616 203.815C215.072 204.242 214.526 204.715 213.979 205.234C213.633 205.578 213.284 206.028 212.933 206.585C212.376 207.526 212.101 208.052 212.108 208.163C212.116 208.424 212.339 208.389 212.779 208.059C212.973 207.926 213.173 207.78 213.379 207.62C213.585 207.461 213.798 207.289 214.016 207.104C217.306 204.668 220.472 202.182 223.516 199.646C226.559 197.11 229.052 194.753 230.994 192.574C232.084 190.894 232.7 189.82 232.84 189.353Z" fill="#1D93D1"/>
<path d="M293.684 202.466C293.613 202.416 293.549 202.39 293.491 202.385L293.48 202.384C293.425 202.385 293.369 202.427 293.31 202.51L291.281 205.965C291.236 206.044 291.214 206.1 291.214 206.135C291.214 206.169 291.236 206.221 291.281 206.29C291.637 206.536 291.964 206.799 292.262 207.08C292.56 207.36 292.865 207.639 293.177 207.914C293.213 207.944 293.253 207.968 293.297 207.988C293.336 208.005 293.381 208.009 293.457 207.996C293.519 207.981 293.595 207.944 293.684 207.885C293.773 207.825 293.876 207.727 293.991 207.589C294.178 207.393 294.35 207.183 294.505 206.962C294.661 206.74 294.815 206.502 294.966 206.245C295.153 205.931 295.284 205.625 295.36 205.33C295.435 205.035 295.438 204.75 295.367 204.474C295.322 204.238 295.242 204.023 295.126 203.832C295.01 203.639 294.877 203.46 294.726 203.293C294.575 203.125 294.408 202.975 294.225 202.842C294.042 202.709 293.862 202.584 293.684 202.466Z" fill="#1D93D1"/>
<path d="M22.8946 170.803C23.0367 170.085 23.088 169.687 23.0492 169.61C23.0277 169.584 23.0005 169.567 22.9676 169.558C22.9019 169.541 22.8133 169.558 22.7018 169.61C22.4696 170.059 22.1025 171.018 21.6 172.487C21.098 173.957 20.7368 175 20.5184 175.616C20.4408 175.872 20.3506 176.463 20.2474 177.387C20.1447 178.31 20.048 180.399 19.9579 183.652C19.8678 186.905 19.7514 189.173 19.6099 190.456C19.5066 191.804 19.0494 193.013 18.2382 194.085C17.4264 195.156 16.0028 196.039 13.9674 196.732C12.4602 197.283 10.7603 197.559 8.86633 197.559C8.2354 197.559 7.45586 197.514 6.52828 197.425C5.65263 197.309 4.90531 197.136 4.28692 196.905C2.92122 196.34 2.23897 195.32 2.23897 193.844C2.23897 193.639 2.24493 193.434 2.25807 193.228C2.25807 193.074 2.22583 192.959 2.16137 192.882C2.0969 192.805 2.02289 192.766 1.93932 192.766C1.85576 192.766 1.77518 192.799 1.69758 192.862C1.62058 192.927 1.56865 193.016 1.54298 193.151C1.07919 194.82 0.757464 196.898 0.577201 199.388C0.577201 200.71 0.963394 201.736 1.73638 202.468C2.72842 203.315 4.40929 203.738 6.77957 203.738C9.39458 203.738 11.6103 203.212 13.4266 202.16C14.5476 201.544 15.5391 200.767 16.4022 199.831C17.3942 198.817 18.3928 197.367 19.3974 195.48C20.402 193.62 21.1236 191.098 21.5618 187.915C21.8065 185.58 21.9479 183.36 21.9867 181.255C22.1539 177.431 22.3025 174.916 22.4308 173.71C22.5986 172.491 22.7532 171.522 22.8946 170.803Z" fill="#1D93D1"/>
<path d="M36.2622 185.485C36.3953 184.968 36.3284 184.69 36.0628 184.651C35.8234 184.678 35.5942 184.852 35.3746 185.175C35.1555 185.498 34.9663 185.841 34.8063 186.203C34.5276 186.966 33.9092 187.586 32.9518 188.065C32.1274 188.452 31.4231 188.843 30.8382 189.237C30.2532 189.631 29.7876 190.036 29.442 190.449C29.1095 190.863 28.8171 191.273 28.5646 191.681C28.3121 192.088 28.0763 192.498 27.8566 192.912C27.6376 193.326 27.4281 193.745 27.2287 194.172C27.0293 194.599 26.8097 195.038 26.5703 195.491C26.1585 196.357 25.4141 197.184 24.3373 197.972C24.0711 198.18 23.8222 198.367 23.5894 198.535C23.3566 198.703 23.0474 198.916 22.6618 199.175C22.2762 199.433 21.7778 199.766 21.1666 200.173C20.5548 200.58 19.737 201.113 18.7134 201.773C18.2084 202.083 17.8962 202.39 17.7762 202.694C17.6568 202.998 17.75 203.195 18.0556 203.285C18.1057 203.295 18.1797 203.299 18.2782 203.298L18.7736 203.266L22.4225 202.665C23.7524 202.419 24.7558 201.947 25.4338 201.249C25.9257 200.81 26.3346 200.251 26.6605 199.572C26.9858 198.893 27.2854 198.199 27.5576 197.488C27.8304 196.777 28.093 196.101 28.3455 195.461C28.598 194.821 28.897 194.321 29.2426 193.959C29.4689 193.687 29.7548 193.432 30.1004 193.193C30.446 192.954 30.8644 192.737 31.3569 192.543C31.835 192.362 32.2874 192.129 32.7124 191.845C33.138 191.561 33.5236 191.251 33.8692 190.915C34.2148 190.552 34.5473 190.081 34.866 189.499C35.1854 188.918 35.451 188.245 35.6641 187.483C35.7972 187.069 35.913 186.697 36.0127 186.368C36.1129 186.038 36.1959 185.744 36.2622 185.485Z" fill="#1D93D1"/>
<path d="M40.761 176.608C40.715 176.232 40.6112 176.187 40.45 176.472C40.2089 177.106 39.9761 177.747 39.7516 178.394C39.5272 179.041 39.3171 179.682 39.1219 180.316C38.9494 181.079 38.7709 182.082 38.5871 183.325C38.4032 184.567 38.2391 185.741 38.0952 186.848C37.9514 187.955 37.7389 189.79 37.4572 192.352C37.1927 194.755 37.0525 196.247 37.0357 196.829L37.0345 196.934C36.988 198.5 37.1951 199.904 37.6553 201.146C38.2767 202.544 39.3004 203.243 40.7264 203.243C42.0031 203.243 43.1414 202.408 44.1424 200.739C44.807 199.687 45.3301 199.475 45.7117 199.32C45.8517 199.264 45.9727 199.215 46.0746 199.135C46.3509 198.915 46.7186 198.792 47.1788 198.766C47.3746 198.74 47.5788 198.717 47.7913 198.698C48.0038 198.679 48.2085 198.63 48.4037 198.553C48.806 198.346 49.2262 198.045 49.6631 197.65C50.1001 197.255 50.4857 196.851 50.8193 196.437C51.4168 196.268 51.9057 196.013 52.2853 195.67C52.6649 195.326 53.0362 194.764 53.3985 193.98C53.7608 193.198 54.0682 192.178 54.3213 190.923C54.4019 190.354 54.3846 190.056 54.2694 190.03C54.1082 189.939 53.9417 190.172 53.7692 190.729C53.5394 191.311 53.3376 191.755 53.1651 192.059C52.9926 192.363 52.8291 192.573 52.6739 192.69C52.5181 192.806 52.3629 192.858 52.2077 192.845C52.0525 192.832 51.877 192.793 51.6818 192.729C51.5899 192.69 51.5093 192.709 51.4401 192.787C51.4055 192.825 51.3828 192.864 51.3709 192.903C51.0145 193.602 50.6092 194.175 50.155 194.621C49.7007 195.068 49.1856 195.304 48.6108 195.33C48.4269 195.343 48.2139 195.32 47.9721 195.262C47.731 195.203 47.5125 195.207 47.3167 195.272C46.9831 195.375 46.4888 195.848 45.8328 196.689C45.1774 197.53 44.0063 197.686 42.7415 197.712C41.867 197.712 41.1484 197.498 40.5849 197.071C40.0555 196.605 39.6788 195.997 39.455 195.246C39.2976 194.72 39.2876 193.884 39.2798 193.235C39.2764 192.959 39.2735 192.716 39.2598 192.546V192.274C39.2598 191.821 39.2884 191.064 39.3463 190.003C39.3463 189.835 39.3893 189.252 39.4753 188.256C39.5618 187.259 39.7254 185.606 39.9671 183.295C40.2089 180.985 40.4733 178.756 40.761 176.608Z" fill="#1D93D1"/>
<path d="M14.3232 185.537C14.2748 185.29 14.0575 185.112 13.6714 185.004C12.9796 184.912 12.3761 185.105 11.861 185.583C11.362 186.046 11.2092 186.609 11.4025 187.273C11.5953 187.936 11.5631 188.376 11.3058 188.592C11.0164 188.808 10.5412 188.916 9.88165 188.916H9.42264C9.08479 188.932 8.93975 189.071 8.98809 189.333C9.05256 189.596 9.16537 189.804 9.32653 189.958C9.40652 190.035 9.50322 190.101 9.61603 190.155C9.72884 190.209 9.88941 190.251 10.0989 190.282C10.968 190.359 11.6037 190.113 12.006 189.541C12.4406 188.924 12.5367 188.357 12.2955 187.84C12.0544 187.323 12.0179 186.929 12.1869 186.659C12.3558 186.389 12.7378 186.231 13.3335 186.185C13.9453 186.2 14.2748 185.984 14.3232 185.537Z" fill="#1D93D1"/>
<path d="M85.3368 179.512C82.9044 178.296 80.6744 178.296 80.6744 178.296C77.5874 178.467 77.2563 180.235 77.2275 180.775L77.227 180.931C77.227 184.985 81.6885 184.174 81.6885 184.174C82.9494 184.174 84.7011 183.316 85.4173 182.934L85.742 182.755H299.996V179.512H85.3368Z" fill="#1D93D1"/>
<path d="M51.9481 167.679C51.8496 167.618 51.76 167.584 51.68 167.578L51.6651 167.578C51.5899 167.579 51.5117 167.631 51.4311 167.734L49.3014 170.994L49.2465 170.822L49.0609 170.434L48.96 170.279C48.8698 170.137 48.7743 170.007 48.6729 169.891C48.572 169.774 48.4598 169.658 48.3356 169.542L48.1506 169.367C48.0043 169.251 47.8581 169.138 47.7119 169.028C47.5656 168.918 47.42 168.811 47.2737 168.708C47.2511 168.708 47.2284 168.695 47.2063 168.669C47.1609 168.643 47.1329 168.63 47.1221 168.63L47.0881 168.61C46.9872 168.585 46.8971 168.643 46.8183 168.785L44.2385 173.304C44.1824 173.408 44.1544 173.489 44.1544 173.547C44.1544 173.605 44.1878 173.667 44.2552 173.731C44.4803 173.9 44.7107 174.087 44.947 174.294L45.0646 174.391L46.0596 175.322L46.228 175.496L46.6327 175.865C46.6554 175.891 46.6804 175.913 46.7091 175.933C46.7371 175.952 46.7735 175.968 46.8183 175.981C46.8858 176.007 46.9675 176.001 47.063 175.962C47.1585 175.923 47.2737 175.839 47.4086 175.709L47.4928 175.632L47.9482 175.108L48.218 174.759C48.2855 174.656 48.3529 174.556 48.4204 174.459C48.4878 174.362 48.5493 174.261 48.6054 174.158L48.8925 173.673L49.0949 173.304L49.1958 173.072C49.2184 173.046 49.2322 173.014 49.2381 172.975C49.2435 172.936 49.2519 172.904 49.268 172.866C49.5175 173.044 49.755 173.229 49.9807 173.42C50.3931 173.768 50.8151 174.114 51.2461 174.457C51.2956 174.494 51.3506 174.525 51.4126 174.549C51.4664 174.57 51.5296 174.575 51.6341 174.559C51.72 174.54 51.8251 174.494 51.9481 174.421L52.1467 174.274L52.373 174.053C52.6315 173.808 52.8685 173.548 53.084 173.272C53.2994 172.997 53.5119 172.7 53.7214 172.382C53.9799 171.989 54.1619 171.61 54.2664 171.243C54.3709 170.876 54.3744 170.521 54.276 170.177C54.2139 169.884 54.1035 169.617 53.9429 169.379C53.7829 169.14 53.5985 168.916 53.389 168.708C53.1794 168.5 52.9485 168.313 52.696 168.148C52.4435 167.983 52.1946 167.826 51.9481 167.679Z" fill="#1D93D1"/>
<path d="M96.8903 171.201L84.5256 168.972H69.5261C64.8643 168.972 65.472 172.417 65.472 172.417C65.472 175.863 69.7291 175.457 69.3238 175.457H83.715L96.2827 173.431H124.863C131.147 175.66 137.633 175.457 137.633 175.457C142.092 175.457 149.998 173.836 149.998 173.836H299.996V170.39H147.363C143.849 169.512 139.574 169.395 138.497 169.379L138.241 169.377C133.343 169.208 127.177 170.587 125.258 171.052L124.66 171.201H96.8903Z" fill="#1D93D1"/>
<path d="M49.191 161.58C49.0991 161.515 49.0167 161.479 48.9445 161.473L48.9313 161.473C48.8633 161.474 48.7964 161.529 48.7302 161.637L46.4614 166.16C46.4118 166.262 46.3885 166.337 46.3909 166.382C46.3933 166.427 46.425 166.494 46.4852 166.585C46.9454 166.907 47.371 167.251 47.762 167.618C48.1524 167.985 48.5517 168.35 48.9588 168.71C49.0047 168.749 49.0567 168.781 49.1134 168.807C49.1629 168.83 49.2202 168.835 49.3127 168.816C49.3892 168.797 49.4805 168.749 49.5867 168.672C49.693 168.594 49.8129 168.465 49.9467 168.285C50.1645 168.027 50.3621 167.754 50.5394 167.464C50.7167 167.174 50.8898 166.862 51.0593 166.527C51.2682 166.114 51.4091 165.715 51.4813 165.329C51.5535 164.942 51.5356 164.568 51.427 164.208C51.3547 163.899 51.2395 163.618 51.082 163.367C50.9238 163.115 50.7453 162.881 50.5447 162.662C50.3448 162.443 50.1263 162.246 49.8899 162.072C49.6542 161.898 49.4208 161.734 49.191 161.58Z" fill="#1D93D1"/>
<path d="M51.3673 143.501C51.5559 142.76 51.4574 142.546 51.073 142.859C50.8211 143.182 50.4003 143.633 49.81 144.212C49.2196 144.791 48.5045 145.459 47.6647 146.214C46.8249 146.97 45.8877 147.794 44.8533 148.687C43.8195 149.581 42.7391 150.505 41.6134 151.46C40.4876 152.415 39.3428 153.378 38.1794 154.351C37.016 155.323 35.879 156.27 34.7687 157.191L31.6004 159.822C30.5988 160.654 29.7046 161.399 28.9197 162.059C28.1342 162.72 27.4788 163.275 26.9523 163.726C26.4253 164.177 26.0803 164.488 25.9161 164.661C25.3998 165.307 24.8698 166.058 24.3254 166.911C23.7942 167.877 23.5375 168.43 23.5536 168.567C23.6407 168.634 23.8723 168.53 24.2484 168.256C24.517 168.071 26.02 166.934 28.7586 164.845C31.4965 162.755 34.8965 159.993 38.9578 156.556C43.0191 153.12 46.4542 150.07 49.262 147.406C50.4773 145.544 51.1792 144.242 51.3673 143.501Z" fill="#1D93D1"/>
<path d="M148.782 161.877C144.728 160.66 137.633 159.85 137.633 159.85H116.147C111.712 159.85 107.579 160.759 105.532 161.293L104.69 161.524L104.415 161.604L104.188 161.674H96.8903C91.5697 160.724 86.427 160.309 85.8049 160.26L62.8373 160.256C58.9724 160.256 58.6081 162.691 58.5796 163.341L58.5788 163.499C58.5788 166.945 62.6343 166.539 62.6343 166.539H85.3368C88.985 166.539 97.4986 164.714 97.4986 164.714H103.58C107.395 166.241 114.622 166.51 115.46 166.537L135.2 166.539C139.66 166.337 148.173 165.323 148.173 165.323H299.996V161.877H148.782Z" fill="#1D93D1"/>
<path d="M88.1744 151.742L83.9179 150.729H60.8102C55.9455 150.526 56.3508 153.972 56.3508 153.972C56.3508 157.823 60.4049 157.417 60.4049 157.417H83.715L89.7962 155.999H96.688L102.566 157.215H132.566C137.43 157.215 144.728 155.796 144.728 155.796H299.996V152.35H144.93C139.444 150.837 135.723 150.736 135.251 150.729L102.972 150.729L97.2962 151.742H88.1744Z" fill="#1D93D1"/>
<path d="M82.2961 142.621L81.0803 141.404H62.8373C58.1749 141.201 58.5802 144.445 58.5802 144.445C58.5802 148.499 63.0396 147.89 63.0396 147.89H80.0667L81.0803 147.283H93.0391L93.8503 148.093H126.485C131.755 148.296 138.849 146.877 138.849 146.877H299.996V143.431H139.255C131.349 141.607 127.498 141.404 127.498 141.404H93.2421L91.215 142.621H82.2961Z" fill="#1D93D1"/>
<path d="M115.167 132.308L114.931 132.283H50.2696C45.4049 132.08 45.8101 135.729 45.8101 135.729C46.0131 138.972 50.0666 138.566 50.0666 138.566H114.323C118.782 138.566 127.093 137.553 127.093 137.553H299.996V134.107H127.904C122.479 133.177 117.765 132.602 115.847 132.384L115.167 132.308Z" fill="#1D93D1"/>
<path d="M97.9044 125.188C91.0122 122.891 85.9286 122.944 85.385 122.957L33.4454 122.958C29.1888 122.781 28.8121 125.708 28.7844 126.442L28.7836 126.607C28.5942 130.012 32.1132 129.886 32.5832 129.854L84.9315 129.85C90.8097 129.648 97.2962 128.431 97.2962 128.431H299.996V125.188H97.9044Z" fill="#1D93D1"/>
<path d="M117.769 115.864C109.97 113.688 105.255 113.621 104.348 113.631L81.8909 113.634L79.4585 114.85H61.6208L58.9855 113.634H23.716C18.6483 113.634 19.0536 117.283 19.0536 117.283C19.0536 120.277 22.8533 120.507 23.4379 120.525L65.472 120.526L66.0802 119.513H71.9585L72.7691 120.324H103.782C111.282 120.324 117.566 119.107 117.566 119.107H299.996V115.864H117.769Z" fill="#1D93D1"/>
<path d="M64.8643 106.337C62.8373 105.729 59.999 105.121 59.999 105.121H16.4189C11.9595 105.121 12.5677 108.364 12.5677 108.364C12.5677 111.152 15.4632 111.384 15.9458 111.403L58.5802 111.405C60.8102 111.202 64.6608 110.391 64.6608 110.391H70.742C73.1749 111.405 76.2155 111.607 76.2155 111.607H119.999C123.85 111.607 129.323 110.188 129.323 110.188H299.996V106.945H129.525C126.08 105.526 121.215 105.324 121.215 105.324L120.502 105.32C117.418 105.305 104.892 105.248 94.0949 105.236L87.9135 105.235C82.6012 105.24 78.4877 105.265 77.4314 105.324C73.7826 105.526 70.742 106.337 70.742 106.337H64.8643Z" fill="#1D93D1"/>
<path d="M128.309 95.9996H78.0397C74.1885 95.7966 69.5261 97.4184 69.5261 97.4184H60.4043C57.1456 96.2178 54.3224 96.0331 53.5308 96.0047L10.743 95.9996C7.29708 95.9996 7.70237 99.2425 7.70237 99.2425C7.70237 101.776 9.53245 102.058 10.1425 102.082L52.0937 102.081C55.9455 102.283 60.6073 100.661 60.6073 100.661H69.9314C72.7691 102.081 77.6338 102.283 77.6338 102.283H127.093C133.174 102.283 136.62 100.864 136.62 100.864H299.996V97.8237H137.025C132.085 96.1767 129.418 96.0019 128.592 95.9942L128.34 95.9978L128.309 95.9996Z" fill="#1D93D1"/>
<path d="M51.8913 88.2972C46.405 86.9724 43.7436 86.7078 43.4131 86.6784L8.51356 86.6754C5.27001 86.6754 5.47045 89.716 5.47045 89.716C5.47045 92.959 8.10827 92.5531 8.10827 92.5531H41.959C47.0266 92.1484 50.6749 91.1342 50.6749 91.1342H73.1749C76.2155 92.3507 81.2826 92.959 81.2826 92.959H133.782C138.039 92.7566 142.092 91.3378 142.092 91.3378H299.996V88.4995H142.296C138.155 86.9936 135.062 86.886 134.642 86.8784L82.9044 86.8778C77.4314 86.6754 73.7826 88.2972 73.7826 88.2972H51.8913Z" fill="#1D93D1"/>
<path d="M37.7025 79.3777C33.4454 78.1613 29.1889 77.5536 29.1889 77.5536H4.86472C2.43236 77.5536 2.43236 80.7972 2.43236 80.7972C2.43236 83.5412 4.17387 83.8185 4.70972 83.8388L27.7701 83.8378C31.3376 83.5401 35.123 82.698 36.8882 82.2701L37.6372 82.0835C37.8111 82.0389 37.9048 82.0136 37.9048 82.0136H79.6608C83.3097 82.8242 87.9721 83.6348 87.9721 83.6348H136.823C141.485 83.4319 145.945 82.216 145.945 82.216H299.996V78.973H146.349C141.644 77.655 138.511 77.5609 138.088 77.5541L88.7826 77.5536C84.3232 77.7566 79.8638 79.3777 79.8638 79.3777H37.7025Z" fill="#1D93D1"/>
<path d="M148.376 70.0536C143.917 68.6348 140.674 68.2301 140.674 68.2301H101.147C96.485 68.2301 91.215 69.8512 91.215 69.8512H0V72.8918H90.2015C93.2421 73.9054 99.3233 74.716 99.3233 74.716H140.066C144.525 74.716 149.592 72.8918 149.592 72.8918H299.996V70.0536H148.376Z" fill="#1D93D1"/>
<path d="M150.606 60.5271C147.363 59.7159 141.282 59.1083 141.282 59.1083H121.417C117.16 59.3106 111.89 60.5271 111.89 60.5271H0V63.77H111.688C115.539 64.9859 119.796 65.3918 119.796 65.3918H141.485C146.147 65.1895 151.417 63.973 151.417 63.973H299.996V60.5271H150.606Z" fill="#1D93D1"/>
<path d="M299.996 54.2429V51H0V54.2429H299.996Z" fill="#1D93D1"/>
<path fill-rule="evenodd" clip-rule="evenodd" d="M14.1017 229.649C13.9102 229.946 13.7522 230.191 13.6397 230.307C13.5881 230.361 13.4391 230.354 13.2602 230.345C12.9866 230.332 12.6431 230.316 12.4716 230.507C12.2944 230.706 12.2854 231.216 12.2736 231.88C12.2534 233.022 12.2251 234.619 11.3166 235.862C10.6666 236.752 9.48292 237.957 7.67611 237.819C4.17799 237.551 5.26014 234.691 5.84566 233.143C6.06672 232.559 6.21699 232.162 6.0233 232.162C5.78514 232.162 4.69281 234.675 4.52986 236.576C4.37228 238.413 5.11184 239.635 6.66079 239.897C9.58081 240.393 12.2716 237.421 12.819 231.998C12.8262 231.929 12.99 231.924 13.2411 231.916C13.657 231.904 14.3123 231.884 14.8932 231.551C15.6107 231.14 16.1497 230.248 16.4018 229.831C16.4462 229.757 16.4818 229.699 16.5078 229.66C16.6905 229.388 17.31 227.668 16.2309 227.617C15.4357 227.579 14.6376 228.817 14.1017 229.649ZM15.5886 228.724C14.6825 228.842 13.9579 230.244 13.9997 230.294C14.0677 230.374 14.8622 230.31 15.3892 230.041C15.7832 229.84 16.2858 229.149 16.2858 229.149C16.2858 229.149 16.2326 228.64 15.5886 228.724Z" fill="#1D93D1"/>
<path d="M32.4563 228.643C32.5769 227.921 31.4619 227.349 31.0369 227.513C30.6119 227.676 30.1941 228.922 30.095 229.299C30.0682 229.402 30.1812 229.485 30.2808 229.558C30.3671 229.622 30.4434 229.678 30.4096 229.733C30.2686 229.962 29.8792 230.368 29.4816 230.784C29.1217 231.16 28.7549 231.543 28.5598 231.807C28.3163 232.136 27.976 232.652 27.9462 233.066C27.8626 234.209 28.5011 234.401 29.031 234.561C29.4175 234.677 29.7462 234.776 29.6951 235.213C29.6438 235.654 28.952 236.599 28.0721 237.113C27.2908 237.569 26.3405 237.622 25.8696 237.619C24.4961 237.611 23.9308 236.854 23.8628 235.847C23.7743 234.537 24.5247 232.936 24.998 231.926C25.2657 231.355 25.4448 230.973 25.3336 230.939C25.2661 230.919 24.3672 232.334 23.7154 234.305C22.6153 237.631 23.3721 239.504 25.0327 239.707C28.9961 240.192 30.6465 234.465 30.0944 233.186C29.8967 232.729 29.4464 232.624 29.1241 232.548C28.8654 232.488 28.6892 232.447 28.7926 232.258C28.8196 232.209 28.8443 232.16 28.8688 232.113C29.017 231.823 29.1603 231.543 29.8109 231.032C30.244 230.692 30.6536 230.442 31.016 230.221C31.7743 229.759 32.3263 229.422 32.4563 228.643Z" fill="#1D93D1"/>
<path d="M0.463194 232.5C0.463194 229.575 3.37009 226.737 3.63213 226.922C3.68318 226.959 3.54576 227.214 3.32456 227.625C2.78019 228.636 1.72837 230.589 1.72922 232.541C1.73008 234.912 2.84278 237.006 3.37361 238.005C3.57229 238.379 3.68946 238.6 3.6363 238.624C3.53244 238.671 0.463194 236.997 0.463194 232.5Z" fill="#1D93D1"/>
<path d="M45.8287 232.026C45.8287 229.254 42.8257 226.564 42.5559 226.74C42.5031 226.775 42.645 227.017 42.8736 227.406C43.4358 228.365 44.5217 230.216 44.5208 232.065C44.52 234.313 43.3702 236.298 42.8221 237.244C42.6172 237.598 42.4963 237.807 42.5511 237.829C42.6585 237.875 45.8287 236.288 45.8287 232.026Z" fill="#1D93D1"/>
<path d="M41.1448 231.249C42.1965 230.885 42.3499 229.398 42.2467 229.367C42.1934 229.351 42.1226 229.502 42.0417 229.675C41.9432 229.886 41.8296 230.128 41.7142 230.14C41.6438 230.147 41.594 230.104 41.5469 230.063C41.4942 230.017 41.4449 229.974 41.374 230.008C41.3005 230.043 41.2599 230.16 41.2126 230.296C41.142 230.5 41.0563 230.748 40.8237 230.83C40.7146 230.869 40.6319 230.847 40.534 230.821C40.4309 230.794 40.3108 230.762 40.1253 230.791C39.8146 230.841 39.1999 231.698 38.8474 232.19C38.7022 232.393 38.6014 232.533 38.5847 232.53C38.5065 232.513 38.4585 232.431 38.3982 232.326C38.2737 232.112 38.0967 231.807 37.4942 231.806C37.0646 231.806 36.8468 232.069 36.6028 232.363C36.2956 232.733 35.9469 233.154 35.0815 233.163C33.3669 233.18 33.9675 229.585 34.3068 227.554C34.435 226.786 34.5259 226.242 34.4404 226.201C34.1294 226.05 33.1464 230.709 33.157 232.201C33.1576 232.278 33.1576 232.358 33.1576 232.44C33.1579 233.529 33.1584 235.081 34.3718 235.128C35.1883 235.16 35.6706 234.686 36.021 234C36.4221 233.213 36.8525 233.042 37.1665 233.062C37.4595 233.081 37.7681 233.299 37.8547 233.576C37.9527 233.891 37.8463 234.415 37.7638 234.821C37.6982 235.144 37.6476 235.393 37.7275 235.402C37.7979 235.41 37.9383 235.005 38.1059 234.521C38.2754 234.032 38.4727 233.463 38.6533 233.16C38.9685 232.631 39.5732 232.009 39.8841 231.786C39.9653 231.728 40.0136 231.745 40.0808 231.77C40.1564 231.797 40.256 231.834 40.4536 231.781C40.6495 231.728 40.7368 231.617 40.824 231.507C40.9035 231.406 40.983 231.305 41.1448 231.249Z" fill="#1D93D1"/>
<path fill-rule="evenodd" clip-rule="evenodd" d="M20.2008 232.252C19.9947 232.658 19.8176 233.008 19.6439 233.124C19.5126 233.211 19.2834 233.109 18.9127 232.936C17.9116 232.47 18.4315 229.135 18.7155 227.312C18.8254 226.607 18.9 226.129 18.8375 226.13C18.7134 226.134 18.1636 227.523 18.1505 228.009C18.141 228.355 18.0367 228.902 17.9144 229.543C17.5036 231.696 16.8895 234.914 18.9784 235.212C19.7197 235.317 20.5452 235.177 21.1791 234.548C21.8643 233.869 22.3876 232.963 22.8138 232.226C23.1083 231.716 23.3563 231.287 23.5793 231.068C23.6652 230.984 23.6581 230.762 23.5691 230.707C23.5159 230.674 23.3913 230.685 23.2627 230.697C23.1779 230.704 23.0914 230.712 23.0224 230.707C22.9137 230.7 22.7864 230.665 22.6451 230.627C22.34 230.544 21.9696 230.443 21.5809 230.56C20.9634 230.747 20.5423 231.578 20.2008 232.252ZM21.2973 231.38C20.7798 231.471 20.0295 233.095 20.0618 233.143C20.1179 233.227 20.8676 233.136 21.5289 232.75C22.1658 232.379 22.66 231.631 22.6039 231.568C22.4893 231.44 21.8148 231.289 21.2973 231.38Z" fill="#1D93D1"/>
<path d="M20.8437 227.018C20.8449 226.82 21.6752 225.394 22.0375 225.275C22.3998 225.157 23.0349 225.957 23.0182 226.307C22.9645 227.398 22.0667 227.868 21.9277 227.868C21.8817 227.868 21.8018 227.788 21.6984 227.685C21.6177 227.605 21.5227 227.51 21.4185 227.429C21.2988 227.335 21.1744 227.263 21.0721 227.204C20.9391 227.127 20.8433 227.072 20.8437 227.018Z" fill="#1D93D1"/>
</svg>
