<svg width="300" height="300" viewBox="0 0 300 300" fill="none" xmlns="http://www.w3.org/2000/svg">
<path d="M214.424 37.3141L222.713 42.2884L94.6967 116.964V181.545L140.607 208.236L68.4376 251.586L21.874 223.882V74.6281L150.24 0L214.424 37.3141Z" fill="#243873"/>
<path d="M85.5721 262.682L77.2817 257.708L205.299 183.033V118.451L159.389 91.7605L231.558 48.4103L278.121 76.1145V225.369L149.754 299.996L85.5721 262.682Z" fill="#243873"/>
<path fill-rule="evenodd" clip-rule="evenodd" d="M149.995 193.745C174.092 193.745 193.745 174.092 193.745 149.996C193.745 125.899 174.092 106.246 149.995 106.246C125.899 106.246 106.246 125.899 106.246 149.996C106.246 174.092 125.899 193.745 149.995 193.745" fill="#DBAF2E"/>
</svg>
