<svg width="300" height="300" viewBox="0 0 300 300" fill="none" xmlns="http://www.w3.org/2000/svg">
<path fill-rule="evenodd" clip-rule="evenodd" d="M163.326 0L86.4264 47.4309C83.959 51.1493 82.3732 55.5594 82.3732 60.9194C82.3732 73.6729 92.8158 78.9259 103.296 83.5845L138.898 99.3948C133.064 96.5945 126.519 93.2409 126.519 88.8915C126.519 85.0713 129.912 82.5802 132.435 81.0416L160.916 63.6834C173.85 55.8318 181.511 45.6066 181.511 30.2939C181.511 15.9872 172.545 5.27556 163.326 0ZM171.761 170.154C177.402 172.738 179.32 174.776 179.32 178.004C179.32 181.107 176.617 183.959 168.256 188.618L158.287 194.257L216.784 220.46C220.776 217.036 223.575 212.043 223.575 207.082C223.575 198.355 219.508 191.41 206.487 185.522L171.761 170.154ZM53.125 261.92L90.3699 239.476L148.428 265.679L111.402 289.339C103.626 294.015 96.5706 296.747 89.165 296.747C70.0018 296.747 54.0456 280.967 53.125 261.92Z" fill="#80B0D5"/>
<path fill-rule="evenodd" clip-rule="evenodd" d="M155.546 97.6403L223.792 56.1797C233.014 61.5477 242.086 72.063 242.086 86.363C242.086 101.674 234.633 112.213 221.382 119.753L214.262 123.843L155.546 97.6403ZM81.8232 156.57C81.8232 149.433 83.9151 145.696 87.3004 141.975L146.016 168.068L131.447 176.471C127.443 178.957 124.655 181.206 124.655 184.32C124.655 187.69 128.496 190.483 133.638 192.834L105.923 180.561C105.393 180.323 104.865 180.085 104.339 179.849C92.5489 174.558 81.8232 169.745 81.8232 156.57Z" fill="#A2D993"/>
<path d="M86.4234 47.4453C70.3296 57.3715 60.1328 70.8503 60.1328 91.4488C60.1328 113.819 74.0282 126.624 96.2823 136.558L206.484 185.537C219.495 191.424 223.572 198.381 223.572 207.096C223.572 212.063 220.773 217.051 216.781 220.474L223.244 216.383C237.106 207.679 245.81 195.859 245.81 177.134C245.81 153.122 230.018 139.956 210.537 131.251L103.293 83.5989C92.8128 78.9403 82.3702 73.6873 82.3702 60.9338C82.3702 55.5738 83.956 51.1637 86.4234 47.4453Z" fill="#086DA9"/>
<path d="M233.701 299.592C218.915 288.099 203.143 280.325 183.966 271.545L95.3438 231.97C73.0784 221.956 58.3145 208.603 58.3145 186.135C58.3145 164.296 68.789 153.722 82.4045 145.036L87.3256 141.922C83.9403 145.643 81.7941 149.38 81.7941 156.517C81.7941 170.281 93.4947 174.939 105.89 180.529L208.993 226.386C226.928 234.158 243.341 247.528 243.341 270.294C243.341 282.81 238.622 294.009 233.701 299.592" fill="#35AF3B"/>
</svg>
