<svg width="300" height="300" viewBox="0 0 300 300" fill="none" xmlns="http://www.w3.org/2000/svg">
<path fill-rule="evenodd" clip-rule="evenodd" d="M268.226 116.195C275.825 132.698 280.063 151.06 280.063 170.404C280.063 185.85 277.361 200.67 272.403 214.418C270.401 214.097 268.347 213.93 266.254 213.93C244.967 213.93 227.684 231.2 227.684 252.471C227.684 259.16 229.393 265.452 232.398 270.937C212.37 287.353 187.356 297.915 159.984 299.996V265.643C208.186 260.645 245.821 219.882 245.821 170.404C245.821 157.291 243.178 144.79 238.394 133.406L268.226 116.195ZM31.358 117.089L61.2203 134.317C56.6758 145.456 54.1708 157.64 54.1708 170.404C54.1708 219.21 90.7924 259.537 138.051 265.419V299.833C111.445 297.408 87.1447 286.961 67.5943 270.937C70.599 265.452 72.3077 259.16 72.3077 252.471C72.3077 231.2 55.0252 213.93 33.7379 213.93C31.6451 213.93 29.5911 214.097 27.5884 214.418C22.6311 200.67 19.9291 185.85 19.9291 170.404C19.9291 151.409 24.0152 133.36 31.358 117.089ZM33.7379 223.44C49.7726 223.44 62.7908 236.448 62.7908 252.471C62.7908 268.494 49.7726 281.502 33.7379 281.502C17.7037 281.502 4.68555 268.494 4.68555 252.471C4.68555 236.448 17.7037 223.44 33.7379 223.44ZM266.254 223.44C282.289 223.44 295.307 236.448 295.307 252.471C295.307 268.494 282.289 281.502 266.254 281.502C250.219 281.502 237.202 268.494 237.202 252.471C237.202 236.448 250.219 223.44 266.254 223.44ZM109.704 218.234C112.282 223.153 115.279 227.855 118.671 232.255C122.603 237.353 127.066 242.046 131.997 246.19C134.4 248.209 136.914 250.098 139.526 251.837C121.238 249.508 104.819 241.161 92.3235 228.848C97.6036 224.705 103.376 221.187 109.457 218.347L109.704 218.234ZM190.44 218.304L190.536 218.347C196.617 221.187 202.388 224.705 207.668 228.848C195.227 241.109 178.894 249.438 160.7 251.807C163.296 250.075 165.795 248.198 168.184 246.19C173.669 241.579 178.575 236.29 182.817 230.518C185.661 226.647 188.207 222.557 190.44 218.304ZM152.52 209.531C156.11 209.633 159.689 209.899 163.251 210.381C171.054 211.437 178.73 213.445 186.031 216.391C183.468 221.23 180.476 225.845 177.08 230.143C173.307 234.92 169.037 239.306 164.328 243.166C160.642 246.186 156.689 248.881 152.52 251.185V209.531ZM147.472 209.531V251.08C143.372 248.799 139.482 246.14 135.853 243.166C131.144 239.306 126.873 234.92 123.1 230.143C119.69 225.826 116.687 221.191 114.116 216.329C121.371 213.417 128.993 211.429 136.741 210.381C140.303 209.899 143.882 209.633 147.472 209.531ZM232.114 172.925C231.503 193.136 223.566 211.52 210.868 225.513C205.216 221.032 199.021 217.234 192.484 214.182C198.502 201.275 201.678 187.134 202.014 172.925H232.114ZM67.8783 172.925H98.1665C98.5011 187.106 101.667 201.22 107.666 214.109L107.508 214.182C100.972 217.234 94.7759 221.032 89.1237 225.513C76.427 211.52 68.4899 193.136 67.8783 172.925ZM197.223 172.925C196.888 186.477 193.845 199.961 188.089 212.262C180.333 209.1 172.17 206.947 163.869 205.824C160.102 205.314 156.317 205.035 152.52 204.931V172.925H197.223ZM147.472 172.925V204.931C143.675 205.035 139.89 205.314 136.123 205.824C127.879 206.94 119.77 209.071 112.062 212.198C106.326 199.914 103.291 186.454 102.957 172.925H147.472ZM67.8783 167.882C68.4899 147.67 76.4276 129.286 89.1249 115.292C94.8234 119.808 101.07 123.625 107.668 126.694C101.671 139.582 98.5023 153.697 98.1671 167.882H67.8783ZM102.957 167.882C103.293 154.35 106.329 140.889 112.063 128.607C114.914 129.765 117.819 130.786 120.765 131.669C129.427 134.265 138.434 135.661 147.472 135.88V167.882H102.957ZM202.015 167.882C201.68 153.671 198.502 139.53 192.48 126.621C199.02 123.565 205.213 119.773 210.867 115.292C223.565 129.286 231.503 147.67 232.114 167.882H202.015ZM152.52 135.88C161.558 135.661 170.566 134.265 179.227 131.669C182.227 130.77 185.186 129.727 188.088 128.542C193.841 140.841 196.887 154.326 197.223 167.882H152.52V135.88ZM147.472 89.7251V131.28C138.882 131.063 130.32 129.732 122.087 127.264C119.391 126.457 116.729 125.526 114.116 124.476C114.254 124.215 114.393 123.955 114.534 123.695C116.848 119.419 119.498 115.324 122.467 111.473C126.597 106.117 131.346 101.233 136.632 97.0094C140.036 94.2882 143.664 91.8432 147.472 89.7251ZM152.52 89.6214C156.397 91.7632 160.088 94.2432 163.549 97.0094C168.834 101.233 173.583 106.117 177.713 111.473C180.683 115.324 183.333 119.419 185.647 123.695C185.776 123.933 185.904 124.173 186.031 124.413C183.368 125.489 180.654 126.44 177.905 127.264C169.672 129.732 161.11 131.063 152.52 131.28V89.6214ZM139.523 88.9708C137.205 90.5133 134.966 92.1726 132.814 93.937C127.278 98.4744 122.315 103.699 118.013 109.414C114.929 113.511 112.184 117.86 109.796 122.397L109.705 122.569C103.53 119.706 97.6761 116.154 92.3254 111.957C104.819 99.6456 121.236 91.2995 139.523 88.9708ZM160.705 89.0014C178.897 91.3714 195.226 99.6988 207.667 111.957C202.36 116.12 196.558 119.648 190.438 122.498C187.869 117.605 184.885 112.928 181.509 108.551C177.577 103.452 173.115 98.7594 168.184 94.6157C165.796 92.6089 163.299 90.732 160.705 89.0014ZM42.0333 97.94C59.0938 72.6197 84.8362 53.6168 114.982 45.2044C121.105 58.4061 134.488 67.5723 149.996 67.5723C165.505 67.5723 178.888 58.4061 185.011 45.2044C214.834 53.5268 240.347 72.2141 257.408 97.1288L227.638 114.304C210.221 90.2839 181.922 74.6491 149.996 74.6491C117.718 74.6491 89.1462 90.6307 71.7805 115.102L42.0333 97.94ZM149.996 0C166.031 0 179.049 13.0086 179.049 29.0309C179.049 45.0538 166.031 58.0624 149.996 58.0624C133.962 58.0624 120.944 45.0538 120.944 29.0309C120.944 13.0086 133.962 0 149.996 0Z" fill="#00920A"/>
</svg>
