<svg width="300" height="300" viewBox="0 0 300 300" fill="none" xmlns="http://www.w3.org/2000/svg">
<path fill-rule="evenodd" clip-rule="evenodd" d="M195.424 156.254C195.424 131.045 174.942 110.562 150.047 110.562C124.838 110.562 104.355 130.73 104.355 155.939C104.355 181.149 124.838 201.316 149.732 201.631C175.257 201.947 195.424 181.464 195.424 156.254Z" fill="#CDCCCC"/>
<path d="M135.551 98.2757C131.455 99.5363 127.358 97.0151 125.782 93.2339L103.094 36.1977C102.148 33.6765 103.094 30.8403 105.299 29.2647L133.975 8.46681C143.744 1.2194 156.979 1.2194 166.432 8.46681L195.108 29.5797C197.315 30.8403 197.945 33.6765 197.315 36.1977L174.625 93.2339C173.05 97.3307 168.954 99.5363 164.542 98.5907C160.13 97.3307 155.088 96.7001 150.046 96.7001C145.32 96.7001 140.278 97.3307 135.551 98.2757Z" fill="#51B5D1"/>
<path d="M185.97 108.99C193.848 114.977 200.15 122.855 203.932 131.678C205.823 135.46 210.864 137.666 214.646 136.405L272.943 118.759C275.464 118.129 277.039 115.292 277.039 112.771L275.779 77.1628C275.149 65.1886 266.956 55.1044 255.611 51.9531L221.263 42.4995C218.427 41.8695 215.906 42.8151 214.646 45.0207L183.764 98.2757C182.188 101.112 182.819 106.469 185.97 108.99Z" fill="#51B5D1"/>
<path d="M85.1322 136.72L26.5198 119.704C23.9992 118.444 22.4236 116.237 22.7386 113.717L23.9992 78.1085C24.3142 66.1336 32.5072 56.05 43.5364 52.5838L77.8841 42.8151C80.4054 42.1845 82.926 43.1301 84.5016 45.3357L115.384 98.2757C117.589 101.742 116.644 106.784 113.492 109.305C105.615 115.292 99.6276 123.17 95.5308 132.308C93.6402 136.09 88.9134 137.981 85.1322 136.72Z" fill="#51B5D1"/>
<path d="M297.522 172.014L283.342 139.556C282.397 137.035 279.875 135.46 277.354 136.09L216.852 145.859C212.44 146.489 209.289 150.271 209.604 154.682V156.572C209.604 166.026 207.398 175.165 203.301 183.043C201.411 186.824 202.671 191.551 206.138 193.757L256.872 228.105C259.078 229.68 262.229 229.365 264.119 227.475L290.59 203.841C299.728 195.648 302.564 183.043 297.522 172.014Z" fill="#51B5D1"/>
<path d="M90.174 156.257C90.174 165.711 92.6946 174.85 96.7914 182.728C98.367 186.824 97.4214 191.551 93.6402 194.072L43.2215 228.42C40.7002 229.995 38.1796 229.68 35.9734 227.79L9.50375 204.471C0.365112 196.593 -2.4711 183.673 2.25571 172.644L16.4362 140.186C17.3818 137.981 19.9024 136.72 22.4236 136.72L82.926 146.174C87.3378 146.804 90.489 150.586 90.174 154.997V156.257Z" fill="#51B5D1"/>
<path d="M199.835 201.634C196.684 198.799 191.957 198.799 188.491 201.319C181.243 207.622 172.42 212.034 162.651 214.239C158.554 214.87 155.404 218.966 155.719 223.378L160.761 284.511C161.076 287.032 163.281 289.238 165.802 289.553L201.096 295.54C212.755 297.746 224.414 291.759 230.087 281.045L246.473 249.533C247.733 247.327 247.418 244.176 245.528 242.285L199.835 201.634Z" fill="#51B5D1"/>
<path d="M137.757 214.555C127.988 212.349 118.85 207.937 111.602 201.95C108.451 199.114 103.409 199.744 100.573 202.265L55.1957 244.176C53.3051 246.066 52.9901 248.903 54.2507 251.108L70.9517 282.62C76.6235 293.019 88.5984 298.691 100.258 296.485L135.551 290.183C138.072 289.553 139.963 287.347 140.278 284.826L144.69 223.693C145.005 219.281 141.853 215.185 137.757 214.555Z" fill="#51B5D1"/>
</svg>
