<svg width="300" height="300" viewBox="0 0 300 300" fill="none" xmlns="http://www.w3.org/2000/svg">
<path fill-rule="evenodd" clip-rule="evenodd" d="M103.562 6.57483L25.2915 84.8456C21.1095 89.0587 18.7582 94.7513 18.748 100.688V277.517C18.748 283.479 21.1164 289.197 25.3321 293.412C29.5478 297.628 35.2655 299.996 41.2274 299.996H178.17C184.138 299.989 189.858 297.613 194.075 293.39L272.345 215.119C274.435 213.038 276.095 210.564 277.228 207.84C278.362 205.117 278.947 202.196 278.951 199.246V22.4794C278.951 19.5221 278.368 16.5939 277.234 13.8625C276.101 11.1311 274.439 8.65018 272.345 6.56196C270.251 4.47374 267.766 2.81923 265.031 1.69322C262.297 0.567216 259.367 -0.00815041 256.409 8.72177e-05H119.436C113.484 0.0102817 107.778 2.37373 103.562 6.57483V6.57483ZM235.902 192.984L209.384 219.503C205.867 223.007 201.106 224.977 196.141 224.982H142.447C141.338 224.981 140.253 224.65 139.331 224.033C138.41 223.415 137.692 222.537 137.27 221.511C136.847 220.485 136.739 219.357 136.958 218.269C137.178 217.181 137.715 216.183 138.502 215.401L175.54 178.457C176.327 177.675 176.865 176.677 177.084 175.59C177.304 174.502 177.195 173.374 176.773 172.347C176.35 171.321 175.633 170.444 174.711 169.826C173.789 169.208 172.705 168.878 171.595 168.877H119.498C117.007 168.877 114.618 167.888 112.857 166.126C111.095 164.365 110.106 161.976 110.106 159.485V46.9625C110.106 44.4715 111.095 42.0825 112.857 40.321C114.618 38.5596 117.007 37.5701 119.498 37.5701H232.052C234.543 37.5701 236.932 38.5596 238.693 40.321C240.454 42.0825 241.444 44.4715 241.444 46.9625V179.741C241.423 184.715 239.43 189.478 235.902 192.984Z" fill="#4C9F87"/>
</svg>
