<svg width="300" height="300" viewBox="0 0 300 300" fill="none" xmlns="http://www.w3.org/2000/svg">
<path d="M189.431 0.0575926C193.212 -0.13907 198.762 0.189924 202.514 0.710366C224.811 3.6549 244.706 15.2265 258.072 33.1945C274.756 55.192 278.787 85.0051 269.544 110.912C266.105 118.836 261.756 128.76 255.934 135.291C252.08 139.617 246.402 144.839 242.279 148.952L222.441 168.852C215.017 176.175 207.709 184.173 199.983 191.124C193.021 196.809 181.407 190.846 180.877 182.234C180.47 175.572 182.251 173.814 186.694 169.342C189.171 166.848 191.806 164.31 194.331 161.812L218.278 137.735C226.038 129.975 236.065 120.797 241.748 111.58C245.305 105.815 247.515 99.4852 248.672 92.85C252.186 73.8665 244.315 51.7098 229.736 39.1199C205.381 18.0893 168.216 21.1444 147.851 46.1868C136.851 59.6876 132.569 77.4499 136.21 94.4799C136.738 97.0261 137.231 99.217 138.093 101.732C139.721 106.48 143.563 112.059 144.246 116.943C144.535 120.562 143.308 123.297 141.084 126.132C137.308 130.945 129.696 131.984 124.763 128.449C123.956 127.871 121.271 124.748 120.687 123.724C116.367 116.144 113.098 107.829 111.323 99.2744C110.882 97.0733 110.255 90.4242 110.122 88.1645C109.759 81.9955 110.257 71.9025 111.552 65.9082C114.442 52.532 121.534 37.8785 130.628 27.6628C146.541 9.78816 165.845 1.38014 189.431 0.0575926Z" fill="#2BB675"/>
<path d="M90.412 33.2908C92.6508 33.2573 94.8692 33.7196 96.9085 34.6444C103.654 37.7275 104.99 45.9241 102.013 52.1188C100.926 53.9792 97.6227 57.0758 95.5679 57.5852C90.7887 58.77 85.2814 60.7125 80.9747 63.0508C70.4393 68.8052 62.0288 77.7891 56.9807 88.6805C50.9591 101.56 49.5336 118.208 54.5301 131.713C59.8843 146.428 70.9538 158.355 85.2279 164.792C113.095 177.403 146.161 164.386 158.848 136.589C167.86 116.843 165.024 96.2776 152.601 78.6828C144.315 66.9468 155.025 53.5878 167.501 58.7055C173.658 61.2318 182.736 78.996 184.837 85.2569C186.818 89.8835 188.898 100.367 189.2 105.319C191.605 145.207 167.837 181.448 128.753 192.218C125.663 193.068 122.592 193.401 119.427 193.866C117.402 194.166 115.406 194.392 113.368 194.598C107.788 195.164 102.416 194.529 96.9208 193.972C81.2046 192.385 66.2609 184.9 54.2958 174.787C37.2298 160.041 27.6454 139.137 26.1695 116.773C24.7531 95.3109 32.1813 75.877 45.8984 59.699C50.1319 54.7357 54.9045 50.259 60.1283 46.3517C68.0977 40.503 80.5008 34.1021 90.412 33.2908Z" fill="#2BB675"/>
<path d="M214.761 230.892C219.93 230.632 228.149 230.802 231.985 234.677C234.224 236.939 237.271 240.387 239.461 242.812C238.998 240.173 239.185 235.214 239.208 232.341C243.296 231.802 247.299 231.98 251.416 232.03C251.284 234.584 251.404 237.938 251.408 240.581L251.379 256.696C251.29 274.991 249.281 290.421 229.607 297.663C201.964 307.562 179.19 283.613 185.594 256.547C189.341 240.708 199.551 233.282 214.761 230.892ZM218.109 288.334C224.803 287.909 228.259 287.345 233.451 282.125C234.983 280.585 237.775 275.437 238.233 273.289C239.734 266.253 239.562 255.736 239.261 248.47C231.927 244.587 226.4 242.002 217.825 242.126C211.021 242.764 205.969 244.375 201.628 249.935C194.289 259.331 194.745 276.119 204.371 283.91C209.12 287.753 212.346 288.056 218.109 288.334Z" fill="#2BB675"/>
<path d="M75.4836 230.912C86.9096 230.469 99.2122 236.993 104.702 247.124C110.669 258.135 110.924 273.586 104.02 284.264C100.915 289.065 96.3482 292.834 91.5963 295.93C86.1204 299.392 80.6202 300.291 74.2799 299.923C71.5869 299.769 69.5739 299.96 66.8414 299.255C62.8549 298.289 57.6362 291.524 54.006 288.267C53.7392 290.933 53.8536 295.851 53.8561 298.647C50.7443 298.359 45.4407 298.473 42.1628 298.424C42.792 283.217 40.3086 265.341 45.1931 250.454C45.9013 248.297 48.541 244.278 50.0662 242.493C56.829 234.575 65.312 231.615 75.4836 230.912ZM54.2585 281.907C63.0156 286.36 67.1316 289.233 77.7908 288.317C78.7032 288.193 81.6256 287.83 82.357 287.592C85.9539 286.337 89.6717 283.868 91.9674 280.81C96.3347 274.991 97.8725 268.073 96.8911 260.915C95.2958 249.284 85.2207 240.677 73.2991 242.298C52.5017 244.898 53.2483 265.772 54.2585 281.907Z" fill="#2BB675"/>
<path d="M143.855 231.663C162.711 230.017 179.323 243.992 180.928 262.851C182.531 281.712 168.52 298.293 149.655 299.854C130.851 301.411 114.336 287.453 112.736 268.652C111.137 249.851 125.058 233.305 143.855 231.663ZM148.559 288.162C149.672 288.067 151.545 287.98 152.551 287.677C163.217 284.476 169.066 273.414 167.975 262.774C166.82 251.513 157.578 241.206 145.793 242.251C145.648 242.265 145.503 242.28 145.359 242.3C138.885 243.082 134.523 244.919 130.439 250.28C122.876 260.204 124.451 276.298 134.269 284.161C138.725 287.729 143.031 288.5 148.559 288.162Z" fill="#2BB675"/>
</svg>
