<svg width="450" height="450" viewBox="0 0 450 450" fill="none" xmlns="http://www.w3.org/2000/svg">
<path d="M284.147 0.0863888C289.818 -0.208605 298.143 0.284886 303.771 1.06555C337.217 5.48235 367.059 22.8397 387.108 49.7917C412.134 82.788 418.181 127.508 404.316 166.368C399.158 178.254 392.634 193.14 383.901 202.937C378.12 209.426 369.603 217.258 363.419 223.428L333.662 253.278C322.526 264.263 311.564 276.259 299.975 286.686C289.532 295.213 272.111 286.269 271.316 273.351C270.705 263.358 273.377 260.721 280.041 254.013C283.757 250.272 287.709 246.465 291.497 242.718L327.417 206.603C339.057 194.963 354.098 181.196 362.622 167.37C367.958 158.723 371.273 149.228 373.008 139.275C378.279 110.8 366.473 77.5647 344.604 58.6798C308.072 27.134 252.324 31.7166 221.777 69.2802C205.277 89.5314 198.854 116.175 204.315 141.72C205.107 145.539 205.847 148.826 207.14 152.598C209.582 159.72 215.345 168.089 216.369 175.415C216.803 180.843 214.962 184.946 211.626 189.198C205.962 196.418 194.544 197.976 187.145 192.674C185.934 191.807 181.907 187.122 181.031 185.586C174.551 174.216 169.647 161.743 166.985 148.912C166.323 145.61 165.383 135.636 165.183 132.247C164.639 122.993 165.386 107.854 167.328 98.8623C171.663 78.798 182.301 56.8177 195.942 41.4942C219.812 14.6822 248.768 2.07021 284.147 0.0863888Z" fill="#2BB675"/>
<path d="M135.618 49.9361C138.976 49.8859 142.304 50.5793 145.363 51.9665C155.481 56.5912 157.485 68.8861 153.02 78.1781C151.389 80.9687 146.434 85.6136 143.352 86.3777C136.183 88.1549 127.922 91.0687 121.462 94.5761C105.659 103.208 93.0432 116.684 85.4711 133.021C76.4387 152.34 74.3004 177.312 81.7952 197.569C89.8265 219.642 106.431 237.532 127.842 247.188C169.642 266.104 219.242 246.579 238.272 204.883C251.79 175.264 247.536 144.416 228.901 118.024C216.472 100.42 232.538 80.3816 251.252 88.0582C260.487 91.8476 274.104 118.494 277.256 127.885C280.227 134.825 283.347 150.55 283.8 157.978C287.407 217.81 251.756 272.172 193.13 288.327C188.495 289.602 183.888 290.101 179.141 290.799C176.103 291.249 173.109 291.588 170.052 291.897C161.682 292.746 153.624 291.793 145.381 290.958C121.807 288.577 99.3914 277.35 81.4437 262.18C55.8447 240.061 41.4681 208.705 39.2543 175.159C37.1297 142.966 48.272 113.815 68.8476 89.5484C75.1979 82.1035 82.3567 75.3884 90.1924 69.5275C102.147 60.7544 120.751 51.1531 135.618 49.9361Z" fill="#2BB675"/>
<path d="M322.141 346.338C329.895 345.948 342.223 346.203 347.977 352.016C351.336 355.409 355.906 360.581 359.191 364.218C358.497 360.26 358.777 352.821 358.812 348.512C364.944 347.703 370.948 347.97 377.124 348.045C376.926 351.876 377.106 356.907 377.112 360.872L377.068 385.044C376.935 412.487 373.921 435.632 344.41 446.495C302.946 461.343 268.785 425.42 278.391 384.821C284.011 361.062 299.326 349.923 322.141 346.338ZM327.163 432.501C337.204 431.864 342.388 431.018 350.176 423.188C352.474 420.878 356.662 413.156 357.349 409.934C359.601 399.38 359.343 383.604 358.891 372.705C347.89 366.881 339.6 363.003 326.737 363.189C316.531 364.146 308.953 366.563 302.442 374.903C291.433 388.997 292.117 414.179 306.556 425.865C313.68 431.63 318.519 432.084 327.163 432.501Z" fill="#2BB675"/>
<path d="M113.225 346.368C130.364 345.703 148.818 355.489 157.053 370.686C166.003 387.202 166.386 410.379 156.03 426.396C151.372 433.597 144.522 439.251 137.394 443.895C129.181 449.088 120.93 450.436 111.42 449.884C107.38 449.653 104.361 449.94 100.262 448.882C94.2823 447.433 86.4543 437.286 81.009 432.4C80.6088 436.399 80.7804 443.776 80.7841 447.97C76.1164 447.538 68.161 447.709 63.2442 447.636C64.188 424.825 60.4629 398.011 67.7896 375.681C68.8519 372.445 72.8115 366.417 75.0993 363.739C85.2435 351.862 97.9679 347.422 113.225 346.368ZM81.3877 422.86C94.5234 429.54 100.697 433.849 116.686 432.475C118.055 432.289 122.438 431.745 123.535 431.388C128.931 429.505 134.508 425.802 137.951 421.215C144.502 412.486 146.809 402.109 145.337 391.372C142.944 373.926 127.831 361.015 109.949 363.447C78.7525 367.347 79.8724 398.658 81.3877 422.86Z" fill="#2BB675"/>
<path d="M215.782 347.494C244.066 345.025 268.984 365.988 271.392 394.276C273.796 422.568 252.78 447.439 224.482 449.781C196.276 452.116 171.504 431.179 169.104 402.978C166.705 374.776 187.587 349.957 215.782 347.494ZM222.838 432.243C224.508 432.1 227.317 431.97 228.826 431.515C244.825 426.714 253.599 410.121 251.962 394.161C250.23 377.269 236.367 361.809 218.689 363.376C218.472 363.397 218.254 363.42 218.038 363.45C208.327 364.623 201.784 367.378 195.658 375.42C184.314 390.306 186.676 414.447 201.403 426.241C208.087 431.593 214.546 432.75 222.838 432.243Z" fill="#2BB675"/>
</svg>
