<svg width="300" height="300" viewBox="0 0 300 300" fill="none" xmlns="http://www.w3.org/2000/svg">
<path d="M221.696 56.7772L197.262 32.5898C195.446 30.793 192.476 30.793 190.661 32.5898L147.779 75.0368C145.963 76.8345 145.963 79.7742 147.779 81.5712L172.213 105.759C174.029 107.555 176.999 107.555 178.815 105.759L221.696 63.3109C223.512 61.5141 223.512 58.574 221.696 56.7772Z" fill="#3A3AE4"/>
<path d="M103.11 68.6512L152.663 117.702C156.345 121.347 156.345 127.308 152.663 130.954L65.7003 217.036C62.0182 220.68 55.9954 220.68 52.3133 217.036L2.76089 167.984C-0.920297 164.34 -0.920297 158.379 2.76089 154.733L89.7239 68.6512C93.406 65.0073 99.4288 65.0073 103.11 68.6512Z" fill="#3A3AE4"/>
<path d="M247.682 81.8504L297.235 130.901C300.917 134.546 300.917 140.507 297.235 144.153L210.272 230.234C206.59 233.879 200.567 233.879 196.885 230.234L147.333 181.184C143.651 177.539 143.651 171.577 147.333 167.932L234.295 81.8504C237.977 78.2056 244 78.2056 247.682 81.8504Z" fill="#3A3AE4"/>
<path d="M128.379 194.223L152.813 218.41C154.629 220.207 154.629 223.147 152.813 224.944L109.931 267.391C108.116 269.189 105.145 269.189 103.33 267.391L78.8958 243.205C77.0797 241.408 77.0797 238.468 78.8958 236.67L121.777 194.223C123.593 192.425 126.563 192.425 128.379 194.223Z" fill="#3A3AE4"/>
</svg>
